<svg width="1000.0mm" height="473.2862074634226mm" xmlns="http://www.w3.org/2000/svg" fill="transparent" ><path d="M999.780809907 469.39558332 L999.726012384 469.450380843 L999.726012384 472.957422325 L999.671214861 473.012219848 L995.670995671 473.012219848 L995.616198148 473.067017371 L995.616198148 473.286207463 L999.835607431 473.286207463 L999.835607431 473.176612417 L999.890404954 473.121814894 L1000.0 473.121814894 L1000.0 469.39558332 999.780809907 469.39558332 " stroke="black" fill="transparent"/>
<path d="M141.651597348 374.705463313 L141.596799825 374.760260836 L141.596799825 436.571866952 L141.651597348 436.626664475 L141.980382487 436.626664475 L142.03518001 436.571866952 L142.03518001 436.517069428 L142.089977533 436.462271905 L143.131130473 436.462271905 L143.185927996 436.407474382 L143.185927996 436.352676859 L143.240725519 436.297879336 L144.446271029 436.297879336 L144.501068552 436.243081813 L144.501068552 436.18828429 L144.555866075 436.133486766 L145.597019015 436.133486766 L145.651816538 436.078689243 L145.651816538 436.02389172 L145.706614061 435.969094197 L146.91215957 435.969094197 L146.966957094 435.914296674 L146.966957094 435.859499151 L147.021754617 435.804701627 L148.062907557 435.804701627 L148.11770508 435.749904104 L148.11770508 435.695106581 L148.172502603 435.640309058 L149.378048112 435.640309058 L149.432845635 435.585511535 L149.432845635 435.530714012 L149.487643159 435.475916489 L150.528796098 435.475916489 L150.583593622 435.421118965 L150.583593622 435.366321442 L150.638391145 435.311523919 L151.679544085 435.311523919 L151.734341608 435.256726396 L151.734341608 435.201928873 L151.789139131 435.14713135 L152.99468464 435.14713135 L153.049482163 435.092333827 L153.049482163 435.037536303 L153.104279687 434.98273878 L154.145432626 434.98273878 L154.20023015 434.927941257 L154.20023015 434.873143734 L154.255027673 434.818346211 L155.460573182 434.818346211 L155.515370705 434.763548688 L155.515370705 434.708751164 L155.570168228 434.653953641 L156.611321168 434.653953641 L156.666118691 434.599156118 L156.666118691 434.544358595 L156.720916215 434.489561072 L157.926461724 434.489561072 L157.981259247 434.434763549 L157.981259247 434.379966026 L158.03605677 434.325168502 L159.07720971 434.325168502 L159.132007233 434.270370979 L159.132007233 434.215573456 L159.186804756 434.160775933 L160.392350266 434.160775933 L160.447147789 434.10597841 L160.447147789 434.051180887 L160.501945312 433.996383363 L161.543098252 433.996383363 L161.597895775 433.94158584 L161.597895775 433.886788317 L161.652693298 433.831990794 L162.858238808 433.831990794 L162.913036331 433.777193271 L162.913036331 433.722395748 L162.967833854 433.667598225 L164.008986794 433.667598225 L164.063784317 433.612800701 L164.063784317 433.558003178 L164.11858184 433.503205655 L165.15973478 433.503205655 L165.214532303 433.448408132 L165.214532303 433.393610609 L165.269329826 433.338813086 L166.474875336 433.338813086 L166.529672859 433.284015562 L166.529672859 433.229218039 L166.584470382 433.174420516 L167.625623322 433.174420516 L167.680420845 433.119622993 L167.680420845 433.06482547 L167.735218368 433.010027947 L168.940763877 433.010027947 L168.995561401 432.955230424 L168.995561401 432.9004329 L169.050358924 432.845635377 L170.091511864 432.845635377 L170.146309387 432.790837854 L170.146309387 432.736040331 L170.20110691 432.681242808 L171.406652419 432.681242808 L171.461449942 432.626445285 L171.461449942 432.571647762 L171.516247466 432.516850238 L172.557400406 432.516850238 L172.612197929 432.462052715 L172.612197929 432.407255192 L172.666995452 432.352457669 L173.872540961 432.352457669 L173.927338484 432.297660146 L173.927338484 432.242862623 L173.982136007 432.188065099 L175.023288947 432.188065099 L175.07808647 432.133267576 L175.07808647 432.078470053 L175.132883994 432.02367253 L176.338429503 432.02367253 L176.393227026 431.968875007 L176.393227026 431.914077484 L176.448024549 431.859279961 L177.489177489 431.859279961 L177.543975012 431.804482437 L177.543975012 431.749684914 L177.598772535 431.694887391 L178.639925475 431.694887391 L178.694722999 431.640089868 L178.694722999 431.585292345 L178.749520522 431.530494822 L179.955066031 431.530494822 L180.009863554 431.475697298 L180.009863554 431.420899775 L180.064661077 431.366102252 L181.105814017 431.366102252 L181.16061154 431.311304729 L181.16061154 431.256507206 L181.215409064 431.201709683 L182.420954573 431.201709683 L182.475752096 431.14691216 L182.475752096 431.092114636 L182.530549619 431.037317113 L183.571702559 431.037317113 L183.626500082 430.98251959 L183.626500082 430.927722067 L183.681297605 430.872924544 L184.886843115 430.872924544 L184.941640638 430.818127021 L184.941640638 430.763329498 L184.996438161 430.708531974 L186.037591101 430.708531974 L186.092388624 430.653734451 L186.092388624 430.598936928 L186.147186147 430.544139405 L187.352731657 430.544139405 L187.40752918 430.489341882 L187.40752918 430.434544359 L187.462326703 430.379746835 L188.503479643 430.379746835 L188.558277166 430.324949312 L188.558277166 430.270151789 L188.613074689 430.215354266 L189.818620198 430.215354266 L189.873417722 430.160556743 L189.873417722 430.10575922 L189.928215245 430.050961697 L190.969368185 430.050961697 L191.024165708 429.996164173 L191.024165708 429.94136665 L191.078963231 429.886569127 L192.120116171 429.886569127 L192.174913694 429.831771604 L192.174913694 429.776974081 L192.229711217 429.722176558 L193.435256726 429.722176558 L193.49005425 429.667379034 L193.49005425 429.612581511 L193.544851773 429.557783988 L194.586004713 429.557783988 L194.640802236 429.502986465 L194.640802236 429.448188942 L194.695599759 429.393391419 L195.901145268 429.393391419 L195.955942791 429.338593896 L195.955942791 429.283796372 L196.010740315 429.228998849 L197.051893254 429.228998849 L197.106690778 429.174201326 L197.106690778 429.119403803 L197.161488301 429.06460628 L198.36703381 429.06460628 L198.421831333 429.009808757 L198.421831333 428.955011233 L198.476628856 428.90021371 L199.517781796 428.90021371 L199.572579319 428.845416187 L199.572579319 428.790618664 L199.627376843 428.735821141 L200.832922352 428.735821141 L200.887719875 428.681023618 L200.887719875 428.626226095 L200.942517398 428.571428571 L201.983670338 428.571428571 L202.038467861 428.516631048 L202.038467861 428.461833525 L202.093265384 428.407036002 L203.298810894 428.407036002 L203.353608417 428.352238479 L203.353608417 428.297440956 L203.40840594 428.242643433 L204.44955888 428.242643433 L204.504356403 428.187845909 L204.504356403 428.133048386 L204.559153926 428.078250863 L205.600306866 428.078250863 L205.655104389 428.02345334 L205.655104389 427.968655817 L205.709901912 427.913858294 L206.915447422 427.913858294 L206.970244945 427.85906077 L206.970244945 427.804263247 L207.025042468 427.749465724 L208.066195408 427.749465724 L208.120992931 427.694668201 L208.120992931 427.639870678 L208.175790454 427.585073155 L209.381335964 427.585073155 L209.436133487 427.530275632 L209.436133487 427.475478108 L209.49093101 427.420680585 L210.53208395 427.420680585 L210.586881473 427.365883062 L210.586881473 427.311085539 L210.641678996 427.256288016 L211.847224505 427.256288016 L211.902022029 427.201490493 L211.902022029 381.335963614 L211.847224505 381.281166091 L210.970464135 381.281166091 L210.915666612 381.226368568 L210.915666612 381.171571045 L210.860869089 381.116773522 L209.162145871 381.116773522 L209.107348348 381.061975999 L209.107348348 381.007178476 L209.052550825 380.952380952 L207.518220176 380.952380952 L207.463422653 380.897583429 L207.463422653 380.842785906 L207.40862513 380.787988383 L205.709901912 380.787988383 L205.655104389 380.73319086 L205.655104389 380.678393337 L205.600306866 380.623595813 L204.065976218 380.623595813 L204.011178695 380.56879829 L204.011178695 380.514000767 L203.956381172 380.459203244 L202.257657954 380.459203244 L202.202860431 380.404405721 L202.202860431 380.349608198 L202.148062908 380.294810675 L200.44933969 380.294810675 L200.394542167 380.240013151 L200.394542167 380.185215628 L200.339744644 380.130418105 L198.805413995 380.130418105 L198.750616472 380.075620582 L198.750616472 380.020823059 L198.695818949 379.966025536 L196.997095731 379.966025536 L196.942298208 379.911228012 L196.942298208 379.856430489 L196.887500685 379.801632966 L195.188777467 379.801632966 L195.133979944 379.746835443 L195.133979944 379.69203792 L195.079182421 379.637240397 L193.544851773 379.637240397 L193.49005425 379.582442874 L193.49005425 379.52764535 L193.435256726 379.472847827 L191.736533509 379.472847827 L191.681735986 379.418050304 L191.681735986 379.363252781 L191.626938462 379.308455258 L189.928215245 379.308455258 L189.873417722 379.253657735 L189.873417722 379.198860212 L189.818620198 379.144062688 L188.28428955 379.144062688 L188.229492027 379.089265165 L188.229492027 379.034467642 L188.174694504 378.979670119 L186.475971286 378.979670119 L186.421173763 378.924872596 L186.421173763 378.870075073 L186.36637624 378.815277549 L184.832045592 378.815277549 L184.777248068 378.760480026 L184.777248068 378.705682503 L184.722450545 378.65088498 L183.023727328 378.65088498 L182.968929804 378.596087457 L182.968929804 378.541289934 L182.914132281 378.486492411 L181.215409064 378.486492411 L181.16061154 378.431694887 L181.16061154 378.376897364 L181.105814017 378.322099841 L179.571483369 378.322099841 L179.516685846 378.267302318 L179.516685846 378.212504795 L179.461888323 378.157707272 L177.763165105 378.157707272 L177.708367582 378.102909748 L177.708367582 378.048112225 L177.653570059 377.993314702 L175.954846841 377.993314702 L175.900049318 377.938517179 L175.900049318 377.883719656 L175.845251795 377.828922133 L174.310921146 377.828922133 L174.256123623 377.77412461 L174.256123623 377.719327086 L174.2013261 377.664529563 L172.502602882 377.664529563 L172.447805359 377.60973204 L172.447805359 377.554934517 L172.393007836 377.500136994 L170.694284618 377.500136994 L170.639487095 377.445339471 L170.639487095 377.390541948 L170.584689572 377.335744424 L169.050358924 377.335744424 L168.995561401 377.280946901 L168.995561401 377.226149378 L168.940763877 377.171351855 L167.24204066 377.171351855 L167.187243137 377.116554332 L167.187243137 377.061756809 L167.132445613 377.006959285 L165.598114965 377.006959285 L165.543317442 376.952161762 L165.543317442 376.897364239 L165.488519919 376.842566716 L163.789796701 376.842566716 L163.734999178 376.787769193 L163.734999178 376.73297167 L163.680201655 376.678174147 L161.981478437 376.678174147 L161.926680914 376.623376623 L161.926680914 376.5685791 L161.871883391 376.513781577 L160.337552743 376.513781577 L160.282755219 376.458984054 L160.282755219 376.404186531 L160.227957696 376.349389008 L158.529234479 376.349389008 L158.474436955 376.294591484 L158.474436955 376.239793961 L158.419639432 376.184996438 L156.720916215 376.184996438 L156.666118691 376.130198915 L156.666118691 376.075401392 L156.611321168 376.020603869 L155.07699052 376.020603869 L155.022192997 375.965806346 L155.022192997 375.911008822 L154.967395474 375.856211299 L153.268672256 375.856211299 L153.213874733 375.801413776 L153.213874733 375.746616253 L153.15907721 375.69181873 L151.460353992 375.69181873 L151.405556469 375.637021207 L151.405556469 375.582223683 L151.350758946 375.52742616 L149.816428297 375.52742616 L149.761630774 375.472628637 L149.761630774 375.417831114 L149.706833251 375.363033591 L148.008110033 375.363033591 L147.95331251 375.308236068 L147.95331251 375.253438545 L147.898514987 375.198641021 L146.364184339 375.198641021 L146.309386816 375.143843498 L146.309386816 375.089045975 L146.254589293 375.034248452 L144.555866075 375.034248452 L144.501068552 374.979450929 L144.501068552 374.924653406 L144.446271029 374.869855883 L142.747547811 374.869855883 L142.692750288 374.815058359 L142.692750288 374.760260836 L142.637952765 374.705463313 141.651597348 374.705463313 " stroke="black" fill="transparent"/>
<path d="M0.219190092608 0.054797523152 L0.219190092608 0.164392569456 L0.164392569456 0.219190092608 L0.054797523152 0.219190092608 L0.054797523152 3.94542166694 L0.27398761576 3.94542166694 L0.328785138912 3.89062414379 L0.328785138912 0.383582662064 L0.383582662064 0.328785138912 L4.38380185216 0.328785138912 L4.43859937531 0.27398761576 L4.43859937531 0.054797523152 0.219190092608 0.054797523152 " stroke="black" fill="transparent"/>
<path d="M143.569510658 377.006959285 L143.569510658 434.160775933 L143.624308181 434.160775933 L143.679105704 434.10597841 L143.679105704 434.051180887 L143.733903228 433.996383363 L144.939448737 433.996383363 L144.99424626 433.94158584 L144.99424626 433.886788317 L145.049043783 433.831990794 L146.090196723 433.831990794 L146.144994246 433.777193271 L146.144994246 433.722395748 L146.199791769 433.667598225 L147.405337279 433.667598225 L147.460134802 433.612800701 L147.460134802 433.558003178 L147.514932325 433.503205655 L148.556085265 433.503205655 L148.610882788 433.448408132 L148.610882788 433.393610609 L148.665680311 433.338813086 L149.706833251 433.338813086 L149.761630774 433.284015562 L149.761630774 433.229218039 L149.816428297 433.174420516 L151.021973807 433.174420516 L151.07677133 433.119622993 L151.07677133 433.06482547 L151.131568853 433.010027947 L152.172721793 433.010027947 L152.227519316 432.955230424 L152.227519316 432.9004329 L152.282316839 432.845635377 L153.487862349 432.845635377 L153.542659872 432.790837854 L153.542659872 432.736040331 L153.597457395 432.681242808 L154.638610335 432.681242808 L154.693407858 432.626445285 L154.693407858 432.571647762 L154.748205381 432.516850238 L155.95375089 432.516850238 L156.008548414 432.462052715 L156.008548414 432.407255192 L156.063345937 432.352457669 L157.104498877 432.352457669 L157.1592964 432.297660146 L157.1592964 432.242862623 L157.214093923 432.188065099 L158.419639432 432.188065099 L158.474436955 432.133267576 L158.474436955 432.078470053 L158.529234479 432.02367253 L159.570387418 432.02367253 L159.625184942 431.968875007 L159.625184942 431.914077484 L159.679982465 431.859279961 L160.885527974 431.859279961 L160.940325497 431.804482437 L160.940325497 431.749684914 L160.99512302 431.694887391 L162.03627596 431.694887391 L162.091073483 431.640089868 L162.091073483 431.585292345 L162.145871007 431.530494822 L163.187023947 431.530494822 L163.24182147 431.475697298 L163.24182147 431.420899775 L163.296618993 431.366102252 L164.502164502 431.366102252 L164.556962025 431.311304729 L164.556962025 431.256507206 L164.611759548 431.201709683 L165.652912488 431.201709683 L165.707710012 431.14691216 L165.707710012 431.092114636 L165.762507535 431.037317113 L166.968053044 431.037317113 L167.022850567 430.98251959 L167.022850567 430.927722067 L167.07764809 430.872924544 L168.11880103 430.872924544 L168.173598553 430.818127021 L168.173598553 430.763329498 L168.228396076 430.708531974 L169.433941586 430.708531974 L169.488739109 430.653734451 L169.488739109 430.598936928 L169.543536632 430.544139405 L170.584689572 430.544139405 L170.639487095 430.489341882 L170.639487095 430.434544359 L170.694284618 430.379746835 L171.899830128 430.379746835 L171.954627651 430.324949312 L171.954627651 430.270151789 L172.009425174 430.215354266 L173.050578114 430.215354266 L173.105375637 430.160556743 L173.105375637 430.10575922 L173.16017316 430.050961697 L174.36571867 430.050961697 L174.420516193 429.996164173 L174.420516193 429.94136665 L174.475313716 429.886569127 L175.516466656 429.886569127 L175.571264179 429.831771604 L175.571264179 429.776974081 L175.626061702 429.722176558 L176.667214642 429.722176558 L176.722012165 429.667379034 L176.722012165 429.612581511 L176.776809688 429.557783988 L177.982355198 429.557783988 L178.037152721 429.502986465 L178.037152721 429.448188942 L178.091950244 429.393391419 L179.133103184 429.393391419 L179.187900707 429.338593896 L179.187900707 429.283796372 L179.24269823 429.228998849 L180.448243739 429.228998849 L180.503041263 429.174201326 L180.503041263 429.119403803 L180.557838786 429.06460628 L181.598991726 429.06460628 L181.653789249 429.009808757 L181.653789249 428.955011233 L181.708586772 428.90021371 L182.914132281 428.90021371 L182.968929804 428.845416187 L182.968929804 428.790618664 L183.023727328 428.735821141 L184.064880267 428.735821141 L184.119677791 428.681023618 L184.119677791 428.626226095 L184.174475314 428.571428571 L185.380020823 428.571428571 L185.434818346 428.516631048 L185.434818346 428.461833525 L185.489615869 428.407036002 L186.530768809 428.407036002 L186.585566332 428.352238479 L186.585566332 428.297440956 L186.640363856 428.242643433 L187.845909365 428.242643433 L187.900706888 428.187845909 L187.900706888 428.133048386 L187.955504411 428.078250863 L188.996657351 428.078250863 L189.051454874 428.02345334 L189.051454874 427.968655817 L189.106252397 427.913858294 L190.147405337 427.913858294 L190.20220286 427.85906077 L190.20220286 427.804263247 L190.257000384 427.749465724 L191.462545893 427.749465724 L191.517343416 427.694668201 L191.517343416 427.639870678 L191.572140939 427.585073155 L192.613293879 427.585073155 L192.668091402 427.530275632 L192.668091402 427.475478108 L192.722888925 427.420680585 L193.928434435 427.420680585 L193.983231958 427.365883062 L193.983231958 427.311085539 L194.038029481 427.256288016 L195.079182421 427.256288016 L195.133979944 427.201490493 L195.133979944 427.146692969 L195.188777467 427.091895446 L196.394322977 427.091895446 L196.4491205 427.037097923 L196.4491205 426.9823004 L196.503918023 426.927502877 L197.545070963 426.927502877 L197.599868486 426.872705354 L197.599868486 426.817907831 L197.654666009 426.763110307 L198.860211518 426.763110307 L198.915009042 426.708312784 L198.915009042 426.653515261 L198.969806565 426.598717738 L200.010959505 426.598717738 L200.065757028 426.543920215 L200.065757028 426.489122692 L200.120554551 426.434325169 L201.32610006 426.434325169 L201.380897583 426.379527645 L201.380897583 426.324730122 L201.435695107 426.269932599 L202.476848046 426.269932599 L202.53164557 426.215135076 L202.53164557 426.160337553 L202.586443093 426.10554003 L203.627596033 426.10554003 L203.682393556 426.050742506 L203.682393556 425.995944983 L203.737191079 425.94114746 L204.942736588 425.94114746 L204.997534111 425.886349937 L204.997534111 425.831552414 L205.052331635 425.776754891 L206.093484574 425.776754891 L206.148282098 425.721957368 L206.148282098 425.667159844 L206.203079621 425.612362321 L207.40862513 425.612362321 L207.463422653 425.557564798 L207.463422653 425.502767275 L207.518220176 425.447969752 L208.559373116 425.447969752 L208.614170639 425.393172229 L208.614170639 425.338374705 L208.668968163 425.283577182 L209.874513672 425.283577182 L209.929311195 425.228779659 L209.929311195 383.308674448 L209.874513672 383.253876925 L208.997753302 383.253876925 L208.942955778 383.199079402 L208.942955778 383.144281878 L208.888158255 383.089484355 L207.189435038 383.089484355 L207.134637514 383.034686832 L207.134637514 382.979889309 L207.079839991 382.925091786 L205.545509343 382.925091786 L205.49071182 382.870294263 L205.49071182 382.81549674 L205.435914297 382.760699216 L203.737191079 382.760699216 L203.682393556 382.705901693 L203.682393556 382.65110417 L203.627596033 382.596306647 L202.093265384 382.596306647 L202.038467861 382.541509124 L202.038467861 382.486711601 L201.983670338 382.431914077 L200.28494712 382.431914077 L200.230149597 382.377116554 L200.230149597 382.322319031 L200.175352074 382.267521508 L198.476628856 382.267521508 L198.421831333 382.212723985 L198.421831333 382.157926462 L198.36703381 382.103128939 L196.832703162 382.103128939 L196.777905639 382.048331415 L196.777905639 381.993533892 L196.723108116 381.938736369 L195.024384898 381.938736369 L194.969587375 381.883938846 L194.969587375 381.829141323 L194.914789851 381.7743438 L193.216066634 381.7743438 L193.161269111 381.719546277 L193.161269111 381.664748753 L193.106471587 381.60995123 L191.572140939 381.60995123 L191.517343416 381.555153707 L191.517343416 381.500356184 L191.462545893 381.445558661 L189.763822675 381.445558661 L189.709025152 381.390761138 L189.709025152 381.335963614 L189.654227629 381.281166091 L187.955504411 381.281166091 L187.900706888 381.226368568 L187.900706888 381.171571045 L187.845909365 381.116773522 L186.311578717 381.116773522 L186.256781193 381.061975999 L186.256781193 381.007178476 L186.20198367 380.952380952 L184.503260453 380.952380952 L184.448462929 380.897583429 L184.448462929 380.842785906 L184.393665406 380.787988383 L182.859334758 380.787988383 L182.804537235 380.73319086 L182.804537235 380.678393337 L182.749739712 380.623595813 L181.051016494 380.623595813 L180.996218971 380.56879829 L180.996218971 380.514000767 L180.941421448 380.459203244 L179.24269823 380.459203244 L179.187900707 380.404405721 L179.187900707 380.349608198 L179.133103184 380.294810675 L177.598772535 380.294810675 L177.543975012 380.240013151 L177.543975012 380.185215628 L177.489177489 380.130418105 L175.790454271 380.130418105 L175.735656748 380.075620582 L175.735656748 380.020823059 L175.680859225 379.966025536 L173.982136007 379.966025536 L173.927338484 379.911228012 L173.927338484 379.856430489 L173.872540961 379.801632966 L172.338210313 379.801632966 L172.28341279 379.746835443 L172.28341279 379.69203792 L172.228615267 379.637240397 L170.529892049 379.637240397 L170.475094526 379.582442874 L170.475094526 379.52764535 L170.420297003 379.472847827 L168.721573785 379.472847827 L168.666776262 379.418050304 L168.666776262 379.363252781 L168.611978739 379.308455258 L167.07764809 379.308455258 L167.022850567 379.253657735 L167.022850567 379.198860212 L166.968053044 379.144062688 L165.269329826 379.144062688 L165.214532303 379.089265165 L165.214532303 379.034467642 L165.15973478 378.979670119 L163.625404132 378.979670119 L163.570606609 378.924872596 L163.570606609 378.870075073 L163.515809085 378.815277549 L161.817085868 378.815277549 L161.762288345 378.760480026 L161.762288345 378.705682503 L161.707490821 378.65088498 L160.008767604 378.65088498 L159.953970081 378.596087457 L159.953970081 378.541289934 L159.899172557 378.486492411 L158.364841909 378.486492411 L158.310044386 378.431694887 L158.310044386 378.376897364 L158.255246863 378.322099841 L156.556523645 378.322099841 L156.501726122 378.267302318 L156.501726122 378.212504795 L156.446928599 378.157707272 L154.748205381 378.157707272 L154.693407858 378.102909748 L154.693407858 378.048112225 L154.638610335 377.993314702 L153.104279687 377.993314702 L153.049482163 377.938517179 L153.049482163 377.883719656 L152.99468464 377.828922133 L151.295961423 377.828922133 L151.241163899 377.77412461 L151.241163899 377.719327086 L151.186366376 377.664529563 L149.487643159 377.664529563 L149.432845635 377.60973204 L149.432845635 377.554934517 L149.378048112 377.500136994 L147.843717464 377.500136994 L147.788919941 377.445339471 L147.788919941 377.390541948 L147.734122418 377.335744424 L146.0353992 377.335744424 L145.980601677 377.280946901 L145.980601677 377.226149378 L145.925804154 377.171351855 L144.391473505 377.171351855 L144.336675982 377.116554332 L144.336675982 377.061756809 L144.281878459 377.006959285 143.569510658 377.006959285 " stroke="black" fill="transparent"/>
<path d="M145.542221492 379.308455258 L145.542221492 431.530494822 L146.583374431 431.530494822 L146.638171955 431.475697298 L146.638171955 431.420899775 L146.692969478 431.366102252 L147.734122418 431.366102252 L147.788919941 431.311304729 L147.788919941 431.256507206 L147.843717464 431.201709683 L149.049262973 431.201709683 L149.104060496 431.14691216 L149.104060496 431.092114636 L149.15885802 431.037317113 L150.20001096 431.037317113 L150.254808483 430.98251959 L150.254808483 430.927722067 L150.309606006 430.872924544 L151.515151515 430.872924544 L151.569949038 430.818127021 L151.569949038 430.763329498 L151.624746561 430.708531974 L152.665899501 430.708531974 L152.720697024 430.653734451 L152.720697024 430.598936928 L152.775494548 430.544139405 L153.981040057 430.544139405 L154.03583758 430.489341882 L154.03583758 430.434544359 L154.090635103 430.379746835 L155.131788043 430.379746835 L155.186585566 430.324949312 L155.186585566 430.270151789 L155.241383089 430.215354266 L156.446928599 430.215354266 L156.501726122 430.160556743 L156.501726122 430.10575922 L156.556523645 430.050961697 L157.597676585 430.050961697 L157.652474108 429.996164173 L157.652474108 429.94136665 L157.707271631 429.886569127 L158.912817141 429.886569127 L158.967614664 429.831771604 L158.967614664 429.776974081 L159.022412187 429.722176558 L160.063565127 429.722176558 L160.11836265 429.667379034 L160.11836265 429.612581511 L160.173160173 429.557783988 L161.214313113 429.557783988 L161.269110636 429.502986465 L161.269110636 429.448188942 L161.323908159 429.393391419 L162.529453669 429.393391419 L162.584251192 429.338593896 L162.584251192 429.283796372 L162.639048715 429.228998849 L163.680201655 429.228998849 L163.734999178 429.174201326 L163.734999178 429.119403803 L163.789796701 429.06460628 L164.995342211 429.06460628 L165.050139734 429.009808757 L165.050139734 428.955011233 L165.104937257 428.90021371 L166.146090197 428.90021371 L166.20088772 428.845416187 L166.20088772 428.790618664 L166.255685243 428.735821141 L167.461230752 428.735821141 L167.516028276 428.681023618 L167.516028276 428.626226095 L167.570825799 428.571428571 L168.611978739 428.571428571 L168.666776262 428.516631048 L168.666776262 428.461833525 L168.721573785 428.407036002 L169.927119294 428.407036002 L169.981916817 428.352238479 L169.981916817 428.297440956 L170.036714341 428.242643433 L171.07786728 428.242643433 L171.132664804 428.187845909 L171.132664804 428.133048386 L171.187462327 428.078250863 L172.393007836 428.078250863 L172.447805359 428.02345334 L172.447805359 427.968655817 L172.502602882 427.913858294 L173.543755822 427.913858294 L173.598553345 427.85906077 L173.598553345 427.804263247 L173.653350869 427.749465724 L174.694503808 427.749465724 L174.749301332 427.694668201 L174.749301332 427.639870678 L174.804098855 427.585073155 L176.009644364 427.585073155 L176.064441887 427.530275632 L176.064441887 427.475478108 L176.11923941 427.420680585 L177.16039235 427.420680585 L177.215189873 427.365883062 L177.215189873 427.311085539 L177.269987397 427.256288016 L178.475532906 427.256288016 L178.530330429 427.201490493 L178.530330429 427.146692969 L178.585127952 427.091895446 L179.626280892 427.091895446 L179.681078415 427.037097923 L179.681078415 426.9823004 L179.735875938 426.927502877 L180.941421448 426.927502877 L180.996218971 426.872705354 L180.996218971 426.817907831 L181.051016494 426.763110307 L182.092169434 426.763110307 L182.146966957 426.708312784 L182.146966957 426.653515261 L182.20176448 426.598717738 L183.40730999 426.598717738 L183.462107513 426.543920215 L183.462107513 426.489122692 L183.516905036 426.434325169 L184.558057976 426.434325169 L184.612855499 426.379527645 L184.612855499 426.324730122 L184.667653022 426.269932599 L185.873198531 426.269932599 L185.927996055 426.215135076 L185.927996055 426.160337553 L185.982793578 426.10554003 L187.023946518 426.10554003 L187.078744041 426.050742506 L187.078744041 425.995944983 L187.133541564 425.94114746 L188.174694504 425.94114746 L188.229492027 425.886349937 L188.229492027 425.831552414 L188.28428955 425.776754891 L189.489835059 425.776754891 L189.544632583 425.721957368 L189.544632583 425.667159844 L189.599430106 425.612362321 L190.640583046 425.612362321 L190.695380569 425.557564798 L190.695380569 425.502767275 L190.750178092 425.447969752 L191.955723601 425.447969752 L192.010521124 425.393172229 L192.010521124 425.338374705 L192.065318648 425.283577182 L193.106471587 425.283577182 L193.161269111 425.228779659 L193.161269111 425.173982136 L193.216066634 425.119184613 L194.421612143 425.119184613 L194.476409666 425.06438709 L194.476409666 425.009589567 L194.531207189 424.954792043 L195.572360129 424.954792043 L195.627157652 424.89999452 L195.627157652 424.845196997 L195.681955176 424.790399474 L196.887500685 424.790399474 L196.942298208 424.735601951 L196.942298208 424.680804428 L196.997095731 424.626006904 L198.038248671 424.626006904 L198.093046194 424.571209381 L198.093046194 424.516411858 L198.147843717 424.461614335 L199.353389227 424.461614335 L199.40818675 424.406816812 L199.40818675 424.352019289 L199.462984273 424.297221766 L200.504137213 424.297221766 L200.558934736 424.242424242 L200.558934736 424.187626719 L200.613732259 424.132829196 L201.654885199 424.132829196 L201.709682722 424.078031673 L201.709682722 424.02323415 L201.764480245 423.968436627 L202.970025755 423.968436627 L203.024823278 423.913639104 L203.024823278 423.85884158 L203.079620801 423.804044057 L204.120773741 423.804044057 L204.175571264 423.749246534 L204.175571264 423.694449011 L204.230368787 423.639651488 L205.435914297 423.639651488 L205.49071182 423.584853965 L205.49071182 423.530056441 L205.545509343 423.475258918 L206.586662283 423.475258918 L206.641459806 423.420461395 L206.641459806 423.365663872 L206.696257329 423.310866349 L207.901802839 423.310866349 L207.956600362 423.256068826 L207.956600362 385.281385281 L207.901802839 385.226587758 L207.025042468 385.226587758 L206.970244945 385.171790235 L206.970244945 385.116992712 L206.915447422 385.062195189 L205.216724204 385.062195189 L205.161926681 385.007397666 L205.161926681 384.952600142 L205.107129158 384.897802619 L203.57279851 384.897802619 L203.518000986 384.843005096 L203.518000986 384.788207573 L203.463203463 384.73341005 L201.764480245 384.73341005 L201.709682722 384.678612527 L201.709682722 384.623815004 L201.654885199 384.56901748 L200.120554551 384.56901748 L200.065757028 384.514219957 L200.065757028 384.459422434 L200.010959505 384.404624911 L198.312236287 384.404624911 L198.257438764 384.349827388 L198.257438764 384.295029865 L198.202641241 384.240232341 L196.503918023 384.240232341 L196.4491205 384.185434818 L196.4491205 384.130637295 L196.394322977 384.075839772 L194.859992328 384.075839772 L194.805194805 384.021042249 L194.805194805 383.966244726 L194.750397282 383.911447203 L193.051674064 383.911447203 L192.996876541 383.856649679 L192.996876541 383.801852156 L192.942079018 383.747054633 L191.2433558 383.747054633 L191.188558277 383.69225711 L191.188558277 383.637459587 L191.133760754 383.582662064 L189.599430106 383.582662064 L189.544632583 383.527864541 L189.544632583 383.473067017 L189.489835059 383.418269494 L187.791111842 383.418269494 L187.736314319 383.363471971 L187.736314319 383.308674448 L187.681516795 383.253876925 L185.982793578 383.253876925 L185.927996055 383.199079402 L185.927996055 383.144281878 L185.873198531 383.089484355 L184.338867883 383.089484355 L184.28407036 383.034686832 L184.28407036 382.979889309 L184.229272837 382.925091786 L182.530549619 382.925091786 L182.475752096 382.870294263 L182.475752096 382.81549674 L182.420954573 382.760699216 L180.886623925 382.760699216 L180.831826401 382.705901693 L180.831826401 382.65110417 L180.777028878 382.596306647 L179.078305661 382.596306647 L179.023508137 382.541509124 L179.023508137 382.486711601 L178.968710614 382.431914077 L177.269987397 382.431914077 L177.215189873 382.377116554 L177.215189873 382.322319031 L177.16039235 382.267521508 L175.626061702 382.267521508 L175.571264179 382.212723985 L175.571264179 382.157926462 L175.516466656 382.103128939 L173.817743438 382.103128939 L173.762945915 382.048331415 L173.762945915 381.993533892 L173.708148392 381.938736369 L172.009425174 381.938736369 L171.954627651 381.883938846 L171.954627651 381.829141323 L171.899830128 381.7743438 L170.365499479 381.7743438 L170.310701956 381.719546277 L170.310701956 381.664748753 L170.255904433 381.60995123 L168.557181215 381.60995123 L168.502383692 381.555153707 L168.502383692 381.500356184 L168.447586169 381.445558661 L166.748862951 381.445558661 L166.694065428 381.390761138 L166.694065428 381.335963614 L166.639267905 381.281166091 L165.104937257 381.281166091 L165.050139734 381.226368568 L165.050139734 381.171571045 L164.995342211 381.116773522 L163.296618993 381.116773522 L163.24182147 381.061975999 L163.24182147 381.007178476 L163.187023947 380.952380952 L161.652693298 380.952380952 L161.597895775 380.897583429 L161.597895775 380.842785906 L161.543098252 380.787988383 L159.844375034 380.787988383 L159.789577511 380.73319086 L159.789577511 380.678393337 L159.734779988 380.623595813 L158.03605677 380.623595813 L157.981259247 380.56879829 L157.981259247 380.514000767 L157.926461724 380.459203244 L156.392131076 380.459203244 L156.337333553 380.404405721 L156.337333553 380.349608198 L156.282536029 380.294810675 L154.583812812 380.294810675 L154.529015289 380.240013151 L154.529015289 380.185215628 L154.474217765 380.130418105 L152.775494548 380.130418105 L152.720697024 380.075620582 L152.720697024 380.020823059 L152.665899501 379.966025536 L151.131568853 379.966025536 L151.07677133 379.911228012 L151.07677133 379.856430489 L151.021973807 379.801632966 L149.323250589 379.801632966 L149.268453066 379.746835443 L149.268453066 379.69203792 L149.213655543 379.637240397 L147.514932325 379.637240397 L147.460134802 379.582442874 L147.460134802 379.52764535 L147.405337279 379.472847827 L145.871006631 379.472847827 L145.816209107 379.418050304 L145.816209107 379.363252781 L145.761411584 379.308455258 145.542221492 379.308455258 " stroke="black" fill="transparent"/>
<path d="M147.514932325 381.7743438 L147.514932325 429.06460628 L148.227300126 429.06460628 L148.282097649 429.009808757 L148.282097649 428.955011233 L148.336895172 428.90021371 L149.542440682 428.90021371 L149.597238205 428.845416187 L149.597238205 428.790618664 L149.652035728 428.735821141 L150.693188668 428.735821141 L150.747986191 428.681023618 L150.747986191 428.626226095 L150.802783714 428.571428571 L152.008329224 428.571428571 L152.063126747 428.516631048 L152.063126747 428.461833525 L152.11792427 428.407036002 L153.15907721 428.407036002 L153.213874733 428.352238479 L153.213874733 428.297440956 L153.268672256 428.242643433 L154.474217765 428.242643433 L154.529015289 428.187845909 L154.529015289 428.133048386 L154.583812812 428.078250863 L155.624965752 428.078250863 L155.679763275 428.02345334 L155.679763275 427.968655817 L155.734560798 427.913858294 L156.940106307 427.913858294 L156.99490383 427.85906077 L156.99490383 427.804263247 L157.049701353 427.749465724 L158.090854293 427.749465724 L158.145651817 427.694668201 L158.145651817 427.639870678 L158.20044934 427.585073155 L159.24160228 427.585073155 L159.296399803 427.530275632 L159.296399803 427.475478108 L159.351197326 427.420680585 L160.556742835 427.420680585 L160.611540358 427.365883062 L160.611540358 427.311085539 L160.666337882 427.256288016 L161.707490821 427.256288016 L161.762288345 427.201490493 L161.762288345 427.146692969 L161.817085868 427.091895446 L163.022631377 427.091895446 L163.0774289 427.037097923 L163.0774289 426.9823004 L163.132226423 426.927502877 L164.173379363 426.927502877 L164.228176886 426.872705354 L164.228176886 426.817907831 L164.28297441 426.763110307 L165.488519919 426.763110307 L165.543317442 426.708312784 L165.543317442 426.653515261 L165.598114965 426.598717738 L166.639267905 426.598717738 L166.694065428 426.543920215 L166.694065428 426.489122692 L166.748862951 426.434325169 L167.954408461 426.434325169 L168.009205984 426.379527645 L168.009205984 426.324730122 L168.064003507 426.269932599 L169.105156447 426.269932599 L169.15995397 426.215135076 L169.15995397 426.160337553 L169.214751493 426.10554003 L170.420297003 426.10554003 L170.475094526 426.050742506 L170.475094526 425.995944983 L170.529892049 425.94114746 L171.571044989 425.94114746 L171.625842512 425.886349937 L171.625842512 425.831552414 L171.680640035 425.776754891 L172.721792975 425.776754891 L172.776590498 425.721957368 L172.776590498 425.667159844 L172.831388021 425.612362321 L174.036933531 425.612362321 L174.091731054 425.557564798 L174.091731054 425.502767275 L174.146528577 425.447969752 L175.187681517 425.447969752 L175.24247904 425.393172229 L175.24247904 425.338374705 L175.297276563 425.283577182 L176.502822072 425.283577182 L176.557619596 425.228779659 L176.557619596 425.173982136 L176.612417119 425.119184613 L177.653570059 425.119184613 L177.708367582 425.06438709 L177.708367582 425.009589567 L177.763165105 424.954792043 L178.968710614 424.954792043 L179.023508137 424.89999452 L179.023508137 424.845196997 L179.078305661 424.790399474 L180.1194586 424.790399474 L180.174256124 424.735601951 L180.174256124 424.680804428 L180.229053647 424.626006904 L181.434599156 424.626006904 L181.489396679 424.571209381 L181.489396679 424.516411858 L181.544194202 424.461614335 L182.585347142 424.461614335 L182.640144665 424.406816812 L182.640144665 424.352019289 L182.694942189 424.297221766 L183.900487698 424.297221766 L183.955285221 424.242424242 L183.955285221 424.187626719 L184.010082744 424.132829196 L185.051235684 424.132829196 L185.106033207 424.078031673 L185.106033207 424.02323415 L185.16083073 423.968436627 L186.20198367 423.968436627 L186.256781193 423.913639104 L186.256781193 423.85884158 L186.311578717 423.804044057 L187.517124226 423.804044057 L187.571921749 423.749246534 L187.571921749 423.694449011 L187.626719272 423.639651488 L188.667872212 423.639651488 L188.722669735 423.584853965 L188.722669735 423.530056441 L188.777467258 423.475258918 L189.983012768 423.475258918 L190.037810291 423.420461395 L190.037810291 423.365663872 L190.092607814 423.310866349 L191.133760754 423.310866349 L191.188558277 423.256068826 L191.188558277 423.201271303 L191.2433558 423.146473779 L192.44890131 423.146473779 L192.503698833 423.091676256 L192.503698833 423.036878733 L192.558496356 422.98208121 L193.599649296 422.98208121 L193.654446819 422.927283687 L193.654446819 422.872486164 L193.709244342 422.81768864 L194.914789851 422.81768864 L194.969587375 422.762891117 L194.969587375 422.708093594 L195.024384898 422.653296071 L196.065537838 422.653296071 L196.120335361 422.598498548 L196.120335361 422.543701025 L196.175132884 422.488903502 L197.380678393 422.488903502 L197.435475916 422.434105978 L197.435475916 422.379308455 L197.49027344 422.324510932 L198.53142638 422.324510932 L198.586223903 422.269713409 L198.586223903 422.214915886 L198.641021426 422.160118363 L199.682174366 422.160118363 L199.736971889 422.105320839 L199.736971889 422.050523316 L199.791769412 421.995725793 L200.997314921 421.995725793 L201.052112445 421.94092827 L201.052112445 421.886130747 L201.106909968 421.831333224 L202.148062908 421.831333224 L202.202860431 421.776535701 L202.202860431 421.721738177 L202.257657954 421.666940654 L203.463203463 421.666940654 L203.518000986 421.612143131 L203.518000986 421.557345608 L203.57279851 421.502548085 L204.613951449 421.502548085 L204.668748973 421.447750562 L204.668748973 421.392953039 L204.723546496 421.338155515 L205.929092005 421.338155515 L205.983889528 421.283357992 L205.983889528 387.254096115 L205.929092005 387.199298592 L205.052331635 387.199298592 L204.997534111 387.144501069 L204.997534111 387.089703545 L204.942736588 387.034906022 L203.244013371 387.034906022 L203.189215847 386.980108499 L203.189215847 386.925310976 L203.134418324 386.870513453 L201.600087676 386.870513453 L201.545290153 386.81571593 L201.545290153 386.760918406 L201.49049263 386.706120883 L199.791769412 386.706120883 L199.736971889 386.65132336 L199.736971889 386.596525837 L199.682174366 386.541728314 L198.147843717 386.541728314 L198.093046194 386.486930791 L198.093046194 386.432133268 L198.038248671 386.377335744 L196.339525453 386.377335744 L196.28472793 386.322538221 L196.28472793 386.267740698 L196.229930407 386.212943175 L194.531207189 386.212943175 L194.476409666 386.158145652 L194.476409666 386.103348129 L194.421612143 386.048550606 L192.887281495 386.048550606 L192.832483972 385.993753082 L192.832483972 385.938955559 L192.777686449 385.884158036 L191.078963231 385.884158036 L191.024165708 385.829360513 L191.024165708 385.77456299 L190.969368185 385.719765467 L189.270644967 385.719765467 L189.215847444 385.664967943 L189.215847444 385.61017042 L189.161049921 385.555372897 L187.626719272 385.555372897 L187.571921749 385.500575374 L187.571921749 385.445777851 L187.517124226 385.390980328 L185.818401008 385.390980328 L185.763603485 385.336182805 L185.763603485 385.281385281 L185.708805962 385.226587758 L184.010082744 385.226587758 L183.955285221 385.171790235 L183.955285221 385.116992712 L183.900487698 385.062195189 L182.36615705 385.062195189 L182.311359527 385.007397666 L182.311359527 384.952600142 L182.256562003 384.897802619 L180.557838786 384.897802619 L180.503041263 384.843005096 L180.503041263 384.788207573 L180.448243739 384.73341005 L178.913913091 384.73341005 L178.859115568 384.678612527 L178.859115568 384.623815004 L178.804318045 384.56901748 L177.105594827 384.56901748 L177.050797304 384.514219957 L177.050797304 384.459422434 L176.995999781 384.404624911 L175.297276563 384.404624911 L175.24247904 384.349827388 L175.24247904 384.295029865 L175.187681517 384.240232341 L173.653350869 384.240232341 L173.598553345 384.185434818 L173.598553345 384.130637295 L173.543755822 384.075839772 L171.845032605 384.075839772 L171.790235081 384.021042249 L171.790235081 383.966244726 L171.735437558 383.911447203 L170.036714341 383.911447203 L169.981916817 383.856649679 L169.981916817 383.801852156 L169.927119294 383.747054633 L168.392788646 383.747054633 L168.337991123 383.69225711 L168.337991123 383.637459587 L168.2831936 383.582662064 L166.584470382 383.582662064 L166.529672859 383.527864541 L166.529672859 383.473067017 L166.474875336 383.418269494 L164.776152118 383.418269494 L164.721354595 383.363471971 L164.721354595 383.308674448 L164.666557072 383.253876925 L163.132226423 383.253876925 L163.0774289 383.199079402 L163.0774289 383.144281878 L163.022631377 383.089484355 L161.323908159 383.089484355 L161.269110636 383.034686832 L161.269110636 382.979889309 L161.214313113 382.925091786 L159.679982465 382.925091786 L159.625184942 382.870294263 L159.625184942 382.81549674 L159.570387418 382.760699216 L157.871664201 382.760699216 L157.816866678 382.705901693 L157.816866678 382.65110417 L157.762069154 382.596306647 L156.063345937 382.596306647 L156.008548414 382.541509124 L156.008548414 382.486711601 L155.95375089 382.431914077 L154.419420242 382.431914077 L154.364622719 382.377116554 L154.364622719 382.322319031 L154.309825196 382.267521508 L152.611101978 382.267521508 L152.556304455 382.212723985 L152.556304455 382.157926462 L152.501506932 382.103128939 L150.802783714 382.103128939 L150.747986191 382.048331415 L150.747986191 381.993533892 L150.693188668 381.938736369 L149.15885802 381.938736369 L149.104060496 381.883938846 L149.104060496 381.829141323 L149.049262973 381.7743438 147.514932325 381.7743438 " stroke="black" fill="transparent"/>
<path d="M149.487643159 384.075839772 L149.487643159 426.598717738 L150.03561839 426.598717738 L150.090415913 426.543920215 L150.090415913 426.489122692 L150.145213436 426.434325169 L151.186366376 426.434325169 L151.241163899 426.379527645 L151.241163899 426.324730122 L151.295961423 426.269932599 L152.501506932 426.269932599 L152.556304455 426.215135076 L152.556304455 426.160337553 L152.611101978 426.10554003 L153.652254918 426.10554003 L153.707052441 426.050742506 L153.707052441 425.995944983 L153.761849964 425.94114746 L154.967395474 425.94114746 L155.022192997 425.886349937 L155.022192997 425.831552414 L155.07699052 425.776754891 L156.11814346 425.776754891 L156.172940983 425.721957368 L156.172940983 425.667159844 L156.227738506 425.612362321 L157.268891446 425.612362321 L157.323688969 425.557564798 L157.323688969 425.502767275 L157.378486492 425.447969752 L158.584032002 425.447969752 L158.638829525 425.393172229 L158.638829525 425.338374705 L158.693627048 425.283577182 L159.734779988 425.283577182 L159.789577511 425.228779659 L159.789577511 425.173982136 L159.844375034 425.119184613 L161.049920544 425.119184613 L161.104718067 425.06438709 L161.104718067 425.009589567 L161.15951559 424.954792043 L162.20066853 424.954792043 L162.255466053 424.89999452 L162.255466053 424.845196997 L162.310263576 424.790399474 L163.515809085 424.790399474 L163.570606609 424.735601951 L163.570606609 424.680804428 L163.625404132 424.626006904 L164.666557072 424.626006904 L164.721354595 424.571209381 L164.721354595 424.516411858 L164.776152118 424.461614335 L165.981697627 424.461614335 L166.03649515 424.406816812 L166.03649515 424.352019289 L166.091292674 424.297221766 L167.132445613 424.297221766 L167.187243137 424.242424242 L167.187243137 424.187626719 L167.24204066 424.132829196 L168.447586169 424.132829196 L168.502383692 424.078031673 L168.502383692 424.02323415 L168.557181215 423.968436627 L169.598334155 423.968436627 L169.653131678 423.913639104 L169.653131678 423.85884158 L169.707929202 423.804044057 L170.749082141 423.804044057 L170.803879665 423.749246534 L170.803879665 423.694449011 L170.858677188 423.639651488 L172.064222697 423.639651488 L172.11902022 423.584853965 L172.11902022 423.530056441 L172.173817743 423.475258918 L173.214970683 423.475258918 L173.269768206 423.420461395 L173.269768206 423.365663872 L173.32456573 423.310866349 L174.530111239 423.310866349 L174.584908762 423.256068826 L174.584908762 423.201271303 L174.639706285 423.146473779 L175.680859225 423.146473779 L175.735656748 423.091676256 L175.735656748 423.036878733 L175.790454271 422.98208121 L176.995999781 422.98208121 L177.050797304 422.927283687 L177.050797304 422.872486164 L177.105594827 422.81768864 L178.146747767 422.81768864 L178.20154529 422.762891117 L178.20154529 422.708093594 L178.256342813 422.653296071 L179.461888323 422.653296071 L179.516685846 422.598498548 L179.516685846 422.543701025 L179.571483369 422.488903502 L180.612636309 422.488903502 L180.667433832 422.434105978 L180.667433832 422.379308455 L180.722231355 422.324510932 L181.927776864 422.324510932 L181.982574388 422.269713409 L181.982574388 422.214915886 L182.037371911 422.160118363 L183.078524851 422.160118363 L183.133322374 422.105320839 L183.133322374 422.050523316 L183.188119897 421.995725793 L184.229272837 421.995725793 L184.28407036 421.94092827 L184.28407036 421.886130747 L184.338867883 421.831333224 L185.544413393 421.831333224 L185.599210916 421.776535701 L185.599210916 421.721738177 L185.654008439 421.666940654 L186.695161379 421.666940654 L186.749958902 421.612143131 L186.749958902 421.557345608 L186.804756425 421.502548085 L188.010301934 421.502548085 L188.065099458 421.447750562 L188.065099458 421.392953039 L188.119896981 421.338155515 L189.161049921 421.338155515 L189.215847444 421.283357992 L189.215847444 421.228560469 L189.270644967 421.173762946 L190.476190476 421.173762946 L190.530987999 421.118965423 L190.530987999 421.0641679 L190.585785522 421.009370376 L191.626938462 421.009370376 L191.681735986 420.954572853 L191.681735986 420.89977533 L191.736533509 420.844977807 L192.942079018 420.844977807 L192.996876541 420.790180284 L192.996876541 420.735382761 L193.051674064 420.680585238 L194.092827004 420.680585238 L194.147624527 420.625787714 L194.147624527 420.570990191 L194.202422051 420.516192668 L195.40796756 420.516192668 L195.462765083 420.461395145 L195.462765083 420.406597622 L195.517562606 420.351800099 L196.558715546 420.351800099 L196.613513069 420.297002575 L196.613513069 420.242205052 L196.668310592 420.187407529 L197.709463532 420.187407529 L197.764261055 420.132610006 L197.764261055 420.077812483 L197.819058579 420.02301496 L199.024604088 420.02301496 L199.079401611 419.968217437 L199.079401611 419.913419913 L199.134199134 419.85862239 L200.175352074 419.85862239 L200.230149597 419.803824867 L200.230149597 419.749027344 L200.28494712 419.694229821 L201.49049263 419.694229821 L201.545290153 419.639432298 L201.545290153 419.584634775 L201.600087676 419.529837251 L202.641240616 419.529837251 L202.696038139 419.475039728 L202.696038139 419.420242205 L202.750835662 419.365444682 L203.956381172 419.365444682 L204.011178695 419.310647159 L204.011178695 389.226806948 L203.956381172 389.172009425 L203.079620801 389.172009425 L203.024823278 389.117211902 L203.024823278 389.062414379 L202.970025755 389.007616856 L201.271302537 389.007616856 L201.216505014 388.952819333 L201.216505014 388.898021809 L201.161707491 388.843224286 L199.627376843 388.843224286 L199.572579319 388.788426763 L199.572579319 388.73362924 L199.517781796 388.678831717 L197.819058579 388.678831717 L197.764261055 388.624034194 L197.764261055 388.569236671 L197.709463532 388.514439147 L196.175132884 388.514439147 L196.120335361 388.459641624 L196.120335361 388.404844101 L196.065537838 388.350046578 L194.36681462 388.350046578 L194.312017097 388.295249055 L194.312017097 388.240451532 L194.257219574 388.185654008 L192.558496356 388.185654008 L192.503698833 388.130856485 L192.503698833 388.076058962 L192.44890131 388.021261439 L190.914570661 388.021261439 L190.859773138 387.966463916 L190.859773138 387.911666393 L190.804975615 387.85686887 L189.106252397 387.85686887 L189.051454874 387.802071346 L189.051454874 387.747273823 L188.996657351 387.6924763 L187.297934133 387.6924763 L187.24313661 387.637678777 L187.24313661 387.582881254 L187.188339087 387.528083731 L185.654008439 387.528083731 L185.599210916 387.473286207 L185.599210916 387.418488684 L185.544413393 387.363691161 L183.845690175 387.363691161 L183.790892652 387.308893638 L183.790892652 387.254096115 L183.736095129 387.199298592 L182.037371911 387.199298592 L181.982574388 387.144501069 L181.982574388 387.089703545 L181.927776864 387.034906022 L180.393446216 387.034906022 L180.338648693 386.980108499 L180.338648693 386.925310976 L180.28385117 386.870513453 L178.585127952 386.870513453 L178.530330429 386.81571593 L178.530330429 386.760918406 L178.475532906 386.706120883 L176.941202258 386.706120883 L176.886404735 386.65132336 L176.886404735 386.596525837 L176.831607211 386.541728314 L175.132883994 386.541728314 L175.07808647 386.486930791 L175.07808647 386.432133268 L175.023288947 386.377335744 L173.32456573 386.377335744 L173.269768206 386.322538221 L173.269768206 386.267740698 L173.214970683 386.212943175 L171.680640035 386.212943175 L171.625842512 386.158145652 L171.625842512 386.103348129 L171.571044989 386.048550606 L169.872321771 386.048550606 L169.817524248 385.993753082 L169.817524248 385.938955559 L169.762726725 385.884158036 L168.064003507 385.884158036 L168.009205984 385.829360513 L168.009205984 385.77456299 L167.954408461 385.719765467 L166.420077812 385.719765467 L166.365280289 385.664967943 L166.365280289 385.61017042 L166.310482766 385.555372897 L164.611759548 385.555372897 L164.556962025 385.500575374 L164.556962025 385.445777851 L164.502164502 385.390980328 L162.803441284 385.390980328 L162.748643761 385.336182805 L162.748643761 385.281385281 L162.693846238 385.226587758 L161.15951559 385.226587758 L161.104718067 385.171790235 L161.104718067 385.116992712 L161.049920544 385.062195189 L159.351197326 385.062195189 L159.296399803 385.007397666 L159.296399803 384.952600142 L159.24160228 384.897802619 L157.707271631 384.897802619 L157.652474108 384.843005096 L157.652474108 384.788207573 L157.597676585 384.73341005 L155.898953367 384.73341005 L155.844155844 384.678612527 L155.844155844 384.623815004 L155.789358321 384.56901748 L154.090635103 384.56901748 L154.03583758 384.514219957 L154.03583758 384.459422434 L153.981040057 384.404624911 L152.446709409 384.404624911 L152.391911886 384.349827388 L152.391911886 384.295029865 L152.337114362 384.240232341 L150.638391145 384.240232341 L150.583593622 384.185434818 L150.583593622 384.130637295 L150.528796098 384.075839772 149.487643159 384.075839772 " stroke="black" fill="transparent"/>
<path d="M151.460353992 386.377335744 L151.460353992 424.132829196 L151.679544085 424.132829196 L151.734341608 424.078031673 L151.734341608 424.02323415 L151.789139131 423.968436627 L152.99468464 423.968436627 L153.049482163 423.913639104 L153.049482163 423.85884158 L153.104279687 423.804044057 L154.145432626 423.804044057 L154.20023015 423.749246534 L154.20023015 423.694449011 L154.255027673 423.639651488 L155.296180613 423.639651488 L155.350978136 423.584853965 L155.350978136 423.530056441 L155.405775659 423.475258918 L156.611321168 423.475258918 L156.666118691 423.420461395 L156.666118691 423.365663872 L156.720916215 423.310866349 L157.762069154 423.310866349 L157.816866678 423.256068826 L157.816866678 423.201271303 L157.871664201 423.146473779 L159.07720971 423.146473779 L159.132007233 423.091676256 L159.132007233 423.036878733 L159.186804756 422.98208121 L160.227957696 422.98208121 L160.282755219 422.927283687 L160.282755219 422.872486164 L160.337552743 422.81768864 L161.543098252 422.81768864 L161.597895775 422.762891117 L161.597895775 422.708093594 L161.652693298 422.653296071 L162.693846238 422.653296071 L162.748643761 422.598498548 L162.748643761 422.543701025 L162.803441284 422.488903502 L164.008986794 422.488903502 L164.063784317 422.434105978 L164.063784317 422.379308455 L164.11858184 422.324510932 L165.15973478 422.324510932 L165.214532303 422.269713409 L165.214532303 422.214915886 L165.269329826 422.160118363 L166.474875336 422.160118363 L166.529672859 422.105320839 L166.529672859 422.050523316 L166.584470382 421.995725793 L167.625623322 421.995725793 L167.680420845 421.94092827 L167.680420845 421.886130747 L167.735218368 421.831333224 L168.776371308 421.831333224 L168.831168831 421.776535701 L168.831168831 421.721738177 L168.885966354 421.666940654 L170.091511864 421.666940654 L170.146309387 421.612143131 L170.146309387 421.557345608 L170.20110691 421.502548085 L171.24225985 421.502548085 L171.297057373 421.447750562 L171.297057373 421.392953039 L171.351854896 421.338155515 L172.557400406 421.338155515 L172.612197929 421.283357992 L172.612197929 421.228560469 L172.666995452 421.173762946 L173.708148392 421.173762946 L173.762945915 421.118965423 L173.762945915 421.0641679 L173.817743438 421.009370376 L175.023288947 421.009370376 L175.07808647 420.954572853 L175.07808647 420.89977533 L175.132883994 420.844977807 L176.174036934 420.844977807 L176.228834457 420.790180284 L176.228834457 420.735382761 L176.28363198 420.680585238 L177.489177489 420.680585238 L177.543975012 420.625787714 L177.543975012 420.570990191 L177.598772535 420.516192668 L178.639925475 420.516192668 L178.694722999 420.461395145 L178.694722999 420.406597622 L178.749520522 420.351800099 L179.955066031 420.351800099 L180.009863554 420.297002575 L180.009863554 420.242205052 L180.064661077 420.187407529 L181.105814017 420.187407529 L181.16061154 420.132610006 L181.16061154 420.077812483 L181.215409064 420.02301496 L182.256562003 420.02301496 L182.311359527 419.968217437 L182.311359527 419.913419913 L182.36615705 419.85862239 L183.571702559 419.85862239 L183.626500082 419.803824867 L183.626500082 419.749027344 L183.681297605 419.694229821 L184.722450545 419.694229821 L184.777248068 419.639432298 L184.777248068 419.584634775 L184.832045592 419.529837251 L186.037591101 419.529837251 L186.092388624 419.475039728 L186.092388624 419.420242205 L186.147186147 419.365444682 L187.188339087 419.365444682 L187.24313661 419.310647159 L187.24313661 419.255849636 L187.297934133 419.201052112 L188.503479643 419.201052112 L188.558277166 419.146254589 L188.558277166 419.091457066 L188.613074689 419.036659543 L189.654227629 419.036659543 L189.709025152 418.98186202 L189.709025152 418.927064497 L189.763822675 418.872266974 L190.969368185 418.872266974 L191.024165708 418.81746945 L191.024165708 418.762671927 L191.078963231 418.707874404 L192.120116171 418.707874404 L192.174913694 418.653076881 L192.174913694 418.598279358 L192.229711217 418.543481835 L193.435256726 418.543481835 L193.49005425 418.488684311 L193.49005425 418.433886788 L193.544851773 418.379089265 L194.586004713 418.379089265 L194.640802236 418.324291742 L194.640802236 418.269494219 L194.695599759 418.214696696 L195.736752699 418.214696696 L195.791550222 418.159899173 L195.791550222 418.105101649 L195.846347745 418.050304126 L197.051893254 418.050304126 L197.106690778 417.995506603 L197.106690778 417.94070908 L197.161488301 417.885911557 L198.202641241 417.885911557 L198.257438764 417.831114034 L198.257438764 417.77631651 L198.312236287 417.721518987 L199.517781796 417.721518987 L199.572579319 417.666721464 L199.572579319 417.611923941 L199.627376843 417.557126418 L200.668529782 417.557126418 L200.723327306 417.502328895 L200.723327306 417.447531372 L200.778124829 417.392733848 L201.983670338 417.392733848 L202.038467861 417.337936325 L202.038467861 391.199517782 L201.983670338 391.144720259 L201.106909968 391.144720259 L201.052112445 391.089922735 L201.052112445 391.035125212 L200.997314921 390.980327689 L199.298591704 390.980327689 L199.243794181 390.925530166 L199.243794181 390.870732643 L199.188996657 390.81593512 L197.654666009 390.81593512 L197.599868486 390.761137597 L197.599868486 390.706340073 L197.545070963 390.65154255 L195.846347745 390.65154255 L195.791550222 390.596745027 L195.791550222 390.541947504 L195.736752699 390.487149981 L194.202422051 390.487149981 L194.147624527 390.432352458 L194.147624527 390.377554935 L194.092827004 390.322757411 L192.394103787 390.322757411 L192.339306263 390.267959888 L192.339306263 390.213162365 L192.28450874 390.158364842 L190.585785522 390.158364842 L190.530987999 390.103567319 L190.530987999 390.048769796 L190.476190476 389.993972272 L188.941859828 389.993972272 L188.887062305 389.939174749 L188.887062305 389.884377226 L188.832264782 389.829579703 L187.133541564 389.829579703 L187.078744041 389.77478218 L187.078744041 389.719984657 L187.023946518 389.665187134 L185.3252233 389.665187134 L185.270425777 389.61038961 L185.270425777 389.555592087 L185.215628254 389.500794564 L183.681297605 389.500794564 L183.626500082 389.445997041 L183.626500082 389.391199518 L183.571702559 389.336401995 L181.872979341 389.336401995 L181.818181818 389.281604471 L181.818181818 389.226806948 L181.763384295 389.172009425 L180.064661077 389.172009425 L180.009863554 389.117211902 L180.009863554 389.062414379 L179.955066031 389.007616856 L178.420735383 389.007616856 L178.36593786 388.952819333 L178.36593786 388.898021809 L178.311140336 388.843224286 L176.612417119 388.843224286 L176.557619596 388.788426763 L176.557619596 388.73362924 L176.502822072 388.678831717 L174.968491424 388.678831717 L174.913693901 388.624034194 L174.913693901 388.569236671 L174.858896378 388.514439147 L173.16017316 388.514439147 L173.105375637 388.459641624 L173.105375637 388.404844101 L173.050578114 388.350046578 L171.351854896 388.350046578 L171.297057373 388.295249055 L171.297057373 388.240451532 L171.24225985 388.185654008 L169.707929202 388.185654008 L169.653131678 388.130856485 L169.653131678 388.076058962 L169.598334155 388.021261439 L167.899610938 388.021261439 L167.844813414 387.966463916 L167.844813414 387.911666393 L167.790015891 387.85686887 L166.091292674 387.85686887 L166.03649515 387.802071346 L166.03649515 387.747273823 L165.981697627 387.6924763 L164.447366979 387.6924763 L164.392569456 387.637678777 L164.392569456 387.582881254 L164.337771933 387.528083731 L162.639048715 387.528083731 L162.584251192 387.473286207 L162.584251192 387.418488684 L162.529453669 387.363691161 L160.830730451 387.363691161 L160.775932928 387.308893638 L160.775932928 387.254096115 L160.721135405 387.199298592 L159.186804756 387.199298592 L159.132007233 387.144501069 L159.132007233 387.089703545 L159.07720971 387.034906022 L157.378486492 387.034906022 L157.323688969 386.980108499 L157.323688969 386.925310976 L157.268891446 386.870513453 L155.734560798 386.870513453 L155.679763275 386.81571593 L155.679763275 386.760918406 L155.624965752 386.706120883 L153.926242534 386.706120883 L153.871445011 386.65132336 L153.871445011 386.596525837 L153.816647488 386.541728314 L152.11792427 386.541728314 L152.063126747 386.486930791 L152.063126747 386.432133268 L152.008329224 386.377335744 151.460353992 386.377335744 " stroke="black" fill="transparent"/>
<path d="M153.433064825 388.678831717 L153.433064825 421.502548085 L154.638610335 421.502548085 L154.693407858 421.447750562 L154.693407858 421.392953039 L154.748205381 421.338155515 L155.789358321 421.338155515 L155.844155844 421.283357992 L155.844155844 421.228560469 L155.898953367 421.173762946 L157.104498877 421.173762946 L157.1592964 421.118965423 L157.1592964 421.0641679 L157.214093923 421.009370376 L158.255246863 421.009370376 L158.310044386 420.954572853 L158.310044386 420.89977533 L158.364841909 420.844977807 L159.570387418 420.844977807 L159.625184942 420.790180284 L159.625184942 420.735382761 L159.679982465 420.680585238 L160.721135405 420.680585238 L160.775932928 420.625787714 L160.775932928 420.570990191 L160.830730451 420.516192668 L162.03627596 420.516192668 L162.091073483 420.461395145 L162.091073483 420.406597622 L162.145871007 420.351800099 L163.187023947 420.351800099 L163.24182147 420.297002575 L163.24182147 420.242205052 L163.296618993 420.187407529 L164.502164502 420.187407529 L164.556962025 420.132610006 L164.556962025 420.077812483 L164.611759548 420.02301496 L165.652912488 420.02301496 L165.707710012 419.968217437 L165.707710012 419.913419913 L165.762507535 419.85862239 L166.803660475 419.85862239 L166.858457998 419.803824867 L166.858457998 419.749027344 L166.913255521 419.694229821 L168.11880103 419.694229821 L168.173598553 419.639432298 L168.173598553 419.584634775 L168.228396076 419.529837251 L169.269549016 419.529837251 L169.32434654 419.475039728 L169.32434654 419.420242205 L169.379144063 419.365444682 L170.584689572 419.365444682 L170.639487095 419.310647159 L170.639487095 419.255849636 L170.694284618 419.201052112 L171.735437558 419.201052112 L171.790235081 419.146254589 L171.790235081 419.091457066 L171.845032605 419.036659543 L173.050578114 419.036659543 L173.105375637 418.98186202 L173.105375637 418.927064497 L173.16017316 418.872266974 L174.2013261 418.872266974 L174.256123623 418.81746945 L174.256123623 418.762671927 L174.310921146 418.707874404 L175.516466656 418.707874404 L175.571264179 418.653076881 L175.571264179 418.598279358 L175.626061702 418.543481835 L176.667214642 418.543481835 L176.722012165 418.488684311 L176.722012165 418.433886788 L176.776809688 418.379089265 L177.982355198 418.379089265 L178.037152721 418.324291742 L178.037152721 418.269494219 L178.091950244 418.214696696 L179.133103184 418.214696696 L179.187900707 418.159899173 L179.187900707 418.105101649 L179.24269823 418.050304126 L180.28385117 418.050304126 L180.338648693 417.995506603 L180.338648693 417.94070908 L180.393446216 417.885911557 L181.598991726 417.885911557 L181.653789249 417.831114034 L181.653789249 417.77631651 L181.708586772 417.721518987 L182.749739712 417.721518987 L182.804537235 417.666721464 L182.804537235 417.611923941 L182.859334758 417.557126418 L184.064880267 417.557126418 L184.119677791 417.502328895 L184.119677791 417.447531372 L184.174475314 417.392733848 L185.215628254 417.392733848 L185.270425777 417.337936325 L185.270425777 417.283138802 L185.3252233 417.228341279 L186.530768809 417.228341279 L186.585566332 417.173543756 L186.585566332 417.118746233 L186.640363856 417.06394871 L187.681516795 417.06394871 L187.736314319 417.009151186 L187.736314319 416.954353663 L187.791111842 416.89955614 L188.996657351 416.89955614 L189.051454874 416.844758617 L189.051454874 416.789961094 L189.106252397 416.735163571 L190.147405337 416.735163571 L190.20220286 416.680366047 L190.20220286 416.625568524 L190.257000384 416.570771001 L191.462545893 416.570771001 L191.517343416 416.515973478 L191.517343416 416.461175955 L191.572140939 416.406378432 L192.613293879 416.406378432 L192.668091402 416.351580909 L192.668091402 416.296783385 L192.722888925 416.241985862 L193.764041865 416.241985862 L193.818839388 416.187188339 L193.818839388 416.132390816 L193.873636912 416.077593293 L195.079182421 416.077593293 L195.133979944 416.02279577 L195.133979944 415.967998246 L195.188777467 415.913200723 L196.229930407 415.913200723 L196.28472793 415.8584032 L196.28472793 415.803605677 L196.339525453 415.748808154 L197.545070963 415.748808154 L197.599868486 415.694010631 L197.599868486 415.639213108 L197.654666009 415.584415584 L198.695818949 415.584415584 L198.750616472 415.529618061 L198.750616472 415.474820538 L198.805413995 415.420023015 L200.010959505 415.420023015 L200.065757028 415.365225492 L200.065757028 393.172228615 L200.010959505 393.117431092 L199.134199134 393.117431092 L199.079401611 393.062633569 L199.079401611 393.007836046 L199.024604088 392.953038523 L197.32588087 392.953038523 L197.271083347 392.898241 L197.271083347 392.843443476 L197.216285824 392.788645953 L195.681955176 392.788645953 L195.627157652 392.73384843 L195.627157652 392.679050907 L195.572360129 392.624253384 L193.873636912 392.624253384 L193.818839388 392.569455861 L193.818839388 392.514658337 L193.764041865 392.459860814 L192.229711217 392.459860814 L192.174913694 392.405063291 L192.174913694 392.350265768 L192.120116171 392.295468245 L190.421392953 392.295468245 L190.36659543 392.240670722 L190.36659543 392.185873199 L190.311797907 392.131075675 L188.613074689 392.131075675 L188.558277166 392.076278152 L188.558277166 392.021480629 L188.503479643 391.966683106 L186.969148994 391.966683106 L186.914351471 391.911885583 L186.914351471 391.85708806 L186.859553948 391.802290536 L185.16083073 391.802290536 L185.106033207 391.747493013 L185.106033207 391.69269549 L185.051235684 391.637897967 L183.352512466 391.637897967 L183.297714943 391.583100444 L183.297714943 391.528302921 L183.24291742 391.473505398 L181.708586772 391.473505398 L181.653789249 391.418707874 L181.653789249 391.363910351 L181.598991726 391.309112828 L179.900268508 391.309112828 L179.845470985 391.254315305 L179.845470985 391.199517782 L179.790673462 391.144720259 L178.091950244 391.144720259 L178.037152721 391.089922735 L178.037152721 391.035125212 L177.982355198 390.980327689 L176.448024549 390.980327689 L176.393227026 390.925530166 L176.393227026 390.870732643 L176.338429503 390.81593512 L174.639706285 390.81593512 L174.584908762 390.761137597 L174.584908762 390.706340073 L174.530111239 390.65154255 L172.995780591 390.65154255 L172.940983068 390.596745027 L172.940983068 390.541947504 L172.886185544 390.487149981 L171.187462327 390.487149981 L171.132664804 390.432352458 L171.132664804 390.377554935 L171.07786728 390.322757411 L169.379144063 390.322757411 L169.32434654 390.267959888 L169.32434654 390.213162365 L169.269549016 390.158364842 L167.735218368 390.158364842 L167.680420845 390.103567319 L167.680420845 390.048769796 L167.625623322 389.993972272 L165.926900104 389.993972272 L165.872102581 389.939174749 L165.872102581 389.884377226 L165.817305058 389.829579703 L164.11858184 389.829579703 L164.063784317 389.77478218 L164.063784317 389.719984657 L164.008986794 389.665187134 L162.474656146 389.665187134 L162.419858622 389.61038961 L162.419858622 389.555592087 L162.365061099 389.500794564 L160.666337882 389.500794564 L160.611540358 389.445997041 L160.611540358 389.391199518 L160.556742835 389.336401995 L158.858019618 389.336401995 L158.803222094 389.281604471 L158.803222094 389.226806948 L158.748424571 389.172009425 L157.214093923 389.172009425 L157.1592964 389.117211902 L157.1592964 389.062414379 L157.104498877 389.007616856 L155.405775659 389.007616856 L155.350978136 388.952819333 L155.350978136 388.898021809 L155.296180613 388.843224286 L153.761849964 388.843224286 L153.707052441 388.788426763 L153.707052441 388.73362924 L153.652254918 388.678831717 153.433064825 388.678831717 " stroke="black" fill="transparent"/>
<path d="M155.405775659 391.144720259 L155.405775659 419.036659543 L156.282536029 419.036659543 L156.337333553 418.98186202 L156.337333553 418.927064497 L156.392131076 418.872266974 L157.597676585 418.872266974 L157.652474108 418.81746945 L157.652474108 418.762671927 L157.707271631 418.707874404 L158.748424571 418.707874404 L158.803222094 418.653076881 L158.803222094 418.598279358 L158.858019618 418.543481835 L160.063565127 418.543481835 L160.11836265 418.488684311 L160.11836265 418.433886788 L160.173160173 418.379089265 L161.214313113 418.379089265 L161.269110636 418.324291742 L161.269110636 418.269494219 L161.323908159 418.214696696 L162.529453669 418.214696696 L162.584251192 418.159899173 L162.584251192 418.105101649 L162.639048715 418.050304126 L163.680201655 418.050304126 L163.734999178 417.995506603 L163.734999178 417.94070908 L163.789796701 417.885911557 L164.830949641 417.885911557 L164.885747164 417.831114034 L164.885747164 417.77631651 L164.940544687 417.721518987 L166.146090197 417.721518987 L166.20088772 417.666721464 L166.20088772 417.611923941 L166.255685243 417.557126418 L167.296838183 417.557126418 L167.351635706 417.502328895 L167.351635706 417.447531372 L167.406433229 417.392733848 L168.611978739 417.392733848 L168.666776262 417.337936325 L168.666776262 417.283138802 L168.721573785 417.228341279 L169.762726725 417.228341279 L169.817524248 417.173543756 L169.817524248 417.118746233 L169.872321771 417.06394871 L171.07786728 417.06394871 L171.132664804 417.009151186 L171.132664804 416.954353663 L171.187462327 416.89955614 L172.228615267 416.89955614 L172.28341279 416.844758617 L172.28341279 416.789961094 L172.338210313 416.735163571 L173.543755822 416.735163571 L173.598553345 416.680366047 L173.598553345 416.625568524 L173.653350869 416.570771001 L174.694503808 416.570771001 L174.749301332 416.515973478 L174.749301332 416.461175955 L174.804098855 416.406378432 L176.009644364 416.406378432 L176.064441887 416.351580909 L176.064441887 416.296783385 L176.11923941 416.241985862 L177.16039235 416.241985862 L177.215189873 416.187188339 L177.215189873 416.132390816 L177.269987397 416.077593293 L178.311140336 416.077593293 L178.36593786 416.02279577 L178.36593786 415.967998246 L178.420735383 415.913200723 L179.626280892 415.913200723 L179.681078415 415.8584032 L179.681078415 415.803605677 L179.735875938 415.748808154 L180.777028878 415.748808154 L180.831826401 415.694010631 L180.831826401 415.639213108 L180.886623925 415.584415584 L182.092169434 415.584415584 L182.146966957 415.529618061 L182.146966957 415.474820538 L182.20176448 415.420023015 L183.24291742 415.420023015 L183.297714943 415.365225492 L183.297714943 415.310427969 L183.352512466 415.255630446 L184.558057976 415.255630446 L184.612855499 415.200832922 L184.612855499 415.146035399 L184.667653022 415.091237876 L185.708805962 415.091237876 L185.763603485 415.036440353 L185.763603485 414.98164283 L185.818401008 414.926845307 L187.023946518 414.926845307 L187.078744041 414.872047783 L187.078744041 414.81725026 L187.133541564 414.762452737 L188.174694504 414.762452737 L188.229492027 414.707655214 L188.229492027 414.652857691 L188.28428955 414.598060168 L189.489835059 414.598060168 L189.544632583 414.543262645 L189.544632583 414.488465121 L189.599430106 414.433667598 L190.640583046 414.433667598 L190.695380569 414.378870075 L190.695380569 414.324072552 L190.750178092 414.269275029 L191.791331032 414.269275029 L191.846128555 414.214477506 L191.846128555 414.159679982 L191.900926078 414.104882459 L193.106471587 414.104882459 L193.161269111 414.050084936 L193.161269111 413.995287413 L193.216066634 413.94048989 L194.257219574 413.94048989 L194.312017097 413.885692367 L194.312017097 413.830894844 L194.36681462 413.77609732 L195.572360129 413.77609732 L195.627157652 413.721299797 L195.627157652 413.666502274 L195.681955176 413.611704751 L196.723108116 413.611704751 L196.777905639 413.556907228 L196.777905639 413.502109705 L196.832703162 413.447312181 L198.038248671 413.447312181 L198.093046194 413.392514658 L198.093046194 395.144939449 L198.038248671 395.090141926 L197.161488301 395.090141926 L197.106690778 395.035344402 L197.106690778 394.980546879 L197.051893254 394.925749356 L195.353170037 394.925749356 L195.298372514 394.870951833 L195.298372514 394.81615431 L195.24357499 394.761356787 L193.709244342 394.761356787 L193.654446819 394.706559264 L193.654446819 394.65176174 L193.599649296 394.596964217 L191.900926078 394.596964217 L191.846128555 394.542166694 L191.846128555 394.487369171 L191.791331032 394.432571648 L190.257000384 394.432571648 L190.20220286 394.377774125 L190.20220286 394.322976601 L190.147405337 394.268179078 L188.44868212 394.268179078 L188.393884596 394.213381555 L188.393884596 394.158584032 L188.339087073 394.103786509 L186.640363856 394.103786509 L186.585566332 394.048988986 L186.585566332 393.994191463 L186.530768809 393.939393939 L184.996438161 393.939393939 L184.941640638 393.884596416 L184.941640638 393.829798893 L184.886843115 393.77500137 L183.188119897 393.77500137 L183.133322374 393.720203847 L183.133322374 393.665406324 L183.078524851 393.6106088 L181.379801633 393.6106088 L181.32500411 393.555811277 L181.32500411 393.501013754 L181.270206587 393.446216231 L179.735875938 393.446216231 L179.681078415 393.391418708 L179.681078415 393.336621185 L179.626280892 393.281823662 L177.927557674 393.281823662 L177.872760151 393.227026138 L177.872760151 393.172228615 L177.817962628 393.117431092 L176.11923941 393.117431092 L176.064441887 393.062633569 L176.064441887 393.007836046 L176.009644364 392.953038523 L174.475313716 392.953038523 L174.420516193 392.898241 L174.420516193 392.843443476 L174.36571867 392.788645953 L172.666995452 392.788645953 L172.612197929 392.73384843 L172.612197929 392.679050907 L172.557400406 392.624253384 L171.023069757 392.624253384 L170.968272234 392.569455861 L170.968272234 392.514658337 L170.913474711 392.459860814 L169.214751493 392.459860814 L169.15995397 392.405063291 L169.15995397 392.350265768 L169.105156447 392.295468245 L167.406433229 392.295468245 L167.351635706 392.240670722 L167.351635706 392.185873199 L167.296838183 392.131075675 L165.762507535 392.131075675 L165.707710012 392.076278152 L165.707710012 392.021480629 L165.652912488 391.966683106 L163.954189271 391.966683106 L163.899391747 391.911885583 L163.899391747 391.85708806 L163.844594224 391.802290536 L162.145871007 391.802290536 L162.091073483 391.747493013 L162.091073483 391.69269549 L162.03627596 391.637897967 L160.501945312 391.637897967 L160.447147789 391.583100444 L160.447147789 391.528302921 L160.392350266 391.473505398 L158.693627048 391.473505398 L158.638829525 391.418707874 L158.638829525 391.363910351 L158.584032002 391.309112828 L156.885308784 391.309112828 L156.830511261 391.254315305 L156.830511261 391.199517782 L156.775713738 391.144720259 155.405775659 391.144720259 " stroke="black" fill="transparent"/>
<path d="M157.378486492 393.446216231 L157.378486492 416.570771001 L158.090854293 416.570771001 L158.145651817 416.515973478 L158.145651817 416.461175955 L158.20044934 416.406378432 L159.24160228 416.406378432 L159.296399803 416.351580909 L159.296399803 416.296783385 L159.351197326 416.241985862 L160.556742835 416.241985862 L160.611540358 416.187188339 L160.611540358 416.132390816 L160.666337882 416.077593293 L161.707490821 416.077593293 L161.762288345 416.02279577 L161.762288345 415.967998246 L161.817085868 415.913200723 L162.858238808 415.913200723 L162.913036331 415.8584032 L162.913036331 415.803605677 L162.967833854 415.748808154 L164.173379363 415.748808154 L164.228176886 415.694010631 L164.228176886 415.639213108 L164.28297441 415.584415584 L165.324127349 415.584415584 L165.378924873 415.529618061 L165.378924873 415.474820538 L165.433722396 415.420023015 L166.639267905 415.420023015 L166.694065428 415.365225492 L166.694065428 415.310427969 L166.748862951 415.255630446 L167.790015891 415.255630446 L167.844813414 415.200832922 L167.844813414 415.146035399 L167.899610938 415.091237876 L169.105156447 415.091237876 L169.15995397 415.036440353 L169.15995397 414.98164283 L169.214751493 414.926845307 L170.255904433 414.926845307 L170.310701956 414.872047783 L170.310701956 414.81725026 L170.365499479 414.762452737 L171.571044989 414.762452737 L171.625842512 414.707655214 L171.625842512 414.652857691 L171.680640035 414.598060168 L172.721792975 414.598060168 L172.776590498 414.543262645 L172.776590498 414.488465121 L172.831388021 414.433667598 L174.036933531 414.433667598 L174.091731054 414.378870075 L174.091731054 414.324072552 L174.146528577 414.269275029 L175.187681517 414.269275029 L175.24247904 414.214477506 L175.24247904 414.159679982 L175.297276563 414.104882459 L176.338429503 414.104882459 L176.393227026 414.050084936 L176.393227026 413.995287413 L176.448024549 413.94048989 L177.653570059 413.94048989 L177.708367582 413.885692367 L177.708367582 413.830894844 L177.763165105 413.77609732 L178.804318045 413.77609732 L178.859115568 413.721299797 L178.859115568 413.666502274 L178.913913091 413.611704751 L180.1194586 413.611704751 L180.174256124 413.556907228 L180.174256124 413.502109705 L180.229053647 413.447312181 L181.270206587 413.447312181 L181.32500411 413.392514658 L181.32500411 413.337717135 L181.379801633 413.282919612 L182.585347142 413.282919612 L182.640144665 413.228122089 L182.640144665 413.173324566 L182.694942189 413.118527043 L183.736095129 413.118527043 L183.790892652 413.063729519 L183.790892652 413.008931996 L183.845690175 412.954134473 L185.051235684 412.954134473 L185.106033207 412.89933695 L185.106033207 412.844539427 L185.16083073 412.789741904 L186.20198367 412.789741904 L186.256781193 412.734944381 L186.256781193 412.680146857 L186.311578717 412.625349334 L187.517124226 412.625349334 L187.571921749 412.570551811 L187.571921749 412.515754288 L187.626719272 412.460956765 L188.667872212 412.460956765 L188.722669735 412.406159242 L188.722669735 412.351361718 L188.777467258 412.296564195 L189.818620198 412.296564195 L189.873417722 412.241766672 L189.873417722 412.186969149 L189.928215245 412.132171626 L191.133760754 412.132171626 L191.188558277 412.077374103 L191.188558277 412.02257658 L191.2433558 411.967779056 L192.28450874 411.967779056 L192.339306263 411.912981533 L192.339306263 411.85818401 L192.394103787 411.803386487 L193.599649296 411.803386487 L193.654446819 411.748588964 L193.654446819 411.693791441 L193.709244342 411.638993917 L194.750397282 411.638993917 L194.805194805 411.584196394 L194.805194805 411.529398871 L194.859992328 411.474601348 L196.065537838 411.474601348 L196.120335361 411.419803825 L196.120335361 397.117650282 L196.065537838 397.062852759 L195.188777467 397.062852759 L195.133979944 397.008055236 L195.133979944 396.953257713 L195.079182421 396.89846019 L193.380459203 396.89846019 L193.32566168 396.843662666 L193.32566168 396.788865143 L193.270864157 396.73406762 L191.736533509 396.73406762 L191.681735986 396.679270097 L191.681735986 396.624472574 L191.626938462 396.569675051 L189.928215245 396.569675051 L189.873417722 396.514877528 L189.873417722 396.460080004 L189.818620198 396.405282481 L188.28428955 396.405282481 L188.229492027 396.350484958 L188.229492027 396.295687435 L188.174694504 396.240889912 L186.475971286 396.240889912 L186.421173763 396.186092389 L186.421173763 396.131294865 L186.36637624 396.076497342 L184.667653022 396.076497342 L184.612855499 396.021699819 L184.612855499 395.966902296 L184.558057976 395.912104773 L183.023727328 395.912104773 L182.968929804 395.85730725 L182.968929804 395.802509727 L182.914132281 395.747712203 L181.215409064 395.747712203 L181.16061154 395.69291468 L181.16061154 395.638117157 L181.105814017 395.583319634 L179.407090799 395.583319634 L179.352293276 395.528522111 L179.352293276 395.473724588 L179.297495753 395.418927064 L177.763165105 395.418927064 L177.708367582 395.364129541 L177.708367582 395.309332018 L177.653570059 395.254534495 L175.954846841 395.254534495 L175.900049318 395.199736972 L175.900049318 395.144939449 L175.845251795 395.090141926 L174.146528577 395.090141926 L174.091731054 395.035344402 L174.091731054 394.980546879 L174.036933531 394.925749356 L172.502602882 394.925749356 L172.447805359 394.870951833 L172.447805359 394.81615431 L172.393007836 394.761356787 L170.694284618 394.761356787 L170.639487095 394.706559264 L170.639487095 394.65176174 L170.584689572 394.596964217 L169.050358924 394.596964217 L168.995561401 394.542166694 L168.995561401 394.487369171 L168.940763877 394.432571648 L167.24204066 394.432571648 L167.187243137 394.377774125 L167.187243137 394.322976601 L167.132445613 394.268179078 L165.433722396 394.268179078 L165.378924873 394.213381555 L165.378924873 394.158584032 L165.324127349 394.103786509 L163.789796701 394.103786509 L163.734999178 394.048988986 L163.734999178 393.994191463 L163.680201655 393.939393939 L161.981478437 393.939393939 L161.926680914 393.884596416 L161.926680914 393.829798893 L161.871883391 393.77500137 L160.173160173 393.77500137 L160.11836265 393.720203847 L160.11836265 393.665406324 L160.063565127 393.6106088 L158.529234479 393.6106088 L158.474436955 393.555811277 L158.474436955 393.501013754 L158.419639432 393.446216231 157.378486492 393.446216231 " stroke="black" fill="transparent"/>
<path d="M159.351197326 395.747712203 L159.351197326 414.104882459 L159.734779988 414.104882459 L159.789577511 414.050084936 L159.789577511 413.995287413 L159.844375034 413.94048989 L160.885527974 413.94048989 L160.940325497 413.885692367 L160.940325497 413.830894844 L160.99512302 413.77609732 L162.20066853 413.77609732 L162.255466053 413.721299797 L162.255466053 413.666502274 L162.310263576 413.611704751 L163.351416516 413.611704751 L163.406214039 413.556907228 L163.406214039 413.502109705 L163.461011562 413.447312181 L164.666557072 413.447312181 L164.721354595 413.392514658 L164.721354595 413.337717135 L164.776152118 413.282919612 L165.817305058 413.282919612 L165.872102581 413.228122089 L165.872102581 413.173324566 L165.926900104 413.118527043 L167.132445613 413.118527043 L167.187243137 413.063729519 L167.187243137 413.008931996 L167.24204066 412.954134473 L168.2831936 412.954134473 L168.337991123 412.89933695 L168.337991123 412.844539427 L168.392788646 412.789741904 L169.598334155 412.789741904 L169.653131678 412.734944381 L169.653131678 412.680146857 L169.707929202 412.625349334 L170.749082141 412.625349334 L170.803879665 412.570551811 L170.803879665 412.515754288 L170.858677188 412.460956765 L172.064222697 412.460956765 L172.11902022 412.406159242 L172.11902022 412.351361718 L172.173817743 412.296564195 L173.214970683 412.296564195 L173.269768206 412.241766672 L173.269768206 412.186969149 L173.32456573 412.132171626 L174.36571867 412.132171626 L174.420516193 412.077374103 L174.420516193 412.02257658 L174.475313716 411.967779056 L175.680859225 411.967779056 L175.735656748 411.912981533 L175.735656748 411.85818401 L175.790454271 411.803386487 L176.831607211 411.803386487 L176.886404735 411.748588964 L176.886404735 411.693791441 L176.941202258 411.638993917 L178.146747767 411.638993917 L178.20154529 411.584196394 L178.20154529 411.529398871 L178.256342813 411.474601348 L179.297495753 411.474601348 L179.352293276 411.419803825 L179.352293276 411.365006302 L179.407090799 411.310208779 L180.612636309 411.310208779 L180.667433832 411.255411255 L180.667433832 411.200613732 L180.722231355 411.145816209 L181.763384295 411.145816209 L181.818181818 411.091018686 L181.818181818 411.036221163 L181.872979341 410.98142364 L183.078524851 410.98142364 L183.133322374 410.926626116 L183.133322374 410.871828593 L183.188119897 410.81703107 L184.229272837 410.81703107 L184.28407036 410.762233547 L184.28407036 410.707436024 L184.338867883 410.652638501 L185.544413393 410.652638501 L185.599210916 410.597840978 L185.599210916 410.543043454 L185.654008439 410.488245931 L186.695161379 410.488245931 L186.749958902 410.433448408 L186.749958902 410.378650885 L186.804756425 410.323853362 L187.845909365 410.323853362 L187.900706888 410.269055839 L187.900706888 410.214258316 L187.955504411 410.159460792 L189.161049921 410.159460792 L189.215847444 410.104663269 L189.215847444 410.049865746 L189.270644967 409.995068223 L190.311797907 409.995068223 L190.36659543 409.9402707 L190.36659543 409.885473177 L190.421392953 409.830675653 L191.626938462 409.830675653 L191.681735986 409.77587813 L191.681735986 409.721080607 L191.736533509 409.666283084 L192.777686449 409.666283084 L192.832483972 409.611485561 L192.832483972 409.556688038 L192.887281495 409.501890515 L194.092827004 409.501890515 L194.147624527 409.447092991 L194.147624527 399.090361116 L194.092827004 399.035563593 L193.216066634 399.035563593 L193.161269111 398.980766069 L193.161269111 398.925968546 L193.106471587 398.871171023 L191.40774837 398.871171023 L191.352950847 398.8163735 L191.352950847 398.761575977 L191.298153323 398.706778454 L189.763822675 398.706778454 L189.709025152 398.65198093 L189.709025152 398.597183407 L189.654227629 398.542385884 L187.955504411 398.542385884 L187.900706888 398.487588361 L187.900706888 398.432790838 L187.845909365 398.377993315 L186.311578717 398.377993315 L186.256781193 398.323195792 L186.256781193 398.268398268 L186.20198367 398.213600745 L184.503260453 398.213600745 L184.448462929 398.158803222 L184.448462929 398.104005699 L184.393665406 398.049208176 L182.694942189 398.049208176 L182.640144665 397.994410653 L182.640144665 397.939613129 L182.585347142 397.884815606 L181.051016494 397.884815606 L180.996218971 397.830018083 L180.996218971 397.77522056 L180.941421448 397.720423037 L179.24269823 397.720423037 L179.187900707 397.665625514 L179.187900707 397.610827991 L179.133103184 397.556030467 L177.434379966 397.556030467 L177.379582443 397.501232944 L177.379582443 397.446435421 L177.32478492 397.391637898 L175.790454271 397.391637898 L175.735656748 397.336840375 L175.735656748 397.282042852 L175.680859225 397.227245329 L173.982136007 397.227245329 L173.927338484 397.172447805 L173.927338484 397.117650282 L173.872540961 397.062852759 L172.173817743 397.062852759 L172.11902022 397.008055236 L172.11902022 396.953257713 L172.064222697 396.89846019 L170.529892049 396.89846019 L170.475094526 396.843662666 L170.475094526 396.788865143 L170.420297003 396.73406762 L168.721573785 396.73406762 L168.666776262 396.679270097 L168.666776262 396.624472574 L168.611978739 396.569675051 L167.07764809 396.569675051 L167.022850567 396.514877528 L167.022850567 396.460080004 L166.968053044 396.405282481 L165.269329826 396.405282481 L165.214532303 396.350484958 L165.214532303 396.295687435 L165.15973478 396.240889912 L163.461011562 396.240889912 L163.406214039 396.186092389 L163.406214039 396.131294865 L163.351416516 396.076497342 L161.817085868 396.076497342 L161.762288345 396.021699819 L161.762288345 395.966902296 L161.707490821 395.912104773 L160.008767604 395.912104773 L159.953970081 395.85730725 L159.953970081 395.802509727 L159.899172557 395.747712203 159.351197326 395.747712203 " stroke="black" fill="transparent"/>
<path d="M161.323908159 398.049208176 L161.323908159 411.638993917 L161.378705683 411.638993917 L161.433503206 411.584196394 L161.433503206 411.529398871 L161.488300729 411.474601348 L162.693846238 411.474601348 L162.748643761 411.419803825 L162.748643761 411.365006302 L162.803441284 411.310208779 L163.844594224 411.310208779 L163.899391747 411.255411255 L163.899391747 411.200613732 L163.954189271 411.145816209 L165.15973478 411.145816209 L165.214532303 411.091018686 L165.214532303 411.036221163 L165.269329826 410.98142364 L166.310482766 410.98142364 L166.365280289 410.926626116 L166.365280289 410.871828593 L166.420077812 410.81703107 L167.625623322 410.81703107 L167.680420845 410.762233547 L167.680420845 410.707436024 L167.735218368 410.652638501 L168.776371308 410.652638501 L168.831168831 410.597840978 L168.831168831 410.543043454 L168.885966354 410.488245931 L170.091511864 410.488245931 L170.146309387 410.433448408 L170.146309387 410.378650885 L170.20110691 410.323853362 L171.24225985 410.323853362 L171.297057373 410.269055839 L171.297057373 410.214258316 L171.351854896 410.159460792 L172.393007836 410.159460792 L172.447805359 410.104663269 L172.447805359 410.049865746 L172.502602882 409.995068223 L173.708148392 409.995068223 L173.762945915 409.9402707 L173.762945915 409.885473177 L173.817743438 409.830675653 L174.858896378 409.830675653 L174.913693901 409.77587813 L174.913693901 409.721080607 L174.968491424 409.666283084 L176.174036934 409.666283084 L176.228834457 409.611485561 L176.228834457 409.556688038 L176.28363198 409.501890515 L177.32478492 409.501890515 L177.379582443 409.447092991 L177.379582443 409.392295468 L177.434379966 409.337497945 L178.639925475 409.337497945 L178.694722999 409.282700422 L178.694722999 409.227902899 L178.749520522 409.173105376 L179.790673462 409.173105376 L179.845470985 409.118307852 L179.845470985 409.063510329 L179.900268508 409.008712806 L181.105814017 409.008712806 L181.16061154 408.953915283 L181.16061154 408.89911776 L181.215409064 408.844320237 L182.256562003 408.844320237 L182.311359527 408.789522714 L182.311359527 408.73472519 L182.36615705 408.679927667 L183.571702559 408.679927667 L183.626500082 408.625130144 L183.626500082 408.570332621 L183.681297605 408.515535098 L184.722450545 408.515535098 L184.777248068 408.460737575 L184.777248068 408.405940052 L184.832045592 408.351142528 L185.873198531 408.351142528 L185.927996055 408.296345005 L185.927996055 408.241547482 L185.982793578 408.186749959 L187.188339087 408.186749959 L187.24313661 408.131952436 L187.24313661 408.077154913 L187.297934133 408.022357389 L188.339087073 408.022357389 L188.393884596 407.967559866 L188.393884596 407.912762343 L188.44868212 407.85796482 L189.654227629 407.85796482 L189.709025152 407.803167297 L189.709025152 407.748369774 L189.763822675 407.693572251 L190.804975615 407.693572251 L190.859773138 407.638774727 L190.859773138 407.583977204 L190.914570661 407.529179681 L192.120116171 407.529179681 L192.174913694 407.474382158 L192.174913694 401.063071949 L192.120116171 401.008274426 L191.2433558 401.008274426 L191.188558277 400.953476903 L191.188558277 400.89867938 L191.133760754 400.843881857 L189.435037536 400.843881857 L189.380240013 400.789084333 L189.380240013 400.73428681 L189.32544249 400.679489287 L187.791111842 400.679489287 L187.736314319 400.624691764 L187.736314319 400.569894241 L187.681516795 400.515096718 L185.982793578 400.515096718 L185.927996055 400.460299194 L185.927996055 400.405501671 L185.873198531 400.350704148 L184.338867883 400.350704148 L184.28407036 400.295906625 L184.28407036 400.241109102 L184.229272837 400.186311579 L182.530549619 400.186311579 L182.475752096 400.131514056 L182.475752096 400.076716532 L182.420954573 400.021919009 L180.722231355 400.021919009 L180.667433832 399.967121486 L180.667433832 399.912323963 L180.612636309 399.85752644 L179.078305661 399.85752644 L179.023508137 399.802728917 L179.023508137 399.747931394 L178.968710614 399.69313387 L177.269987397 399.69313387 L177.215189873 399.638336347 L177.215189873 399.583538824 L177.16039235 399.528741301 L175.461669133 399.528741301 L175.406871609 399.473943778 L175.406871609 399.419146255 L175.352074086 399.364348731 L173.817743438 399.364348731 L173.762945915 399.309551208 L173.762945915 399.254753685 L173.708148392 399.199956162 L172.009425174 399.199956162 L171.954627651 399.145158639 L171.954627651 399.090361116 L171.899830128 399.035563593 L170.20110691 399.035563593 L170.146309387 398.980766069 L170.146309387 398.925968546 L170.091511864 398.871171023 L168.557181215 398.871171023 L168.502383692 398.8163735 L168.502383692 398.761575977 L168.447586169 398.706778454 L166.748862951 398.706778454 L166.694065428 398.65198093 L166.694065428 398.597183407 L166.639267905 398.542385884 L165.104937257 398.542385884 L165.050139734 398.487588361 L165.050139734 398.432790838 L164.995342211 398.377993315 L163.296618993 398.377993315 L163.24182147 398.323195792 L163.24182147 398.268398268 L163.187023947 398.213600745 L161.488300729 398.213600745 L161.433503206 398.158803222 L161.433503206 398.104005699 L161.378705683 398.049208176 161.323908159 398.049208176 " stroke="black" fill="transparent"/>
<path d="M163.296618993 400.515096718 L163.296618993 409.008712806 L164.337771933 409.008712806 L164.392569456 408.953915283 L164.392569456 408.89911776 L164.447366979 408.844320237 L165.652912488 408.844320237 L165.707710012 408.789522714 L165.707710012 408.73472519 L165.762507535 408.679927667 L166.803660475 408.679927667 L166.858457998 408.625130144 L166.858457998 408.570332621 L166.913255521 408.515535098 L168.11880103 408.515535098 L168.173598553 408.460737575 L168.173598553 408.405940052 L168.228396076 408.351142528 L169.269549016 408.351142528 L169.32434654 408.296345005 L169.32434654 408.241547482 L169.379144063 408.186749959 L170.420297003 408.186749959 L170.475094526 408.131952436 L170.475094526 408.077154913 L170.529892049 408.022357389 L171.735437558 408.022357389 L171.790235081 407.967559866 L171.790235081 407.912762343 L171.845032605 407.85796482 L172.886185544 407.85796482 L172.940983068 407.803167297 L172.940983068 407.748369774 L172.995780591 407.693572251 L174.2013261 407.693572251 L174.256123623 407.638774727 L174.256123623 407.583977204 L174.310921146 407.529179681 L175.352074086 407.529179681 L175.406871609 407.474382158 L175.406871609 407.419584635 L175.461669133 407.364787112 L176.667214642 407.364787112 L176.722012165 407.309989588 L176.722012165 407.255192065 L176.776809688 407.200394542 L177.817962628 407.200394542 L177.872760151 407.145597019 L177.872760151 407.090799496 L177.927557674 407.036001973 L179.133103184 407.036001973 L179.187900707 406.98120445 L179.187900707 406.926406926 L179.24269823 406.871609403 L180.28385117 406.871609403 L180.338648693 406.81681188 L180.338648693 406.762014357 L180.393446216 406.707216834 L181.598991726 406.707216834 L181.653789249 406.652419311 L181.653789249 406.597621787 L181.708586772 406.542824264 L182.749739712 406.542824264 L182.804537235 406.488026741 L182.804537235 406.433229218 L182.859334758 406.378431695 L183.900487698 406.378431695 L183.955285221 406.323634172 L183.955285221 406.268836649 L184.010082744 406.214039125 L185.215628254 406.214039125 L185.270425777 406.159241602 L185.270425777 406.104444079 L185.3252233 406.049646556 L186.36637624 406.049646556 L186.421173763 405.994849033 L186.421173763 405.94005151 L186.475971286 405.885253987 L187.681516795 405.885253987 L187.736314319 405.830456463 L187.736314319 405.77565894 L187.791111842 405.720861417 L188.832264782 405.720861417 L188.887062305 405.666063894 L188.887062305 405.611266371 L188.941859828 405.556468848 L190.147405337 405.556468848 L190.20220286 405.501671324 L190.20220286 403.035782783 L190.147405337 402.980985259 L189.270644967 402.980985259 L189.215847444 402.926187736 L189.215847444 402.871390213 L189.161049921 402.81659269 L187.462326703 402.81659269 L187.40752918 402.761795167 L187.40752918 402.706997644 L187.352731657 402.652200121 L185.818401008 402.652200121 L185.763603485 402.597402597 L185.763603485 402.542605074 L185.708805962 402.487807551 L184.010082744 402.487807551 L183.955285221 402.433010028 L183.955285221 402.378212505 L183.900487698 402.323414982 L182.36615705 402.323414982 L182.311359527 402.268617458 L182.311359527 402.213819935 L182.256562003 402.159022412 L180.557838786 402.159022412 L180.503041263 402.104224889 L180.503041263 402.049427366 L180.448243739 401.994629843 L178.749520522 401.994629843 L178.694722999 401.93983232 L178.694722999 401.885034796 L178.639925475 401.830237273 L177.105594827 401.830237273 L177.050797304 401.77543975 L177.050797304 401.720642227 L176.995999781 401.665844704 L175.297276563 401.665844704 L175.24247904 401.611047181 L175.24247904 401.556249658 L175.187681517 401.501452134 L173.488958299 401.501452134 L173.434160776 401.446654611 L173.434160776 401.391857088 L173.379363253 401.337059565 L171.845032605 401.337059565 L171.790235081 401.282262042 L171.790235081 401.227464519 L171.735437558 401.172666995 L170.036714341 401.172666995 L169.981916817 401.117869472 L169.981916817 401.063071949 L169.927119294 401.008274426 L168.228396076 401.008274426 L168.173598553 400.953476903 L168.173598553 400.89867938 L168.11880103 400.843881857 L166.584470382 400.843881857 L166.529672859 400.789084333 L166.529672859 400.73428681 L166.474875336 400.679489287 L164.776152118 400.679489287 L164.721354595 400.624691764 L164.721354595 400.569894241 L164.666557072 400.515096718 163.296618993 400.515096718 " stroke="black" fill="transparent"/>
<path d="M165.269329826 402.81659269 L165.269329826 406.542824264 L166.146090197 406.542824264 L166.20088772 406.488026741 L166.20088772 406.433229218 L166.255685243 406.378431695 L167.296838183 406.378431695 L167.351635706 406.323634172 L167.351635706 406.268836649 L167.406433229 406.214039125 L168.447586169 406.214039125 L168.502383692 406.159241602 L168.502383692 406.104444079 L168.557181215 406.049646556 L169.762726725 406.049646556 L169.817524248 405.994849033 L169.817524248 405.94005151 L169.872321771 405.885253987 L170.913474711 405.885253987 L170.968272234 405.830456463 L170.968272234 405.77565894 L171.023069757 405.720861417 L172.228615267 405.720861417 L172.28341279 405.666063894 L172.28341279 405.611266371 L172.338210313 405.556468848 L173.379363253 405.556468848 L173.434160776 405.501671324 L173.434160776 405.446873801 L173.488958299 405.392076278 L174.694503808 405.392076278 L174.749301332 405.337278755 L174.749301332 405.282481232 L174.804098855 405.227683709 L175.845251795 405.227683709 L175.900049318 405.172886186 L175.900049318 405.118088662 L175.954846841 405.063291139 L177.16039235 405.063291139 L177.215189873 405.008493616 L177.215189873 404.953696093 L177.269987397 404.89889857 L178.311140336 404.89889857 L178.36593786 404.844101047 L178.36593786 404.789303523 L178.420735383 404.734506 L179.626280892 404.734506 L179.681078415 404.679708477 L179.681078415 404.624910954 L179.735875938 404.570113431 L180.777028878 404.570113431 L180.831826401 404.515315908 L180.831826401 404.460518385 L180.886623925 404.405720861 L181.927776864 404.405720861 L181.982574388 404.350923338 L181.927776864 404.296125815 L180.393446216 404.296125815 L180.338648693 404.241328292 L180.338648693 404.186530769 L180.28385117 404.131733246 L178.585127952 404.131733246 L178.530330429 404.076935723 L178.530330429 404.022138199 L178.475532906 403.967340676 L176.776809688 403.967340676 L176.722012165 403.912543153 L176.722012165 403.85774563 L176.667214642 403.802948107 L175.132883994 403.802948107 L175.07808647 403.748150584 L175.07808647 403.69335306 L175.023288947 403.638555537 L173.32456573 403.638555537 L173.269768206 403.583758014 L173.269768206 403.528960491 L173.214970683 403.474162968 L171.516247466 403.474162968 L171.461449942 403.419365445 L171.461449942 403.364567922 L171.406652419 403.309770398 L169.872321771 403.309770398 L169.817524248 403.254972875 L169.817524248 403.200175352 L169.762726725 403.145377829 L168.064003507 403.145377829 L168.009205984 403.090580306 L168.009205984 403.035782783 L167.954408461 402.980985259 L166.255685243 402.980985259 L166.20088772 402.926187736 L166.20088772 402.871390213 L166.146090197 402.81659269 165.269329826 402.81659269 " stroke="black" fill="transparent"/>
</svg>