<svg width="949.9999999999999mm" height="484.99482580200066mm" xmlns="http://www.w3.org/2000/svg" fill="transparent" ><path d="M949.945383466 475.436932275 L940.442106473 484.940209268 L940.442106473 484.994825802 L950.0 484.994825802 L950.0 475.436932275 949.945383466 475.436932275 " stroke="black" fill="transparent"/>
<path d="M0.0546165344372 475.273082672 L0.0546165344372 484.994825802 L9.77635966425 484.994825802 L9.77635966425 484.940209268 L0.109233068874 475.273082672 0.0546165344372 475.273082672 " stroke="black" fill="transparent"/>
<path d="M851.963320685 209.509026101 L648.789812579 412.682534207 L648.789812579 412.846383811 L676.152696332 440.209267564 L676.480395539 440.209267564 L879.490054042 237.199609061 L879.490054042 236.871909854 L852.127170289 209.509026101 851.963320685 209.509026101 " stroke="black" fill="transparent"/>
<path d="M445.616304473 209.509026101 L242.442796367 412.682534207 L242.442796367 412.846383811 L269.80568012 440.209267564 L269.969529723 440.209267564 L473.143037829 237.035759457 445.616304473 209.509026101 " stroke="black" fill="transparent"/>
<path d="M819.02955042 176.575255835 L615.856042313 379.748763942 L615.856042313 379.912613545 L643.218926066 407.275497298 L643.38277567 407.275497298 L846.556283776 204.101989192 L846.556283776 203.938139588 L819.193400023 176.575255835 819.02955042 176.575255835 " stroke="black" fill="transparent"/>
<path d="M412.682534207 176.575255835 L209.509026101 379.748763942 L209.509026101 379.912613545 L236.871909854 407.275497298 L237.035759457 407.275497298 L440.209267564 204.101989192 412.682534207 176.575255835 " stroke="black" fill="transparent"/>
<path d="M786.095780154 143.64148557 L582.922272048 346.814993676 L582.922272048 346.978843279 L610.285155801 374.341727032 L610.449005404 374.341727032 L813.62251351 171.168218926 L813.62251351 171.004369323 L786.259629757 143.64148557 786.095780154 143.64148557 " stroke="black" fill="transparent"/>
<path d="M379.748763942 143.64148557 L176.575255835 346.814993676 L176.575255835 346.978843279 L203.938139588 374.341727032 L204.101989192 374.341727032 L407.275497298 171.168218926 379.748763942 143.64148557 " stroke="black" fill="transparent"/>
<path d="M753.162009888 110.707715304 L549.988501782 313.88122341 L549.988501782 314.045073014 L577.351385535 341.407956767 L577.515235139 341.407956767 L780.688743245 138.23444866 L780.688743245 138.070599057 L753.325859492 110.707715304 753.162009888 110.707715304 " stroke="black" fill="transparent"/>
<path d="M346.651144073 110.707715304 L143.64148557 313.717373807 L143.64148557 314.045073014 L171.004369323 341.407956767 L171.168218926 341.407956767 L374.341727032 138.23444866 L346.814993676 110.707715304 346.651144073 110.707715304 " stroke="black" fill="transparent"/>
<path d="M720.228239623 77.7739450385 L517.054731517 280.947453145 L517.054731517 281.111302748 L544.41761527 308.474186501 L544.581464873 308.474186501 L747.754972979 105.300678395 L747.754972979 105.136828792 L720.392089226 77.7739450385 720.228239623 77.7739450385 " stroke="black" fill="transparent"/>
<path d="M313.717373807 77.7739450385 L110.707715304 280.783603541 L110.707715304 281.111302748 L138.070599057 308.474186501 L341.244107163 105.300678395 L341.244107163 105.136828792 L313.88122341 77.7739450385 313.717373807 77.7739450385 " stroke="black" fill="transparent"/>
<path d="M687.130619754 44.8401747729 L484.120961251 247.849833276 L484.120961251 248.177532482 L511.483845004 275.540416235 L511.647694607 275.540416235 L714.821202714 72.3669081292 L714.821202714 72.2030585259 L687.458318961 44.8401747729 687.130619754 44.8401747729 " stroke="black" fill="transparent"/>
<path d="M280.783603541 44.8401747729 L77.7739450385 247.849833276 L77.7739450385 248.177532482 L105.136828792 275.540416235 L308.310336898 72.3669081292 L308.310336898 72.2030585259 L280.947453145 44.8401747729 280.783603541 44.8401747729 " stroke="black" fill="transparent"/>
<path d="M940.442106473 0.0546165344372 L940.442106473 0.109233068874 L949.945383466 9.61251006094 L950.0 9.61251006094 L950.0 0.0546165344372 940.442106473 0.0546165344372 " stroke="black" fill="transparent"/>
<path d="M0.0546165344372 0.0546165344372 L0.0546165344372 9.77635966425 L0.109233068874 9.77635966425 L9.77635966425 0.109233068874 L9.77635966425 0.0546165344372 0.0546165344372 0.0546165344372 " stroke="black" fill="transparent"/>
</svg>