<svg width="1000.0mm" height="652.8953606501863mm" xmlns="http://www.w3.org/2000/svg" fill="transparent" ><path d="M545.998419686 198.893780336 L545.998419686 652.89536065 L969.12744102 652.89536065 L969.12744102 198.893780336 545.998419686 198.893780336 " stroke="black" fill="transparent"/>
<path d="M28.7278473868 198.893780336 L28.7278473868 652.89536065 L451.856868721 652.89536065 L451.856868721 198.893780336 28.7278473868 198.893780336 " stroke="black" fill="transparent"/>
<path d="M17.0448131843 107.630658088 L17.0448131843 136.58426459 L981.318433232 136.58426459 L981.318433232 107.630658088 17.0448131843 107.630658088 " stroke="black" fill="transparent"/>
<path d="M17.0448131843 29.2358053956 L17.0448131843 58.0200925612 L981.318433232 58.0200925612 L981.318433232 29.2358053956 17.0448131843 29.2358053956 " stroke="black" fill="transparent"/>
<path d="M993.848064116 0.0564397787561 L993.848064116 0.28219889378 L1000.0 0.28219889378 L1000.0 0.0564397787561 993.848064116 0.0564397787561 " stroke="black" fill="transparent"/>
<path d="M0.0564397787561 0.0564397787561 L0.0564397787561 0.28219889378 L6.20837566317 0.28219889378 L6.20837566317 0.0564397787561 0.0564397787561 0.0564397787561 " stroke="black" fill="transparent"/>
</svg>