<svg width="1000.0mm" height="683.5421605147308mm" xmlns="http://www.w3.org/2000/svg" fill="transparent" ><path d="M523.309628626 176.204989276 L523.309628626 683.542160515 L991.81623208 683.542160515 L991.81623208 176.204989276 523.309628626 176.204989276 " stroke="black" fill="transparent"/>
<path d="M6.0390563269 176.204989276 L6.0390563269 683.542160515 L474.545659781 683.542160515 L474.545659781 176.204989276 6.0390563269 176.204989276 " stroke="black" fill="transparent"/>
<path d="M5.70041765436 96.2862625579 L5.70041765436 147.92866012 L992.662828762 147.92866012 L992.662828762 96.2862625579 5.70041765436 96.2862625579 " stroke="black" fill="transparent"/>
<path d="M5.70041765436 17.8914098657 L5.70041765436 69.3644880912 L992.662828762 69.3644880912 L992.662828762 17.8914098657 5.70041765436 17.8914098657 " stroke="black" fill="transparent"/>
<path d="M993.848064116 0.0564397787561 L993.848064116 0.28219889378 L1000.0 0.28219889378 L1000.0 0.0564397787561 993.848064116 0.0564397787561 " stroke="black" fill="transparent"/>
<path d="M0.0564397787561 0.0564397787561 L0.0564397787561 0.28219889378 L6.20837566317 0.28219889378 L6.20837566317 0.0564397787561 0.0564397787561 0.0564397787561 " stroke="black" fill="transparent"/>
</svg>