<svg width="949.9999999999999mm" height="484.99482580200066mm" xmlns="http://www.w3.org/2000/svg" fill="transparent" ><path d="M949.945383466 475.436932275 L940.442106473 484.940209268 L940.442106473 484.994825802 L950.0 484.994825802 L950.0 475.436932275 949.945383466 475.436932275 " stroke="black" fill="transparent"/>
<path d="M0.0546165344372 475.273082672 L0.0546165344372 484.994825802 L9.77635966425 484.994825802 L9.77635966425 484.940209268 L0.109233068874 475.273082672 0.0546165344372 475.273082672 " stroke="black" fill="transparent"/>
<path d="M511.483845004 209.509026101 L484.120961251 236.871909854 L484.120961251 237.199609061 L687.130619754 440.209267564 L687.458318961 440.209267564 L714.821202714 412.846383811 L714.821202714 412.682534207 L511.647694607 209.509026101 511.483845004 209.509026101 " stroke="black" fill="transparent"/>
<path d="M105.136828792 209.509026101 L77.7739450385 236.871909854 L77.7739450385 237.199609061 L280.783603541 440.209267564 L280.947453145 440.209267564 L308.310336898 412.846383811 L308.310336898 412.682534207 105.136828792 209.509026101 " stroke="black" fill="transparent"/>
<path d="M544.41761527 176.575255835 L517.054731517 203.938139588 L517.054731517 204.101989192 L720.228239623 407.275497298 L720.392089226 407.275497298 L747.754972979 379.912613545 L747.754972979 379.748763942 L544.581464873 176.575255835 544.41761527 176.575255835 " stroke="black" fill="transparent"/>
<path d="M138.070599057 176.575255835 L110.707715304 203.938139588 L110.707715304 204.265838795 L313.717373807 407.275497298 L313.88122341 407.275497298 L341.244107163 379.912613545 L341.244107163 379.584914338 L138.23444866 176.575255835 138.070599057 176.575255835 " stroke="black" fill="transparent"/>
<path d="M577.351385535 143.64148557 L549.988501782 171.004369323 L549.988501782 171.168218926 L753.162009888 374.341727032 L753.325859492 374.341727032 L780.688743245 346.978843279 L780.688743245 346.814993676 L577.515235139 143.64148557 577.351385535 143.64148557 " stroke="black" fill="transparent"/>
<path d="M171.004369323 143.64148557 L143.64148557 171.004369323 L143.64148557 171.168218926 L346.814993676 374.341727032 L374.341727032 346.814993676 L171.168218926 143.64148557 171.004369323 143.64148557 " stroke="black" fill="transparent"/>
<path d="M610.285155801 110.707715304 L582.922272048 138.070599057 L582.922272048 138.23444866 L786.095780154 341.407956767 L786.259629757 341.407956767 L813.62251351 314.045073014 L813.62251351 313.88122341 L610.449005404 110.707715304 610.285155801 110.707715304 " stroke="black" fill="transparent"/>
<path d="M203.938139588 110.707715304 L176.575255835 138.070599057 L176.575255835 138.23444866 L379.748763942 341.407956767 L407.275497298 313.88122341 L204.101989192 110.707715304 203.938139588 110.707715304 " stroke="black" fill="transparent"/>
<path d="M643.218926066 77.7739450385 L615.856042313 105.136828792 L615.856042313 105.300678395 L819.02955042 308.474186501 L819.193400023 308.474186501 L846.556283776 281.111302748 L846.556283776 280.947453145 L643.38277567 77.7739450385 643.218926066 77.7739450385 " stroke="black" fill="transparent"/>
<path d="M236.871909854 77.7739450385 L209.509026101 105.136828792 L209.509026101 105.300678395 L412.682534207 308.474186501 L440.209267564 280.947453145 L237.035759457 77.7739450385 236.871909854 77.7739450385 " stroke="black" fill="transparent"/>
<path d="M676.152696332 44.8401747729 L648.789812579 72.2030585259 L648.789812579 72.3669081292 L851.963320685 275.540416235 L852.127170289 275.540416235 L879.490054042 248.177532482 L879.490054042 247.849833276 L676.480395539 44.8401747729 676.152696332 44.8401747729 " stroke="black" fill="transparent"/>
<path d="M269.80568012 44.8401747729 L242.442796367 72.2030585259 L242.442796367 72.3669081292 L445.616304473 275.540416235 L473.143037829 248.013682879 L269.969529723 44.8401747729 269.80568012 44.8401747729 " stroke="black" fill="transparent"/>
<path d="M940.442106473 0.0546165344372 L940.442106473 0.109233068874 L949.945383466 9.61251006094 L950.0 9.61251006094 L950.0 0.0546165344372 940.442106473 0.0546165344372 " stroke="black" fill="transparent"/>
<path d="M0.0546165344372 0.0546165344372 L0.0546165344372 9.77635966425 L0.109233068874 9.77635966425 L9.77635966425 0.109233068874 L9.77635966425 0.0546165344372 0.0546165344372 0.0546165344372 " stroke="black" fill="transparent"/>
</svg>