<svg width="300.0mm" height="284.070796460177mm" xmlns="http://www.w3.org/2000/svg" fill="transparent" ><path d="M294.296951819 278.072763029 L294.001966568 278.367748279 L294.001966568 284.07079646 L294.59193707 284.07079646 L294.59193707 278.66273353 L294.886922321 278.367748279 L300.0 278.367748279 L300.0 278.072763029 294.296951819 278.072763029 " stroke="black" fill="transparent"/>
<path d="M0.0983284169125 278.072763029 L0.0983284169125 278.66273353 L5.21140609636 278.66273353 L5.5063913471 278.957718781 L5.5063913471 284.07079646 L6.09636184857 284.07079646 L6.09636184857 278.367748279 L5.80137659784 278.072763029 0.0983284169125 278.072763029 " stroke="black" fill="transparent"/>
<path d="M244.149459194 107.276302852 L107.571288102 243.854473943 L107.571288102 244.149459194 L129.695181908 266.273352999 L266.56833825 129.400196657 L244.444444444 107.276302852 244.149459194 107.276302852 " stroke="black" fill="transparent"/>
<path d="M199.606686332 63.0285152409 L63.3235004916 199.311701082 L63.3235004916 199.901671583 L85.447394297 222.025565388 L222.025565388 85.447394297 L222.025565388 84.8574237955 L200.196656834 63.0285152409 199.606686332 63.0285152409 " stroke="black" fill="transparent"/>
<path d="M155.358898722 18.7807276303 L18.7807276303 155.358898722 L40.9046214356 177.482792527 L41.1996066863 177.482792527 L177.777777778 40.9046214356 L177.777777778 40.6096361849 L155.948869223 18.7807276303 155.358898722 18.7807276303 " stroke="black" fill="transparent"/>
<path d="M294.001966568 0.0983284169125 L294.001966568 5.80137659784 L294.296951819 6.09636184857 L300.0 6.09636184857 L300.0 5.5063913471 L294.886922321 5.5063913471 L294.59193707 5.21140609636 L294.59193707 0.0983284169125 294.001966568 0.0983284169125 " stroke="black" fill="transparent"/>
<path d="M5.5063913471 0.0983284169125 L5.5063913471 5.21140609636 L5.21140609636 5.5063913471 L0.0983284169125 5.5063913471 L0.0983284169125 6.09636184857 L5.80137659784 6.09636184857 L6.09636184857 5.80137659784 L6.09636184857 0.0983284169125 5.5063913471 0.0983284169125 " stroke="black" fill="transparent"/>
</svg>