<svg width="300.0mm" height="284.070796460177mm" xmlns="http://www.w3.org/2000/svg" fill="transparent" ><path d="M294.296951819 278.072763029 L294.001966568 278.367748279 L294.001966568 284.07079646 L294.59193707 284.07079646 L294.59193707 278.66273353 L294.886922321 278.367748279 L300.0 278.367748279 L300.0 278.072763029 294.296951819 278.072763029 " stroke="black" fill="transparent"/>
<path d="M0.0983284169125 278.072763029 L0.0983284169125 278.66273353 L5.21140609636 278.66273353 L5.5063913471 278.957718781 L5.5063913471 284.07079646 L6.09636184857 284.07079646 L6.09636184857 278.367748279 L5.80137659784 278.072763029 0.0983284169125 278.072763029 " stroke="black" fill="transparent"/>
<path d="M59.4886922321 107.276302852 L37.3647984267 129.400196657 L37.3647984267 129.695181908 L173.942969518 266.273352999 L174.237954769 266.273352999 L196.361848574 244.149459194 59.4886922321 107.276302852 " stroke="black" fill="transparent"/>
<path d="M103.736479843 63.0285152409 L81.6125860374 85.1524090462 L218.48574238 222.025565388 L240.609636185 199.901671583 L240.609636185 199.606686332 L104.031465093 63.0285152409 103.736479843 63.0285152409 " stroke="black" fill="transparent"/>
<path d="M147.984267453 18.7807276303 L126.155358899 40.6096361849 L126.155358899 41.1996066863 L262.438544739 177.482792527 L263.028515241 177.482792527 L284.857423795 155.653883972 L284.857423795 155.063913471 L148.574237955 18.7807276303 147.984267453 18.7807276303 " stroke="black" fill="transparent"/>
<path d="M294.001966568 0.0983284169125 L294.001966568 5.80137659784 L294.296951819 6.09636184857 L300.0 6.09636184857 L300.0 5.5063913471 L294.886922321 5.5063913471 L294.59193707 5.21140609636 L294.59193707 0.0983284169125 294.001966568 0.0983284169125 " stroke="black" fill="transparent"/>
<path d="M5.5063913471 0.0983284169125 L5.5063913471 5.21140609636 L5.21140609636 5.5063913471 L0.0983284169125 5.5063913471 L0.0983284169125 6.09636184857 L5.80137659784 6.09636184857 L6.09636184857 5.80137659784 L6.09636184857 0.0983284169125 5.5063913471 0.0983284169125 " stroke="black" fill="transparent"/>
</svg>