<svg width="140.0mm" height="252.07865168539328mm" xmlns="http://www.w3.org/2000/svg" fill="transparent" ><path d="M62.3970037453 0.131086142322 L62.3970037453 0.262172284644 L62.0037453184 0.65543071161 L59.6441947566 0.65543071161 L59.2509363296 1.04868913858 L57.2846441948 1.04868913858 L56.8913857678 1.44194756554 L55.3183520599 1.44194756554 L54.925093633 1.83520599251 L53.3520599251 1.83520599251 L52.9588014981 2.22846441948 L51.7790262172 2.22846441948 L51.3857677903 2.62172284644 L50.5992509363 2.62172284644 L50.2059925094 3.01498127341 L49.0262172285 3.01498127341 L48.6329588015 3.40823970037 L47.8464419476 3.40823970037 L47.4531835206 3.80149812734 L46.6666666667 3.80149812734 L46.2734082397 4.19475655431 L45.8801498127 4.19475655431 L45.4868913858 4.58801498127 L44.7003745318 4.58801498127 L44.3071161049 4.98127340824 L43.5205992509 4.98127340824 L43.127340824 5.37453183521 L42.734082397 5.37453183521 L42.34082397 5.76779026217 L41.9475655431 5.76779026217 L41.5543071161 6.16104868914 L41.1610486891 6.16104868914 L40.7677902622 6.5543071161 L39.9812734082 6.5543071161 L39.5880149813 6.94756554307 L39.1947565543 6.94756554307 L38.8014981273 7.34082397004 L38.4082397004 7.34082397004 L38.0149812734 7.734082397 L37.6217228464 7.734082397 L37.2284644195 8.12734082397 L36.8352059925 8.12734082397 L36.0486891386 8.9138576779 L35.6554307116 8.9138576779 L35.2621722846 9.30711610487 L34.8689138577 9.30711610487 L34.4756554307 9.70037453184 L34.0823970037 9.70037453184 L33.2958801498 10.4868913858 L32.9026217228 10.4868913858 L32.1161048689 11.2734082397 L31.7228464419 11.2734082397 L31.329588015 11.6666666667 L30.936329588 11.6666666667 L29.7565543071 12.8464419476 L29.3632958801 12.8464419476 L28.5767790262 13.6329588015 L28.1835205993 13.6329588015 L27.0037453184 14.8127340824 L26.6104868914 14.8127340824 L24.6441947566 16.7790262172 L24.2509363296 16.7790262172 L16.7790262172 24.2509363296 L16.7790262172 24.6441947566 L14.8127340824 26.6104868914 L14.8127340824 27.0037453184 L13.6329588015 28.1835205993 L13.6329588015 28.5767790262 L12.8464419476 29.3632958801 L12.8464419476 29.7565543071 L11.6666666667 30.936329588 L11.6666666667 31.329588015 L11.2734082397 31.7228464419 L11.2734082397 32.1161048689 L10.4868913858 32.9026217228 L10.4868913858 33.2958801498 L9.70037453184 34.0823970037 L9.70037453184 34.4756554307 L9.30711610487 34.8689138577 L9.30711610487 35.2621722846 L8.9138576779 35.6554307116 L8.9138576779 36.0486891386 L8.12734082397 36.8352059925 L8.12734082397 37.2284644195 L7.734082397 37.6217228464 L7.734082397 38.0149812734 L7.34082397004 38.4082397004 L7.34082397004 38.8014981273 L6.94756554307 39.1947565543 L6.94756554307 39.5880149813 L6.5543071161 39.9812734082 L6.5543071161 40.7677902622 L6.16104868914 41.1610486891 L6.16104868914 41.5543071161 L5.76779026217 41.9475655431 L5.76779026217 42.34082397 L5.37453183521 42.734082397 L5.37453183521 43.127340824 L4.98127340824 43.5205992509 L4.98127340824 44.3071161049 L4.58801498127 44.7003745318 L4.58801498127 45.4868913858 L4.19475655431 45.8801498127 L4.19475655431 46.2734082397 L3.80149812734 46.6666666667 L3.80149812734 47.4531835206 L3.40823970037 47.8464419476 L3.40823970037 48.6329588015 L3.01498127341 49.0262172285 L3.01498127341 50.2059925094 L2.62172284644 50.5992509363 L2.62172284644 51.3857677903 L2.22846441948 51.7790262172 L2.22846441948 52.9588014981 L1.83520599251 53.3520599251 L1.83520599251 54.925093633 L1.44194756554 55.3183520599 L1.44194756554 56.8913857678 L1.04868913858 57.2846441948 L1.04868913858 59.2509363296 L0.65543071161 59.6441947566 L0.65543071161 62.0037453184 L0.262172284644 62.3970037453 L0.131086142322 62.3970037453 L0.131086142322 77.34082397 L0.262172284644 77.34082397 L0.65543071161 77.734082397 L0.65543071161 80.4868913858 L1.04868913858 80.8801498127 L1.04868913858 82.8464419476 L1.44194756554 83.2397003745 L1.44194756554 84.8127340824 L1.83520599251 85.2059925094 L1.83520599251 86.3857677903 L2.22846441948 86.7790262172 L2.22846441948 87.9588014981 L2.62172284644 88.3520599251 L2.62172284644 89.531835206 L3.01498127341 89.925093633 L3.01498127341 90.7116104869 L3.40823970037 91.1048689139 L3.40823970037 91.8913857678 L3.80149812734 92.2846441948 L3.80149812734 93.0711610487 L4.19475655431 93.4644194757 L4.19475655431 94.2509363296 L4.58801498127 94.6441947566 L4.58801498127 95.4307116105 L4.98127340824 95.8239700375 L4.98127340824 96.2172284644 L5.37453183521 96.6104868914 L5.37453183521 97.3970037453 L5.76779026217 97.7902621723 L5.76779026217 98.1835205993 L6.16104868914 98.5767790262 L6.16104868914 98.9700374532 L6.5543071161 99.3632958801 L6.5543071161 99.7565543071 L6.94756554307 100.149812734 L6.94756554307 100.543071161 L7.34082397004 100.936329588 L7.34082397004 101.329588015 L7.734082397 101.722846442 L7.734082397 102.116104869 L8.12734082397 102.509363296 L8.12734082397 102.902621723 L8.52059925094 103.29588015 L8.52059925094 103.689138577 L8.9138576779 104.082397004 L8.9138576779 104.475655431 L9.30711610487 104.868913858 L9.30711610487 105.262172285 L10.0936329588 106.048689139 L10.0936329588 106.441947566 L10.4868913858 106.835205993 L10.4868913858 107.228464419 L11.2734082397 108.014981273 L11.2734082397 108.4082397 L12.0599250936 109.194756554 L12.0599250936 109.588014981 L12.8464419476 110.374531835 L12.8464419476 110.767790262 L14.0262172285 111.947565543 L14.0262172285 112.34082397 L15.5992509363 113.913857678 L15.5992509363 114.307116105 L17.5655430712 116.27340824 L17.5655430712 116.666666667 L23.4644194757 122.565543071 L23.8576779026 122.565543071 L25.8239700375 124.531835206 L26.2172284644 124.531835206 L27.7902621723 126.104868914 L27.0037453184 126.891385768 L26.6104868914 126.891385768 L25.0374531835 128.464419476 L24.6441947566 128.464419476 L16.3857677903 136.722846442 L16.3857677903 137.116104869 L14.8127340824 138.689138577 L14.8127340824 139.082397004 L13.6329588015 140.262172285 L13.6329588015 140.655430712 L12.4531835206 141.835205993 L12.4531835206 142.228464419 L11.6666666667 143.014981273 L11.6666666667 143.4082397 L10.8801498127 144.194756554 L10.8801498127 144.588014981 L10.4868913858 144.981273408 L10.4868913858 145.374531835 L9.70037453184 146.161048689 L9.70037453184 146.554307116 L9.30711610487 146.947565543 L9.30711610487 147.34082397 L8.52059925094 148.127340824 L8.52059925094 148.520599251 L8.12734082397 148.913857678 L8.12734082397 149.307116105 L7.734082397 149.700374532 L7.734082397 150.093632959 L7.34082397004 150.486891386 L7.34082397004 150.880149813 L6.94756554307 151.27340824 L6.94756554307 151.666666667 L6.5543071161 152.059925094 L6.5543071161 152.453183521 L6.16104868914 152.846441948 L6.16104868914 153.632958801 L5.76779026217 154.026217228 L5.76779026217 154.419475655 L5.37453183521 154.812734082 L5.37453183521 155.205992509 L4.98127340824 155.599250936 L4.98127340824 156.38576779 L4.58801498127 156.779026217 L4.58801498127 157.565543071 L4.19475655431 157.958801498 L4.19475655431 158.352059925 L3.80149812734 158.745318352 L3.80149812734 159.531835206 L3.40823970037 159.925093633 L3.40823970037 160.711610487 L3.01498127341 161.104868914 L3.01498127341 162.284644195 L2.62172284644 162.677902622 L2.62172284644 163.464419476 L2.22846441948 163.857677903 L2.22846441948 165.037453184 L1.83520599251 165.43071161 L1.83520599251 167.003745318 L1.44194756554 167.397003745 L1.44194756554 168.970037453 L1.04868913858 169.36329588 L1.04868913858 170.936329588 L0.65543071161 171.329588015 L0.65543071161 174.082397004 L0.262172284644 174.475655431 L0.131086142322 174.475655431 L0.131086142322 189.419475655 L0.262172284644 189.419475655 L0.65543071161 189.812734082 L0.65543071161 192.565543071 L1.04868913858 192.958801498 L1.04868913858 194.925093633 L1.44194756554 195.31835206 L1.44194756554 196.891385768 L1.83520599251 197.284644195 L1.83520599251 198.464419476 L2.22846441948 198.857677903 L2.22846441948 200.037453184 L2.62172284644 200.43071161 L2.62172284644 201.610486891 L3.01498127341 202.003745318 L3.01498127341 202.790262172 L3.40823970037 203.183520599 L3.40823970037 203.970037453 L3.80149812734 204.36329588 L3.80149812734 205.149812734 L4.19475655431 205.543071161 L4.19475655431 206.329588015 L4.58801498127 206.722846442 L4.58801498127 207.509363296 L4.98127340824 207.902621723 L4.98127340824 208.29588015 L5.37453183521 208.689138577 L5.37453183521 209.475655431 L5.76779026217 209.868913858 L5.76779026217 210.262172285 L6.16104868914 210.655430712 L6.16104868914 211.048689139 L6.5543071161 211.441947566 L6.5543071161 211.835205993 L6.94756554307 212.228464419 L6.94756554307 212.621722846 L7.34082397004 213.014981273 L7.34082397004 213.4082397 L7.734082397 213.801498127 L7.734082397 214.194756554 L8.12734082397 214.588014981 L8.12734082397 214.981273408 L8.52059925094 215.374531835 L8.52059925094 215.767790262 L8.9138576779 216.161048689 L8.9138576779 216.554307116 L9.30711610487 216.947565543 L9.30711610487 217.34082397 L10.0936329588 218.127340824 L10.0936329588 218.520599251 L10.8801498127 219.307116105 L10.8801498127 219.700374532 L11.2734082397 220.093632959 L11.2734082397 220.486891386 L12.0599250936 221.27340824 L12.0599250936 221.666666667 L13.2397003745 222.846441948 L13.2397003745 223.239700375 L14.0262172285 224.026217228 L14.0262172285 224.419475655 L15.5992509363 225.992509363 L15.5992509363 226.38576779 L17.9588014981 228.745318352 L17.9588014981 229.138576779 L23.0711610487 234.25093633 L23.4644194757 234.25093633 L25.8239700375 236.610486891 L26.2172284644 236.610486891 L27.3970037453 237.790262172 L27.7902621723 237.790262172 L28.9700374532 238.970037453 L29.3632958801 238.970037453 L30.1498127341 239.756554307 L30.543071161 239.756554307 L31.329588015 240.543071161 L31.7228464419 240.543071161 L32.5093632959 241.329588015 L32.9026217228 241.329588015 L33.6891385768 242.116104869 L34.0823970037 242.116104869 L34.4756554307 242.509363296 L34.8689138577 242.509363296 L35.2621722846 242.902621723 L35.6554307116 242.902621723 L36.4419475655 243.689138577 L36.8352059925 243.689138577 L37.2284644195 244.082397004 L37.6217228464 244.082397004 L38.0149812734 244.475655431 L38.4082397004 244.475655431 L38.8014981273 244.868913858 L39.1947565543 244.868913858 L39.5880149813 245.262172285 L39.9812734082 245.262172285 L40.3745318352 245.655430712 L40.7677902622 245.655430712 L41.1610486891 246.048689139 L41.9475655431 246.048689139 L42.34082397 246.441947566 L42.734082397 246.441947566 L43.127340824 246.835205993 L43.5205992509 246.835205993 L43.9138576779 247.228464419 L44.7003745318 247.228464419 L45.0936329588 247.621722846 L45.8801498127 247.621722846 L46.2734082397 248.014981273 L47.0599250936 248.014981273 L47.4531835206 248.4082397 L48.2397003745 248.4082397 L48.6329588015 248.801498127 L49.4194756554 248.801498127 L49.8127340824 249.194756554 L50.5992509363 249.194756554 L50.9925093633 249.588014981 L52.1722846442 249.588014981 L52.5655430712 249.981273408 L53.7453183521 249.981273408 L54.138576779 250.374531835 L55.7116104869 250.374531835 L56.1048689139 250.767790262 L57.6779026217 250.767790262 L58.0711610487 251.161048689 L60.0374531835 251.161048689 L60.4307116105 251.554307116 L63.9700374532 251.554307116 L64.3632958801 251.947565543 L64.3632958801 252.078651685 L75.7677902622 252.078651685 L75.7677902622 251.947565543 L76.1610486891 251.554307116 L79.3071161049 251.554307116 L79.7003745318 251.161048689 L82.0599250936 251.161048689 L82.4531835206 250.767790262 L84.0262172285 250.767790262 L84.4194756554 250.374531835 L85.9925093633 250.374531835 L86.3857677903 249.981273408 L87.5655430712 249.981273408 L87.9588014981 249.588014981 L88.7453183521 249.588014981 L89.138576779 249.194756554 L90.3183520599 249.194756554 L90.7116104869 248.801498127 L91.4981273408 248.801498127 L91.8913857678 248.4082397 L92.6779026217 248.4082397 L93.0711610487 248.014981273 L93.8576779026 248.014981273 L94.2509363296 247.621722846 L95.0374531835 247.621722846 L95.4307116105 247.228464419 L95.8239700375 247.228464419 L96.2172284644 246.835205993 L97.0037453184 246.835205993 L97.3970037453 246.441947566 L97.7902621723 246.441947566 L98.1835205993 246.048689139 L98.5767790262 246.048689139 L98.9700374532 245.655430712 L99.3632958801 245.655430712 L99.7565543071 245.262172285 L100.543071161 245.262172285 L100.936329588 244.868913858 L101.329588015 244.868913858 L101.722846442 244.475655431 L102.116104869 244.475655431 L102.902621723 243.689138577 L103.29588015 243.689138577 L103.689138577 243.29588015 L104.082397004 243.29588015 L104.475655431 242.902621723 L104.868913858 242.902621723 L105.262172285 242.509363296 L105.655430712 242.509363296 L106.441947566 241.722846442 L106.835205993 241.722846442 L107.228464419 241.329588015 L107.621722846 241.329588015 L108.4082397 240.543071161 L108.801498127 240.543071161 L109.588014981 239.756554307 L109.981273408 239.756554307 L111.161048689 238.576779026 L111.554307116 238.576779026 L112.734082397 237.397003745 L113.127340824 237.397003745 L114.700374532 235.823970037 L115.093632959 235.823970037 L117.846441948 233.071161049 L118.239700375 233.071161049 L120.992509363 230.31835206 L120.992509363 229.925093633 L123.745318352 227.172284644 L123.745318352 226.779026217 L125.31835206 225.205992509 L125.31835206 224.812734082 L126.498127341 223.632958801 L126.498127341 223.239700375 L127.677902622 222.059925094 L127.677902622 221.666666667 L128.464419476 220.880149813 L128.464419476 220.486891386 L129.25093633 219.700374532 L129.25093633 219.307116105 L129.644194757 218.913857678 L129.644194757 218.520599251 L130.43071161 217.734082397 L130.43071161 217.34082397 L130.823970037 216.947565543 L130.823970037 216.554307116 L131.217228464 216.161048689 L131.217228464 215.767790262 L132.003745318 214.981273408 L132.003745318 214.588014981 L132.397003745 214.194756554 L132.397003745 213.801498127 L132.790262172 213.4082397 L132.790262172 213.014981273 L133.183520599 212.621722846 L133.183520599 212.228464419 L133.576779026 211.835205993 L133.576779026 211.048689139 L133.970037453 210.655430712 L133.970037453 210.262172285 L134.36329588 209.868913858 L134.36329588 209.475655431 L134.756554307 209.082397004 L134.756554307 208.29588015 L135.149812734 207.902621723 L135.149812734 207.509363296 L135.543071161 207.116104869 L135.543071161 206.329588015 L135.936329588 205.936329588 L135.936329588 205.149812734 L136.329588015 204.756554307 L136.329588015 203.970037453 L136.722846442 203.576779026 L136.722846442 202.790262172 L137.116104869 202.397003745 L137.116104869 201.610486891 L137.509363296 201.217228464 L137.509363296 200.037453184 L137.902621723 199.644194757 L137.902621723 198.464419476 L138.29588015 198.071161049 L138.29588015 196.498127341 L138.689138577 196.104868914 L138.689138577 194.531835206 L139.082397004 194.138576779 L139.082397004 192.172284644 L139.475655431 191.779026217 L139.475655431 188.632958801 L139.868913858 188.239700375 L140.0 188.239700375 L140.0 175.655430712 L139.868913858 175.655430712 L139.475655431 175.262172285 L139.475655431 172.509363296 L139.082397004 172.116104869 L139.082397004 169.756554307 L138.689138577 169.36329588 L138.689138577 167.790262172 L138.29588015 167.397003745 L138.29588015 165.823970037 L137.902621723 165.43071161 L137.902621723 164.25093633 L137.509363296 163.857677903 L137.509363296 163.071161049 L137.116104869 162.677902622 L137.116104869 161.498127341 L136.722846442 161.104868914 L136.722846442 160.31835206 L136.329588015 159.925093633 L136.329588015 159.138576779 L135.936329588 158.745318352 L135.936329588 157.958801498 L135.543071161 157.565543071 L135.543071161 157.172284644 L135.149812734 156.779026217 L135.149812734 155.992509363 L134.756554307 155.599250936 L134.756554307 155.205992509 L134.36329588 154.812734082 L134.36329588 154.026217228 L133.970037453 153.632958801 L133.970037453 153.239700375 L133.576779026 152.846441948 L133.576779026 152.453183521 L133.183520599 152.059925094 L133.183520599 151.666666667 L132.790262172 151.27340824 L132.790262172 150.880149813 L132.397003745 150.486891386 L132.397003745 150.093632959 L132.003745318 149.700374532 L132.003745318 149.307116105 L131.610486891 148.913857678 L131.610486891 148.520599251 L131.217228464 148.127340824 L131.217228464 147.734082397 L130.823970037 147.34082397 L130.823970037 146.947565543 L130.037453184 146.161048689 L130.037453184 145.767790262 L129.644194757 145.374531835 L129.644194757 144.981273408 L128.857677903 144.194756554 L128.857677903 143.801498127 L128.071161049 143.014981273 L128.071161049 142.621722846 L127.284644195 141.835205993 L127.284644195 141.441947566 L126.104868914 140.262172285 L126.104868914 139.868913858 L124.925093633 138.689138577 L124.925093633 138.29588015 L122.958801498 136.329588015 L122.958801498 135.936329588 L116.27340824 129.25093633 L115.880149813 129.25093633 L113.913857678 127.284644195 L113.520599251 127.284644195 L112.34082397 126.104868914 L114.307116105 124.138576779 L114.700374532 124.138576779 L117.453183521 121.38576779 L117.846441948 121.38576779 L121.38576779 117.846441948 L121.38576779 117.453183521 L124.138576779 114.700374532 L124.138576779 114.307116105 L125.711610487 112.734082397 L125.711610487 112.34082397 L126.891385768 111.161048689 L126.891385768 110.767790262 L127.677902622 109.981273408 L127.677902622 109.588014981 L128.464419476 108.801498127 L128.464419476 108.4082397 L129.25093633 107.621722846 L129.25093633 107.228464419 L129.644194757 106.835205993 L129.644194757 106.441947566 L130.43071161 105.655430712 L130.43071161 105.262172285 L130.823970037 104.868913858 L130.823970037 104.475655431 L131.610486891 103.689138577 L131.610486891 103.29588015 L132.003745318 102.902621723 L132.003745318 102.509363296 L132.397003745 102.116104869 L132.397003745 101.722846442 L132.790262172 101.329588015 L132.790262172 100.936329588 L133.183520599 100.543071161 L133.183520599 100.149812734 L133.576779026 99.7565543071 L133.576779026 99.3632958801 L133.970037453 98.9700374532 L133.970037453 98.1835205993 L134.36329588 97.7902621723 L134.36329588 97.3970037453 L134.756554307 97.0037453184 L134.756554307 96.2172284644 L135.149812734 95.8239700375 L135.149812734 95.4307116105 L135.543071161 95.0374531835 L135.543071161 94.2509363296 L135.936329588 93.8576779026 L135.936329588 93.0711610487 L136.329588015 92.6779026217 L136.329588015 91.8913857678 L136.722846442 91.4981273408 L136.722846442 90.7116104869 L137.116104869 90.3183520599 L137.116104869 89.531835206 L137.509363296 89.138576779 L137.509363296 87.9588014981 L137.902621723 87.5655430712 L137.902621723 86.3857677903 L138.29588015 85.9925093633 L138.29588015 84.8127340824 L138.689138577 84.4194756554 L138.689138577 82.4531835206 L139.082397004 82.0599250936 L139.082397004 80.0936329588 L139.475655431 79.7003745318 L139.475655431 76.5543071161 L139.868913858 76.1610486891 L140.0 76.1610486891 L140.0 63.9700374532 L139.868913858 63.9700374532 L139.475655431 63.5767790262 L139.475655431 60.4307116105 L139.082397004 60.0374531835 L139.082397004 57.6779026217 L138.689138577 57.2846441948 L138.689138577 55.7116104869 L138.29588015 55.3183520599 L138.29588015 54.138576779 L137.902621723 53.7453183521 L137.902621723 52.5655430712 L137.509363296 52.1722846442 L137.509363296 50.9925093633 L137.116104869 50.5992509363 L137.116104869 49.4194756554 L136.722846442 49.0262172285 L136.722846442 48.2397003745 L136.329588015 47.8464419476 L136.329588015 47.0599250936 L135.936329588 46.6666666667 L135.936329588 45.8801498127 L135.543071161 45.4868913858 L135.543071161 45.0936329588 L135.149812734 44.7003745318 L135.149812734 43.9138576779 L134.756554307 43.5205992509 L134.756554307 43.127340824 L134.36329588 42.734082397 L134.36329588 41.9475655431 L133.970037453 41.5543071161 L133.970037453 41.1610486891 L133.576779026 40.7677902622 L133.576779026 40.3745318352 L133.183520599 39.9812734082 L133.183520599 39.5880149813 L132.790262172 39.1947565543 L132.790262172 38.8014981273 L132.397003745 38.4082397004 L132.397003745 38.0149812734 L132.003745318 37.6217228464 L132.003745318 37.2284644195 L131.610486891 36.8352059925 L131.610486891 36.4419475655 L131.217228464 36.0486891386 L131.217228464 35.6554307116 L130.43071161 34.8689138577 L130.43071161 34.4756554307 L130.037453184 34.0823970037 L130.037453184 33.6891385768 L129.25093633 32.9026217228 L129.25093633 32.5093632959 L128.857677903 32.1161048689 L128.857677903 31.7228464419 L128.071161049 30.936329588 L128.071161049 30.543071161 L126.891385768 29.3632958801 L126.891385768 28.9700374532 L126.104868914 28.1835205993 L126.104868914 27.7902621723 L124.531835206 26.2172284644 L124.531835206 25.8239700375 L122.565543071 23.8576779026 L122.565543071 23.4644194757 L116.666666667 17.5655430712 L116.27340824 17.5655430712 L114.307116105 15.5992509363 L113.913857678 15.5992509363 L112.34082397 14.0262172285 L111.947565543 14.0262172285 L110.767790262 12.8464419476 L110.374531835 12.8464419476 L109.588014981 12.0599250936 L109.194756554 12.0599250936 L108.4082397 11.2734082397 L108.014981273 11.2734082397 L107.228464419 10.4868913858 L106.835205993 10.4868913858 L106.441947566 10.0936329588 L106.048689139 10.0936329588 L105.262172285 9.30711610487 L104.868913858 9.30711610487 L104.475655431 8.9138576779 L104.082397004 8.9138576779 L103.689138577 8.52059925094 L103.29588015 8.52059925094 L102.902621723 8.12734082397 L102.509363296 8.12734082397 L102.116104869 7.734082397 L101.722846442 7.734082397 L101.329588015 7.34082397004 L100.936329588 7.34082397004 L100.543071161 6.94756554307 L100.149812734 6.94756554307 L99.7565543071 6.5543071161 L99.3632958801 6.5543071161 L98.9700374532 6.16104868914 L98.5767790262 6.16104868914 L98.1835205993 5.76779026217 L97.7902621723 5.76779026217 L97.3970037453 5.37453183521 L96.6104868914 5.37453183521 L96.2172284644 4.98127340824 L95.8239700375 4.98127340824 L95.4307116105 4.58801498127 L94.6441947566 4.58801498127 L94.2509363296 4.19475655431 L93.4644194757 4.19475655431 L93.0711610487 3.80149812734 L92.2846441948 3.80149812734 L91.8913857678 3.40823970037 L91.1048689139 3.40823970037 L90.7116104869 3.01498127341 L89.925093633 3.01498127341 L89.531835206 2.62172284644 L88.3520599251 2.62172284644 L87.9588014981 2.22846441948 L86.7790262172 2.22846441948 L86.3857677903 1.83520599251 L85.2059925094 1.83520599251 L84.8127340824 1.44194756554 L83.2397003745 1.44194756554 L82.8464419476 1.04868913858 L80.8801498127 1.04868913858 L80.4868913858 0.65543071161 L77.734082397 0.65543071161 L77.34082397 0.262172284644 L77.34082397 0.131086142322 62.3970037453 0.131086142322 " stroke="black" fill="transparent"/>
<path d="M69.8689138577 7.60299625468 L69.8689138577 7.734082397 L69.4756554307 8.12734082397 L67.1161048689 8.12734082397 L66.7228464419 8.52059925094 L64.7565543071 8.52059925094 L64.3632958801 8.9138576779 L62.7902621723 8.9138576779 L62.3970037453 9.30711610487 L60.8239700375 9.30711610487 L60.4307116105 9.70037453184 L59.2509363296 9.70037453184 L58.8576779026 10.0936329588 L58.0711610487 10.0936329588 L57.6779026217 10.4868913858 L56.4981273408 10.4868913858 L56.1048689139 10.8801498127 L55.3183520599 10.8801498127 L54.925093633 11.2734082397 L54.138576779 11.2734082397 L53.7453183521 11.6666666667 L53.3520599251 11.6666666667 L52.9588014981 12.0599250936 L52.1722846442 12.0599250936 L51.7790262172 12.4531835206 L50.9925093633 12.4531835206 L50.5992509363 12.8464419476 L50.2059925094 12.8464419476 L49.8127340824 13.2397003745 L49.4194756554 13.2397003745 L49.0262172285 13.6329588015 L48.6329588015 13.6329588015 L48.2397003745 14.0262172285 L47.4531835206 14.0262172285 L47.0599250936 14.4194756554 L46.6666666667 14.4194756554 L46.2734082397 14.8127340824 L45.8801498127 14.8127340824 L45.4868913858 15.2059925094 L45.0936329588 15.2059925094 L44.7003745318 15.5992509363 L44.3071161049 15.5992509363 L43.5205992509 16.3857677903 L43.127340824 16.3857677903 L42.734082397 16.7790262172 L42.34082397 16.7790262172 L41.9475655431 17.1722846442 L41.5543071161 17.1722846442 L40.7677902622 17.9588014981 L40.3745318352 17.9588014981 L39.5880149813 18.7453183521 L39.1947565543 18.7453183521 L38.8014981273 19.138576779 L38.4082397004 19.138576779 L37.2284644195 20.3183520599 L36.8352059925 20.3183520599 L36.0486891386 21.1048689139 L35.6554307116 21.1048689139 L34.4756554307 22.2846441948 L34.0823970037 22.2846441948 L32.1161048689 24.2509363296 L31.7228464419 24.2509363296 L24.2509363296 31.7228464419 L24.2509363296 32.1161048689 L22.2846441948 34.0823970037 L22.2846441948 34.4756554307 L21.1048689139 35.6554307116 L21.1048689139 36.0486891386 L20.3183520599 36.8352059925 L20.3183520599 37.2284644195 L19.138576779 38.4082397004 L19.138576779 38.8014981273 L18.7453183521 39.1947565543 L18.7453183521 39.5880149813 L17.9588014981 40.3745318352 L17.9588014981 40.7677902622 L17.1722846442 41.5543071161 L17.1722846442 41.9475655431 L16.7790262172 42.34082397 L16.7790262172 42.734082397 L16.3857677903 43.127340824 L16.3857677903 43.5205992509 L15.5992509363 44.3071161049 L15.5992509363 44.7003745318 L15.2059925094 45.0936329588 L15.2059925094 45.4868913858 L14.8127340824 45.8801498127 L14.8127340824 46.2734082397 L14.4194756554 46.6666666667 L14.4194756554 47.0599250936 L14.0262172285 47.4531835206 L14.0262172285 48.2397003745 L13.6329588015 48.6329588015 L13.6329588015 49.0262172285 L13.2397003745 49.4194756554 L13.2397003745 49.8127340824 L12.8464419476 50.2059925094 L12.8464419476 50.5992509363 L12.4531835206 50.9925093633 L12.4531835206 51.7790262172 L12.0599250936 52.1722846442 L12.0599250936 52.9588014981 L11.6666666667 53.3520599251 L11.6666666667 53.7453183521 L11.2734082397 54.138576779 L11.2734082397 54.925093633 L10.8801498127 55.3183520599 L10.8801498127 56.1048689139 L10.4868913858 56.4981273408 L10.4868913858 57.6779026217 L10.0936329588 58.0711610487 L10.0936329588 58.8576779026 L9.70037453184 59.2509363296 L9.70037453184 60.4307116105 L9.30711610487 60.8239700375 L9.30711610487 62.3970037453 L8.9138576779 62.7902621723 L8.9138576779 64.3632958801 L8.52059925094 64.7565543071 L8.52059925094 66.7228464419 L8.12734082397 67.1161048689 L8.12734082397 69.4756554307 L7.734082397 69.8689138577 L7.60299625468 69.8689138577 L7.60299625468 70.0 L7.734082397 70.0 L8.12734082397 70.393258427 L8.12734082397 73.1460674157 L8.52059925094 73.5393258427 L8.52059925094 75.5056179775 L8.9138576779 75.8988764045 L8.9138576779 77.4719101124 L9.30711610487 77.8651685393 L9.30711610487 79.0449438202 L9.70037453184 79.4382022472 L9.70037453184 80.6179775281 L10.0936329588 81.0112359551 L10.0936329588 82.191011236 L10.4868913858 82.5842696629 L10.4868913858 83.3707865169 L10.8801498127 83.7640449438 L10.8801498127 84.5505617978 L11.2734082397 84.9438202247 L11.2734082397 85.7303370787 L11.6666666667 86.1235955056 L11.6666666667 86.9101123596 L12.0599250936 87.3033707865 L12.0599250936 88.0898876404 L12.4531835206 88.4831460674 L12.4531835206 88.8764044944 L12.8464419476 89.2696629213 L12.8464419476 90.0561797753 L13.2397003745 90.4494382022 L13.2397003745 90.8426966292 L13.6329588015 91.2359550562 L13.6329588015 91.6292134831 L14.0262172285 92.0224719101 L14.0262172285 92.4157303371 L14.4194756554 92.808988764 L14.4194756554 93.202247191 L14.8127340824 93.595505618 L14.8127340824 93.9887640449 L15.2059925094 94.3820224719 L15.2059925094 94.7752808989 L15.5992509363 95.1685393258 L15.5992509363 95.5617977528 L15.9925093633 95.9550561798 L15.9925093633 96.3483146067 L16.3857677903 96.7415730337 L16.3857677903 97.1348314607 L16.7790262172 97.5280898876 L16.7790262172 97.9213483146 L17.5655430712 98.7078651685 L17.5655430712 99.1011235955 L17.9588014981 99.4943820225 L17.9588014981 99.8876404494 L18.7453183521 100.674157303 L18.7453183521 101.06741573 L19.531835206 101.853932584 L19.531835206 102.247191011 L20.3183520599 103.033707865 L20.3183520599 103.426966292 L21.4981273408 104.606741573 L21.4981273408 105.0 L23.0711610487 106.573033708 L23.0711610487 106.966292135 L25.0374531835 108.93258427 L25.0374531835 109.325842697 L30.936329588 115.224719101 L31.329588015 115.224719101 L33.2958801498 117.191011236 L33.6891385768 117.191011236 L35.2621722846 118.764044944 L35.2621722846 133.576779026 L34.4756554307 134.36329588 L34.0823970037 134.36329588 L32.5093632959 135.936329588 L32.1161048689 135.936329588 L23.8576779026 144.194756554 L23.8576779026 144.588014981 L22.2846441948 146.161048689 L22.2846441948 146.554307116 L21.1048689139 147.734082397 L21.1048689139 148.127340824 L19.925093633 149.307116105 L19.925093633 149.700374532 L19.138576779 150.486891386 L19.138576779 150.880149813 L18.3520599251 151.666666667 L18.3520599251 152.059925094 L17.9588014981 152.453183521 L17.9588014981 152.846441948 L17.1722846442 153.632958801 L17.1722846442 154.026217228 L16.7790262172 154.419475655 L16.7790262172 154.812734082 L15.9925093633 155.599250936 L15.9925093633 155.992509363 L15.5992509363 156.38576779 L15.5992509363 156.779026217 L15.2059925094 157.172284644 L15.2059925094 157.565543071 L14.8127340824 157.958801498 L14.8127340824 158.352059925 L14.4194756554 158.745318352 L14.4194756554 159.138576779 L14.0262172285 159.531835206 L14.0262172285 159.925093633 L13.6329588015 160.31835206 L13.6329588015 161.104868914 L13.2397003745 161.498127341 L13.2397003745 161.891385768 L12.8464419476 162.284644195 L12.8464419476 162.677902622 L12.4531835206 163.071161049 L12.4531835206 163.857677903 L12.0599250936 164.25093633 L12.0599250936 165.037453184 L11.6666666667 165.43071161 L11.6666666667 165.823970037 L11.2734082397 166.217228464 L11.2734082397 167.003745318 L10.8801498127 167.397003745 L10.8801498127 168.183520599 L10.4868913858 168.576779026 L10.4868913858 169.756554307 L10.0936329588 170.149812734 L10.0936329588 170.936329588 L9.70037453184 171.329588015 L9.70037453184 172.509363296 L9.30711610487 172.902621723 L9.30711610487 174.475655431 L8.9138576779 174.868913858 L8.9138576779 176.441947566 L8.52059925094 176.835205993 L8.52059925094 178.4082397 L8.12734082397 178.801498127 L8.12734082397 181.554307116 L7.734082397 181.947565543 L7.60299625468 181.947565543 L7.60299625468 182.078651685 L7.734082397 182.078651685 L8.12734082397 182.471910112 L8.12734082397 185.224719101 L8.52059925094 185.617977528 L8.52059925094 187.584269663 L8.9138576779 187.97752809 L8.9138576779 189.550561798 L9.30711610487 189.943820225 L9.30711610487 191.123595506 L9.70037453184 191.516853933 L9.70037453184 192.696629213 L10.0936329588 193.08988764 L10.0936329588 194.269662921 L10.4868913858 194.662921348 L10.4868913858 195.449438202 L10.8801498127 195.842696629 L10.8801498127 196.629213483 L11.2734082397 197.02247191 L11.2734082397 197.808988764 L11.6666666667 198.202247191 L11.6666666667 198.988764045 L12.0599250936 199.382022472 L12.0599250936 200.168539326 L12.4531835206 200.561797753 L12.4531835206 200.95505618 L12.8464419476 201.348314607 L12.8464419476 202.134831461 L13.2397003745 202.528089888 L13.2397003745 202.921348315 L13.6329588015 203.314606742 L13.6329588015 203.707865169 L14.0262172285 204.101123596 L14.0262172285 204.494382022 L14.4194756554 204.887640449 L14.4194756554 205.280898876 L14.8127340824 205.674157303 L14.8127340824 206.06741573 L15.2059925094 206.460674157 L15.2059925094 206.853932584 L15.5992509363 207.247191011 L15.5992509363 207.640449438 L15.9925093633 208.033707865 L15.9925093633 208.426966292 L16.3857677903 208.820224719 L16.3857677903 209.213483146 L16.7790262172 209.606741573 L16.7790262172 210.0 L17.5655430712 210.786516854 L17.5655430712 211.179775281 L18.3520599251 211.966292135 L18.3520599251 212.359550562 L18.7453183521 212.752808989 L18.7453183521 213.146067416 L19.531835206 213.93258427 L19.531835206 214.325842697 L20.7116104869 215.505617978 L20.7116104869 215.898876404 L21.4981273408 216.685393258 L21.4981273408 217.078651685 L23.0711610487 218.651685393 L23.0711610487 219.04494382 L25.4307116105 221.404494382 L25.4307116105 221.797752809 L30.543071161 226.91011236 L30.936329588 226.91011236 L33.2958801498 229.269662921 L33.6891385768 229.269662921 L34.8689138577 230.449438202 L35.2621722846 230.449438202 L36.4419475655 231.629213483 L36.8352059925 231.629213483 L37.6217228464 232.415730337 L38.0149812734 232.415730337 L38.8014981273 233.202247191 L39.1947565543 233.202247191 L39.9812734082 233.988764045 L40.3745318352 233.988764045 L41.1610486891 234.775280899 L41.5543071161 234.775280899 L41.9475655431 235.168539326 L42.34082397 235.168539326 L42.734082397 235.561797753 L43.127340824 235.561797753 L43.9138576779 236.348314607 L44.3071161049 236.348314607 L44.7003745318 236.741573034 L45.0936329588 236.741573034 L45.4868913858 237.134831461 L45.8801498127 237.134831461 L46.2734082397 237.528089888 L46.6666666667 237.528089888 L47.0599250936 237.921348315 L47.4531835206 237.921348315 L47.8464419476 238.314606742 L48.2397003745 238.314606742 L48.6329588015 238.707865169 L49.4194756554 238.707865169 L49.8127340824 239.101123596 L50.2059925094 239.101123596 L50.5992509363 239.494382022 L50.9925093633 239.494382022 L51.3857677903 239.887640449 L52.1722846442 239.887640449 L52.5655430712 240.280898876 L53.3520599251 240.280898876 L53.7453183521 240.674157303 L54.531835206 240.674157303 L54.925093633 241.06741573 L55.7116104869 241.06741573 L56.1048689139 241.460674157 L56.8913857678 241.460674157 L57.2846441948 241.853932584 L58.0711610487 241.853932584 L58.4644194757 242.247191011 L59.6441947566 242.247191011 L60.0374531835 242.640449438 L61.2172284644 242.640449438 L61.6104868914 243.033707865 L63.1835205993 243.033707865 L63.5767790262 243.426966292 L65.1498127341 243.426966292 L65.543071161 243.820224719 L67.5093632959 243.820224719 L67.9026217228 244.213483146 L71.9662921348 244.213483146 L72.3595505618 243.820224719 L74.7191011236 243.820224719 L75.1123595506 243.426966292 L76.6853932584 243.426966292 L77.0786516854 243.033707865 L78.6516853933 243.033707865 L79.0449438202 242.640449438 L80.2247191011 242.640449438 L80.6179775281 242.247191011 L81.404494382 242.247191011 L81.797752809 241.853932584 L82.9775280899 241.853932584 L83.3707865169 241.460674157 L84.1573033708 241.460674157 L84.5505617978 241.06741573 L85.3370786517 241.06741573 L85.7303370787 240.674157303 L86.5168539326 240.674157303 L86.9101123596 240.280898876 L87.6966292135 240.280898876 L88.0898876404 239.887640449 L88.4831460674 239.887640449 L88.8764044944 239.494382022 L89.6629213483 239.494382022 L90.0561797753 239.101123596 L90.4494382022 239.101123596 L90.8426966292 238.707865169 L91.2359550562 238.707865169 L91.6292134831 238.314606742 L92.0224719101 238.314606742 L92.4157303371 237.921348315 L93.202247191 237.921348315 L93.595505618 237.528089888 L93.9887640449 237.528089888 L94.3820224719 237.134831461 L94.7752808989 237.134831461 L95.5617977528 236.348314607 L95.9550561798 236.348314607 L96.3483146067 235.95505618 L96.7415730337 235.95505618 L97.1348314607 235.561797753 L97.5280898876 235.561797753 L97.9213483146 235.168539326 L98.3146067416 235.168539326 L99.1011235955 234.382022472 L99.4943820225 234.382022472 L99.8876404494 233.988764045 L100.280898876 233.988764045 L101.06741573 233.202247191 L101.460674157 233.202247191 L102.247191011 232.415730337 L102.640449438 232.415730337 L103.820224719 231.235955056 L104.213483146 231.235955056 L105.393258427 230.056179775 L105.786516854 230.056179775 L107.359550562 228.483146067 L107.752808989 228.483146067 L110.505617978 225.730337079 L110.898876404 225.730337079 L113.651685393 222.97752809 L113.651685393 222.584269663 L116.404494382 219.831460674 L116.404494382 219.438202247 L117.97752809 217.865168539 L117.97752809 217.471910112 L119.157303371 216.292134831 L119.157303371 215.898876404 L120.337078652 214.719101124 L120.337078652 214.325842697 L121.123595506 213.539325843 L121.123595506 213.146067416 L121.91011236 212.359550562 L121.91011236 211.966292135 L122.303370787 211.573033708 L122.303370787 211.179775281 L123.08988764 210.393258427 L123.08988764 210.0 L123.483146067 209.606741573 L123.483146067 209.213483146 L123.876404494 208.820224719 L123.876404494 208.426966292 L124.662921348 207.640449438 L124.662921348 207.247191011 L125.056179775 206.853932584 L125.056179775 206.460674157 L125.449438202 206.06741573 L125.449438202 205.674157303 L125.842696629 205.280898876 L125.842696629 204.887640449 L126.235955056 204.494382022 L126.235955056 203.707865169 L126.629213483 203.314606742 L126.629213483 202.921348315 L127.02247191 202.528089888 L127.02247191 202.134831461 L127.415730337 201.741573034 L127.415730337 200.95505618 L127.808988764 200.561797753 L127.808988764 200.168539326 L128.202247191 199.775280899 L128.202247191 198.988764045 L128.595505618 198.595505618 L128.595505618 197.808988764 L128.988764045 197.415730337 L128.988764045 196.629213483 L129.382022472 196.235955056 L129.382022472 195.449438202 L129.775280899 195.056179775 L129.775280899 194.269662921 L130.168539326 193.876404494 L130.168539326 192.696629213 L130.561797753 192.303370787 L130.561797753 191.123595506 L130.95505618 190.730337079 L130.95505618 189.157303371 L131.348314607 188.764044944 L131.348314607 187.191011236 L131.741573034 186.797752809 L131.741573034 184.831460674 L132.134831461 184.438202247 L132.134831461 179.981273408 L131.741573034 179.588014981 L131.741573034 177.228464419 L131.348314607 176.835205993 L131.348314607 175.262172285 L130.95505618 174.868913858 L130.95505618 173.29588015 L130.561797753 172.902621723 L130.561797753 171.722846442 L130.168539326 171.329588015 L130.168539326 170.543071161 L129.775280899 170.149812734 L129.775280899 168.970037453 L129.382022472 168.576779026 L129.382022472 167.790262172 L128.988764045 167.397003745 L128.988764045 166.610486891 L128.595505618 166.217228464 L128.595505618 165.43071161 L128.202247191 165.037453184 L128.202247191 164.644194757 L127.808988764 164.25093633 L127.808988764 163.464419476 L127.415730337 163.071161049 L127.415730337 162.677902622 L127.02247191 162.284644195 L127.02247191 161.498127341 L126.629213483 161.104868914 L126.629213483 160.711610487 L126.235955056 160.31835206 L126.235955056 159.925093633 L125.842696629 159.531835206 L125.842696629 159.138576779 L125.449438202 158.745318352 L125.449438202 158.352059925 L125.056179775 157.958801498 L125.056179775 157.565543071 L124.662921348 157.172284644 L124.662921348 156.779026217 L124.269662921 156.38576779 L124.269662921 155.992509363 L123.876404494 155.599250936 L123.876404494 155.205992509 L123.483146067 154.812734082 L123.483146067 154.419475655 L122.696629213 153.632958801 L122.696629213 153.239700375 L122.303370787 152.846441948 L122.303370787 152.453183521 L121.516853933 151.666666667 L121.516853933 151.27340824 L120.730337079 150.486891386 L120.730337079 150.093632959 L119.943820225 149.307116105 L119.943820225 148.913857678 L118.764044944 147.734082397 L118.764044944 147.34082397 L117.584269663 146.161048689 L117.584269663 145.767790262 L115.617977528 143.801498127 L115.617977528 143.4082397 L108.93258427 136.722846442 L108.539325843 136.722846442 L106.573033708 134.756554307 L106.179775281 134.756554307 L105.0 133.576779026 L105.0 118.764044944 L106.966292135 116.797752809 L107.359550562 116.797752809 L110.112359551 114.04494382 L110.505617978 114.04494382 L114.04494382 110.505617978 L114.04494382 110.112359551 L116.797752809 107.359550562 L116.797752809 106.966292135 L118.370786517 105.393258427 L118.370786517 105.0 L119.550561798 103.820224719 L119.550561798 103.426966292 L120.337078652 102.640449438 L120.337078652 102.247191011 L121.123595506 101.460674157 L121.123595506 101.06741573 L121.91011236 100.280898876 L121.91011236 99.8876404494 L122.303370787 99.4943820225 L122.303370787 99.1011235955 L123.08988764 98.3146067416 L123.08988764 97.9213483146 L123.483146067 97.5280898876 L123.483146067 97.1348314607 L124.269662921 96.3483146067 L124.269662921 95.9550561798 L124.662921348 95.5617977528 L124.662921348 95.1685393258 L125.056179775 94.7752808989 L125.056179775 94.3820224719 L125.449438202 93.9887640449 L125.449438202 93.595505618 L125.842696629 93.202247191 L125.842696629 92.808988764 L126.235955056 92.4157303371 L126.235955056 92.0224719101 L126.629213483 91.6292134831 L126.629213483 90.8426966292 L127.02247191 90.4494382022 L127.02247191 90.0561797753 L127.415730337 89.6629213483 L127.415730337 88.8764044944 L127.808988764 88.4831460674 L127.808988764 88.0898876404 L128.202247191 87.6966292135 L128.202247191 86.9101123596 L128.595505618 86.5168539326 L128.595505618 85.7303370787 L128.988764045 85.3370786517 L128.988764045 84.5505617978 L129.382022472 84.1573033708 L129.382022472 83.3707865169 L129.775280899 82.9775280899 L129.775280899 82.191011236 L130.168539326 81.797752809 L130.168539326 80.6179775281 L130.561797753 80.2247191011 L130.561797753 79.0449438202 L130.95505618 78.6516853933 L130.95505618 77.4719101124 L131.348314607 77.0786516854 L131.348314607 75.1123595506 L131.741573034 74.7191011236 L131.741573034 72.7528089888 L132.134831461 72.3595505618 L132.134831461 67.9026217228 L131.741573034 67.5093632959 L131.741573034 65.1498127341 L131.348314607 64.7565543071 L131.348314607 63.1835205993 L130.95505618 62.7902621723 L130.95505618 61.6104868914 L130.561797753 61.2172284644 L130.561797753 60.0374531835 L130.168539326 59.6441947566 L130.168539326 58.4644194757 L129.775280899 58.0711610487 L129.775280899 56.8913857678 L129.382022472 56.4981273408 L129.382022472 55.7116104869 L128.988764045 55.3183520599 L128.988764045 54.531835206 L128.595505618 54.138576779 L128.595505618 53.3520599251 L128.202247191 52.9588014981 L128.202247191 52.5655430712 L127.808988764 52.1722846442 L127.808988764 51.3857677903 L127.415730337 50.9925093633 L127.415730337 50.5992509363 L127.02247191 50.2059925094 L127.02247191 49.4194756554 L126.629213483 49.0262172285 L126.629213483 48.6329588015 L126.235955056 48.2397003745 L126.235955056 47.8464419476 L125.842696629 47.4531835206 L125.842696629 47.0599250936 L125.449438202 46.6666666667 L125.449438202 46.2734082397 L125.056179775 45.8801498127 L125.056179775 45.4868913858 L124.662921348 45.0936329588 L124.662921348 44.7003745318 L124.269662921 44.3071161049 L124.269662921 43.9138576779 L123.876404494 43.5205992509 L123.876404494 43.127340824 L123.08988764 42.34082397 L123.08988764 41.9475655431 L122.696629213 41.5543071161 L122.696629213 41.1610486891 L121.91011236 40.3745318352 L121.91011236 39.9812734082 L121.516853933 39.5880149813 L121.516853933 39.1947565543 L120.730337079 38.4082397004 L120.730337079 38.0149812734 L119.550561798 36.8352059925 L119.550561798 36.4419475655 L118.764044944 35.6554307116 L118.764044944 35.2621722846 L117.191011236 33.6891385768 L117.191011236 33.2958801498 L115.224719101 31.329588015 L115.224719101 30.936329588 L109.325842697 25.0374531835 L108.93258427 25.0374531835 L106.966292135 23.0711610487 L106.573033708 23.0711610487 L105.0 21.4981273408 L104.606741573 21.4981273408 L103.426966292 20.3183520599 L103.033707865 20.3183520599 L102.247191011 19.531835206 L101.853932584 19.531835206 L101.06741573 18.7453183521 L100.674157303 18.7453183521 L99.8876404494 17.9588014981 L99.4943820225 17.9588014981 L99.1011235955 17.5655430712 L98.7078651685 17.5655430712 L97.9213483146 16.7790262172 L97.5280898876 16.7790262172 L97.1348314607 16.3857677903 L96.7415730337 16.3857677903 L96.3483146067 15.9925093633 L95.9550561798 15.9925093633 L95.5617977528 15.5992509363 L95.1685393258 15.5992509363 L94.7752808989 15.2059925094 L94.3820224719 15.2059925094 L93.9887640449 14.8127340824 L93.595505618 14.8127340824 L93.202247191 14.4194756554 L92.808988764 14.4194756554 L92.4157303371 14.0262172285 L92.0224719101 14.0262172285 L91.6292134831 13.6329588015 L91.2359550562 13.6329588015 L90.8426966292 13.2397003745 L90.4494382022 13.2397003745 L90.0561797753 12.8464419476 L89.2696629213 12.8464419476 L88.8764044944 12.4531835206 L88.4831460674 12.4531835206 L88.0898876404 12.0599250936 L87.3033707865 12.0599250936 L86.9101123596 11.6666666667 L86.1235955056 11.6666666667 L85.7303370787 11.2734082397 L84.9438202247 11.2734082397 L84.5505617978 10.8801498127 L83.7640449438 10.8801498127 L83.3707865169 10.4868913858 L82.5842696629 10.4868913858 L82.191011236 10.0936329588 L81.0112359551 10.0936329588 L80.6179775281 9.70037453184 L79.4382022472 9.70037453184 L79.0449438202 9.30711610487 L77.8651685393 9.30711610487 L77.4719101124 8.9138576779 L75.8988764045 8.9138576779 L75.5056179775 8.52059925094 L73.5393258427 8.52059925094 L73.1460674157 8.12734082397 L70.393258427 8.12734082397 L70.0 7.734082397 L70.0 7.60299625468 69.8689138577 7.60299625468 " stroke="black" fill="transparent"/>
<path d="M70.1310861423 16.5168539326 L69.8689138577 16.7790262172 L68.2958801498 16.7790262172 L67.9026217228 17.1722846442 L66.7228464419 17.1722846442 L66.329588015 17.5655430712 L65.543071161 17.5655430712 L65.1498127341 17.9588014981 L63.9700374532 17.9588014981 L63.5767790262 18.3520599251 L62.7902621723 18.3520599251 L62.3970037453 18.7453183521 L61.6104868914 18.7453183521 L61.2172284644 19.138576779 L60.8239700375 19.138576779 L60.4307116105 19.531835206 L59.6441947566 19.531835206 L59.2509363296 19.925093633 L58.4644194757 19.925093633 L58.0711610487 20.3183520599 L57.6779026217 20.3183520599 L57.2846441948 20.7116104869 L56.8913857678 20.7116104869 L56.4981273408 21.1048689139 L56.1048689139 21.1048689139 L55.7116104869 21.4981273408 L54.925093633 21.4981273408 L54.531835206 21.8913857678 L54.138576779 21.8913857678 L53.7453183521 22.2846441948 L53.3520599251 22.2846441948 L52.9588014981 22.6779026217 L52.5655430712 22.6779026217 L52.1722846442 23.0711610487 L51.7790262172 23.0711610487 L50.9925093633 23.8576779026 L50.5992509363 23.8576779026 L50.2059925094 24.2509363296 L49.8127340824 24.2509363296 L49.4194756554 24.6441947566 L49.0262172285 24.6441947566 L48.2397003745 25.4307116105 L47.8464419476 25.4307116105 L47.0599250936 26.2172284644 L46.6666666667 26.2172284644 L46.2734082397 26.6104868914 L45.8801498127 26.6104868914 L44.7003745318 27.7902621723 L44.3071161049 27.7902621723 L43.5205992509 28.5767790262 L43.127340824 28.5767790262 L41.9475655431 29.7565543071 L41.5543071161 29.7565543071 L39.5880149813 31.7228464419 L39.1947565543 31.7228464419 L31.7228464419 39.1947565543 L31.7228464419 39.5880149813 L29.7565543071 41.5543071161 L29.7565543071 41.9475655431 L28.5767790262 43.127340824 L28.5767790262 43.5205992509 L27.7902621723 44.3071161049 L27.7902621723 44.7003745318 L26.6104868914 45.8801498127 L26.6104868914 46.2734082397 L26.2172284644 46.6666666667 L26.2172284644 47.0599250936 L25.4307116105 47.8464419476 L25.4307116105 48.2397003745 L24.6441947566 49.0262172285 L24.6441947566 49.4194756554 L24.2509363296 49.8127340824 L24.2509363296 50.2059925094 L23.8576779026 50.5992509363 L23.8576779026 50.9925093633 L23.0711610487 51.7790262172 L23.0711610487 52.1722846442 L22.6779026217 52.5655430712 L22.6779026217 52.9588014981 L22.2846441948 53.3520599251 L22.2846441948 53.7453183521 L21.8913857678 54.138576779 L21.8913857678 54.531835206 L21.4981273408 54.925093633 L21.4981273408 55.7116104869 L21.1048689139 56.1048689139 L21.1048689139 56.4981273408 L20.7116104869 56.8913857678 L20.7116104869 57.2846441948 L20.3183520599 57.6779026217 L20.3183520599 58.0711610487 L19.925093633 58.4644194757 L19.925093633 59.2509363296 L19.531835206 59.6441947566 L19.531835206 60.4307116105 L19.138576779 60.8239700375 L19.138576779 61.2172284644 L18.7453183521 61.6104868914 L18.7453183521 62.3970037453 L18.3520599251 62.7902621723 L18.3520599251 63.5767790262 L17.9588014981 63.9700374532 L17.9588014981 65.1498127341 L17.5655430712 65.543071161 L17.5655430712 66.329588015 L17.1722846442 66.7228464419 L17.1722846442 67.9026217228 L16.7790262172 68.2958801498 L16.7790262172 69.8689138577 L16.5168539326 70.1310861423 L16.5168539326 70.2621722846 L16.7790262172 70.5243445693 L16.7790262172 71.7041198502 L17.1722846442 72.0973782772 L17.1722846442 73.2771535581 L17.5655430712 73.670411985 L17.5655430712 74.8501872659 L17.9588014981 75.2434456929 L17.9588014981 76.0299625468 L18.3520599251 76.4232209738 L18.3520599251 77.2097378277 L18.7453183521 77.6029962547 L18.7453183521 78.3895131086 L19.138576779 78.7827715356 L19.138576779 79.5692883895 L19.531835206 79.9625468165 L19.531835206 80.7490636704 L19.925093633 81.1423220974 L19.925093633 81.5355805243 L20.3183520599 81.9288389513 L20.3183520599 82.7153558052 L20.7116104869 83.1086142322 L20.7116104869 83.5018726592 L21.1048689139 83.8951310861 L21.1048689139 84.2883895131 L21.4981273408 84.6816479401 L21.4981273408 85.074906367 L21.8913857678 85.468164794 L21.8913857678 85.861423221 L22.2846441948 86.2546816479 L22.2846441948 86.6479400749 L22.6779026217 87.0411985019 L22.6779026217 87.4344569288 L23.0711610487 87.8277153558 L23.0711610487 88.2209737828 L23.4644194757 88.6142322097 L23.4644194757 89.0074906367 L23.8576779026 89.4007490637 L23.8576779026 89.7940074906 L24.2509363296 90.1872659176 L24.2509363296 90.5805243446 L25.0374531835 91.3670411985 L25.0374531835 91.7602996255 L25.4307116105 92.1535580524 L25.4307116105 92.5468164794 L26.2172284644 93.3333333333 L26.2172284644 93.7265917603 L27.0037453184 94.5131086142 L27.0037453184 94.9063670412 L27.7902621723 95.6928838951 L27.7902621723 96.0861423221 L28.9700374532 97.265917603 L28.9700374532 97.65917603 L30.543071161 99.2322097378 L30.543071161 99.6254681648 L32.5093632959 101.5917603 L32.5093632959 101.985018727 L38.4082397004 107.883895131 L38.8014981273 107.883895131 L40.7677902622 109.850187266 L41.1610486891 109.850187266 L42.734082397 111.423220974 L42.734082397 141.048689139 L41.9475655431 141.835205993 L41.5543071161 141.835205993 L39.9812734082 143.4082397 L39.5880149813 143.4082397 L31.329588015 151.666666667 L31.329588015 152.059925094 L29.7565543071 153.632958801 L29.7565543071 154.026217228 L28.5767790262 155.205992509 L28.5767790262 155.599250936 L27.3970037453 156.779026217 L27.3970037453 157.172284644 L26.6104868914 157.958801498 L26.6104868914 158.352059925 L25.8239700375 159.138576779 L25.8239700375 159.531835206 L25.4307116105 159.925093633 L25.4307116105 160.31835206 L24.6441947566 161.104868914 L24.6441947566 161.498127341 L24.2509363296 161.891385768 L24.2509363296 162.284644195 L23.4644194757 163.071161049 L23.4644194757 163.464419476 L23.0711610487 163.857677903 L23.0711610487 164.25093633 L22.6779026217 164.644194757 L22.6779026217 165.037453184 L22.2846441948 165.43071161 L22.2846441948 165.823970037 L21.8913857678 166.217228464 L21.8913857678 166.610486891 L21.4981273408 167.003745318 L21.4981273408 167.397003745 L21.1048689139 167.790262172 L21.1048689139 168.576779026 L20.7116104869 168.970037453 L20.7116104869 169.36329588 L20.3183520599 169.756554307 L20.3183520599 170.149812734 L19.925093633 170.543071161 L19.925093633 171.329588015 L19.531835206 171.722846442 L19.531835206 172.509363296 L19.138576779 172.902621723 L19.138576779 173.29588015 L18.7453183521 173.689138577 L18.7453183521 174.475655431 L18.3520599251 174.868913858 L18.3520599251 175.655430712 L17.9588014981 176.048689139 L17.9588014981 177.228464419 L17.5655430712 177.621722846 L17.5655430712 178.4082397 L17.1722846442 178.801498127 L17.1722846442 179.981273408 L16.7790262172 180.374531835 L16.7790262172 181.947565543 L16.5168539326 182.209737828 L16.5168539326 182.34082397 L16.7790262172 182.602996255 L16.7790262172 183.782771536 L17.1722846442 184.176029963 L17.1722846442 185.355805243 L17.5655430712 185.74906367 L17.5655430712 186.928838951 L17.9588014981 187.322097378 L17.9588014981 188.108614232 L18.3520599251 188.501872659 L18.3520599251 189.288389513 L18.7453183521 189.68164794 L18.7453183521 190.468164794 L19.138576779 190.861423221 L19.138576779 191.647940075 L19.531835206 192.041198502 L19.531835206 192.827715356 L19.925093633 193.220973783 L19.925093633 193.61423221 L20.3183520599 194.007490637 L20.3183520599 194.794007491 L20.7116104869 195.187265918 L20.7116104869 195.580524345 L21.1048689139 195.973782772 L21.1048689139 196.367041199 L21.4981273408 196.760299625 L21.4981273408 197.153558052 L21.8913857678 197.546816479 L21.8913857678 197.940074906 L22.2846441948 198.333333333 L22.2846441948 198.72659176 L22.6779026217 199.119850187 L22.6779026217 199.513108614 L23.0711610487 199.906367041 L23.0711610487 200.299625468 L23.4644194757 200.692883895 L23.4644194757 201.086142322 L23.8576779026 201.479400749 L23.8576779026 201.872659176 L24.2509363296 202.265917603 L24.2509363296 202.65917603 L25.0374531835 203.445692884 L25.0374531835 203.838951311 L25.8239700375 204.625468165 L25.8239700375 205.018726592 L26.2172284644 205.411985019 L26.2172284644 205.805243446 L27.0037453184 206.5917603 L27.0037453184 206.985018727 L28.1835205993 208.164794007 L28.1835205993 208.558052434 L28.9700374532 209.344569288 L28.9700374532 209.737827715 L30.543071161 211.310861423 L30.543071161 211.70411985 L32.9026217228 214.063670412 L32.9026217228 214.456928839 L38.0149812734 219.56928839 L38.4082397004 219.56928839 L40.7677902622 221.928838951 L41.1610486891 221.928838951 L42.34082397 223.108614232 L42.734082397 223.108614232 L43.9138576779 224.288389513 L44.3071161049 224.288389513 L45.0936329588 225.074906367 L45.4868913858 225.074906367 L46.2734082397 225.861423221 L46.6666666667 225.861423221 L47.4531835206 226.647940075 L47.8464419476 226.647940075 L48.6329588015 227.434456929 L49.0262172285 227.434456929 L49.4194756554 227.827715356 L49.8127340824 227.827715356 L50.2059925094 228.220973783 L50.5992509363 228.220973783 L51.3857677903 229.007490637 L51.7790262172 229.007490637 L52.1722846442 229.400749064 L52.5655430712 229.400749064 L52.9588014981 229.794007491 L53.3520599251 229.794007491 L53.7453183521 230.187265918 L54.138576779 230.187265918 L54.531835206 230.580524345 L54.925093633 230.580524345 L55.3183520599 230.973782772 L55.7116104869 230.973782772 L56.1048689139 231.367041199 L56.8913857678 231.367041199 L57.2846441948 231.760299625 L57.6779026217 231.760299625 L58.0711610487 232.153558052 L58.4644194757 232.153558052 L58.8576779026 232.546816479 L59.6441947566 232.546816479 L60.0374531835 232.940074906 L60.8239700375 232.940074906 L61.2172284644 233.333333333 L62.0037453184 233.333333333 L62.3970037453 233.72659176 L63.1835205993 233.72659176 L63.5767790262 234.119850187 L64.3632958801 234.119850187 L64.7565543071 234.513108614 L65.543071161 234.513108614 L65.936329588 234.906367041 L67.1161048689 234.906367041 L67.5093632959 235.299625468 L68.6891385768 235.299625468 L69.0823970037 235.692883895 L71.3108614232 235.692883895 L71.7041198502 235.299625468 L72.8838951311 235.299625468 L73.2771535581 234.906367041 L74.063670412 234.906367041 L74.456928839 234.513108614 L75.6367041199 234.513108614 L76.0299625468 234.119850187 L76.8164794007 234.119850187 L77.2097378277 233.72659176 L77.9962546816 233.72659176 L78.3895131086 233.333333333 L79.1760299625 233.333333333 L79.5692883895 232.940074906 L80.3558052434 232.940074906 L80.7490636704 232.546816479 L81.1423220974 232.546816479 L81.5355805243 232.153558052 L82.3220973783 232.153558052 L82.7153558052 231.760299625 L83.1086142322 231.760299625 L83.5018726592 231.367041199 L83.8951310861 231.367041199 L84.2883895131 230.973782772 L84.6816479401 230.973782772 L85.074906367 230.580524345 L85.861423221 230.580524345 L86.2546816479 230.187265918 L86.6479400749 230.187265918 L87.0411985019 229.794007491 L87.4344569288 229.794007491 L88.2209737828 229.007490637 L88.6142322097 229.007490637 L89.0074906367 228.61423221 L89.4007490637 228.61423221 L89.7940074906 228.220973783 L90.1872659176 228.220973783 L90.5805243446 227.827715356 L90.9737827715 227.827715356 L91.7602996255 227.041198502 L92.1535580524 227.041198502 L92.5468164794 226.647940075 L92.9400749064 226.647940075 L93.7265917603 225.861423221 L94.1198501873 225.861423221 L94.9063670412 225.074906367 L95.2996254682 225.074906367 L96.4794007491 223.895131086 L96.872659176 223.895131086 L98.0524344569 222.715355805 L98.4456928839 222.715355805 L100.018726592 221.142322097 L100.411985019 221.142322097 L103.164794007 218.389513109 L103.558052434 218.389513109 L106.310861423 215.63670412 L106.310861423 215.243445693 L109.063670412 212.490636704 L109.063670412 212.097378277 L110.63670412 210.524344569 L110.63670412 210.131086142 L111.816479401 208.951310861 L111.816479401 208.558052434 L112.996254682 207.378277154 L112.996254682 206.985018727 L113.782771536 206.198501873 L113.782771536 205.805243446 L114.56928839 205.018726592 L114.56928839 204.625468165 L114.962546816 204.232209738 L114.962546816 203.838951311 L115.74906367 203.052434457 L115.74906367 202.65917603 L116.142322097 202.265917603 L116.142322097 201.872659176 L116.535580524 201.479400749 L116.535580524 201.086142322 L117.322097378 200.299625468 L117.322097378 199.906367041 L117.715355805 199.513108614 L117.715355805 199.119850187 L118.108614232 198.72659176 L118.108614232 198.333333333 L118.501872659 197.940074906 L118.501872659 197.546816479 L118.895131086 197.153558052 L118.895131086 196.367041199 L119.288389513 195.973782772 L119.288389513 195.580524345 L119.68164794 195.187265918 L119.68164794 194.794007491 L120.074906367 194.400749064 L120.074906367 193.61423221 L120.468164794 193.220973783 L120.468164794 192.827715356 L120.861423221 192.434456929 L120.861423221 191.647940075 L121.254681648 191.254681648 L121.254681648 190.468164794 L121.647940075 190.074906367 L121.647940075 189.288389513 L122.041198502 188.895131086 L122.041198502 188.108614232 L122.434456929 187.715355805 L122.434456929 186.928838951 L122.827715356 186.535580524 L122.827715356 185.355805243 L123.220973783 184.962546816 L123.220973783 183.782771536 L123.61423221 183.389513109 L123.61423221 180.767790262 L123.220973783 180.374531835 L123.220973783 179.194756554 L122.827715356 178.801498127 L122.827715356 178.014981273 L122.434456929 177.621722846 L122.434456929 176.441947566 L122.041198502 176.048689139 L122.041198502 175.262172285 L121.647940075 174.868913858 L121.647940075 174.082397004 L121.254681648 173.689138577 L121.254681648 172.902621723 L120.861423221 172.509363296 L120.861423221 172.116104869 L120.468164794 171.722846442 L120.468164794 170.936329588 L120.074906367 170.543071161 L120.074906367 170.149812734 L119.68164794 169.756554307 L119.68164794 168.970037453 L119.288389513 168.576779026 L119.288389513 168.183520599 L118.895131086 167.790262172 L118.895131086 167.397003745 L118.501872659 167.003745318 L118.501872659 166.610486891 L118.108614232 166.217228464 L118.108614232 165.823970037 L117.715355805 165.43071161 L117.715355805 165.037453184 L117.322097378 164.644194757 L117.322097378 164.25093633 L116.928838951 163.857677903 L116.928838951 163.464419476 L116.535580524 163.071161049 L116.535580524 162.677902622 L116.142322097 162.284644195 L116.142322097 161.891385768 L115.355805243 161.104868914 L115.355805243 160.711610487 L114.962546816 160.31835206 L114.962546816 159.925093633 L114.176029963 159.138576779 L114.176029963 158.745318352 L113.389513109 157.958801498 L113.389513109 157.565543071 L112.602996255 156.779026217 L112.602996255 156.38576779 L111.423220974 155.205992509 L111.423220974 154.812734082 L110.243445693 153.632958801 L110.243445693 153.239700375 L108.277153558 151.27340824 L108.277153558 150.880149813 L101.5917603 144.194756554 L101.198501873 144.194756554 L99.2322097378 142.228464419 L98.8389513109 142.228464419 L97.65917603 141.048689139 L97.65917603 111.423220974 L99.6254681648 109.456928839 L100.018726592 109.456928839 L102.771535581 106.70411985 L103.164794007 106.70411985 L106.70411985 103.164794007 L106.70411985 102.771535581 L109.456928839 100.018726592 L109.456928839 99.6254681648 L111.029962547 98.0524344569 L111.029962547 97.65917603 L112.209737828 96.4794007491 L112.209737828 96.0861423221 L112.996254682 95.2996254682 L112.996254682 94.9063670412 L113.782771536 94.1198501873 L113.782771536 93.7265917603 L114.56928839 92.9400749064 L114.56928839 92.5468164794 L114.962546816 92.1535580524 L114.962546816 91.7602996255 L115.74906367 90.9737827715 L115.74906367 90.5805243446 L116.142322097 90.1872659176 L116.142322097 89.7940074906 L116.928838951 89.0074906367 L116.928838951 88.6142322097 L117.322097378 88.2209737828 L117.322097378 87.8277153558 L117.715355805 87.4344569288 L117.715355805 87.0411985019 L118.108614232 86.6479400749 L118.108614232 86.2546816479 L118.501872659 85.861423221 L118.501872659 85.468164794 L118.895131086 85.074906367 L118.895131086 84.6816479401 L119.288389513 84.2883895131 L119.288389513 83.5018726592 L119.68164794 83.1086142322 L119.68164794 82.7153558052 L120.074906367 82.3220973783 L120.074906367 81.5355805243 L120.468164794 81.1423220974 L120.468164794 80.7490636704 L120.861423221 80.3558052434 L120.861423221 79.5692883895 L121.254681648 79.1760299625 L121.254681648 78.3895131086 L121.647940075 77.9962546816 L121.647940075 77.2097378277 L122.041198502 76.8164794007 L122.041198502 76.0299625468 L122.434456929 75.6367041199 L122.434456929 74.8501872659 L122.827715356 74.456928839 L122.827715356 73.2771535581 L123.220973783 72.8838951311 L123.220973783 71.7041198502 L123.61423221 71.3108614232 L123.61423221 69.0823970037 L123.220973783 68.6891385768 L123.220973783 67.5093632959 L122.827715356 67.1161048689 L122.827715356 65.936329588 L122.434456929 65.543071161 L122.434456929 64.3632958801 L122.041198502 63.9700374532 L122.041198502 63.1835205993 L121.647940075 62.7902621723 L121.647940075 62.0037453184 L121.254681648 61.6104868914 L121.254681648 60.8239700375 L120.861423221 60.4307116105 L120.861423221 60.0374531835 L120.468164794 59.6441947566 L120.468164794 58.8576779026 L120.074906367 58.4644194757 L120.074906367 58.0711610487 L119.68164794 57.6779026217 L119.68164794 56.8913857678 L119.288389513 56.4981273408 L119.288389513 56.1048689139 L118.895131086 55.7116104869 L118.895131086 55.3183520599 L118.501872659 54.925093633 L118.501872659 54.531835206 L118.108614232 54.138576779 L118.108614232 53.7453183521 L117.715355805 53.3520599251 L117.715355805 52.9588014981 L117.322097378 52.5655430712 L117.322097378 52.1722846442 L116.928838951 51.7790262172 L116.928838951 51.3857677903 L116.535580524 50.9925093633 L116.535580524 50.5992509363 L115.74906367 49.8127340824 L115.74906367 49.4194756554 L115.355805243 49.0262172285 L115.355805243 48.6329588015 L114.56928839 47.8464419476 L114.56928839 47.4531835206 L114.176029963 47.0599250936 L114.176029963 46.6666666667 L113.389513109 45.8801498127 L113.389513109 45.4868913858 L112.209737828 44.3071161049 L112.209737828 43.9138576779 L111.423220974 43.127340824 L111.423220974 42.734082397 L109.850187266 41.1610486891 L109.850187266 40.7677902622 L107.883895131 38.8014981273 L107.883895131 38.4082397004 L101.985018727 32.5093632959 L101.5917603 32.5093632959 L99.6254681648 30.543071161 L99.2322097378 30.543071161 L97.65917603 28.9700374532 L97.265917603 28.9700374532 L96.0861423221 27.7902621723 L95.6928838951 27.7902621723 L94.9063670412 27.0037453184 L94.5131086142 27.0037453184 L93.7265917603 26.2172284644 L93.3333333333 26.2172284644 L92.5468164794 25.4307116105 L92.1535580524 25.4307116105 L91.7602996255 25.0374531835 L91.3670411985 25.0374531835 L90.5805243446 24.2509363296 L90.1872659176 24.2509363296 L89.7940074906 23.8576779026 L89.4007490637 23.8576779026 L89.0074906367 23.4644194757 L88.6142322097 23.4644194757 L88.2209737828 23.0711610487 L87.8277153558 23.0711610487 L87.4344569288 22.6779026217 L87.0411985019 22.6779026217 L86.6479400749 22.2846441948 L86.2546816479 22.2846441948 L85.861423221 21.8913857678 L85.468164794 21.8913857678 L85.074906367 21.4981273408 L84.6816479401 21.4981273408 L84.2883895131 21.1048689139 L83.8951310861 21.1048689139 L83.5018726592 20.7116104869 L83.1086142322 20.7116104869 L82.7153558052 20.3183520599 L81.9288389513 20.3183520599 L81.5355805243 19.925093633 L81.1423220974 19.925093633 L80.7490636704 19.531835206 L79.9625468165 19.531835206 L79.5692883895 19.138576779 L78.7827715356 19.138576779 L78.3895131086 18.7453183521 L77.6029962547 18.7453183521 L77.2097378277 18.3520599251 L76.4232209738 18.3520599251 L76.0299625468 17.9588014981 L75.2434456929 17.9588014981 L74.8501872659 17.5655430712 L73.670411985 17.5655430712 L73.2771535581 17.1722846442 L72.0973782772 17.1722846442 L71.7041198502 16.7790262172 L70.5243445693 16.7790262172 L70.2621722846 16.5168539326 70.1310861423 16.5168539326 " stroke="black" fill="transparent"/>
<path d="M70.0 26.0861423221 L69.8689138577 26.2172284644 L69.0823970037 26.2172284644 L68.6891385768 26.6104868914 L68.2958801498 26.6104868914 L67.9026217228 27.0037453184 L67.1161048689 27.0037453184 L66.7228464419 27.3970037453 L65.936329588 27.3970037453 L65.543071161 27.7902621723 L65.1498127341 27.7902621723 L64.7565543071 28.1835205993 L64.3632958801 28.1835205993 L63.9700374532 28.5767790262 L63.5767790262 28.5767790262 L63.1835205993 28.9700374532 L62.3970037453 28.9700374532 L62.0037453184 29.3632958801 L61.6104868914 29.3632958801 L61.2172284644 29.7565543071 L60.8239700375 29.7565543071 L60.4307116105 30.1498127341 L60.0374531835 30.1498127341 L59.6441947566 30.543071161 L59.2509363296 30.543071161 L58.4644194757 31.329588015 L58.0711610487 31.329588015 L57.6779026217 31.7228464419 L57.2846441948 31.7228464419 L56.8913857678 32.1161048689 L56.4981273408 32.1161048689 L55.7116104869 32.9026217228 L55.3183520599 32.9026217228 L54.531835206 33.6891385768 L54.138576779 33.6891385768 L53.7453183521 34.0823970037 L53.3520599251 34.0823970037 L52.1722846442 35.2621722846 L51.7790262172 35.2621722846 L50.9925093633 36.0486891386 L50.5992509363 36.0486891386 L49.4194756554 37.2284644195 L49.0262172285 37.2284644195 L47.0599250936 39.1947565543 L46.6666666667 39.1947565543 L39.1947565543 46.6666666667 L39.1947565543 47.0599250936 L37.2284644195 49.0262172285 L37.2284644195 49.4194756554 L36.0486891386 50.5992509363 L36.0486891386 50.9925093633 L35.2621722846 51.7790262172 L35.2621722846 52.1722846442 L34.0823970037 53.3520599251 L34.0823970037 53.7453183521 L33.6891385768 54.138576779 L33.6891385768 54.531835206 L32.9026217228 55.3183520599 L32.9026217228 55.7116104869 L32.1161048689 56.4981273408 L32.1161048689 56.8913857678 L31.7228464419 57.2846441948 L31.7228464419 57.6779026217 L31.329588015 58.0711610487 L31.329588015 58.4644194757 L30.543071161 59.2509363296 L30.543071161 59.6441947566 L30.1498127341 60.0374531835 L30.1498127341 60.4307116105 L29.7565543071 60.8239700375 L29.7565543071 61.2172284644 L29.3632958801 61.6104868914 L29.3632958801 62.0037453184 L28.9700374532 62.3970037453 L28.9700374532 63.1835205993 L28.5767790262 63.5767790262 L28.5767790262 63.9700374532 L28.1835205993 64.3632958801 L28.1835205993 64.7565543071 L27.7902621723 65.1498127341 L27.7902621723 65.543071161 L27.3970037453 65.936329588 L27.3970037453 66.7228464419 L27.0037453184 67.1161048689 L27.0037453184 67.9026217228 L26.6104868914 68.2958801498 L26.6104868914 68.6891385768 L26.2172284644 69.0823970037 L26.2172284644 69.8689138577 L26.0861423221 70.0 L26.0861423221 70.1310861423 L26.2172284644 70.2621722846 L26.2172284644 71.0486891386 L26.6104868914 71.4419475655 L26.6104868914 72.2284644195 L27.0037453184 72.6217228464 L27.0037453184 73.4082397004 L27.3970037453 73.8014981273 L27.3970037453 74.1947565543 L27.7902621723 74.5880149813 L27.7902621723 75.3745318352 L28.1835205993 75.7677902622 L28.1835205993 76.1610486891 L28.5767790262 76.5543071161 L28.5767790262 76.9475655431 L28.9700374532 77.34082397 L28.9700374532 77.734082397 L29.3632958801 78.127340824 L29.3632958801 78.5205992509 L29.7565543071 78.9138576779 L29.7565543071 79.3071161049 L30.1498127341 79.7003745318 L30.1498127341 80.0936329588 L30.543071161 80.4868913858 L30.543071161 80.8801498127 L30.936329588 81.2734082397 L30.936329588 81.6666666667 L31.329588015 82.0599250936 L31.329588015 82.4531835206 L31.7228464419 82.8464419476 L31.7228464419 83.2397003745 L32.5093632959 84.0262172285 L32.5093632959 84.4194756554 L32.9026217228 84.8127340824 L32.9026217228 85.2059925094 L33.6891385768 85.9925093633 L33.6891385768 86.3857677903 L34.4756554307 87.1722846442 L34.4756554307 87.5655430712 L35.2621722846 88.3520599251 L35.2621722846 88.7453183521 L36.4419475655 89.925093633 L36.4419475655 90.3183520599 L38.0149812734 91.8913857678 L38.0149812734 92.2846441948 L39.9812734082 94.2509363296 L39.9812734082 94.6441947566 L45.8801498127 100.543071161 L46.2734082397 100.543071161 L48.2397003745 102.509363296 L48.6329588015 102.509363296 L50.2059925094 104.082397004 L50.2059925094 148.520599251 L49.4194756554 149.307116105 L49.0262172285 149.307116105 L47.4531835206 150.880149813 L47.0599250936 150.880149813 L38.8014981273 159.138576779 L38.8014981273 159.531835206 L37.2284644195 161.104868914 L37.2284644195 161.498127341 L36.0486891386 162.677902622 L36.0486891386 163.071161049 L34.8689138577 164.25093633 L34.8689138577 164.644194757 L34.0823970037 165.43071161 L34.0823970037 165.823970037 L33.2958801498 166.610486891 L33.2958801498 167.003745318 L32.9026217228 167.397003745 L32.9026217228 167.790262172 L32.1161048689 168.576779026 L32.1161048689 168.970037453 L31.7228464419 169.36329588 L31.7228464419 169.756554307 L30.936329588 170.543071161 L30.936329588 170.936329588 L30.543071161 171.329588015 L30.543071161 171.722846442 L30.1498127341 172.116104869 L30.1498127341 172.509363296 L29.7565543071 172.902621723 L29.7565543071 173.29588015 L29.3632958801 173.689138577 L29.3632958801 174.082397004 L28.9700374532 174.475655431 L28.9700374532 174.868913858 L28.5767790262 175.262172285 L28.5767790262 176.048689139 L28.1835205993 176.441947566 L28.1835205993 176.835205993 L27.7902621723 177.228464419 L27.7902621723 177.621722846 L27.3970037453 178.014981273 L27.3970037453 178.801498127 L27.0037453184 179.194756554 L27.0037453184 179.981273408 L26.6104868914 180.374531835 L26.6104868914 180.767790262 L26.2172284644 181.161048689 L26.2172284644 181.947565543 L26.0861423221 182.078651685 L26.0861423221 182.209737828 L26.2172284644 182.34082397 L26.2172284644 183.127340824 L26.6104868914 183.520599251 L26.6104868914 184.307116105 L27.0037453184 184.700374532 L27.0037453184 185.486891386 L27.3970037453 185.880149813 L27.3970037453 186.27340824 L27.7902621723 186.666666667 L27.7902621723 187.453183521 L28.1835205993 187.846441948 L28.1835205993 188.239700375 L28.5767790262 188.632958801 L28.5767790262 189.026217228 L28.9700374532 189.419475655 L28.9700374532 189.812734082 L29.3632958801 190.205992509 L29.3632958801 190.599250936 L29.7565543071 190.992509363 L29.7565543071 191.38576779 L30.1498127341 191.779026217 L30.1498127341 192.172284644 L30.543071161 192.565543071 L30.543071161 192.958801498 L30.936329588 193.352059925 L30.936329588 193.745318352 L31.329588015 194.138576779 L31.329588015 194.531835206 L31.7228464419 194.925093633 L31.7228464419 195.31835206 L32.5093632959 196.104868914 L32.5093632959 196.498127341 L33.2958801498 197.284644195 L33.2958801498 197.677902622 L33.6891385768 198.071161049 L33.6891385768 198.464419476 L34.4756554307 199.25093633 L34.4756554307 199.644194757 L35.6554307116 200.823970037 L35.6554307116 201.217228464 L36.4419475655 202.003745318 L36.4419475655 202.397003745 L38.0149812734 203.970037453 L38.0149812734 204.36329588 L40.3745318352 206.722846442 L40.3745318352 207.116104869 L45.4868913858 212.228464419 L45.8801498127 212.228464419 L48.2397003745 214.588014981 L48.6329588015 214.588014981 L49.8127340824 215.767790262 L50.2059925094 215.767790262 L51.3857677903 216.947565543 L51.7790262172 216.947565543 L52.5655430712 217.734082397 L52.9588014981 217.734082397 L53.7453183521 218.520599251 L54.138576779 218.520599251 L54.925093633 219.307116105 L55.3183520599 219.307116105 L56.1048689139 220.093632959 L56.4981273408 220.093632959 L56.8913857678 220.486891386 L57.2846441948 220.486891386 L57.6779026217 220.880149813 L58.0711610487 220.880149813 L58.8576779026 221.666666667 L59.2509363296 221.666666667 L59.6441947566 222.059925094 L60.0374531835 222.059925094 L60.4307116105 222.453183521 L60.8239700375 222.453183521 L61.2172284644 222.846441948 L61.6104868914 222.846441948 L62.0037453184 223.239700375 L62.3970037453 223.239700375 L62.7902621723 223.632958801 L63.1835205993 223.632958801 L63.5767790262 224.026217228 L64.3632958801 224.026217228 L64.7565543071 224.419475655 L65.1498127341 224.419475655 L65.543071161 224.812734082 L65.936329588 224.812734082 L66.329588015 225.205992509 L67.1161048689 225.205992509 L67.5093632959 225.599250936 L68.2958801498 225.599250936 L68.6891385768 225.992509363 L69.4756554307 225.992509363 L69.8689138577 226.38576779 L70.6554307116 226.38576779 L71.0486891386 225.992509363 L71.8352059925 225.992509363 L72.2284644195 225.599250936 L73.0149812734 225.599250936 L73.4082397004 225.205992509 L73.8014981273 225.205992509 L74.1947565543 224.812734082 L74.9812734082 224.812734082 L75.3745318352 224.419475655 L75.7677902622 224.419475655 L76.1610486891 224.026217228 L76.5543071161 224.026217228 L76.9475655431 223.632958801 L77.34082397 223.632958801 L77.734082397 223.239700375 L78.5205992509 223.239700375 L78.9138576779 222.846441948 L79.3071161049 222.846441948 L79.7003745318 222.453183521 L80.0936329588 222.453183521 L80.8801498127 221.666666667 L81.2734082397 221.666666667 L81.6666666667 221.27340824 L82.0599250936 221.27340824 L82.4531835206 220.880149813 L82.8464419476 220.880149813 L83.2397003745 220.486891386 L83.6329588015 220.486891386 L84.4194756554 219.700374532 L84.8127340824 219.700374532 L85.2059925094 219.307116105 L85.5992509363 219.307116105 L86.3857677903 218.520599251 L86.7790262172 218.520599251 L87.5655430712 217.734082397 L87.9588014981 217.734082397 L89.138576779 216.554307116 L89.531835206 216.554307116 L90.7116104869 215.374531835 L91.1048689139 215.374531835 L92.6779026217 213.801498127 L93.0711610487 213.801498127 L95.8239700375 211.048689139 L96.2172284644 211.048689139 L98.9700374532 208.29588015 L98.9700374532 207.902621723 L101.722846442 205.149812734 L101.722846442 204.756554307 L103.29588015 203.183520599 L103.29588015 202.790262172 L104.475655431 201.610486891 L104.475655431 201.217228464 L105.655430712 200.037453184 L105.655430712 199.644194757 L106.441947566 198.857677903 L106.441947566 198.464419476 L107.228464419 197.677902622 L107.228464419 197.284644195 L107.621722846 196.891385768 L107.621722846 196.498127341 L108.4082397 195.711610487 L108.4082397 195.31835206 L108.801498127 194.925093633 L108.801498127 194.531835206 L109.194756554 194.138576779 L109.194756554 193.745318352 L109.981273408 192.958801498 L109.981273408 192.565543071 L110.374531835 192.172284644 L110.374531835 191.779026217 L110.767790262 191.38576779 L110.767790262 190.992509363 L111.161048689 190.599250936 L111.161048689 190.205992509 L111.554307116 189.812734082 L111.554307116 189.026217228 L111.947565543 188.632958801 L111.947565543 188.239700375 L112.34082397 187.846441948 L112.34082397 187.453183521 L112.734082397 187.059925094 L112.734082397 186.27340824 L113.127340824 185.880149813 L113.127340824 185.486891386 L113.520599251 185.093632959 L113.520599251 184.307116105 L113.913857678 183.913857678 L113.913857678 183.127340824 L114.307116105 182.734082397 L114.307116105 181.554307116 L113.913857678 181.161048689 L113.913857678 180.374531835 L113.520599251 179.981273408 L113.520599251 179.588014981 L113.127340824 179.194756554 L113.127340824 178.4082397 L112.734082397 178.014981273 L112.734082397 177.621722846 L112.34082397 177.228464419 L112.34082397 176.441947566 L111.947565543 176.048689139 L111.947565543 175.655430712 L111.554307116 175.262172285 L111.554307116 174.868913858 L111.161048689 174.475655431 L111.161048689 174.082397004 L110.767790262 173.689138577 L110.767790262 173.29588015 L110.374531835 172.902621723 L110.374531835 172.509363296 L109.981273408 172.116104869 L109.981273408 171.722846442 L109.588014981 171.329588015 L109.588014981 170.936329588 L109.194756554 170.543071161 L109.194756554 170.149812734 L108.801498127 169.756554307 L108.801498127 169.36329588 L108.014981273 168.576779026 L108.014981273 168.183520599 L107.621722846 167.790262172 L107.621722846 167.397003745 L106.835205993 166.610486891 L106.835205993 166.217228464 L106.048689139 165.43071161 L106.048689139 165.037453184 L105.262172285 164.25093633 L105.262172285 163.857677903 L104.082397004 162.677902622 L104.082397004 162.284644195 L102.902621723 161.104868914 L102.902621723 160.711610487 L100.936329588 158.745318352 L100.936329588 158.352059925 L94.2509363296 151.666666667 L93.8576779026 151.666666667 L91.8913857678 149.700374532 L91.4981273408 149.700374532 L90.3183520599 148.520599251 L90.3183520599 104.082397004 L92.2846441948 102.116104869 L92.6779026217 102.116104869 L95.4307116105 99.3632958801 L95.8239700375 99.3632958801 L99.3632958801 95.8239700375 L99.3632958801 95.4307116105 L102.116104869 92.6779026217 L102.116104869 92.2846441948 L103.689138577 90.7116104869 L103.689138577 90.3183520599 L104.868913858 89.138576779 L104.868913858 88.7453183521 L105.655430712 87.9588014981 L105.655430712 87.5655430712 L106.441947566 86.7790262172 L106.441947566 86.3857677903 L107.228464419 85.5992509363 L107.228464419 85.2059925094 L107.621722846 84.8127340824 L107.621722846 84.4194756554 L108.4082397 83.6329588015 L108.4082397 83.2397003745 L108.801498127 82.8464419476 L108.801498127 82.4531835206 L109.588014981 81.6666666667 L109.588014981 81.2734082397 L109.981273408 80.8801498127 L109.981273408 80.4868913858 L110.374531835 80.0936329588 L110.374531835 79.7003745318 L110.767790262 79.3071161049 L110.767790262 78.9138576779 L111.161048689 78.5205992509 L111.161048689 78.127340824 L111.554307116 77.734082397 L111.554307116 77.34082397 L111.947565543 76.9475655431 L111.947565543 76.1610486891 L112.34082397 75.7677902622 L112.34082397 75.3745318352 L112.734082397 74.9812734082 L112.734082397 74.1947565543 L113.127340824 73.8014981273 L113.127340824 73.4082397004 L113.520599251 73.0149812734 L113.520599251 72.2284644195 L113.913857678 71.8352059925 L113.913857678 71.0486891386 L114.307116105 70.6554307116 L114.307116105 69.4756554307 L113.913857678 69.0823970037 L113.913857678 68.2958801498 L113.520599251 67.9026217228 L113.520599251 67.5093632959 L113.127340824 67.1161048689 L113.127340824 66.329588015 L112.734082397 65.936329588 L112.734082397 65.543071161 L112.34082397 65.1498127341 L112.34082397 64.3632958801 L111.947565543 63.9700374532 L111.947565543 63.5767790262 L111.554307116 63.1835205993 L111.554307116 62.7902621723 L111.161048689 62.3970037453 L111.161048689 62.0037453184 L110.767790262 61.6104868914 L110.767790262 61.2172284644 L110.374531835 60.8239700375 L110.374531835 60.4307116105 L109.981273408 60.0374531835 L109.981273408 59.6441947566 L109.588014981 59.2509363296 L109.588014981 58.8576779026 L109.194756554 58.4644194757 L109.194756554 58.0711610487 L108.4082397 57.2846441948 L108.4082397 56.8913857678 L108.014981273 56.4981273408 L108.014981273 56.1048689139 L107.228464419 55.3183520599 L107.228464419 54.925093633 L106.835205993 54.531835206 L106.835205993 54.138576779 L106.048689139 53.3520599251 L106.048689139 52.9588014981 L104.868913858 51.7790262172 L104.868913858 51.3857677903 L104.082397004 50.5992509363 L104.082397004 50.2059925094 L102.509363296 48.6329588015 L102.509363296 48.2397003745 L100.543071161 46.2734082397 L100.543071161 45.8801498127 L94.6441947566 39.9812734082 L94.2509363296 39.9812734082 L92.2846441948 38.0149812734 L91.8913857678 38.0149812734 L90.3183520599 36.4419475655 L89.925093633 36.4419475655 L88.7453183521 35.2621722846 L88.3520599251 35.2621722846 L87.5655430712 34.4756554307 L87.1722846442 34.4756554307 L86.3857677903 33.6891385768 L85.9925093633 33.6891385768 L85.2059925094 32.9026217228 L84.8127340824 32.9026217228 L84.4194756554 32.5093632959 L84.0262172285 32.5093632959 L83.2397003745 31.7228464419 L82.8464419476 31.7228464419 L82.4531835206 31.329588015 L82.0599250936 31.329588015 L81.6666666667 30.936329588 L81.2734082397 30.936329588 L80.8801498127 30.543071161 L80.4868913858 30.543071161 L80.0936329588 30.1498127341 L79.7003745318 30.1498127341 L79.3071161049 29.7565543071 L78.9138576779 29.7565543071 L78.5205992509 29.3632958801 L78.127340824 29.3632958801 L77.734082397 28.9700374532 L77.34082397 28.9700374532 L76.9475655431 28.5767790262 L76.5543071161 28.5767790262 L76.1610486891 28.1835205993 L75.7677902622 28.1835205993 L75.3745318352 27.7902621723 L74.5880149813 27.7902621723 L74.1947565543 27.3970037453 L73.8014981273 27.3970037453 L73.4082397004 27.0037453184 L72.6217228464 27.0037453184 L72.2284644195 26.6104868914 L71.4419475655 26.6104868914 L71.0486891386 26.2172284644 L70.2621722846 26.2172284644 L70.1310861423 26.0861423221 70.0 26.0861423221 " stroke="black" fill="transparent"/>
<path d="M69.8689138577 36.4419475655 L69.4756554307 36.8352059925 L69.0823970037 36.8352059925 L68.6891385768 37.2284644195 L68.2958801498 37.2284644195 L67.9026217228 37.6217228464 L67.5093632959 37.6217228464 L67.1161048689 38.0149812734 L66.7228464419 38.0149812734 L65.936329588 38.8014981273 L65.543071161 38.8014981273 L65.1498127341 39.1947565543 L64.7565543071 39.1947565543 L64.3632958801 39.5880149813 L63.9700374532 39.5880149813 L63.1835205993 40.3745318352 L62.7902621723 40.3745318352 L62.0037453184 41.1610486891 L61.6104868914 41.1610486891 L61.2172284644 41.5543071161 L60.8239700375 41.5543071161 L59.6441947566 42.734082397 L59.2509363296 42.734082397 L58.4644194757 43.5205992509 L58.0711610487 43.5205992509 L56.8913857678 44.7003745318 L56.4981273408 44.7003745318 L54.531835206 46.6666666667 L54.138576779 46.6666666667 L46.6666666667 54.138576779 L46.6666666667 54.531835206 L44.7003745318 56.4981273408 L44.7003745318 56.8913857678 L43.5205992509 58.0711610487 L43.5205992509 58.4644194757 L42.734082397 59.2509363296 L42.734082397 59.6441947566 L41.5543071161 60.8239700375 L41.5543071161 61.2172284644 L41.1610486891 61.6104868914 L41.1610486891 62.0037453184 L40.3745318352 62.7902621723 L40.3745318352 63.1835205993 L39.5880149813 63.9700374532 L39.5880149813 64.3632958801 L39.1947565543 64.7565543071 L39.1947565543 65.1498127341 L38.8014981273 65.543071161 L38.8014981273 65.936329588 L38.0149812734 66.7228464419 L38.0149812734 67.1161048689 L37.6217228464 67.5093632959 L37.6217228464 67.9026217228 L37.2284644195 68.2958801498 L37.2284644195 68.6891385768 L36.8352059925 69.0823970037 L36.8352059925 69.4756554307 L36.4419475655 69.8689138577 L36.4419475655 70.393258427 L36.8352059925 70.7865168539 L36.8352059925 71.1797752809 L37.2284644195 71.5730337079 L37.2284644195 71.9662921348 L37.6217228464 72.3595505618 L37.6217228464 72.7528089888 L38.0149812734 73.1460674157 L38.0149812734 73.5393258427 L38.4082397004 73.9325842697 L38.4082397004 74.3258426966 L38.8014981273 74.7191011236 L38.8014981273 75.1123595506 L39.1947565543 75.5056179775 L39.1947565543 75.8988764045 L39.9812734082 76.6853932584 L39.9812734082 77.0786516854 L40.3745318352 77.4719101124 L40.3745318352 77.8651685393 L41.1610486891 78.6516853933 L41.1610486891 79.0449438202 L41.9475655431 79.8314606742 L41.9475655431 80.2247191011 L42.734082397 81.0112359551 L42.734082397 81.404494382 L43.9138576779 82.5842696629 L43.9138576779 82.9775280899 L45.4868913858 84.5505617978 L45.4868913858 84.9438202247 L47.4531835206 86.9101123596 L47.4531835206 87.3033707865 L53.3520599251 93.202247191 L53.7453183521 93.202247191 L55.7116104869 95.1685393258 L56.1048689139 95.1685393258 L57.6779026217 96.7415730337 L57.6779026217 155.992509363 L56.8913857678 156.779026217 L56.4981273408 156.779026217 L54.925093633 158.352059925 L54.531835206 158.352059925 L46.2734082397 166.610486891 L46.2734082397 167.003745318 L44.7003745318 168.576779026 L44.7003745318 168.970037453 L43.5205992509 170.149812734 L43.5205992509 170.543071161 L42.34082397 171.722846442 L42.34082397 172.116104869 L41.5543071161 172.902621723 L41.5543071161 173.29588015 L40.7677902622 174.082397004 L40.7677902622 174.475655431 L40.3745318352 174.868913858 L40.3745318352 175.262172285 L39.5880149813 176.048689139 L39.5880149813 176.441947566 L39.1947565543 176.835205993 L39.1947565543 177.228464419 L38.4082397004 178.014981273 L38.4082397004 178.4082397 L38.0149812734 178.801498127 L38.0149812734 179.194756554 L37.6217228464 179.588014981 L37.6217228464 179.981273408 L37.2284644195 180.374531835 L37.2284644195 180.767790262 L36.8352059925 181.161048689 L36.8352059925 181.554307116 L36.4419475655 181.947565543 L36.4419475655 182.471910112 L36.8352059925 182.865168539 L36.8352059925 183.258426966 L37.2284644195 183.651685393 L37.2284644195 184.04494382 L37.6217228464 184.438202247 L37.6217228464 184.831460674 L38.0149812734 185.224719101 L38.0149812734 185.617977528 L38.4082397004 186.011235955 L38.4082397004 186.404494382 L38.8014981273 186.797752809 L38.8014981273 187.191011236 L39.1947565543 187.584269663 L39.1947565543 187.97752809 L39.9812734082 188.764044944 L39.9812734082 189.157303371 L40.7677902622 189.943820225 L40.7677902622 190.337078652 L41.1610486891 190.730337079 L41.1610486891 191.123595506 L41.9475655431 191.91011236 L41.9475655431 192.303370787 L43.127340824 193.483146067 L43.127340824 193.876404494 L43.9138576779 194.662921348 L43.9138576779 195.056179775 L45.4868913858 196.629213483 L45.4868913858 197.02247191 L47.8464419476 199.382022472 L47.8464419476 199.775280899 L52.9588014981 204.887640449 L53.3520599251 204.887640449 L55.7116104869 207.247191011 L56.1048689139 207.247191011 L57.2846441948 208.426966292 L57.6779026217 208.426966292 L58.8576779026 209.606741573 L59.2509363296 209.606741573 L60.0374531835 210.393258427 L60.4307116105 210.393258427 L61.2172284644 211.179775281 L61.6104868914 211.179775281 L62.3970037453 211.966292135 L62.7902621723 211.966292135 L63.5767790262 212.752808989 L63.9700374532 212.752808989 L64.3632958801 213.146067416 L64.7565543071 213.146067416 L65.1498127341 213.539325843 L65.543071161 213.539325843 L66.329588015 214.325842697 L66.7228464419 214.325842697 L67.1161048689 214.719101124 L67.5093632959 214.719101124 L67.9026217228 215.112359551 L68.2958801498 215.112359551 L68.6891385768 215.505617978 L69.0823970037 215.505617978 L69.4756554307 215.898876404 L69.8689138577 215.898876404 L70.1310861423 216.161048689 L70.393258427 215.898876404 L71.1797752809 215.898876404 L71.5730337079 215.505617978 L71.9662921348 215.505617978 L72.3595505618 215.112359551 L72.7528089888 215.112359551 L73.5393258427 214.325842697 L73.9325842697 214.325842697 L74.3258426966 213.93258427 L74.7191011236 213.93258427 L75.1123595506 213.539325843 L75.5056179775 213.539325843 L75.8988764045 213.146067416 L76.2921348315 213.146067416 L77.0786516854 212.359550562 L77.4719101124 212.359550562 L77.8651685393 211.966292135 L78.2584269663 211.966292135 L79.0449438202 211.179775281 L79.4382022472 211.179775281 L80.2247191011 210.393258427 L80.6179775281 210.393258427 L81.797752809 209.213483146 L82.191011236 209.213483146 L83.3707865169 208.033707865 L83.7640449438 208.033707865 L85.3370786517 206.460674157 L85.7303370787 206.460674157 L88.4831460674 203.707865169 L88.8764044944 203.707865169 L91.6292134831 200.95505618 L91.6292134831 200.561797753 L94.3820224719 197.808988764 L94.3820224719 197.415730337 L95.9550561798 195.842696629 L95.9550561798 195.449438202 L97.1348314607 194.269662921 L97.1348314607 193.876404494 L98.3146067416 192.696629213 L98.3146067416 192.303370787 L99.1011235955 191.516853933 L99.1011235955 191.123595506 L99.8876404494 190.337078652 L99.8876404494 189.943820225 L100.280898876 189.550561798 L100.280898876 189.157303371 L101.06741573 188.370786517 L101.06741573 187.97752809 L101.460674157 187.584269663 L101.460674157 187.191011236 L101.853932584 186.797752809 L101.853932584 186.404494382 L102.640449438 185.617977528 L102.640449438 185.224719101 L103.033707865 184.831460674 L103.033707865 184.438202247 L103.426966292 184.04494382 L103.426966292 183.651685393 L103.820224719 183.258426966 L103.820224719 182.865168539 L104.213483146 182.471910112 L104.213483146 182.34082397 L103.820224719 181.947565543 L103.820224719 181.554307116 L103.426966292 181.161048689 L103.426966292 180.767790262 L103.033707865 180.374531835 L103.033707865 179.981273408 L102.640449438 179.588014981 L102.640449438 179.194756554 L102.247191011 178.801498127 L102.247191011 178.4082397 L101.853932584 178.014981273 L101.853932584 177.621722846 L101.460674157 177.228464419 L101.460674157 176.835205993 L100.674157303 176.048689139 L100.674157303 175.655430712 L100.280898876 175.262172285 L100.280898876 174.868913858 L99.4943820225 174.082397004 L99.4943820225 173.689138577 L98.7078651685 172.902621723 L98.7078651685 172.509363296 L97.9213483146 171.722846442 L97.9213483146 171.329588015 L96.7415730337 170.149812734 L96.7415730337 169.756554307 L95.5617977528 168.576779026 L95.5617977528 168.183520599 L93.595505618 166.217228464 L93.595505618 165.823970037 L86.9101123596 159.138576779 L86.5168539326 159.138576779 L84.5505617978 157.172284644 L84.1573033708 157.172284644 L82.9775280899 155.992509363 L82.9775280899 96.7415730337 L84.9438202247 94.7752808989 L85.3370786517 94.7752808989 L88.0898876404 92.0224719101 L88.4831460674 92.0224719101 L92.0224719101 88.4831460674 L92.0224719101 88.0898876404 L94.7752808989 85.3370786517 L94.7752808989 84.9438202247 L96.3483146067 83.3707865169 L96.3483146067 82.9775280899 L97.5280898876 81.797752809 L97.5280898876 81.404494382 L98.3146067416 80.6179775281 L98.3146067416 80.2247191011 L99.1011235955 79.4382022472 L99.1011235955 79.0449438202 L99.8876404494 78.2584269663 L99.8876404494 77.8651685393 L100.280898876 77.4719101124 L100.280898876 77.0786516854 L101.06741573 76.2921348315 L101.06741573 75.8988764045 L101.460674157 75.5056179775 L101.460674157 75.1123595506 L102.247191011 74.3258426966 L102.247191011 73.9325842697 L102.640449438 73.5393258427 L102.640449438 73.1460674157 L103.033707865 72.7528089888 L103.033707865 72.3595505618 L103.426966292 71.9662921348 L103.426966292 71.5730337079 L103.820224719 71.1797752809 L103.820224719 70.7865168539 L104.213483146 70.393258427 L104.213483146 70.2621722846 L103.820224719 69.8689138577 L103.820224719 69.4756554307 L103.426966292 69.0823970037 L103.426966292 68.6891385768 L103.033707865 68.2958801498 L103.033707865 67.9026217228 L102.640449438 67.5093632959 L102.640449438 67.1161048689 L102.247191011 66.7228464419 L102.247191011 66.329588015 L101.853932584 65.936329588 L101.853932584 65.543071161 L101.06741573 64.7565543071 L101.06741573 64.3632958801 L100.674157303 63.9700374532 L100.674157303 63.5767790262 L99.8876404494 62.7902621723 L99.8876404494 62.3970037453 L99.4943820225 62.0037453184 L99.4943820225 61.6104868914 L98.7078651685 60.8239700375 L98.7078651685 60.4307116105 L97.5280898876 59.2509363296 L97.5280898876 58.8576779026 L96.7415730337 58.0711610487 L96.7415730337 57.6779026217 L95.1685393258 56.1048689139 L95.1685393258 55.7116104869 L93.202247191 53.7453183521 L93.202247191 53.3520599251 L87.3033707865 47.4531835206 L86.9101123596 47.4531835206 L84.9438202247 45.4868913858 L84.5505617978 45.4868913858 L82.9775280899 43.9138576779 L82.5842696629 43.9138576779 L81.404494382 42.734082397 L81.0112359551 42.734082397 L80.2247191011 41.9475655431 L79.8314606742 41.9475655431 L79.0449438202 41.1610486891 L78.6516853933 41.1610486891 L77.8651685393 40.3745318352 L77.4719101124 40.3745318352 L77.0786516854 39.9812734082 L76.6853932584 39.9812734082 L75.8988764045 39.1947565543 L75.5056179775 39.1947565543 L75.1123595506 38.8014981273 L74.7191011236 38.8014981273 L74.3258426966 38.4082397004 L73.9325842697 38.4082397004 L73.5393258427 38.0149812734 L73.1460674157 38.0149812734 L72.7528089888 37.6217228464 L72.3595505618 37.6217228464 L71.9662921348 37.2284644195 L71.5730337079 37.2284644195 L71.1797752809 36.8352059925 L70.7865168539 36.8352059925 L70.393258427 36.4419475655 69.8689138577 36.4419475655 " stroke="black" fill="transparent"/>
<path d="M70.2621722846 47.8464419476 L69.4756554307 48.6329588015 L69.0823970037 48.6329588015 L68.6891385768 49.0262172285 L68.2958801498 49.0262172285 L67.1161048689 50.2059925094 L66.7228464419 50.2059925094 L65.936329588 50.9925093633 L65.543071161 50.9925093633 L64.3632958801 52.1722846442 L63.9700374532 52.1722846442 L62.0037453184 54.138576779 L61.6104868914 54.138576779 L54.138576779 61.6104868914 L54.138576779 62.0037453184 L52.1722846442 63.9700374532 L52.1722846442 64.3632958801 L50.9925093633 65.543071161 L50.9925093633 65.936329588 L50.2059925094 66.7228464419 L50.2059925094 67.1161048689 L49.0262172285 68.2958801498 L49.0262172285 68.6891385768 L48.6329588015 69.0823970037 L48.6329588015 69.4756554307 L47.8464419476 70.2621722846 L47.8464419476 70.5243445693 L48.6329588015 71.3108614232 L48.6329588015 71.7041198502 L49.4194756554 72.4906367041 L49.4194756554 72.8838951311 L50.2059925094 73.670411985 L50.2059925094 74.063670412 L51.3857677903 75.2434456929 L51.3857677903 75.6367041199 L52.9588014981 77.2097378277 L52.9588014981 77.6029962547 L54.925093633 79.5692883895 L54.925093633 79.9625468165 L60.8239700375 85.861423221 L61.2172284644 85.861423221 L63.1835205993 87.8277153558 L63.5767790262 87.8277153558 L65.1498127341 89.4007490637 L65.1498127341 163.464419476 L64.3632958801 164.25093633 L63.9700374532 164.25093633 L62.3970037453 165.823970037 L62.0037453184 165.823970037 L53.7453183521 174.082397004 L53.7453183521 174.475655431 L52.1722846442 176.048689139 L52.1722846442 176.441947566 L50.9925093633 177.621722846 L50.9925093633 178.014981273 L49.8127340824 179.194756554 L49.8127340824 179.588014981 L49.0262172285 180.374531835 L49.0262172285 180.767790262 L48.2397003745 181.554307116 L48.2397003745 181.947565543 L47.9775280899 182.209737828 L47.9775280899 182.34082397 L48.2397003745 182.602996255 L48.2397003745 182.996254682 L48.6329588015 183.389513109 L48.6329588015 183.782771536 L49.4194756554 184.56928839 L49.4194756554 184.962546816 L50.5992509363 186.142322097 L50.5992509363 186.535580524 L51.3857677903 187.322097378 L51.3857677903 187.715355805 L52.9588014981 189.288389513 L52.9588014981 189.68164794 L55.3183520599 192.041198502 L55.3183520599 192.434456929 L60.4307116105 197.546816479 L60.8239700375 197.546816479 L63.1835205993 199.906367041 L63.5767790262 199.906367041 L64.7565543071 201.086142322 L65.1498127341 201.086142322 L66.329588015 202.265917603 L66.7228464419 202.265917603 L67.5093632959 203.052434457 L67.9026217228 203.052434457 L68.6891385768 203.838951311 L69.0823970037 203.838951311 L69.8689138577 204.625468165 L70.2621722846 204.625468165 L70.393258427 204.756554307 L70.5243445693 204.625468165 L70.9176029963 204.625468165 L71.7041198502 203.838951311 L72.0973782772 203.838951311 L72.8838951311 203.052434457 L73.2771535581 203.052434457 L74.456928839 201.872659176 L74.8501872659 201.872659176 L76.0299625468 200.692883895 L76.4232209738 200.692883895 L77.9962546816 199.119850187 L78.3895131086 199.119850187 L81.1423220974 196.367041199 L81.5355805243 196.367041199 L84.2883895131 193.61423221 L84.2883895131 193.220973783 L87.0411985019 190.468164794 L87.0411985019 190.074906367 L88.6142322097 188.501872659 L88.6142322097 188.108614232 L89.7940074906 186.928838951 L89.7940074906 186.535580524 L90.9737827715 185.355805243 L90.9737827715 184.962546816 L91.7602996255 184.176029963 L91.7602996255 183.782771536 L92.5468164794 182.996254682 L92.5468164794 182.602996255 L92.808988764 182.34082397 L92.808988764 182.209737828 L92.1535580524 181.554307116 L92.1535580524 181.161048689 L91.3670411985 180.374531835 L91.3670411985 179.981273408 L90.5805243446 179.194756554 L90.5805243446 178.801498127 L89.4007490637 177.621722846 L89.4007490637 177.228464419 L88.2209737828 176.048689139 L88.2209737828 175.655430712 L86.2546816479 173.689138577 L86.2546816479 173.29588015 L79.5692883895 166.610486891 L79.1760299625 166.610486891 L77.2097378277 164.644194757 L76.8164794007 164.644194757 L75.6367041199 163.464419476 L75.6367041199 89.4007490637 L77.6029962547 87.4344569288 L77.9962546816 87.4344569288 L80.7490636704 84.6816479401 L81.1423220974 84.6816479401 L84.6816479401 81.1423220974 L84.6816479401 80.7490636704 L87.4344569288 77.9962546816 L87.4344569288 77.6029962547 L89.0074906367 76.0299625468 L89.0074906367 75.6367041199 L90.1872659176 74.456928839 L90.1872659176 74.063670412 L90.9737827715 73.2771535581 L90.9737827715 72.8838951311 L91.7602996255 72.0973782772 L91.7602996255 71.7041198502 L92.5468164794 70.9176029963 L92.5468164794 70.5243445693 L92.6779026217 70.393258427 L92.5468164794 70.2621722846 L92.5468164794 69.8689138577 L92.1535580524 69.4756554307 L92.1535580524 69.0823970037 L91.3670411985 68.2958801498 L91.3670411985 67.9026217228 L90.1872659176 66.7228464419 L90.1872659176 66.329588015 L89.4007490637 65.543071161 L89.4007490637 65.1498127341 L87.8277153558 63.5767790262 L87.8277153558 63.1835205993 L85.861423221 61.2172284644 L85.861423221 60.8239700375 L79.9625468165 54.925093633 L79.5692883895 54.925093633 L77.6029962547 52.9588014981 L77.2097378277 52.9588014981 L75.6367041199 51.3857677903 L75.2434456929 51.3857677903 L74.063670412 50.2059925094 L73.670411985 50.2059925094 L72.8838951311 49.4194756554 L72.4906367041 49.4194756554 L71.7041198502 48.6329588015 L71.3108614232 48.6329588015 L70.5243445693 47.8464419476 70.2621722846 47.8464419476 " stroke="black" fill="transparent"/>
<path d="M70.393258427 172.771535581 L69.8689138577 173.29588015 L69.4756554307 173.29588015 L61.2172284644 181.554307116 L61.2172284644 181.947565543 L60.6928838951 182.471910112 L60.6928838951 182.602996255 L62.7902621723 184.700374532 L62.7902621723 185.093632959 L67.9026217228 190.205992509 L68.2958801498 190.205992509 L70.2621722846 192.172284644 L70.6554307116 191.779026217 L71.0486891386 191.779026217 L73.8014981273 189.026217228 L74.1947565543 189.026217228 L76.9475655431 186.27340824 L76.9475655431 185.880149813 L79.7003745318 183.127340824 L79.7003745318 182.734082397 L80.0936329588 182.34082397 L78.9138576779 181.161048689 L78.9138576779 180.767790262 L72.2284644195 174.082397004 L71.8352059925 174.082397004 L70.5243445693 172.771535581 70.393258427 172.771535581 " stroke="black" fill="transparent"/>
<path d="M70.393258427 60.6928838951 L69.4756554307 61.6104868914 L69.0823970037 61.6104868914 L61.6104868914 69.0823970037 L61.6104868914 69.4756554307 L60.6928838951 70.393258427 L60.6928838951 70.5243445693 L62.3970037453 72.2284644195 L62.3970037453 72.6217228464 L68.2958801498 78.5205992509 L68.6891385768 78.5205992509 L70.2621722846 80.0936329588 L70.6554307116 80.0936329588 L73.4082397004 77.34082397 L73.8014981273 77.34082397 L77.34082397 73.8014981273 L77.34082397 73.4082397004 L80.0936329588 70.6554307116 L80.0936329588 70.2621722846 L78.5205992509 68.6891385768 L78.5205992509 68.2958801498 L72.6217228464 62.3970037453 L72.2284644195 62.3970037453 L70.5243445693 60.6928838951 70.393258427 60.6928838951 " stroke="black" fill="transparent"/>
</svg>