<svg width="300.0mm" height="347.8865406006674mm" xmlns="http://www.w3.org/2000/svg" fill="transparent" ><path d="M295.606229143 339.321468298 L295.606229143 343.381535039 L295.494994438 343.492769744 L291.434927697 343.492769744 L291.434927697 343.82647386 L295.494994438 343.82647386 L295.606229143 343.937708565 L295.606229143 347.886540601 L295.773081201 347.886540601 L295.773081201 343.937708565 L295.884315907 343.82647386 L300.0 343.82647386 L300.0 343.492769744 L295.884315907 343.492769744 L295.773081201 343.381535039 L295.773081201 339.321468298 295.606229143 339.321468298 " stroke="black" fill="transparent"/>
<path d="M4.11568409344 339.321468298 L4.11568409344 343.381535039 L4.00444938821 343.492769744 L0.055617352614 343.492769744 L0.055617352614 343.82647386 L4.00444938821 343.82647386 L4.11568409344 343.937708565 L4.11568409344 347.886540601 L4.44938820912 347.886540601 L4.44938820912 343.937708565 L4.56062291435 343.82647386 L8.62068965517 343.82647386 L8.62068965517 343.492769744 L4.56062291435 343.492769744 L4.44938820912 343.381535039 L4.44938820912 339.321468298 4.11568409344 339.321468298 " stroke="black" fill="transparent"/>
<path d="M198.498331479 160.622914349 L198.498331479 160.678531702 L198.387096774 160.789766407 L198.164627364 160.789766407 L198.164627364 160.84538376 L198.053392659 160.956618465 L197.997775306 160.956618465 L197.997775306 161.012235818 L197.886540601 161.123470523 L197.66407119 161.123470523 L197.66407119 161.179087875 L197.552836485 161.290322581 L197.330367075 161.290322581 L197.330367075 161.345939933 L197.219132369 161.457174638 L197.163515017 161.457174638 L197.163515017 161.512791991 L197.052280311 161.624026696 L196.829810901 161.624026696 L196.829810901 161.679644049 L196.718576196 161.790878754 L196.496106785 161.790878754 L196.496106785 161.846496107 L196.38487208 161.957730812 L196.16240267 161.957730812 L196.16240267 162.013348165 L196.051167964 162.12458287 L195.828698554 162.12458287 L195.828698554 162.180200222 L195.717463849 162.291434928 L195.32814238 162.291434928 L195.32814238 162.34705228 L195.216907675 162.458286986 L194.994438265 162.458286986 L194.994438265 162.513904338 L194.88320356 162.625139043 L194.660734149 162.625139043 L194.660734149 162.680756396 L194.549499444 162.791991101 L194.160177976 162.791991101 L194.160177976 162.847608454 L194.04894327 162.958843159 L193.659621802 162.958843159 L193.659621802 163.014460512 L193.548387097 163.125695217 L193.159065628 163.125695217 L193.159065628 163.18131257 L193.047830923 163.292547275 L192.658509455 163.292547275 L192.658509455 163.348164627 L192.54727475 163.459399333 L192.157953281 163.459399333 L192.157953281 163.515016685 L192.046718576 163.62625139 L191.49054505 163.62625139 L191.49054505 163.681868743 L191.379310345 163.793103448 L190.823136819 163.793103448 L190.823136819 163.848720801 L190.711902113 163.959955506 L189.988876529 163.959955506 L189.988876529 164.015572859 L189.877641824 164.126807564 L189.15461624 164.126807564 L189.15461624 164.182424917 L189.043381535 164.293659622 L188.153503893 164.293659622 L188.153503893 164.349276974 L188.042269188 164.46051168 L186.651835373 164.46051168 L186.651835373 164.516129032 L186.540600667 164.627363737 L180.255839822 164.627363737 L180.144605117 164.516129032 L180.144605117 164.46051168 L178.754171301 164.46051168 L178.642936596 164.349276974 L178.642936596 164.293659622 L177.586206897 164.293659622 L177.474972191 164.182424917 L177.474972191 164.126807564 L176.585094549 164.126807564 L176.473859844 164.015572859 L176.473859844 163.959955506 L175.583982202 163.959955506 L175.472747497 163.848720801 L175.472747497 163.793103448 L174.916573971 163.793103448 L174.805339266 163.681868743 L174.805339266 163.62625139 L174.082313682 163.62625139 L173.971078977 163.515016685 L173.971078977 163.459399333 L173.637374861 163.459399333 L173.637374861 167.130144605 L173.692992214 167.130144605 L173.804226919 167.24137931 L173.804226919 176.640711902 L173.859844271 176.640711902 L173.971078977 176.751946607 L173.971078977 196.551724138 L173.859844271 196.662958843 L173.804226919 196.662958843 L173.804226919 205.228031146 L173.692992214 205.339265851 L173.637374861 205.339265851 L173.637374861 210.734149055 L173.526140156 210.84538376 L173.470522803 210.84538376 L173.470522803 214.905450501 L173.359288098 215.016685206 L173.303670745 215.016685206 L173.303670745 218.409343715 L173.19243604 218.52057842 L173.136818687 218.52057842 L173.136818687 221.412680756 L173.025583982 221.523915462 L172.96996663 221.523915462 L172.96996663 224.082313682 L172.858731924 224.193548387 L172.803114572 224.193548387 L172.803114572 226.418242492 L172.691879867 226.529477197 L172.636262514 226.529477197 L172.636262514 228.587319244 L172.525027809 228.698553949 L172.469410456 228.698553949 L172.469410456 230.589543938 L172.358175751 230.700778643 L172.302558398 230.700778643 L172.302558398 232.258064516 L172.191323693 232.369299221 L172.13570634 232.369299221 L172.13570634 233.926585095 L172.024471635 234.0378198 L171.968854283 234.0378198 L171.968854283 235.595105673 L171.857619577 235.706340378 L171.802002225 235.706340378 L171.802002225 236.929922136 L171.690767519 237.041156841 L171.635150167 237.041156841 L171.635150167 238.264738598 L171.523915462 238.375973304 L171.468298109 238.375973304 L171.468298109 239.599555061 L171.357063404 239.710789766 L171.301446051 239.710789766 L171.301446051 240.767519466 L171.190211346 240.878754171 L171.134593993 240.878754171 L171.134593993 241.935483871 L171.023359288 242.046718576 L170.967741935 242.046718576 L170.967741935 242.936596218 L170.85650723 243.047830923 L170.800889878 243.047830923 L170.800889878 243.937708565 L170.689655172 244.04894327 L170.63403782 244.04894327 L170.63403782 244.938820912 L170.522803115 245.050055617 L170.467185762 245.050055617 L170.467185762 245.773081201 L170.355951057 245.884315907 L170.300333704 245.884315907 L170.300333704 246.607341491 L170.189098999 246.718576196 L170.133481646 246.718576196 L170.133481646 247.44160178 L170.022246941 247.552836485 L169.966629588 247.552836485 L169.966629588 248.275862069 L169.855394883 248.387096774 L169.799777531 248.387096774 L169.799777531 248.9432703 L169.688542825 249.054505006 L169.632925473 249.054505006 L169.632925473 249.610678532 L169.521690768 249.721913237 L169.466073415 249.721913237 L169.466073415 250.278086763 L169.35483871 250.389321468 L169.299221357 250.389321468 L169.299221357 250.945494994 L169.187986652 251.0567297 L169.132369299 251.0567297 L169.132369299 251.446051168 L169.021134594 251.557285873 L168.965517241 251.557285873 L168.965517241 252.113459399 L168.854282536 252.224694105 L168.798665184 252.224694105 L168.798665184 252.947719689 L168.687430478 253.058954394 L168.631813126 253.058954394 L168.631813126 253.781979978 L168.52057842 253.893214683 L168.464961068 253.893214683 L168.464961068 254.449388209 L168.353726363 254.560622914 L168.29810901 254.560622914 L168.29810901 255.11679644 L168.186874305 255.228031146 L168.131256952 255.228031146 L168.131256952 255.784204672 L168.020022247 255.895439377 L167.964404894 255.895439377 L167.964404894 256.451612903 L167.853170189 256.562847608 L167.797552836 256.562847608 L167.797552836 257.119021135 L167.686318131 257.23025584 L167.630700779 257.23025584 L167.630700779 257.619577308 L167.519466073 257.730812013 L167.463848721 257.730812013 L167.463848721 258.120133482 L167.352614016 258.231368187 L167.296996663 258.231368187 L167.296996663 258.787541713 L167.185761958 258.898776418 L167.130144605 258.898776418 L167.130144605 259.288097887 L167.0189099 259.399332592 L166.963292547 259.399332592 L166.963292547 259.78865406 L166.852057842 259.899888765 L166.796440489 259.899888765 L166.796440489 260.289210234 L166.685205784 260.400444939 L166.629588432 260.400444939 L166.629588432 260.789766407 L166.518353726 260.901001112 L166.462736374 260.901001112 L166.462736374 261.290322581 L166.351501669 261.401557286 L166.295884316 261.401557286 L166.295884316 261.624026696 L166.184649611 261.735261402 L166.129032258 261.735261402 L166.129032258 262.12458287 L166.017797553 262.235817575 L165.9621802 262.235817575 L165.9621802 262.625139043 L165.850945495 262.736373749 L165.795328142 262.736373749 L165.795328142 262.958843159 L165.684093437 263.070077864 L165.628476085 263.070077864 L165.628476085 263.459399333 L165.517241379 263.570634038 L165.461624027 263.570634038 L165.461624027 263.793103448 L165.350389321 263.904338154 L165.294771969 263.904338154 L165.294771969 264.126807564 L165.183537264 264.238042269 L165.127919911 264.238042269 L165.127919911 264.46051168 L165.016685206 264.571746385 L164.961067853 264.571746385 L164.961067853 264.961067853 L164.849833148 265.072302558 L164.794215795 265.072302558 L164.794215795 265.294771969 L164.68298109 265.406006674 L164.627363737 265.406006674 L164.627363737 265.628476085 L164.516129032 265.73971079 L164.46051168 265.73971079 L164.46051168 265.9621802 L164.349276974 266.073414905 L164.293659622 266.073414905 L164.293659622 266.295884316 L164.182424917 266.407119021 L164.126807564 266.407119021 L164.126807564 266.629588432 L164.015572859 266.740823137 L163.959955506 266.740823137 L163.959955506 266.963292547 L163.848720801 267.074527253 L163.793103448 267.074527253 L163.793103448 267.296996663 L163.681868743 267.408231368 L163.62625139 267.408231368 L163.62625139 267.463848721 L163.515016685 267.575083426 L163.459399333 267.575083426 L163.459399333 267.797552836 L163.348164627 267.908787542 L163.292547275 267.908787542 L163.292547275 268.131256952 L163.18131257 268.242491657 L163.125695217 268.242491657 L163.125695217 268.29810901 L163.014460512 268.409343715 L162.958843159 268.409343715 L162.958843159 268.631813126 L162.847608454 268.743047831 L162.791991101 268.743047831 L162.791991101 268.965517241 L162.680756396 269.076751947 L162.625139043 269.076751947 L162.625139043 269.132369299 L162.513904338 269.243604004 L162.458286986 269.243604004 L162.458286986 269.466073415 L162.34705228 269.57730812 L162.291434928 269.57730812 L162.291434928 269.632925473 L162.180200222 269.744160178 L162.12458287 269.744160178 L162.12458287 269.799777531 L162.013348165 269.911012236 L161.957730812 269.911012236 L161.957730812 270.133481646 L161.846496107 270.244716352 L161.790878754 270.244716352 L161.790878754 270.300333704 L161.679644049 270.411568409 L161.624026696 270.411568409 L161.624026696 270.467185762 L161.512791991 270.578420467 L161.457174638 270.578420467 L161.457174638 270.800889878 L161.345939933 270.912124583 L161.290322581 270.912124583 L161.290322581 270.967741935 L161.179087875 271.078976641 L161.123470523 271.078976641 L161.123470523 271.134593993 L161.012235818 271.245828699 L160.956618465 271.245828699 L160.956618465 271.301446051 L160.84538376 271.412680756 L160.789766407 271.412680756 L160.789766407 271.468298109 L160.678531702 271.579532814 L160.622914349 271.579532814 L160.622914349 271.635150167 L160.511679644 271.746384872 L160.456062291 271.746384872 L160.456062291 271.802002225 L160.344827586 271.91323693 L160.289210234 271.91323693 L160.289210234 271.968854283 L160.177975528 272.080088988 L160.122358176 272.080088988 L160.122358176 272.13570634 L160.011123471 272.246941046 L159.955506118 272.246941046 L159.955506118 272.302558398 L159.844271413 272.413793103 L159.78865406 272.413793103 L159.78865406 272.469410456 L159.677419355 272.580645161 L159.621802002 272.580645161 L159.621802002 272.636262514 L159.510567297 272.747497219 L159.454949944 272.747497219 L159.454949944 272.803114572 L159.343715239 272.914349277 L159.288097887 272.914349277 L159.288097887 272.96996663 L159.176863181 273.081201335 L159.121245829 273.081201335 L159.121245829 273.136818687 L159.010011123 273.248053393 L158.954393771 273.248053393 L158.954393771 273.303670745 L158.843159066 273.414905451 L158.620689655 273.414905451 L158.620689655 273.470522803 L158.50945495 273.581757508 L158.453837597 273.581757508 L158.453837597 273.637374861 L158.342602892 273.748609566 L158.120133482 273.748609566 L158.120133482 273.804226919 L158.008898776 273.915461624 L157.953281424 273.915461624 L157.953281424 273.971078977 L157.842046719 274.082313682 L157.619577308 274.082313682 L157.619577308 274.137931034 L157.508342603 274.24916574 L157.285873192 274.24916574 L157.285873192 274.304783092 L157.174638487 274.416017798 L156.952169077 274.416017798 L156.952169077 274.47163515 L156.840934372 274.582869855 L156.618464961 274.582869855 L156.618464961 274.638487208 L156.507230256 274.749721913 L156.284760845 274.749721913 L156.284760845 274.805339266 L156.17352614 274.916573971 L155.784204672 274.916573971 L155.784204672 274.972191324 L155.672969967 275.083426029 L155.11679644 275.083426029 L155.11679644 275.139043382 L155.005561735 275.250278087 L153.948832036 275.250278087 L153.948832036 275.305895439 L153.83759733 275.417130145 L152.55839822 275.417130145 L152.447163515 275.305895439 L152.447163515 275.250278087 L146.885428254 275.250278087 L146.774193548 275.139043382 L146.774193548 275.083426029 L139.543937709 275.083426029 L139.432703003 274.972191324 L139.432703003 274.916573971 L121.078976641 274.916573971 L121.078976641 274.972191324 L120.967741935 275.083426029 L118.743047831 275.083426029 L118.743047831 275.139043382 L118.631813126 275.250278087 L117.741935484 275.250278087 L117.741935484 275.305895439 L117.630700779 275.417130145 L117.24137931 275.417130145 L117.24137931 275.472747497 L117.130144605 275.583982202 L116.573971079 275.583982202 L116.573971079 275.639599555 L116.462736374 275.75083426 L116.073414905 275.75083426 L116.073414905 275.806451613 L115.9621802 275.917686318 L115.406006674 275.917686318 L115.406006674 275.973303671 L115.294771969 276.084538376 L114.905450501 276.084538376 L114.905450501 276.140155729 L114.794215795 276.251390434 L114.238042269 276.251390434 L114.238042269 276.307007786 L114.126807564 276.418242492 L113.737486096 276.418242492 L113.737486096 276.473859844 L113.62625139 276.585094549 L113.236929922 276.585094549 L113.236929922 276.640711902 L113.125695217 276.751946607 L112.736373749 276.751946607 L112.736373749 276.80756396 L112.625139043 276.918798665 L112.402669633 276.918798665 L112.402669633 276.974416018 L112.291434928 277.085650723 L111.902113459 277.085650723 L111.902113459 277.141268076 L111.790878754 277.252502781 L111.568409344 277.252502781 L111.568409344 277.308120133 L111.457174638 277.419354839 L111.06785317 277.419354839 L111.06785317 277.474972191 L110.956618465 277.586206897 L110.734149055 277.586206897 L110.734149055 277.641824249 L110.622914349 277.753058954 L110.400444939 277.753058954 L110.400444939 277.808676307 L110.289210234 277.919911012 L110.066740823 277.919911012 L110.066740823 277.975528365 L109.955506118 278.08676307 L109.733036707 278.08676307 L109.733036707 278.142380423 L109.621802002 278.253615128 L109.399332592 278.253615128 L109.399332592 278.309232481 L109.288097887 278.420467186 L109.065628476 278.420467186 L109.065628476 278.476084538 L108.954393771 278.587319244 L108.73192436 278.587319244 L108.73192436 278.642936596 L108.620689655 278.754171301 L108.398220245 278.754171301 L108.398220245 278.809788654 L108.286985539 278.921023359 L108.064516129 278.921023359 L108.064516129 278.976640712 L107.953281424 279.087875417 L107.897664071 279.087875417 L107.897664071 279.14349277 L107.786429366 279.254727475 L107.563959956 279.254727475 L107.563959956 279.310344828 L107.45272525 279.421579533 L107.23025584 279.421579533 L107.23025584 279.477196885 L107.119021135 279.588431591 L107.063403782 279.588431591 L107.063403782 279.644048943 L106.952169077 279.755283648 L106.729699666 279.755283648 L106.729699666 279.810901001 L106.618464961 279.922135706 L106.395995551 279.922135706 L106.395995551 279.977753059 L106.284760845 280.088987764 L106.229143493 280.088987764 L106.229143493 280.144605117 L106.117908788 280.255839822 L105.895439377 280.255839822 L105.895439377 280.311457175 L105.784204672 280.42269188 L105.728587319 280.42269188 L105.728587319 280.478309232 L105.617352614 280.589543938 L105.394883204 280.589543938 L105.394883204 280.64516129 L105.283648498 280.756395996 L105.228031146 280.756395996 L105.228031146 280.812013348 L105.11679644 280.923248053 L104.89432703 280.923248053 L104.89432703 280.978865406 L104.783092325 281.090100111 L104.727474972 281.090100111 L104.727474972 281.145717464 L104.616240267 281.256952169 L104.560622914 281.256952169 L104.560622914 281.312569522 L104.449388209 281.423804227 L104.226918799 281.423804227 L104.226918799 281.47942158 L104.115684093 281.590656285 L104.060066741 281.590656285 L104.060066741 281.646273637 L103.948832036 281.757508343 L103.726362625 281.757508343 L103.726362625 281.813125695 L103.61512792 281.9243604 L103.559510567 281.9243604 L103.559510567 281.979977753 L103.448275862 282.091212458 L103.392658509 282.091212458 L103.392658509 282.146829811 L103.281423804 282.258064516 L103.058954394 282.258064516 L103.058954394 282.313681869 L102.947719689 282.424916574 L102.892102336 282.424916574 L102.892102336 282.480533927 L102.780867631 282.591768632 L102.725250278 282.591768632 L102.725250278 282.647385984 L102.614015573 282.75862069 L102.55839822 282.75862069 L102.55839822 282.814238042 L102.447163515 282.925472747 L102.224694105 282.925472747 L102.224694105 282.9810901 L102.113459399 283.092324805 L102.057842047 283.092324805 L102.057842047 283.147942158 L101.946607341 283.259176863 L101.890989989 283.259176863 L101.890989989 283.314794216 L101.779755284 283.426028921 L101.724137931 283.426028921 L101.724137931 283.481646274 L101.612903226 283.592880979 L101.390433815 283.592880979 L101.390433815 283.648498331 L101.27919911 283.759733037 L101.223581758 283.759733037 L101.223581758 283.815350389 L101.112347052 283.926585095 L101.0567297 283.926585095 L101.0567297 283.982202447 L100.945494994 284.093437152 L100.889877642 284.093437152 L100.889877642 284.149054505 L100.778642937 284.26028921 L100.556173526 284.26028921 L100.556173526 284.315906563 L100.444938821 284.427141268 L100.389321468 284.427141268 L100.389321468 284.482758621 L100.278086763 284.593993326 L100.22246941 284.593993326 L100.22246941 284.649610679 L100.111234705 284.760845384 L100.055617353 284.760845384 L100.055617353 284.816462736 L99.9443826474 284.927697442 L99.8887652948 284.927697442 L99.8887652948 284.983314794 L99.7775305895 285.094549499 L99.5550611791 285.094549499 L99.5550611791 285.150166852 L99.4438264739 285.261401557 L99.3882091212 285.261401557 L99.3882091212 285.31701891 L99.276974416 285.428253615 L99.2213570634 285.428253615 L99.2213570634 285.483870968 L99.1101223582 285.595105673 L98.8876529477 285.595105673 L98.8876529477 285.650723026 L98.7764182425 285.761957731 L98.7208008899 285.761957731 L98.7208008899 285.817575083 L98.6095661846 285.928809789 L98.553948832 285.928809789 L98.553948832 285.984427141 L98.4427141268 286.095661846 L98.3870967742 286.095661846 L98.3870967742 286.151279199 L98.275862069 286.262513904 L98.0533926585 286.262513904 L98.0533926585 286.318131257 L97.9421579533 286.429365962 L97.8865406007 286.429365962 L97.8865406007 286.484983315 L97.7753058954 286.59621802 L97.7196885428 286.59621802 L97.7196885428 286.651835373 L97.6084538376 286.763070078 L97.3859844271 286.763070078 L97.3859844271 286.81868743 L97.2747497219 286.929922136 L97.2191323693 286.929922136 L97.2191323693 286.985539488 L97.1078976641 287.096774194 L97.0522803115 287.096774194 L97.0522803115 287.152391546 L96.9410456062 287.263626251 L96.7185761958 287.263626251 L96.7185761958 287.319243604 L96.6073414905 287.430478309 L96.5517241379 287.430478309 L96.5517241379 287.486095662 L96.4404894327 287.597330367 L96.3848720801 287.597330367 L96.3848720801 287.65294772 L96.2736373749 287.764182425 L96.0511679644 287.764182425 L96.0511679644 287.819799778 L95.9399332592 287.931034483 L95.8843159066 287.931034483 L95.8843159066 287.986651835 L95.7730812013 288.097886541 L95.7174638487 288.097886541 L95.7174638487 288.153503893 L95.6062291435 288.264738598 L95.383759733 288.264738598 L95.383759733 288.320355951 L95.2725250278 288.431590656 L95.2169076752 288.431590656 L95.2169076752 288.487208009 L95.10567297 288.598442714 L95.0500556174 288.598442714 L95.0500556174 288.654060067 L94.9388209121 288.765294772 L94.7163515017 288.765294772 L94.7163515017 288.820912125 L94.6051167964 288.93214683 L94.5494994438 288.93214683 L94.5494994438 288.987764182 L94.4382647386 289.098998888 L94.382647386 289.098998888 L94.382647386 289.15461624 L94.2714126808 289.265850945 L94.0489432703 289.265850945 L94.0489432703 289.321468298 L93.9377085651 289.432703003 L93.8820912125 289.432703003 L93.8820912125 289.488320356 L93.7708565072 289.599555061 L93.7152391546 289.599555061 L93.7152391546 289.655172414 L93.6040044494 289.766407119 L93.3815350389 289.766407119 L93.3815350389 289.822024472 L93.2703003337 289.933259177 L93.2146829811 289.933259177 L93.2146829811 289.988876529 L93.1034482759 290.100111235 L93.0478309232 290.100111235 L93.0478309232 290.155728587 L92.936596218 290.266963293 L92.8809788654 290.266963293 L92.8809788654 290.322580645 L92.7697441602 290.43381535 L92.5472747497 290.43381535 L92.5472747497 290.489432703 L92.4360400445 290.600667408 L92.3804226919 290.600667408 L92.3804226919 290.656284761 L92.2691879867 290.767519466 L92.213570634 290.767519466 L92.213570634 290.823136819 L92.1023359288 290.934371524 L92.0467185762 290.934371524 L92.0467185762 290.989988877 L91.935483871 291.101223582 L91.8798665184 291.101223582 L91.8798665184 291.156840934 L91.7686318131 291.26807564 L91.7130144605 291.26807564 L91.7130144605 291.323692992 L91.6017797553 291.434927697 L91.5461624027 291.434927697 L91.5461624027 291.49054505 L91.4349276974 291.601779755 L91.3793103448 291.601779755 L91.3793103448 291.657397108 L91.2680756396 291.768631813 L91.212458287 291.768631813 L91.212458287 291.824249166 L91.1012235818 291.935483871 L91.0456062291 291.935483871 L91.0456062291 292.157953281 L90.9343715239 292.269187987 L90.8787541713 292.269187987 L90.8787541713 292.324805339 L90.7675194661 292.436040044 L90.7119021135 292.436040044 L90.7119021135 292.491657397 L90.6006674082 292.602892102 L90.5450500556 292.602892102 L90.5450500556 292.825361513 L90.4338153504 292.936596218 L90.3781979978 292.936596218 L90.3781979978 293.159065628 L90.2669632925 293.270300334 L90.2113459399 293.270300334 L90.2113459399 293.492769744 L90.1001112347 293.604004449 L90.0444938821 293.604004449 L90.0444938821 293.993325918 L89.9332591769 294.104560623 L89.8776418242 294.104560623 L89.8776418242 294.660734149 L89.766407119 294.771968854 L89.7107897664 294.771968854 L89.7107897664 297.107897664 L89.766407119 297.107897664 L89.8776418242 297.219132369 L89.8776418242 298.109010011 L89.9332591769 298.109010011 L90.0444938821 298.220244716 L90.0444938821 298.776418242 L90.1001112347 298.776418242 L90.2113459399 298.887652948 L90.2113459399 299.276974416 L90.2669632925 299.276974416 L90.3781979978 299.388209121 L90.3781979978 300.611790879 L90.4338153504 300.611790879 L90.5450500556 300.723025584 L90.5450500556 301.27919911 L90.6006674082 301.27919911 L90.7119021135 301.390433815 L90.7119021135 301.612903226 L90.7675194661 301.612903226 L90.8787541713 301.724137931 L90.8787541713 301.946607341 L90.9343715239 301.946607341 L91.0456062291 302.057842047 L91.0456062291 302.280311457 L91.1012235818 302.280311457 L91.212458287 302.391546162 L91.212458287 302.447163515 L91.2680756396 302.447163515 L91.3793103448 302.55839822 L91.3793103448 302.614015573 L91.4349276974 302.614015573 L91.5461624027 302.725250278 L91.5461624027 302.947719689 L91.6017797553 302.947719689 L91.7130144605 303.058954394 L91.7130144605 303.114571746 L91.7686318131 303.114571746 L91.8798665184 303.225806452 L91.8798665184 303.281423804 L91.935483871 303.281423804 L92.0467185762 303.392658509 L92.0467185762 303.448275862 L92.2691879867 303.448275862 L92.3804226919 303.559510567 L92.3804226919 303.61512792 L92.4360400445 303.61512792 L92.5472747497 303.726362625 L92.5472747497 303.781979978 L92.6028921023 303.781979978 L92.7141268076 303.893214683 L92.7141268076 303.948832036 L92.936596218 303.948832036 L93.0478309232 304.060066741 L93.0478309232 304.115684093 L93.1034482759 304.115684093 L93.2146829811 304.226918799 L93.2146829811 304.282536151 L93.4371523915 304.282536151 L93.5483870968 304.393770857 L93.5483870968 304.449388209 L93.6040044494 304.449388209 L93.7152391546 304.560622914 L93.7152391546 304.616240267 L93.9377085651 304.616240267 L94.0489432703 304.727474972 L94.0489432703 304.783092325 L94.4382647386 304.783092325 L94.5494994438 304.89432703 L94.5494994438 304.949944383 L94.7719688543 304.949944383 L94.8832035595 305.061179088 L94.8832035595 305.11679644 L95.10567297 305.11679644 L95.2169076752 305.228031146 L95.2169076752 305.283648498 L95.6062291435 305.283648498 L95.7174638487 305.394883204 L95.7174638487 305.450500556 L96.106785317 305.450500556 L96.2180200222 305.561735261 L96.2180200222 305.617352614 L96.7741935484 305.617352614 L96.8854282536 305.728587319 L96.8854282536 305.784204672 L97.4416017798 305.784204672 L97.552836485 305.895439377 L97.552836485 305.95105673 L98.1090100111 305.95105673 L98.2202447164 306.062291435 L98.2202447164 306.117908788 L99.1101223582 306.117908788 L99.2213570634 306.229143493 L99.2213570634 306.284760845 L100.111234705 306.284760845 L100.22246941 306.395995551 L100.22246941 306.451612903 L100.945494994 306.451612903 L101.0567297 306.562847608 L101.0567297 306.618464961 L101.779755284 306.618464961 L101.890989989 306.729699666 L101.890989989 306.785317019 L102.614015573 306.785317019 L102.725250278 306.896551724 L102.725250278 306.952169077 L103.448275862 306.952169077 L103.559510567 307.063403782 L103.559510567 307.119021135 L104.282536151 307.119021135 L104.393770857 307.23025584 L104.393770857 307.285873192 L105.283648498 307.285873192 L105.394883204 307.397107898 L105.394883204 307.45272525 L106.117908788 307.45272525 L106.229143493 307.563959956 L106.229143493 307.619577308 L106.952169077 307.619577308 L107.063403782 307.730812013 L107.063403782 307.786429366 L107.786429366 307.786429366 L107.897664071 307.897664071 L107.897664071 307.953281424 L108.620689655 307.953281424 L108.73192436 308.064516129 L108.73192436 308.120133482 L109.454949944 308.120133482 L109.56618465 308.231368187 L109.56618465 308.286985539 L110.289210234 308.286985539 L110.400444939 308.398220245 L110.400444939 308.453837597 L111.290322581 308.453837597 L111.401557286 308.565072303 L111.401557286 308.620689655 L112.12458287 308.620689655 L112.235817575 308.73192436 L112.235817575 308.787541713 L112.958843159 308.787541713 L113.070077864 308.898776418 L113.070077864 308.954393771 L113.793103448 308.954393771 L113.904338154 309.065628476 L113.904338154 309.121245829 L114.627363737 309.121245829 L114.738598443 309.232480534 L114.738598443 309.288097887 L115.461624027 309.288097887 L115.572858732 309.399332592 L115.572858732 309.454949944 L116.295884316 309.454949944 L116.407119021 309.56618465 L116.407119021 309.621802002 L117.130144605 309.621802002 L117.24137931 309.733036707 L117.24137931 309.78865406 L118.131256952 309.78865406 L118.242491657 309.899888765 L118.242491657 309.955506118 L118.965517241 309.955506118 L119.076751947 310.066740823 L119.076751947 310.122358176 L119.799777531 310.122358176 L119.911012236 310.233592881 L119.911012236 310.289210234 L120.63403782 310.289210234 L120.745272525 310.400444939 L120.745272525 310.456062291 L121.468298109 310.456062291 L121.579532814 310.567296997 L121.579532814 310.622914349 L122.302558398 310.622914349 L122.413793103 310.734149055 L122.413793103 310.789766407 L123.136818687 310.789766407 L123.248053393 310.901001112 L123.248053393 310.956618465 L123.971078977 310.956618465 L124.082313682 311.06785317 L124.082313682 311.123470523 L124.805339266 311.123470523 L124.916573971 311.234705228 L124.916573971 311.290322581 L125.639599555 311.290322581 L125.75083426 311.401557286 L125.75083426 311.457174638 L126.473859844 311.457174638 L126.585094549 311.568409344 L126.585094549 311.624026696 L127.474972191 311.624026696 L127.586206897 311.735261402 L127.586206897 311.790878754 L128.309232481 311.790878754 L128.420467186 311.902113459 L128.420467186 311.957730812 L129.14349277 311.957730812 L129.254727475 312.068965517 L129.254727475 312.12458287 L129.977753059 312.12458287 L130.088987764 312.235817575 L130.088987764 312.291434928 L130.812013348 312.291434928 L130.923248053 312.402669633 L130.923248053 312.458286986 L131.646273637 312.458286986 L131.757508343 312.569521691 L131.757508343 312.625139043 L132.480533927 312.625139043 L132.591768632 312.736373749 L132.591768632 312.791991101 L133.314794216 312.791991101 L133.426028921 312.903225806 L133.426028921 312.958843159 L134.149054505 312.958843159 L134.26028921 313.070077864 L134.26028921 313.125695217 L134.983314794 313.125695217 L135.094549499 313.236929922 L135.094549499 313.292547275 L135.817575083 313.292547275 L135.928809789 313.40378198 L135.928809789 313.459399333 L136.651835373 313.459399333 L136.763070078 313.570634038 L136.763070078 313.62625139 L137.486095662 313.62625139 L137.597330367 313.737486096 L137.597330367 313.793103448 L138.320355951 313.793103448 L138.431590656 313.904338154 L138.431590656 313.959955506 L139.15461624 313.959955506 L139.265850945 314.071190211 L139.265850945 314.126807564 L139.988876529 314.126807564 L140.100111235 314.238042269 L140.100111235 314.293659622 L140.823136819 314.293659622 L140.934371524 314.404894327 L140.934371524 314.46051168 L141.657397108 314.46051168 L141.768631813 314.571746385 L141.768631813 314.627363737 L142.491657397 314.627363737 L142.602892102 314.738598443 L142.602892102 314.794215795 L143.325917686 314.794215795 L143.437152392 314.905450501 L143.437152392 314.961067853 L144.160177976 314.961067853 L144.271412681 315.072302558 L144.271412681 315.127919911 L144.994438265 315.127919911 L145.10567297 315.239154616 L145.10567297 315.294771969 L145.828698554 315.294771969 L145.939933259 315.406006674 L145.939933259 315.461624027 L146.662958843 315.461624027 L146.774193548 315.572858732 L146.774193548 315.628476085 L147.497219132 315.628476085 L147.608453838 315.73971079 L147.608453838 315.795328142 L148.331479422 315.795328142 L148.442714127 315.906562848 L148.442714127 315.9621802 L149.165739711 315.9621802 L149.276974416 316.073414905 L149.276974416 316.129032258 L149.833147942 316.129032258 L149.944382647 316.240266963 L149.944382647 316.295884316 L150.667408231 316.295884316 L150.778642937 316.407119021 L150.778642937 316.462736374 L151.501668521 316.462736374 L151.612903226 316.573971079 L151.612903226 316.629588432 L152.33592881 316.629588432 L152.447163515 316.740823137 L152.447163515 316.796440489 L153.170189099 316.796440489 L153.281423804 316.907675195 L153.281423804 316.963292547 L154.004449388 316.963292547 L154.115684093 317.074527253 L154.115684093 317.130144605 L154.838709677 317.130144605 L154.949944383 317.24137931 L154.949944383 317.296996663 L155.506117909 317.296996663 L155.617352614 317.408231368 L155.617352614 317.463848721 L156.340378198 317.463848721 L156.451612903 317.575083426 L156.451612903 317.630700779 L157.174638487 317.630700779 L157.285873192 317.741935484 L157.285873192 317.797552836 L158.008898776 317.797552836 L158.120133482 317.908787542 L158.120133482 317.964404894 L158.843159066 317.964404894 L158.954393771 318.0756396 L158.954393771 318.131256952 L159.510567297 318.131256952 L159.621802002 318.242491657 L159.621802002 318.29810901 L160.344827586 318.29810901 L160.456062291 318.409343715 L160.456062291 318.464961068 L161.179087875 318.464961068 L161.290322581 318.576195773 L161.290322581 318.631813126 L161.846496107 318.631813126 L161.957730812 318.743047831 L161.957730812 318.798665184 L162.680756396 318.798665184 L162.791991101 318.909899889 L162.791991101 318.965517241 L163.348164627 318.965517241 L163.459399333 319.076751947 L163.459399333 319.132369299 L164.182424917 319.132369299 L164.293659622 319.243604004 L164.293659622 319.299221357 L164.849833148 319.299221357 L164.961067853 319.410456062 L164.961067853 319.466073415 L165.684093437 319.466073415 L165.795328142 319.57730812 L165.795328142 319.632925473 L166.351501669 319.632925473 L166.462736374 319.744160178 L166.462736374 319.799777531 L167.0189099 319.799777531 L167.130144605 319.911012236 L167.130144605 319.966629588 L167.686318131 319.966629588 L167.797552836 320.077864294 L167.797552836 320.133481646 L168.687430478 320.133481646 L168.798665184 320.244716352 L168.798665184 320.300333704 L169.855394883 320.300333704 L169.966629588 320.411568409 L169.966629588 320.467185762 L171.357063404 320.467185762 L171.468298109 320.578420467 L171.468298109 320.63403782 L173.359288098 320.63403782 L173.470522803 320.745272525 L173.470522803 320.800889878 L181.813125695 320.800889878 L181.813125695 320.745272525 L181.9243604 320.63403782 L183.815350389 320.63403782 L183.815350389 320.578420467 L183.926585095 320.467185762 L185.150166852 320.467185762 L185.150166852 320.411568409 L185.261401557 320.300333704 L186.484983315 320.300333704 L186.484983315 320.244716352 L186.59621802 320.133481646 L187.486095662 320.133481646 L187.486095662 320.077864294 L187.597330367 319.966629588 L188.654060067 319.966629588 L188.654060067 319.911012236 L188.765294772 319.799777531 L189.822024472 319.799777531 L189.822024472 319.744160178 L189.933259177 319.632925473 L190.989988877 319.632925473 L190.989988877 319.57730812 L191.101223582 319.466073415 L192.157953281 319.466073415 L192.157953281 319.410456062 L192.269187987 319.299221357 L193.325917686 319.299221357 L193.325917686 319.243604004 L193.437152392 319.132369299 L194.493882091 319.132369299 L194.493882091 319.076751947 L194.605116796 318.965517241 L195.494994438 318.965517241 L195.494994438 318.909899889 L195.606229143 318.798665184 L196.662958843 318.798665184 L196.662958843 318.743047831 L196.774193548 318.631813126 L197.830923248 318.631813126 L197.830923248 318.576195773 L197.942157953 318.464961068 L198.998887653 318.464961068 L198.998887653 318.409343715 L199.110122358 318.29810901 L200.166852058 318.29810901 L200.166852058 318.242491657 L200.278086763 318.131256952 L201.334816463 318.131256952 L201.334816463 318.0756396 L201.446051168 317.964404894 L202.502780868 317.964404894 L202.502780868 317.908787542 L202.614015573 317.797552836 L203.670745273 317.797552836 L203.670745273 317.741935484 L203.781979978 317.630700779 L204.838709677 317.630700779 L204.838709677 317.575083426 L204.949944383 317.463848721 L205.839822024 317.463848721 L205.839822024 317.408231368 L205.95105673 317.296996663 L207.007786429 317.296996663 L207.007786429 317.24137931 L207.119021135 317.130144605 L208.175750834 317.130144605 L208.175750834 317.074527253 L208.286985539 316.963292547 L209.343715239 316.963292547 L209.343715239 316.907675195 L209.454949944 316.796440489 L210.511679644 316.796440489 L210.511679644 316.740823137 L210.622914349 316.629588432 L211.679644049 316.629588432 L211.679644049 316.573971079 L211.790878754 316.462736374 L212.680756396 316.462736374 L212.680756396 316.407119021 L212.791991101 316.295884316 L213.848720801 316.295884316 L213.848720801 316.240266963 L213.959955506 316.129032258 L215.016685206 316.129032258 L215.016685206 316.073414905 L215.127919911 315.9621802 L216.184649611 315.9621802 L216.184649611 315.906562848 L216.295884316 315.795328142 L217.185761958 315.795328142 L217.185761958 315.73971079 L217.296996663 315.628476085 L218.353726363 315.628476085 L218.353726363 315.572858732 L218.464961068 315.461624027 L219.521690768 315.461624027 L219.521690768 315.406006674 L219.632925473 315.294771969 L220.522803115 315.294771969 L220.522803115 315.239154616 L220.63403782 315.127919911 L221.690767519 315.127919911 L221.690767519 315.072302558 L221.802002225 314.961067853 L222.691879867 314.961067853 L222.691879867 314.905450501 L222.803114572 314.794215795 L223.859844271 314.794215795 L223.859844271 314.738598443 L223.971078977 314.627363737 L224.860956618 314.627363737 L224.860956618 314.571746385 L224.972191324 314.46051168 L226.028921023 314.46051168 L226.028921023 314.404894327 L226.140155729 314.293659622 L227.03003337 314.293659622 L227.03003337 314.238042269 L227.141268076 314.126807564 L228.031145717 314.126807564 L228.031145717 314.071190211 L228.142380423 313.959955506 L228.865406007 313.959955506 L228.865406007 313.904338154 L228.976640712 313.793103448 L229.532814238 313.793103448 L229.532814238 313.737486096 L229.644048943 313.62625139 L230.200222469 313.62625139 L230.200222469 313.570634038 L230.311457175 313.459399333 L230.867630701 313.459399333 L230.867630701 313.40378198 L230.978865406 313.292547275 L231.368186874 313.292547275 L231.368186874 313.236929922 L231.47942158 313.125695217 L231.70189099 313.125695217 L231.70189099 313.070077864 L231.813125695 312.958843159 L232.202447164 312.958843159 L232.202447164 312.903225806 L232.313681869 312.791991101 L232.536151279 312.791991101 L232.536151279 312.736373749 L232.647385984 312.625139043 L232.703003337 312.625139043 L232.703003337 312.569521691 L232.814238042 312.458286986 L233.036707453 312.458286986 L233.036707453 312.402669633 L233.147942158 312.291434928 L233.203559511 312.291434928 L233.203559511 312.235817575 L233.314794216 312.12458287 L233.537263626 312.12458287 L233.537263626 312.068965517 L233.648498331 311.957730812 L233.704115684 311.957730812 L233.704115684 311.902113459 L233.815350389 311.790878754 L233.870967742 311.790878754 L233.870967742 311.735261402 L233.982202447 311.624026696 L234.0378198 311.624026696 L234.0378198 311.568409344 L234.149054505 311.457174638 L234.204671858 311.457174638 L234.204671858 311.234705228 L234.315906563 311.123470523 L234.371523915 311.123470523 L234.371523915 311.06785317 L234.482758621 310.956618465 L234.538375973 310.956618465 L234.538375973 310.901001112 L234.649610679 310.789766407 L234.705228031 310.789766407 L234.705228031 310.567296997 L234.816462736 310.456062291 L234.872080089 310.456062291 L234.872080089 310.233592881 L234.983314794 310.122358176 L235.038932147 310.122358176 L235.038932147 309.899888765 L235.150166852 309.78865406 L235.205784205 309.78865406 L235.205784205 309.56618465 L235.31701891 309.454949944 L235.372636263 309.454949944 L235.372636263 309.065628476 L235.483870968 308.954393771 L235.53948832 308.954393771 L235.53948832 308.565072303 L235.650723026 308.453837597 L235.706340378 308.453837597 L235.706340378 307.897664071 L235.817575083 307.786429366 L235.873192436 307.786429366 L235.873192436 307.063403782 L235.984427141 306.952169077 L236.040044494 306.952169077 L236.040044494 305.895439377 L236.151279199 305.784204672 L236.206896552 305.784204672 L236.206896552 304.560622914 L236.318131257 304.449388209 L236.37374861 304.449388209 L236.37374861 303.392658509 L236.484983315 303.281423804 L236.540600667 303.281423804 L236.540600667 302.391546162 L236.651835373 302.280311457 L236.707452725 302.280311457 L236.707452725 301.223581758 L236.81868743 301.112347052 L236.874304783 301.112347052 L236.874304783 300.055617353 L236.985539488 299.944382647 L237.041156841 299.944382647 L237.041156841 298.72080089 L237.152391546 298.609566185 L237.208008899 298.609566185 L237.208008899 296.38487208 L237.319243604 296.273637375 L237.374860957 296.273637375 L237.374860957 295.272525028 L237.319243604 295.272525028 L237.208008899 295.161290323 L237.208008899 293.437152392 L237.152391546 293.437152392 L237.041156841 293.325917686 L237.041156841 292.602892102 L236.985539488 292.602892102 L236.874304783 292.491657397 L236.874304783 292.102335929 L236.81868743 292.102335929 L236.707452725 291.991101224 L236.707452725 291.768631813 L236.651835373 291.768631813 L236.540600667 291.657397108 L236.540600667 291.26807564 L236.484983315 291.26807564 L236.37374861 291.156840934 L236.37374861 291.101223582 L236.318131257 291.101223582 L236.206896552 290.989988877 L236.206896552 290.767519466 L236.151279199 290.767519466 L236.040044494 290.656284761 L236.040044494 290.600667408 L235.984427141 290.600667408 L235.873192436 290.489432703 L235.873192436 290.266963293 L235.817575083 290.266963293 L235.706340378 290.155728587 L235.706340378 290.100111235 L235.650723026 290.100111235 L235.53948832 289.988876529 L235.53948832 289.933259177 L235.483870968 289.933259177 L235.372636263 289.822024472 L235.372636263 289.766407119 L235.31701891 289.766407119 L235.205784205 289.655172414 L235.205784205 289.599555061 L234.983314794 289.599555061 L234.872080089 289.488320356 L234.872080089 289.432703003 L234.816462736 289.432703003 L234.705228031 289.321468298 L234.705228031 289.265850945 L234.482758621 289.265850945 L234.371523915 289.15461624 L234.371523915 289.098998888 L234.149054505 289.098998888 L234.0378198 288.987764182 L234.0378198 288.93214683 L233.815350389 288.93214683 L233.704115684 288.820912125 L233.704115684 288.765294772 L233.314794216 288.765294772 L233.203559511 288.654060067 L233.203559511 288.598442714 L232.814238042 288.598442714 L232.703003337 288.487208009 L232.703003337 288.431590656 L232.313681869 288.431590656 L232.202447164 288.320355951 L232.202447164 288.264738598 L231.813125695 288.264738598 L231.70189099 288.153503893 L231.70189099 288.097886541 L231.312569522 288.097886541 L231.201334816 287.986651835 L231.201334816 287.931034483 L230.812013348 287.931034483 L230.700778643 287.819799778 L230.700778643 287.764182425 L230.311457175 287.764182425 L230.200222469 287.65294772 L230.200222469 287.597330367 L229.810901001 287.597330367 L229.699666296 287.486095662 L229.699666296 287.430478309 L229.14349277 287.430478309 L229.032258065 287.319243604 L229.032258065 287.263626251 L228.642936596 287.263626251 L228.531701891 287.152391546 L228.531701891 287.096774194 L228.142380423 287.096774194 L228.031145717 286.985539488 L228.031145717 286.929922136 L227.474972191 286.929922136 L227.363737486 286.81868743 L227.363737486 286.763070078 L226.974416018 286.763070078 L226.863181313 286.651835373 L226.863181313 286.59621802 L226.473859844 286.59621802 L226.362625139 286.484983315 L226.362625139 286.429365962 L225.806451613 286.429365962 L225.695216908 286.318131257 L225.695216908 286.262513904 L225.305895439 286.262513904 L225.194660734 286.151279199 L225.194660734 286.095661846 L224.805339266 286.095661846 L224.694104561 285.984427141 L224.694104561 285.928809789 L224.137931034 285.928809789 L224.026696329 285.817575083 L224.026696329 285.761957731 L223.637374861 285.761957731 L223.526140156 285.650723026 L223.526140156 285.595105673 L222.96996663 285.595105673 L222.858731924 285.483870968 L222.858731924 285.428253615 L222.469410456 285.428253615 L222.358175751 285.31701891 L222.358175751 285.261401557 L221.968854283 285.261401557 L221.857619577 285.150166852 L221.857619577 285.094549499 L221.301446051 285.094549499 L221.190211346 284.983314794 L221.190211346 284.927697442 L220.800889878 284.927697442 L220.689655172 284.816462736 L220.689655172 284.760845384 L220.300333704 284.760845384 L220.189098999 284.649610679 L220.189098999 284.593993326 L219.632925473 284.593993326 L219.521690768 284.482758621 L219.521690768 284.427141268 L219.132369299 284.427141268 L219.021134594 284.315906563 L219.021134594 284.26028921 L218.464961068 284.26028921 L218.353726363 284.149054505 L218.353726363 284.093437152 L217.964404894 284.093437152 L217.853170189 283.982202447 L217.853170189 283.926585095 L217.463848721 283.926585095 L217.352614016 283.815350389 L217.352614016 283.759733037 L216.796440489 283.759733037 L216.685205784 283.648498331 L216.685205784 283.592880979 L216.295884316 283.592880979 L216.184649611 283.481646274 L216.184649611 283.426028921 L215.795328142 283.426028921 L215.684093437 283.314794216 L215.684093437 283.259176863 L215.294771969 283.259176863 L215.183537264 283.147942158 L215.183537264 283.092324805 L214.627363737 283.092324805 L214.516129032 282.9810901 L214.516129032 282.925472747 L214.126807564 282.925472747 L214.015572859 282.814238042 L214.015572859 282.75862069 L213.62625139 282.75862069 L213.515016685 282.647385984 L213.515016685 282.591768632 L213.125695217 282.591768632 L213.014460512 282.480533927 L213.014460512 282.424916574 L212.458286986 282.424916574 L212.34705228 282.313681869 L212.34705228 282.258064516 L211.957730812 282.258064516 L211.846496107 282.146829811 L211.846496107 282.091212458 L211.457174638 282.091212458 L211.345939933 281.979977753 L211.345939933 281.9243604 L210.956618465 281.9243604 L210.84538376 281.813125695 L210.84538376 281.757508343 L210.456062291 281.757508343 L210.344827586 281.646273637 L210.344827586 281.590656285 L209.955506118 281.590656285 L209.844271413 281.47942158 L209.844271413 281.423804227 L209.288097887 281.423804227 L209.176863181 281.312569522 L209.176863181 281.256952169 L208.787541713 281.256952169 L208.676307008 281.145717464 L208.676307008 281.090100111 L208.286985539 281.090100111 L208.175750834 280.978865406 L208.175750834 280.923248053 L207.786429366 280.923248053 L207.675194661 280.812013348 L207.675194661 280.756395996 L207.285873192 280.756395996 L207.174638487 280.64516129 L207.174638487 280.589543938 L206.785317019 280.589543938 L206.674082314 280.478309232 L206.674082314 280.42269188 L206.451612903 280.42269188 L206.340378198 280.311457175 L206.340378198 280.255839822 L205.95105673 280.255839822 L205.839822024 280.144605117 L205.839822024 280.088987764 L205.450500556 280.088987764 L205.339265851 279.977753059 L205.339265851 279.922135706 L204.949944383 279.922135706 L204.838709677 279.810901001 L204.838709677 279.755283648 L204.449388209 279.755283648 L204.338153504 279.644048943 L204.338153504 279.588431591 L204.115684093 279.588431591 L204.004449388 279.477196885 L204.004449388 279.421579533 L203.61512792 279.421579533 L203.503893215 279.310344828 L203.503893215 279.254727475 L203.281423804 279.254727475 L203.170189099 279.14349277 L203.170189099 279.087875417 L202.780867631 279.087875417 L202.669632925 278.976640712 L202.669632925 278.921023359 L202.447163515 278.921023359 L202.33592881 278.809788654 L202.33592881 278.754171301 L202.113459399 278.754171301 L202.002224694 278.642936596 L202.002224694 278.587319244 L201.612903226 278.587319244 L201.501668521 278.476084538 L201.501668521 278.420467186 L201.27919911 278.420467186 L201.167964405 278.309232481 L201.167964405 278.253615128 L200.945494994 278.253615128 L200.834260289 278.142380423 L200.834260289 278.08676307 L200.778642937 278.08676307 L200.667408231 277.975528365 L200.667408231 277.919911012 L200.444938821 277.919911012 L200.333704116 277.808676307 L200.333704116 277.753058954 L200.278086763 277.753058954 L200.166852058 277.641824249 L200.166852058 277.586206897 L200.111234705 277.586206897 L200.0 277.474972191 L200.0 277.419354839 L199.944382647 277.419354839 L199.833147942 277.308120133 L199.833147942 272.691879867 L199.944382647 272.580645161 L200.0 272.580645161 L200.0 268.52057842 L200.111234705 268.409343715 L200.166852058 268.409343715 L200.166852058 264.68298109 L200.278086763 264.571746385 L200.333704116 264.571746385 L200.333704116 261.345939933 L200.444938821 261.234705228 L200.500556174 261.234705228 L200.500556174 258.175750834 L200.611790879 258.064516129 L200.667408231 258.064516129 L200.667408231 255.339265851 L200.778642937 255.228031146 L200.834260289 255.228031146 L200.834260289 252.836484983 L200.945494994 252.725250278 L201.001112347 252.725250278 L201.001112347 250.667408231 L201.112347052 250.556173526 L201.167964405 250.556173526 L201.167964405 247.830923248 L201.27919911 247.719688543 L201.334816463 247.719688543 L201.334816463 202.169076752 L201.27919911 202.169076752 L201.167964405 202.057842047 L201.167964405 192.992213571 L201.112347052 192.992213571 L201.001112347 192.880978865 L201.001112347 186.81868743 L200.945494994 186.81868743 L200.834260289 186.707452725 L200.834260289 182.146829811 L200.778642937 182.146829811 L200.667408231 182.035595106 L200.667408231 178.309232481 L200.611790879 178.309232481 L200.500556174 178.197997775 L200.500556174 175.139043382 L200.444938821 175.139043382 L200.333704116 175.027808676 L200.333704116 172.469410456 L200.278086763 172.469410456 L200.166852058 172.358175751 L200.166852058 170.300333704 L200.111234705 170.300333704 L200.0 170.189098999 L200.0 168.29810901 L199.944382647 168.29810901 L199.833147942 168.186874305 L199.833147942 166.629588432 L199.77753059 166.629588432 L199.666295884 166.518353726 L199.666295884 165.294771969 L199.610678532 165.294771969 L199.499443826 165.183537264 L199.499443826 163.959955506 L199.443826474 163.959955506 L199.332591769 163.848720801 L199.332591769 162.958843159 L199.276974416 162.958843159 L199.165739711 162.847608454 L199.165739711 162.12458287 L199.110122358 162.12458287 L198.998887653 162.013348165 L198.998887653 161.290322581 L198.9432703 161.290322581 L198.832035595 161.179087875 L198.832035595 160.789766407 L198.776418242 160.789766407 L198.665183537 160.678531702 L198.665183537 160.622914349 198.498331479 160.622914349 " stroke="black" fill="transparent"/>
<path d="M295.606229143 0.055617352614 L295.606229143 4.00444938821 L295.494994438 4.11568409344 L291.434927697 4.11568409344 L291.434927697 4.44938820912 L295.494994438 4.44938820912 L295.606229143 4.56062291435 L295.606229143 8.62068965517 L295.773081201 8.62068965517 L295.773081201 4.56062291435 L295.884315907 4.44938820912 L300.0 4.44938820912 L300.0 4.11568409344 L295.884315907 4.11568409344 L295.773081201 4.00444938821 L295.773081201 0.055617352614 295.606229143 0.055617352614 " stroke="black" fill="transparent"/>
<path d="M4.11568409344 0.055617352614 L4.11568409344 4.00444938821 L4.00444938821 4.11568409344 L0.055617352614 4.11568409344 L0.055617352614 4.44938820912 L4.00444938821 4.44938820912 L4.11568409344 4.56062291435 L4.11568409344 8.62068965517 L4.44938820912 8.62068965517 L4.44938820912 4.56062291435 L4.56062291435 4.44938820912 L8.62068965517 4.44938820912 L8.62068965517 4.11568409344 L4.56062291435 4.11568409344 L4.44938820912 4.00444938821 L4.44938820912 0.055617352614 4.11568409344 0.055617352614 " stroke="black" fill="transparent"/>
</svg>