<svg width="950.0mm" height="141.33586468760788mm" xmlns="http://www.w3.org/2000/svg" fill="transparent" ><path d="M36.1811068922 103.405822115 L36.0171441721 103.569784835 L35.689218732 103.569784835 L35.525256012 103.733747555 L35.1973305719 103.733747555 L35.0333678518 103.897710275 L34.7054424117 103.897710275 L34.5414796916 104.061672995 L34.2135542515 104.061672995 L34.0495915315 104.225635715 L33.7216660914 104.225635715 L33.5577033713 104.389598435 L33.2297779312 104.389598435 L33.0658152111 104.553561155 L32.737889771 104.553561155 L32.573927051 104.717523875 L32.2460016109 104.717523875 L32.0820388908 104.881486595 L31.9180761708 104.881486595 L31.7541134507 105.045449315 L31.4261880106 105.045449315 L31.2622252905 105.209412035 L30.9342998504 105.209412035 L30.7703371304 105.373374755 L30.4424116903 105.373374755 L30.2784489702 105.537337476 L29.9505235301 105.537337476 L29.78656081 105.701300196 L29.4586353699 105.701300196 L29.2946726499 105.865262916 L28.9667472098 105.865262916 L28.8027844897 106.029225636 L28.4748590496 106.029225636 L28.3108963295 106.193188356 L27.9829708894 106.193188356 L27.8190081694 106.357151076 L27.4910827293 106.357151076 L27.3271200092 106.521113796 L26.9991945691 106.521113796 L26.835231849 106.685076516 L26.5073064089 106.685076516 L26.3433436889 106.849039236 L26.0154182488 106.849039236 L25.8514555287 107.013001956 L25.5235300886 107.013001956 L25.3595673685 107.176964676 L25.0316419284 107.176964676 L24.8676792084 107.340927396 L24.5397537683 107.340927396 L24.3757910482 107.504890116 L24.2118283282 107.504890116 L24.0478656081 107.668852836 L23.719940168 107.668852836 L23.5559774479 107.832815556 L23.2280520078 107.832815556 L23.0640892878 107.996778276 L22.7361638477 107.996778276 L22.5722011276 108.160740996 L22.2442756875 108.160740996 L22.0803129674 108.324703716 L21.7523875273 108.324703716 L21.5884248073 108.488666437 L21.2604993672 108.488666437 L21.0965366471 108.652629157 L20.768611207 108.652629157 L20.6046484869 108.816591877 L20.2767230468 108.816591877 L20.1127603268 108.980554597 L19.7848348867 108.980554597 L19.6208721666 109.144517317 L19.2929467265 109.144517317 L19.1289840064 109.308480037 L18.8010585663 109.308480037 L18.6370958463 109.472442757 L18.3091704062 109.472442757 L18.1452076861 109.636405477 L17.817282246 109.636405477 L17.6533195259 109.800368197 L17.3253940858 109.800368197 L17.1614313658 109.964330917 L16.8335059257 109.964330917 L16.6695432056 110.128293637 L16.3416177655 110.128293637 L16.1776550454 110.292256357 L16.0136923254 110.292256357 L15.8497296053 110.456219077 L15.5218041652 110.456219077 L15.3578414452 110.620181797 L15.0299160051 110.620181797 L14.865953285 110.784144517 L14.5380278449 110.784144517 L14.3740651248 110.948107237 L14.0461396847 110.948107237 L13.8821769647 111.112069957 L13.5542515246 111.112069957 L13.3902888045 111.276032677 L13.0623633644 111.276032677 L12.8984006443 111.439995398 L12.5704752042 111.439995398 L12.4065124842 111.603958118 L12.0785870441 111.603958118 L11.914624324 111.767920838 L11.5866988839 111.767920838 L11.4227361638 111.931883558 L11.0948107237 111.931883558 L10.9308480037 112.095846278 L10.6029225636 112.095846278 L10.4389598435 112.259808998 L10.1110344034 112.259808998 L9.94707168335 112.423771718 L9.61914624324 112.423771718 L9.45518352318 112.587734438 L9.12725808307 112.587734438 L8.96329536302 112.751697158 L8.63536992291 112.751697158 L8.47140720285 112.915659878 L8.3074444828 112.915659878 L8.14348176274 113.079622598 L7.81555632263 113.079622598 L7.65159360258 113.243585318 L7.32366816247 113.243585318 L7.15970544241 113.407548038 L6.8317800023 113.407548038 L6.66781728225 113.571510758 L6.33989184214 113.571510758 L6.17592912208 113.735473478 L5.84800368197 113.735473478 L5.68404096191 113.899436198 L5.3561155218 113.899436198 L5.19215280175 114.063398918 L4.86422736164 114.063398918 L4.70026464158 114.227361638 L4.37233920147 114.227361638 L4.20837648142 114.391324359 L3.88045104131 114.391324359 L3.71648832125 114.555287079 L3.38856288114 114.555287079 L3.22460016109 114.719249799 L2.89667472098 114.719249799 L2.73271200092 114.883212519 L2.40478656081 114.883212519 L2.24082384075 115.047175239 L1.91289840064 115.047175239 L1.74893568059 115.211137959 L1.42101024048 115.211137959 L1.25704752042 115.375100679 L0.929122080313 115.375100679 L0.765159360258 115.539063399 L0.601196640203 115.539063399 L0.273271200092 115.866988839 L0.273271200092 116.030951559 L0.109308480037 116.194914279 L0.0546542400184 116.194914279 L0.0546542400184 128.492118283 L0.109308480037 128.492118283 L0.273271200092 128.656081003 L0.273271200092 128.820043723 L0.601196640203 129.147969164 L0.929122080313 129.147969164 L1.09308480037 129.311931884 L1.42101024048 129.311931884 L1.58497296053 129.475894604 L1.91289840064 129.475894604 L2.0768611207 129.639857324 L2.40478656081 129.639857324 L2.56874928087 129.803820044 L2.89667472098 129.803820044 L3.06063744103 129.967782764 L3.38856288114 129.967782764 L3.5525256012 130.131745484 L3.88045104131 130.131745484 L4.04441376136 130.295708204 L4.37233920147 130.295708204 L4.53630192153 130.459670924 L4.70026464158 130.459670924 L4.86422736164 130.623633644 L5.19215280175 130.623633644 L5.3561155218 130.787596364 L5.68404096191 130.787596364 L5.84800368197 130.951559084 L6.17592912208 130.951559084 L6.33989184214 131.115521804 L6.66781728225 131.115521804 L6.8317800023 131.279484524 L7.15970544241 131.279484524 L7.32366816247 131.443447244 L7.65159360258 131.443447244 L7.81555632263 131.607409964 L8.14348176274 131.607409964 L8.3074444828 131.771372684 L8.63536992291 131.771372684 L8.79933264296 131.935335404 L9.12725808307 131.935335404 L9.29122080313 132.099298124 L9.61914624324 132.099298124 L9.7831089633 132.263260845 L10.1110344034 132.263260845 L10.2749971235 132.427223565 L10.6029225636 132.427223565 L10.7668852836 132.591186285 L11.0948107237 132.591186285 L11.2587734438 132.755149005 L11.5866988839 132.755149005 L11.750661604 132.919111725 L12.0785870441 132.919111725 L12.2425497641 133.083074445 L12.4065124842 133.083074445 L12.5704752042 133.247037165 L12.8984006443 133.247037165 L13.0623633644 133.410999885 L13.3902888045 133.410999885 L13.5542515246 133.574962605 L13.8821769647 133.574962605 L14.0461396847 133.738925325 L14.3740651248 133.738925325 L14.5380278449 133.902888045 L14.865953285 133.902888045 L15.0299160051 134.066850765 L15.3578414452 134.066850765 L15.5218041652 134.230813485 L15.8497296053 134.230813485 L16.0136923254 134.394776205 L16.3416177655 134.394776205 L16.5055804856 134.558738925 L16.8335059257 134.558738925 L16.9974686457 134.722701645 L17.3253940858 134.722701645 L17.4893568059 134.886664365 L17.817282246 134.886664365 L17.9812449661 135.050627085 L18.3091704062 135.050627085 L18.4731331262 135.214589806 L18.8010585663 135.214589806 L18.9650212864 135.378552526 L19.2929467265 135.378552526 L19.4569094466 135.542515246 L19.7848348867 135.542515246 L19.9487976067 135.706477966 L20.1127603268 135.706477966 L20.2767230468 135.870440686 L20.6046484869 135.870440686 L20.768611207 136.034403406 L21.0965366471 136.034403406 L21.2604993672 136.198366126 L21.5884248073 136.198366126 L21.7523875273 136.362328846 L22.0803129674 136.362328846 L22.2442756875 136.526291566 L22.5722011276 136.526291566 L22.7361638477 136.690254286 L23.0640892878 136.690254286 L23.2280520078 136.854217006 L23.5559774479 136.854217006 L23.719940168 137.018179726 L24.0478656081 137.018179726 L24.2118283282 137.182142446 L24.5397537683 137.182142446 L24.7037164883 137.346105166 L25.0316419284 137.346105166 L25.1956046485 137.510067886 L25.5235300886 137.510067886 L25.6874928087 137.674030606 L26.0154182488 137.674030606 L26.1793809688 137.837993326 L26.5073064089 137.837993326 L26.671269129 138.001956046 L26.9991945691 138.001956046 L27.1631572891 138.165918767 L27.4910827293 138.165918767 L27.6550454493 138.329881487 L27.8190081694 138.329881487 L27.9829708894 138.493844207 L28.3108963295 138.493844207 L28.4748590496 138.657806927 L28.8027844897 138.657806927 L28.9667472098 138.821769647 L29.2946726499 138.821769647 L29.4586353699 138.985732367 L29.78656081 138.985732367 L29.9505235301 139.149695087 L30.2784489702 139.149695087 L30.4424116903 139.313657807 L30.7703371304 139.313657807 L30.9342998504 139.477620527 L31.2622252905 139.477620527 L31.4261880106 139.641583247 L31.7541134507 139.641583247 L31.9180761708 139.805545967 L32.2460016109 139.805545967 L32.4099643309 139.969508687 L32.737889771 139.969508687 L32.9018524911 140.133471407 L33.2297779312 140.133471407 L33.3937406512 140.297434127 L33.7216660914 140.297434127 L33.8856288114 140.461396847 L34.2135542515 140.461396847 L34.3775169716 140.625359567 L34.7054424117 140.625359567 L34.8694051317 140.789322287 L35.1973305719 140.789322287 L35.3612932919 140.953285007 L35.525256012 140.953285007 L35.689218732 141.117247728 L36.0171441721 141.117247728 L36.1811068922 141.281210448 L36.1811068922 141.335864688 L37.0009204925 141.335864688 L37.0009204925 141.281210448 L37.1648832125 141.117247728 L37.1648832125 129.803820044 L37.0009204925 129.639857324 L37.0009204925 129.475894604 L36.8369577724 129.311931884 L36.8369577724 129.147969164 L36.6729950524 129.147969164 L36.5090323323 128.984006443 L36.3450696122 128.984006443 L36.1811068922 128.820043723 L35.689218732 128.820043723 L35.525256012 128.656081003 L35.1973305719 128.656081003 L35.0333678518 128.492118283 L34.5414796916 128.492118283 L34.3775169716 128.328155563 L34.0495915315 128.328155563 L33.8856288114 128.164192843 L33.3937406512 128.164192843 L33.2297779312 128.000230123 L32.9018524911 128.000230123 L32.737889771 127.836267403 L32.2460016109 127.836267403 L32.0820388908 127.672304683 L31.7541134507 127.672304683 L31.5901507306 127.508341963 L31.0982625705 127.508341963 L30.7703371304 127.180416523 L30.7703371304 117.34265332 L30.9342998504 117.178690599 L31.4261880106 117.178690599 L31.5901507306 117.014727879 L31.9180761708 117.014727879 L32.0820388908 116.850765159 L32.573927051 116.850765159 L32.737889771 116.686802439 L33.0658152111 116.686802439 L33.2297779312 116.522839719 L33.7216660914 116.522839719 L33.8856288114 116.358876999 L34.2135542515 116.358876999 L34.3775169716 116.194914279 L34.8694051317 116.194914279 L35.0333678518 116.030951559 L35.3612932919 116.030951559 L35.525256012 115.866988839 L36.0171441721 115.866988839 L36.1811068922 115.703026119 L36.5090323323 115.703026119 L37.0009204925 115.211137959 L37.0009204925 115.047175239 L37.1648832125 114.883212519 L37.1648832125 103.569784835 L37.0009204925 103.405822115 36.1811068922 103.405822115 " stroke="black" fill="transparent"/>
<path d="M22.7361638477 119.47416868 L22.9001265677 119.47416868 L23.0640892878 119.6381314 L23.0640892878 125.048901162 L22.9001265677 125.212863882 L22.7361638477 125.048901162 L22.2442756875 125.048901162 L22.0803129674 124.884938442 L21.7523875273 124.884938442 L21.5884248073 124.720975722 L21.0965366471 124.720975722 L20.9325739271 124.557013002 L20.6046484869 124.557013002 L20.4406857669 124.393050282 L19.9487976067 124.393050282 L19.7848348867 124.229087562 L19.4569094466 124.229087562 L19.2929467265 124.065124842 L18.8010585663 124.065124842 L18.6370958463 123.901162122 L18.3091704062 123.901162122 L18.1452076861 123.737199402 L17.6533195259 123.737199402 L17.4893568059 123.573236682 L17.1614313658 123.573236682 L16.9974686457 123.409273962 L16.5055804856 123.409273962 L16.3416177655 123.245311242 L16.0136923254 123.245311242 L15.8497296053 123.081348521 L15.3578414452 123.081348521 L15.1938787251 122.917385801 L14.865953285 122.917385801 L14.701990565 122.753423081 L14.2101024048 122.753423081 L14.0461396847 122.589460361 L13.7182142446 122.589460361 L13.3902888045 122.261534921 L13.5542515246 122.097572201 L14.0461396847 122.097572201 L14.2101024048 121.933609481 L14.5380278449 121.933609481 L14.701990565 121.769646761 L15.1938787251 121.769646761 L15.3578414452 121.605684041 L15.6857668853 121.605684041 L15.8497296053 121.441721321 L16.3416177655 121.441721321 L16.5055804856 121.277758601 L16.8335059257 121.277758601 L16.9974686457 121.113795881 L17.4893568059 121.113795881 L17.6533195259 120.949833161 L17.9812449661 120.949833161 L18.1452076861 120.785870441 L18.6370958463 120.785870441 L18.8010585663 120.621907721 L19.1289840064 120.621907721 L19.2929467265 120.457945001 L19.7848348867 120.457945001 L19.9487976067 120.293982281 L20.2767230468 120.293982281 L20.4406857669 120.13001956 L20.9325739271 120.13001956 L21.0965366471 119.96605684 L21.4244620872 119.96605684 L21.5884248073 119.80209412 L22.0803129674 119.80209412 L22.2442756875 119.6381314 L22.5722011276 119.6381314 22.7361638477 119.47416868 " stroke="black" fill="transparent"/>
<path d="M912.233920147 89.9608790703 L912.069957427 90.1248417904 L912.069957427 101.766194914 L912.561845587 102.258083074 L912.725808307 102.258083074 L912.889771027 102.422045795 L913.381659188 102.422045795 L913.545621908 102.586008515 L913.873547348 102.586008515 L914.037510068 102.749971235 L914.529398228 102.749971235 L914.693360948 102.913933955 L915.021286388 102.913933955 L915.185249108 103.077896675 L915.677137268 103.077896675 L915.841099988 103.241859395 L916.169025429 103.241859395 L916.332988149 103.405822115 L916.824876309 103.405822115 L916.988839029 103.569784835 L917.316764469 103.569784835 L917.480727189 103.733747555 L917.972615349 103.733747555 L918.300540789 104.061672995 L918.300540789 113.899436198 L918.136578069 114.063398918 L917.972615349 114.063398918 L917.808652629 114.227361638 L917.316764469 114.227361638 L917.152801749 114.391324359 L916.824876309 114.391324359 L916.660913589 114.555287079 L916.169025429 114.555287079 L916.005062709 114.719249799 L915.677137268 114.719249799 L915.513174548 114.883212519 L915.021286388 114.883212519 L914.857323668 115.047175239 L914.529398228 115.047175239 L914.365435508 115.211137959 L913.873547348 115.211137959 L913.709584628 115.375100679 L913.381659188 115.375100679 L913.217696468 115.539063399 L912.725808307 115.539063399 L912.561845587 115.703026119 L912.397882867 115.703026119 L912.397882867 115.866988839 L912.069957427 116.194914279 L912.069957427 127.836267403 L912.233920147 127.836267403 L912.397882867 128.000230123 L912.725808307 128.000230123 L912.889771027 127.836267403 L913.053733748 127.836267403 L913.217696468 127.672304683 L913.545621908 127.672304683 L913.709584628 127.508341963 L914.037510068 127.508341963 L914.201472788 127.344379243 L914.529398228 127.344379243 L914.693360948 127.180416523 L915.021286388 127.180416523 L915.185249108 127.016453803 L915.513174548 127.016453803 L915.677137268 126.852491083 L916.005062709 126.852491083 L916.169025429 126.688528363 L916.496950869 126.688528363 L916.660913589 126.524565643 L916.988839029 126.524565643 L917.152801749 126.360602923 L917.480727189 126.360602923 L917.644689909 126.196640203 L917.972615349 126.196640203 L918.136578069 126.032677482 L918.464503509 126.032677482 L918.628466229 125.868714762 L918.95639167 125.868714762 L919.12035439 125.704752042 L919.44827983 125.704752042 L919.61224255 125.540789322 L919.94016799 125.540789322 L920.10413071 125.376826602 L920.26809343 125.376826602 L920.43205615 125.212863882 L920.75998159 125.212863882 L920.92394431 125.048901162 L921.25186975 125.048901162 L921.41583247 124.884938442 L921.74375791 124.884938442 L921.907720631 124.720975722 L922.235646071 124.720975722 L922.399608791 124.557013002 L922.727534231 124.557013002 L922.891496951 124.393050282 L923.219422391 124.393050282 L923.383385111 124.229087562 L923.711310551 124.229087562 L923.875273271 124.065124842 L924.203198711 124.065124842 L924.367161431 123.901162122 L924.695086871 123.901162122 L924.859049592 123.737199402 L925.186975032 123.737199402 L925.350937752 123.573236682 L925.678863192 123.573236682 L925.842825912 123.409273962 L926.170751352 123.409273962 L926.334714072 123.245311242 L926.662639512 123.245311242 L926.826602232 123.081348521 L927.154527672 123.081348521 L927.318490392 122.917385801 L927.646415832 122.917385801 L927.810378553 122.753423081 L927.974341273 122.753423081 L928.138303993 122.589460361 L928.466229433 122.589460361 L928.630192153 122.425497641 L928.958117593 122.425497641 L929.122080313 122.261534921 L929.450005753 122.261534921 L929.613968473 122.097572201 L929.941893913 122.097572201 L930.105856633 121.933609481 L930.433782073 121.933609481 L930.597744793 121.769646761 L930.925670234 121.769646761 L931.089632954 121.605684041 L931.417558394 121.605684041 L931.581521114 121.441721321 L931.909446554 121.441721321 L932.073409274 121.277758601 L932.401334714 121.277758601 L932.565297434 121.113795881 L932.893222874 121.113795881 L933.057185594 120.949833161 L933.385111034 120.949833161 L933.549073754 120.785870441 L933.876999195 120.785870441 L934.040961915 120.621907721 L934.368887355 120.621907721 L934.532850075 120.457945001 L934.860775515 120.457945001 L935.024738235 120.293982281 L935.352663675 120.293982281 L935.516626395 120.13001956 L935.844551835 120.13001956 L936.008514555 119.96605684 L936.172477275 119.96605684 L936.336439995 119.80209412 L936.664365436 119.80209412 L936.828328156 119.6381314 L937.156253596 119.6381314 L937.320216316 119.47416868 L937.648141756 119.47416868 L937.812104476 119.31020596 L938.140029916 119.31020596 L938.303992636 119.14624324 L938.631918076 119.14624324 L938.795880796 118.98228052 L939.123806236 118.98228052 L939.287768956 118.8183178 L939.615694397 118.8183178 L939.779657117 118.65435508 L940.107582557 118.65435508 L940.271545277 118.49039236 L940.599470717 118.49039236 L940.763433437 118.32642964 L941.091358877 118.32642964 L941.255321597 118.16246692 L941.583247037 118.16246692 L941.747209757 117.9985042 L942.075135197 117.9985042 L942.239097917 117.83454148 L942.567023357 117.83454148 L942.730986078 117.67057876 L943.058911518 117.67057876 L943.222874238 117.50661604 L943.550799678 117.50661604 L943.714762398 117.34265332 L943.878725118 117.34265332 L944.042687838 117.178690599 L944.370613278 117.178690599 L944.534575998 117.014727879 L944.862501438 117.014727879 L945.026464158 116.850765159 L945.354389598 116.850765159 L945.518352318 116.686802439 L945.846277759 116.686802439 L946.010240479 116.522839719 L946.338165919 116.522839719 L946.502128639 116.358876999 L946.830054079 116.358876999 L946.994016799 116.194914279 L947.321942239 116.194914279 L947.485904959 116.030951559 L947.813830399 116.030951559 L947.977793119 115.866988839 L948.305718559 115.866988839 L948.469681279 115.703026119 L948.633644 115.703026119 L948.79760672 115.539063399 L948.79760672 115.375100679 L948.96156944 115.211137959 L948.96156944 115.047175239 L949.12553216 114.883212519 L949.12553216 102.913933955 L948.96156944 102.749971235 L948.96156944 102.586008515 L948.469681279 102.094120354 L948.141755839 102.094120354 L947.977793119 101.930157634 L947.649867679 101.930157634 L947.485904959 101.766194914 L947.157979519 101.766194914 L946.994016799 101.602232194 L946.666091359 101.602232194 L946.502128639 101.438269474 L946.174203199 101.438269474 L946.010240479 101.274306754 L945.682315039 101.274306754 L945.518352318 101.110344034 L945.190426878 101.110344034 L945.026464158 100.946381314 L944.698538718 100.946381314 L944.534575998 100.782418594 L944.206650558 100.782418594 L944.042687838 100.618455874 L943.714762398 100.618455874 L943.550799678 100.454493154 L943.386836958 100.454493154 L943.222874238 100.290530434 L942.894948798 100.290530434 L942.730986078 100.126567714 L942.403060637 100.126567714 L942.239097917 99.9626049937 L941.911172477 99.9626049937 L941.747209757 99.7986422736 L941.419284317 99.7986422736 L941.255321597 99.6346795536 L940.927396157 99.6346795536 L940.763433437 99.4707168335 L940.435507997 99.4707168335 L940.271545277 99.3067541135 L939.943619837 99.3067541135 L939.779657117 99.1427913934 L939.451731676 99.1427913934 L939.287768956 98.9788286733 L938.959843516 98.9788286733 L938.795880796 98.8148659533 L938.467955356 98.8148659533 L938.303992636 98.6509032332 L937.976067196 98.6509032332 L937.812104476 98.4869405132 L937.484179036 98.4869405132 L937.320216316 98.3229777931 L936.992290876 98.3229777931 L936.828328156 98.1590150731 L936.500402715 98.1590150731 L936.336439995 97.995052353 L936.008514555 97.995052353 L935.844551835 97.831089633 L935.680589115 97.831089633 L935.516626395 97.6671269129 L935.188700955 97.6671269129 L935.024738235 97.5031641928 L934.696812795 97.5031641928 L934.532850075 97.3392014728 L934.204924635 97.3392014728 L934.040961915 97.1752387527 L933.713036475 97.1752387527 L933.549073754 97.0112760327 L933.221148314 97.0112760327 L933.057185594 96.8473133126 L932.729260154 96.8473133126 L932.565297434 96.6833505926 L932.237371994 96.6833505926 L932.073409274 96.5193878725 L931.745483834 96.5193878725 L931.581521114 96.3554251525 L931.253595674 96.3554251525 L931.089632954 96.1914624324 L930.761707514 96.1914624324 L930.597744793 96.0274997123 L930.269819353 96.0274997123 L930.105856633 95.8635369923 L929.777931193 95.8635369923 L929.613968473 95.6995742722 L929.286043033 95.6995742722 L929.122080313 95.5356115522 L928.794154873 95.5356115522 L928.630192153 95.3716488321 L928.302266713 95.3716488321 L928.138303993 95.2076861121 L927.974341273 95.2076861121 L927.810378553 95.043723392 L927.482453112 95.043723392 L927.318490392 94.879760672 L926.990564952 94.879760672 L926.826602232 94.7157979519 L926.498676792 94.7157979519 L926.334714072 94.5518352318 L926.006788632 94.5518352318 L925.842825912 94.3878725118 L925.514900472 94.3878725118 L925.350937752 94.2239097917 L925.023012312 94.2239097917 L924.859049592 94.0599470717 L924.531124151 94.0599470717 L924.367161431 93.8959843516 L924.039235991 93.8959843516 L923.875273271 93.7320216316 L923.547347831 93.7320216316 L923.383385111 93.5680589115 L923.055459671 93.5680589115 L922.891496951 93.4040961915 L922.563571511 93.4040961915 L922.399608791 93.2401334714 L922.071683351 93.2401334714 L921.907720631 93.0761707514 L921.57979519 93.0761707514 L921.41583247 92.9122080313 L921.08790703 92.9122080313 L920.92394431 92.7482453112 L920.59601887 92.7482453112 L920.43205615 92.5842825912 L920.26809343 92.5842825912 L920.10413071 92.4203198711 L919.77620527 92.4203198711 L919.61224255 92.2563571511 L919.28431711 92.2563571511 L919.12035439 92.092394431 L918.792428949 92.092394431 L918.628466229 91.928431711 L918.300540789 91.928431711 L918.136578069 91.7644689909 L917.808652629 91.7644689909 L917.644689909 91.6005062709 L917.316764469 91.6005062709 L917.152801749 91.4365435508 L916.824876309 91.4365435508 L916.660913589 91.2725808307 L916.332988149 91.2725808307 L916.169025429 91.1086181107 L915.841099988 91.1086181107 L915.677137268 90.9446553906 L915.349211828 90.9446553906 L915.185249108 90.7806926706 L914.857323668 90.7806926706 L914.693360948 90.6167299505 L914.365435508 90.6167299505 L914.201472788 90.4527672305 L913.873547348 90.4527672305 L913.709584628 90.2888045104 L913.381659188 90.2888045104 L913.217696468 90.1248417904 L912.889771027 90.1248417904 L912.725808307 89.9608790703 912.233920147 89.9608790703 " stroke="black" fill="transparent"/>
<path d="M926.170751352 106.029225636 L926.334714072 106.193188356 L926.662639512 106.193188356 L926.826602232 106.357151076 L927.318490392 106.357151076 L927.482453112 106.521113796 L927.810378553 106.521113796 L927.974341273 106.685076516 L928.466229433 106.685076516 L928.630192153 106.849039236 L928.958117593 106.849039236 L929.122080313 107.013001956 L929.613968473 107.013001956 L929.777931193 107.176964676 L930.105856633 107.176964676 L930.269819353 107.340927396 L930.761707514 107.340927396 L930.925670234 107.504890116 L931.253595674 107.504890116 L931.417558394 107.668852836 L931.909446554 107.668852836 L932.073409274 107.832815556 L932.401334714 107.832815556 L932.565297434 107.996778276 L933.057185594 107.996778276 L933.221148314 108.160740996 L933.549073754 108.160740996 L933.713036475 108.324703716 L934.204924635 108.324703716 L934.368887355 108.488666437 L934.696812795 108.488666437 L934.860775515 108.652629157 L935.352663675 108.652629157 L935.516626395 108.816591877 L935.680589115 108.816591877 L935.844551835 108.980554597 L935.680589115 109.144517317 L935.352663675 109.144517317 L935.188700955 109.308480037 L934.696812795 109.308480037 L934.532850075 109.472442757 L934.204924635 109.472442757 L934.040961915 109.636405477 L933.549073754 109.636405477 L933.385111034 109.800368197 L933.057185594 109.800368197 L932.893222874 109.964330917 L932.401334714 109.964330917 L932.237371994 110.128293637 L931.909446554 110.128293637 L931.745483834 110.292256357 L931.253595674 110.292256357 L931.089632954 110.456219077 L930.761707514 110.456219077 L930.597744793 110.620181797 L930.105856633 110.620181797 L929.941893913 110.784144517 L929.613968473 110.784144517 L929.450005753 110.948107237 L928.958117593 110.948107237 L928.794154873 111.112069957 L928.466229433 111.112069957 L928.302266713 111.276032677 L927.810378553 111.276032677 L927.646415832 111.439995398 L927.318490392 111.439995398 L927.154527672 111.603958118 L926.662639512 111.603958118 L926.498676792 111.767920838 L926.170751352 111.767920838 L926.006788632 111.603958118 L926.006788632 106.193188356 926.170751352 106.029225636 " stroke="black" fill="transparent"/>
<path d="M27.8190081694 79.1393395467 L27.4910827293 79.4672649868 L27.4910827293 89.6329536302 L27.3271200092 89.7969163502 L0.601196640203 89.7969163502 L0.437233920147 89.9608790703 L0.273271200092 89.9608790703 L0.109308480037 90.1248417904 L0.0546542400184 90.1248417904 L0.0546542400184 100.618455874 L0.109308480037 100.618455874 L0.437233920147 100.946381314 L36.6729950524 100.946381314 L36.8369577724 100.782418594 L37.0009204925 100.782418594 L37.0009204925 100.618455874 L37.1648832125 100.454493154 L37.1648832125 80.4510413071 L37.0009204925 80.287078587 L37.0009204925 80.123115867 L36.8369577724 79.9591531469 L36.6729950524 79.9591531469 L36.5090323323 79.7951904269 L34.8694051317 79.7951904269 L34.7054424117 79.6312277068 L33.0658152111 79.6312277068 L32.9018524911 79.4672649868 L31.2622252905 79.4672649868 L31.0982625705 79.3033022667 L29.62259809 79.3033022667 L29.4586353699 79.1393395467 27.8190081694 79.1393395467 " stroke="black" fill="transparent"/>
<path d="M266.54872857 67.9898745829 L266.54872857 68.153837303 L274.582901852 76.1880105857 L274.582901852 76.3519733057 L266.54872857 84.3861465884 L266.54872857 84.5501093085 L274.746864573 76.3519733057 L282.945000575 84.5501093085 L283.108963295 84.5501093085 L274.910827293 76.3519733057 L274.910827293 76.1880105857 L283.108963295 67.9898745829 L282.945000575 67.9898745829 L274.746864573 76.1880105857 266.54872857 67.9898745829 " stroke="black" fill="transparent"/>
<path d="M681.53837303 66.1862846623 L681.53837303 77.6636750662 L681.37441031 77.8276377862 L669.733057186 77.8276377862 L681.37441031 77.8276377862 L681.53837303 77.9916005063 L681.53837303 89.4689909101 L681.53837303 77.9916005063 L681.70233575 77.8276377862 L693.179726153 77.8276377862 L681.70233575 77.8276377862 L681.53837303 77.6636750662 681.53837303 66.1862846623 " stroke="black" fill="transparent"/>
<path d="M912.561845587 58.6439995398 L912.397882867 58.8079622598 L912.233920147 58.8079622598 L912.233920147 58.9719249799 L912.069957427 59.1358876999 L912.069957427 69.4655390634 L912.397882867 69.7934645035 L924.531124151 69.7934645035 L924.695086871 69.9574272236 L924.695086871 70.2853526637 L924.367161431 70.6132781038 L924.203198711 70.6132781038 L924.039235991 70.7772408238 L923.875273271 70.7772408238 L923.711310551 70.9412035439 L923.547347831 70.9412035439 L923.383385111 71.105166264 L923.055459671 71.105166264 L922.891496951 71.269128984 L922.727534231 71.269128984 L922.563571511 71.4330917041 L922.399608791 71.4330917041 L922.235646071 71.5970544241 L922.071683351 71.5970544241 L921.907720631 71.7610171442 L921.74375791 71.7610171442 L921.57979519 71.9249798642 L921.41583247 71.9249798642 L921.25186975 72.0889425843 L921.08790703 72.0889425843 L920.92394431 72.2529053043 L920.75998159 72.2529053043 L920.59601887 72.4168680244 L920.43205615 72.4168680244 L920.26809343 72.5808307444 L920.10413071 72.5808307444 L919.94016799 72.7447934645 L919.61224255 72.7447934645 L919.44827983 72.9087561846 L919.28431711 72.9087561846 L919.12035439 73.0727189046 L918.95639167 73.0727189046 L918.792428949 73.2366816247 L918.628466229 73.2366816247 L918.464503509 73.4006443447 L918.300540789 73.4006443447 L918.136578069 73.5646070648 L917.972615349 73.5646070648 L917.808652629 73.7285697848 L917.644689909 73.7285697848 L917.480727189 73.8925325049 L917.316764469 73.8925325049 L917.152801749 74.0564952249 L916.988839029 74.0564952249 L916.824876309 74.220457945 L916.660913589 74.220457945 L916.496950869 74.3844206651 L916.169025429 74.3844206651 L916.005062709 74.5483833851 L915.841099988 74.5483833851 L915.677137268 74.7123461052 L915.513174548 74.7123461052 L915.349211828 74.8763088252 L915.185249108 74.8763088252 L915.021286388 75.0402715453 L914.857323668 75.0402715453 L914.693360948 75.2042342653 L914.529398228 75.2042342653 L914.365435508 75.3681969854 L914.201472788 75.3681969854 L914.037510068 75.5321597054 L913.873547348 75.5321597054 L913.709584628 75.6961224255 L913.545621908 75.6961224255 L913.381659188 75.8600851456 L913.217696468 75.8600851456 L913.053733748 76.0240478656 L912.889771027 76.0240478656 L912.725808307 76.1880105857 L912.561845587 76.1880105857 L912.233920147 76.5159360258 L912.233920147 76.6798987458 L912.069957427 76.8438614659 L912.069957427 89.3050281901 L912.233920147 89.4689909101 L912.889771027 89.4689909101 L913.053733748 89.3050281901 L913.217696468 89.3050281901 L913.545621908 88.97710275 L913.709584628 88.97710275 L913.873547348 88.8131400299 L914.037510068 88.8131400299 L914.365435508 88.4852145898 L914.529398228 88.4852145898 L914.693360948 88.3212518698 L914.857323668 88.3212518698 L915.185249108 87.9933264296 L915.349211828 87.9933264296 L915.677137268 87.6654009895 L915.841099988 87.6654009895 L916.005062709 87.5014382695 L916.169025429 87.5014382695 L916.496950869 87.1735128294 L916.660913589 87.1735128294 L916.988839029 86.8455873893 L917.152801749 86.8455873893 L917.316764469 86.6816246692 L917.480727189 86.6816246692 L917.808652629 86.3536992291 L917.972615349 86.3536992291 L918.136578069 86.189736509 L918.300540789 86.189736509 L918.628466229 85.8618110689 L918.792428949 85.8618110689 L919.12035439 85.5338856288 L919.28431711 85.5338856288 L919.44827983 85.3699229088 L919.61224255 85.3699229088 L919.94016799 85.0419974686 L920.10413071 85.0419974686 L920.43205615 84.7140720285 L920.59601887 84.7140720285 L920.75998159 84.5501093085 L920.92394431 84.5501093085 L921.25186975 84.2221838684 L921.41583247 84.2221838684 L921.57979519 84.0582211483 L921.74375791 84.0582211483 L922.071683351 83.7302957082 L922.235646071 83.7302957082 L922.563571511 83.4023702681 L922.727534231 83.4023702681 L922.891496951 83.238407548 L923.055459671 83.238407548 L923.383385111 82.9104821079 L923.547347831 82.9104821079 L923.711310551 82.7465193879 L923.875273271 82.7465193879 L924.203198711 82.4185939478 L924.367161431 82.4185939478 L924.695086871 82.0906685077 L924.859049592 82.0906685077 L925.023012312 81.9267057876 L925.186975032 81.9267057876 L925.514900472 81.5987803475 L925.678863192 81.5987803475 L926.006788632 81.2708549074 L926.170751352 81.2708549074 L926.334714072 81.1068921873 L926.498676792 81.1068921873 L926.662639512 80.9429294673 L926.826602232 81.1068921873 L926.826602232 81.2708549074 L926.990564952 81.4348176274 L926.990564952 81.5987803475 L927.154527672 81.7627430675 L927.154527672 81.9267057876 L927.318490392 82.0906685077 L927.318490392 82.2546312277 L927.646415832 82.5825566678 L927.646415832 82.7465193879 L928.138303993 83.238407548 L928.138303993 83.4023702681 L929.613968473 84.8780347486 L929.777931193 84.8780347486 L930.269819353 85.3699229088 L930.433782073 85.3699229088 L930.761707514 85.6978483489 L930.925670234 85.6978483489 L931.089632954 85.8618110689 L931.253595674 85.8618110689 L931.581521114 86.189736509 L931.745483834 86.189736509 L931.909446554 86.3536992291 L932.073409274 86.3536992291 L932.237371994 86.5176619491 L932.565297434 86.5176619491 L932.729260154 86.6816246692 L932.893222874 86.6816246692 L933.057185594 86.8455873893 L933.385111034 86.8455873893 L933.549073754 87.0095501093 L933.876999195 87.0095501093 L934.040961915 87.1735128294 L934.696812795 87.1735128294 L934.860775515 87.3374755494 L935.680589115 87.3374755494 L935.844551835 87.5014382695 L938.303992636 87.5014382695 L938.467955356 87.3374755494 L939.451731676 87.3374755494 L939.615694397 87.1735128294 L940.271545277 87.1735128294 L940.435507997 87.0095501093 L940.763433437 87.0095501093 L940.927396157 86.8455873893 L941.255321597 86.8455873893 L941.419284317 86.6816246692 L941.747209757 86.6816246692 L941.911172477 86.5176619491 L942.075135197 86.5176619491 L942.239097917 86.3536992291 L942.403060637 86.3536992291 L942.567023357 86.189736509 L942.730986078 86.189736509 L942.894948798 86.025773789 L943.058911518 86.025773789 L943.222874238 85.8618110689 L943.386836958 85.8618110689 L943.714762398 85.5338856288 L943.878725118 85.5338856288 L944.370613278 85.0419974686 L944.534575998 85.0419974686 L946.338165919 83.238407548 L946.338165919 83.074444828 L946.666091359 82.7465193879 L946.666091359 82.5825566678 L946.994016799 82.2546312277 L946.994016799 82.0906685077 L947.157979519 81.9267057876 L947.157979519 81.7627430675 L947.485904959 81.4348176274 L947.485904959 81.2708549074 L947.649867679 81.1068921873 L947.649867679 80.9429294673 L947.813830399 80.7789667472 L947.813830399 80.4510413071 L947.977793119 80.287078587 L947.977793119 80.123115867 L948.141755839 79.9591531469 L948.141755839 79.6312277068 L948.305718559 79.4672649868 L948.305718559 79.1393395467 L948.469681279 78.9753768266 L948.469681279 78.6474513865 L948.633644 78.4834886664 L948.633644 77.9916005063 L948.79760672 77.8276377862 L948.79760672 77.171786906 L948.96156944 77.0078241859 L948.96156944 75.8600851456 L949.12553216 75.6961224255 L949.12553216 59.1358876999 L948.79760672 58.8079622598 L948.633644 58.8079622598 L948.469681279 58.6439995398 912.561845587 58.6439995398 " stroke="black" fill="transparent"/>
<path d="M933.876999195 69.7934645035 L939.287768956 69.7934645035 L939.451731676 69.9574272236 L939.451731676 73.7285697848 L939.287768956 73.8925325049 L939.287768956 74.220457945 L939.123806236 74.3844206651 L939.123806236 74.5483833851 L938.959843516 74.7123461052 L938.959843516 74.8763088252 L938.140029916 75.6961224255 L937.976067196 75.6961224255 L937.812104476 75.8600851456 L937.484179036 75.8600851456 L937.320216316 76.0240478656 L935.844551835 76.0240478656 L935.680589115 75.8600851456 L935.516626395 75.8600851456 L935.352663675 75.6961224255 L935.188700955 75.6961224255 L935.024738235 75.5321597054 L934.860775515 75.5321597054 L934.368887355 75.0402715453 L934.368887355 74.8763088252 L934.204924635 74.7123461052 L934.204924635 74.5483833851 L934.040961915 74.3844206651 L934.040961915 74.220457945 L933.876999195 74.0564952249 L933.876999195 73.5646070648 L933.713036475 73.4006443447 L933.713036475 69.9574272236 933.876999195 69.7934645035 " stroke="black" fill="transparent"/>
<path d="M927.810378553 24.0478656081 L927.646415832 24.2118283282 L926.662639512 24.2118283282 L926.498676792 24.3757910482 L925.678863192 24.3757910482 L925.514900472 24.5397537683 L925.023012312 24.5397537683 L924.859049592 24.7037164883 L924.367161431 24.7037164883 L924.203198711 24.8676792084 L923.711310551 24.8676792084 L923.547347831 25.0316419284 L923.219422391 25.0316419284 L923.055459671 25.1956046485 L922.727534231 25.1956046485 L922.563571511 25.3595673685 L922.399608791 25.3595673685 L922.235646071 25.5235300886 L921.907720631 25.5235300886 L921.74375791 25.6874928087 L921.57979519 25.6874928087 L921.41583247 25.8514555287 L921.25186975 25.8514555287 L921.08790703 26.0154182488 L920.75998159 26.0154182488 L920.59601887 26.1793809688 L920.43205615 26.1793809688 L920.10413071 26.5073064089 L919.94016799 26.5073064089 L919.77620527 26.671269129 L919.61224255 26.671269129 L919.44827983 26.835231849 L919.28431711 26.835231849 L918.95639167 27.1631572891 L918.792428949 27.1631572891 L918.464503509 27.4910827293 L918.300540789 27.4910827293 L917.808652629 27.9829708894 L917.644689909 27.9829708894 L916.660913589 28.9667472098 L916.496950869 28.9667472098 L916.005062709 29.4586353699 L916.005062709 29.62259809 L915.021286388 30.6063744103 L915.021286388 30.7703371304 L914.529398228 31.2622252905 L914.529398228 31.4261880106 L914.201472788 31.7541134507 L914.201472788 31.9180761708 L913.873547348 32.2460016109 L913.873547348 32.4099643309 L913.545621908 32.737889771 L913.545621908 32.9018524911 L913.381659188 33.0658152111 L913.381659188 33.2297779312 L913.217696468 33.3937406512 L913.217696468 33.5577033713 L913.053733748 33.7216660914 L913.053733748 33.8856288114 L912.889771027 34.0495915315 L912.889771027 34.2135542515 L912.725808307 34.3775169716 L912.725808307 34.7054424117 L912.561845587 34.8694051317 L912.561845587 35.0333678518 L912.397882867 35.1973305719 L912.397882867 35.525256012 L912.233920147 35.689218732 L912.233920147 36.0171441721 L912.069957427 36.1811068922 L912.069957427 36.5090323323 L911.905994707 36.6729950524 L911.905994707 37.1648832125 L911.742031987 37.3288459326 L911.742031987 37.9846968128 L911.578069267 38.1486595329 L911.578069267 38.8045104131 L911.414106547 38.9684731331 L911.414106547 40.1162121735 L911.250143827 40.2801748936 L911.250143827 44.7071683351 L911.414106547 44.8711310551 L911.414106547 45.8549073754 L911.578069267 46.0188700955 L911.578069267 46.8386836958 L911.742031987 47.0026464158 L911.742031987 47.494534576 L911.905994707 47.6584972961 L911.905994707 48.1503854562 L912.069957427 48.3143481763 L912.069957427 48.8062363364 L912.233920147 48.9701990565 L912.233920147 49.2981244966 L912.397882867 49.4620872167 L912.397882867 49.7900126568 L912.561845587 49.9539753768 L912.561845587 50.2819008169 L912.725808307 50.445863537 L912.725808307 50.7737889771 L912.889771027 50.9377516972 L912.889771027 51.1017144172 L913.053733748 51.2656771373 L913.053733748 51.4296398573 L913.217696468 51.5936025774 L913.217696468 51.9215280175 L913.381659188 52.0854907375 L913.381659188 52.2494534576 L913.545621908 52.4134161777 L913.545621908 52.5773788977 L913.709584628 52.7413416178 L913.709584628 52.9053043378 L914.037510068 53.2332297779 L914.037510068 53.397192498 L914.201472788 53.561155218 L914.201472788 53.7251179381 L914.529398228 54.0530433782 L914.529398228 54.2170060983 L914.693360948 54.2170060983 L914.857323668 54.3809688183 L915.185249108 54.3809688183 L915.349211828 54.2170060983 L915.513174548 54.2170060983 L915.677137268 54.0530433782 L916.005062709 54.0530433782 L916.169025429 53.8890806582 L916.332988149 53.8890806582 L916.496950869 53.7251179381 L916.660913589 53.7251179381 L916.824876309 53.561155218 L916.988839029 53.561155218 L917.152801749 53.397192498 L917.316764469 53.397192498 L917.480727189 53.2332297779 L917.644689909 53.2332297779 L917.808652629 53.0692670579 L917.972615349 53.0692670579 L918.136578069 52.9053043378 L918.300540789 52.9053043378 L918.464503509 52.7413416178 L918.628466229 52.7413416178 L918.792428949 52.5773788977 L918.95639167 52.5773788977 L919.12035439 52.4134161777 L919.44827983 52.4134161777 L919.61224255 52.2494534576 L919.77620527 52.2494534576 L919.94016799 52.0854907375 L920.10413071 52.0854907375 L920.26809343 51.9215280175 L920.43205615 51.9215280175 L920.59601887 51.7575652974 L920.75998159 51.7575652974 L920.92394431 51.5936025774 L921.08790703 51.5936025774 L921.25186975 51.4296398573 L921.41583247 51.4296398573 L921.57979519 51.2656771373 L921.74375791 51.2656771373 L921.907720631 51.1017144172 L922.071683351 51.1017144172 L922.235646071 50.9377516972 L922.563571511 50.9377516972 L922.727534231 50.7737889771 L922.891496951 50.7737889771 L923.219422391 50.445863537 L923.219422391 50.2819008169 L923.383385111 50.1179380969 L923.383385111 49.9539753768 L923.219422391 49.7900126568 L923.219422391 49.6260499367 L923.055459671 49.4620872167 L923.055459671 49.2981244966 L922.891496951 49.1341617766 L922.891496951 48.9701990565 L922.727534231 48.8062363364 L922.727534231 48.4783108963 L922.563571511 48.3143481763 L922.563571511 48.1503854562 L922.399608791 47.9864227362 L922.399608791 47.6584972961 L922.235646071 47.494534576 L922.235646071 47.1666091359 L922.071683351 47.0026464158 L922.071683351 46.5107582557 L921.907720631 46.3467955356 L921.907720631 45.5269819353 L921.74375791 45.3630192153 L921.74375791 42.0837648142 L921.907720631 41.9198020941 L921.907720631 41.427913934 L922.071683351 41.2639512139 L922.071683351 40.7720630537 L922.235646071 40.6081003337 L922.235646071 40.4441376136 L922.399608791 40.2801748936 L922.399608791 39.9522494535 L922.563571511 39.7882867334 L922.563571511 39.6243240133 L922.891496951 39.2963985732 L922.891496951 39.1324358532 L923.219422391 38.8045104131 L923.219422391 38.640547693 L924.695086871 37.1648832125 L924.859049592 37.1648832125 L925.186975032 36.8369577724 L925.350937752 36.8369577724 L925.678863192 36.5090323323 L925.842825912 36.5090323323 L926.006788632 36.3450696122 L926.170751352 36.3450696122 L926.334714072 36.1811068922 L926.662639512 36.1811068922 L926.826602232 36.0171441721 L926.990564952 36.0171441721 L927.154527672 35.8531814521 L927.646415832 35.8531814521 L927.810378553 35.689218732 L928.302266713 35.689218732 L928.466229433 35.525256012 L929.286043033 35.525256012 L929.450005753 35.3612932919 L931.581521114 35.3612932919 L931.745483834 35.525256012 L932.729260154 35.525256012 L932.893222874 35.689218732 L933.385111034 35.689218732 L933.549073754 35.8531814521 L934.040961915 35.8531814521 L934.204924635 36.0171441721 L934.368887355 36.0171441721 L934.532850075 36.1811068922 L934.860775515 36.1811068922 L935.024738235 36.3450696122 L935.188700955 36.3450696122 L935.352663675 36.5090323323 L935.516626395 36.5090323323 L935.844551835 36.8369577724 L936.008514555 36.8369577724 L936.336439995 37.1648832125 L936.500402715 37.1648832125 L937.976067196 38.640547693 L937.976067196 38.8045104131 L938.303992636 39.1324358532 L938.303992636 39.2963985732 L938.467955356 39.4603612933 L938.467955356 39.6243240133 L938.631918076 39.7882867334 L938.631918076 39.9522494535 L938.795880796 40.1162121735 L938.795880796 40.2801748936 L938.959843516 40.4441376136 L938.959843516 40.7720630537 L939.123806236 40.9360257738 L939.123806236 41.2639512139 L939.287768956 41.427913934 L939.287768956 42.0837648142 L939.451731676 42.2477275342 L939.451731676 45.0350937752 L939.287768956 45.1990564952 L939.287768956 46.1828328156 L939.123806236 46.3467955356 L939.123806236 46.8386836958 L938.959843516 47.0026464158 L938.959843516 47.494534576 L938.795880796 47.6584972961 L938.795880796 47.9864227362 L938.631918076 48.1503854562 L938.631918076 48.3143481763 L938.467955356 48.4783108963 L938.467955356 48.6422736164 L938.303992636 48.8062363364 L938.303992636 48.9701990565 L938.140029916 49.1341617766 L938.140029916 49.2981244966 L937.976067196 49.4620872167 L937.976067196 49.6260499367 L937.812104476 49.7900126568 L937.812104476 50.2819008169 L938.303992636 50.7737889771 L938.467955356 50.7737889771 L938.631918076 50.9377516972 L938.795880796 50.9377516972 L938.959843516 51.1017144172 L939.287768956 51.1017144172 L939.451731676 51.2656771373 L939.615694397 51.2656771373 L939.779657117 51.4296398573 L939.943619837 51.4296398573 L940.107582557 51.5936025774 L940.271545277 51.5936025774 L940.435507997 51.7575652974 L940.599470717 51.7575652974 L940.763433437 51.9215280175 L940.927396157 51.9215280175 L941.091358877 52.0854907375 L941.255321597 52.0854907375 L941.419284317 52.2494534576 L941.583247037 52.2494534576 L941.747209757 52.4134161777 L941.911172477 52.4134161777 L942.075135197 52.5773788977 L942.239097917 52.5773788977 L942.403060637 52.7413416178 L942.730986078 52.7413416178 L942.894948798 52.9053043378 L943.058911518 52.9053043378 L943.222874238 53.0692670579 L943.386836958 53.0692670579 L943.550799678 53.2332297779 L943.714762398 53.2332297779 L943.878725118 53.397192498 L944.042687838 53.397192498 L944.206650558 53.561155218 L944.370613278 53.561155218 L944.534575998 53.7251179381 L944.698538718 53.7251179381 L944.862501438 53.8890806582 L945.026464158 53.8890806582 L945.190426878 54.0530433782 L945.354389598 54.0530433782 L945.518352318 54.2170060983 L945.846277759 54.2170060983 L946.010240479 54.3809688183 L946.338165919 54.3809688183 L946.994016799 53.7251179381 L946.994016799 53.561155218 L947.157979519 53.397192498 L947.157979519 53.2332297779 L947.321942239 53.0692670579 L947.321942239 52.9053043378 L947.485904959 52.7413416178 L947.485904959 52.5773788977 L947.649867679 52.4134161777 L947.649867679 52.2494534576 L947.813830399 52.0854907375 L947.813830399 51.9215280175 L947.977793119 51.7575652974 L947.977793119 51.5936025774 L948.141755839 51.4296398573 L948.141755839 51.2656771373 L948.305718559 51.1017144172 L948.305718559 50.7737889771 L948.469681279 50.609826257 L948.469681279 50.445863537 L948.633644 50.2819008169 L948.633644 49.9539753768 L948.79760672 49.7900126568 L948.79760672 49.4620872167 L948.96156944 49.2981244966 L948.96156944 48.8062363364 L949.12553216 48.6422736164 L949.12553216 48.3143481763 L949.28949488 48.1503854562 L949.28949488 47.6584972961 L949.4534576 47.494534576 L949.4534576 46.8386836958 L949.61742032 46.6747209757 L949.61742032 45.8549073754 L949.78138304 45.6909446554 L949.78138304 44.543205615 L949.94534576 44.3792428949 L950.0 44.3792428949 L950.0 40.4441376136 L949.94534576 40.4441376136 L949.78138304 40.2801748936 L949.78138304 39.1324358532 L949.61742032 38.9684731331 L949.61742032 38.1486595329 L949.4534576 37.9846968128 L949.4534576 37.4928086526 L949.28949488 37.3288459326 L949.28949488 36.8369577724 L949.12553216 36.6729950524 L949.12553216 36.3450696122 L948.96156944 36.1811068922 L948.96156944 35.8531814521 L948.79760672 35.689218732 L948.79760672 35.3612932919 L948.633644 35.1973305719 L948.633644 34.8694051317 L948.469681279 34.7054424117 L948.469681279 34.5414796916 L948.305718559 34.3775169716 L948.305718559 34.2135542515 L948.141755839 34.0495915315 L948.141755839 33.7216660914 L947.977793119 33.5577033713 L947.977793119 33.3937406512 L947.649867679 33.0658152111 L947.649867679 32.9018524911 L947.485904959 32.737889771 L947.485904959 32.573927051 L947.321942239 32.4099643309 L947.321942239 32.2460016109 L946.994016799 31.9180761708 L946.994016799 31.7541134507 L946.666091359 31.4261880106 L946.666091359 31.2622252905 L946.174203199 30.7703371304 L946.174203199 30.6063744103 L943.714762398 28.1469336095 L943.550799678 28.1469336095 L943.058911518 27.6550454493 L942.894948798 27.6550454493 L942.403060637 27.1631572891 L942.239097917 27.1631572891 L942.075135197 26.9991945691 L941.911172477 26.9991945691 L941.583247037 26.671269129 L941.419284317 26.671269129 L941.255321597 26.5073064089 L941.091358877 26.5073064089 L940.927396157 26.3433436889 L940.763433437 26.3433436889 L940.599470717 26.1793809688 L940.435507997 26.1793809688 L940.271545277 26.0154182488 L940.107582557 26.0154182488 L939.943619837 25.8514555287 L939.779657117 25.8514555287 L939.615694397 25.6874928087 L939.451731676 25.6874928087 L939.287768956 25.5235300886 L938.959843516 25.5235300886 L938.795880796 25.3595673685 L938.631918076 25.3595673685 L938.467955356 25.1956046485 L938.140029916 25.1956046485 L937.976067196 25.0316419284 L937.648141756 25.0316419284 L937.484179036 24.8676792084 L936.992290876 24.8676792084 L936.828328156 24.7037164883 L936.336439995 24.7037164883 L936.172477275 24.5397537683 L935.680589115 24.5397537683 L935.516626395 24.3757910482 L934.696812795 24.3757910482 L934.532850075 24.2118283282 L933.549073754 24.2118283282 L933.385111034 24.0478656081 927.810378553 24.0478656081 " stroke="black" fill="transparent"/>
<path d="M940.271545277 0.0546542400184 L940.271545277 0.109308480037 L949.94534576 9.7831089633 L950.0 9.7831089633 L950.0 0.0546542400184 940.271545277 0.0546542400184 " stroke="black" fill="transparent"/>
</svg>