<svg width="1500.0mm" height="1500.0mm" xmlns="http://www.w3.org/2000/svg" fill="transparent" ><path d="M473.55163728 472.921914358 L472.921914358 473.55163728 L472.921914358 1025.18891688 L473.55163728 1025.8186398 L473.55163728 1027.07808564 L1025.18891688 1027.07808564 L1027.07808564 1025.18891688 L1027.07808564 473.55163728 L1025.8186398 473.55163728 L1025.18891688 472.921914358 473.55163728 472.921914358 " stroke="black" fill="transparent"/>
<path d="M591.939546599 590.050377834 L592.569269521 589.420654912 L908.060453401 589.420654912 L909.949622166 591.309823678 L909.949622166 908.690176322 L908.690176322 909.949622166 L591.309823678 909.949622166 L589.420654912 908.060453401 L589.420654912 592.569269521 L590.050377834 591.939546599 L590.050377834 591.309823678 L591.309823678 590.050377834 591.939546599 590.050377834 " stroke="black" fill="transparent"/>
<path d="M254.408060453 252.518891688 L252.518891688 254.408060453 L252.518891688 1246.22166247 L253.14861461 1246.22166247 L253.778337531 1246.85138539 L1246.22166247 1246.85138539 L1246.85138539 1246.22166247 L1246.85138539 253.778337531 L1246.22166247 253.14861461 L1246.22166247 252.518891688 254.408060453 252.518891688 " stroke="black" fill="transparent"/>
<path d="M382.871536524 380.982367758 L1116.49874055 380.982367758 L1117.12846348 381.61209068 L1118.38790932 381.61209068 L1119.01763224 382.241813602 L1119.01763224 1117.7581864 L1117.7581864 1119.01763224 L382.241813602 1119.01763224 L381.61209068 1118.38790932 L381.61209068 1117.12846348 L380.982367758 1116.49874055 L380.982367758 382.871536524 382.871536524 380.982367758 " stroke="black" fill="transparent"/>
<path d="M0.629722921914 0.629722921914 L0.629722921914 1500.0 L1500.0 1500.0 L1500.0 0.629722921914 0.629722921914 0.629722921914 " stroke="black" fill="transparent"/>
<path d="M130.982367758 129.722921914 L1369.64735516 129.722921914 L1370.27707809 130.352644836 L1370.27707809 130.982367758 L1370.90680101 131.61209068 L1370.90680101 1369.01763224 L1369.01763224 1370.90680101 L131.61209068 1370.90680101 L130.982367758 1370.27707809 L130.352644836 1370.27707809 L129.722921914 1369.64735516 L129.722921914 130.982367758 130.982367758 129.722921914 " stroke="black" fill="transparent"/>
<path d="M478.589420655 477.959697733 L477.959697733 478.589420655 L477.959697733 1020.78085642 L478.589420655 1021.41057935 L478.589420655 1022.67002519 L1020.78085642 1022.67002519 L1022.67002519 1020.78085642 L1022.67002519 478.589420655 L1021.41057935 478.589420655 L1020.78085642 477.959697733 478.589420655 477.959697733 " stroke="black" fill="transparent"/>
<path d="M587.531486146 585.64231738 L588.161209068 585.012594458 L913.098236776 585.012594458 L914.987405542 586.901763224 L914.987405542 913.727959698 L913.727959698 914.987405542 L586.901763224 914.987405542 L585.012594458 913.098236776 L585.012594458 588.161209068 L585.64231738 587.531486146 L585.64231738 586.901763224 L586.901763224 585.64231738 587.531486146 585.64231738 " stroke="black" fill="transparent"/>
<path d="M259.445843829 257.556675063 L257.556675063 259.445843829 L257.556675063 1241.81360202 L258.186397985 1241.81360202 L258.816120907 1242.44332494 L1241.81360202 1242.44332494 L1242.44332494 1241.81360202 L1242.44332494 258.816120907 L1241.81360202 258.186397985 L1241.81360202 257.556675063 259.445843829 257.556675063 " stroke="black" fill="transparent"/>
<path d="M378.463476071 376.574307305 L1121.53652393 376.574307305 L1122.16624685 377.204030227 L1123.4256927 377.204030227 L1124.05541562 377.833753149 L1124.05541562 1122.79596977 L1122.79596977 1124.05541562 L377.833753149 1124.05541562 L377.204030227 1123.4256927 L377.204030227 1122.16624685 L376.574307305 1121.53652393 L376.574307305 378.463476071 378.463476071 376.574307305 " stroke="black" fill="transparent"/>
<path d="M5.66750629723 5.66750629723 L5.66750629723 1495.59193955 L1495.59193955 1495.59193955 L1495.59193955 5.66750629723 5.66750629723 5.66750629723 " stroke="black" fill="transparent"/>
<path d="M126.574307305 125.314861461 L1374.68513854 125.314861461 L1375.31486146 125.944584383 L1375.31486146 126.574307305 L1375.94458438 127.204030227 L1375.94458438 1374.05541562 L1374.05541562 1375.94458438 L127.204030227 1375.94458438 L126.574307305 1375.31486146 L125.944584383 1375.31486146 L125.314861461 1374.68513854 L125.314861461 126.574307305 126.574307305 125.314861461 " stroke="black" fill="transparent"/>
<path d="M483.62720403 482.997481108 L482.997481108 483.62720403 L482.997481108 1016.37279597 L483.62720403 1017.00251889 L483.62720403 1018.26196474 L1016.37279597 1018.26196474 L1018.26196474 1016.37279597 L1018.26196474 483.62720403 L1017.00251889 483.62720403 L1016.37279597 482.997481108 483.62720403 482.997481108 " stroke="black" fill="transparent"/>
<path d="M583.123425693 581.234256927 L583.753148615 580.604534005 L918.136020151 580.604534005 L920.025188917 582.493702771 L920.025188917 918.765743073 L918.765743073 920.025188917 L582.493702771 920.025188917 L580.604534005 918.136020151 L580.604534005 583.753148615 L581.234256927 583.123425693 L581.234256927 582.493702771 L582.493702771 581.234256927 583.123425693 581.234256927 " stroke="black" fill="transparent"/>
<path d="M264.483627204 262.594458438 L262.594458438 264.483627204 L262.594458438 1237.40554156 L263.22418136 1237.40554156 L263.853904282 1238.03526448 L1237.40554156 1238.03526448 L1238.03526448 1237.40554156 L1238.03526448 263.853904282 L1237.40554156 263.22418136 L1237.40554156 262.594458438 264.483627204 262.594458438 " stroke="black" fill="transparent"/>
<path d="M374.055415617 372.166246851 L1126.5743073 372.166246851 L1127.20403023 372.795969773 L1128.46347607 372.795969773 L1129.09319899 373.425692695 L1129.09319899 1127.83375315 L1127.83375315 1129.09319899 L373.425692695 1129.09319899 L372.795969773 1128.46347607 L372.795969773 1127.20403023 L372.166246851 1126.5743073 L372.166246851 374.055415617 374.055415617 372.166246851 " stroke="black" fill="transparent"/>
<path d="M10.7052896725 10.7052896725 L10.7052896725 1491.18387909 L1491.18387909 1491.18387909 L1491.18387909 10.7052896725 10.7052896725 10.7052896725 " stroke="black" fill="transparent"/>
<path d="M122.166246851 120.906801008 L1379.72292191 120.906801008 L1380.35264484 121.536523929 L1380.35264484 122.166246851 L1380.98236776 122.795969773 L1380.98236776 1379.09319899 L1379.09319899 1380.98236776 L122.795969773 1380.98236776 L122.166246851 1380.35264484 L121.536523929 1380.35264484 L120.906801008 1379.72292191 L120.906801008 122.166246851 122.166246851 120.906801008 " stroke="black" fill="transparent"/>
<path d="M488.664987406 488.035264484 L488.035264484 488.664987406 L488.035264484 1011.96473552 L488.664987406 1012.59445844 L488.664987406 1013.85390428 L1011.96473552 1013.85390428 L1013.85390428 1011.96473552 L1013.85390428 488.664987406 L1012.59445844 488.664987406 L1011.96473552 488.035264484 488.664987406 488.035264484 " stroke="black" fill="transparent"/>
<path d="M578.715365239 576.826196474 L579.345088161 576.196473552 L923.173803526 576.196473552 L925.062972292 578.085642317 L925.062972292 923.803526448 L923.803526448 925.062972292 L578.085642317 925.062972292 L576.196473552 923.173803526 L576.196473552 579.345088161 L576.826196474 578.715365239 L576.826196474 578.085642317 L578.085642317 576.826196474 578.715365239 576.826196474 " stroke="black" fill="transparent"/>
<path d="M269.521410579 267.632241814 L267.632241814 269.521410579 L267.632241814 1232.99748111 L268.261964736 1232.99748111 L268.891687657 1233.62720403 L1232.99748111 1233.62720403 L1233.62720403 1232.99748111 L1233.62720403 268.891687657 L1232.99748111 268.261964736 L1232.99748111 267.632241814 269.521410579 267.632241814 " stroke="black" fill="transparent"/>
<path d="M369.647355164 367.758186398 L1131.61209068 367.758186398 L1132.2418136 368.38790932 L1133.50125945 368.38790932 L1134.13098237 369.017632242 L1134.13098237 1132.87153652 L1132.87153652 1134.13098237 L369.017632242 1134.13098237 L368.38790932 1133.50125945 L368.38790932 1132.2418136 L367.758186398 1131.61209068 L367.758186398 369.647355164 369.647355164 367.758186398 " stroke="black" fill="transparent"/>
<path d="M15.7430730479 15.7430730479 L15.7430730479 1486.77581864 L1486.77581864 1486.77581864 L1486.77581864 15.7430730479 15.7430730479 15.7430730479 " stroke="black" fill="transparent"/>
<path d="M117.758186398 116.498740554 L1384.76070529 116.498740554 L1385.39042821 117.128463476 L1385.39042821 117.758186398 L1386.02015113 118.38790932 L1386.02015113 1384.13098237 L1384.13098237 1386.02015113 L118.38790932 1386.02015113 L117.758186398 1385.39042821 L117.128463476 1385.39042821 L116.498740554 1384.76070529 L116.498740554 117.758186398 117.758186398 116.498740554 " stroke="black" fill="transparent"/>
<path d="M493.702770781 493.073047859 L493.073047859 493.702770781 L493.073047859 1007.55667506 L493.702770781 1008.18639798 L493.702770781 1009.44584383 L1007.55667506 1009.44584383 L1009.44584383 1007.55667506 L1009.44584383 493.702770781 L1008.18639798 493.702770781 L1007.55667506 493.073047859 493.702770781 493.073047859 " stroke="black" fill="transparent"/>
<path d="M574.307304786 572.41813602 L574.937027708 571.788413098 L928.211586902 571.788413098 L930.100755668 573.677581864 L930.100755668 928.841309824 L928.841309824 930.100755668 L573.677581864 930.100755668 L571.788413098 928.211586902 L571.788413098 574.937027708 L572.41813602 574.307304786 L572.41813602 573.677581864 L573.677581864 572.41813602 574.307304786 572.41813602 " stroke="black" fill="transparent"/>
<path d="M274.559193955 272.670025189 L272.670025189 274.559193955 L272.670025189 1228.58942065 L273.299748111 1228.58942065 L273.929471033 1229.21914358 L1228.58942065 1229.21914358 L1229.21914358 1228.58942065 L1229.21914358 273.929471033 L1228.58942065 273.299748111 L1228.58942065 272.670025189 274.559193955 272.670025189 " stroke="black" fill="transparent"/>
<path d="M365.23929471 363.350125945 L1136.64987406 363.350125945 L1137.27959698 363.979848866 L1138.53904282 363.979848866 L1139.16876574 364.609571788 L1139.16876574 1137.9093199 L1137.9093199 1139.16876574 L364.609571788 1139.16876574 L363.979848866 1138.53904282 L363.979848866 1137.27959698 L363.350125945 1136.64987406 L363.350125945 365.23929471 365.23929471 363.350125945 " stroke="black" fill="transparent"/>
<path d="M20.7808564232 20.7808564232 L20.7808564232 1482.36775819 L1482.36775819 1482.36775819 L1482.36775819 20.7808564232 20.7808564232 20.7808564232 " stroke="black" fill="transparent"/>
<path d="M113.350125945 112.090680101 L1389.79848866 112.090680101 L1390.42821159 112.720403023 L1390.42821159 113.350125945 L1391.05793451 113.979848866 L1391.05793451 1389.16876574 L1389.16876574 1391.05793451 L113.979848866 1391.05793451 L113.350125945 1390.42821159 L112.720403023 1390.42821159 L112.090680101 1389.79848866 L112.090680101 113.350125945 113.350125945 112.090680101 " stroke="black" fill="transparent"/>
<path d="M498.740554156 498.110831234 L498.110831234 498.740554156 L498.110831234 1003.14861461 L498.740554156 1003.77833753 L498.740554156 1005.03778338 L1003.14861461 1005.03778338 L1005.03778338 1003.14861461 L1005.03778338 498.740554156 L1003.77833753 498.740554156 L1003.14861461 498.110831234 498.740554156 498.110831234 " stroke="black" fill="transparent"/>
<path d="M569.899244332 568.010075567 L570.528967254 567.380352645 L933.249370277 567.380352645 L935.138539043 569.269521411 L935.138539043 933.879093199 L933.879093199 935.138539043 L569.269521411 935.138539043 L567.380352645 933.249370277 L567.380352645 570.528967254 L568.010075567 569.899244332 L568.010075567 569.269521411 L569.269521411 568.010075567 569.899244332 568.010075567 " stroke="black" fill="transparent"/>
<path d="M279.59697733 277.707808564 L277.707808564 279.59697733 L277.707808564 1224.1813602 L278.337531486 1224.1813602 L278.967254408 1224.81108312 L1224.1813602 1224.81108312 L1224.81108312 1224.1813602 L1224.81108312 278.967254408 L1224.1813602 278.337531486 L1224.1813602 277.707808564 279.59697733 277.707808564 " stroke="black" fill="transparent"/>
<path d="M360.831234257 358.942065491 L1141.68765743 358.942065491 L1142.31738035 359.571788413 L1143.5768262 359.571788413 L1144.20654912 360.201511335 L1144.20654912 1142.94710327 L1142.94710327 1144.20654912 L360.201511335 1144.20654912 L359.571788413 1143.5768262 L359.571788413 1142.31738035 L358.942065491 1141.68765743 L358.942065491 360.831234257 360.831234257 358.942065491 " stroke="black" fill="transparent"/>
<path d="M25.8186397985 25.8186397985 L25.8186397985 1477.95969773 L1477.95969773 1477.95969773 L1477.95969773 25.8186397985 25.8186397985 25.8186397985 " stroke="black" fill="transparent"/>
<path d="M108.942065491 107.682619647 L1394.83627204 107.682619647 L1395.46599496 108.312342569 L1395.46599496 108.942065491 L1396.09571788 109.571788413 L1396.09571788 1394.20654912 L1394.20654912 1396.09571788 L109.571788413 1396.09571788 L108.942065491 1395.46599496 L108.312342569 1395.46599496 L107.682619647 1394.83627204 L107.682619647 108.942065491 108.942065491 107.682619647 " stroke="black" fill="transparent"/>
<path d="M503.778337531 503.14861461 L503.14861461 503.778337531 L503.14861461 998.740554156 L503.778337531 999.370277078 L503.778337531 1000.62972292 L998.740554156 1000.62972292 L1000.62972292 998.740554156 L1000.62972292 503.778337531 L999.370277078 503.778337531 L998.740554156 503.14861461 503.778337531 503.14861461 " stroke="black" fill="transparent"/>
<path d="M565.491183879 563.602015113 L566.120906801 562.972292191 L938.287153652 562.972292191 L940.176322418 564.861460957 L940.176322418 938.916876574 L938.916876574 940.176322418 L564.861460957 940.176322418 L562.972292191 938.287153652 L562.972292191 566.120906801 L563.602015113 565.491183879 L563.602015113 564.861460957 L564.861460957 563.602015113 565.491183879 563.602015113 " stroke="black" fill="transparent"/>
<path d="M284.634760705 282.74559194 L282.74559194 284.634760705 L282.74559194 1219.77329975 L283.375314861 1219.77329975 L284.005037783 1220.40302267 L1219.77329975 1220.40302267 L1220.40302267 1219.77329975 L1220.40302267 284.005037783 L1219.77329975 283.375314861 L1219.77329975 282.74559194 284.634760705 282.74559194 " stroke="black" fill="transparent"/>
<path d="M356.423173804 354.534005038 L1146.72544081 354.534005038 L1147.35516373 355.16372796 L1148.61460957 355.16372796 L1149.24433249 355.793450882 L1149.24433249 1147.98488665 L1147.98488665 1149.24433249 L355.793450882 1149.24433249 L355.16372796 1148.61460957 L355.16372796 1147.35516373 L354.534005038 1146.72544081 L354.534005038 356.423173804 356.423173804 354.534005038 " stroke="black" fill="transparent"/>
<path d="M30.8564231738 30.8564231738 L30.8564231738 1473.55163728 L1473.55163728 1473.55163728 L1473.55163728 30.8564231738 30.8564231738 30.8564231738 " stroke="black" fill="transparent"/>
<path d="M104.534005038 103.274559194 L1399.87405542 103.274559194 L1400.50377834 103.904282116 L1400.50377834 104.534005038 L1401.13350126 105.16372796 L1401.13350126 1399.24433249 L1399.24433249 1401.13350126 L105.16372796 1401.13350126 L104.534005038 1400.50377834 L103.904282116 1400.50377834 L103.274559194 1399.87405542 L103.274559194 104.534005038 104.534005038 103.274559194 " stroke="black" fill="transparent"/>
<path d="M508.816120907 508.186397985 L508.186397985 508.816120907 L508.186397985 994.332493703 L508.816120907 994.962216625 L508.816120907 996.221662469 L994.332493703 996.221662469 L996.221662469 994.332493703 L996.221662469 508.816120907 L994.962216625 508.816120907 L994.332493703 508.186397985 508.816120907 508.186397985 " stroke="black" fill="transparent"/>
<path d="M561.083123426 559.19395466 L561.712846348 558.564231738 L943.324937028 558.564231738 L945.214105793 560.453400504 L945.214105793 943.95465995 L943.95465995 945.214105793 L560.453400504 945.214105793 L558.564231738 943.324937028 L558.564231738 561.712846348 L559.19395466 561.083123426 L559.19395466 560.453400504 L560.453400504 559.19395466 561.083123426 559.19395466 " stroke="black" fill="transparent"/>
<path d="M289.672544081 287.783375315 L287.783375315 289.672544081 L287.783375315 1215.36523929 L288.413098237 1215.36523929 L289.042821159 1215.99496222 L1215.36523929 1215.99496222 L1215.99496222 1215.36523929 L1215.99496222 289.042821159 L1215.36523929 288.413098237 L1215.36523929 287.783375315 289.672544081 287.783375315 " stroke="black" fill="transparent"/>
<path d="M352.01511335 350.125944584 L1151.76322418 350.125944584 L1152.3929471 350.755667506 L1153.65239295 350.755667506 L1154.28211587 351.385390428 L1154.28211587 1153.02267003 L1153.02267003 1154.28211587 L351.385390428 1154.28211587 L350.755667506 1153.65239295 L350.755667506 1152.3929471 L350.125944584 1151.76322418 L350.125944584 352.01511335 352.01511335 350.125944584 " stroke="black" fill="transparent"/>
<path d="M35.8942065491 35.8942065491 L35.8942065491 1469.14357683 L1469.14357683 1469.14357683 L1469.14357683 35.8942065491 35.8942065491 35.8942065491 " stroke="black" fill="transparent"/>
<path d="M100.125944584 98.8664987406 L1404.91183879 98.8664987406 L1405.54156171 99.4962216625 L1405.54156171 100.125944584 L1406.17128463 100.755667506 L1406.17128463 1404.28211587 L1404.28211587 1406.17128463 L100.755667506 1406.17128463 L100.125944584 1405.54156171 L99.4962216625 1405.54156171 L98.8664987406 1404.91183879 L98.8664987406 100.125944584 100.125944584 98.8664987406 " stroke="black" fill="transparent"/>
<path d="M513.853904282 513.22418136 L513.22418136 513.853904282 L513.22418136 989.924433249 L513.853904282 990.554156171 L513.853904282 991.813602015 L989.924433249 991.813602015 L991.813602015 989.924433249 L991.813602015 513.853904282 L990.554156171 513.853904282 L989.924433249 513.22418136 513.853904282 513.22418136 " stroke="black" fill="transparent"/>
<path d="M556.675062972 554.785894207 L557.304785894 554.156171285 L948.362720403 554.156171285 L950.251889169 556.04534005 L950.251889169 948.992443325 L948.992443325 950.251889169 L556.04534005 950.251889169 L554.156171285 948.362720403 L554.156171285 557.304785894 L554.785894207 556.675062972 L554.785894207 556.04534005 L556.04534005 554.785894207 556.675062972 554.785894207 " stroke="black" fill="transparent"/>
<path d="M294.710327456 292.82115869 L292.82115869 294.710327456 L292.82115869 1210.95717884 L293.450881612 1210.95717884 L294.080604534 1211.58690176 L1210.95717884 1211.58690176 L1211.58690176 1210.95717884 L1211.58690176 294.080604534 L1210.95717884 293.450881612 L1210.95717884 292.82115869 294.710327456 292.82115869 " stroke="black" fill="transparent"/>
<path d="M347.607052897 345.717884131 L1156.80100756 345.717884131 L1157.43073048 346.347607053 L1158.69017632 346.347607053 L1159.31989924 346.977329975 L1159.31989924 1158.0604534 L1158.0604534 1159.31989924 L346.977329975 1159.31989924 L346.347607053 1158.69017632 L346.347607053 1157.43073048 L345.717884131 1156.80100756 L345.717884131 347.607052897 347.607052897 345.717884131 " stroke="black" fill="transparent"/>
<path d="M40.9319899244 40.9319899244 L40.9319899244 1464.73551637 L1464.73551637 1464.73551637 L1464.73551637 40.9319899244 40.9319899244 40.9319899244 " stroke="black" fill="transparent"/>
<path d="M95.717884131 94.4584382872 L1409.94962217 94.4584382872 L1410.57934509 95.0881612091 L1410.57934509 95.717884131 L1411.20906801 96.3476070529 L1411.20906801 1409.31989924 L1409.31989924 1411.20906801 L96.3476070529 1411.20906801 L95.717884131 1410.57934509 L95.0881612091 1410.57934509 L94.4584382872 1409.94962217 L94.4584382872 95.717884131 95.717884131 94.4584382872 " stroke="black" fill="transparent"/>
<path d="M518.891687657 518.261964736 L518.261964736 518.891687657 L518.261964736 985.516372796 L518.891687657 986.146095718 L518.891687657 987.405541562 L985.516372796 987.405541562 L987.405541562 985.516372796 L987.405541562 518.891687657 L986.146095718 518.891687657 L985.516372796 518.261964736 518.891687657 518.261964736 " stroke="black" fill="transparent"/>
<path d="M552.267002519 550.377833753 L552.896725441 549.748110831 L953.400503778 549.748110831 L955.289672544 551.637279597 L955.289672544 954.0302267 L954.0302267 955.289672544 L551.637279597 955.289672544 L549.748110831 953.400503778 L549.748110831 552.896725441 L550.377833753 552.267002519 L550.377833753 551.637279597 L551.637279597 550.377833753 552.267002519 550.377833753 " stroke="black" fill="transparent"/>
<path d="M299.748110831 297.858942065 L297.858942065 299.748110831 L297.858942065 1206.54911839 L298.488664987 1206.54911839 L299.118387909 1207.17884131 L1206.54911839 1207.17884131 L1207.17884131 1206.54911839 L1207.17884131 299.118387909 L1206.54911839 298.488664987 L1206.54911839 297.858942065 299.748110831 297.858942065 " stroke="black" fill="transparent"/>
<path d="M343.198992443 341.309823678 L1161.83879093 341.309823678 L1162.46851385 341.939546599 L1163.7279597 341.939546599 L1164.35768262 342.569269521 L1164.35768262 1163.09823678 L1163.09823678 1164.35768262 L342.569269521 1164.35768262 L341.939546599 1163.7279597 L341.939546599 1162.46851385 L341.309823678 1161.83879093 L341.309823678 343.198992443 343.198992443 341.309823678 " stroke="black" fill="transparent"/>
<path d="M45.9697732997 45.9697732997 L45.9697732997 1460.32745592 L1460.32745592 1460.32745592 L1460.32745592 45.9697732997 45.9697732997 45.9697732997 " stroke="black" fill="transparent"/>
<path d="M91.3098236776 90.0503778338 L1414.98740554 90.0503778338 L1415.61712846 90.6801007557 L1415.61712846 91.3098236776 L1416.24685139 91.9395465995 L1416.24685139 1414.35768262 L1414.35768262 1416.24685139 L91.9395465995 1416.24685139 L91.3098236776 1415.61712846 L90.6801007557 1415.61712846 L90.0503778338 1414.98740554 L90.0503778338 91.3098236776 91.3098236776 90.0503778338 " stroke="black" fill="transparent"/>
<path d="M523.929471033 523.299748111 L523.299748111 523.929471033 L523.299748111 981.108312343 L523.929471033 981.738035264 L523.929471033 982.997481108 L981.108312343 982.997481108 L982.997481108 981.108312343 L982.997481108 523.929471033 L981.738035264 523.929471033 L981.108312343 523.299748111 523.929471033 523.299748111 " stroke="black" fill="transparent"/>
<path d="M547.858942065 545.9697733 L548.488664987 545.340050378 L958.438287154 545.340050378 L960.327455919 547.229219144 L960.327455919 959.068010076 L959.068010076 960.327455919 L547.229219144 960.327455919 L545.340050378 958.438287154 L545.340050378 548.488664987 L545.9697733 547.858942065 L545.9697733 547.229219144 L547.229219144 545.9697733 547.858942065 545.9697733 " stroke="black" fill="transparent"/>
<path d="M304.785894207 302.896725441 L302.896725441 304.785894207 L302.896725441 1202.14105793 L303.526448363 1202.14105793 L304.156171285 1202.77078086 L1202.14105793 1202.77078086 L1202.77078086 1202.14105793 L1202.77078086 304.156171285 L1202.14105793 303.526448363 L1202.14105793 302.896725441 304.785894207 302.896725441 " stroke="black" fill="transparent"/>
<path d="M338.79093199 336.901763224 L1166.87657431 336.901763224 L1167.50629723 337.531486146 L1168.76574307 337.531486146 L1169.39546599 338.161209068 L1169.39546599 1168.13602015 L1168.13602015 1169.39546599 L338.161209068 1169.39546599 L337.531486146 1168.76574307 L337.531486146 1167.50629723 L336.901763224 1166.87657431 L336.901763224 338.79093199 338.79093199 336.901763224 " stroke="black" fill="transparent"/>
<path d="M51.0075566751 51.0075566751 L51.0075566751 1455.91939547 L1455.91939547 1455.91939547 L1455.91939547 51.0075566751 51.0075566751 51.0075566751 " stroke="black" fill="transparent"/>
<path d="M86.9017632242 85.6423173804 L1420.02518892 85.6423173804 L1420.65491184 86.2720403023 L1420.65491184 86.9017632242 L1421.28463476 87.5314861461 L1421.28463476 1419.39546599 L1419.39546599 1421.28463476 L87.5314861461 1421.28463476 L86.9017632242 1420.65491184 L86.2720403023 1420.65491184 L85.6423173804 1420.02518892 L85.6423173804 86.9017632242 86.9017632242 85.6423173804 " stroke="black" fill="transparent"/>
<path d="M528.967254408 528.337531486 L528.337531486 528.967254408 L528.337531486 976.700251889 L528.967254408 977.329974811 L528.967254408 978.589420655 L976.700251889 978.589420655 L978.589420655 976.700251889 L978.589420655 528.967254408 L977.329974811 528.967254408 L976.700251889 528.337531486 528.967254408 528.337531486 " stroke="black" fill="transparent"/>
<path d="M543.450881612 541.561712846 L544.080604534 540.931989924 L963.476070529 540.931989924 L965.365239295 542.82115869 L965.365239295 964.105793451 L964.105793451 965.365239295 L542.82115869 965.365239295 L540.931989924 963.476070529 L540.931989924 544.080604534 L541.561712846 543.450881612 L541.561712846 542.82115869 L542.82115869 541.561712846 543.450881612 541.561712846 " stroke="black" fill="transparent"/>
<path d="M309.823677582 307.934508816 L307.934508816 309.823677582 L307.934508816 1197.73299748 L308.564231738 1197.73299748 L309.19395466 1198.3627204 L1197.73299748 1198.3627204 L1198.3627204 1197.73299748 L1198.3627204 309.19395466 L1197.73299748 308.564231738 L1197.73299748 307.934508816 309.823677582 307.934508816 " stroke="black" fill="transparent"/>
<path d="M334.382871537 332.493702771 L1171.91435768 332.493702771 L1172.5440806 333.123425693 L1173.80352645 333.123425693 L1174.43324937 333.753148615 L1174.43324937 1173.17380353 L1173.17380353 1174.43324937 L333.753148615 1174.43324937 L333.123425693 1173.80352645 L333.123425693 1172.5440806 L332.493702771 1171.91435768 L332.493702771 334.382871537 334.382871537 332.493702771 " stroke="black" fill="transparent"/>
<path d="M56.0453400504 56.0453400504 L56.0453400504 1451.51133501 L1451.51133501 1451.51133501 L1451.51133501 56.0453400504 56.0453400504 56.0453400504 " stroke="black" fill="transparent"/>
<path d="M82.4937027708 81.234256927 L1425.06297229 81.234256927 L1425.69269521 81.8639798489 L1425.69269521 82.4937027708 L1426.32241814 83.1234256927 L1426.32241814 1424.43324937 L1424.43324937 1426.32241814 L83.1234256927 1426.32241814 L82.4937027708 1425.69269521 L81.8639798489 1425.69269521 L81.234256927 1425.06297229 L81.234256927 82.4937027708 82.4937027708 81.234256927 " stroke="black" fill="transparent"/>
<path d="M534.005037783 533.375314861 L533.375314861 534.005037783 L533.375314861 972.292191436 L534.005037783 972.921914358 L534.005037783 974.181360202 L972.292191436 974.181360202 L974.181360202 972.292191436 L974.181360202 534.005037783 L972.921914358 534.005037783 L972.292191436 533.375314861 534.005037783 533.375314861 " stroke="black" fill="transparent"/>
<path d="M539.042821159 537.153652393 L539.672544081 536.523929471 L968.513853904 536.523929471 L970.40302267 538.413098237 L970.40302267 969.143576826 L969.143576826 970.40302267 L538.413098237 970.40302267 L536.523929471 968.513853904 L536.523929471 539.672544081 L537.153652393 539.042821159 L537.153652393 538.413098237 L538.413098237 537.153652393 539.042821159 537.153652393 " stroke="black" fill="transparent"/>
<path d="M314.861460957 312.972292191 L312.972292191 314.861460957 L312.972292191 1193.32493703 L313.602015113 1193.32493703 L314.231738035 1193.95465995 L1193.32493703 1193.95465995 L1193.95465995 1193.32493703 L1193.95465995 314.231738035 L1193.32493703 313.602015113 L1193.32493703 312.972292191 314.861460957 312.972292191 " stroke="black" fill="transparent"/>
<path d="M329.974811083 328.085642317 L1176.95214106 328.085642317 L1177.58186398 328.715365239 L1178.84130982 328.715365239 L1179.47103275 329.345088161 L1179.47103275 1178.2115869 L1178.2115869 1179.47103275 L329.345088161 1179.47103275 L328.715365239 1178.84130982 L328.715365239 1177.58186398 L328.085642317 1176.95214106 L328.085642317 329.974811083 329.974811083 328.085642317 " stroke="black" fill="transparent"/>
<path d="M61.0831234257 61.0831234257 L61.0831234257 1447.10327456 L1447.10327456 1447.10327456 L1447.10327456 61.0831234257 61.0831234257 61.0831234257 " stroke="black" fill="transparent"/>
<path d="M78.0856423174 76.8261964736 L1430.10075567 76.8261964736 L1430.73047859 77.4559193955 L1430.73047859 78.0856423174 L1431.36020151 78.7153652393 L1431.36020151 1429.47103275 L1429.47103275 1431.36020151 L78.7153652393 1431.36020151 L78.0856423174 1430.73047859 L77.4559193955 1430.73047859 L76.8261964736 1430.10075567 L76.8261964736 78.0856423174 78.0856423174 76.8261964736 " stroke="black" fill="transparent"/>
<path d="M319.899244332 318.010075567 L318.010075567 319.899244332 L318.010075567 1188.91687657 L318.639798489 1188.91687657 L319.269521411 1189.5465995 L1188.91687657 1189.5465995 L1189.5465995 1188.91687657 L1189.5465995 319.269521411 L1188.91687657 318.639798489 L1188.91687657 318.010075567 319.899244332 318.010075567 " stroke="black" fill="transparent"/>
<path d="M325.56675063 323.677581864 L1181.98992443 323.677581864 L1182.61964736 324.307304786 L1183.8790932 324.307304786 L1184.50881612 324.937027708 L1184.50881612 1183.24937028 L1183.24937028 1184.50881612 L324.937027708 1184.50881612 L324.307304786 1183.8790932 L324.307304786 1182.61964736 L323.677581864 1181.98992443 L323.677581864 325.56675063 325.56675063 323.677581864 " stroke="black" fill="transparent"/>
<path d="M66.120906801 66.120906801 L66.120906801 1442.69521411 L1442.69521411 1442.69521411 L1442.69521411 66.120906801 66.120906801 66.120906801 " stroke="black" fill="transparent"/>
<path d="M73.677581864 72.4181360202 L1435.13853904 72.4181360202 L1435.76826196 73.0478589421 L1435.76826196 73.677581864 L1436.39798489 74.3073047859 L1436.39798489 1434.50881612 L1434.50881612 1436.39798489 L74.3073047859 1436.39798489 L73.677581864 1435.76826196 L73.0478589421 1435.76826196 L72.4181360202 1435.13853904 L72.4181360202 73.677581864 73.677581864 72.4181360202 " stroke="black" fill="transparent"/>
</svg>