<svg width="100.0mm" height="69.3717277486911mm" xmlns="http://www.w3.org/2000/svg" fill="transparent" ><path d="M31.2390924956 0.087260034904 L31.2390924956 0.174520069808 L31.0645724258 0.349040139616 L30.5410122164 0.349040139616 L30.2792321117 0.610820244328 L29.7556719023 0.610820244328 L29.4938917976 0.87260034904 L29.2321116928 0.87260034904 L28.9703315881 1.13438045375 L28.4467713787 1.13438045375 L28.184991274 1.39616055846 L27.9232111693 1.39616055846 L27.6614310646 1.65794066318 L27.3996509599 1.65794066318 L27.1378708551 1.91972076789 L26.8760907504 1.91972076789 L26.6143106457 2.1815008726 L26.352530541 2.1815008726 L26.0907504363 2.44328097731 L25.8289703316 2.44328097731 L25.5671902269 2.70506108202 L25.3054101222 2.70506108202 L25.0436300175 2.96684118674 L24.7818499127 2.96684118674 L24.520069808 3.22862129145 L24.2582897033 3.22862129145 L23.9965095986 3.49040139616 L23.7347294939 3.49040139616 L23.2111692845 4.01396160558 L22.9493891798 4.01396160558 L22.687609075 4.2757417103 L22.4258289703 4.2757417103 L21.9022687609 4.79930191972 L21.6404886562 4.79930191972 L21.3787085515 5.06108202443 L21.1169284468 5.06108202443 L20.5933682373 5.58464223386 L20.3315881326 5.58464223386 L19.8080279232 6.10820244328 L19.5462478185 6.10820244328 L19.0226876091 6.63176265271 L18.7609075044 6.63176265271 L17.9755671902 7.41710296684 L17.7137870855 7.41710296684 L16.9284467714 8.20244328098 L16.6666666667 8.20244328098 L15.6195462478 9.24956369983 L15.3577661431 9.24956369983 L14.0488656195 10.5584642234 L13.7870855148 10.5584642234 L8.7260034904 15.6195462478 L8.7260034904 15.8813263525 L7.41710296684 17.1902268761 L7.41710296684 17.4520069808 L6.63176265271 18.2373472949 L6.63176265271 18.4991273997 L5.84642233857 19.2844677138 L5.84642233857 19.5462478185 L5.32286212914 20.0698080279 L5.32286212914 20.3315881326 L4.79930191972 20.8551483421 L4.79930191972 21.1169284468 L4.53752181501 21.3787085515 L4.53752181501 21.6404886562 L4.01396160558 22.1640488656 L4.01396160558 22.4258289703 L3.75218150087 22.687609075 L3.75218150087 22.9493891798 L3.49040139616 23.2111692845 L3.49040139616 23.4729493892 L3.22862129145 23.7347294939 L3.22862129145 23.9965095986 L2.96684118674 24.2582897033 L2.96684118674 24.520069808 L2.70506108202 24.7818499127 L2.70506108202 25.0436300175 L2.44328097731 25.3054101222 L2.44328097731 25.5671902269 L2.1815008726 25.8289703316 L2.1815008726 26.0907504363 L1.91972076789 26.352530541 L1.91972076789 26.8760907504 L1.65794066318 27.1378708551 L1.65794066318 27.3996509599 L1.39616055846 27.6614310646 L1.39616055846 28.184991274 L1.13438045375 28.4467713787 L1.13438045375 28.9703315881 L0.87260034904 29.2321116928 L0.87260034904 30.017452007 L0.610820244328 30.2792321117 L0.610820244328 31.0645724258 L0.349040139616 31.3263525305 L0.349040139616 32.3734729494 L0.174520069808 32.5479930192 L0.087260034904 32.5479930192 L0.087260034904 36.9109947644 L0.174520069808 36.9109947644 L0.349040139616 37.0855148342 L0.349040139616 38.1326352531 L0.610820244328 38.3944153578 L0.610820244328 39.1797556719 L0.87260034904 39.4415357766 L0.87260034904 39.965095986 L1.13438045375 40.2268760908 L1.13438045375 40.7504363002 L1.39616055846 41.0122164049 L1.39616055846 41.5357766143 L1.65794066318 41.797556719 L1.65794066318 42.3211169284 L1.91972076789 42.5828970332 L1.91972076789 42.8446771379 L2.1815008726 43.1064572426 L2.1815008726 43.3682373473 L2.44328097731 43.630017452 L2.44328097731 43.8917975567 L2.70506108202 44.1535776614 L2.70506108202 44.4153577661 L2.96684118674 44.6771378709 L2.96684118674 44.9389179756 L3.22862129145 45.2006980803 L3.22862129145 45.462478185 L3.49040139616 45.7242582897 L3.49040139616 45.9860383944 L3.75218150087 46.2478184991 L3.75218150087 46.5095986038 L4.2757417103 47.0331588133 L4.2757417103 47.294938918 L4.53752181501 47.5567190227 L4.53752181501 47.8184991274 L5.06108202443 48.3420593368 L5.06108202443 48.6038394415 L5.84642233857 49.3891797557 L5.84642233857 49.6509598604 L6.36998254799 50.1745200698 L6.36998254799 50.4363001745 L7.41710296684 51.4834205934 L7.41710296684 51.7452006981 L8.7260034904 53.0541012216 L8.7260034904 53.3158813264 L13.5253054101 58.1151832461 L13.7870855148 58.1151832461 L15.0959860384 59.4240837696 L15.3577661431 59.4240837696 L16.404886562 60.4712041885 L16.6666666667 60.4712041885 L17.4520069808 61.2565445026 L17.7137870855 61.2565445026 L18.4991273997 62.0418848168 L18.7609075044 62.0418848168 L19.2844677138 62.5654450262 L19.5462478185 62.5654450262 L20.3315881326 63.3507853403 L20.5933682373 63.3507853403 L20.8551483421 63.612565445 L21.1169284468 63.612565445 L21.6404886562 64.1361256545 L21.9022687609 64.1361256545 L22.4258289703 64.6596858639 L22.687609075 64.6596858639 L22.9493891798 64.9214659686 L23.2111692845 64.9214659686 L23.7347294939 65.445026178 L23.9965095986 65.445026178 L24.2582897033 65.7068062827 L24.520069808 65.7068062827 L24.7818499127 65.9685863874 L25.0436300175 65.9685863874 L25.3054101222 66.2303664921 L25.5671902269 66.2303664921 L25.8289703316 66.4921465969 L26.0907504363 66.4921465969 L26.352530541 66.7539267016 L26.6143106457 66.7539267016 L26.8760907504 67.0157068063 L27.1378708551 67.0157068063 L27.3996509599 67.277486911 L27.6614310646 67.277486911 L27.9232111693 67.5392670157 L28.184991274 67.5392670157 L28.4467713787 67.8010471204 L28.7085514834 67.8010471204 L28.9703315881 68.0628272251 L29.4938917976 68.0628272251 L29.7556719023 68.3246073298 L30.017452007 68.3246073298 L30.2792321117 68.5863874346 L30.8027923211 68.5863874346 L31.0645724258 68.8481675393 L31.5881326353 68.8481675393 L31.84991274 69.109947644 L32.3734729494 69.109947644 L32.5479930192 69.2844677138 L32.5479930192 69.3717277487 L36.1256544503 69.3717277487 L36.1256544503 69.2844677138 L36.3001745201 69.109947644 L36.5619546248 69.109947644 L36.8237347295 68.8481675393 L37.0855148342 68.8481675393 L39.5287958115 66.404886562 L39.5287958115 66.1431064572 L40.0523560209 65.6195462478 L40.0523560209 65.3577661431 L40.5759162304 64.8342059337 L40.5759162304 64.572425829 L40.8376963351 64.3106457243 L40.8376963351 64.0488656195 L41.0994764398 63.7870855148 L41.0994764398 63.5253054101 L41.3612565445 63.2635253054 L41.3612565445 63.0017452007 L41.6230366492 62.739965096 L41.6230366492 62.4781849913 L41.8848167539 62.2164048866 L41.8848167539 61.9546247818 L42.1465968586 61.6928446771 L42.1465968586 61.4310645724 L42.4083769634 61.1692844677 L42.4083769634 60.907504363 L42.6701570681 60.6457242583 L42.6701570681 60.3839441536 L42.9319371728 60.1221640489 L42.9319371728 59.5986038394 L43.1937172775 59.3368237347 L43.1937172775 59.07504363 L43.4554973822 58.8132635253 L43.4554973822 58.5514834206 L43.7172774869 58.2897033159 L43.7172774869 57.7661431065 L43.9790575916 57.5043630017 L43.9790575916 56.9808027923 L44.2408376963 56.7190226876 L44.2408376963 56.4572425829 L44.502617801 56.1954624782 L44.502617801 55.6719022688 L44.7643979058 55.410122164 L44.7643979058 54.8865619546 L45.0261780105 54.6247818499 L45.0261780105 54.3630017452 L45.2879581152 54.1012216405 L45.2879581152 53.5776614311 L45.5497382199 53.3158813264 L45.5497382199 52.7923211169 L45.8115183246 52.5305410122 L45.8115183246 52.0069808028 L46.0732984293 51.7452006981 L46.0732984293 51.2216404887 L46.335078534 50.9598603839 L46.335078534 50.4363001745 L46.5968586387 50.1745200698 L46.5968586387 49.6509598604 L46.8586387435 49.3891797557 L46.8586387435 48.8656195462 L47.1204188482 48.6038394415 L47.1204188482 48.3420593368 L47.3821989529 48.0802792321 L47.3821989529 47.5567190227 L47.6439790576 47.294938918 L47.6439790576 46.7713787086 L47.9057591623 46.5095986038 L47.9057591623 45.9860383944 L48.167539267 45.7242582897 L48.167539267 45.2006980803 L48.4293193717 44.9389179756 L48.4293193717 44.4153577661 L48.6910994764 44.1535776614 L48.6910994764 43.630017452 L48.9528795812 43.3682373473 L48.9528795812 42.8446771379 L49.2146596859 42.5828970332 L49.2146596859 42.3211169284 L49.4764397906 42.0593368237 L49.4764397906 41.5357766143 L49.7382198953 41.2739965096 L49.7382198953 40.7504363002 L50.0 40.4886561955 L50.0 40.2268760908 L50.2617801047 39.965095986 L50.2617801047 39.4415357766 L50.5235602094 39.1797556719 L50.5235602094 38.9179755672 L50.7853403141 38.6561954625 L50.7853403141 38.1326352531 L51.0471204188 37.8708551483 L51.0471204188 37.6090750436 L51.3089005236 37.3472949389 L51.3089005236 37.0855148342 L51.5706806283 36.8237347295 L51.5706806283 36.5619546248 L51.832460733 36.3001745201 L51.832460733 36.0383944154 L52.0942408377 35.7766143106 L52.0942408377 35.5148342059 L52.2687609075 35.3403141361 L52.705061082 35.7766143106 L52.705061082 36.0383944154 L53.2286212914 36.5619546248 L53.2286212914 36.8237347295 L53.4904013962 37.0855148342 L53.4904013962 37.3472949389 L53.7521815009 37.6090750436 L53.7521815009 37.8708551483 L54.0139616056 38.1326352531 L54.0139616056 38.6561954625 L54.2757417103 38.9179755672 L54.2757417103 39.1797556719 L54.537521815 39.4415357766 L54.537521815 39.7033158813 L54.7993019197 39.965095986 L54.7993019197 40.2268760908 L55.0610820244 40.4886561955 L55.0610820244 41.0122164049 L55.3228621291 41.2739965096 L55.3228621291 41.5357766143 L55.5846422339 41.797556719 L55.5846422339 42.3211169284 L55.8464223386 42.5828970332 L55.8464223386 42.8446771379 L56.1082024433 43.1064572426 L56.1082024433 43.630017452 L56.369982548 43.8917975567 L56.369982548 44.1535776614 L56.6317626527 44.4153577661 L56.6317626527 44.9389179756 L56.8935427574 45.2006980803 L56.8935427574 45.462478185 L57.1553228621 45.7242582897 L57.1553228621 46.2478184991 L57.4171029668 46.5095986038 L57.4171029668 46.7713787086 L57.6788830716 47.0331588133 L57.6788830716 47.5567190227 L57.9406631763 47.8184991274 L57.9406631763 48.0802792321 L58.202443281 48.3420593368 L58.202443281 48.8656195462 L58.4642233857 49.127399651 L58.4642233857 49.3891797557 L58.7260034904 49.6509598604 L58.7260034904 50.1745200698 L58.9877835951 50.4363001745 L58.9877835951 50.6980802792 L59.2495636998 50.9598603839 L59.2495636998 51.4834205934 L59.5113438045 51.7452006981 L59.5113438045 52.0069808028 L59.7731239092 52.2687609075 L59.7731239092 52.7923211169 L60.034904014 53.0541012216 L60.034904014 53.3158813264 L60.2966841187 53.5776614311 L60.2966841187 53.8394415358 L60.5584642234 54.1012216405 L60.5584642234 54.6247818499 L60.8202443281 54.8865619546 L60.8202443281 55.1483420593 L61.0820244328 55.410122164 L61.0820244328 55.6719022688 L61.3438045375 55.9336823735 L61.3438045375 56.4572425829 L61.6055846422 56.7190226876 L61.6055846422 56.9808027923 L61.8673647469 57.242582897 L61.8673647469 57.5043630017 L62.1291448517 57.7661431065 L62.1291448517 58.0279232112 L62.3909249564 58.2897033159 L62.3909249564 58.5514834206 L62.6527050611 58.8132635253 L62.6527050611 59.07504363 L62.9144851658 59.3368237347 L62.9144851658 59.5986038394 L63.1762652705 59.8603839442 L63.1762652705 60.1221640489 L63.4380453752 60.3839441536 L63.4380453752 60.6457242583 L63.9616055846 61.1692844677 L63.9616055846 61.4310645724 L64.2233856894 61.6928446771 L64.2233856894 61.9546247818 L64.7469458988 62.4781849913 L64.7469458988 62.739965096 L65.5322862129 63.5253054101 L65.5322862129 63.7870855148 L67.4520069808 65.7068062827 L67.7137870855 65.7068062827 L67.9755671902 65.9685863874 L68.2373472949 65.9685863874 L68.4991273997 66.2303664921 L69.0226876091 66.2303664921 L69.2844677138 66.4921465969 L70.3315881326 66.4921465969 L70.5933682373 66.2303664921 L71.3787085515 66.2303664921 L71.6404886562 65.9685863874 L72.1640488656 65.9685863874 L72.4258289703 65.7068062827 L72.9493891798 65.7068062827 L73.2111692845 65.445026178 L73.4729493892 65.445026178 L73.7347294939 65.1832460733 L74.2582897033 65.1832460733 L74.520069808 64.9214659686 L74.7818499127 64.9214659686 L75.0436300175 64.6596858639 L75.5671902269 64.6596858639 L75.8289703316 64.3979057592 L76.0907504363 64.3979057592 L76.352530541 64.1361256545 L76.6143106457 64.1361256545 L76.8760907504 63.8743455497 L77.1378708551 63.8743455497 L77.3996509599 63.612565445 L77.6614310646 63.612565445 L77.9232111693 63.3507853403 L78.184991274 63.3507853403 L78.4467713787 63.0890052356 L78.7085514834 63.0890052356 L79.2321116928 62.5654450262 L79.4938917976 62.5654450262 L79.7556719023 62.3036649215 L80.017452007 62.3036649215 L80.5410122164 61.780104712 L80.8027923211 61.780104712 L81.0645724258 61.5183246073 L81.3263525305 61.5183246073 L81.84991274 60.9947643979 L82.1116928447 60.9947643979 L82.6352530541 60.4712041885 L82.8970331588 60.4712041885 L83.4205933682 59.9476439791 L83.6823734729 59.9476439791 L84.4677137871 59.1623036649 L84.7294938918 59.1623036649 L85.5148342059 58.3769633508 L85.7766143106 58.3769633508 L87.0855148342 57.0680628272 L87.3472949389 57.0680628272 L92.6701570681 51.7452006981 L92.6701570681 51.4834205934 L93.7172774869 50.4363001745 L93.7172774869 50.1745200698 L94.502617801 49.3891797557 L94.502617801 49.127399651 L95.0261780105 48.6038394415 L95.0261780105 48.3420593368 L95.5497382199 47.8184991274 L95.5497382199 47.5567190227 L96.0732984293 47.0331588133 L96.0732984293 46.7713787086 L96.335078534 46.5095986038 L96.335078534 46.2478184991 L96.8586387435 45.7242582897 L96.8586387435 45.462478185 L97.1204188482 45.2006980803 L97.1204188482 44.9389179756 L97.3821989529 44.6771378709 L97.3821989529 44.4153577661 L97.6439790576 44.1535776614 L97.6439790576 43.8917975567 L97.9057591623 43.630017452 L97.9057591623 43.3682373473 L98.167539267 43.1064572426 L98.167539267 42.5828970332 L98.4293193717 42.3211169284 L98.4293193717 42.0593368237 L98.6910994764 41.797556719 L98.6910994764 41.2739965096 L98.9528795812 41.0122164049 L98.9528795812 40.4886561955 L99.2146596859 40.2268760908 L99.2146596859 39.4415357766 L99.4764397906 39.1797556719 L99.4764397906 38.3944153578 L99.7382198953 38.1326352531 L99.7382198953 36.8237347295 L99.9127399651 36.6492146597 L100.0 36.6492146597 L100.0 33.0715532286 L99.9127399651 33.0715532286 L99.7382198953 32.8970331588 L99.7382198953 31.5881326353 L99.4764397906 31.3263525305 L99.4764397906 30.5410122164 L99.2146596859 30.2792321117 L99.2146596859 29.4938917976 L98.9528795812 29.2321116928 L98.9528795812 28.7085514834 L98.6910994764 28.4467713787 L98.6910994764 28.184991274 L98.4293193717 27.9232111693 L98.4293193717 27.3996509599 L98.167539267 27.1378708551 L98.167539267 26.8760907504 L97.9057591623 26.6143106457 L97.9057591623 26.352530541 L97.6439790576 26.0907504363 L97.6439790576 25.5671902269 L97.3821989529 25.3054101222 L97.3821989529 25.0436300175 L96.8586387435 24.520069808 L96.8586387435 24.2582897033 L96.5968586387 23.9965095986 L96.5968586387 23.7347294939 L96.335078534 23.4729493892 L96.335078534 23.2111692845 L95.8115183246 22.687609075 L95.8115183246 22.4258289703 L95.2879581152 21.9022687609 L95.2879581152 21.6404886562 L94.7643979058 21.1169284468 L94.7643979058 20.8551483421 L94.2408376963 20.3315881326 L94.2408376963 20.0698080279 L93.1937172775 19.0226876091 L93.1937172775 18.7609075044 L91.6230366492 17.1902268761 L91.6230366492 16.9284467714 L88.3944153578 13.6998254799 L88.1326352531 13.6998254799 L86.5619546248 12.1291448517 L86.3001745201 12.1291448517 L85.2530541012 11.0820244328 L84.9912739965 11.0820244328 L84.2059336824 10.2966841187 L83.9441535777 10.2966841187 L83.1588132635 9.51134380454 L82.8970331588 9.51134380454 L82.3734729494 8.98778359511 L82.1116928447 8.98778359511 L81.5881326353 8.46422338569 L81.3263525305 8.46422338569 L80.8027923211 7.94066317627 L80.5410122164 7.94066317627 L80.2792321117 7.67888307155 L80.017452007 7.67888307155 L79.4938917976 7.15532286213 L79.2321116928 7.15532286213 L78.9703315881 6.89354275742 L78.7085514834 6.89354275742 L78.4467713787 6.63176265271 L78.184991274 6.63176265271 L77.9232111693 6.36998254799 L77.6614310646 6.36998254799 L77.1378708551 5.84642233857 L76.8760907504 5.84642233857 L76.6143106457 5.58464223386 L76.0907504363 5.58464223386 L75.8289703316 5.32286212914 L75.5671902269 5.32286212914 L75.3054101222 5.06108202443 L75.0436300175 5.06108202443 L74.7818499127 4.79930191972 L74.520069808 4.79930191972 L74.2582897033 4.53752181501 L73.7347294939 4.53752181501 L73.4729493892 4.2757417103 L73.2111692845 4.2757417103 L72.9493891798 4.01396160558 L72.4258289703 4.01396160558 L72.1640488656 3.75218150087 L71.6404886562 3.75218150087 L71.3787085515 3.49040139616 L70.8551483421 3.49040139616 L70.5933682373 3.22862129145 L69.8080279232 3.22862129145 L69.5462478185 2.96684118674 L67.1902268761 2.96684118674 L66.9284467714 3.22862129145 L66.6666666667 3.22862129145 L66.1431064572 3.75218150087 L65.8813263525 3.75218150087 L64.4851657941 5.14834205934 L64.4851657941 5.41012216405 L63.6998254799 6.19546247818 L63.6998254799 6.4572425829 L63.4380453752 6.71902268761 L63.4380453752 6.98080279232 L62.9144851658 7.50436300175 L62.9144851658 7.76614310646 L62.6527050611 8.02792321117 L62.6527050611 8.28970331588 L62.3909249564 8.55148342059 L62.3909249564 8.81326352531 L62.1291448517 9.07504363002 L62.1291448517 9.33682373473 L61.8673647469 9.59860383944 L61.8673647469 9.86038394415 L61.6055846422 10.1221640489 L61.6055846422 10.6457242583 L61.3438045375 10.907504363 L61.3438045375 11.1692844677 L61.0820244328 11.4310645724 L61.0820244328 11.6928446771 L60.8202443281 11.9546247818 L60.8202443281 12.4781849913 L60.5584642234 12.739965096 L60.5584642234 13.0017452007 L60.2966841187 13.2635253054 L60.2966841187 13.7870855148 L60.034904014 14.0488656195 L60.034904014 14.3106457243 L59.7731239092 14.572425829 L59.7731239092 15.0959860384 L59.5113438045 15.3577661431 L59.5113438045 15.8813263525 L59.2495636998 16.1431064572 L59.2495636998 16.6666666667 L58.9877835951 16.9284467714 L58.9877835951 17.1902268761 L58.7260034904 17.4520069808 L58.7260034904 17.9755671902 L58.4642233857 18.2373472949 L58.4642233857 18.7609075044 L58.202443281 19.0226876091 L58.202443281 19.5462478185 L57.9406631763 19.8080279232 L57.9406631763 20.3315881326 L57.6788830716 20.5933682373 L57.6788830716 21.1169284468 L57.4171029668 21.3787085515 L57.4171029668 21.9022687609 L57.1553228621 22.1640488656 L57.1553228621 22.687609075 L56.8935427574 22.9493891798 L56.8935427574 23.4729493892 L56.6317626527 23.7347294939 L56.6317626527 24.2582897033 L56.369982548 24.520069808 L56.369982548 25.0436300175 L56.1082024433 25.3054101222 L56.1082024433 25.8289703316 L55.8464223386 26.0907504363 L55.8464223386 26.6143106457 L55.5846422339 26.8760907504 L55.5846422339 27.1378708551 L55.3228621291 27.3996509599 L55.3228621291 27.9232111693 L55.0610820244 28.184991274 L55.0610820244 28.7085514834 L54.7993019197 28.9703315881 L54.7993019197 29.2321116928 L54.537521815 29.4938917976 L54.537521815 30.017452007 L54.2757417103 30.2792321117 L54.2757417103 30.5410122164 L54.0139616056 30.8027923211 L54.0139616056 31.3263525305 L53.7521815009 31.5881326353 L53.7521815009 31.84991274 L53.4904013962 32.1116928447 L53.4904013962 32.3734729494 L53.2286212914 32.6352530541 L53.2286212914 32.8970331588 L52.9668411867 33.1588132635 L52.9668411867 33.4205933682 L52.705061082 33.6823734729 L52.705061082 33.9441535777 L52.2687609075 34.3804537522 L51.832460733 33.9441535777 L51.832460733 33.6823734729 L51.5706806283 33.4205933682 L51.5706806283 33.1588132635 L51.3089005236 32.8970331588 L51.3089005236 32.6352530541 L51.0471204188 32.3734729494 L51.0471204188 32.1116928447 L50.7853403141 31.84991274 L50.7853403141 31.5881326353 L50.5235602094 31.3263525305 L50.5235602094 31.0645724258 L50.2617801047 30.8027923211 L50.2617801047 30.5410122164 L50.0 30.2792321117 L50.0 29.7556719023 L49.7382198953 29.4938917976 L49.7382198953 29.2321116928 L49.4764397906 28.9703315881 L49.4764397906 28.7085514834 L49.2146596859 28.4467713787 L49.2146596859 27.9232111693 L48.9528795812 27.6614310646 L48.9528795812 27.3996509599 L48.6910994764 27.1378708551 L48.6910994764 26.8760907504 L48.4293193717 26.6143106457 L48.4293193717 26.0907504363 L48.167539267 25.8289703316 L48.167539267 25.5671902269 L47.9057591623 25.3054101222 L47.9057591623 25.0436300175 L47.6439790576 24.7818499127 L47.6439790576 24.2582897033 L47.3821989529 23.9965095986 L47.3821989529 23.7347294939 L47.1204188482 23.4729493892 L47.1204188482 22.9493891798 L46.8586387435 22.687609075 L46.8586387435 22.4258289703 L46.5968586387 22.1640488656 L46.5968586387 21.6404886562 L46.335078534 21.3787085515 L46.335078534 21.1169284468 L46.0732984293 20.8551483421 L46.0732984293 20.3315881326 L45.8115183246 20.0698080279 L45.8115183246 19.8080279232 L45.5497382199 19.5462478185 L45.5497382199 19.0226876091 L45.2879581152 18.7609075044 L45.2879581152 18.4991273997 L45.0261780105 18.2373472949 L45.0261780105 17.9755671902 L44.7643979058 17.7137870855 L44.7643979058 17.1902268761 L44.502617801 16.9284467714 L44.502617801 16.6666666667 L44.2408376963 16.404886562 L44.2408376963 15.8813263525 L43.9790575916 15.6195462478 L43.9790575916 15.3577661431 L43.7172774869 15.0959860384 L43.7172774869 14.8342059337 L43.4554973822 14.572425829 L43.4554973822 14.0488656195 L43.1937172775 13.7870855148 L43.1937172775 13.5253054101 L42.9319371728 13.2635253054 L42.9319371728 13.0017452007 L42.6701570681 12.739965096 L42.6701570681 12.4781849913 L42.4083769634 12.2164048866 L42.4083769634 11.6928446771 L42.1465968586 11.4310645724 L42.1465968586 11.1692844677 L41.8848167539 10.907504363 L41.8848167539 10.6457242583 L41.6230366492 10.3839441536 L41.6230366492 10.1221640489 L41.3612565445 9.86038394415 L41.3612565445 9.59860383944 L41.0994764398 9.33682373473 L41.0994764398 9.07504363002 L40.8376963351 8.81326352531 L40.8376963351 8.55148342059 L40.5759162304 8.28970331588 L40.5759162304 8.02792321117 L40.3141361257 7.76614310646 L40.3141361257 7.50436300175 L40.0523560209 7.24258289703 L40.0523560209 6.98080279232 L39.7905759162 6.71902268761 L39.7905759162 6.4572425829 L39.2670157068 5.93368237347 L39.2670157068 5.67190226876 L39.0052356021 5.41012216405 L39.0052356021 5.14834205934 L38.4816753927 4.62478184991 L38.4816753927 4.3630017452 L37.9581151832 3.83944153578 L37.9581151832 3.57766143106 L36.9109947644 2.53054101222 L36.9109947644 2.2687609075 L35.7766143106 1.13438045375 L35.5148342059 1.13438045375 L34.9912739965 0.610820244328 L34.7294938918 0.610820244328 L34.4677137871 0.349040139616 L34.2059336824 0.349040139616 L34.0314136126 0.174520069808 L34.0314136126 0.087260034904 31.2390924956 0.087260034904 " stroke="black" fill="transparent"/>
<path d="M68.9354275742 6.02094240838 L68.6736474695 6.28272251309 L68.4118673647 6.28272251309 L67.0157068063 7.67888307155 L67.0157068063 7.94066317627 L66.2303664921 8.7260034904 L66.2303664921 8.98778359511 L65.9685863874 9.24956369983 L65.9685863874 9.51134380454 L65.445026178 10.034904014 L65.445026178 10.2966841187 L65.1832460733 10.5584642234 L65.1832460733 10.8202443281 L64.9214659686 11.0820244328 L64.9214659686 11.3438045375 L64.6596858639 11.6055846422 L64.6596858639 11.8673647469 L64.3979057592 12.1291448517 L64.3979057592 12.3909249564 L64.1361256545 12.6527050611 L64.1361256545 13.1762652705 L63.8743455497 13.4380453752 L63.8743455497 13.6998254799 L63.612565445 13.9616055846 L63.612565445 14.2233856894 L63.3507853403 14.4851657941 L63.3507853403 15.0087260035 L63.0890052356 15.2705061082 L63.0890052356 15.5322862129 L62.8272251309 15.7940663176 L62.8272251309 16.3176265271 L62.5654450262 16.5794066318 L62.5654450262 16.8411867365 L62.3036649215 17.1029668412 L62.3036649215 17.6265270506 L62.0418848168 17.8883071553 L62.0418848168 18.4118673647 L61.780104712 18.6736474695 L61.780104712 19.1972076789 L61.5183246073 19.4589877836 L61.5183246073 19.7207678883 L61.2565445026 19.982547993 L61.2565445026 20.5061082024 L60.9947643979 20.7678883072 L60.9947643979 21.2914485166 L60.7329842932 21.5532286213 L60.7329842932 22.0767888307 L60.4712041885 22.3385689354 L60.4712041885 22.8621291449 L60.2094240838 23.1239092496 L60.2094240838 23.647469459 L59.9476439791 23.9092495637 L59.9476439791 24.4328097731 L59.6858638743 24.6945898778 L59.6858638743 25.2181500873 L59.4240837696 25.479930192 L59.4240837696 26.0034904014 L59.1623036649 26.2652705061 L59.1623036649 26.7888307155 L58.9005235602 27.0506108202 L58.9005235602 27.5741710297 L58.6387434555 27.8359511344 L58.6387434555 28.3595113438 L58.3769633508 28.6212914485 L58.3769633508 29.1448516579 L58.1151832461 29.4066317627 L58.1151832461 29.6684118674 L57.8534031414 29.9301919721 L57.8534031414 30.4537521815 L57.5916230366 30.7155322862 L57.5916230366 31.2390924956 L57.3298429319 31.5008726003 L57.3298429319 31.7626527051 L57.0680628272 32.0244328098 L57.0680628272 32.5479930192 L56.8062827225 32.8097731239 L56.8062827225 33.0715532286 L56.5445026178 33.3333333333 L56.5445026178 33.8568935428 L56.2827225131 34.1186736475 L56.2827225131 34.3804537522 L56.0209424084 34.6422338569 L56.0209424084 34.9040139616 L56.2827225131 35.1657940663 L56.2827225131 35.427574171 L56.5445026178 35.6893542757 L56.5445026178 36.2129144852 L56.8062827225 36.4746945899 L56.8062827225 36.7364746946 L57.0680628272 36.9982547993 L57.0680628272 37.260034904 L57.3298429319 37.5218150087 L57.3298429319 37.7835951134 L57.5916230366 38.0453752182 L57.5916230366 38.5689354276 L57.8534031414 38.8307155323 L57.8534031414 39.092495637 L58.1151832461 39.3542757417 L58.1151832461 39.8778359511 L58.3769633508 40.1396160558 L58.3769633508 40.4013961606 L58.6387434555 40.6631762653 L58.6387434555 41.1867364747 L58.9005235602 41.4485165794 L58.9005235602 41.7102966841 L59.1623036649 41.9720767888 L59.1623036649 42.4956369983 L59.4240837696 42.757417103 L59.4240837696 43.0191972077 L59.6858638743 43.2809773124 L59.6858638743 43.8045375218 L59.9476439791 44.0663176265 L59.9476439791 44.3280977312 L60.2094240838 44.589877836 L60.2094240838 45.1134380454 L60.4712041885 45.3752181501 L60.4712041885 45.6369982548 L60.7329842932 45.8987783595 L60.7329842932 46.4223385689 L60.9947643979 46.6841186736 L60.9947643979 46.9458987784 L61.2565445026 47.2076788831 L61.2565445026 47.7312390925 L61.5183246073 47.9930191972 L61.5183246073 48.2547993019 L61.780104712 48.5165794066 L61.780104712 49.0401396161 L62.0418848168 49.3019197208 L62.0418848168 49.5636998255 L62.3036649215 49.8254799302 L62.3036649215 50.3490401396 L62.5654450262 50.6108202443 L62.5654450262 50.872600349 L62.8272251309 51.1343804538 L62.8272251309 51.3961605585 L63.0890052356 51.6579406632 L63.0890052356 52.1815008726 L63.3507853403 52.4432809773 L63.3507853403 52.705061082 L63.612565445 52.9668411867 L63.612565445 53.2286212914 L63.8743455497 53.4904013962 L63.8743455497 54.0139616056 L64.1361256545 54.2757417103 L64.1361256545 54.537521815 L64.3979057592 54.7993019197 L64.3979057592 55.0610820244 L64.6596858639 55.3228621291 L64.6596858639 55.5846422339 L64.9214659686 55.8464223386 L64.9214659686 56.1082024433 L65.1832460733 56.369982548 L65.1832460733 56.6317626527 L65.445026178 56.8935427574 L65.445026178 57.1553228621 L65.7068062827 57.4171029668 L65.7068062827 57.6788830716 L65.9685863874 57.9406631763 L65.9685863874 58.202443281 L66.4921465969 58.7260034904 L66.4921465969 58.9877835951 L66.7539267016 59.2495636998 L66.7539267016 59.5113438045 L67.277486911 60.034904014 L67.277486911 60.2966841187 L68.0628272251 61.0820244328 L68.0628272251 61.3438045375 L69.982547993 63.2635253054 L70.5061082024 63.2635253054 L70.7678883072 63.0017452007 L71.0296684119 63.0017452007 L71.2914485166 62.739965096 L71.815008726 62.739965096 L72.0767888307 62.4781849913 L72.3385689354 62.4781849913 L72.6003490401 62.2164048866 L73.1239092496 62.2164048866 L73.3856893543 61.9546247818 L73.647469459 61.9546247818 L73.9092495637 61.6928446771 L74.1710296684 61.6928446771 L74.4328097731 61.4310645724 L74.6945898778 61.4310645724 L74.9563699825 61.1692844677 L75.2181500873 61.1692844677 L75.479930192 60.907504363 L75.7417102967 60.907504363 L76.0034904014 60.6457242583 L76.2652705061 60.6457242583 L76.7888307155 60.1221640489 L77.0506108202 60.1221640489 L77.312390925 59.8603839442 L77.5741710297 59.8603839442 L78.0977312391 59.3368237347 L78.3595113438 59.3368237347 L78.6212914485 59.07504363 L78.8830715532 59.07504363 L79.4066317627 58.5514834206 L79.6684118674 58.5514834206 L80.1919720768 58.0279232112 L80.4537521815 58.0279232112 L80.9773123909 57.5043630017 L81.2390924956 57.5043630017 L82.0244328098 56.7190226876 L82.2862129145 56.7190226876 L83.0715532286 55.9336823735 L83.3333333333 55.9336823735 L84.6422338569 54.6247818499 L84.9040139616 54.6247818499 L90.2268760908 49.3019197208 L90.2268760908 49.0401396161 L91.2739965096 47.9930191972 L91.2739965096 47.7312390925 L92.0593368237 46.9458987784 L92.0593368237 46.6841186736 L92.5828970332 46.1605584642 L92.5828970332 45.8987783595 L93.1064572426 45.3752181501 L93.1064572426 45.1134380454 L93.630017452 44.589877836 L93.630017452 44.3280977312 L93.8917975567 44.0663176265 L93.8917975567 43.8045375218 L94.4153577661 43.2809773124 L94.4153577661 43.0191972077 L94.6771378709 42.757417103 L94.6771378709 42.4956369983 L94.9389179756 42.2338568935 L94.9389179756 41.9720767888 L95.2006980803 41.7102966841 L95.2006980803 41.4485165794 L95.462478185 41.1867364747 L95.462478185 40.92495637 L95.7242582897 40.6631762653 L95.7242582897 40.1396160558 L95.9860383944 39.8778359511 L95.9860383944 39.6160558464 L96.2478184991 39.3542757417 L96.2478184991 38.8307155323 L96.5095986038 38.5689354276 L96.5095986038 38.0453752182 L96.7713787086 37.7835951134 L96.7713787086 36.9982547993 L97.0331588133 36.7364746946 L97.0331588133 35.9511343805 L97.294938918 35.6893542757 L97.294938918 34.1186736475 L97.0331588133 33.8568935428 L97.0331588133 33.0715532286 L96.7713787086 32.8097731239 L96.7713787086 32.0244328098 L96.5095986038 31.7626527051 L96.5095986038 31.2390924956 L96.2478184991 30.9773123909 L96.2478184991 30.7155322862 L95.9860383944 30.4537521815 L95.9860383944 29.9301919721 L95.7242582897 29.6684118674 L95.7242582897 29.4066317627 L95.462478185 29.1448516579 L95.462478185 28.8830715532 L95.2006980803 28.6212914485 L95.2006980803 28.0977312391 L94.9389179756 27.8359511344 L94.9389179756 27.5741710297 L94.4153577661 27.0506108202 L94.4153577661 26.7888307155 L94.1535776614 26.5270506108 L94.1535776614 26.2652705061 L93.8917975567 26.0034904014 L93.8917975567 25.7417102967 L93.3682373473 25.2181500873 L93.3682373473 24.9563699825 L92.8446771379 24.4328097731 L92.8446771379 24.1710296684 L92.3211169284 23.647469459 L92.3211169284 23.3856893543 L91.797556719 22.8621291449 L91.797556719 22.6003490401 L90.7504363002 21.5532286213 L90.7504363002 21.2914485166 L89.1797556719 19.7207678883 L89.1797556719 19.4589877836 L85.9511343805 16.2303664921 L85.6893542757 16.2303664921 L84.1186736475 14.6596858639 L83.8568935428 14.6596858639 L82.8097731239 13.612565445 L82.5479930192 13.612565445 L81.7626527051 12.8272251309 L81.5008726003 12.8272251309 L80.7155322862 12.0418848168 L80.4537521815 12.0418848168 L79.9301919721 11.5183246073 L79.6684118674 11.5183246073 L79.1448516579 10.9947643979 L78.8830715532 10.9947643979 L78.3595113438 10.4712041885 L78.0977312391 10.4712041885 L77.8359511344 10.2094240838 L77.5741710297 10.2094240838 L77.0506108202 9.68586387435 L76.7888307155 9.68586387435 L76.5270506108 9.42408376963 L76.2652705061 9.42408376963 L76.0034904014 9.16230366492 L75.7417102967 9.16230366492 L75.479930192 8.90052356021 L75.2181500873 8.90052356021 L74.6945898778 8.37696335079 L74.4328097731 8.37696335079 L74.1710296684 8.11518324607 L73.647469459 8.11518324607 L73.3856893543 7.85340314136 L73.1239092496 7.85340314136 L72.8621291449 7.59162303665 L72.6003490401 7.59162303665 L72.3385689354 7.32984293194 L72.0767888307 7.32984293194 L71.815008726 7.06806282723 L71.2914485166 7.06806282723 L71.0296684119 6.80628272251 L70.7678883072 6.80628272251 L70.5061082024 6.5445026178 L69.982547993 6.5445026178 L69.7207678883 6.28272251309 L69.1972076789 6.28272251309 68.9354275742 6.02094240838 " stroke="black" fill="transparent"/>
<path d="M32.2862129145 3.14136125654 L32.0244328098 3.40314136126 L31.7626527051 3.40314136126 L31.5008726003 3.66492146597 L30.9773123909 3.66492146597 L30.7155322862 3.92670157068 L30.4537521815 3.92670157068 L30.1919720768 4.18848167539 L29.9301919721 4.18848167539 L29.6684118674 4.4502617801 L29.4066317627 4.4502617801 L29.1448516579 4.71204188482 L28.8830715532 4.71204188482 L28.6212914485 4.97382198953 L28.3595113438 4.97382198953 L28.0977312391 5.23560209424 L27.8359511344 5.23560209424 L27.5741710297 5.49738219895 L27.312390925 5.49738219895 L27.0506108202 5.75916230366 L26.7888307155 5.75916230366 L26.5270506108 6.02094240838 L26.2652705061 6.02094240838 L25.7417102967 6.5445026178 L25.479930192 6.5445026178 L25.2181500873 6.80628272251 L24.9563699825 6.80628272251 L24.4328097731 7.32984293194 L24.1710296684 7.32984293194 L23.9092495637 7.59162303665 L23.647469459 7.59162303665 L23.1239092496 8.11518324607 L22.8621291449 8.11518324607 L22.3385689354 8.6387434555 L22.0767888307 8.6387434555 L21.5532286213 9.16230366492 L21.2914485166 9.16230366492 L20.5061082024 9.94764397906 L20.2443280977 9.94764397906 L19.4589877836 10.7329842932 L19.1972076789 10.7329842932 L18.15008726 11.780104712 L17.8883071553 11.780104712 L16.5794066318 13.0890052356 L16.3176265271 13.0890052356 L11.2565445026 18.15008726 L11.2565445026 18.4118673647 L9.94764397906 19.7207678883 L9.94764397906 19.982547993 L9.16230366492 20.7678883072 L9.16230366492 21.0296684119 L8.37696335079 21.815008726 L8.37696335079 22.0767888307 L7.85340314136 22.6003490401 L7.85340314136 22.8621291449 L7.32984293194 23.3856893543 L7.32984293194 23.647469459 L7.06806282723 23.9092495637 L7.06806282723 24.1710296684 L6.5445026178 24.6945898778 L6.5445026178 24.9563699825 L6.28272251309 25.2181500873 L6.28272251309 25.479930192 L6.02094240838 25.7417102967 L6.02094240838 26.0034904014 L5.75916230366 26.2652705061 L5.75916230366 26.5270506108 L5.49738219895 26.7888307155 L5.49738219895 27.0506108202 L5.23560209424 27.312390925 L5.23560209424 27.5741710297 L4.97382198953 27.8359511344 L4.97382198953 28.0977312391 L4.71204188482 28.3595113438 L4.71204188482 28.6212914485 L4.4502617801 28.8830715532 L4.4502617801 29.4066317627 L4.18848167539 29.6684118674 L4.18848167539 29.9301919721 L3.92670157068 30.1919720768 L3.92670157068 30.7155322862 L3.66492146597 30.9773123909 L3.66492146597 31.5008726003 L3.40314136126 31.7626527051 L3.40314136126 32.5479930192 L3.14136125654 32.8097731239 L3.14136125654 33.595113438 L2.87958115183 33.8568935428 L2.87958115183 35.6893542757 L3.14136125654 35.9511343805 L3.14136125654 36.7364746946 L3.40314136126 36.9982547993 L3.40314136126 37.5218150087 L3.66492146597 37.7835951134 L3.66492146597 38.3071553229 L3.92670157068 38.5689354276 L3.92670157068 39.092495637 L4.18848167539 39.3542757417 L4.18848167539 39.8778359511 L4.4502617801 40.1396160558 L4.4502617801 40.4013961606 L4.71204188482 40.6631762653 L4.71204188482 40.92495637 L4.97382198953 41.1867364747 L4.97382198953 41.4485165794 L5.23560209424 41.7102966841 L5.23560209424 41.9720767888 L5.49738219895 42.2338568935 L5.49738219895 42.4956369983 L5.75916230366 42.757417103 L5.75916230366 43.0191972077 L6.02094240838 43.2809773124 L6.02094240838 43.5427574171 L6.28272251309 43.8045375218 L6.28272251309 44.0663176265 L6.80628272251 44.589877836 L6.80628272251 44.8516579407 L7.06806282723 45.1134380454 L7.06806282723 45.3752181501 L7.59162303665 45.8987783595 L7.59162303665 46.1605584642 L8.37696335079 46.9458987784 L8.37696335079 47.2076788831 L8.90052356021 47.7312390925 L8.90052356021 47.9930191972 L9.94764397906 49.0401396161 L9.94764397906 49.3019197208 L11.2565445026 50.6108202443 L11.2565445026 50.872600349 L16.0558464223 55.6719022688 L16.3176265271 55.6719022688 L17.6265270506 56.9808027923 L17.8883071553 56.9808027923 L18.9354275742 58.0279232112 L19.1972076789 58.0279232112 L19.982547993 58.8132635253 L20.2443280977 58.8132635253 L21.0296684119 59.5986038394 L21.2914485166 59.5986038394 L21.815008726 60.1221640489 L22.0767888307 60.1221640489 L22.8621291449 60.907504363 L23.1239092496 60.907504363 L23.3856893543 61.1692844677 L23.647469459 61.1692844677 L24.1710296684 61.6928446771 L24.4328097731 61.6928446771 L24.9563699825 62.2164048866 L25.2181500873 62.2164048866 L25.479930192 62.4781849913 L25.7417102967 62.4781849913 L26.2652705061 63.0017452007 L26.5270506108 63.0017452007 L26.7888307155 63.2635253054 L27.0506108202 63.2635253054 L27.312390925 63.5253054101 L27.5741710297 63.5253054101 L27.8359511344 63.7870855148 L28.0977312391 63.7870855148 L28.3595113438 64.0488656195 L28.6212914485 64.0488656195 L28.8830715532 64.3106457243 L29.1448516579 64.3106457243 L29.4066317627 64.572425829 L29.6684118674 64.572425829 L29.9301919721 64.8342059337 L30.1919720768 64.8342059337 L30.4537521815 65.0959860384 L30.7155322862 65.0959860384 L30.9773123909 65.3577661431 L31.2390924956 65.3577661431 L31.5008726003 65.6195462478 L32.0244328098 65.6195462478 L32.2862129145 65.8813263525 L32.5479930192 65.8813263525 L32.8097731239 66.1431064572 L33.3333333333 66.1431064572 L33.595113438 66.404886562 L34.1186736475 66.404886562 L34.2059336824 66.4921465969 L34.2931937173 66.4921465969 L34.3804537522 66.404886562 L34.6422338569 66.404886562 L37.0855148342 63.9616055846 L37.0855148342 63.6998254799 L37.6090750436 63.1762652705 L37.6090750436 62.9144851658 L38.1326352531 62.3909249564 L38.1326352531 62.1291448517 L38.3944153578 61.8673647469 L38.3944153578 61.6055846422 L38.6561954625 61.3438045375 L38.6561954625 61.0820244328 L38.9179755672 60.8202443281 L38.9179755672 60.5584642234 L39.1797556719 60.2966841187 L39.1797556719 60.034904014 L39.4415357766 59.7731239092 L39.4415357766 59.5113438045 L39.7033158813 59.2495636998 L39.7033158813 58.9877835951 L39.965095986 58.7260034904 L39.965095986 58.4642233857 L40.2268760908 58.202443281 L40.2268760908 57.9406631763 L40.4886561955 57.6788830716 L40.4886561955 57.1553228621 L40.7504363002 56.8935427574 L40.7504363002 56.6317626527 L41.0122164049 56.369982548 L41.0122164049 56.1082024433 L41.2739965096 55.8464223386 L41.2739965096 55.3228621291 L41.5357766143 55.0610820244 L41.5357766143 54.537521815 L41.797556719 54.2757417103 L41.797556719 54.0139616056 L42.0593368237 53.7521815009 L42.0593368237 53.2286212914 L42.3211169284 52.9668411867 L42.3211169284 52.4432809773 L42.5828970332 52.1815008726 L42.5828970332 51.9197207679 L42.8446771379 51.6579406632 L42.8446771379 51.1343804538 L43.1064572426 50.872600349 L43.1064572426 50.3490401396 L43.3682373473 50.0872600349 L43.3682373473 49.5636998255 L43.630017452 49.3019197208 L43.630017452 48.7783595113 L43.8917975567 48.5165794066 L43.8917975567 47.9930191972 L44.1535776614 47.7312390925 L44.1535776614 47.2076788831 L44.4153577661 46.9458987784 L44.4153577661 46.4223385689 L44.6771378709 46.1605584642 L44.6771378709 45.8987783595 L44.9389179756 45.6369982548 L44.9389179756 45.1134380454 L45.2006980803 44.8516579407 L45.2006980803 44.3280977312 L45.462478185 44.0663176265 L45.462478185 43.5427574171 L45.7242582897 43.2809773124 L45.7242582897 42.757417103 L45.9860383944 42.4956369983 L45.9860383944 41.9720767888 L46.2478184991 41.7102966841 L46.2478184991 41.1867364747 L46.5095986038 40.92495637 L46.5095986038 40.4013961606 L46.7713787086 40.1396160558 L46.7713787086 39.8778359511 L47.0331588133 39.6160558464 L47.0331588133 39.092495637 L47.294938918 38.8307155323 L47.294938918 38.3071553229 L47.5567190227 38.0453752182 L47.5567190227 37.7835951134 L47.8184991274 37.5218150087 L47.8184991274 36.9982547993 L48.0802792321 36.7364746946 L48.0802792321 36.4746945899 L48.3420593368 36.2129144852 L48.3420593368 35.6893542757 L48.6038394415 35.427574171 L48.6038394415 35.1657940663 L48.6910994764 35.0785340314 L48.6910994764 34.9912739965 L48.6038394415 34.9040139616 L48.6038394415 34.6422338569 L48.3420593368 34.3804537522 L48.3420593368 34.1186736475 L48.0802792321 33.8568935428 L48.0802792321 33.595113438 L47.8184991274 33.3333333333 L47.8184991274 33.0715532286 L47.5567190227 32.8097731239 L47.5567190227 32.2862129145 L47.294938918 32.0244328098 L47.294938918 31.7626527051 L47.0331588133 31.5008726003 L47.0331588133 31.2390924956 L46.7713787086 30.9773123909 L46.7713787086 30.4537521815 L46.5095986038 30.1919720768 L46.5095986038 29.9301919721 L46.2478184991 29.6684118674 L46.2478184991 29.4066317627 L45.9860383944 29.1448516579 L45.9860383944 28.6212914485 L45.7242582897 28.3595113438 L45.7242582897 28.0977312391 L45.462478185 27.8359511344 L45.462478185 27.5741710297 L45.2006980803 27.312390925 L45.2006980803 26.7888307155 L44.9389179756 26.5270506108 L44.9389179756 26.2652705061 L44.6771378709 26.0034904014 L44.6771378709 25.479930192 L44.4153577661 25.2181500873 L44.4153577661 24.9563699825 L44.1535776614 24.6945898778 L44.1535776614 24.1710296684 L43.8917975567 23.9092495637 L43.8917975567 23.647469459 L43.630017452 23.3856893543 L43.630017452 22.8621291449 L43.3682373473 22.6003490401 L43.3682373473 22.3385689354 L43.1064572426 22.0767888307 L43.1064572426 21.5532286213 L42.8446771379 21.2914485166 L42.8446771379 21.0296684119 L42.5828970332 20.7678883072 L42.5828970332 20.5061082024 L42.3211169284 20.2443280977 L42.3211169284 19.7207678883 L42.0593368237 19.4589877836 L42.0593368237 19.1972076789 L41.797556719 18.9354275742 L41.797556719 18.4118673647 L41.5357766143 18.15008726 L41.5357766143 17.8883071553 L41.2739965096 17.6265270506 L41.2739965096 17.3647469459 L41.0122164049 17.1029668412 L41.0122164049 16.5794066318 L40.7504363002 16.3176265271 L40.7504363002 16.0558464223 L40.4886561955 15.7940663176 L40.4886561955 15.5322862129 L40.2268760908 15.2705061082 L40.2268760908 15.0087260035 L39.965095986 14.7469458988 L39.965095986 14.2233856894 L39.7033158813 13.9616055846 L39.7033158813 13.6998254799 L39.4415357766 13.4380453752 L39.4415357766 13.1762652705 L39.1797556719 12.9144851658 L39.1797556719 12.6527050611 L38.9179755672 12.3909249564 L38.9179755672 12.1291448517 L38.6561954625 11.8673647469 L38.6561954625 11.6055846422 L38.3944153578 11.3438045375 L38.3944153578 11.0820244328 L38.1326352531 10.8202443281 L38.1326352531 10.5584642234 L37.8708551483 10.2966841187 L37.8708551483 10.034904014 L37.6090750436 9.77312390925 L37.6090750436 9.51134380454 L37.3472949389 9.24956369983 L37.3472949389 8.98778359511 L36.8237347295 8.46422338569 L36.8237347295 8.20244328098 L36.5619546248 7.94066317627 L36.5619546248 7.67888307155 L36.0383944154 7.15532286213 L36.0383944154 6.89354275742 L35.5148342059 6.36998254799 L35.5148342059 6.10820244328 L34.4677137871 5.06108202443 L34.4677137871 4.79930191972 L33.3333333333 3.66492146597 L33.0715532286 3.66492146597 L32.5479930192 3.14136125654 32.2862129145 3.14136125654 " stroke="black" fill="transparent"/>
<path d="M69.8952879581 9.86038394415 L69.5462478185 10.2094240838 L69.5462478185 10.4712041885 L68.7609075044 11.2565445026 L68.7609075044 11.5183246073 L68.4991273997 11.780104712 L68.4991273997 12.0418848168 L67.9755671902 12.5654450262 L67.9755671902 12.8272251309 L67.7137870855 13.0890052356 L67.7137870855 13.3507853403 L67.4520069808 13.612565445 L67.4520069808 13.8743455497 L67.1902268761 14.1361256545 L67.1902268761 14.3979057592 L66.9284467714 14.6596858639 L66.9284467714 14.9214659686 L66.6666666667 15.1832460733 L66.6666666667 15.7068062827 L66.404886562 15.9685863874 L66.404886562 16.2303664921 L66.1431064572 16.4921465969 L66.1431064572 16.7539267016 L65.8813263525 17.0157068063 L65.8813263525 17.5392670157 L65.6195462478 17.8010471204 L65.6195462478 18.0628272251 L65.3577661431 18.3246073298 L65.3577661431 18.8481675393 L65.0959860384 19.109947644 L65.0959860384 19.3717277487 L64.8342059337 19.6335078534 L64.8342059337 20.1570680628 L64.572425829 20.4188481675 L64.572425829 20.942408377 L64.3106457243 21.2041884817 L64.3106457243 21.7277486911 L64.0488656195 21.9895287958 L64.0488656195 22.2513089005 L63.7870855148 22.5130890052 L63.7870855148 23.0366492147 L63.5253054101 23.2984293194 L63.5253054101 23.8219895288 L63.2635253054 24.0837696335 L63.2635253054 24.6073298429 L63.0017452007 24.8691099476 L63.0017452007 25.3926701571 L62.739965096 25.6544502618 L62.739965096 26.1780104712 L62.4781849913 26.4397905759 L62.4781849913 26.9633507853 L62.2164048866 27.2251308901 L62.2164048866 27.7486910995 L61.9546247818 28.0104712042 L61.9546247818 28.5340314136 L61.6928446771 28.7958115183 L61.6928446771 29.3193717277 L61.4310645724 29.5811518325 L61.4310645724 30.1047120419 L61.1692844677 30.3664921466 L61.1692844677 30.890052356 L60.907504363 31.1518324607 L60.907504363 31.6753926702 L60.6457242583 31.9371727749 L60.6457242583 32.1989528796 L60.3839441536 32.4607329843 L60.3839441536 32.9842931937 L60.1221640489 33.2460732984 L60.1221640489 33.7696335079 L59.8603839442 34.0314136126 L59.8603839442 34.2931937173 L59.5986038394 34.554973822 L59.5986038394 34.8167539267 L59.8603839442 35.0785340314 L59.8603839442 35.3403141361 L60.1221640489 35.6020942408 L60.1221640489 36.1256544503 L60.3839441536 36.387434555 L60.3839441536 36.6492146597 L60.6457242583 36.9109947644 L60.6457242583 37.4345549738 L60.907504363 37.6963350785 L60.907504363 37.9581151832 L61.1692844677 38.219895288 L61.1692844677 38.7434554974 L61.4310645724 39.0052356021 L61.4310645724 39.2670157068 L61.6928446771 39.5287958115 L61.6928446771 40.0523560209 L61.9546247818 40.3141361257 L61.9546247818 40.5759162304 L62.2164048866 40.8376963351 L62.2164048866 41.3612565445 L62.4781849913 41.6230366492 L62.4781849913 41.8848167539 L62.739965096 42.1465968586 L62.739965096 42.6701570681 L63.0017452007 42.9319371728 L63.0017452007 43.1937172775 L63.2635253054 43.4554973822 L63.2635253054 43.9790575916 L63.5253054101 44.2408376963 L63.5253054101 44.502617801 L63.7870855148 44.7643979058 L63.7870855148 45.2879581152 L64.0488656195 45.5497382199 L64.0488656195 45.8115183246 L64.3106457243 46.0732984293 L64.3106457243 46.5968586387 L64.572425829 46.8586387435 L64.572425829 47.1204188482 L64.8342059337 47.3821989529 L64.8342059337 47.9057591623 L65.0959860384 48.167539267 L65.0959860384 48.4293193717 L65.3577661431 48.6910994764 L65.3577661431 48.9528795812 L65.6195462478 49.2146596859 L65.6195462478 49.7382198953 L65.8813263525 50.0 L65.8813263525 50.2617801047 L66.1431064572 50.5235602094 L66.1431064572 50.7853403141 L66.404886562 51.0471204188 L66.404886562 51.5706806283 L66.6666666667 51.832460733 L66.6666666667 52.0942408377 L66.9284467714 52.3560209424 L66.9284467714 52.6178010471 L67.1902268761 52.8795811518 L67.1902268761 53.1413612565 L67.4520069808 53.4031413613 L67.4520069808 53.664921466 L67.7137870855 53.9267015707 L67.7137870855 54.1884816754 L67.9755671902 54.4502617801 L67.9755671902 54.7120418848 L68.2373472949 54.9738219895 L68.2373472949 55.2356020942 L68.4991273997 55.497382199 L68.4991273997 55.7591623037 L69.0226876091 56.2827225131 L69.0226876091 56.5445026178 L69.2844677138 56.8062827225 L69.2844677138 57.0680628272 L69.8080279232 57.5916230366 L69.8080279232 57.8534031414 L70.5933682373 58.6387434555 L70.5933682373 58.9005235602 L71.2041884817 59.5113438045 L71.4659685864 59.2495636998 L71.7277486911 59.2495636998 L71.9895287958 58.9877835951 L72.2513089005 58.9877835951 L72.5130890052 58.7260034904 L72.7748691099 58.7260034904 L73.0366492147 58.4642233857 L73.2984293194 58.4642233857 L73.5602094241 58.202443281 L73.8219895288 58.202443281 L74.3455497382 57.6788830716 L74.6073298429 57.6788830716 L74.8691099476 57.4171029668 L75.1308900524 57.4171029668 L75.6544502618 56.8935427574 L75.9162303665 56.8935427574 L76.1780104712 56.6317626527 L76.4397905759 56.6317626527 L76.9633507853 56.1082024433 L77.2251308901 56.1082024433 L77.7486910995 55.5846422339 L78.0104712042 55.5846422339 L78.5340314136 55.0610820244 L78.7958115183 55.0610820244 L79.5811518325 54.2757417103 L79.8429319372 54.2757417103 L80.6282722513 53.4904013962 L80.890052356 53.4904013962 L82.1989528796 52.1815008726 L82.4607329843 52.1815008726 L87.7835951134 46.8586387435 L87.7835951134 46.5968586387 L88.8307155323 45.5497382199 L88.8307155323 45.2879581152 L89.6160558464 44.502617801 L89.6160558464 44.2408376963 L90.1396160558 43.7172774869 L90.1396160558 43.4554973822 L90.6631762653 42.9319371728 L90.6631762653 42.6701570681 L91.1867364747 42.1465968586 L91.1867364747 41.8848167539 L91.4485165794 41.6230366492 L91.4485165794 41.3612565445 L91.9720767888 40.8376963351 L91.9720767888 40.5759162304 L92.2338568935 40.3141361257 L92.2338568935 40.0523560209 L92.4956369983 39.7905759162 L92.4956369983 39.5287958115 L92.757417103 39.2670157068 L92.757417103 39.0052356021 L93.0191972077 38.7434554974 L93.0191972077 38.4816753927 L93.2809773124 38.219895288 L93.2809773124 37.6963350785 L93.5427574171 37.4345549738 L93.5427574171 37.1727748691 L93.8045375218 36.9109947644 L93.8045375218 36.387434555 L94.0663176265 36.1256544503 L94.0663176265 35.6020942408 L94.3280977312 35.3403141361 L94.3280977312 34.554973822 L94.0663176265 34.2931937173 L94.0663176265 33.7696335079 L93.8045375218 33.5078534031 L93.8045375218 33.2460732984 L93.5427574171 32.9842931937 L93.5427574171 32.4607329843 L93.2809773124 32.1989528796 L93.2809773124 31.9371727749 L93.0191972077 31.6753926702 L93.0191972077 31.4136125654 L92.757417103 31.1518324607 L92.757417103 30.6282722513 L92.4956369983 30.3664921466 L92.4956369983 30.1047120419 L91.9720767888 29.5811518325 L91.9720767888 29.3193717277 L91.7102966841 29.057591623 L91.7102966841 28.7958115183 L91.4485165794 28.5340314136 L91.4485165794 28.2722513089 L90.92495637 27.7486910995 L90.92495637 27.4869109948 L90.4013961606 26.9633507853 L90.4013961606 26.7015706806 L89.8778359511 26.1780104712 L89.8778359511 25.9162303665 L89.3542757417 25.3926701571 L89.3542757417 25.1308900524 L88.3071553229 24.0837696335 L88.3071553229 23.8219895288 L86.7364746946 22.2513089005 L86.7364746946 21.9895287958 L83.5078534031 18.7609075044 L83.2460732984 18.7609075044 L81.6753926702 17.1902268761 L81.4136125654 17.1902268761 L80.3664921466 16.1431064572 L80.1047120419 16.1431064572 L79.3193717277 15.3577661431 L79.057591623 15.3577661431 L78.2722513089 14.572425829 L78.0104712042 14.572425829 L77.4869109948 14.0488656195 L77.2251308901 14.0488656195 L76.7015706806 13.5253054101 L76.4397905759 13.5253054101 L75.9162303665 13.0017452007 L75.6544502618 13.0017452007 L75.3926701571 12.739965096 L75.1308900524 12.739965096 L74.6073298429 12.2164048866 L74.3455497382 12.2164048866 L74.0837696335 11.9546247818 L73.8219895288 11.9546247818 L73.5602094241 11.6928446771 L73.2984293194 11.6928446771 L73.0366492147 11.4310645724 L72.7748691099 11.4310645724 L72.2513089005 10.907504363 L71.9895287958 10.907504363 L71.7277486911 10.6457242583 L71.2041884817 10.6457242583 L70.942408377 10.3839441536 L70.6806282723 10.3839441536 L70.4188481675 10.1221640489 L70.1570680628 10.1221640489 69.8952879581 9.86038394415 " stroke="black" fill="transparent"/>
<path d="M31.7626527051 7.15532286213 L31.6753926702 7.24258289703 L31.4136125654 7.24258289703 L31.1518324607 7.50436300175 L30.890052356 7.50436300175 L30.6282722513 7.76614310646 L30.3664921466 7.76614310646 L30.1047120419 8.02792321117 L29.8429319372 8.02792321117 L29.5811518325 8.28970331588 L29.3193717277 8.28970331588 L29.057591623 8.55148342059 L28.7958115183 8.55148342059 L28.2722513089 9.07504363002 L28.0104712042 9.07504363002 L27.7486910995 9.33682373473 L27.4869109948 9.33682373473 L26.9633507853 9.86038394415 L26.7015706806 9.86038394415 L26.4397905759 10.1221640489 L26.1780104712 10.1221640489 L25.6544502618 10.6457242583 L25.3926701571 10.6457242583 L24.8691099476 11.1692844677 L24.6073298429 11.1692844677 L24.0837696335 11.6928446771 L23.8219895288 11.6928446771 L23.0366492147 12.4781849913 L22.7748691099 12.4781849913 L21.9895287958 13.2635253054 L21.7277486911 13.2635253054 L20.6806282723 14.3106457243 L20.4188481675 14.3106457243 L19.109947644 15.6195462478 L18.8481675393 15.6195462478 L13.7870855148 20.6806282723 L13.7870855148 20.942408377 L12.4781849913 22.2513089005 L12.4781849913 22.5130890052 L11.6928446771 23.2984293194 L11.6928446771 23.5602094241 L10.907504363 24.3455497382 L10.907504363 24.6073298429 L10.3839441536 25.1308900524 L10.3839441536 25.3926701571 L9.86038394415 25.9162303665 L9.86038394415 26.1780104712 L9.59860383944 26.4397905759 L9.59860383944 26.7015706806 L9.07504363002 27.2251308901 L9.07504363002 27.4869109948 L8.81326352531 27.7486910995 L8.81326352531 28.0104712042 L8.55148342059 28.2722513089 L8.55148342059 28.5340314136 L8.28970331588 28.7958115183 L8.28970331588 29.057591623 L8.02792321117 29.3193717277 L8.02792321117 29.5811518325 L7.76614310646 29.8429319372 L7.76614310646 30.1047120419 L7.50436300175 30.3664921466 L7.50436300175 30.6282722513 L7.24258289703 30.890052356 L7.24258289703 31.1518324607 L6.98080279232 31.4136125654 L6.98080279232 31.9371727749 L6.71902268761 32.1989528796 L6.71902268761 32.4607329843 L6.4572425829 32.722513089 L6.4572425829 33.2460732984 L6.19546247818 33.5078534031 L6.19546247818 34.0314136126 L5.93368237347 34.2931937173 L5.93368237347 35.0785340314 L6.19546247818 35.3403141361 L6.19546247818 35.8638743455 L6.4572425829 36.1256544503 L6.4572425829 36.6492146597 L6.71902268761 36.9109947644 L6.71902268761 37.4345549738 L6.98080279232 37.6963350785 L6.98080279232 37.9581151832 L7.24258289703 38.219895288 L7.24258289703 38.4816753927 L7.50436300175 38.7434554974 L7.50436300175 39.0052356021 L7.76614310646 39.2670157068 L7.76614310646 39.5287958115 L8.02792321117 39.7905759162 L8.02792321117 40.0523560209 L8.28970331588 40.3141361257 L8.28970331588 40.5759162304 L8.55148342059 40.8376963351 L8.55148342059 41.0994764398 L8.81326352531 41.3612565445 L8.81326352531 41.6230366492 L9.33682373473 42.1465968586 L9.33682373473 42.4083769634 L9.59860383944 42.6701570681 L9.59860383944 42.9319371728 L10.1221640489 43.4554973822 L10.1221640489 43.7172774869 L10.907504363 44.502617801 L10.907504363 44.7643979058 L11.4310645724 45.2879581152 L11.4310645724 45.5497382199 L12.4781849913 46.5968586387 L12.4781849913 46.8586387435 L13.7870855148 48.167539267 L13.7870855148 48.4293193717 L18.5863874346 53.2286212914 L18.8481675393 53.2286212914 L20.1570680628 54.537521815 L20.4188481675 54.537521815 L21.4659685864 55.5846422339 L21.7277486911 55.5846422339 L22.5130890052 56.369982548 L22.7748691099 56.369982548 L23.5602094241 57.1553228621 L23.8219895288 57.1553228621 L24.3455497382 57.6788830716 L24.6073298429 57.6788830716 L25.3926701571 58.4642233857 L25.6544502618 58.4642233857 L25.9162303665 58.7260034904 L26.1780104712 58.7260034904 L26.7015706806 59.2495636998 L26.9633507853 59.2495636998 L27.4869109948 59.7731239092 L27.7486910995 59.7731239092 L28.0104712042 60.034904014 L28.2722513089 60.034904014 L28.7958115183 60.5584642234 L29.057591623 60.5584642234 L29.3193717277 60.8202443281 L29.5811518325 60.8202443281 L29.8429319372 61.0820244328 L30.1047120419 61.0820244328 L30.3664921466 61.3438045375 L30.6282722513 61.3438045375 L30.890052356 61.6055846422 L31.1518324607 61.6055846422 L31.4136125654 61.8673647469 L31.6753926702 61.8673647469 L31.9371727749 62.1291448517 L32.1989528796 62.1291448517 L32.4607329843 62.3909249564 L32.722513089 62.3909249564 L32.9842931937 62.6527050611 L33.2460732984 62.6527050611 L33.3333333333 62.739965096 L33.4205933682 62.739965096 L34.6422338569 61.5183246073 L34.6422338569 61.2565445026 L35.1657940663 60.7329842932 L35.1657940663 60.4712041885 L35.6893542757 59.9476439791 L35.6893542757 59.6858638743 L35.9511343805 59.4240837696 L35.9511343805 59.1623036649 L36.2129144852 58.9005235602 L36.2129144852 58.6387434555 L36.4746945899 58.3769633508 L36.4746945899 58.1151832461 L36.7364746946 57.8534031414 L36.7364746946 57.5916230366 L36.9982547993 57.3298429319 L36.9982547993 57.0680628272 L37.260034904 56.8062827225 L37.260034904 56.5445026178 L37.5218150087 56.2827225131 L37.5218150087 56.0209424084 L37.7835951134 55.7591623037 L37.7835951134 55.497382199 L38.0453752182 55.2356020942 L38.0453752182 54.7120418848 L38.3071553229 54.4502617801 L38.3071553229 54.1884816754 L38.5689354276 53.9267015707 L38.5689354276 53.664921466 L38.8307155323 53.4031413613 L38.8307155323 52.8795811518 L39.092495637 52.6178010471 L39.092495637 52.0942408377 L39.3542757417 51.832460733 L39.3542757417 51.5706806283 L39.6160558464 51.3089005236 L39.6160558464 50.7853403141 L39.8778359511 50.5235602094 L39.8778359511 50.0 L40.1396160558 49.7382198953 L40.1396160558 49.4764397906 L40.4013961606 49.2146596859 L40.4013961606 48.6910994764 L40.6631762653 48.4293193717 L40.6631762653 47.9057591623 L40.92495637 47.6439790576 L40.92495637 47.1204188482 L41.1867364747 46.8586387435 L41.1867364747 46.335078534 L41.4485165794 46.0732984293 L41.4485165794 45.5497382199 L41.7102966841 45.2879581152 L41.7102966841 44.7643979058 L41.9720767888 44.502617801 L41.9720767888 43.9790575916 L42.2338568935 43.7172774869 L42.2338568935 43.4554973822 L42.4956369983 43.1937172775 L42.4956369983 42.6701570681 L42.757417103 42.4083769634 L42.757417103 41.8848167539 L43.0191972077 41.6230366492 L43.0191972077 41.0994764398 L43.2809773124 40.8376963351 L43.2809773124 40.3141361257 L43.5427574171 40.0523560209 L43.5427574171 39.5287958115 L43.8045375218 39.2670157068 L43.8045375218 38.7434554974 L44.0663176265 38.4816753927 L44.0663176265 37.9581151832 L44.3280977312 37.6963350785 L44.3280977312 37.4345549738 L44.589877836 37.1727748691 L44.589877836 36.6492146597 L44.8516579407 36.387434555 L44.8516579407 35.8638743455 L45.1134380454 35.6020942408 L45.1134380454 34.8167539267 L44.8516579407 34.554973822 L44.8516579407 34.2931937173 L44.589877836 34.0314136126 L44.589877836 33.7696335079 L44.3280977312 33.5078534031 L44.3280977312 32.9842931937 L44.0663176265 32.722513089 L44.0663176265 32.4607329843 L43.8045375218 32.1989528796 L43.8045375218 31.9371727749 L43.5427574171 31.6753926702 L43.5427574171 31.1518324607 L43.2809773124 30.890052356 L43.2809773124 30.6282722513 L43.0191972077 30.3664921466 L43.0191972077 30.1047120419 L42.757417103 29.8429319372 L42.757417103 29.3193717277 L42.4956369983 29.057591623 L42.4956369983 28.7958115183 L42.2338568935 28.5340314136 L42.2338568935 28.0104712042 L41.9720767888 27.7486910995 L41.9720767888 27.4869109948 L41.7102966841 27.2251308901 L41.7102966841 26.7015706806 L41.4485165794 26.4397905759 L41.4485165794 26.1780104712 L41.1867364747 25.9162303665 L41.1867364747 25.3926701571 L40.92495637 25.1308900524 L40.92495637 24.8691099476 L40.6631762653 24.6073298429 L40.6631762653 24.0837696335 L40.4013961606 23.8219895288 L40.4013961606 23.5602094241 L40.1396160558 23.2984293194 L40.1396160558 23.0366492147 L39.8778359511 22.7748691099 L39.8778359511 22.2513089005 L39.6160558464 21.9895287958 L39.6160558464 21.7277486911 L39.3542757417 21.4659685864 L39.3542757417 20.942408377 L39.092495637 20.6806282723 L39.092495637 20.4188481675 L38.8307155323 20.1570680628 L38.8307155323 19.8952879581 L38.5689354276 19.6335078534 L38.5689354276 19.109947644 L38.3071553229 18.8481675393 L38.3071553229 18.5863874346 L38.0453752182 18.3246073298 L38.0453752182 18.0628272251 L37.7835951134 17.8010471204 L37.7835951134 17.5392670157 L37.5218150087 17.277486911 L37.5218150087 16.7539267016 L37.260034904 16.4921465969 L37.260034904 16.2303664921 L36.9982547993 15.9685863874 L36.9982547993 15.7068062827 L36.7364746946 15.445026178 L36.7364746946 15.1832460733 L36.4746945899 14.9214659686 L36.4746945899 14.6596858639 L36.2129144852 14.3979057592 L36.2129144852 14.1361256545 L35.9511343805 13.8743455497 L35.9511343805 13.612565445 L35.6893542757 13.3507853403 L35.6893542757 13.0890052356 L35.427574171 12.8272251309 L35.427574171 12.5654450262 L35.1657940663 12.3036649215 L35.1657940663 12.0418848168 L34.9040139616 11.780104712 L34.9040139616 11.5183246073 L34.3804537522 10.9947643979 L34.3804537522 10.7329842932 L34.1186736475 10.4712041885 L34.1186736475 10.2094240838 L33.595113438 9.68586387435 L33.595113438 9.42408376963 L33.0715532286 8.90052356021 L33.0715532286 8.6387434555 L32.0244328098 7.59162303665 L32.0244328098 7.32984293194 L31.84991274 7.15532286213 31.7626527051 7.15532286213 " stroke="black" fill="transparent"/>
<path d="M71.1169284468 14.2233856894 L71.0296684119 14.3106457243 L71.0296684119 14.572425829 L70.5061082024 15.0959860384 L70.5061082024 15.3577661431 L70.2443280977 15.6195462478 L70.2443280977 15.8813263525 L69.982547993 16.1431064572 L69.982547993 16.404886562 L69.7207678883 16.6666666667 L69.7207678883 16.9284467714 L69.4589877836 17.1902268761 L69.4589877836 17.4520069808 L69.1972076789 17.7137870855 L69.1972076789 18.2373472949 L68.9354275742 18.4991273997 L68.9354275742 18.7609075044 L68.6736474695 19.0226876091 L68.6736474695 19.2844677138 L68.4118673647 19.5462478185 L68.4118673647 20.0698080279 L68.15008726 20.3315881326 L68.15008726 20.5933682373 L67.8883071553 20.8551483421 L67.8883071553 21.3787085515 L67.6265270506 21.6404886562 L67.6265270506 21.9022687609 L67.3647469459 22.1640488656 L67.3647469459 22.687609075 L67.1029668412 22.9493891798 L67.1029668412 23.4729493892 L66.8411867365 23.7347294939 L66.8411867365 24.2582897033 L66.5794066318 24.520069808 L66.5794066318 24.7818499127 L66.3176265271 25.0436300175 L66.3176265271 25.5671902269 L66.0558464223 25.8289703316 L66.0558464223 26.352530541 L65.7940663176 26.6143106457 L65.7940663176 27.1378708551 L65.5322862129 27.3996509599 L65.5322862129 27.9232111693 L65.2705061082 28.184991274 L65.2705061082 28.7085514834 L65.0087260035 28.9703315881 L65.0087260035 29.4938917976 L64.7469458988 29.7556719023 L64.7469458988 30.2792321117 L64.4851657941 30.5410122164 L64.4851657941 31.0645724258 L64.2233856894 31.3263525305 L64.2233856894 31.84991274 L63.9616055846 32.1116928447 L63.9616055846 32.6352530541 L63.6998254799 32.8970331588 L63.6998254799 33.4205933682 L63.4380453752 33.6823734729 L63.4380453752 34.2059336824 L63.1762652705 34.4677137871 L63.1762652705 34.9912739965 L63.4380453752 35.2530541012 L63.4380453752 35.5148342059 L63.6998254799 35.7766143106 L63.6998254799 36.3001745201 L63.9616055846 36.5619546248 L63.9616055846 36.8237347295 L64.2233856894 37.0855148342 L64.2233856894 37.6090750436 L64.4851657941 37.8708551483 L64.4851657941 38.1326352531 L64.7469458988 38.3944153578 L64.7469458988 38.9179755672 L65.0087260035 39.1797556719 L65.0087260035 39.4415357766 L65.2705061082 39.7033158813 L65.2705061082 40.2268760908 L65.5322862129 40.4886561955 L65.5322862129 40.7504363002 L65.7940663176 41.0122164049 L65.7940663176 41.5357766143 L66.0558464223 41.797556719 L66.0558464223 42.0593368237 L66.3176265271 42.3211169284 L66.3176265271 42.8446771379 L66.5794066318 43.1064572426 L66.5794066318 43.3682373473 L66.8411867365 43.630017452 L66.8411867365 44.1535776614 L67.1029668412 44.4153577661 L67.1029668412 44.6771378709 L67.3647469459 44.9389179756 L67.3647469459 45.462478185 L67.6265270506 45.7242582897 L67.6265270506 45.9860383944 L67.8883071553 46.2478184991 L67.8883071553 46.5095986038 L68.15008726 46.7713787086 L68.15008726 47.294938918 L68.4118673647 47.5567190227 L68.4118673647 47.8184991274 L68.6736474695 48.0802792321 L68.6736474695 48.3420593368 L68.9354275742 48.6038394415 L68.9354275742 49.127399651 L69.1972076789 49.3891797557 L69.1972076789 49.6509598604 L69.4589877836 49.9127399651 L69.4589877836 50.1745200698 L69.7207678883 50.4363001745 L69.7207678883 50.6980802792 L69.982547993 50.9598603839 L69.982547993 51.2216404887 L70.2443280977 51.4834205934 L70.2443280977 51.7452006981 L70.5061082024 52.0069808028 L70.5061082024 52.2687609075 L70.7678883072 52.5305410122 L70.7678883072 52.7923211169 L71.0296684119 53.0541012216 L71.0296684119 53.3158813264 L71.5532286213 53.8394415358 L71.5532286213 54.1012216405 L71.815008726 54.3630017452 L71.815008726 54.6247818499 L72.2513089005 55.0610820244 L72.3385689354 55.0610820244 L72.4258289703 54.9738219895 L72.687609075 54.9738219895 L73.2111692845 54.4502617801 L73.4729493892 54.4502617801 L73.7347294939 54.1884816754 L73.9965095986 54.1884816754 L74.520069808 53.664921466 L74.7818499127 53.664921466 L75.3054101222 53.1413612565 L75.5671902269 53.1413612565 L76.0907504363 52.6178010471 L76.352530541 52.6178010471 L77.1378708551 51.832460733 L77.3996509599 51.832460733 L78.184991274 51.0471204188 L78.4467713787 51.0471204188 L79.7556719023 49.7382198953 L80.017452007 49.7382198953 L85.3403141361 44.4153577661 L85.3403141361 44.1535776614 L86.387434555 43.1064572426 L86.387434555 42.8446771379 L87.1727748691 42.0593368237 L87.1727748691 41.797556719 L87.6963350785 41.2739965096 L87.6963350785 41.0122164049 L88.219895288 40.4886561955 L88.219895288 40.2268760908 L88.7434554974 39.7033158813 L88.7434554974 39.4415357766 L89.0052356021 39.1797556719 L89.0052356021 38.9179755672 L89.5287958115 38.3944153578 L89.5287958115 38.1326352531 L89.7905759162 37.8708551483 L89.7905759162 37.6090750436 L90.0523560209 37.3472949389 L90.0523560209 37.0855148342 L90.3141361257 36.8237347295 L90.3141361257 36.5619546248 L90.5759162304 36.3001745201 L90.5759162304 36.0383944154 L90.8376963351 35.7766143106 L90.8376963351 35.2530541012 L91.0994764398 34.9912739965 L90.8376963351 34.7294938918 L90.8376963351 34.4677137871 L90.5759162304 34.2059336824 L90.5759162304 33.9441535777 L90.3141361257 33.6823734729 L90.3141361257 33.1588132635 L90.0523560209 32.8970331588 L90.0523560209 32.6352530541 L89.5287958115 32.1116928447 L89.5287958115 31.84991274 L89.2670157068 31.5881326353 L89.2670157068 31.3263525305 L89.0052356021 31.0645724258 L89.0052356021 30.8027923211 L88.4816753927 30.2792321117 L88.4816753927 30.017452007 L87.9581151832 29.4938917976 L87.9581151832 29.2321116928 L87.4345549738 28.7085514834 L87.4345549738 28.4467713787 L86.9109947644 27.9232111693 L86.9109947644 27.6614310646 L85.8638743455 26.6143106457 L85.8638743455 26.352530541 L84.2931937173 24.7818499127 L84.2931937173 24.520069808 L81.0645724258 21.2914485166 L80.8027923211 21.2914485166 L79.2321116928 19.7207678883 L78.9703315881 19.7207678883 L77.9232111693 18.6736474695 L77.6614310646 18.6736474695 L76.8760907504 17.8883071553 L76.6143106457 17.8883071553 L75.8289703316 17.1029668412 L75.5671902269 17.1029668412 L75.0436300175 16.5794066318 L74.7818499127 16.5794066318 L74.2582897033 16.0558464223 L73.9965095986 16.0558464223 L73.4729493892 15.5322862129 L73.2111692845 15.5322862129 L72.9493891798 15.2705061082 L72.687609075 15.2705061082 L72.1640488656 14.7469458988 L71.9022687609 14.7469458988 L71.6404886562 14.4851657941 L71.3787085515 14.4851657941 71.1169284468 14.2233856894 " stroke="black" fill="transparent"/>
<path d="M30.5410122164 11.6055846422 L30.2792321117 11.8673647469 L30.017452007 11.8673647469 L29.4938917976 12.3909249564 L29.2321116928 12.3909249564 L28.9703315881 12.6527050611 L28.7085514834 12.6527050611 L28.184991274 13.1762652705 L27.9232111693 13.1762652705 L27.3996509599 13.6998254799 L27.1378708551 13.6998254799 L26.6143106457 14.2233856894 L26.352530541 14.2233856894 L25.5671902269 15.0087260035 L25.3054101222 15.0087260035 L24.520069808 15.7940663176 L24.2582897033 15.7940663176 L23.2111692845 16.8411867365 L22.9493891798 16.8411867365 L21.6404886562 18.15008726 L21.3787085515 18.15008726 L16.3176265271 23.2111692845 L16.3176265271 23.4729493892 L15.0087260035 24.7818499127 L15.0087260035 25.0436300175 L14.2233856894 25.8289703316 L14.2233856894 26.0907504363 L13.4380453752 26.8760907504 L13.4380453752 27.1378708551 L12.9144851658 27.6614310646 L12.9144851658 27.9232111693 L12.3909249564 28.4467713787 L12.3909249564 28.7085514834 L12.1291448517 28.9703315881 L12.1291448517 29.2321116928 L11.6055846422 29.7556719023 L11.6055846422 30.017452007 L11.3438045375 30.2792321117 L11.3438045375 30.5410122164 L11.0820244328 30.8027923211 L11.0820244328 31.0645724258 L10.8202443281 31.3263525305 L10.8202443281 31.5881326353 L10.5584642234 31.84991274 L10.5584642234 32.1116928447 L10.2966841187 32.3734729494 L10.2966841187 32.6352530541 L10.034904014 32.8970331588 L10.034904014 33.1588132635 L9.77312390925 33.4205933682 L9.77312390925 33.6823734729 L9.51134380454 33.9441535777 L9.51134380454 34.4677137871 L9.24956369983 34.7294938918 L9.24956369983 34.9912739965 L9.51134380454 35.2530541012 L9.51134380454 35.5148342059 L9.77312390925 35.7766143106 L9.77312390925 36.0383944154 L10.034904014 36.3001745201 L10.034904014 36.5619546248 L10.2966841187 36.8237347295 L10.2966841187 37.0855148342 L10.5584642234 37.3472949389 L10.5584642234 37.6090750436 L10.8202443281 37.8708551483 L10.8202443281 38.1326352531 L11.0820244328 38.3944153578 L11.0820244328 38.6561954625 L11.3438045375 38.9179755672 L11.3438045375 39.1797556719 L11.8673647469 39.7033158813 L11.8673647469 39.965095986 L12.1291448517 40.2268760908 L12.1291448517 40.4886561955 L12.6527050611 41.0122164049 L12.6527050611 41.2739965096 L13.4380453752 42.0593368237 L13.4380453752 42.3211169284 L13.9616055846 42.8446771379 L13.9616055846 43.1064572426 L15.0087260035 44.1535776614 L15.0087260035 44.4153577661 L16.3176265271 45.7242582897 L16.3176265271 45.9860383944 L21.1169284468 50.7853403141 L21.3787085515 50.7853403141 L22.687609075 52.0942408377 L22.9493891798 52.0942408377 L23.9965095986 53.1413612565 L24.2582897033 53.1413612565 L25.0436300175 53.9267015707 L25.3054101222 53.9267015707 L26.0907504363 54.7120418848 L26.352530541 54.7120418848 L26.8760907504 55.2356020942 L27.1378708551 55.2356020942 L27.9232111693 56.0209424084 L28.184991274 56.0209424084 L28.4467713787 56.2827225131 L28.7085514834 56.2827225131 L29.2321116928 56.8062827225 L29.4938917976 56.8062827225 L30.017452007 57.3298429319 L30.2792321117 57.3298429319 L30.5410122164 57.5916230366 L30.8027923211 57.5916230366 L31.3263525305 58.1151832461 L31.5881326353 58.1151832461 L31.84991274 58.3769633508 L32.1116928447 58.3769633508 L32.3734729494 58.6387434555 L32.722513089 58.2897033159 L32.722513089 58.0279232112 L33.2460732984 57.5043630017 L33.2460732984 57.242582897 L33.5078534031 56.9808027923 L33.5078534031 56.7190226876 L33.7696335079 56.4572425829 L33.7696335079 56.1954624782 L34.0314136126 55.9336823735 L34.0314136126 55.6719022688 L34.2931937173 55.410122164 L34.2931937173 55.1483420593 L34.554973822 54.8865619546 L34.554973822 54.6247818499 L34.8167539267 54.3630017452 L34.8167539267 54.1012216405 L35.0785340314 53.8394415358 L35.0785340314 53.5776614311 L35.3403141361 53.3158813264 L35.3403141361 53.0541012216 L35.6020942408 52.7923211169 L35.6020942408 52.2687609075 L35.8638743455 52.0069808028 L35.8638743455 51.7452006981 L36.1256544503 51.4834205934 L36.1256544503 51.2216404887 L36.387434555 50.9598603839 L36.387434555 50.4363001745 L36.6492146597 50.1745200698 L36.6492146597 49.6509598604 L36.9109947644 49.3891797557 L36.9109947644 49.127399651 L37.1727748691 48.8656195462 L37.1727748691 48.3420593368 L37.4345549738 48.0802792321 L37.4345549738 47.5567190227 L37.6963350785 47.294938918 L37.6963350785 47.0331588133 L37.9581151832 46.7713787086 L37.9581151832 46.2478184991 L38.219895288 45.9860383944 L38.219895288 45.462478185 L38.4816753927 45.2006980803 L38.4816753927 44.6771378709 L38.7434554974 44.4153577661 L38.7434554974 43.8917975567 L39.0052356021 43.630017452 L39.0052356021 43.1064572426 L39.2670157068 42.8446771379 L39.2670157068 42.3211169284 L39.5287958115 42.0593368237 L39.5287958115 41.5357766143 L39.7905759162 41.2739965096 L39.7905759162 41.0122164049 L40.0523560209 40.7504363002 L40.0523560209 40.2268760908 L40.3141361257 39.965095986 L40.3141361257 39.4415357766 L40.5759162304 39.1797556719 L40.5759162304 38.6561954625 L40.8376963351 38.3944153578 L40.8376963351 37.8708551483 L41.0994764398 37.6090750436 L41.0994764398 37.0855148342 L41.3612565445 36.8237347295 L41.3612565445 36.3001745201 L41.6230366492 36.0383944154 L41.6230366492 35.5148342059 L41.7102966841 35.427574171 L41.7102966841 35.3403141361 L41.6230366492 35.2530541012 L41.6230366492 34.9912739965 L41.3612565445 34.7294938918 L41.3612565445 34.4677137871 L41.0994764398 34.2059336824 L41.0994764398 33.6823734729 L40.8376963351 33.4205933682 L40.8376963351 33.1588132635 L40.5759162304 32.8970331588 L40.5759162304 32.6352530541 L40.3141361257 32.3734729494 L40.3141361257 31.84991274 L40.0523560209 31.5881326353 L40.0523560209 31.3263525305 L39.7905759162 31.0645724258 L39.7905759162 30.5410122164 L39.5287958115 30.2792321117 L39.5287958115 30.017452007 L39.2670157068 29.7556719023 L39.2670157068 29.2321116928 L39.0052356021 28.9703315881 L39.0052356021 28.7085514834 L38.7434554974 28.4467713787 L38.7434554974 27.9232111693 L38.4816753927 27.6614310646 L38.4816753927 27.3996509599 L38.219895288 27.1378708551 L38.219895288 26.6143106457 L37.9581151832 26.352530541 L37.9581151832 26.0907504363 L37.6963350785 25.8289703316 L37.6963350785 25.5671902269 L37.4345549738 25.3054101222 L37.4345549738 24.7818499127 L37.1727748691 24.520069808 L37.1727748691 24.2582897033 L36.9109947644 23.9965095986 L36.9109947644 23.4729493892 L36.6492146597 23.2111692845 L36.6492146597 22.9493891798 L36.387434555 22.687609075 L36.387434555 22.4258289703 L36.1256544503 22.1640488656 L36.1256544503 21.6404886562 L35.8638743455 21.3787085515 L35.8638743455 21.1169284468 L35.6020942408 20.8551483421 L35.6020942408 20.5933682373 L35.3403141361 20.3315881326 L35.3403141361 20.0698080279 L35.0785340314 19.8080279232 L35.0785340314 19.2844677138 L34.8167539267 19.0226876091 L34.8167539267 18.7609075044 L34.554973822 18.4991273997 L34.554973822 18.2373472949 L34.2931937173 17.9755671902 L34.2931937173 17.7137870855 L34.0314136126 17.4520069808 L34.0314136126 17.1902268761 L33.7696335079 16.9284467714 L33.7696335079 16.6666666667 L33.5078534031 16.404886562 L33.5078534031 16.1431064572 L33.2460732984 15.8813263525 L33.2460732984 15.6195462478 L32.9842931937 15.3577661431 L32.9842931937 15.0959860384 L32.722513089 14.8342059337 L32.722513089 14.572425829 L32.4607329843 14.3106457243 L32.4607329843 14.0488656195 L31.9371727749 13.5253054101 L31.9371727749 13.2635253054 L31.6753926702 13.0017452007 L31.6753926702 12.739965096 L31.1518324607 12.2164048866 L31.1518324607 11.9546247818 L30.8027923211 11.6055846422 30.5410122164 11.6055846422 " stroke="black" fill="transparent"/>
<path d="M72.3385689354 19.109947644 L72.2513089005 19.1972076789 L72.2513089005 19.4589877836 L71.9895287958 19.7207678883 L71.9895287958 19.982547993 L71.7277486911 20.2443280977 L71.7277486911 20.7678883072 L71.4659685864 21.0296684119 L71.4659685864 21.2914485166 L71.2041884817 21.5532286213 L71.2041884817 21.815008726 L70.942408377 22.0767888307 L70.942408377 22.6003490401 L70.6806282723 22.8621291449 L70.6806282723 23.1239092496 L70.4188481675 23.3856893543 L70.4188481675 23.9092495637 L70.1570680628 24.1710296684 L70.1570680628 24.4328097731 L69.8952879581 24.6945898778 L69.8952879581 25.2181500873 L69.6335078534 25.479930192 L69.6335078534 26.0034904014 L69.3717277487 26.2652705061 L69.3717277487 26.7888307155 L69.109947644 27.0506108202 L69.109947644 27.312390925 L68.8481675393 27.5741710297 L68.8481675393 28.0977312391 L68.5863874346 28.3595113438 L68.5863874346 28.8830715532 L68.3246073298 29.1448516579 L68.3246073298 29.6684118674 L68.0628272251 29.9301919721 L68.0628272251 30.4537521815 L67.8010471204 30.7155322862 L67.8010471204 31.2390924956 L67.5392670157 31.5008726003 L67.5392670157 32.0244328098 L67.277486911 32.2862129145 L67.277486911 32.8097731239 L67.0157068063 33.0715532286 L67.0157068063 33.595113438 L66.7539267016 33.8568935428 L66.7539267016 34.3804537522 L66.6666666667 34.4677137871 L66.6666666667 34.554973822 L66.7539267016 34.6422338569 L66.7539267016 35.1657940663 L67.0157068063 35.427574171 L67.0157068063 35.6893542757 L67.277486911 35.9511343805 L67.277486911 36.4746945899 L67.5392670157 36.7364746946 L67.5392670157 36.9982547993 L67.8010471204 37.260034904 L67.8010471204 37.7835951134 L68.0628272251 38.0453752182 L68.0628272251 38.3071553229 L68.3246073298 38.5689354276 L68.3246073298 39.092495637 L68.5863874346 39.3542757417 L68.5863874346 39.6160558464 L68.8481675393 39.8778359511 L68.8481675393 40.4013961606 L69.109947644 40.6631762653 L69.109947644 40.92495637 L69.3717277487 41.1867364747 L69.3717277487 41.7102966841 L69.6335078534 41.9720767888 L69.6335078534 42.2338568935 L69.8952879581 42.4956369983 L69.8952879581 43.0191972077 L70.1570680628 43.2809773124 L70.1570680628 43.5427574171 L70.4188481675 43.8045375218 L70.4188481675 44.0663176265 L70.6806282723 44.3280977312 L70.6806282723 44.8516579407 L70.942408377 45.1134380454 L70.942408377 45.3752181501 L71.2041884817 45.6369982548 L71.2041884817 45.8987783595 L71.4659685864 46.1605584642 L71.4659685864 46.6841186736 L71.7277486911 46.9458987784 L71.7277486911 47.2076788831 L71.9895287958 47.4694589878 L71.9895287958 47.7312390925 L72.2513089005 47.9930191972 L72.2513089005 48.2547993019 L72.5130890052 48.5165794066 L72.5130890052 48.7783595113 L72.7748691099 49.0401396161 L72.7748691099 49.3019197208 L73.0366492147 49.5636998255 L73.0366492147 49.8254799302 L73.2984293194 50.0872600349 L73.2984293194 50.3490401396 L73.3856893543 50.4363001745 L73.647469459 50.1745200698 L73.9092495637 50.1745200698 L74.6945898778 49.3891797557 L74.9563699825 49.3891797557 L75.7417102967 48.6038394415 L76.0034904014 48.6038394415 L77.312390925 47.294938918 L77.5741710297 47.294938918 L82.8970331588 41.9720767888 L82.8970331588 41.7102966841 L83.9441535777 40.6631762653 L83.9441535777 40.4013961606 L84.7294938918 39.6160558464 L84.7294938918 39.3542757417 L85.2530541012 38.8307155323 L85.2530541012 38.5689354276 L85.7766143106 38.0453752182 L85.7766143106 37.7835951134 L86.3001745201 37.260034904 L86.3001745201 36.9982547993 L86.5619546248 36.7364746946 L86.5619546248 36.4746945899 L87.0855148342 35.9511343805 L87.0855148342 35.6893542757 L87.3472949389 35.427574171 L87.3472949389 35.1657940663 L87.4345549738 35.0785340314 L87.4345549738 34.9912739965 L87.0855148342 34.6422338569 L87.0855148342 34.3804537522 L86.8237347295 34.1186736475 L86.8237347295 33.8568935428 L86.5619546248 33.595113438 L86.5619546248 33.3333333333 L86.0383944154 32.8097731239 L86.0383944154 32.5479930192 L85.5148342059 32.0244328098 L85.5148342059 31.7626527051 L84.9912739965 31.2390924956 L84.9912739965 30.9773123909 L84.4677137871 30.4537521815 L84.4677137871 30.1919720768 L83.4205933682 29.1448516579 L83.4205933682 28.8830715532 L81.84991274 27.312390925 L81.84991274 27.0506108202 L78.6212914485 23.8219895288 L78.3595113438 23.8219895288 L76.7888307155 22.2513089005 L76.5270506108 22.2513089005 L75.479930192 21.2041884817 L75.2181500873 21.2041884817 L74.4328097731 20.4188481675 L74.1710296684 20.4188481675 L73.3856893543 19.6335078534 L73.1239092496 19.6335078534 L72.6003490401 19.109947644 72.3385689354 19.109947644 " stroke="black" fill="transparent"/>
<path d="M29.6684118674 16.2303664921 L29.1448516579 16.7539267016 L28.8830715532 16.7539267016 L28.0977312391 17.5392670157 L27.8359511344 17.5392670157 L27.0506108202 18.3246073298 L26.7888307155 18.3246073298 L25.7417102967 19.3717277487 L25.479930192 19.3717277487 L24.1710296684 20.6806282723 L23.9092495637 20.6806282723 L18.8481675393 25.7417102967 L18.8481675393 26.0034904014 L17.5392670157 27.312390925 L17.5392670157 27.5741710297 L16.7539267016 28.3595113438 L16.7539267016 28.6212914485 L15.9685863874 29.4066317627 L15.9685863874 29.6684118674 L15.445026178 30.1919720768 L15.445026178 30.4537521815 L14.9214659686 30.9773123909 L14.9214659686 31.2390924956 L14.6596858639 31.5008726003 L14.6596858639 31.7626527051 L14.1361256545 32.2862129145 L14.1361256545 32.5479930192 L13.8743455497 32.8097731239 L13.8743455497 33.0715532286 L13.612565445 33.3333333333 L13.612565445 33.595113438 L13.3507853403 33.8568935428 L13.3507853403 34.1186736475 L13.0890052356 34.3804537522 L13.0890052356 34.6422338569 L13.0017452007 34.7294938918 L13.0017452007 34.8167539267 L13.0890052356 34.9040139616 L13.0890052356 35.1657940663 L13.3507853403 35.427574171 L13.3507853403 35.6893542757 L13.612565445 35.9511343805 L13.612565445 36.2129144852 L13.8743455497 36.4746945899 L13.8743455497 36.7364746946 L14.3979057592 37.260034904 L14.3979057592 37.5218150087 L14.6596858639 37.7835951134 L14.6596858639 38.0453752182 L15.1832460733 38.5689354276 L15.1832460733 38.8307155323 L15.9685863874 39.6160558464 L15.9685863874 39.8778359511 L16.4921465969 40.4013961606 L16.4921465969 40.6631762653 L17.5392670157 41.7102966841 L17.5392670157 41.9720767888 L18.8481675393 43.2809773124 L18.8481675393 43.5427574171 L23.647469459 48.3420593368 L23.9092495637 48.3420593368 L25.2181500873 49.6509598604 L25.479930192 49.6509598604 L26.5270506108 50.6980802792 L26.7888307155 50.6980802792 L27.5741710297 51.4834205934 L27.8359511344 51.4834205934 L28.6212914485 52.2687609075 L28.8830715532 52.2687609075 L29.4066317627 52.7923211169 L29.6684118674 52.7923211169 L30.4537521815 53.5776614311 L30.7155322862 53.5776614311 L30.9773123909 53.8394415358 L31.2390924956 53.8394415358 L31.3263525305 53.9267015707 L31.3263525305 53.7521815009 L31.5881326353 53.4904013962 L31.5881326353 53.2286212914 L31.84991274 52.9668411867 L31.84991274 52.705061082 L32.1116928447 52.4432809773 L32.1116928447 52.1815008726 L32.3734729494 51.9197207679 L32.3734729494 51.6579406632 L32.6352530541 51.3961605585 L32.6352530541 51.1343804538 L32.8970331588 50.872600349 L32.8970331588 50.6108202443 L33.1588132635 50.3490401396 L33.1588132635 49.8254799302 L33.4205933682 49.5636998255 L33.4205933682 49.3019197208 L33.6823734729 49.0401396161 L33.6823734729 48.7783595113 L33.9441535777 48.5165794066 L33.9441535777 47.9930191972 L34.2059336824 47.7312390925 L34.2059336824 47.2076788831 L34.4677137871 46.9458987784 L34.4677137871 46.6841186736 L34.7294938918 46.4223385689 L34.7294938918 45.8987783595 L34.9912739965 45.6369982548 L34.9912739965 45.1134380454 L35.2530541012 44.8516579407 L35.2530541012 44.589877836 L35.5148342059 44.3280977312 L35.5148342059 43.8045375218 L35.7766143106 43.5427574171 L35.7766143106 43.0191972077 L36.0383944154 42.757417103 L36.0383944154 42.2338568935 L36.3001745201 41.9720767888 L36.3001745201 41.4485165794 L36.5619546248 41.1867364747 L36.5619546248 40.6631762653 L36.8237347295 40.4013961606 L36.8237347295 39.8778359511 L37.0855148342 39.6160558464 L37.0855148342 39.092495637 L37.3472949389 38.8307155323 L37.3472949389 38.5689354276 L37.6090750436 38.3071553229 L37.6090750436 37.7835951134 L37.8708551483 37.5218150087 L37.8708551483 36.9982547993 L38.1326352531 36.7364746946 L38.1326352531 36.2129144852 L38.3944153578 35.9511343805 L38.3944153578 35.6893542757 L38.1326352531 35.427574171 L38.1326352531 35.1657940663 L37.8708551483 34.9040139616 L37.8708551483 34.3804537522 L37.6090750436 34.1186736475 L37.6090750436 33.8568935428 L37.3472949389 33.595113438 L37.3472949389 33.0715532286 L37.0855148342 32.8097731239 L37.0855148342 32.5479930192 L36.8237347295 32.2862129145 L36.8237347295 31.7626527051 L36.5619546248 31.5008726003 L36.5619546248 31.2390924956 L36.3001745201 30.9773123909 L36.3001745201 30.4537521815 L36.0383944154 30.1919720768 L36.0383944154 29.9301919721 L35.7766143106 29.6684118674 L35.7766143106 29.1448516579 L35.5148342059 28.8830715532 L35.5148342059 28.6212914485 L35.2530541012 28.3595113438 L35.2530541012 28.0977312391 L34.9912739965 27.8359511344 L34.9912739965 27.312390925 L34.7294938918 27.0506108202 L34.7294938918 26.7888307155 L34.4677137871 26.5270506108 L34.4677137871 26.0034904014 L34.2059336824 25.7417102967 L34.2059336824 25.479930192 L33.9441535777 25.2181500873 L33.9441535777 24.9563699825 L33.6823734729 24.6945898778 L33.6823734729 24.1710296684 L33.4205933682 23.9092495637 L33.4205933682 23.647469459 L33.1588132635 23.3856893543 L33.1588132635 23.1239092496 L32.8970331588 22.8621291449 L32.8970331588 22.6003490401 L32.6352530541 22.3385689354 L32.6352530541 21.815008726 L32.3734729494 21.5532286213 L32.3734729494 21.2914485166 L32.1116928447 21.0296684119 L32.1116928447 20.7678883072 L31.84991274 20.5061082024 L31.84991274 20.2443280977 L31.5881326353 19.982547993 L31.5881326353 19.7207678883 L31.3263525305 19.4589877836 L31.3263525305 19.1972076789 L31.0645724258 18.9354275742 L31.0645724258 18.6736474695 L30.8027923211 18.4118673647 L30.8027923211 18.15008726 L30.5410122164 17.8883071553 L30.5410122164 17.6265270506 L30.2792321117 17.3647469459 L30.2792321117 17.1029668412 L30.017452007 16.8411867365 L30.017452007 16.5794066318 29.6684118674 16.2303664921 " stroke="black" fill="transparent"/>
<path d="M73.647469459 24.4328097731 L73.4729493892 24.6073298429 L73.4729493892 25.1308900524 L73.2111692845 25.3926701571 L73.2111692845 25.6544502618 L72.9493891798 25.9162303665 L72.9493891798 26.4397905759 L72.687609075 26.7015706806 L72.687609075 26.9633507853 L72.4258289703 27.2251308901 L72.4258289703 27.7486910995 L72.1640488656 28.0104712042 L72.1640488656 28.5340314136 L71.9022687609 28.7958115183 L71.9022687609 29.3193717277 L71.6404886562 29.5811518325 L71.6404886562 29.8429319372 L71.3787085515 30.1047120419 L71.3787085515 30.6282722513 L71.1169284468 30.890052356 L71.1169284468 31.4136125654 L70.8551483421 31.6753926702 L70.8551483421 32.1989528796 L70.5933682373 32.4607329843 L70.5933682373 32.9842931937 L70.3315881326 33.2460732984 L70.3315881326 33.7696335079 L70.0698080279 34.0314136126 L70.0698080279 34.554973822 L70.3315881326 34.8167539267 L70.3315881326 35.3403141361 L70.5933682373 35.6020942408 L70.5933682373 35.8638743455 L70.8551483421 36.1256544503 L70.8551483421 36.6492146597 L71.1169284468 36.9109947644 L71.1169284468 37.1727748691 L71.3787085515 37.4345549738 L71.3787085515 37.9581151832 L71.6404886562 38.219895288 L71.6404886562 38.4816753927 L71.9022687609 38.7434554974 L71.9022687609 39.2670157068 L72.1640488656 39.5287958115 L72.1640488656 39.7905759162 L72.4258289703 40.0523560209 L72.4258289703 40.5759162304 L72.687609075 40.8376963351 L72.687609075 41.0994764398 L72.9493891798 41.3612565445 L72.9493891798 41.6230366492 L73.2111692845 41.8848167539 L73.2111692845 42.4083769634 L73.4729493892 42.6701570681 L73.4729493892 42.9319371728 L73.7347294939 43.1937172775 L73.7347294939 43.4554973822 L73.9965095986 43.7172774869 L73.9965095986 44.2408376963 L74.2582897033 44.502617801 L74.2582897033 44.7643979058 L74.520069808 45.0261780105 L74.520069808 45.2006980803 L74.8691099476 44.8516579407 L75.1308900524 44.8516579407 L80.4537521815 39.5287958115 L80.4537521815 39.2670157068 L81.5008726003 38.219895288 L81.5008726003 37.9581151832 L82.2862129145 37.1727748691 L82.2862129145 36.9109947644 L82.8097731239 36.387434555 L82.8097731239 36.1256544503 L83.3333333333 35.6020942408 L83.3333333333 35.3403141361 L83.595113438 35.0785340314 L83.0715532286 34.554973822 L83.0715532286 34.2931937173 L82.5479930192 33.7696335079 L82.5479930192 33.5078534031 L82.0244328098 32.9842931937 L82.0244328098 32.722513089 L80.9773123909 31.6753926702 L80.9773123909 31.4136125654 L79.4066317627 29.8429319372 L79.4066317627 29.5811518325 L76.1780104712 26.352530541 L75.9162303665 26.352530541 L74.3455497382 24.7818499127 L74.0837696335 24.7818499127 L73.7347294939 24.4328097731 73.647469459 24.4328097731 " stroke="black" fill="transparent"/>
<path d="M28.6212914485 21.5532286213 L28.2722513089 21.9022687609 L28.0104712042 21.9022687609 L26.7015706806 23.2111692845 L26.4397905759 23.2111692845 L21.3787085515 28.2722513089 L21.3787085515 28.5340314136 L20.0698080279 29.8429319372 L20.0698080279 30.1047120419 L19.2844677138 30.890052356 L19.2844677138 31.1518324607 L18.4991273997 31.9371727749 L18.4991273997 32.1989528796 L17.9755671902 32.722513089 L17.9755671902 32.9842931937 L17.4520069808 33.5078534031 L17.4520069808 33.7696335079 L17.1902268761 34.0314136126 L17.1902268761 34.2931937173 L16.8411867365 34.6422338569 L16.8411867365 34.7294938918 L16.9284467714 34.8167539267 L16.9284467714 35.0785340314 L17.1902268761 35.3403141361 L17.1902268761 35.6020942408 L17.7137870855 36.1256544503 L17.7137870855 36.387434555 L18.4991273997 37.1727748691 L18.4991273997 37.4345549738 L19.0226876091 37.9581151832 L19.0226876091 38.219895288 L20.0698080279 39.2670157068 L20.0698080279 39.5287958115 L21.3787085515 40.8376963351 L21.3787085515 41.0994764398 L26.1780104712 45.8987783595 L26.4397905759 45.8987783595 L27.7486910995 47.2076788831 L28.0104712042 47.2076788831 L29.057591623 48.2547993019 L29.3193717277 48.2547993019 L30.1047120419 49.0401396161 L30.1919720768 48.9528795812 L30.1919720768 48.6910994764 L30.4537521815 48.4293193717 L30.4537521815 48.167539267 L30.7155322862 47.9057591623 L30.7155322862 47.3821989529 L30.9773123909 47.1204188482 L30.9773123909 46.8586387435 L31.2390924956 46.5968586387 L31.2390924956 46.335078534 L31.5008726003 46.0732984293 L31.5008726003 45.5497382199 L31.7626527051 45.2879581152 L31.7626527051 44.7643979058 L32.0244328098 44.502617801 L32.0244328098 44.2408376963 L32.2862129145 43.9790575916 L32.2862129145 43.4554973822 L32.5479930192 43.1937172775 L32.5479930192 42.6701570681 L32.8097731239 42.4083769634 L32.8097731239 42.1465968586 L33.0715532286 41.8848167539 L33.0715532286 41.3612565445 L33.3333333333 41.0994764398 L33.3333333333 40.5759162304 L33.595113438 40.3141361257 L33.595113438 39.7905759162 L33.8568935428 39.5287958115 L33.8568935428 39.0052356021 L34.1186736475 38.7434554974 L34.1186736475 38.219895288 L34.3804537522 37.9581151832 L34.3804537522 37.4345549738 L34.6422338569 37.1727748691 L34.6422338569 36.6492146597 L34.9040139616 36.387434555 L34.9040139616 35.6020942408 L34.6422338569 35.3403141361 L34.6422338569 35.0785340314 L34.3804537522 34.8167539267 L34.3804537522 34.2931937173 L34.1186736475 34.0314136126 L34.1186736475 33.7696335079 L33.8568935428 33.5078534031 L33.8568935428 32.9842931937 L33.595113438 32.722513089 L33.595113438 32.4607329843 L33.3333333333 32.1989528796 L33.3333333333 31.6753926702 L33.0715532286 31.4136125654 L33.0715532286 31.1518324607 L32.8097731239 30.890052356 L32.8097731239 30.6282722513 L32.5479930192 30.3664921466 L32.5479930192 29.8429319372 L32.2862129145 29.5811518325 L32.2862129145 29.3193717277 L32.0244328098 29.057591623 L32.0244328098 28.5340314136 L31.7626527051 28.2722513089 L31.7626527051 28.0104712042 L31.5008726003 27.7486910995 L31.5008726003 27.4869109948 L31.2390924956 27.2251308901 L31.2390924956 26.7015706806 L30.9773123909 26.4397905759 L30.9773123909 26.1780104712 L30.7155322862 25.9162303665 L30.7155322862 25.6544502618 L30.4537521815 25.3926701571 L30.4537521815 25.1308900524 L30.1919720768 24.8691099476 L30.1919720768 24.3455497382 L29.9301919721 24.0837696335 L29.9301919721 23.8219895288 L29.6684118674 23.5602094241 L29.6684118674 23.2984293194 L29.4066317627 23.0366492147 L29.4066317627 22.7748691099 L29.1448516579 22.5130890052 L29.1448516579 22.2513089005 L28.8830715532 21.9895287958 L28.8830715532 21.7277486911 L28.7085514834 21.5532286213 28.6212914485 21.5532286213 " stroke="black" fill="transparent"/>
<path d="M74.9563699825 30.1047120419 L74.9563699825 30.2792321117 L74.6945898778 30.5410122164 L74.6945898778 31.0645724258 L74.4328097731 31.3263525305 L74.4328097731 31.84991274 L74.1710296684 32.1116928447 L74.1710296684 32.3734729494 L73.9092495637 32.6352530541 L73.9092495637 33.1588132635 L73.647469459 33.4205933682 L73.647469459 33.9441535777 L73.3856893543 34.2059336824 L73.647469459 34.4677137871 L73.647469459 34.7294938918 L73.9092495637 34.9912739965 L73.9092495637 35.5148342059 L74.1710296684 35.7766143106 L74.1710296684 36.0383944154 L74.4328097731 36.3001745201 L74.4328097731 36.8237347295 L74.6945898778 37.0855148342 L74.6945898778 37.3472949389 L74.9563699825 37.6090750436 L74.9563699825 38.1326352531 L75.2181500873 38.3944153578 L75.2181500873 38.6561954625 L75.479930192 38.9179755672 L75.479930192 39.1797556719 L75.6544502618 39.3542757417 L75.7417102967 39.3542757417 L78.0104712042 37.0855148342 L78.0104712042 36.8237347295 L79.057591623 35.7766143106 L79.057591623 35.5148342059 L79.4066317627 35.1657940663 L79.4066317627 35.0785340314 L78.5340314136 34.2059336824 L78.5340314136 33.9441535777 L76.9633507853 32.3734729494 L76.9633507853 32.1116928447 74.9563699825 30.1047120419 " stroke="black" fill="transparent"/>
<path d="M27.7486910995 26.9633507853 L23.9092495637 30.8027923211 L23.9092495637 31.0645724258 L22.6003490401 32.3734729494 L22.6003490401 32.6352530541 L21.815008726 33.4205933682 L21.815008726 33.6823734729 L21.0296684119 34.4677137871 L21.0296684119 34.9912739965 L21.5532286213 35.5148342059 L21.5532286213 35.7766143106 L22.6003490401 36.8237347295 L22.6003490401 37.0855148342 L23.9092495637 38.3944153578 L23.9092495637 38.6561954625 L28.7085514834 43.4554973822 L28.9703315881 43.4554973822 L29.057591623 43.5427574171 L29.057591623 43.1064572426 L29.3193717277 42.8446771379 L29.3193717277 42.3211169284 L29.5811518325 42.0593368237 L29.5811518325 41.797556719 L29.8429319372 41.5357766143 L29.8429319372 41.0122164049 L30.1047120419 40.7504363002 L30.1047120419 40.2268760908 L30.3664921466 39.965095986 L30.3664921466 39.7033158813 L30.6282722513 39.4415357766 L30.6282722513 38.9179755672 L30.890052356 38.6561954625 L30.890052356 38.1326352531 L31.1518324607 37.8708551483 L31.1518324607 37.3472949389 L31.4136125654 37.0855148342 L31.4136125654 36.5619546248 L31.6753926702 36.3001745201 L31.4136125654 36.0383944154 L31.4136125654 35.5148342059 L31.1518324607 35.2530541012 L31.1518324607 34.9912739965 L30.890052356 34.7294938918 L30.890052356 34.2059336824 L30.6282722513 33.9441535777 L30.6282722513 33.6823734729 L30.3664921466 33.4205933682 L30.3664921466 33.1588132635 L30.1047120419 32.8970331588 L30.1047120419 32.3734729494 L29.8429319372 32.1116928447 L29.8429319372 31.84991274 L29.5811518325 31.5881326353 L29.5811518325 31.0645724258 L29.3193717277 30.8027923211 L29.3193717277 30.5410122164 L29.057591623 30.2792321117 L29.057591623 30.017452007 L28.7958115183 29.7556719023 L28.7958115183 29.2321116928 L28.5340314136 28.9703315881 L28.5340314136 28.7085514834 L28.2722513089 28.4467713787 L28.2722513089 28.184991274 L28.0104712042 27.9232111693 L28.0104712042 27.6614310646 L27.7486910995 27.3996509599 27.7486910995 26.9633507853 " stroke="black" fill="transparent"/>
<path d="M26.7888307155 32.9842931937 L26.4397905759 33.3333333333 L26.4397905759 33.595113438 L25.3054101222 34.7294938918 L25.3054101222 34.8167539267 L26.4397905759 35.9511343805 L26.4397905759 36.2129144852 L27.8359511344 37.6090750436 L27.9232111693 37.5218150087 L27.9232111693 37.260034904 L28.184991274 36.9982547993 L28.184991274 36.2129144852 L27.9232111693 35.9511343805 L27.9232111693 35.6893542757 L27.6614310646 35.427574171 L27.6614310646 34.9040139616 L27.3996509599 34.6422338569 L27.3996509599 34.3804537522 L27.1378708551 34.1186736475 L27.1378708551 33.595113438 L26.8760907504 33.3333333333 L26.8760907504 33.0715532286 26.7888307155 32.9842931937 " stroke="black" fill="transparent"/>
</svg>