<svg width="1000.0mm" height="601.7609210971893mm" xmlns="http://www.w3.org/2000/svg" fill="transparent" ><path d="M305.564962185 90.5294051247 L305.564962185 171.464047861 L305.226323513 171.802686533 L304.210407495 171.802686533 L304.041088159 171.97200587 L303.194491478 171.97200587 L303.025172141 172.141325206 L302.347894796 172.141325206 L302.17857546 172.310644542 L301.331978779 172.310644542 L301.162659442 172.479963879 L300.654701434 172.479963879 L300.485382097 172.649283215 L299.808104752 172.649283215 L299.638785416 172.818602551 L299.130827407 172.818602551 L298.961508071 172.987921887 L298.453550062 172.987921887 L298.284230726 173.157241224 L297.776272717 173.157241224 L297.606953381 173.32656056 L297.098995372 173.32656056 L296.929676036 173.495879896 L296.421718027 173.495879896 L296.252398691 173.665199232 L295.913760018 173.665199232 L295.744440682 173.834518569 L295.405802009 173.834518569 L295.236482673 174.003837905 L294.728524664 174.003837905 L294.559205328 174.173157241 L294.220566655 174.173157241 L294.051247319 174.342476577 L293.712608647 174.342476577 L293.54328931 174.511795914 L293.204650638 174.511795914 L293.035331302 174.68111525 L292.696692629 174.68111525 L292.527373293 174.850434586 L292.18873462 174.850434586 L292.019415284 175.019753923 L291.680776611 175.019753923 L291.511457275 175.189073259 L291.342137939 175.189073259 L291.172818603 175.358392595 L290.83417993 175.358392595 L290.664860594 175.527711931 L290.326221921 175.527711931 L290.156902585 175.697031268 L289.987583249 175.697031268 L289.818263912 175.866350604 L289.47962524 175.866350604 L289.310305904 176.03566994 L289.140986567 176.03566994 L288.971667231 176.204989276 L288.633028559 176.204989276 L288.463709222 176.374308613 L288.294389886 176.374308613 L288.12507055 176.543627949 L287.786431877 176.543627949 L287.617112541 176.712947285 L287.278473868 176.712947285 L287.109154532 176.543627949 L282.876171125 176.543627949 L282.706851789 176.374308613 L278.643187719 176.374308613 L278.473868382 176.204989276 L274.410204312 176.204989276 L274.240884976 176.03566994 L263.743086127 176.03566994 L263.573766791 176.204989276 L261.372615419 176.204989276 L261.203296083 176.374308613 L259.679422057 176.374308613 L259.51010272 176.543627949 L258.15554803 176.543627949 L257.986228694 176.712947285 L256.80099334 176.712947285 L256.631674004 176.882266622 L255.44643865 176.882266622 L255.277119314 177.051585958 L254.430522632 177.051585958 L254.261203296 177.220905294 L253.245287278 177.220905294 L253.075967942 177.39022463 L252.398690597 177.39022463 L252.229371261 177.559543967 L251.38277458 177.559543967 L251.213455243 177.728863303 L250.536177898 177.728863303 L250.366858562 177.898182639 L249.520261881 177.898182639 L249.350942544 178.067501975 L248.842984536 178.067501975 L248.673665199 178.236821312 L247.996387854 178.236821312 L247.827068518 178.406140648 L247.149791173 178.406140648 L246.980471837 178.575459984 L246.472513828 178.575459984 L246.303194491 178.74477932 L245.625917146 178.74477932 L245.45659781 178.914098657 L244.948639801 178.914098657 L244.779320465 179.083417993 L244.271362456 179.083417993 L244.10204312 179.252737329 L243.594085111 179.252737329 L243.424765775 179.422056666 L242.916807766 179.422056666 L242.74748843 179.591376002 L242.239530421 179.591376002 L242.070211085 179.760695338 L241.731572412 179.760695338 L241.562253076 179.930014674 L241.054295067 179.930014674 L240.884975731 180.099334011 L240.377017722 180.099334011 L240.207698386 180.268653347 L239.869059713 180.268653347 L239.699740377 180.437972683 L239.191782368 180.437972683 L239.022463032 180.607292019 L238.683824359 180.607292019 L238.514505023 180.776611356 L238.006547014 180.776611356 L237.837227678 180.945930692 L237.498589006 180.945930692 L237.329269669 181.115250028 L236.990630997 181.115250028 L236.82131166 181.284569364 L236.482672988 181.284569364 L236.313353652 181.453888701 L235.974714979 181.453888701 L235.805395643 181.623208037 L235.297437634 181.623208037 L235.128118298 181.792527373 L234.789479625 181.792527373 L234.620160289 181.96184671 L234.281521616 181.96184671 L234.11220228 182.131166046 L233.773563608 182.131166046 L233.604244271 182.300485382 L233.265605599 182.300485382 L233.096286263 182.469804718 L232.926966926 182.469804718 L232.75764759 182.639124055 L232.419008917 182.639124055 L232.249689581 182.808443391 L231.911050909 182.808443391 L231.741731572 182.977762727 L231.4030929 182.977762727 L231.233773564 183.147082063 L230.895134891 183.147082063 L230.725815555 183.3164014 L230.556496219 183.3164014 L230.387176882 183.485720736 L230.04853821 183.485720736 L229.879218873 183.655040072 L229.540580201 183.655040072 L229.371260865 183.824359409 L229.201941528 183.824359409 L229.032622192 183.993678745 L228.69398352 183.993678745 L228.524664183 184.162998081 L228.186025511 184.162998081 L228.016706175 184.332317417 L227.847386838 184.332317417 L227.678067502 184.501636754 L227.339428829 184.501636754 L227.170109493 184.67095609 L227.000790157 184.67095609 L226.831470821 184.840275426 L226.492832148 184.840275426 L226.323512812 185.009594762 L226.154193476 185.009594762 L225.984874139 185.178914099 L225.646235467 185.178914099 L225.47691613 185.348233435 L225.307596794 185.348233435 L225.138277458 185.517552771 L224.799638785 185.517552771 L224.630319449 185.686872107 L224.461000113 185.686872107 L224.291680777 185.856191444 L224.12236144 185.856191444 L223.953042104 186.02551078 L223.614403432 186.02551078 L223.445084095 186.194830116 L223.275764759 186.194830116 L223.106445423 186.364149453 L222.937126086 186.364149453 L222.76780675 186.533468789 L222.429168078 186.533468789 L222.259848741 186.702788125 L222.090529405 186.702788125 L221.921210069 186.872107461 L221.751890733 186.872107461 L221.582571396 187.041426798 L221.41325206 187.041426798 L221.243932724 187.210746134 L221.074613388 187.210746134 L220.905294051 187.38006547 L220.566655379 187.38006547 L220.397336042 187.549384806 L220.228016706 187.549384806 L220.05869737 187.718704143 L219.889378034 187.718704143 L219.720058697 187.888023479 L219.550739361 187.888023479 L219.381420025 188.057342815 L219.212100689 188.057342815 L219.042781352 188.226662151 L218.873462016 188.226662151 L218.70414268 188.395981488 L218.534823343 188.395981488 L218.365504007 188.565300824 L218.026865335 188.565300824 L217.857545998 188.73462016 L217.688226662 188.73462016 L217.518907326 188.903939497 L217.34958799 188.903939497 L217.180268653 189.073258833 L217.010949317 189.073258833 L216.841629981 189.242578169 L216.672310645 189.242578169 L216.502991308 189.411897505 L216.333671972 189.411897505 L216.164352636 189.581216842 L215.995033299 189.581216842 L215.825713963 189.750536178 L215.656394627 189.750536178 L215.487075291 189.919855514 L215.317755954 189.919855514 L215.148436618 190.08917485 L214.979117282 190.08917485 L214.809797946 190.258494187 L214.640478609 190.258494187 L214.301839937 190.597132859 L214.132520601 190.597132859 L213.963201264 190.766452196 L213.793881928 190.766452196 L213.624562592 190.935771532 L213.455243255 190.935771532 L213.285923919 191.105090868 L213.116604583 191.105090868 L212.947285247 191.274410204 L212.77796591 191.274410204 L212.608646574 191.443729541 L212.439327238 191.443729541 L212.270007902 191.613048877 L212.100688565 191.613048877 L211.762049893 191.951687549 L211.592730556 191.951687549 L211.42341122 192.121006886 L211.254091884 192.121006886 L211.084772548 192.290326222 L210.915453211 192.290326222 L210.746133875 192.459645558 L210.576814539 192.459645558 L210.238175866 192.798284231 L210.06885653 192.798284231 L209.899537194 192.967603567 L209.730217858 192.967603567 L209.560898521 193.136922903 L209.391579185 193.136922903 L209.052940512 193.475561576 L208.883621176 193.475561576 L208.71430184 193.644880912 L208.544982504 193.644880912 L208.206343831 193.983519585 L208.037024495 193.983519585 L207.867705159 194.152838921 L207.698385822 194.152838921 L207.35974715 194.491477593 L207.190427814 194.491477593 L207.021108477 194.66079693 L206.851789141 194.66079693 L206.513150468 194.999435602 L206.343831132 194.999435602 L206.174511796 195.168754938 L206.00519246 195.168754938 L205.666553787 195.507393611 L205.497234451 195.507393611 L205.327915115 195.676712947 L205.158595778 195.676712947 L204.819957106 196.01535162 L204.650637769 196.01535162 L204.311999097 196.353990292 L204.142679761 196.353990292 L203.804041088 196.692628965 L203.634721752 196.692628965 L203.296083079 197.031267637 L203.126763743 197.031267637 L202.788125071 197.36990631 L202.618805734 197.36990631 L202.280167062 197.708544983 L202.110847725 197.708544983 L201.772209053 198.047183655 L201.602889717 198.047183655 L201.264251044 198.385822328 L201.094931708 198.385822328 L200.756293035 198.724461 L200.586973699 198.724461 L200.248335027 199.063099673 L200.07901569 199.063099673 L199.571057681 199.571057681 L199.401738345 199.571057681 L199.063099673 199.909696354 L198.893780336 199.909696354 L198.385822328 200.417654363 L198.216502991 200.417654363 L197.877864319 200.756293035 L197.708544983 200.756293035 L197.200586974 201.264251044 L197.031267637 201.264251044 L196.523309629 201.772209053 L196.353990292 201.772209053 L195.846032284 202.280167062 L195.676712947 202.280167062 L194.999435602 202.957444407 L194.830116266 202.957444407 L194.322158257 203.465402416 L194.152838921 203.465402416 L193.475561576 204.142679761 L193.30624224 204.142679761 L192.459645558 204.989276442 L192.290326222 204.989276442 L191.443729541 205.835873123 L191.274410204 205.835873123 L190.258494187 206.851789141 L190.08917485 206.851789141 L188.903939497 208.037024495 L188.73462016 208.037024495 L187.041426798 209.730217858 L186.872107461 209.730217858 L181.453888701 215.148436618 L181.453888701 215.317755954 L179.760695338 217.010949317 L179.760695338 217.180268653 L178.575459984 218.365504007 L178.575459984 218.534823343 L177.559543967 219.550739361 L177.559543967 219.720058697 L176.882266622 220.397336042 L176.882266622 220.566655379 L176.204989276 221.243932724 L176.204989276 221.41325206 L175.527711931 222.090529405 L175.527711931 222.259848741 L174.850434586 222.937126086 L174.850434586 223.106445423 L174.342476577 223.614403432 L174.342476577 223.783722768 L173.834518569 224.291680777 L173.834518569 224.461000113 L173.32656056 224.968958122 L173.32656056 225.138277458 L172.987921887 225.47691613 L172.987921887 225.646235467 L172.479963879 226.154193476 L172.479963879 226.323512812 L172.141325206 226.662151484 L172.141325206 226.831470821 L171.802686533 227.170109493 L171.802686533 227.339428829 L171.294728525 227.847386838 L171.294728525 228.016706175 L170.956089852 228.355344847 L170.956089852 228.524664183 L170.61745118 228.863302856 L170.61745118 229.032622192 L170.278812507 229.371260865 L170.278812507 229.540580201 L170.109493171 229.709899537 L170.109493171 229.879218873 L169.770854498 230.217857546 L169.770854498 230.387176882 L169.432215826 230.725815555 L169.432215826 230.895134891 L169.093577153 231.233773564 L169.093577153 231.4030929 L168.924257817 231.572412236 L168.924257817 231.741731572 L168.585619144 232.080370245 L168.585619144 232.249689581 L168.416299808 232.419008917 L168.416299808 232.588328254 L168.077661136 232.926966926 L168.077661136 233.096286263 L167.908341799 233.265605599 L167.908341799 233.434924935 L167.569703127 233.773563608 L167.569703127 233.942882944 L167.40038379 234.11220228 L167.40038379 234.281521616 L167.231064454 234.450840953 L167.231064454 234.620160289 L166.892425782 234.958798962 L166.892425782 235.128118298 L166.723106445 235.297437634 L166.723106445 235.46675697 L166.553787109 235.636076307 L166.553787109 235.805395643 L166.384467773 235.974714979 L166.384467773 236.144034315 L166.0458291 236.482672988 L166.0458291 236.651992324 L165.876509764 236.82131166 L165.876509764 236.990630997 L165.707190428 237.159950333 L165.707190428 237.329269669 L165.537871092 237.498589006 L165.537871092 237.667908342 L165.368551755 237.837227678 L165.368551755 238.006547014 L165.199232419 238.175866351 L165.199232419 238.345185687 L165.029913083 238.514505023 L165.029913083 238.683824359 L164.860593746 238.853143696 L164.860593746 239.022463032 L164.69127441 239.191782368 L164.69127441 239.361101704 L164.521955074 239.530421041 L164.521955074 239.699740377 L164.352635738 239.869059713 L164.352635738 240.03837905 L164.183316401 240.207698386 L164.183316401 240.377017722 L164.013997065 240.546337058 L164.013997065 240.715656395 L163.844677729 240.884975731 L163.844677729 241.054295067 L163.675358393 241.223614403 L163.675358393 241.39293374 L163.506039056 241.562253076 L163.506039056 241.731572412 L163.33671972 241.900891749 L163.33671972 242.070211085 L163.167400384 242.239530421 L163.167400384 242.408849757 L162.998081048 242.578169094 L162.998081048 242.916807766 L162.828761711 243.086127102 L162.828761711 243.255446439 L162.659442375 243.424765775 L162.659442375 243.594085111 L162.490123039 243.763404447 L162.490123039 243.932723784 L162.320803702 244.10204312 L162.320803702 244.440681793 L162.151484366 244.610001129 L162.151484366 244.779320465 L161.98216503 244.948639801 L161.98216503 245.117959138 L161.812845694 245.287278474 L161.812845694 245.625917146 L161.643526357 245.795236483 L161.643526357 245.964555819 L161.474207021 246.133875155 L161.474207021 246.472513828 L161.304887685 246.641833164 L161.304887685 246.8111525 L161.135568349 246.980471837 L161.135568349 247.319110509 L160.966249012 247.488429845 L160.966249012 247.657749182 L160.796929676 247.827068518 L160.796929676 248.16570719 L160.62761034 248.335026527 L160.62761034 248.673665199 L160.458291003 248.842984536 L160.458291003 249.012303872 L160.288971667 249.181623208 L160.288971667 249.520261881 L160.119652331 249.689581217 L160.119652331 250.028219889 L159.950332995 250.197539226 L159.950332995 250.536177898 L159.781013658 250.705497234 L159.781013658 250.874816571 L159.611694322 251.044135907 L159.611694322 251.38277458 L159.442374986 251.552093916 L159.442374986 251.890732588 L159.27305565 252.060051925 L159.27305565 252.398690597 L159.103736313 252.568009933 L159.103736313 252.906648606 L158.934416977 253.075967942 L158.934416977 253.583925951 L158.765097641 253.753245287 L158.765097641 254.09188396 L158.595778305 254.261203296 L158.595778305 254.599841969 L158.426458968 254.769161305 L158.426458968 255.107799977 L158.257139632 255.277119314 L158.257139632 255.785077322 L158.087820296 255.954396659 L158.087820296 256.293035331 L157.918500959 256.462354668 L157.918500959 256.970312676 L157.749181623 257.139632013 L157.749181623 257.647590021 L157.579862287 257.816909358 L157.579862287 258.324867367 L157.410542951 258.494186703 L157.410542951 258.832825375 L157.241223614 259.002144712 L157.241223614 259.679422057 L157.071904278 259.848741393 L157.071904278 260.356699402 L156.902584942 260.526018738 L156.902584942 261.033976747 L156.733265606 261.203296083 L156.733265606 261.880573428 L156.563946269 262.049892764 L156.563946269 262.557850773 L156.394626933 262.727170109 L156.394626933 263.404447455 L156.225307597 263.573766791 L156.225307597 264.251044136 L156.055988261 264.420363472 L156.055988261 265.266960154 L155.886668924 265.43627949 L155.886668924 266.282876171 L155.717349588 266.452195507 L155.717349588 267.298792189 L155.548030252 267.468111525 L155.548030252 268.314708206 L155.378710915 268.484027543 L155.378710915 269.669262896 L155.209391579 269.838582233 L155.209391579 271.023817587 L155.040072243 271.193136923 L155.040072243 272.547691613 L154.870752907 272.717010949 L154.870752907 274.410204312 L154.70143357 274.579523648 L154.70143357 276.78067502 L154.532114234 276.949994356 L154.532114234 288.12507055 L154.70143357 288.294389886 L154.70143357 290.664860594 L154.870752907 290.83417993 L154.870752907 292.527373293 L155.040072243 292.696692629 L155.040072243 294.220566655 L155.209391579 294.389885992 L155.209391579 295.575121346 L155.378710915 295.744440682 L155.378710915 296.929676036 L155.548030252 297.098995372 L155.548030252 297.945592053 L155.717349588 298.11491139 L155.717349588 299.130827407 L155.886668924 299.300146743 L155.886668924 300.146743425 L156.055988261 300.316062761 L156.055988261 300.993340106 L156.225307597 301.162659442 L156.225307597 301.839936787 L156.394626933 302.009256124 L156.394626933 302.855852805 L156.563946269 303.025172141 L156.563946269 303.53313015 L156.733265606 303.702449486 L156.733265606 304.379726831 L156.902584942 304.549046168 L156.902584942 305.226323513 L157.071904278 305.395642849 L157.071904278 305.903600858 L157.241223614 306.072920194 L157.241223614 306.580878203 L157.410542951 306.750197539 L157.410542951 307.258155548 L157.579862287 307.427474884 L157.579862287 307.935432893 L157.749181623 308.104752229 L157.749181623 308.612710238 L157.918500959 308.782029574 L157.918500959 309.289987583 L158.087820296 309.45930692 L158.087820296 309.797945592 L158.257139632 309.967264928 L158.257139632 310.475222937 L158.426458968 310.644542273 L158.426458968 310.983180946 L158.595778305 311.152500282 L158.595778305 311.491138955 L158.426458968 311.660458291 L154.532114234 311.660458291 L154.532114234 601.760921097 L787.278473868 601.760921097 L787.278473868 435.940851112 L787.447793205 435.771531776 L835.365165369 435.771531776 L835.365165369 224.12236144 L834.179930015 224.12236144 L834.010610678 223.953042104 L834.179930015 223.783722768 L834.179930015 222.598487414 L834.349249351 222.429168078 L834.349249351 221.074613388 L834.518568687 220.905294051 L834.518568687 219.381420025 L834.687888023 219.212100689 L834.687888023 217.688226662 L834.85720736 217.518907326 L834.85720736 215.487075291 L835.026526696 215.317755954 L835.026526696 212.947285247 L835.195846032 212.77796591 L835.195846032 209.560898521 L835.365165369 209.391579185 L835.365165369 196.353990292 L835.195846032 196.184670956 L835.195846032 192.798284231 L835.026526696 192.628964894 L835.026526696 190.258494187 L834.85720736 190.08917485 L834.85720736 188.226662151 L834.687888023 188.057342815 L834.687888023 186.364149453 L834.518568687 186.194830116 L834.518568687 184.67095609 L834.349249351 184.501636754 L834.349249351 183.3164014 L834.179930015 183.147082063 L834.179930015 181.96184671 L834.010610678 181.792527373 L834.010610678 180.607292019 L833.841291342 180.437972683 L833.841291342 179.422056666 L833.671972006 179.252737329 L833.671972006 178.236821312 L833.50265267 178.067501975 L833.50265267 177.220905294 L833.333333333 177.051585958 L833.333333333 176.204989276 L833.164013997 176.03566994 L833.164013997 175.189073259 L832.994694661 175.019753923 L832.994694661 174.173157241 L832.825375325 174.003837905 L832.825375325 173.32656056 L832.656055988 173.157241224 L832.656055988 172.310644542 L832.486736652 172.141325206 L832.486736652 171.464047861 L832.317417316 171.294728525 L832.317417316 170.61745118 L832.148097979 170.448131843 L832.148097979 169.940173835 L831.978778643 169.770854498 L831.978778643 169.093577153 L831.809459307 168.924257817 L831.809459307 168.246980472 L831.640139971 168.077661136 L831.640139971 167.569703127 L831.470820634 167.40038379 L831.470820634 166.892425782 L831.301501298 166.723106445 L831.301501298 166.215148437 L831.132181962 166.0458291 L831.132181962 165.368551755 L830.962862626 165.199232419 L830.962862626 164.69127441 L830.793543289 164.521955074 L830.793543289 164.013997065 L830.624223953 163.844677729 L830.624223953 163.506039056 L830.454904617 163.33671972 L830.454904617 162.828761711 L830.285585281 162.659442375 L830.285585281 162.151484366 L830.116265944 161.98216503 L830.116265944 161.643526357 L829.946946608 161.474207021 L829.946946608 160.966249012 L829.777627272 160.796929676 L829.777627272 160.288971667 L829.608307935 160.119652331 L829.608307935 159.781013658 L829.438988599 159.611694322 L829.438988599 159.27305565 L829.269669263 159.103736313 L829.269669263 158.595778305 L829.100349927 158.426458968 L829.100349927 158.087820296 L828.93103059 157.918500959 L828.93103059 157.579862287 L828.761711254 157.410542951 L828.761711254 157.071904278 L828.592391918 156.902584942 L828.592391918 156.563946269 L828.423072582 156.394626933 L828.423072582 156.055988261 L828.253753245 155.886668924 L828.253753245 155.378710915 L828.084433909 155.209391579 L828.084433909 155.040072243 L827.915114573 154.870752907 L827.915114573 154.532114234 L827.745795236 154.362794898 L827.745795236 154.024156225 L827.5764759 153.854836889 L827.5764759 153.516198217 L827.407156564 153.34687888 L827.407156564 153.008240208 L827.237837228 152.838920871 L827.237837228 152.500282199 L827.068517891 152.330962863 L827.068517891 151.99232419 L826.899198555 151.823004854 L826.899198555 151.653685518 L826.729879219 151.484366181 L826.729879219 151.145727509 L826.560559883 150.976408172 L826.560559883 150.6377695 L826.391240546 150.468450164 L826.391240546 150.299130827 L826.22192121 150.129811491 L826.22192121 149.791172819 L826.052601874 149.621853482 L826.052601874 149.452534146 L825.883282538 149.28321481 L825.883282538 148.944576137 L825.713963201 148.775256801 L825.713963201 148.605937465 L825.544643865 148.436618128 L825.544643865 148.097979456 L825.375324529 147.92866012 L825.375324529 147.759340783 L825.206005192 147.590021447 L825.206005192 147.251382775 L825.036685856 147.082063438 L825.036685856 146.912744102 L824.86736652 146.743424766 L824.86736652 146.57410543 L824.698047184 146.404786093 L824.698047184 146.066147421 L824.528727847 145.896828084 L824.528727847 145.727508748 L824.359408511 145.558189412 L824.359408511 145.388870076 L824.190089175 145.219550739 L824.190089175 144.880912067 L824.020769839 144.711592731 L824.020769839 144.542273394 L823.851450502 144.372954058 L823.851450502 144.203634722 L823.682131166 144.034315385 L823.682131166 143.864996049 L823.51281183 143.695676713 L823.51281183 143.526357377 L823.343492494 143.35703804 L823.343492494 143.187718704 L823.174173157 143.018399368 L823.174173157 142.679760695 L823.004853821 142.510441359 L823.004853821 142.341122023 L822.835534485 142.171802687 L822.835534485 142.00248335 L822.666215148 141.833164014 L822.666215148 141.663844678 L822.496895812 141.494525341 L822.496895812 141.325206005 L822.327576476 141.155886669 L822.327576476 140.986567333 L822.15825714 140.817247996 L822.15825714 140.64792866 L821.988937803 140.478609324 L821.988937803 140.309289988 L821.819618467 140.139970651 L821.819618467 139.970651315 L821.650299131 139.801331979 L821.650299131 139.632012643 L821.480979795 139.462693306 L821.480979795 139.29337397 L821.311660458 139.124054634 L821.311660458 138.954735297 L821.142341122 138.785415961 L821.142341122 138.616096625 L820.973021786 138.446777289 L820.973021786 138.277457952 L820.803702449 138.108138616 L820.803702449 137.93881928 L820.465063777 137.600180607 L820.465063777 137.430861271 L820.295744441 137.261541935 L820.295744441 137.092222598 L820.126425104 136.922903262 L820.126425104 136.753583926 L819.957105768 136.58426459 L819.957105768 136.414945253 L819.787786432 136.245625917 L819.787786432 136.076306581 L819.449147759 135.737667908 L819.449147759 135.568348572 L819.279828423 135.399029236 L819.279828423 135.2297099 L819.110509087 135.060390563 L819.110509087 134.891071227 L818.771870414 134.552432554 L818.771870414 134.383113218 L818.602551078 134.213793882 L818.602551078 134.044474546 L818.263912405 133.705835873 L818.263912405 133.536516537 L818.094593069 133.367197201 L818.094593069 133.197877864 L817.755954397 132.859239192 L817.755954397 132.689919856 L817.58663506 132.520600519 L817.58663506 132.351281183 L817.247996388 132.01264251 L817.247996388 131.843323174 L817.078677052 131.674003838 L817.078677052 131.504684502 L816.740038379 131.166045829 L816.740038379 130.996726493 L816.401399707 130.65808782 L816.401399707 130.488768484 L816.062761034 130.150129811 L816.062761034 129.980810475 L815.724122361 129.642171803 L815.724122361 129.472852466 L815.385483689 129.134213794 L815.385483689 128.964894458 L815.046845016 128.626255785 L815.046845016 128.456936449 L814.708206344 128.118297776 L814.708206344 127.94897844 L814.369567671 127.610339767 L814.369567671 127.441020431 L814.030928999 127.102381759 L814.030928999 126.933062422 L813.52297099 126.425104414 L813.52297099 126.255785077 L813.184332317 125.917146405 L813.184332317 125.747827069 L812.676374309 125.23986906 L812.676374309 125.070549723 L812.1684163 124.562591715 L812.1684163 124.393272378 L811.660458291 123.88531437 L811.660458291 123.715995033 L810.983180946 123.038717688 L810.983180946 122.869398352 L810.305903601 122.192121007 L810.305903601 122.022801671 L809.628626256 121.345524326 L809.628626256 121.176204989 L808.612710238 120.160288972 L808.612710238 119.990969635 L807.596794221 118.975053618 L807.596794221 118.805734282 L805.903600858 117.112540919 L805.903600858 116.943221583 L801.839936787 112.879557512 L801.670617451 112.879557512 L799.977424088 111.186364149 L799.808104752 111.186364149 L798.622869398 110.001128796 L798.453550062 110.001128796 L797.606953381 109.154532114 L797.437634044 109.154532114 L796.760356699 108.477254769 L796.591037363 108.477254769 L795.913760018 107.799977424 L795.744440682 107.799977424 L795.236482673 107.292019415 L795.067163337 107.292019415 L794.559205328 106.784061406 L794.389885992 106.784061406 L793.881927983 106.276103398 L793.712608647 106.276103398 L793.204650638 105.768145389 L793.035331302 105.768145389 L792.696692629 105.429506716 L792.527373293 105.429506716 L792.019415284 104.921548708 L791.850095948 104.921548708 L791.511457275 104.582910035 L791.342137939 104.582910035 L791.003499266 104.244271362 L790.83417993 104.244271362 L790.495541257 103.90563269 L790.326221921 103.90563269 L789.987583249 103.566994017 L789.818263912 103.566994017 L789.47962524 103.228355345 L789.310305904 103.228355345 L788.971667231 102.889716672 L788.802347895 102.889716672 L788.633028559 102.720397336 L788.463709222 102.720397336 L788.12507055 102.381758664 L787.955751213 102.381758664 L787.786431877 102.212439327 L787.617112541 102.212439327 L787.278473868 101.873800655 L787.109154532 101.873800655 L786.939835196 101.704481318 L786.77051586 101.704481318 L786.431877187 101.365842646 L786.262557851 101.365842646 L786.093238515 101.19652331 L785.923919178 101.19652331 L785.585280506 100.857884637 L785.415961169 100.857884637 L785.246641833 100.688565301 L785.077322497 100.688565301 L784.908003161 100.519245965 L784.738683824 100.519245965 L784.569364488 100.349926628 L784.400045152 100.349926628 L784.061406479 100.011287956 L783.892087143 100.011287956 L783.722767807 99.8419686195 L783.55344847 99.8419686195 L783.384129134 99.6726492832 L783.214809798 99.6726492832 L783.045490462 99.5033299469 L782.876171125 99.5033299469 L782.706851789 99.3340106107 L782.537532453 99.3340106107 L782.368213117 99.1646912744 L782.19889378 99.1646912744 L782.029574444 98.9953719381 L781.860255108 98.9953719381 L781.690935772 98.8260526019 L781.521616435 98.8260526019 L781.352297099 98.6567332656 L781.182977763 98.6567332656 L781.013658426 98.4874139293 L780.84433909 98.4874139293 L780.675019754 98.3180945931 L780.505700418 98.3180945931 L780.336381081 98.1487752568 L780.167061745 98.1487752568 L779.997742409 97.9794559205 L779.828423073 97.9794559205 L779.659103736 97.8101365843 L779.4897844 97.8101365843 L779.320465064 97.640817248 L779.151145728 97.640817248 L778.981826391 97.4714979117 L778.643187719 97.4714979117 L778.473868382 97.3021785755 L778.304549046 97.3021785755 L778.13522971 97.1328592392 L777.965910374 97.1328592392 L777.796591037 96.9635399029 L777.627271701 96.9635399029 L777.457952365 96.7942205667 L777.119313692 96.7942205667 L776.949994356 96.6249012304 L776.78067502 96.6249012304 L776.611355683 96.4555818941 L776.442036347 96.4555818941 L776.272717011 96.2862625579 L775.934078338 96.2862625579 L775.764759002 96.1169432216 L775.595439666 96.1169432216 L775.42612033 95.9476238853 L775.087481657 95.9476238853 L774.918162321 95.778304549 L774.748842985 95.778304549 L774.579523648 95.6089852128 L774.240884976 95.6089852128 L774.071565639 95.4396658765 L773.732926967 95.4396658765 L773.563607631 95.2703465402 L773.394288294 95.2703465402 L773.224968958 95.101027204 L772.886330286 95.101027204 L772.717010949 94.9317078677 L772.378372277 94.9317078677 L772.209052941 94.7623885314 L771.870414268 94.7623885314 L771.701094932 94.5930691952 L771.362456259 94.5930691952 L771.193136923 94.4237498589 L770.85449825 94.4237498589 L770.685178914 94.2544305226 L770.346540242 94.2544305226 L770.177220905 94.0851111864 L769.838582233 94.0851111864 L769.669262896 93.9157918501 L769.330624224 93.9157918501 L769.161304888 93.7464725138 L768.822666215 93.7464725138 L768.653346879 93.5771531776 L768.14538887 93.5771531776 L767.976069534 93.4078338413 L767.637430861 93.4078338413 L767.468111525 93.238514505 L766.960153516 93.238514505 L766.79083418 93.0691951688 L766.452195507 93.0691951688 L766.282876171 92.8998758325 L765.774918162 92.8998758325 L765.605598826 92.7305564962 L765.097640817 92.7305564962 L764.928321481 92.56123716 L764.420363472 92.56123716 L764.251044136 92.3919178237 L763.573766791 92.3919178237 L763.404447455 92.2225984874 L762.896489446 92.2225984874 L762.727170109 92.0532791511 L762.049892764 92.0532791511 L761.880573428 91.8839598149 L761.203296083 91.8839598149 L761.033976747 91.7146404786 L760.356699402 91.7146404786 L760.187380065 91.5453211423 L759.340783384 91.5453211423 L759.171464048 91.3760018061 L758.324867367 91.3760018061 L758.15554803 91.2066824698 L757.139632013 91.2066824698 L756.970312676 91.0373631335 L755.785077322 91.0373631335 L755.615757986 90.8680437973 L754.09188396 90.8680437973 L753.922564624 90.698724461 L752.060051925 90.698724461 L751.890732588 90.5294051247 L741.731572412 90.5294051247 L741.562253076 90.698724461 L739.530421041 90.698724461 L739.361101704 90.8680437973 L738.006547014 90.8680437973 L737.837227678 91.0373631335 L736.482672988 91.0373631335 L736.313353652 91.2066824698 L735.297437634 91.2066824698 L735.128118298 91.3760018061 L734.281521616 91.3760018061 L734.11220228 91.5453211423 L733.265605599 91.5453211423 L733.096286263 91.7146404786 L732.419008917 91.7146404786 L732.249689581 91.8839598149 L731.572412236 91.8839598149 L731.4030929 92.0532791511 L730.895134891 92.0532791511 L730.725815555 92.2225984874 L730.04853821 92.2225984874 L729.879218873 92.3919178237 L729.371260865 92.3919178237 L729.201941528 92.56123716 L728.69398352 92.56123716 L728.524664183 92.7305564962 L728.016706175 92.7305564962 L727.847386838 92.8998758325 L727.339428829 92.8998758325 L727.170109493 93.0691951688 L726.831470821 93.0691951688 L726.662151484 93.238514505 L726.154193476 93.238514505 L725.984874139 93.4078338413 L725.646235467 93.4078338413 L725.47691613 93.5771531776 L725.138277458 93.5771531776 L724.968958122 93.7464725138 L724.630319449 93.7464725138 L724.461000113 93.9157918501 L724.12236144 93.9157918501 L723.953042104 94.0851111864 L723.614403432 94.0851111864 L723.445084095 94.2544305226 L723.106445423 94.2544305226 L722.937126086 94.4237498589 L722.598487414 94.4237498589 L722.429168078 94.5930691952 L722.090529405 94.5930691952 L721.921210069 94.7623885314 L721.582571396 94.7623885314 L721.41325206 94.9317078677 L721.243932724 94.9317078677 L721.074613388 95.101027204 L720.735974715 95.101027204 L720.566655379 95.2703465402 L720.397336042 95.2703465402 L720.228016706 95.4396658765 L719.889378034 95.4396658765 L719.720058697 95.6089852128 L719.550739361 95.6089852128 L719.381420025 95.778304549 L719.042781352 95.778304549 L718.873462016 95.9476238853 L718.70414268 95.9476238853 L718.534823343 96.1169432216 L715.656394627 96.1169432216 L715.487075291 95.9476238853 L711.42341122 95.9476238853 L711.254091884 95.778304549 L707.190427814 95.778304549 L707.021108477 95.6089852128 L702.957444407 95.6089852128 L702.788125071 95.4396658765 L696.01535162 95.4396658765 L695.846032284 95.6089852128 L693.136922903 95.6089852128 L692.967603567 95.778304549 L691.105090868 95.778304549 L690.935771532 95.9476238853 L689.411897505 95.9476238853 L689.242578169 96.1169432216 L688.057342815 96.1169432216 L687.888023479 96.2862625579 L686.702788125 96.2862625579 L686.533468789 96.4555818941 L685.517552771 96.4555818941 L685.348233435 96.6249012304 L684.501636754 96.6249012304 L684.332317417 96.7942205667 L683.485720736 96.7942205667 L683.3164014 96.9635399029 L682.469804718 96.9635399029 L682.300485382 97.1328592392 L681.453888701 97.1328592392 L681.284569364 97.3021785755 L680.607292019 97.3021785755 L680.437972683 97.4714979117 L679.760695338 97.4714979117 L679.591376002 97.640817248 L678.914098657 97.640817248 L678.74477932 97.8101365843 L678.236821312 97.8101365843 L678.067501975 97.9794559205 L677.39022463 97.9794559205 L677.220905294 98.1487752568 L676.712947285 98.1487752568 L676.543627949 98.3180945931 L675.866350604 98.3180945931 L675.697031268 98.4874139293 L675.189073259 98.4874139293 L675.019753923 98.6567332656 L674.511795914 98.6567332656 L674.342476577 98.8260526019 L673.834518569 98.8260526019 L673.665199232 98.9953719381 L673.157241224 98.9953719381 L672.987921887 99.1646912744 L672.479963879 99.1646912744 L672.310644542 99.3340106107 L671.97200587 99.3340106107 L671.802686533 99.5033299469 L671.294728525 99.5033299469 L671.125409188 99.6726492832 L670.61745118 99.6726492832 L670.448131843 99.8419686195 L670.109493171 99.8419686195 L669.940173835 100.011287956 L669.432215826 100.011287956 L669.262896489 100.180607292 L668.924257817 100.180607292 L668.754938481 100.349926628 L668.416299808 100.349926628 L668.246980472 100.519245965 L667.739022463 100.519245965 L667.569703127 100.688565301 L667.231064454 100.688565301 L667.061745118 100.857884637 L666.723106445 100.857884637 L666.553787109 101.027203973 L666.215148437 101.027203973 L666.0458291 101.19652331 L665.707190428 101.19652331 L665.537871092 101.365842646 L665.199232419 101.365842646 L665.029913083 101.535161982 L664.69127441 101.535161982 L664.521955074 101.704481318 L664.183316401 101.704481318 L664.013997065 101.873800655 L663.675358393 101.873800655 L663.506039056 102.043119991 L663.167400384 102.043119991 L662.998081048 102.212439327 L662.659442375 102.212439327 L662.490123039 102.381758664 L662.151484366 102.381758664 L661.98216503 102.551078 L661.643526357 102.551078 L661.474207021 102.720397336 L661.135568349 102.720397336 L660.966249012 102.889716672 L660.796929676 102.889716672 L660.62761034 103.059036009 L660.288971667 103.059036009 L660.119652331 103.228355345 L659.781013658 103.228355345 L659.611694322 103.397674681 L659.442374986 103.397674681 L659.27305565 103.566994017 L658.934416977 103.566994017 L658.765097641 103.736313354 L658.595778305 103.736313354 L658.426458968 103.90563269 L658.087820296 103.90563269 L657.918500959 104.074952026 L657.579862287 104.074952026 L657.410542951 104.244271362 L657.241223614 104.244271362 L657.071904278 104.413590699 L656.733265606 104.413590699 L656.563946269 104.582910035 L656.394626933 104.582910035 L656.225307597 104.752229371 L656.055988261 104.752229371 L655.886668924 104.921548708 L655.548030252 104.921548708 L655.378710915 105.090868044 L655.209391579 105.090868044 L655.040072243 105.26018738 L654.70143357 105.26018738 L654.532114234 105.429506716 L654.362794898 105.429506716 L654.193475562 105.598826053 L654.024156225 105.598826053 L653.854836889 105.768145389 L653.516198217 105.768145389 L653.34687888 105.937464725 L653.177559544 105.937464725 L653.008240208 106.106784061 L652.838920871 106.106784061 L652.669601535 106.276103398 L652.500282199 106.276103398 L652.330962863 106.445422734 L651.99232419 106.445422734 L651.823004854 106.61474207 L651.653685518 106.61474207 L651.484366181 106.784061406 L651.315046845 106.784061406 L651.145727509 106.953380743 L650.976408172 106.953380743 L650.807088836 107.122700079 L650.6377695 107.122700079 L650.468450164 107.292019415 L650.299130827 107.292019415 L650.129811491 107.461338752 L649.791172819 107.461338752 L649.621853482 107.630658088 L649.452534146 107.630658088 L649.28321481 107.799977424 L649.113895474 107.799977424 L648.944576137 107.96929676 L648.775256801 107.96929676 L648.605937465 108.138616097 L648.436618128 108.138616097 L648.267298792 108.307935433 L648.097979456 108.307935433 L647.92866012 108.477254769 L647.759340783 108.477254769 L647.590021447 108.646574105 L647.420702111 108.646574105 L647.251382775 108.815893442 L647.082063438 108.815893442 L646.912744102 108.985212778 L646.743424766 108.985212778 L646.57410543 109.154532114 L646.404786093 109.154532114 L646.235466757 109.323851451 L646.066147421 109.323851451 L645.896828084 109.493170787 L645.727508748 109.493170787 L645.558189412 109.662490123 L645.388870076 109.662490123 L645.219550739 109.831809459 L645.050231403 109.831809459 L644.880912067 110.001128796 L644.711592731 110.001128796 L644.372954058 110.339767468 L644.203634722 110.339767468 L644.034315385 110.509086804 L643.864996049 110.509086804 L643.695676713 110.678406141 L643.526357377 110.678406141 L643.35703804 110.847725477 L643.187718704 110.847725477 L643.018399368 111.017044813 L642.849080032 111.017044813 L642.679760695 111.186364149 L642.510441359 111.186364149 L642.171802687 111.525002822 L642.00248335 111.525002822 L641.833164014 111.694322158 L641.663844678 111.694322158 L641.494525341 111.863641495 L641.325206005 111.863641495 L641.155886669 112.032960831 L640.986567333 112.032960831 L640.64792866 112.371599503 L640.478609324 112.371599503 L640.309289988 112.54091884 L640.139970651 112.54091884 L639.801331979 112.879557512 L639.632012643 112.879557512 L639.462693306 113.048876848 L639.29337397 113.048876848 L639.124054634 113.218196185 L638.954735297 113.218196185 L638.616096625 113.556834857 L638.446777289 113.556834857 L638.277457952 113.726154193 L638.108138616 113.726154193 L637.769499944 114.064792866 L637.600180607 114.064792866 L637.430861271 114.234112202 L637.261541935 114.234112202 L636.922903262 114.572750875 L636.753583926 114.572750875 L636.414945253 114.911389547 L636.245625917 114.911389547 L636.076306581 115.080708884 L635.906987245 115.080708884 L635.568348572 115.419347556 L635.399029236 115.419347556 L635.060390563 115.757986229 L634.891071227 115.757986229 L634.552432554 116.096624901 L634.383113218 116.096624901 L634.213793882 116.265944237 L634.044474546 116.265944237 L633.705835873 116.60458291 L633.536516537 116.60458291 L633.197877864 116.943221583 L633.028558528 116.943221583 L632.689919856 117.281860255 L632.520600519 117.281860255 L632.01264251 117.789818264 L631.843323174 117.789818264 L631.504684502 118.128456936 L631.335365165 118.128456936 L631.166045829 118.297776273 L590.868043797 118.297776273 L590.698724461 118.128456936 L590.698724461 90.5294051247 305.564962185 90.5294051247 " stroke="black" fill="transparent"/>
<path d="M975.730895135 0.0564397787561 L975.730895135 0.28219889378 L1000.0 0.28219889378 L1000.0 0.0564397787561 975.730895135 0.0564397787561 " stroke="black" fill="transparent"/>
<path d="M0.0564397787561 0.0564397787561 L0.0564397787561 0.28219889378 L24.3255446439 0.28219889378 L24.3255446439 0.0564397787561 0.0564397787561 0.0564397787561 " stroke="black" fill="transparent"/>
</svg>