<svg width="1000.0mm" height="581.7812394175415mm" xmlns="http://www.w3.org/2000/svg" fill="transparent" ><path d="M325.544643865 110.509086804 L325.544643865 191.613048877 L325.375324529 191.782368213 L325.206005192 191.782368213 L325.036685856 191.613048877 L324.190089175 191.613048877 L324.020769839 191.443729541 L322.835534485 191.443729541 L322.666215148 191.274410204 L321.311660458 191.274410204 L321.142341122 191.105090868 L318.771870414 191.105090868 L318.602551078 190.935771532 L313.52297099 190.935771532 L313.353651654 191.105090868 L310.983180946 191.105090868 L310.81386161 191.274410204 L309.289987583 191.274410204 L309.120668247 191.443729541 L308.104752229 191.443729541 L307.935432893 191.613048877 L306.919516875 191.613048877 L306.750197539 191.782368213 L306.072920194 191.782368213 L305.903600858 191.951687549 L305.226323513 191.951687549 L305.057004177 192.121006886 L304.379726831 192.121006886 L304.210407495 192.290326222 L303.702449486 192.290326222 L303.53313015 192.459645558 L303.025172141 192.459645558 L302.855852805 192.628964894 L302.347894796 192.628964894 L302.17857546 192.798284231 L301.670617451 192.798284231 L301.501298115 192.967603567 L301.162659442 192.967603567 L300.993340106 193.136922903 L300.654701434 193.136922903 L300.485382097 193.30624224 L299.977424088 193.30624224 L299.808104752 193.475561576 L299.46946608 193.475561576 L299.300146743 193.644880912 L298.961508071 193.644880912 L298.792188735 193.814200248 L298.622869398 193.814200248 L298.453550062 193.983519585 L298.11491139 193.983519585 L297.945592053 194.152838921 L297.606953381 194.152838921 L297.437634044 194.322158257 L297.268314708 194.322158257 L297.098995372 194.491477593 L296.760356699 194.491477593 L296.591037363 194.66079693 L296.421718027 194.66079693 L296.252398691 194.830116266 L295.913760018 194.830116266 L295.744440682 194.999435602 L295.575121346 194.999435602 L295.405802009 195.168754938 L295.236482673 195.168754938 L295.067163337 195.338074275 L294.728524664 195.338074275 L294.559205328 195.507393611 L294.389885992 195.507393611 L294.220566655 195.676712947 L294.051247319 195.676712947 L293.881927983 195.846032284 L293.712608647 195.846032284 L293.54328931 196.01535162 L293.373969974 196.01535162 L293.204650638 196.184670956 L293.035331302 196.184670956 L292.866011965 196.353990292 L292.696692629 196.353990292 L292.527373293 196.523309629 L292.358053956 196.523309629 L292.18873462 196.692628965 L292.019415284 196.692628965 L291.850095948 196.861948301 L290.664860594 196.861948301 L290.495541257 196.692628965 L286.431877187 196.692628965 L286.262557851 196.523309629 L282.029574444 196.523309629 L281.860255108 196.353990292 L277.796591037 196.353990292 L277.627271701 196.184670956 L273.563607631 196.184670956 L273.394288294 196.01535162 L264.589682808 196.01535162 L264.420363472 196.184670956 L262.557850773 196.184670956 L262.388531437 196.353990292 L260.864657411 196.353990292 L260.695338074 196.523309629 L259.51010272 196.523309629 L259.340783384 196.692628965 L258.324867367 196.692628965 L258.15554803 196.861948301 L257.139632013 196.861948301 L256.970312676 197.031267637 L256.123715995 197.031267637 L255.954396659 197.200586974 L255.107799977 197.200586974 L254.938480641 197.36990631 L254.261203296 197.36990631 L254.09188396 197.539225646 L253.414606615 197.539225646 L253.245287278 197.708544983 L252.568009933 197.708544983 L252.398690597 197.877864319 L251.721413252 197.877864319 L251.552093916 198.047183655 L251.044135907 198.047183655 L250.874816571 198.216502991 L250.366858562 198.216502991 L250.197539226 198.385822328 L249.520261881 198.385822328 L249.350942544 198.555141664 L248.842984536 198.555141664 L248.673665199 198.724461 L248.16570719 198.724461 L247.996387854 198.893780336 L247.488429845 198.893780336 L247.319110509 199.063099673 L246.980471837 199.063099673 L246.8111525 199.232419009 L246.303194491 199.232419009 L246.133875155 199.401738345 L245.625917146 199.401738345 L245.45659781 199.571057681 L245.117959138 199.571057681 L244.948639801 199.740377018 L244.440681793 199.740377018 L244.271362456 199.909696354 L243.932723784 199.909696354 L243.763404447 200.07901569 L243.424765775 200.07901569 L243.255446439 200.248335027 L242.916807766 200.248335027 L242.74748843 200.417654363 L242.239530421 200.417654363 L242.070211085 200.586973699 L241.731572412 200.586973699 L241.562253076 200.756293035 L241.223614403 200.756293035 L241.054295067 200.925612372 L240.715656395 200.925612372 L240.546337058 201.094931708 L240.207698386 201.094931708 L240.03837905 201.264251044 L239.699740377 201.264251044 L239.530421041 201.43357038 L239.191782368 201.43357038 L239.022463032 201.602889717 L238.853143696 201.602889717 L238.683824359 201.772209053 L238.345185687 201.772209053 L238.175866351 201.941528389 L237.837227678 201.941528389 L237.667908342 202.110847725 L237.329269669 202.110847725 L237.159950333 202.280167062 L236.82131166 202.280167062 L236.651992324 202.449486398 L236.482672988 202.449486398 L236.313353652 202.618805734 L235.974714979 202.618805734 L235.805395643 202.788125071 L235.636076307 202.788125071 L235.46675697 202.957444407 L235.128118298 202.957444407 L234.958798962 203.126763743 L234.620160289 203.126763743 L234.450840953 203.296083079 L234.281521616 203.296083079 L234.11220228 203.465402416 L233.773563608 203.465402416 L233.604244271 203.634721752 L233.434924935 203.634721752 L233.265605599 203.804041088 L233.096286263 203.804041088 L232.926966926 203.973360424 L232.588328254 203.973360424 L232.419008917 204.142679761 L232.249689581 204.142679761 L232.080370245 204.311999097 L231.741731572 204.311999097 L231.572412236 204.481318433 L231.4030929 204.481318433 L231.233773564 204.650637769 L231.064454227 204.650637769 L230.895134891 204.819957106 L230.725815555 204.819957106 L230.556496219 204.989276442 L230.217857546 204.989276442 L230.04853821 205.158595778 L229.879218873 205.158595778 L229.709899537 205.327915115 L229.540580201 205.327915115 L229.371260865 205.497234451 L229.201941528 205.497234451 L229.032622192 205.666553787 L228.69398352 205.666553787 L228.524664183 205.835873123 L228.355344847 205.835873123 L228.186025511 206.00519246 L228.016706175 206.00519246 L227.847386838 206.174511796 L227.678067502 206.174511796 L227.508748166 206.343831132 L227.339428829 206.343831132 L227.170109493 206.513150468 L227.000790157 206.513150468 L226.831470821 206.682469805 L226.662151484 206.682469805 L226.492832148 206.851789141 L226.323512812 206.851789141 L226.154193476 207.021108477 L225.984874139 207.021108477 L225.815554803 207.190427814 L225.646235467 207.190427814 L225.47691613 207.35974715 L225.307596794 207.35974715 L225.138277458 207.529066486 L224.968958122 207.529066486 L224.799638785 207.698385822 L224.630319449 207.698385822 L224.461000113 207.867705159 L224.291680777 207.867705159 L224.12236144 208.037024495 L223.953042104 208.037024495 L223.783722768 208.206343831 L223.614403432 208.206343831 L223.445084095 208.375663167 L223.275764759 208.375663167 L223.106445423 208.544982504 L222.937126086 208.544982504 L222.76780675 208.71430184 L222.598487414 208.71430184 L222.429168078 208.883621176 L222.259848741 208.883621176 L222.090529405 209.052940512 L221.921210069 209.052940512 L221.582571396 209.391579185 L221.41325206 209.391579185 L221.243932724 209.560898521 L221.074613388 209.560898521 L220.905294051 209.730217858 L220.735974715 209.730217858 L220.566655379 209.899537194 L220.397336042 209.899537194 L220.05869737 210.238175866 L219.889378034 210.238175866 L219.720058697 210.407495203 L219.550739361 210.407495203 L219.381420025 210.576814539 L219.212100689 210.576814539 L218.873462016 210.915453211 L218.70414268 210.915453211 L218.534823343 211.084772548 L218.365504007 211.084772548 L218.196184671 211.254091884 L218.026865335 211.254091884 L217.688226662 211.592730556 L217.518907326 211.592730556 L217.34958799 211.762049893 L217.180268653 211.762049893 L216.841629981 212.100688565 L216.672310645 212.100688565 L216.333671972 212.439327238 L216.164352636 212.439327238 L215.995033299 212.608646574 L215.825713963 212.608646574 L215.487075291 212.947285247 L215.317755954 212.947285247 L214.979117282 213.285923919 L214.809797946 213.285923919 L214.471159273 213.624562592 L214.301839937 213.624562592 L214.132520601 213.793881928 L213.963201264 213.793881928 L213.624562592 214.132520601 L213.455243255 214.132520601 L213.116604583 214.471159273 L212.947285247 214.471159273 L212.439327238 214.979117282 L212.270007902 214.979117282 L211.931369229 215.317755954 L211.762049893 215.317755954 L211.42341122 215.656394627 L211.254091884 215.656394627 L210.746133875 216.164352636 L210.576814539 216.164352636 L210.238175866 216.502991308 L210.06885653 216.502991308 L209.560898521 217.010949317 L209.391579185 217.010949317 L208.883621176 217.518907326 L208.71430184 217.518907326 L208.206343831 218.026865335 L208.037024495 218.026865335 L207.529066486 218.534823343 L207.35974715 218.534823343 L206.682469805 219.212100689 L206.513150468 219.212100689 L205.835873123 219.889378034 L205.666553787 219.889378034 L204.989276442 220.566655379 L204.819957106 220.566655379 L203.804041088 221.582571396 L203.634721752 221.582571396 L202.618805734 222.598487414 L202.449486398 222.598487414 L200.756293035 224.291680777 L200.586973699 224.291680777 L196.184670956 228.69398352 L196.184670956 228.863302856 L194.491477593 230.556496219 L194.491477593 230.725815555 L193.475561576 231.741731572 L193.475561576 231.911050909 L192.459645558 232.926966926 L192.459645558 233.096286263 L191.782368213 233.773563608 L191.782368213 233.942882944 L191.105090868 234.620160289 L191.105090868 234.789479625 L190.597132859 235.297437634 L190.597132859 235.46675697 L190.08917485 235.974714979 L190.08917485 236.144034315 L189.581216842 236.651992324 L189.581216842 236.82131166 L189.073258833 237.329269669 L189.073258833 237.498589006 L188.73462016 237.837227678 L188.73462016 238.006547014 L188.395981488 238.345185687 L188.395981488 238.514505023 L187.888023479 239.022463032 L187.888023479 239.191782368 L187.549384806 239.530421041 L187.549384806 239.699740377 L187.210746134 240.03837905 L187.210746134 240.207698386 L186.872107461 240.546337058 L186.872107461 240.715656395 L186.702788125 240.884975731 L186.702788125 241.054295067 L186.364149453 241.39293374 L186.364149453 241.562253076 L186.02551078 241.900891749 L186.02551078 242.070211085 L185.856191444 242.239530421 L185.856191444 242.408849757 L185.517552771 242.74748843 L185.517552771 242.916807766 L185.348233435 243.086127102 L185.348233435 243.255446439 L185.009594762 243.594085111 L185.009594762 243.763404447 L184.840275426 243.932723784 L184.840275426 244.10204312 L184.501636754 244.440681793 L184.501636754 244.610001129 L184.332317417 244.779320465 L184.332317417 244.948639801 L184.162998081 245.117959138 L184.162998081 245.287278474 L183.993678745 245.45659781 L183.993678745 245.625917146 L183.655040072 245.964555819 L183.655040072 246.133875155 L183.485720736 246.303194491 L183.485720736 246.472513828 L183.3164014 246.641833164 L183.3164014 246.8111525 L183.147082063 246.980471837 L183.147082063 247.149791173 L182.977762727 247.319110509 L182.977762727 247.488429845 L182.808443391 247.657749182 L182.808443391 247.827068518 L182.639124055 247.996387854 L182.639124055 248.16570719 L182.469804718 248.335026527 L182.469804718 248.504345863 L182.300485382 248.673665199 L182.300485382 248.842984536 L182.131166046 249.012303872 L182.131166046 249.181623208 L181.96184671 249.350942544 L181.96184671 249.520261881 L181.792527373 249.689581217 L181.792527373 249.858900553 L181.623208037 250.028219889 L181.623208037 250.197539226 L181.453888701 250.366858562 L181.453888701 250.536177898 L181.284569364 250.705497234 L181.284569364 251.044135907 L181.115250028 251.213455243 L181.115250028 251.38277458 L180.945930692 251.552093916 L180.945930692 251.721413252 L180.776611356 251.890732588 L180.776611356 252.060051925 L180.607292019 252.229371261 L180.607292019 252.568009933 L180.437972683 252.73732927 L180.437972683 252.906648606 L180.268653347 253.075967942 L180.268653347 253.245287278 L180.099334011 253.414606615 L180.099334011 253.753245287 L179.930014674 253.922564624 L179.930014674 254.09188396 L179.760695338 254.261203296 L179.760695338 254.599841969 L179.591376002 254.769161305 L179.591376002 255.107799977 L179.422056666 255.277119314 L179.422056666 255.44643865 L179.252737329 255.615757986 L179.252737329 255.954396659 L179.083417993 256.123715995 L179.083417993 256.462354668 L178.914098657 256.631674004 L178.914098657 256.80099334 L178.74477932 256.970312676 L178.74477932 257.308951349 L178.575459984 257.478270685 L178.575459984 257.816909358 L178.406140648 257.986228694 L178.406140648 258.324867367 L178.236821312 258.494186703 L178.236821312 258.832825375 L178.067501975 259.002144712 L178.067501975 259.340783384 L177.898182639 259.51010272 L177.898182639 259.848741393 L177.728863303 260.018060729 L177.728863303 260.526018738 L177.559543967 260.695338074 L177.559543967 261.033976747 L177.39022463 261.203296083 L177.39022463 261.711254092 L177.220905294 261.880573428 L177.220905294 262.219212101 L177.051585958 262.388531437 L177.051585958 262.896489446 L176.882266622 263.065808782 L176.882266622 263.573766791 L176.712947285 263.743086127 L176.712947285 264.251044136 L176.543627949 264.420363472 L176.543627949 264.928321481 L176.374308613 265.097640817 L176.374308613 265.605598826 L176.204989276 265.774918162 L176.204989276 266.452195507 L176.03566994 266.621514844 L176.03566994 267.298792189 L175.866350604 267.468111525 L175.866350604 268.14538887 L175.697031268 268.314708206 L175.697031268 268.991985551 L175.527711931 269.161304888 L175.527711931 270.007901569 L175.358392595 270.177220905 L175.358392595 271.193136923 L175.189073259 271.362456259 L175.189073259 272.378372277 L175.019753923 272.547691613 L175.019753923 273.732926967 L174.850434586 273.902246303 L174.850434586 275.42612033 L174.68111525 275.595439666 L174.68111525 277.796591037 L174.511795914 277.965910374 L174.511795914 287.278473868 L174.68111525 287.447793205 L174.68111525 289.648944576 L174.850434586 289.818263912 L174.850434586 291.342137939 L175.019753923 291.511457275 L175.019753923 292.866011965 L175.189073259 293.035331302 L175.189073259 294.051247319 L175.358392595 294.220566655 L175.358392595 295.236482673 L175.527711931 295.405802009 L175.527711931 296.252398691 L175.697031268 296.421718027 L175.697031268 297.268314708 L175.866350604 297.437634044 L175.866350604 298.11491139 L176.03566994 298.284230726 L176.03566994 298.961508071 L176.204989276 299.130827407 L176.204989276 299.808104752 L176.374308613 299.977424088 L176.374308613 300.654701434 L176.543627949 300.82402077 L176.543627949 301.331978779 L176.712947285 301.501298115 L176.712947285 302.009256124 L176.882266622 302.17857546 L176.882266622 302.686533469 L177.051585958 302.855852805 L177.051585958 303.363810814 L177.220905294 303.53313015 L177.220905294 304.041088159 L177.39022463 304.210407495 L177.39022463 304.549046168 L177.559543967 304.718365504 L177.559543967 305.226323513 L177.728863303 305.395642849 L177.728863303 305.734281522 L177.898182639 305.903600858 L177.898182639 306.411558867 L178.067501975 306.580878203 L178.067501975 306.919516875 L178.236821312 307.088836212 L178.236821312 307.427474884 L178.406140648 307.596794221 L178.406140648 307.935432893 L178.575459984 308.104752229 L178.575459984 308.443390902 L178.74477932 308.612710238 L178.74477932 308.951348911 L178.914098657 309.120668247 L178.914098657 309.45930692 L179.083417993 309.628626256 L179.083417993 309.967264928 L179.252737329 310.136584265 L179.252737329 310.475222937 L179.422056666 310.644542273 L179.422056666 310.81386161 L179.591376002 310.983180946 L179.591376002 311.321819618 L179.760695338 311.491138955 L179.760695338 311.829777627 L179.930014674 311.999096964 L179.930014674 312.1684163 L180.099334011 312.337735636 L180.099334011 312.676374309 L180.268653347 312.845693645 L180.268653347 313.015012981 L180.437972683 313.184332317 L180.437972683 313.52297099 L180.607292019 313.692290326 L180.607292019 313.861609662 L180.776611356 314.030928999 L180.776611356 314.369567671 L180.945930692 314.538887008 L180.945930692 314.708206344 L181.115250028 314.87752568 L181.115250028 315.046845016 L181.284569364 315.216164353 L181.284569364 315.385483689 L181.453888701 315.554803025 L181.453888701 315.893441698 L181.623208037 316.062761034 L181.623208037 316.23208037 L181.792527373 316.401399707 L181.792527373 316.570719043 L181.96184671 316.740038379 L181.96184671 316.909357715 L182.131166046 317.078677052 L182.131166046 317.247996388 L182.300485382 317.417315724 L182.300485382 317.755954397 L182.469804718 317.925273733 L182.469804718 318.094593069 L182.639124055 318.263912405 L182.639124055 318.433231742 L182.808443391 318.602551078 L182.808443391 318.771870414 L182.977762727 318.941189751 L182.977762727 319.110509087 L183.147082063 319.279828423 L183.147082063 319.449147759 L183.3164014 319.618467096 L183.3164014 319.787786432 L183.485720736 319.957105768 L183.485720736 320.126425104 L183.655040072 320.295744441 L183.655040072 320.465063777 L183.993678745 320.803702449 L183.993678745 320.973021786 L184.162998081 321.142341122 L184.162998081 321.311660458 L184.332317417 321.480979795 L184.332317417 321.650299131 L184.501636754 321.819618467 L184.501636754 321.988937803 L184.67095609 322.15825714 L184.67095609 322.327576476 L185.009594762 322.666215148 L185.009594762 322.835534485 L185.178914099 323.004853821 L185.178914099 323.174173157 L185.348233435 323.343492494 L185.348233435 323.51281183 L185.686872107 323.851450502 L185.686872107 324.020769839 L185.856191444 324.190089175 L185.856191444 324.359408511 L186.02551078 324.528727847 L186.02551078 324.698047184 L186.364149453 325.036685856 L186.364149453 325.206005192 L186.533468789 325.375324529 L186.533468789 325.544643865 L186.872107461 325.883282538 L186.872107461 326.052601874 L187.210746134 326.391240546 L187.210746134 326.560559883 L187.549384806 326.899198555 L187.549384806 327.068517891 L187.718704143 327.237837228 L187.718704143 327.407156564 L188.057342815 327.745795236 L188.057342815 327.915114573 L188.395981488 328.253753245 L188.395981488 328.423072582 L188.73462016 328.761711254 L188.73462016 328.93103059 L189.242578169 329.438988599 L189.242578169 329.608307935 L189.581216842 329.946946608 L189.581216842 330.116265944 L189.919855514 330.454904617 L189.919855514 330.624223953 L190.427813523 331.132181962 L190.427813523 331.301501298 L190.597132859 331.470820634 L190.427813523 331.640139971 L174.511795914 331.640139971 L174.511795914 581.781239418 L767.298792189 581.781239418 L767.298792189 415.961169432 L767.468111525 415.791850096 L815.385483689 415.791850096 L815.385483689 244.10204312 L809.289987583 244.10204312 L809.120668247 243.932723784 L809.120668247 243.594085111 L809.289987583 243.424765775 L809.289987583 243.086127102 L809.45930692 242.916807766 L809.45930692 242.578169094 L809.628626256 242.408849757 L809.628626256 242.070211085 L809.797945592 241.900891749 L809.797945592 241.562253076 L809.967264928 241.39293374 L809.967264928 241.054295067 L810.136584265 240.884975731 L810.136584265 240.377017722 L810.305903601 240.207698386 L810.305903601 239.869059713 L810.475222937 239.699740377 L810.475222937 239.361101704 L810.644542273 239.191782368 L810.644542273 238.683824359 L810.81386161 238.514505023 L810.81386161 238.006547014 L810.983180946 237.837227678 L810.983180946 237.498589006 L811.152500282 237.329269669 L811.152500282 236.82131166 L811.321819618 236.651992324 L811.321819618 236.144034315 L811.491138955 235.974714979 L811.491138955 235.46675697 L811.660458291 235.297437634 L811.660458291 234.789479625 L811.829777627 234.620160289 L811.829777627 234.11220228 L811.999096964 233.942882944 L811.999096964 233.434924935 L812.1684163 233.265605599 L812.1684163 232.75764759 L812.337735636 232.588328254 L812.337735636 231.911050909 L812.507054972 231.741731572 L812.507054972 231.064454227 L812.676374309 230.895134891 L812.676374309 230.387176882 L812.845693645 230.217857546 L812.845693645 229.540580201 L813.015012981 229.371260865 L813.015012981 228.524664183 L813.184332317 228.355344847 L813.184332317 227.678067502 L813.353651654 227.508748166 L813.353651654 226.662151484 L813.52297099 226.492832148 L813.52297099 225.646235467 L813.692290326 225.47691613 L813.692290326 224.630319449 L813.861609662 224.461000113 L813.861609662 223.614403432 L814.030928999 223.445084095 L814.030928999 222.429168078 L814.200248335 222.259848741 L814.200248335 221.074613388 L814.369567671 220.905294051 L814.369567671 219.720058697 L814.538887008 219.550739361 L814.538887008 218.196184671 L814.708206344 218.026865335 L814.708206344 216.502991308 L814.87752568 216.333671972 L814.87752568 214.471159273 L815.046845016 214.301839937 L815.046845016 212.100688565 L815.216164353 211.931369229 L815.216164353 208.544982504 L815.385483689 208.375663167 L815.385483689 197.200586974 L815.216164353 197.031267637 L815.216164353 193.644880912 L815.046845016 193.475561576 L815.046845016 191.274410204 L814.87752568 191.105090868 L814.87752568 189.242578169 L814.708206344 189.073258833 L814.708206344 187.549384806 L814.538887008 187.38006547 L814.538887008 186.02551078 L814.369567671 185.856191444 L814.369567671 184.67095609 L814.200248335 184.501636754 L814.200248335 183.3164014 L814.030928999 183.147082063 L814.030928999 182.131166046 L813.861609662 181.96184671 L813.861609662 180.945930692 L813.692290326 180.776611356 L813.692290326 179.930014674 L813.52297099 179.760695338 L813.52297099 178.914098657 L813.353651654 178.74477932 L813.353651654 177.898182639 L813.184332317 177.728863303 L813.184332317 177.051585958 L813.015012981 176.882266622 L813.015012981 176.03566994 L812.845693645 175.866350604 L812.845693645 175.189073259 L812.676374309 175.019753923 L812.676374309 174.511795914 L812.507054972 174.342476577 L812.507054972 173.665199232 L812.337735636 173.495879896 L812.337735636 172.818602551 L812.1684163 172.649283215 L812.1684163 172.141325206 L811.999096964 171.97200587 L811.999096964 171.464047861 L811.829777627 171.294728525 L811.829777627 170.61745118 L811.660458291 170.448131843 L811.660458291 169.940173835 L811.491138955 169.770854498 L811.491138955 169.262896489 L811.321819618 169.093577153 L811.321819618 168.585619144 L811.152500282 168.416299808 L811.152500282 168.077661136 L810.983180946 167.908341799 L810.983180946 167.40038379 L810.81386161 167.231064454 L810.81386161 166.723106445 L810.644542273 166.553787109 L810.644542273 166.215148437 L810.475222937 166.0458291 L810.475222937 165.537871092 L810.305903601 165.368551755 L810.305903601 165.029913083 L810.136584265 164.860593746 L810.136584265 164.521955074 L809.967264928 164.352635738 L809.967264928 163.844677729 L809.797945592 163.675358393 L809.797945592 163.33671972 L809.628626256 163.167400384 L809.628626256 162.828761711 L809.45930692 162.659442375 L809.45930692 162.320803702 L809.289987583 162.151484366 L809.289987583 161.812845694 L809.120668247 161.643526357 L809.120668247 161.304887685 L808.951348911 161.135568349 L808.951348911 160.796929676 L808.782029574 160.62761034 L808.782029574 160.288971667 L808.612710238 160.119652331 L808.612710238 159.781013658 L808.443390902 159.611694322 L808.443390902 159.442374986 L808.274071566 159.27305565 L808.274071566 158.934416977 L808.104752229 158.765097641 L808.104752229 158.426458968 L807.935432893 158.257139632 L807.935432893 157.918500959 L807.766113557 157.749181623 L807.766113557 157.579862287 L807.596794221 157.410542951 L807.596794221 157.071904278 L807.427474884 156.902584942 L807.427474884 156.733265606 L807.258155548 156.563946269 L807.258155548 156.225307597 L807.088836212 156.055988261 L807.088836212 155.886668924 L806.919516875 155.717349588 L806.919516875 155.378710915 L806.750197539 155.209391579 L806.750197539 155.040072243 L806.580878203 154.870752907 L806.580878203 154.532114234 L806.411558867 154.362794898 L806.411558867 154.193475562 L806.24223953 154.024156225 L806.24223953 153.854836889 L806.072920194 153.685517553 L806.072920194 153.516198217 L805.903600858 153.34687888 L805.903600858 153.008240208 L805.734281522 152.838920871 L805.734281522 152.669601535 L805.564962185 152.500282199 L805.564962185 152.330962863 L805.395642849 152.161643526 L805.395642849 151.99232419 L805.226323513 151.823004854 L805.226323513 151.653685518 L805.057004177 151.484366181 L805.057004177 151.145727509 L804.88768484 150.976408172 L804.88768484 150.807088836 L804.718365504 150.6377695 L804.718365504 150.468450164 L804.549046168 150.299130827 L804.549046168 150.129811491 L804.379726831 149.960492155 L804.379726831 149.791172819 L804.210407495 149.621853482 L804.210407495 149.452534146 L804.041088159 149.28321481 L804.041088159 149.113895474 L803.871768823 148.944576137 L803.871768823 148.775256801 L803.702449486 148.605937465 L803.702449486 148.436618128 L803.53313015 148.267298792 L803.53313015 148.097979456 L803.363810814 147.92866012 L803.363810814 147.759340783 L803.194491478 147.590021447 L803.194491478 147.420702111 L802.855852805 147.082063438 L802.855852805 146.912744102 L802.686533469 146.743424766 L802.686533469 146.57410543 L802.517214133 146.404786093 L802.517214133 146.235466757 L802.347894796 146.066147421 L802.347894796 145.896828084 L802.17857546 145.727508748 L802.17857546 145.558189412 L801.839936787 145.219550739 L801.839936787 145.050231403 L801.670617451 144.880912067 L801.670617451 144.711592731 L801.331978779 144.372954058 L801.331978779 144.203634722 L801.162659442 144.034315385 L801.162659442 143.864996049 L800.993340106 143.695676713 L800.993340106 143.526357377 L800.654701434 143.187718704 L800.654701434 143.018399368 L800.316062761 142.679760695 L800.316062761 142.510441359 L800.146743425 142.341122023 L800.146743425 142.171802687 L799.808104752 141.833164014 L799.808104752 141.663844678 L799.46946608 141.325206005 L799.46946608 141.155886669 L799.130827407 140.817247996 L799.130827407 140.64792866 L798.961508071 140.478609324 L798.961508071 140.309289988 L798.453550062 139.801331979 L798.453550062 139.632012643 L798.11491139 139.29337397 L798.11491139 139.124054634 L797.776272717 138.785415961 L797.776272717 138.616096625 L797.437634044 138.277457952 L797.437634044 138.108138616 L796.929676036 137.600180607 L796.929676036 137.430861271 L796.421718027 136.922903262 L796.421718027 136.753583926 L795.913760018 136.245625917 L795.913760018 136.076306581 L795.405802009 135.568348572 L795.405802009 135.399029236 L794.728524664 134.721751891 L794.728524664 134.552432554 L793.881927983 133.705835873 L793.881927983 133.536516537 L792.866011965 132.520600519 L792.866011965 132.351281183 L791.172818603 130.65808782 L791.172818603 130.488768484 L788.12507055 127.441020431 L787.955751213 127.441020431 L786.431877187 125.917146405 L786.262557851 125.917146405 L785.246641833 124.901230387 L785.077322497 124.901230387 L784.230725816 124.054633706 L784.061406479 124.054633706 L783.55344847 123.546675697 L783.384129134 123.546675697 L782.706851789 122.869398352 L782.537532453 122.869398352 L782.029574444 122.361440343 L781.860255108 122.361440343 L781.521616435 122.022801671 L781.352297099 122.022801671 L780.84433909 121.514843662 L780.675019754 121.514843662 L780.336381081 121.176204989 L780.167061745 121.176204989 L779.828423073 120.837566317 L779.659103736 120.837566317 L779.320465064 120.498927644 L779.151145728 120.498927644 L778.812507055 120.160288972 L778.643187719 120.160288972 L778.304549046 119.821650299 L778.13522971 119.821650299 L777.965910374 119.652330963 L777.796591037 119.652330963 L777.457952365 119.31369229 L777.288633029 119.31369229 L776.949994356 118.975053618 L776.78067502 118.975053618 L776.611355683 118.805734282 L776.442036347 118.805734282 L776.272717011 118.636414945 L776.103397675 118.636414945 L775.764759002 118.297776273 L775.595439666 118.297776273 L775.42612033 118.128456936 L775.256800993 118.128456936 L775.087481657 117.9591376 L774.918162321 117.9591376 L774.579523648 117.620498928 L774.410204312 117.620498928 L774.240884976 117.451179591 L774.071565639 117.451179591 L773.902246303 117.281860255 L773.732926967 117.281860255 L773.563607631 117.112540919 L773.394288294 117.112540919 L773.224968958 116.943221583 L773.055649622 116.943221583 L772.886330286 116.773902246 L772.717010949 116.773902246 L772.547691613 116.60458291 L772.378372277 116.60458291 L772.209052941 116.435263574 L772.039733604 116.435263574 L771.870414268 116.265944237 L771.701094932 116.265944237 L771.531775595 116.096624901 L771.362456259 116.096624901 L771.193136923 115.927305565 L771.023817587 115.927305565 L770.85449825 115.757986229 L770.515859578 115.757986229 L770.346540242 115.588666892 L770.177220905 115.588666892 L770.007901569 115.419347556 L769.838582233 115.419347556 L769.669262896 115.25002822 L769.49994356 115.25002822 L769.330624224 115.080708884 L768.991985551 115.080708884 L768.822666215 114.911389547 L768.653346879 114.911389547 L768.484027543 114.742070211 L768.314708206 114.742070211 L768.14538887 114.572750875 L767.806750198 114.572750875 L767.637430861 114.403431539 L767.298792189 114.403431539 L767.129472852 114.234112202 L766.960153516 114.234112202 L766.79083418 114.064792866 L766.452195507 114.064792866 L766.282876171 113.89547353 L765.944237499 113.89547353 L765.774918162 113.726154193 L765.605598826 113.726154193 L765.43627949 113.556834857 L765.097640817 113.556834857 L764.928321481 113.387515521 L764.589682808 113.387515521 L764.420363472 113.218196185 L764.0817248 113.218196185 L763.912405463 113.048876848 L763.404447455 113.048876848 L763.235128118 112.879557512 L762.896489446 112.879557512 L762.727170109 112.710238176 L762.388531437 112.710238176 L762.219212101 112.54091884 L761.711254092 112.54091884 L761.541934756 112.371599503 L761.033976747 112.371599503 L760.864657411 112.202280167 L760.526018738 112.202280167 L760.356699402 112.032960831 L759.679422057 112.032960831 L759.51010272 111.863641495 L759.002144712 111.863641495 L758.832825375 111.694322158 L758.15554803 111.694322158 L757.986228694 111.525002822 L757.308951349 111.525002822 L757.139632013 111.355683486 L756.462354668 111.355683486 L756.293035331 111.186364149 L755.44643865 111.186364149 L755.277119314 111.017044813 L754.261203296 111.017044813 L754.09188396 110.847725477 L752.73732927 110.847725477 L752.568009933 110.678406141 L750.874816571 110.678406141 L750.705497234 110.509086804 L742.74748843 110.509086804 L742.578169094 110.678406141 L740.715656395 110.678406141 L740.546337058 110.847725477 L739.361101704 110.847725477 L739.191782368 111.017044813 L738.175866351 111.017044813 L738.006547014 111.186364149 L737.159950333 111.186364149 L736.990630997 111.355683486 L736.144034315 111.355683486 L735.974714979 111.525002822 L735.46675697 111.525002822 L735.297437634 111.694322158 L734.620160289 111.694322158 L734.450840953 111.863641495 L733.942882944 111.863641495 L733.773563608 112.032960831 L733.265605599 112.032960831 L733.096286263 112.202280167 L732.588328254 112.202280167 L732.419008917 112.371599503 L732.080370245 112.371599503 L731.911050909 112.54091884 L731.4030929 112.54091884 L731.233773564 112.710238176 L730.895134891 112.710238176 L730.725815555 112.879557512 L730.387176882 112.879557512 L730.217857546 113.048876848 L729.879218873 113.048876848 L729.709899537 113.218196185 L729.371260865 113.218196185 L729.201941528 113.387515521 L728.863302856 113.387515521 L728.69398352 113.556834857 L728.524664183 113.556834857 L728.355344847 113.726154193 L728.016706175 113.726154193 L727.847386838 113.89547353 L727.678067502 113.89547353 L727.508748166 114.064792866 L727.170109493 114.064792866 L727.000790157 114.234112202 L726.831470821 114.234112202 L726.662151484 114.403431539 L726.323512812 114.403431539 L726.154193476 114.572750875 L725.984874139 114.572750875 L725.815554803 114.742070211 L725.646235467 114.742070211 L725.47691613 114.911389547 L725.138277458 114.911389547 L724.968958122 115.080708884 L724.799638785 115.080708884 L724.630319449 115.25002822 L724.461000113 115.25002822 L724.291680777 115.419347556 L724.12236144 115.419347556 L723.953042104 115.588666892 L723.783722768 115.588666892 L723.614403432 115.757986229 L723.445084095 115.757986229 L723.275764759 115.927305565 L723.106445423 115.927305565 L722.937126086 116.096624901 L722.76780675 116.096624901 L722.598487414 116.265944237 L719.212100689 116.265944237 L719.042781352 116.096624901 L714.809797946 116.096624901 L714.640478609 115.927305565 L710.576814539 115.927305565 L710.407495203 115.757986229 L706.343831132 115.757986229 L706.174511796 115.588666892 L702.110847725 115.588666892 L701.941528389 115.419347556 L696.861948301 115.419347556 L696.692628965 115.588666892 L693.983519585 115.588666892 L693.814200248 115.757986229 L692.121006886 115.757986229 L691.951687549 115.927305565 L690.766452196 115.927305565 L690.597132859 116.096624901 L689.411897505 116.096624901 L689.242578169 116.265944237 L688.226662151 116.265944237 L688.057342815 116.435263574 L687.210746134 116.435263574 L687.041426798 116.60458291 L686.194830116 116.60458291 L686.02551078 116.773902246 L685.178914099 116.773902246 L685.009594762 116.943221583 L684.332317417 116.943221583 L684.162998081 117.112540919 L683.485720736 117.112540919 L683.3164014 117.281860255 L682.639124055 117.281860255 L682.469804718 117.451179591 L681.792527373 117.451179591 L681.623208037 117.620498928 L681.115250028 117.620498928 L680.945930692 117.789818264 L680.437972683 117.789818264 L680.268653347 117.9591376 L679.591376002 117.9591376 L679.422056666 118.128456936 L678.914098657 118.128456936 L678.74477932 118.297776273 L678.406140648 118.297776273 L678.236821312 118.467095609 L677.728863303 118.467095609 L677.559543967 118.636414945 L677.051585958 118.636414945 L676.882266622 118.805734282 L676.374308613 118.805734282 L676.204989276 118.975053618 L675.866350604 118.975053618 L675.697031268 119.144372954 L675.189073259 119.144372954 L675.019753923 119.31369229 L674.68111525 119.31369229 L674.511795914 119.483011627 L674.173157241 119.483011627 L674.003837905 119.652330963 L673.495879896 119.652330963 L673.32656056 119.821650299 L672.987921887 119.821650299 L672.818602551 119.990969635 L672.479963879 119.990969635 L672.310644542 120.160288972 L671.97200587 120.160288972 L671.802686533 120.329608308 L671.464047861 120.329608308 L671.294728525 120.498927644 L670.956089852 120.498927644 L670.786770516 120.66824698 L670.448131843 120.66824698 L670.278812507 120.837566317 L669.940173835 120.837566317 L669.770854498 121.006885653 L669.432215826 121.006885653 L669.262896489 121.176204989 L668.924257817 121.176204989 L668.754938481 121.345524326 L668.416299808 121.345524326 L668.246980472 121.514843662 L668.077661136 121.514843662 L667.908341799 121.684162998 L667.569703127 121.684162998 L667.40038379 121.853482334 L667.061745118 121.853482334 L666.892425782 122.022801671 L666.723106445 122.022801671 L666.553787109 122.192121007 L666.215148437 122.192121007 L666.0458291 122.361440343 L665.707190428 122.361440343 L665.537871092 122.530759679 L665.368551755 122.530759679 L665.199232419 122.700079016 L664.860593746 122.700079016 L664.69127441 122.869398352 L664.521955074 122.869398352 L664.352635738 123.038717688 L664.013997065 123.038717688 L663.844677729 123.208037024 L663.675358393 123.208037024 L663.506039056 123.377356361 L663.33671972 123.377356361 L663.167400384 123.546675697 L662.828761711 123.546675697 L662.659442375 123.715995033 L662.490123039 123.715995033 L662.320803702 123.88531437 L661.98216503 123.88531437 L661.812845694 124.054633706 L661.643526357 124.054633706 L661.474207021 124.223953042 L661.304887685 124.223953042 L661.135568349 124.393272378 L660.966249012 124.393272378 L660.796929676 124.562591715 L660.458291003 124.562591715 L660.288971667 124.731911051 L660.119652331 124.731911051 L659.950332995 124.901230387 L659.781013658 124.901230387 L659.611694322 125.070549723 L659.442374986 125.070549723 L659.27305565 125.23986906 L659.103736313 125.23986906 L658.934416977 125.409188396 L658.765097641 125.409188396 L658.595778305 125.578507732 L658.257139632 125.578507732 L658.087820296 125.747827069 L657.918500959 125.747827069 L657.749181623 125.917146405 L657.579862287 125.917146405 L657.410542951 126.086465741 L657.241223614 126.086465741 L657.071904278 126.255785077 L656.902584942 126.255785077 L656.733265606 126.425104414 L656.563946269 126.425104414 L656.394626933 126.59442375 L656.225307597 126.59442375 L656.055988261 126.763743086 L655.886668924 126.763743086 L655.717349588 126.933062422 L655.548030252 126.933062422 L655.378710915 127.102381759 L655.209391579 127.102381759 L655.040072243 127.271701095 L654.870752907 127.271701095 L654.70143357 127.441020431 L654.532114234 127.441020431 L654.362794898 127.610339767 L654.193475562 127.610339767 L654.024156225 127.779659104 L653.854836889 127.779659104 L653.516198217 128.118297776 L653.34687888 128.118297776 L653.177559544 128.287617113 L653.008240208 128.287617113 L652.838920871 128.456936449 L652.669601535 128.456936449 L652.500282199 128.626255785 L652.330962863 128.626255785 L652.161643526 128.795575121 L651.99232419 128.795575121 L651.653685518 129.134213794 L651.484366181 129.134213794 L651.315046845 129.30353313 L651.145727509 129.30353313 L650.976408172 129.472852466 L650.807088836 129.472852466 L650.468450164 129.811491139 L650.299130827 129.811491139 L650.129811491 129.980810475 L649.960492155 129.980810475 L649.791172819 130.150129811 L649.621853482 130.150129811 L649.28321481 130.488768484 L649.113895474 130.488768484 L648.944576137 130.65808782 L648.775256801 130.65808782 L648.436618128 130.996726493 L648.267298792 130.996726493 L648.097979456 131.166045829 L647.92866012 131.166045829 L647.590021447 131.504684502 L647.420702111 131.504684502 L647.251382775 131.674003838 L647.082063438 131.674003838 L646.743424766 132.01264251 L646.57410543 132.01264251 L646.235466757 132.351281183 L646.066147421 132.351281183 L645.727508748 132.689919856 L645.558189412 132.689919856 L645.388870076 132.859239192 L645.219550739 132.859239192 L644.880912067 133.197877864 L644.711592731 133.197877864 L644.372954058 133.536516537 L644.203634722 133.536516537 L643.864996049 133.875155209 L643.695676713 133.875155209 L643.35703804 134.213793882 L643.187718704 134.213793882 L642.679760695 134.721751891 L642.510441359 134.721751891 L642.171802687 135.060390563 L642.00248335 135.060390563 L641.663844678 135.399029236 L641.494525341 135.399029236 L640.986567333 135.906987245 L640.817247996 135.906987245 L640.478609324 136.245625917 L640.309289988 136.245625917 L639.801331979 136.753583926 L639.632012643 136.753583926 L639.124054634 137.261541935 L638.954735297 137.261541935 L638.277457952 137.93881928 L638.108138616 137.93881928 L637.769499944 138.277457952 L570.888362118 138.277457952 L570.719042781 138.108138616 L570.719042781 110.509086804 325.544643865 110.509086804 " stroke="black" fill="transparent"/>
<path d="M773.224968958 163.675358393 L773.394288294 163.844677729 L773.394288294 164.013997065 L773.563607631 164.183316401 L773.563607631 164.352635738 L773.732926967 164.521955074 L773.732926967 164.69127441 L773.563607631 164.860593746 L773.224968958 164.860593746 L773.055649622 164.69127441 L773.055649622 163.844677729 773.224968958 163.675358393 " stroke="black" fill="transparent"/>
<path d="M975.730895135 0.0564397787561 L975.730895135 0.28219889378 L1000.0 0.28219889378 L1000.0 0.0564397787561 975.730895135 0.0564397787561 " stroke="black" fill="transparent"/>
<path d="M0.0564397787561 0.0564397787561 L0.0564397787561 0.28219889378 L24.3255446439 0.28219889378 L24.3255446439 0.0564397787561 0.0564397787561 0.0564397787561 " stroke="black" fill="transparent"/>
</svg>