<svg width="1200.0mm" height="349.20174165457183mm" xmlns="http://www.w3.org/2000/svg" fill="transparent" ><path d="M1184.13159168 348.959845186 L1184.13159168 349.201741655 L1184.27672956 349.201741655 L1184.27672956 348.959845186 1184.13159168 348.959845186 " stroke="black" fill="transparent"/>
<path d="M897.09724238 348.959845186 L897.048863087 349.00822448 L897.048863087 349.201741655 L897.48427673 349.201741655 L897.48427673 349.00822448 L897.339138849 349.00822448 L897.290759555 348.959845186 897.09724238 348.959845186 " stroke="black" fill="transparent"/>
<path d="M1088.48572811 164.683115627 L1088.48572811 164.73149492 L1088.38896952 164.828253507 L1088.19545235 164.828253507 L1088.19545235 164.876632801 L1088.09869376 164.973391388 L1088.05031447 164.973391388 L1088.05031447 165.166908563 L1087.95355588 165.26366715 L1087.7600387 165.26366715 L1087.7600387 165.312046444 L1087.66328012 165.408805031 L1087.32462506 165.408805031 L1087.32462506 165.457184325 L1087.22786647 165.553942912 L1087.17948718 165.553942912 L1087.17948718 165.602322206 L1087.08272859 165.699080793 L1086.88921142 165.699080793 L1086.88921142 165.747460087 L1086.79245283 165.844218674 L1086.59893566 165.844218674 L1086.59893566 165.892597968 L1086.50217707 165.989356555 L1086.16352201 165.989356555 L1086.16352201 166.037735849 L1086.06676343 166.134494436 L1085.87324625 166.134494436 L1085.87324625 166.328011611 L1085.77648766 166.424770198 L1085.43783261 166.424770198 L1085.43783261 166.473149492 L1085.34107402 166.569908079 L1085.00241896 166.569908079 L1085.00241896 166.618287373 L1084.90566038 166.71504596 L1084.7121432 166.71504596 L1084.7121432 166.763425254 L1084.61538462 166.860183841 L1084.27672956 166.860183841 L1084.27672956 166.908563135 L1084.17997097 167.005321722 L1083.69617804 167.005321722 L1083.69617804 167.053701016 L1083.59941945 167.150459603 L1083.26076439 167.150459603 L1083.26076439 167.198838897 L1083.16400581 167.295597484 L1082.82535075 167.295597484 L1082.82535075 167.343976778 L1082.72859216 167.440735365 L1082.24479923 167.440735365 L1082.24479923 167.63425254 L1082.14804064 167.731011127 L1081.6642477 167.731011127 L1081.6642477 167.779390421 L1081.56748911 167.876149008 L1080.9385583 167.876149008 L1080.9385583 167.924528302 L1080.84179971 168.021286889 L1080.06773101 168.021286889 L1080.06773101 168.069666183 L1079.97097242 168.16642477 L1079.34204161 168.16642477 L1079.34204161 168.214804064 L1079.24528302 168.311562651 L1078.32607644 168.311562651 L1078.32607644 168.359941945 L1078.22931785 168.456700532 L1076.87469763 168.456700532 L1076.87469763 168.505079826 L1076.77793904 168.601838413 L1070.58538945 168.601838413 L1070.48863087 168.505079826 L1070.48863087 168.456700532 L1069.13401064 168.456700532 L1069.03725206 168.359941945 L1069.03725206 168.311562651 L1067.9729076 168.311562651 L1067.87614901 168.214804064 L1067.87614901 168.16642477 L1066.95694243 168.16642477 L1066.86018384 168.069666183 L1066.86018384 168.021286889 L1065.94097726 168.021286889 L1065.84421867 167.924528302 L1065.84421867 167.876149008 L1065.36042574 167.876149008 L1065.26366715 167.779390421 L1065.26366715 167.731011127 L1064.48959845 167.731011127 L1064.39283986 167.63425254 L1064.39283986 167.440735365 L1063.95742622 167.440735365 L1063.95742622 171.06918239 L1064.1509434 171.06918239 L1064.24770198 171.165940977 L1064.24770198 180.503144654 L1064.29608128 180.503144654 L1064.39283986 180.599903241 L1064.39283986 200.145137881 L1064.29608128 200.241896468 L1064.24770198 200.241896468 L1064.24770198 208.708272859 L1064.1509434 208.805031447 L1063.95742622 208.805031447 L1063.95742622 214.078374456 L1063.86066763 214.175133043 L1063.81228834 214.175133043 L1063.81228834 218.142235123 L1063.71552975 218.238993711 L1063.66715046 218.238993711 L1063.66715046 221.625544267 L1063.57039187 221.722302854 L1063.52201258 221.722302854 L1063.52201258 224.528301887 L1063.42525399 224.625060474 L1063.3768747 224.625060474 L1063.3768747 227.285921626 L1063.28011611 227.382680213 L1063.23173682 227.382680213 L1063.23173682 229.46298984 L1063.13497823 229.559748428 L1063.08659894 229.559748428 L1063.08659894 231.640058055 L1062.98984035 231.736816642 L1062.94146105 231.736816642 L1062.94146105 233.671988389 L1062.84470247 233.768746976 L1062.65118529 233.768746976 L1062.65118529 235.26850508 L1062.55442671 235.365263667 L1062.50604741 235.365263667 L1062.50604741 236.865021771 L1062.40928882 236.961780358 L1062.36090953 236.961780358 L1062.36090953 238.606676343 L1062.26415094 238.70343493 L1062.21577165 238.70343493 L1062.21577165 239.912917271 L1062.11901306 240.009675859 L1062.07063377 240.009675859 L1062.07063377 241.2191582 L1061.97387518 241.315916788 L1061.92549589 241.315916788 L1061.92549589 242.525399129 L1061.8287373 242.622157716 L1061.78035801 242.622157716 L1061.78035801 243.686502177 L1061.68359942 243.783260764 L1061.63522013 243.783260764 L1061.63522013 244.847605225 L1061.53846154 244.944363812 L1061.34494436 244.944363812 L1061.34494436 245.718432511 L1061.24818578 245.815191098 L1061.19980648 245.815191098 L1061.19980648 246.734397678 L1061.1030479 246.831156265 L1061.0546686 246.831156265 L1061.0546686 247.750362845 L1060.95791001 247.847121432 L1060.90953072 247.847121432 L1060.90953072 248.621190131 L1060.81277213 248.717948718 L1060.76439284 248.717948718 L1060.76439284 249.346879536 L1060.66763425 249.443638123 L1060.61925496 249.443638123 L1060.61925496 250.217706821 L1060.52249637 250.314465409 L1060.47411708 250.314465409 L1060.47411708 251.088534107 L1060.37735849 251.185292695 L1060.18384132 251.185292695 L1060.18384132 251.669085631 L1060.08708273 251.765844219 L1060.03870343 251.765844219 L1060.03870343 252.394775036 L1059.94194485 252.491533624 L1059.89356555 252.491533624 L1059.89356555 252.97532656 L1059.79680697 253.072085148 L1059.74842767 253.072085148 L1059.74842767 253.701015965 L1059.65166909 253.797774552 L1059.60328979 253.797774552 L1059.60328979 254.136429608 L1059.5065312 254.233188195 L1059.45815191 254.233188195 L1059.45815191 254.862119013 L1059.36139332 254.9588776 L1059.31301403 254.9588776 L1059.31301403 255.587808418 L1059.21625544 255.684567005 L1059.16787615 255.684567005 L1059.16787615 256.458635704 L1059.07111756 256.555394291 L1058.87760039 256.555394291 L1058.87760039 257.184325109 L1058.7808418 257.281083696 L1058.73246251 257.281083696 L1058.73246251 257.764876633 L1058.63570392 257.86163522 L1058.58732463 257.86163522 L1058.58732463 258.490566038 L1058.49056604 258.587324625 L1058.44218674 258.587324625 L1058.44218674 259.071117562 L1058.34542816 259.167876149 L1058.29704886 259.167876149 L1058.29704886 259.796806967 L1058.20029028 259.893565554 L1058.15191098 259.893565554 L1058.15191098 260.23222061 L1058.05515239 260.328979197 L1058.0067731 260.328979197 L1058.0067731 260.812772134 L1057.91001451 260.909530721 L1057.71649734 260.909530721 L1057.71649734 261.393323657 L1057.61973875 261.490082245 L1057.57135946 261.490082245 L1057.57135946 261.8287373 L1057.47460087 261.925495888 L1057.42622158 261.925495888 L1057.42622158 262.409288824 L1057.32946299 262.506047412 L1057.2810837 262.506047412 L1057.2810837 262.844702467 L1057.18432511 262.941461055 L1057.13594582 262.941461055 L1057.13594582 263.425253991 L1057.03918723 263.522012579 L1056.99080793 263.522012579 L1056.99080793 263.860667634 L1056.89404935 263.957426222 L1056.84567005 263.957426222 L1056.84567005 264.150943396 L1056.74891147 264.247701984 L1056.70053217 264.247701984 L1056.70053217 264.73149492 L1056.60377358 264.828253507 L1056.41025641 264.828253507 L1056.41025641 265.166908563 L1056.31349782 265.26366715 L1056.26511853 265.26366715 L1056.26511853 265.457184325 L1056.16835994 265.553942912 L1056.11998065 265.553942912 L1056.11998065 266.037735849 L1056.02322206 266.134494436 L1055.97484277 266.134494436 L1055.97484277 266.328011611 L1055.87808418 266.424770198 L1055.82970489 266.424770198 L1055.82970489 266.618287373 L1055.7329463 266.71504596 L1055.68456701 266.71504596 L1055.68456701 267.053701016 L1055.58780842 267.150459603 L1055.53942912 267.150459603 L1055.53942912 267.489114659 L1055.44267054 267.585873246 L1055.24915336 267.585873246 L1055.24915336 267.779390421 L1055.15239478 267.876149008 L1055.10401548 267.876149008 L1055.10401548 268.069666183 L1055.00725689 268.16642477 L1054.9588776 268.16642477 L1054.9588776 268.505079826 L1054.86211901 268.601838413 L1054.81373972 268.601838413 L1054.81373972 268.795355588 L1054.71698113 268.892114175 L1054.66860184 268.892114175 L1054.66860184 269.08563135 L1054.57184325 269.182389937 L1054.52346396 269.182389937 L1054.52346396 269.521044993 L1054.42670537 269.61780358 L1054.37832608 269.61780358 L1054.37832608 269.811320755 L1054.28156749 269.908079342 L1054.2331882 269.908079342 L1054.2331882 269.956458636 L1054.13642961 270.053217223 L1053.94291243 270.053217223 L1053.94291243 270.246734398 L1053.84615385 270.343492985 L1053.79777455 270.343492985 L1053.79777455 270.53701016 L1053.70101597 270.633768747 L1053.65263667 270.633768747 L1053.65263667 270.827285922 L1053.55587808 270.924044509 L1053.50749879 270.924044509 L1053.50749879 271.117561684 L1053.4107402 271.214320271 L1053.36236091 271.214320271 L1053.36236091 271.407837446 L1053.26560232 271.504596033 L1053.21722303 271.504596033 L1053.21722303 271.552975327 L1053.12046444 271.649733914 L1053.07208515 271.649733914 L1053.07208515 271.98838897 L1052.97532656 272.085147557 L1052.92694727 272.085147557 L1052.92694727 272.133526851 L1052.83018868 272.230285438 L1052.6366715 272.230285438 L1052.6366715 272.278664731 L1052.53991292 272.375423319 L1052.49153362 272.375423319 L1052.49153362 272.568940493 L1052.39477504 272.665699081 L1052.34639574 272.665699081 L1052.34639574 272.714078374 L1052.24963716 272.810836962 L1052.20125786 272.810836962 L1052.20125786 272.859216255 L1052.10449927 272.955974843 L1052.05611998 272.955974843 L1052.05611998 273.294629898 L1051.95936139 273.391388486 L1051.9109821 273.391388486 L1051.9109821 273.439767779 L1051.81422351 273.536526367 L1051.76584422 273.536526367 L1051.76584422 273.58490566 L1051.66908563 273.681664248 L1051.47556846 273.681664248 L1051.47556846 273.730043541 L1051.37880987 273.826802129 L1051.33043058 273.826802129 L1051.33043058 273.875181422 L1051.23367199 273.97194001 L1051.18529269 273.97194001 L1051.18529269 274.020319303 L1051.08853411 274.117077891 L1051.04015481 274.117077891 L1051.04015481 274.165457184 L1050.94339623 274.262215772 L1050.89501693 274.262215772 L1050.89501693 274.310595065 L1050.79825835 274.407353653 L1050.74987905 274.407353653 L1050.74987905 274.600870827 L1050.65312046 274.697629415 L1050.60474117 274.697629415 L1050.60474117 274.746008708 L1050.50798258 274.842767296 L1050.45960329 274.842767296 L1050.45960329 274.891146589 L1050.3628447 274.987905177 L1050.16932753 274.987905177 L1050.16932753 275.03628447 L1050.07256894 275.133043058 L1050.02418965 275.133043058 L1050.02418965 275.181422351 L1049.92743106 275.278180939 L1049.87905177 275.278180939 L1049.87905177 275.326560232 L1049.78229318 275.42331882 L1049.73391388 275.42331882 L1049.73391388 275.471698113 L1049.6371553 275.568456701 L1049.588776 275.568456701 L1049.588776 275.761973875 L1049.49201742 275.858732463 L1049.29850024 275.858732463 L1049.29850024 275.907111756 L1049.20174165 276.003870343 L1049.00822448 276.003870343 L1049.00822448 276.052249637 L1048.91146589 276.149008224 L1048.71794872 276.149008224 L1048.71794872 276.197387518 L1048.62119013 276.294146105 L1048.57281084 276.294146105 L1048.57281084 276.342525399 L1048.47605225 276.439283986 L1048.28253507 276.439283986 L1048.28253507 276.48766328 L1048.18577649 276.584421867 L1047.99225931 276.584421867 L1047.99225931 276.632801161 L1047.89550073 276.729559748 L1047.55684567 276.729559748 L1047.55684567 276.777939042 L1047.46008708 276.874697629 L1047.26656991 276.874697629 L1047.26656991 277.068214804 L1047.16981132 277.164973391 L1046.97629415 277.164973391 L1046.97629415 277.213352685 L1046.87953556 277.310111272 L1046.39574262 277.310111272 L1046.39574262 277.358490566 L1046.29898403 277.455249153 L1045.8151911 277.455249153 L1045.8151911 277.503628447 L1045.71843251 277.600387034 L1044.65408805 277.600387034 L1044.65408805 277.648766328 L1044.55732946 277.745524915 L1043.29946783 277.745524915 L1043.20270924 277.648766328 L1043.20270924 277.600387034 L1037.63909047 277.600387034 L1037.54233188 277.503628447 L1037.54233188 277.455249153 L1030.5273343 277.455249153 L1030.43057571 277.358490566 L1030.43057571 277.310111272 L1012.28834059 277.310111272 L1012.28834059 277.358490566 L1012.191582 277.455249153 L1009.96613449 277.455249153 L1009.96613449 277.503628447 L1009.86937591 277.600387034 L1008.95016933 277.600387034 L1008.95016933 277.648766328 L1008.85341074 277.745524915 L1008.51475568 277.745524915 L1008.51475568 277.793904209 L1008.4179971 277.890662796 L1007.78906628 277.890662796 L1007.78906628 277.93904209 L1007.69230769 278.035800677 L1007.35365264 278.035800677 L1007.35365264 278.229317852 L1007.25689405 278.326076439 L1006.62796323 278.326076439 L1006.62796323 278.374455733 L1006.53120464 278.47121432 L1006.19254959 278.47121432 L1006.19254959 278.519593614 L1006.095791 278.616352201 L1005.46686018 278.616352201 L1005.46686018 278.664731495 L1005.3701016 278.761490082 L1005.03144654 278.761490082 L1005.03144654 278.809869376 L1004.93468795 278.906627963 L1004.5960329 278.906627963 L1004.5960329 278.955007257 L1004.49927431 279.051765844 L1004.01548137 279.051765844 L1004.01548137 279.100145138 L1003.91872279 279.196903725 L1003.72520561 279.196903725 L1003.72520561 279.245283019 L1003.62844702 279.342041606 L1003.28979197 279.342041606 L1003.28979197 279.535558781 L1003.19303338 279.632317368 L1002.85437833 279.632317368 L1002.85437833 279.680696662 L1002.75761974 279.777455249 L1002.41896468 279.777455249 L1002.41896468 279.825834543 L1002.3222061 279.92259313 L1002.12868892 279.92259313 L1002.12868892 279.970972424 L1002.03193033 280.067731011 L1001.69327528 280.067731011 L1001.69327528 280.116110305 L1001.59651669 280.212868892 L1001.40299952 280.212868892 L1001.40299952 280.261248186 L1001.30624093 280.358006773 L1001.11272375 280.358006773 L1001.11272375 280.406386067 L1001.01596517 280.503144654 L1000.82244799 280.503144654 L1000.82244799 280.696661829 L1000.7256894 280.793420416 L1000.38703435 280.793420416 L1000.38703435 280.84179971 L1000.29027576 280.938558297 L1000.09675859 280.938558297 L1000.09675859 280.986937591 L1000.0 281.083696178 L999.806482825 281.083696178 L999.806482825 281.132075472 L999.709724238 281.228834059 L999.516207063 281.228834059 L999.516207063 281.277213353 L999.419448476 281.37397194 L999.225931301 281.37397194 L999.225931301 281.422351234 L999.129172714 281.519109821 L998.935655539 281.519109821 L998.935655539 281.567489115 L998.838896952 281.664247702 L998.645379777 281.664247702 L998.645379777 281.712626996 L998.54862119 281.809385583 L998.500241896 281.809385583 L998.500241896 282.002902758 L998.403483309 282.099661345 L998.064828254 282.099661345 L998.064828254 282.148040639 L997.968069666 282.244799226 L997.774552492 282.244799226 L997.774552492 282.29317852 L997.677793904 282.389937107 L997.629414611 282.389937107 L997.629414611 282.438316401 L997.532656023 282.535074988 L997.339138849 282.535074988 L997.339138849 282.583454282 L997.242380261 282.680212869 L997.194000968 282.680212869 L997.194000968 282.728592163 L997.09724238 282.82535075 L996.758587325 282.82535075 L996.758587325 282.873730044 L996.661828737 282.970488631 L996.613449444 282.970488631 L996.613449444 283.018867925 L996.516690856 283.115626512 L996.323173682 283.115626512 L996.323173682 283.309143687 L996.226415094 283.405902274 L996.178035801 283.405902274 L996.178035801 283.454281567 L996.081277213 283.551040155 L996.03289792 283.551040155 L996.03289792 283.599419448 L995.936139332 283.696178036 L995.597484277 283.696178036 L995.597484277 283.744557329 L995.500725689 283.841315917 L995.452346396 283.841315917 L995.452346396 283.88969521 L995.355587808 283.986453798 L995.162070634 283.986453798 L995.162070634 284.034833091 L995.065312046 284.131591679 L995.016932753 284.131591679 L995.016932753 284.179970972 L994.920174165 284.27672956 L994.871794872 284.27672956 L994.871794872 284.470246734 L994.775036284 284.567005322 L994.58151911 284.567005322 L994.58151911 284.615384615 L994.484760522 284.712143203 L994.291243348 284.712143203 L994.291243348 284.760522496 L994.194484761 284.857281084 L994.146105467 284.857281084 L994.146105467 284.905660377 L994.04934688 285.002418965 L994.000967586 285.002418965 L994.000967586 285.050798258 L993.904208999 285.147556846 L993.710691824 285.147556846 L993.710691824 285.195936139 L993.613933237 285.292694727 L993.565553943 285.292694727 L993.565553943 285.34107402 L993.468795356 285.437832608 L993.420416062 285.437832608 L993.420416062 285.486211901 L993.323657475 285.582970489 L993.275278181 285.582970489 L993.275278181 285.776487663 L993.178519594 285.873246251 L992.839864538 285.873246251 L992.839864538 285.921625544 L992.743105951 286.018384132 L992.694726657 286.018384132 L992.694726657 286.066763425 L992.59796807 286.163522013 L992.549588776 286.163522013 L992.549588776 286.211901306 L992.452830189 286.308659894 L992.404450895 286.308659894 L992.404450895 286.357039187 L992.307692308 286.453797775 L992.114175133 286.453797775 L992.114175133 286.502177068 L992.017416546 286.598935656 L991.823899371 286.598935656 L991.823899371 286.647314949 L991.727140784 286.744073537 L991.67876149 286.744073537 L991.67876149 286.937590711 L991.582002903 287.034349299 L991.533623609 287.034349299 L991.533623609 287.082728592 L991.436865022 287.179487179 L991.388485728 287.179487179 L991.388485728 287.227866473 L991.291727141 287.32462506 L991.098209966 287.32462506 L991.098209966 287.373004354 L991.001451379 287.469762941 L990.953072085 287.469762941 L990.953072085 287.518142235 L990.856313498 287.614900822 L990.807934204 287.614900822 L990.807934204 287.663280116 L990.711175617 287.760038703 L990.372520561 287.760038703 L990.372520561 287.808417997 L990.275761974 287.905176584 L990.22738268 287.905176584 L990.22738268 287.953555878 L990.130624093 288.050314465 L990.082244799 288.050314465 L990.082244799 288.24383164 L989.985486212 288.340590227 L989.937106918 288.340590227 L989.937106918 288.388969521 L989.840348331 288.485728108 L989.646831156 288.485728108 L989.646831156 288.534107402 L989.550072569 288.630865989 L989.356555394 288.630865989 L989.356555394 288.679245283 L989.259796807 288.77600387 L989.211417513 288.77600387 L989.211417513 288.824383164 L989.114658926 288.921141751 L988.921141751 288.921141751 L988.921141751 288.969521045 L988.824383164 289.066279632 L988.77600387 289.066279632 L988.77600387 289.114658926 L988.679245283 289.211417513 L988.630865989 289.211417513 L988.630865989 289.404934688 L988.534107402 289.501693275 L988.340590227 289.501693275 L988.340590227 289.550072569 L988.24383164 289.646831156 L988.050314465 289.646831156 L988.050314465 289.69521045 L987.953555878 289.791969037 L987.905176584 289.791969037 L987.905176584 289.840348331 L987.808417997 289.937106918 L987.614900822 289.937106918 L987.614900822 289.985486212 L987.518142235 290.082244799 L987.469762941 290.082244799 L987.469762941 290.130624093 L987.373004354 290.22738268 L987.32462506 290.22738268 L987.32462506 290.275761974 L987.227866473 290.372520561 L986.889211418 290.372520561 L986.889211418 290.420899855 L986.79245283 290.517658442 L986.744073537 290.517658442 L986.744073537 290.711175617 L986.647314949 290.807934204 L986.598935656 290.807934204 L986.598935656 290.856313498 L986.502177068 290.953072085 L986.308659894 290.953072085 L986.308659894 291.001451379 L986.211901306 291.098209966 L986.163522013 291.098209966 L986.163522013 291.14658926 L986.066763425 291.243347847 L986.018384132 291.243347847 L986.018384132 291.291727141 L985.921625544 291.388485728 L985.582970489 291.388485728 L985.582970489 291.436865022 L985.486211901 291.533623609 L985.437832608 291.533623609 L985.437832608 291.582002903 L985.34107402 291.67876149 L985.292694727 291.67876149 L985.292694727 291.872278665 L985.195936139 291.969037252 L985.002418965 291.969037252 L985.002418965 292.017416546 L984.905660377 292.114175133 L984.857281084 292.114175133 L984.857281084 292.162554427 L984.760522496 292.259313014 L984.712143203 292.259313014 L984.712143203 292.307692308 L984.615384615 292.404450895 L984.567005322 292.404450895 L984.567005322 292.452830189 L984.470246734 292.549588776 L984.131591679 292.549588776 L984.131591679 292.59796807 L984.034833091 292.694726657 L983.986453798 292.694726657 L983.986453798 292.743105951 L983.88969521 292.839864538 L983.841315917 292.839864538 L983.841315917 292.888243832 L983.744557329 292.985002419 L983.696178036 292.985002419 L983.696178036 293.178519594 L983.599419448 293.275278181 L983.551040155 293.275278181 L983.551040155 293.323657475 L983.454281567 293.420416062 L983.405902274 293.420416062 L983.405902274 293.468795356 L983.309143687 293.565553943 L983.115626512 293.565553943 L983.115626512 293.613933237 L983.018867925 293.710691824 L982.970488631 293.710691824 L982.970488631 293.759071118 L982.873730044 293.855829705 L982.82535075 293.855829705 L982.82535075 293.904208999 L982.728592163 294.000967586 L982.680212869 294.000967586 L982.680212869 294.194484761 L982.583454282 294.291243348 L982.535074988 294.291243348 L982.535074988 294.484760522 L982.438316401 294.58151911 L982.389937107 294.58151911 L982.389937107 294.629898403 L982.29317852 294.726656991 L982.244799226 294.726656991 L982.244799226 294.920174165 L982.148040639 295.016932753 L982.099661345 295.016932753 L982.099661345 295.210449927 L982.002902758 295.307208515 L981.809385583 295.307208515 L981.809385583 295.64586357 L981.712626996 295.742622158 L981.664247702 295.742622158 L981.664247702 296.081277213 L981.567489115 296.178035801 L981.519109821 296.178035801 L981.519109821 296.661828737 L981.422351234 296.758587325 L981.37397194 296.758587325 L981.37397194 299.08079342 L981.422351234 299.08079342 L981.519109821 299.177552008 L981.519109821 300.096758587 L981.567489115 300.096758587 L981.664247702 300.193517175 L981.664247702 300.822447992 L981.712626996 300.822447992 L981.809385583 300.91920658 L981.809385583 301.257861635 L982.002902758 301.257861635 L982.099661345 301.354620223 L982.099661345 302.564102564 L982.148040639 302.564102564 L982.244799226 302.660861151 L982.244799226 303.289791969 L982.29317852 303.289791969 L982.389937107 303.386550556 L982.389937107 303.580067731 L982.438316401 303.580067731 L982.535074988 303.676826318 L982.535074988 303.870343493 L982.583454282 303.870343493 L982.680212869 303.96710208 L982.680212869 304.305757136 L982.728592163 304.305757136 L982.82535075 304.402515723 L982.82535075 304.450895017 L982.873730044 304.450895017 L982.970488631 304.547653604 L982.970488631 304.596032898 L983.018867925 304.596032898 L983.115626512 304.692791485 L983.115626512 304.88630866 L983.309143687 304.88630866 L983.405902274 304.983067247 L983.405902274 305.031446541 L983.454281567 305.031446541 L983.551040155 305.128205128 L983.551040155 305.176584422 L983.599419448 305.176584422 L983.696178036 305.273343009 L983.696178036 305.321722303 L983.88969521 305.321722303 L983.986453798 305.41848089 L983.986453798 305.611998065 L984.034833091 305.611998065 L984.131591679 305.708756652 L984.131591679 305.757135946 L984.179970972 305.757135946 L984.27672956 305.853894533 L984.27672956 305.902273827 L984.615384615 305.902273827 L984.712143203 305.999032414 L984.712143203 306.047411708 L984.760522496 306.047411708 L984.857281084 306.144170295 L984.857281084 306.192549589 L985.050798258 306.192549589 L985.147556846 306.289308176 L985.147556846 306.33768747 L985.195936139 306.33768747 L985.292694727 306.434446057 L985.292694727 306.482825351 L985.486211901 306.482825351 L985.582970489 306.579583938 L985.582970489 306.773101113 L986.066763425 306.773101113 L986.163522013 306.8698597 L986.163522013 306.918238994 L986.357039187 306.918238994 L986.453797775 307.014997581 L986.453797775 307.063376875 L986.647314949 307.063376875 L986.744073537 307.160135462 L986.744073537 307.208514756 L987.227866473 307.208514756 L987.32462506 307.305273343 L987.32462506 307.353652637 L987.663280116 307.353652637 L987.760038703 307.450411224 L987.760038703 307.498790518 L988.388969521 307.498790518 L988.485728108 307.595549105 L988.485728108 307.643928399 L988.969521045 307.643928399 L989.066279632 307.740686986 L989.066279632 307.78906628 L989.69521045 307.78906628 L989.791969037 307.885824867 L989.791969037 308.079342042 L990.711175617 308.079342042 L990.807934204 308.176100629 L990.807934204 308.224479923 L991.582002903 308.224479923 L991.67876149 308.32123851 L991.67876149 308.369617804 L992.452830189 308.369617804 L992.549588776 308.466376391 L992.549588776 308.514755685 L993.323657475 308.514755685 L993.420416062 308.611514272 L993.420416062 308.659893566 L994.04934688 308.659893566 L994.146105467 308.756652153 L994.146105467 308.805031447 L994.920174165 308.805031447 L995.016932753 308.901790034 L995.016932753 308.950169328 L995.791001451 308.950169328 L995.887760039 309.046927915 L995.887760039 309.24044509 L996.661828737 309.24044509 L996.758587325 309.337203677 L996.758587325 309.38558297 L997.532656023 309.38558297 L997.629414611 309.482341558 L997.629414611 309.530720851 L998.403483309 309.530720851 L998.500241896 309.627479439 L998.500241896 309.675858732 L999.129172714 309.675858732 L999.225931301 309.77261732 L999.225931301 309.820996613 L1000.0 309.820996613 L1000.09675859 309.917755201 L1000.09675859 309.966134494 L1000.87082729 309.966134494 L1000.96758587 310.062893082 L1000.96758587 310.111272375 L1001.59651669 310.111272375 L1001.69327528 310.208030963 L1001.69327528 310.256410256 L1002.61248186 310.256410256 L1002.70924045 310.353168844 L1002.70924045 310.546686018 L1003.48330914 310.546686018 L1003.58006773 310.643444606 L1003.58006773 310.691823899 L1004.35413643 310.691823899 L1004.45089502 310.788582487 L1004.45089502 310.83696178 L1005.07982583 310.83696178 L1005.17658442 310.933720368 L1005.17658442 310.982099661 L1005.95065312 310.982099661 L1006.04741171 311.078858249 L1006.04741171 311.127237542 L1006.67634253 311.127237542 L1006.77310111 311.22399613 L1006.77310111 311.272375423 L1007.54716981 311.272375423 L1007.6439284 311.369134011 L1007.6439284 311.417513304 L1008.4179971 311.417513304 L1008.51475568 311.514271892 L1008.51475568 311.707789066 L1009.43396226 311.707789066 L1009.53072085 311.804547654 L1009.53072085 311.852926947 L1010.15965167 311.852926947 L1010.25641026 311.949685535 L1010.25641026 311.998064828 L1011.03047896 311.998064828 L1011.12723754 312.094823416 L1011.12723754 312.143202709 L1011.90130624 312.143202709 L1011.99806483 312.239961297 L1011.99806483 312.28834059 L1012.62699565 312.28834059 L1012.72375423 312.385099178 L1012.72375423 312.433478471 L1013.49782293 312.433478471 L1013.59458152 312.530237059 L1013.59458152 312.578616352 L1014.36865022 312.578616352 L1014.46540881 312.67537494 L1014.46540881 312.723754233 L1015.09433962 312.723754233 L1015.19109821 312.820512821 L1015.19109821 313.014029995 L1015.96516691 313.014029995 L1016.0619255 313.110788582 L1016.0619255 313.159167876 L1016.83599419 313.159167876 L1016.93275278 313.255926463 L1016.93275278 313.304305757 L1017.5616836 313.304305757 L1017.65844219 313.401064344 L1017.65844219 313.449443638 L1018.57764877 313.449443638 L1018.67440735 313.546202225 L1018.67440735 313.594581519 L1019.44847605 313.594581519 L1019.54523464 313.691340106 L1019.54523464 313.7397194 L1020.17416546 313.7397194 L1020.27092404 313.836477987 L1020.27092404 313.884857281 L1021.04499274 313.884857281 L1021.14175133 313.981615868 L1021.14175133 314.029995162 L1021.91582003 314.029995162 L1022.01257862 314.126753749 L1022.01257862 314.320270924 L1022.64150943 314.320270924 L1022.73826802 314.417029511 L1022.73826802 314.465408805 L1023.51233672 314.465408805 L1023.60909531 314.562167392 L1023.60909531 314.610546686 L1024.38316401 314.610546686 L1024.47992259 314.707305273 L1024.47992259 314.755684567 L1025.10885341 314.755684567 L1025.205612 314.852443154 L1025.205612 314.900822448 L1025.9796807 314.900822448 L1026.07643928 314.997581035 L1026.07643928 315.045960329 L1026.85050798 315.045960329 L1026.94726657 315.142718916 L1026.94726657 315.19109821 L1027.57619739 315.19109821 L1027.67295597 315.287856797 L1027.67295597 315.481373972 L1028.44702467 315.481373972 L1028.54378326 315.578132559 L1028.54378326 315.626511853 L1029.31785196 315.626511853 L1029.41461055 315.72327044 L1029.41461055 315.771649734 L1030.04354136 315.771649734 L1030.14029995 315.868408321 L1030.14029995 315.916787615 L1030.91436865 315.916787615 L1031.01112724 316.013546202 L1031.01112724 316.061925496 L1031.78519594 316.061925496 L1031.88195452 316.158684083 L1031.88195452 316.207063377 L1032.51088534 316.207063377 L1032.60764393 316.303821964 L1032.60764393 316.352201258 L1033.38171263 316.352201258 L1033.47847121 316.448959845 L1033.47847121 316.497339139 L1034.25253991 316.497339139 L1034.3492985 316.594097726 L1034.3492985 316.787614901 L1034.97822932 316.787614901 L1035.07498791 316.884373488 L1035.07498791 316.932752782 L1035.8490566 316.932752782 L1035.94581519 317.029511369 L1035.94581519 317.077890663 L1036.71988389 317.077890663 L1036.81664248 317.17464925 L1036.81664248 317.223028544 L1037.44557329 317.223028544 L1037.54233188 317.319787131 L1037.54233188 317.368166425 L1038.31640058 317.368166425 L1038.41315917 317.464925012 L1038.41315917 317.513304306 L1039.18722787 317.513304306 L1039.28398645 317.610062893 L1039.28398645 317.658442187 L1039.91291727 317.658442187 L1040.00967586 317.755200774 L1040.00967586 317.948717949 L1040.63860668 317.948717949 L1040.73536526 318.045476536 L1040.73536526 318.09385583 L1041.36429608 318.09385583 L1041.46105467 318.190614417 L1041.46105467 318.238993711 L1042.23512337 318.238993711 L1042.33188195 318.335752298 L1042.33188195 318.384131592 L1043.10595065 318.384131592 L1043.20270924 318.480890179 L1043.20270924 318.529269473 L1043.83164006 318.529269473 L1043.92839865 318.62602806 L1043.92839865 318.674407354 L1044.70246734 318.674407354 L1044.79922593 318.771165941 L1044.79922593 318.819545235 L1045.57329463 318.819545235 L1045.67005322 318.916303822 L1045.67005322 318.964683116 L1046.15384615 318.964683116 L1046.25060474 319.061441703 L1046.25060474 319.254958878 L1047.02467344 319.254958878 L1047.12143203 319.351717465 L1047.12143203 319.400096759 L1047.89550073 319.400096759 L1047.99225931 319.496855346 L1047.99225931 319.54523464 L1048.62119013 319.54523464 L1048.71794872 319.641993227 L1048.71794872 319.690372521 L1049.49201742 319.690372521 L1049.588776 319.787131108 L1049.588776 319.835510402 L1050.07256894 319.835510402 L1050.16932753 319.932268989 L1050.16932753 319.980648283 L1050.94339623 319.980648283 L1051.04015481 320.07740687 L1051.04015481 320.125786164 L1051.81422351 320.125786164 L1051.9109821 320.222544751 L1051.9109821 320.416061925 L1052.39477504 320.416061925 L1052.49153362 320.512820513 L1052.49153362 320.561199806 L1053.26560232 320.561199806 L1053.36236091 320.657958394 L1053.36236091 320.706337687 L1053.84615385 320.706337687 L1053.94291243 320.803096275 L1053.94291243 320.851475568 L1054.71698113 320.851475568 L1054.81373972 320.948234156 L1054.81373972 320.996613449 L1055.44267054 320.996613449 L1055.53942912 321.093372037 L1055.53942912 321.14175133 L1056.16835994 321.14175133 L1056.26511853 321.238509918 L1056.26511853 321.286889211 L1056.89404935 321.286889211 L1056.99080793 321.383647799 L1056.99080793 321.432027092 L1057.47460087 321.432027092 L1057.57135946 321.52878568 L1057.57135946 321.722302854 L1058.20029028 321.722302854 L1058.29704886 321.819061442 L1058.29704886 321.867440735 L1059.21625544 321.867440735 L1059.31301403 321.964199323 L1059.31301403 322.012578616 L1060.37735849 322.012578616 L1060.47411708 322.109337204 L1060.47411708 322.157716497 L1061.8287373 322.157716497 L1061.92549589 322.254475085 L1061.92549589 322.302854378 L1063.71552975 322.302854378 L1063.81228834 322.399612966 L1063.81228834 322.447992259 L1072.08514756 322.447992259 L1072.08514756 322.399612966 L1072.18190614 322.302854378 L1074.11707789 322.302854378 L1074.11707789 322.254475085 L1074.21383648 322.157716497 L1075.42331882 322.157716497 L1075.42331882 322.109337204 L1075.52007741 322.012578616 L1076.72955975 322.012578616 L1076.72955975 321.964199323 L1076.82631834 321.867440735 L1077.74552492 321.867440735 L1077.74552492 321.819061442 L1077.8422835 321.722302854 L1078.90662796 321.722302854 L1078.90662796 321.52878568 L1079.00338655 321.432027092 L1079.92259313 321.432027092 L1079.92259313 321.383647799 L1080.01935172 321.286889211 L1081.08369618 321.286889211 L1081.08369618 321.238509918 L1081.18045477 321.14175133 L1082.24479923 321.14175133 L1082.24479923 321.093372037 L1082.34155781 320.996613449 L1083.40590227 320.996613449 L1083.40590227 320.948234156 L1083.50266086 320.851475568 L1084.56700532 320.851475568 L1084.56700532 320.803096275 L1084.66376391 320.706337687 L1085.58297049 320.706337687 L1085.58297049 320.657958394 L1085.67972908 320.561199806 L1086.74407354 320.561199806 L1086.74407354 320.512820513 L1086.84083212 320.416061925 L1087.90517658 320.416061925 L1087.90517658 320.222544751 L1088.00193517 320.125786164 L1089.06627963 320.125786164 L1089.06627963 320.07740687 L1089.16303822 319.980648283 L1090.22738268 319.980648283 L1090.22738268 319.932268989 L1090.32414127 319.835510402 L1091.38848573 319.835510402 L1091.38848573 319.787131108 L1091.48524432 319.690372521 L1092.4044509 319.690372521 L1092.4044509 319.641993227 L1092.50120948 319.54523464 L1093.56555394 319.54523464 L1093.56555394 319.496855346 L1093.66231253 319.400096759 L1094.72665699 319.400096759 L1094.72665699 319.351717465 L1094.82341558 319.254958878 L1095.74262216 319.254958878 L1095.74262216 319.061441703 L1095.83938075 318.964683116 L1096.90372521 318.964683116 L1096.90372521 318.916303822 L1097.00048379 318.819545235 L1098.06482825 318.819545235 L1098.06482825 318.771165941 L1098.16158684 318.674407354 L1099.2259313 318.674407354 L1099.2259313 318.62602806 L1099.32268989 318.529269473 L1100.38703435 318.529269473 L1100.38703435 318.480890179 L1100.48379294 318.384131592 L1101.5481374 318.384131592 L1101.5481374 318.335752298 L1101.64489598 318.238993711 L1102.56410256 318.238993711 L1102.56410256 318.190614417 L1102.66086115 318.09385583 L1103.58006773 318.09385583 L1103.58006773 318.045476536 L1103.67682632 317.948717949 L1104.74117078 317.948717949 L1104.74117078 317.755200774 L1104.83792937 317.658442187 L1105.90227383 317.658442187 L1105.90227383 317.610062893 L1105.99903241 317.513304306 L1106.91823899 317.513304306 L1106.91823899 317.464925012 L1107.01499758 317.368166425 L1108.07934204 317.368166425 L1108.07934204 317.319787131 L1108.17610063 317.223028544 L1109.24044509 317.223028544 L1109.24044509 317.17464925 L1109.33720368 317.077890663 L1110.25641026 317.077890663 L1110.25641026 317.029511369 L1110.35316884 316.932752782 L1111.4175133 316.932752782 L1111.4175133 316.884373488 L1111.51427189 316.787614901 L1112.28834059 316.787614901 L1112.28834059 316.594097726 L1112.38509918 316.497339139 L1113.44944364 316.497339139 L1113.44944364 316.448959845 L1113.54620223 316.352201258 L1114.46540881 316.352201258 L1114.46540881 316.303821964 L1114.56216739 316.207063377 L1115.62651185 316.207063377 L1115.62651185 316.158684083 L1115.72327044 316.061925496 L1116.64247702 316.061925496 L1116.64247702 316.013546202 L1116.73923561 315.916787615 L1117.65844219 315.916787615 L1117.65844219 315.868408321 L1117.75520077 315.771649734 L1118.38413159 315.771649734 L1118.38413159 315.72327044 L1118.48089018 315.626511853 L1119.109821 315.626511853 L1119.109821 315.578132559 L1119.20657958 315.481373972 L1119.69037252 315.481373972 L1119.69037252 315.287856797 L1119.78713111 315.19109821 L1120.41606193 315.19109821 L1120.41606193 315.142718916 L1120.51282051 315.045960329 L1120.85147557 315.045960329 L1120.85147557 314.997581035 L1120.94823416 314.900822448 L1121.28688921 314.900822448 L1121.28688921 314.852443154 L1121.3836478 314.755684567 L1121.72230285 314.755684567 L1121.72230285 314.707305273 L1121.81906144 314.610546686 L1122.01257862 314.610546686 L1122.01257862 314.562167392 L1122.1093372 314.465408805 L1122.1577165 314.465408805 L1122.1577165 314.417029511 L1122.25447508 314.320270924 L1122.59313014 314.320270924 L1122.59313014 314.126753749 L1122.68988873 314.029995162 L1122.73826802 314.029995162 L1122.73826802 313.981615868 L1122.83502661 313.884857281 L1123.02854378 313.884857281 L1123.02854378 313.836477987 L1123.12530237 313.7397194 L1123.17368166 313.7397194 L1123.17368166 313.691340106 L1123.27044025 313.594581519 L1123.31881955 313.594581519 L1123.31881955 313.546202225 L1123.41557813 313.449443638 L1123.46395743 313.449443638 L1123.46395743 313.401064344 L1123.56071601 313.304305757 L1123.75423319 313.304305757 L1123.75423319 313.110788582 L1123.85099178 313.014029995 L1123.89937107 313.014029995 L1123.89937107 312.820512821 L1123.99612966 312.723754233 L1124.04450895 312.723754233 L1124.04450895 312.67537494 L1124.14126754 312.578616352 L1124.18964683 312.578616352 L1124.18964683 312.385099178 L1124.28640542 312.28834059 L1124.33478471 312.28834059 L1124.33478471 312.094823416 L1124.4315433 311.998064828 L1124.47992259 311.998064828 L1124.47992259 311.804547654 L1124.57668118 311.707789066 L1124.62506047 311.707789066 L1124.62506047 311.369134011 L1124.72181906 311.272375423 L1124.91533624 311.272375423 L1124.91533624 310.933720368 L1125.01209482 310.83696178 L1125.06047412 310.83696178 L1125.06047412 310.353168844 L1125.1572327 310.256410256 L1125.205612 310.256410256 L1125.205612 309.77261732 L1125.30237059 309.675858732 L1125.35074988 309.675858732 L1125.35074988 308.901790034 L1125.44750847 308.805031447 L1125.49588776 308.805031447 L1125.49588776 307.740686986 L1125.59264635 307.643928399 L1125.64102564 307.643928399 L1125.64102564 306.434446057 L1125.73778423 306.33768747 L1125.78616352 306.33768747 L1125.78616352 305.273343009 L1125.88292211 305.176584422 L1125.9313014 305.176584422 L1125.9313014 304.402515723 L1126.02805999 304.305757136 L1126.22157716 304.305757136 L1126.22157716 303.241412675 L1126.31833575 303.144654088 L1126.36671505 303.144654088 L1126.36671505 302.080309627 L1126.46347363 301.98355104 L1126.51185293 301.98355104 L1126.51185293 300.774068699 L1126.60861151 300.677310111 L1126.65699081 300.677310111 L1126.65699081 298.451862603 L1126.7537494 298.355104015 L1126.80212869 298.355104015 L1126.80212869 297.339138849 L1126.7537494 297.339138849 L1126.65699081 297.242380261 L1126.65699081 295.452346396 L1126.60861151 295.452346396 L1126.51185293 295.355587808 L1126.51185293 294.726656991 L1126.46347363 294.726656991 L1126.36671505 294.629898403 L1126.36671505 294.146105467 L1126.31833575 294.146105467 L1126.22157716 294.04934688 L1126.22157716 293.855829705 L1126.02805999 293.855829705 L1125.9313014 293.759071118 L1125.9313014 293.420416062 L1125.88292211 293.420416062 L1125.78616352 293.323657475 L1125.78616352 293.275278181 L1125.73778423 293.275278181 L1125.64102564 293.178519594 L1125.64102564 292.839864538 L1125.59264635 292.839864538 L1125.49588776 292.743105951 L1125.49588776 292.694726657 L1125.44750847 292.694726657 L1125.35074988 292.59796807 L1125.35074988 292.404450895 L1125.30237059 292.404450895 L1125.205612 292.307692308 L1125.205612 292.259313014 L1125.1572327 292.259313014 L1125.06047412 292.162554427 L1125.06047412 292.114175133 L1125.01209482 292.114175133 L1124.91533624 292.017416546 L1124.91533624 291.969037252 L1124.72181906 291.969037252 L1124.62506047 291.872278665 L1124.62506047 291.67876149 L1124.4315433 291.67876149 L1124.33478471 291.582002903 L1124.33478471 291.533623609 L1124.28640542 291.533623609 L1124.18964683 291.436865022 L1124.18964683 291.388485728 L1123.99612966 291.388485728 L1123.89937107 291.291727141 L1123.89937107 291.243347847 L1123.56071601 291.243347847 L1123.46395743 291.14658926 L1123.46395743 291.098209966 L1123.27044025 291.098209966 L1123.17368166 291.001451379 L1123.17368166 290.953072085 L1122.83502661 290.953072085 L1122.73826802 290.856313498 L1122.73826802 290.807934204 L1122.25447508 290.807934204 L1122.1577165 290.711175617 L1122.1577165 290.517658442 L1121.81906144 290.517658442 L1121.72230285 290.420899855 L1121.72230285 290.372520561 L1121.3836478 290.372520561 L1121.28688921 290.275761974 L1121.28688921 290.22738268 L1120.80309627 290.22738268 L1120.70633769 290.130624093 L1120.70633769 290.082244799 L1120.36768263 290.082244799 L1120.27092404 289.985486212 L1120.27092404 289.937106918 L1119.78713111 289.937106918 L1119.69037252 289.840348331 L1119.69037252 289.791969037 L1119.35171746 289.791969037 L1119.25495888 289.69521045 L1119.25495888 289.646831156 L1118.77116594 289.646831156 L1118.67440735 289.550072569 L1118.67440735 289.501693275 L1118.19061442 289.501693275 L1118.09385583 289.404934688 L1118.09385583 289.211417513 L1117.75520077 289.211417513 L1117.65844219 289.114658926 L1117.65844219 289.066279632 L1117.02951137 289.066279632 L1116.93275278 288.969521045 L1116.93275278 288.921141751 L1116.59409773 288.921141751 L1116.49733914 288.824383164 L1116.49733914 288.77600387 L1116.0135462 288.77600387 L1115.91678761 288.679245283 L1115.91678761 288.630865989 L1115.43299468 288.630865989 L1115.33623609 288.534107402 L1115.33623609 288.485728108 L1114.85244315 288.485728108 L1114.75568457 288.388969521 L1114.75568457 288.340590227 L1114.41702951 288.340590227 L1114.32027092 288.24383164 L1114.32027092 288.050314465 L1113.83647799 288.050314465 L1113.7397194 287.953555878 L1113.7397194 287.905176584 L1113.25592646 287.905176584 L1113.15916788 287.808417997 L1113.15916788 287.760038703 L1112.67537494 287.760038703 L1112.57861635 287.663280116 L1112.57861635 287.614900822 L1112.09482342 287.614900822 L1111.99806483 287.518142235 L1111.99806483 287.469762941 L1111.65940977 287.469762941 L1111.56265119 287.373004354 L1111.56265119 287.32462506 L1110.93372037 287.32462506 L1110.83696178 287.227866473 L1110.83696178 287.179487179 L1110.49830672 287.179487179 L1110.40154814 287.082728592 L1110.40154814 287.034349299 L1110.06289308 287.034349299 L1109.96613449 286.937590711 L1109.96613449 286.744073537 L1109.33720368 286.744073537 L1109.24044509 286.647314949 L1109.24044509 286.598935656 L1108.90179003 286.598935656 L1108.80503145 286.502177068 L1108.80503145 286.453797775 L1108.17610063 286.453797775 L1108.07934204 286.357039187 L1108.07934204 286.308659894 L1107.74068699 286.308659894 L1107.6439284 286.211901306 L1107.6439284 286.163522013 L1107.16013546 286.163522013 L1107.06337687 286.066763425 L1107.06337687 286.018384132 L1106.57958394 286.018384132 L1106.48282535 285.921625544 L1106.48282535 285.873246251 L1105.99903241 285.873246251 L1105.90227383 285.776487663 L1105.90227383 285.582970489 L1105.56361877 285.582970489 L1105.46686018 285.486211901 L1105.46686018 285.437832608 L1105.12820513 285.437832608 L1105.03144654 285.34107402 L1105.03144654 285.292694727 L1104.40251572 285.292694727 L1104.30575714 285.195936139 L1104.30575714 285.147556846 L1103.96710208 285.147556846 L1103.87034349 285.050798258 L1103.87034349 285.002418965 L1103.38655056 285.002418965 L1103.28979197 284.905660377 L1103.28979197 284.857281084 L1102.95113691 284.857281084 L1102.85437833 284.760522496 L1102.85437833 284.712143203 L1102.22544751 284.712143203 L1102.12868892 284.615384615 L1102.12868892 284.567005322 L1101.79003387 284.567005322 L1101.69327528 284.470246734 L1101.69327528 284.27672956 L1101.35462022 284.27672956 L1101.25786164 284.179970972 L1101.25786164 284.131591679 L1100.7740687 284.131591679 L1100.67731011 284.034833091 L1100.67731011 283.986453798 L1100.33865506 283.986453798 L1100.24189647 283.88969521 L1100.24189647 283.841315917 L1099.75810353 283.841315917 L1099.66134494 283.744557329 L1099.66134494 283.696178036 L1099.17755201 283.696178036 L1099.08079342 283.599419448 L1099.08079342 283.551040155 L1098.59700048 283.551040155 L1098.5002419 283.454281567 L1098.5002419 283.405902274 L1098.16158684 283.405902274 L1098.06482825 283.309143687 L1098.06482825 283.115626512 L1097.7261732 283.115626512 L1097.62941461 283.018867925 L1097.62941461 282.970488631 L1097.14562167 282.970488631 L1097.04886309 282.873730044 L1097.04886309 282.82535075 L1096.71020803 282.82535075 L1096.61344944 282.728592163 L1096.61344944 282.680212869 L1096.41993227 282.680212869 L1096.32317368 282.583454282 L1096.32317368 282.535074988 L1095.83938075 282.535074988 L1095.74262216 282.438316401 L1095.74262216 282.389937107 L1095.4039671 282.389937107 L1095.30720851 282.29317852 L1095.30720851 282.244799226 L1094.82341558 282.244799226 L1094.72665699 282.148040639 L1094.72665699 282.099661345 L1094.38800194 282.099661345 L1094.29124335 282.002902758 L1094.29124335 281.809385583 L1094.09772617 281.809385583 L1094.00096759 281.712626996 L1094.00096759 281.664247702 L1093.51717465 281.664247702 L1093.42041606 281.567489115 L1093.42041606 281.519109821 L1093.22689889 281.519109821 L1093.1301403 281.422351234 L1093.1301403 281.37397194 L1092.79148524 281.37397194 L1092.69472666 281.277213353 L1092.69472666 281.228834059 L1092.3560716 281.228834059 L1092.25931301 281.132075472 L1092.25931301 281.083696178 L1092.06579584 281.083696178 L1091.96903725 280.986937591 L1091.96903725 280.938558297 L1091.6303822 280.938558297 L1091.53362361 280.84179971 L1091.53362361 280.793420416 L1091.19496855 280.793420416 L1091.09820997 280.696661829 L1091.09820997 280.503144654 L1090.90469279 280.503144654 L1090.8079342 280.406386067 L1090.8079342 280.358006773 L1090.75955491 280.358006773 L1090.66279632 280.261248186 L1090.66279632 280.212868892 L1090.46927915 280.212868892 L1090.37252056 280.116110305 L1090.37252056 280.067731011 L1090.32414127 280.067731011 L1090.22738268 279.970972424 L1090.22738268 279.92259313 L1090.17900339 279.92259313 L1090.0822448 279.825834543 L1090.0822448 279.777455249 L1089.88872762 279.777455249 L1089.79196904 279.680696662 L1089.79196904 275.084663764 L1089.88872762 274.987905177 L1090.0822448 274.987905177 L1090.0822448 271.020803096 L1090.17900339 270.924044509 L1090.22738268 270.924044509 L1090.22738268 267.247218191 L1090.32414127 267.150459603 L1090.37252056 267.150459603 L1090.37252056 263.909046928 L1090.46927915 263.812288341 L1090.51765844 263.812288341 L1090.51765844 260.861151427 L1090.61441703 260.76439284 L1090.66279632 260.76439284 L1090.66279632 257.958393807 L1090.75955491 257.86163522 L1090.8079342 257.86163522 L1090.8079342 255.491049831 L1090.90469279 255.394291243 L1090.95307209 255.394291243 L1090.95307209 253.459119497 L1091.04983067 253.36236091 L1091.09820997 253.36236091 L1091.09820997 250.556361877 L1091.19496855 250.45960329 L1091.38848573 250.45960329 L1091.38848573 205.611998065 L1091.19496855 205.611998065 L1091.09820997 205.515239478 L1091.09820997 196.613449444 L1091.04983067 196.613449444 L1090.95307209 196.516690856 L1090.95307209 190.517658442 L1090.90469279 190.517658442 L1090.8079342 190.420899855 L1090.8079342 185.873246251 L1090.75955491 185.873246251 L1090.66279632 185.776487663 L1090.66279632 182.099661345 L1090.61441703 182.099661345 L1090.51765844 182.002902758 L1090.51765844 179.051765844 L1090.46927915 179.051765844 L1090.37252056 178.955007257 L1090.37252056 176.439283986 L1090.32414127 176.439283986 L1090.22738268 176.342525399 L1090.22738268 174.262215772 L1090.17900339 174.262215772 L1090.0822448 174.165457184 L1090.0822448 172.230285438 L1089.88872762 172.230285438 L1089.79196904 172.133526851 L1089.79196904 170.633768747 L1089.74358974 170.633768747 L1089.64683116 170.53701016 L1089.64683116 169.327527818 L1089.59845186 169.327527818 L1089.50169328 169.230769231 L1089.50169328 168.021286889 L1089.45331398 168.021286889 L1089.35655539 167.924528302 L1089.35655539 167.005321722 L1089.3081761 167.005321722 L1089.21141751 166.908563135 L1089.21141751 166.134494436 L1089.16303822 166.134494436 L1089.06627963 166.037735849 L1089.06627963 165.408805031 L1089.01790034 165.408805031 L1088.92114175 165.312046444 L1088.92114175 164.828253507 L1088.72762458 164.828253507 L1088.63086599 164.73149492 L1088.63086599 164.683115627 1088.48572811 164.683115627 " stroke="black" fill="transparent"/>
<path d="M1186.30865989 0.0483792936623 L1186.30865989 0.241896468312 L1200.0 0.241896468312 L1200.0 0.0483792936623 1186.30865989 0.0483792936623 " stroke="black" fill="transparent"/>
<path d="M0.0483792936623 0.0483792936623 L0.0483792936623 0.241896468312 L13.5945815191 0.241896468312 L13.5945815191 0.0483792936623 0.0483792936623 0.0483792936623 " stroke="black" fill="transparent"/>
</svg>