<svg width="1200.0mm" height="343.2510885341074mm" xmlns="http://www.w3.org/2000/svg" fill="transparent" ><path d="M1184.13159168 342.912433478 L1184.13159168 343.057571359 L1184.27672956 343.057571359 L1184.27672956 342.912433478 1184.13159168 342.912433478 " stroke="black" fill="transparent"/>
<path d="M897.048863087 342.912433478 L897.048863087 343.057571359 L897.48427673 343.057571359 L897.48427673 342.912433478 897.048863087 342.912433478 " stroke="black" fill="transparent"/>
<path d="M294.146105467 342.912433478 L294.146105467 343.251088534 L294.58151911 343.251088534 L294.58151911 342.912433478 294.146105467 342.912433478 " stroke="black" fill="transparent"/>
<path d="M7.35365263667 342.912433478 L7.35365263667 343.251088534 L7.49879051766 343.251088534 L7.49879051766 342.912433478 7.35365263667 342.912433478 " stroke="black" fill="transparent"/>
<path d="M102.999516207 158.877600387 L102.999516207 158.925979681 L102.90275762 159.022738268 L102.709240445 159.022738268 L102.709240445 159.506531205 L102.612481858 159.603289792 L102.564102564 159.603289792 L102.564102564 160.23222061 L102.467343977 160.328979197 L102.418964683 160.328979197 L102.418964683 161.103047896 L102.322206096 161.199806483 L102.273826802 161.199806483 L102.273826802 162.119013062 L102.177068215 162.21577165 L102.128688921 162.21577165 L102.128688921 163.425253991 L102.031930334 163.522012579 L101.98355104 163.522012579 L101.98355104 164.73149492 L101.886792453 164.828253507 L101.838413159 164.828253507 L101.838413159 166.328011611 L101.741654572 166.424770198 L101.548137397 166.424770198 L101.548137397 168.359941945 L101.45137881 168.456700532 L101.402999516 168.456700532 L101.402999516 170.53701016 L101.306240929 170.633768747 L101.257861635 170.633768747 L101.257861635 173.149492017 L101.161103048 173.246250605 L101.112723754 173.246250605 L101.112723754 176.197387518 L101.015965167 176.294146105 L100.967585873 176.294146105 L100.967585873 179.970972424 L100.870827286 180.067731011 L100.822447992 180.067731011 L100.822447992 184.615384615 L100.725689405 184.712143203 L100.677310111 184.712143203 L100.677310111 190.711175617 L100.580551524 190.807934204 L100.53217223 190.807934204 L100.53217223 199.709724238 L100.435413643 199.806482825 L100.241896468 199.806482825 L100.241896468 244.65408805 L100.435413643 244.65408805 L100.53217223 244.750846638 L100.53217223 247.55684567 L100.580551524 247.55684567 L100.677310111 247.653604257 L100.677310111 249.588776004 L100.725689405 249.588776004 L100.822447992 249.685534591 L100.822447992 252.056119981 L100.870827286 252.056119981 L100.967585873 252.152878568 L100.967585873 254.9588776 L101.015965167 254.9588776 L101.112723754 255.055636188 L101.112723754 258.006773101 L101.161103048 258.006773101 L101.257861635 258.103531688 L101.257861635 261.344944364 L101.306240929 261.344944364 L101.402999516 261.441702951 L101.402999516 265.118529269 L101.45137881 265.118529269 L101.548137397 265.215287857 L101.548137397 269.182389937 L101.741654572 269.182389937 L101.838413159 269.279148524 L101.838413159 273.875181422 L101.741654572 273.97194001 L101.548137397 273.97194001 L101.548137397 274.020319303 L101.45137881 274.117077891 L101.402999516 274.117077891 L101.402999516 274.165457184 L101.306240929 274.262215772 L101.257861635 274.262215772 L101.257861635 274.310595065 L101.161103048 274.407353653 L100.967585873 274.407353653 L100.967585873 274.455732946 L100.870827286 274.552491534 L100.822447992 274.552491534 L100.822447992 274.600870827 L100.725689405 274.697629415 L100.53217223 274.697629415 L100.53217223 274.891146589 L100.435413643 274.987905177 L100.096758587 274.987905177 L100.096758587 275.03628447 L100.0 275.133043058 L99.6613449444 275.133043058 L99.6613449444 275.181422351 L99.564586357 275.278180939 L99.3710691824 275.278180939 L99.3710691824 275.326560232 L99.2743105951 275.42331882 L98.9356555394 275.42331882 L98.9356555394 275.471698113 L98.8388969521 275.568456701 L98.5002418965 275.568456701 L98.5002418965 275.616835994 L98.4034833091 275.713594582 L98.2099661345 275.713594582 L98.2099661345 275.761973875 L98.1132075472 275.858732463 L97.6294146105 275.858732463 L97.6294146105 275.907111756 L97.5326560232 276.003870343 L97.3391388486 276.003870343 L97.3391388486 276.197387518 L97.2423802612 276.294146105 L96.9037252056 276.294146105 L96.9037252056 276.342525399 L96.8069666183 276.439283986 L96.3231736817 276.439283986 L96.3231736817 276.48766328 L96.2264150943 276.584421867 L95.8877600387 276.584421867 L95.8877600387 276.632801161 L95.7910014514 276.729559748 L95.3072085148 276.729559748 L95.3072085148 276.777939042 L95.2104499274 276.874697629 L95.0169327528 276.874697629 L95.0169327528 276.923076923 L94.9201741655 277.01983551 L94.5815191098 277.01983551 L94.5815191098 277.068214804 L94.4847605225 277.164973391 L94.0009675859 277.164973391 L94.0009675859 277.213352685 L93.9042089985 277.310111272 L93.5655539429 277.310111272 L93.5655539429 277.503628447 L93.4687953556 277.600387034 L93.1301403 277.600387034 L93.1301403 277.648766328 L93.0333817126 277.745524915 L92.549588776 277.745524915 L92.549588776 277.793904209 L92.4528301887 277.890662796 L91.9690372521 277.890662796 L91.9690372521 277.93904209 L91.8722786647 278.035800677 L91.3884857281 278.035800677 L91.3884857281 278.084179971 L91.2917271408 278.180938558 L90.9530720851 278.180938558 L90.9530720851 278.229317852 L90.8563134978 278.326076439 L90.3725205612 278.326076439 L90.3725205612 278.374455733 L90.2757619739 278.47121432 L89.9371069182 278.47121432 L89.9371069182 278.664731495 L89.8403483309 278.761490082 L89.5016932753 278.761490082 L89.5016932753 278.809869376 L89.404934688 278.906627963 L88.7760038703 278.906627963 L88.7760038703 278.955007257 L88.679245283 279.051765844 L88.3405902274 279.051765844 L88.3405902274 279.100145138 L88.2438316401 279.196903725 L87.7600387034 279.196903725 L87.7600387034 279.245283019 L87.6632801161 279.342041606 L87.3246250605 279.342041606 L87.3246250605 279.3904209 L87.2278664731 279.487179487 L86.5989356555 279.487179487 L86.5989356555 279.535558781 L86.5021770682 279.632317368 L86.1635220126 279.632317368 L86.1635220126 279.680696662 L86.0667634253 279.777455249 L85.7281083696 279.777455249 L85.7281083696 279.970972424 L85.6313497823 280.067731011 L85.1475568457 280.067731011 L85.1475568457 280.116110305 L85.0507982583 280.212868892 L84.5670053217 280.212868892 L84.5670053217 280.261248186 L84.4702467344 280.358006773 L83.9864537978 280.358006773 L83.9864537978 280.406386067 L83.8896952104 280.503144654 L83.5510401548 280.503144654 L83.5510401548 280.551523948 L83.4542815675 280.648282535 L82.8253507499 280.648282535 L82.8253507499 280.696661829 L82.7285921626 280.793420416 L82.3899371069 280.793420416 L82.3899371069 280.84179971 L82.2931785196 280.938558297 L81.664247702 280.938558297 L81.664247702 281.132075472 L81.5674891147 281.228834059 L81.228834059 281.228834059 L81.228834059 281.277213353 L81.1320754717 281.37397194 L80.7934204161 281.37397194 L80.7934204161 281.422351234 L80.6966618287 281.519109821 L80.0677310111 281.519109821 L80.0677310111 281.567489115 L79.9709724238 281.664247702 L79.6323173682 281.664247702 L79.6323173682 281.712626996 L79.5355587808 281.809385583 L79.0517658442 281.809385583 L79.0517658442 281.857764877 L78.9550072569 281.954523464 L78.4712143203 281.954523464 L78.4712143203 282.002902758 L78.3744557329 282.099661345 L77.8906627963 282.099661345 L77.8906627963 282.148040639 L77.793904209 282.244799226 L77.3101112724 282.244799226 L77.3101112724 282.438316401 L77.2133526851 282.535074988 L76.8746976294 282.535074988 L76.8746976294 282.583454282 L76.7779390421 282.680212869 L76.2941461055 282.680212869 L76.2941461055 282.728592163 L76.1973875181 282.82535075 L75.7135945815 282.82535075 L75.7135945815 282.873730044 L75.6168359942 282.970488631 L75.1330430576 282.970488631 L75.1330430576 283.018867925 L75.0362844702 283.115626512 L74.6976294146 283.115626512 L74.6976294146 283.164005806 L74.6008708273 283.260764393 L73.9719400097 283.260764393 L73.9719400097 283.309143687 L73.8751814224 283.405902274 L73.5365263667 283.405902274 L73.5365263667 283.599419448 L73.4397677794 283.696178036 L72.9559748428 283.696178036 L72.9559748428 283.744557329 L72.8592162554 283.841315917 L72.3754233188 283.841315917 L72.3754233188 283.88969521 L72.2786647315 283.986453798 L71.9400096759 283.986453798 L71.9400096759 284.034833091 L71.8432510885 284.131591679 L71.3594581519 284.131591679 L71.3594581519 284.179970972 L71.2626995646 284.27672956 L70.924044509 284.27672956 L70.924044509 284.325108853 L70.8272859216 284.421867441 L70.343492985 284.421867441 L70.343492985 284.470246734 L70.2467343977 284.567005322 L69.908079342 284.567005322 L69.908079342 284.615384615 L69.8113207547 284.712143203 L69.4726656991 284.712143203 L69.4726656991 284.905660377 L69.3759071118 285.002418965 L68.8921141751 285.002418965 L68.8921141751 285.050798258 L68.7953555878 285.147556846 L68.4567005322 285.147556846 L68.4567005322 285.195936139 L68.3599419448 285.292694727 L68.1664247702 285.292694727 L68.1664247702 285.34107402 L68.0696661829 285.437832608 L67.7310111272 285.437832608 L67.7310111272 285.486211901 L67.6342525399 285.582970489 L67.4407353653 285.582970489 L67.4407353653 285.631349782 L67.3439767779 285.72810837 L67.2955974843 285.72810837 L67.2955974843 285.776487663 L67.198838897 285.873246251 L67.0053217223 285.873246251 L67.0053217223 286.066763425 L66.908563135 286.163522013 L66.7150459603 286.163522013 L66.7150459603 286.211901306 L66.618287373 286.308659894 L66.5699080793 286.308659894 L66.5699080793 286.357039187 L66.473149492 286.453797775 L66.4247701984 286.453797775 L66.4247701984 286.502177068 L66.328011611 286.598935656 L66.2796323174 286.598935656 L66.2796323174 286.79245283 L66.18287373 286.889211418 L66.1344944364 286.889211418 L66.1344944364 286.937590711 L66.0377358491 287.034349299 L65.9893565554 287.034349299 L65.9893565554 287.373004354 L65.8925979681 287.469762941 L65.8442186744 287.469762941 L65.8442186744 287.518142235 L65.7474600871 287.614900822 L65.6990807934 287.614900822 L65.6990807934 287.953555878 L65.6023222061 288.050314465 L65.4088050314 288.050314465 L65.4088050314 288.24383164 L65.3120464441 288.340590227 L65.2636671505 288.340590227 L65.2636671505 288.824383164 L65.1669085631 288.921141751 L65.1185292695 288.921141751 L65.1185292695 289.550072569 L65.0217706821 289.646831156 L64.9733913885 289.646831156 L64.9733913885 291.436865022 L64.8766328012 291.533623609 L64.8282535075 291.533623609 L64.8282535075 292.549588776 L64.8766328012 292.549588776 L64.9733913885 292.646347363 L64.9733913885 294.871794872 L65.0217706821 294.871794872 L65.1185292695 294.968553459 L65.1185292695 296.178035801 L65.1669085631 296.178035801 L65.2636671505 296.274794388 L65.2636671505 297.339138849 L65.3120464441 297.339138849 L65.4088050314 297.435897436 L65.4088050314 298.500241896 L65.6023222061 298.500241896 L65.6990807934 298.597000484 L65.6990807934 299.371069182 L65.7474600871 299.371069182 L65.8442186744 299.46782777 L65.8442186744 300.53217223 L65.8925979681 300.53217223 L65.9893565554 300.628930818 L65.9893565554 301.838413159 L66.0377358491 301.838413159 L66.1344944364 301.935171746 L66.1344944364 302.999516207 L66.18287373 302.999516207 L66.2796323174 303.096274794 L66.2796323174 303.870343493 L66.328011611 303.870343493 L66.4247701984 303.96710208 L66.4247701984 304.450895017 L66.473149492 304.450895017 L66.5699080793 304.547653604 L66.5699080793 305.031446541 L66.618287373 305.031446541 L66.7150459603 305.128205128 L66.7150459603 305.466860184 L66.908563135 305.466860184 L67.0053217223 305.563618771 L67.0053217223 305.902273827 L67.053701016 305.902273827 L67.1504596033 305.999032414 L67.1504596033 306.192549589 L67.198838897 306.192549589 L67.2955974843 306.289308176 L67.2955974843 306.482825351 L67.3439767779 306.482825351 L67.4407353653 306.579583938 L67.4407353653 306.773101113 L67.4891146589 306.773101113 L67.5858732463 306.8698597 L67.5858732463 306.918238994 L67.6342525399 306.918238994 L67.7310111272 307.014997581 L67.7310111272 307.208514756 L67.7793904209 307.208514756 L67.8761490082 307.305273343 L67.8761490082 307.498790518 L68.0696661829 307.498790518 L68.1664247702 307.595549105 L68.1664247702 307.643928399 L68.2148040639 307.643928399 L68.3115626512 307.740686986 L68.3115626512 307.78906628 L68.3599419448 307.78906628 L68.4567005322 307.885824867 L68.4567005322 307.934204161 L68.5050798258 307.934204161 L68.6018384132 308.030962748 L68.6018384132 308.079342042 L68.7953555878 308.079342042 L68.8921141751 308.176100629 L68.8921141751 308.224479923 L68.9404934688 308.224479923 L69.0372520561 308.32123851 L69.0372520561 308.514755685 L69.3759071118 308.514755685 L69.4726656991 308.611514272 L69.4726656991 308.659893566 L69.5210449927 308.659893566 L69.6178035801 308.756652153 L69.6178035801 308.805031447 L69.8113207547 308.805031447 L69.908079342 308.901790034 L69.908079342 308.950169328 L70.2467343977 308.950169328 L70.343492985 309.046927915 L70.343492985 309.095307209 L70.6821480406 309.095307209 L70.778906628 309.192065796 L70.778906628 309.24044509 L71.1175616836 309.24044509 L71.2143202709 309.337203677 L71.2143202709 309.38558297 L71.8432510885 309.38558297 L71.9400096759 309.482341558 L71.9400096759 309.675858732 L72.4238026125 309.675858732 L72.5205611998 309.77261732 L72.5205611998 309.820996613 L73.1494920174 309.820996613 L73.2462506047 309.917755201 L73.2462506047 309.966134494 L73.8751814224 309.966134494 L73.9719400097 310.062893082 L73.9719400097 310.111272375 L74.8911465893 310.111272375 L74.9879051766 310.208030963 L74.9879051766 310.256410256 L75.9071117562 310.256410256 L76.0038703435 310.353168844 L76.0038703435 310.401548137 L77.0682148041 310.401548137 L77.1649733914 310.498306725 L77.1649733914 310.546686018 L78.084179971 310.546686018 L78.1809385583 310.643444606 L78.1809385583 310.691823899 L79.2452830189 310.691823899 L79.3420416062 310.788582487 L79.3420416062 310.982099661 L80.1161103048 310.982099661 L80.2128688921 311.078858249 L80.2128688921 311.127237542 L81.2772133527 311.127237542 L81.37397194 311.22399613 L81.37397194 311.272375423 L82.2931785196 311.272375423 L82.3899371069 311.369134011 L82.3899371069 311.417513304 L83.4542815675 311.417513304 L83.5510401548 311.514271892 L83.5510401548 311.562651185 L84.6153846154 311.562651185 L84.7121432027 311.659409773 L84.7121432027 311.707789066 L85.6313497823 311.707789066 L85.7281083696 311.804547654 L85.7281083696 311.852926947 L86.7924528302 311.852926947 L86.8892114175 311.949685535 L86.8892114175 312.143202709 L87.9535558781 312.143202709 L88.0503144654 312.239961297 L88.0503144654 312.28834059 L88.969521045 312.28834059 L89.0662796323 312.385099178 L89.0662796323 312.433478471 L89.9854862119 312.433478471 L90.0822447992 312.530237059 L90.0822447992 312.578616352 L91.1465892598 312.578616352 L91.2433478471 312.67537494 L91.2433478471 312.723754233 L92.3076923077 312.723754233 L92.404450895 312.820512821 L92.404450895 312.868892114 L93.4687953556 312.868892114 L93.5655539429 312.965650701 L93.5655539429 313.014029995 L94.6298984035 313.014029995 L94.7266569908 313.110788582 L94.7266569908 313.159167876 L95.7910014514 313.159167876 L95.8877600387 313.255926463 L95.8877600387 313.449443638 L96.8069666183 313.449443638 L96.9037252056 313.546202225 L96.9037252056 313.594581519 L97.9680696662 313.594581519 L98.0648282535 313.691340106 L98.0648282535 313.7397194 L99.1291727141 313.7397194 L99.2259313014 313.836477987 L99.2259313014 313.884857281 L100.145137881 313.884857281 L100.241896468 313.981615868 L100.241896468 314.029995162 L101.306240929 314.029995162 L101.402999516 314.126753749 L101.402999516 314.175133043 L102.467343977 314.175133043 L102.564102564 314.27189163 L102.564102564 314.320270924 L103.628447025 314.320270924 L103.725205612 314.417029511 L103.725205612 314.610546686 L104.789550073 314.610546686 L104.88630866 314.707305273 L104.88630866 314.755684567 L105.95065312 314.755684567 L106.047411708 314.852443154 L106.047411708 314.900822448 L106.966618287 314.900822448 L107.063376875 314.997581035 L107.063376875 315.045960329 L108.127721335 315.045960329 L108.224479923 315.142718916 L108.224479923 315.19109821 L109.288824383 315.19109821 L109.38558297 315.287856797 L109.38558297 315.336236091 L110.449927431 315.336236091 L110.546686018 315.432994678 L110.546686018 315.481373972 L111.611030479 315.481373972 L111.707789066 315.578132559 L111.707789066 315.626511853 L112.626995646 315.626511853 L112.723754233 315.72327044 L112.723754233 315.916787615 L113.788098694 315.916787615 L113.884857281 316.013546202 L113.884857281 316.061925496 L114.804063861 316.061925496 L114.900822448 316.158684083 L114.900822448 316.207063377 L116.11030479 316.207063377 L116.207063377 316.303821964 L116.207063377 316.352201258 L117.416545718 316.352201258 L117.513304306 316.448959845 L117.513304306 316.497339139 L119.448476052 316.497339139 L119.54523464 316.594097726 L119.54523464 316.64247702 L127.818093856 316.64247702 L127.818093856 316.594097726 L127.914852443 316.497339139 L129.704886309 316.497339139 L129.704886309 316.448959845 L129.801644896 316.352201258 L131.156265119 316.352201258 L131.156265119 316.303821964 L131.253023706 316.207063377 L132.317368166 316.207063377 L132.317368166 316.158684083 L132.414126754 316.061925496 L133.333333333 316.061925496 L133.333333333 316.013546202 L133.430091921 315.916787615 L134.059022738 315.916787615 L134.059022738 315.72327044 L134.155781326 315.626511853 L134.639574262 315.626511853 L134.639574262 315.578132559 L134.73633285 315.481373972 L135.365263667 315.481373972 L135.365263667 315.432994678 L135.462022254 315.336236091 L136.090953072 315.336236091 L136.090953072 315.287856797 L136.187711659 315.19109821 L136.816642477 315.19109821 L136.816642477 315.142718916 L136.913401064 315.045960329 L137.687469763 315.045960329 L137.687469763 314.997581035 L137.78422835 314.900822448 L138.268021287 314.900822448 L138.268021287 314.852443154 L138.364779874 314.755684567 L139.138848573 314.755684567 L139.138848573 314.707305273 L139.23560716 314.610546686 L139.719400097 314.610546686 L139.719400097 314.417029511 L139.816158684 314.320270924 L140.590227383 314.320270924 L140.590227383 314.27189163 L140.68698597 314.175133043 L141.461054669 314.175133043 L141.461054669 314.126753749 L141.557813256 314.029995162 L142.041606193 314.029995162 L142.041606193 313.981615868 L142.13836478 313.884857281 L142.912433478 313.884857281 L142.912433478 313.836477987 L143.009192066 313.7397194 L143.638122883 313.7397194 L143.638122883 313.691340106 L143.734881471 313.594581519 L144.508950169 313.594581519 L144.508950169 313.546202225 L144.605708757 313.449443638 L145.379777455 313.449443638 L145.379777455 313.255926463 L145.476536043 313.159167876 L145.960328979 313.159167876 L145.960328979 313.110788582 L146.057087567 313.014029995 L146.831156265 313.014029995 L146.831156265 312.965650701 L146.927914852 312.868892114 L147.701983551 312.868892114 L147.701983551 312.820512821 L147.798742138 312.723754233 L148.427672956 312.723754233 L148.427672956 312.67537494 L148.524431543 312.578616352 L149.298500242 312.578616352 L149.298500242 312.530237059 L149.395258829 312.433478471 L150.169327528 312.433478471 L150.169327528 312.385099178 L150.266086115 312.28834059 L150.895016933 312.28834059 L150.895016933 312.239961297 L150.99177552 312.143202709 L151.620706338 312.143202709 L151.620706338 311.949685535 L151.717464925 311.852926947 L152.346395743 311.852926947 L152.346395743 311.804547654 L152.44315433 311.707789066 L153.217223029 311.707789066 L153.217223029 311.659409773 L153.313981616 311.562651185 L154.088050314 311.562651185 L154.088050314 311.514271892 L154.184808902 311.417513304 L154.813739719 311.417513304 L154.813739719 311.369134011 L154.910498307 311.272375423 L155.684567005 311.272375423 L155.684567005 311.22399613 L155.781325593 311.127237542 L156.555394291 311.127237542 L156.555394291 311.078858249 L156.652152879 310.982099661 L157.281083696 310.982099661 L157.281083696 310.788582487 L157.377842284 310.691823899 L158.151910982 310.691823899 L158.151910982 310.643444606 L158.248669569 310.546686018 L159.022738268 310.546686018 L159.022738268 310.498306725 L159.119496855 310.401548137 L159.748427673 310.401548137 L159.748427673 310.353168844 L159.84518626 310.256410256 L160.619254959 310.256410256 L160.619254959 310.208030963 L160.716013546 310.111272375 L161.490082245 310.111272375 L161.490082245 310.062893082 L161.586840832 309.966134494 L162.21577165 309.966134494 L162.21577165 309.917755201 L162.312530237 309.820996613 L163.086598936 309.820996613 L163.086598936 309.77261732 L163.183357523 309.675858732 L163.957426222 309.675858732 L163.957426222 309.482341558 L164.054184809 309.38558297 L164.683115627 309.38558297 L164.683115627 309.337203677 L164.779874214 309.24044509 L165.553942912 309.24044509 L165.553942912 309.192065796 L165.6507015 309.095307209 L166.424770198 309.095307209 L166.424770198 309.046927915 L166.521528786 308.950169328 L167.150459603 308.950169328 L167.150459603 308.901790034 L167.247218191 308.805031447 L168.021286889 308.805031447 L168.021286889 308.756652153 L168.118045477 308.659893566 L168.892114175 308.659893566 L168.892114175 308.611514272 L168.988872762 308.514755685 L169.61780358 308.514755685 L169.61780358 308.32123851 L169.714562167 308.224479923 L170.488630866 308.224479923 L170.488630866 308.176100629 L170.585389453 308.079342042 L171.359458152 308.079342042 L171.359458152 308.030962748 L171.456216739 307.934204161 L172.085147557 307.934204161 L172.085147557 307.885824867 L172.181906144 307.78906628 L172.955974843 307.78906628 L172.955974843 307.740686986 L173.05273343 307.643928399 L173.97194001 307.643928399 L173.97194001 307.595549105 L174.068698597 307.498790518 L174.697629415 307.498790518 L174.697629415 307.450411224 L174.794388002 307.353652637 L175.568456701 307.353652637 L175.568456701 307.305273343 L175.665215288 307.208514756 L176.439283986 307.208514756 L176.439283986 307.014997581 L176.536042574 306.918238994 L177.164973391 306.918238994 L177.164973391 306.8698597 L177.261731979 306.773101113 L178.035800677 306.773101113 L178.035800677 306.724721819 L178.132559265 306.627963232 L178.906627963 306.627963232 L178.906627963 306.579583938 L179.003386551 306.482825351 L179.632317368 306.482825351 L179.632317368 306.434446057 L179.729075955 306.33768747 L180.503144654 306.33768747 L180.503144654 306.289308176 L180.599903241 306.192549589 L181.37397194 306.192549589 L181.37397194 306.144170295 L181.470730527 306.047411708 L182.099661345 306.047411708 L182.099661345 305.999032414 L182.196419932 305.902273827 L183.115626512 305.902273827 L183.115626512 305.708756652 L183.212385099 305.611998065 L183.986453798 305.611998065 L183.986453798 305.563618771 L184.083212385 305.466860184 L184.857281084 305.466860184 L184.857281084 305.41848089 L184.954039671 305.321722303 L185.582970489 305.321722303 L185.582970489 305.273343009 L185.679729076 305.176584422 L186.453797775 305.176584422 L186.453797775 305.128205128 L186.550556362 305.031446541 L187.179487179 305.031446541 L187.179487179 304.983067247 L187.276245767 304.88630866 L188.050314465 304.88630866 L188.050314465 304.837929366 L188.147073053 304.741170779 L188.921141751 304.741170779 L188.921141751 304.547653604 L189.017900339 304.450895017 L189.937106918 304.450895017 L189.937106918 304.402515723 L190.033865506 304.305757136 L190.662796323 304.305757136 L190.662796323 304.257377842 L190.75955491 304.160619255 L191.533623609 304.160619255 L191.533623609 304.112239961 L191.630382196 304.015481374 L192.404450895 304.015481374 L192.404450895 303.96710208 L192.501209482 303.870343493 L193.1301403 303.870343493 L193.1301403 303.821964199 L193.226898887 303.725205612 L194.000967586 303.725205612 L194.000967586 303.676826318 L194.097726173 303.580067731 L194.871794872 303.580067731 L194.871794872 303.531688437 L194.968553459 303.43492985 L195.742622158 303.43492985 L195.742622158 303.241412675 L195.839380745 303.144654088 L196.613449444 303.144654088 L196.613449444 303.096274794 L196.710208031 302.999516207 L197.48427673 302.999516207 L197.48427673 302.951136913 L197.581035317 302.854378326 L198.209966134 302.854378326 L198.209966134 302.805999032 L198.306724722 302.709240445 L199.08079342 302.709240445 L199.08079342 302.660861151 L199.177552008 302.564102564 L199.951620706 302.564102564 L199.951620706 302.51572327 L200.048379294 302.418964683 L200.822447992 302.418964683 L200.822447992 302.370585389 L200.91920658 302.273826802 L201.838413159 302.273826802 L201.838413159 302.080309627 L201.935171746 301.98355104 L202.564102564 301.98355104 L202.564102564 301.935171746 L202.660861151 301.838413159 L203.144654088 301.838413159 L203.144654088 301.790033866 L203.241412675 301.693275278 L203.870343493 301.693275278 L203.870343493 301.644895985 L203.96710208 301.548137397 L204.305757136 301.548137397 L204.305757136 301.499758104 L204.402515723 301.402999516 L204.88630866 301.402999516 L204.88630866 301.354620223 L204.983067247 301.257861635 L205.176584422 301.257861635 L205.176584422 301.209482342 L205.273343009 301.112723754 L205.466860184 301.112723754 L205.466860184 301.064344461 L205.563618771 300.967585873 L206.047411708 300.967585873 L206.047411708 300.774068699 L206.144170295 300.677310111 L206.33768747 300.677310111 L206.33768747 300.628930818 L206.434446057 300.53217223 L206.482825351 300.53217223 L206.482825351 300.483792937 L206.579583938 300.387034349 L206.773101113 300.387034349 L206.773101113 300.338655056 L206.8698597 300.241896468 L206.918238994 300.241896468 L206.918238994 300.193517175 L207.014997581 300.096758587 L207.353652637 300.096758587 L207.353652637 300.048379294 L207.450411224 299.951620706 L207.498790518 299.951620706 L207.498790518 299.903241413 L207.595549105 299.806482825 L207.643928399 299.806482825 L207.643928399 299.612965651 L207.740686986 299.516207063 L207.934204161 299.516207063 L207.934204161 299.46782777 L208.030962748 299.371069182 L208.079342042 299.371069182 L208.079342042 299.322689889 L208.176100629 299.225931301 L208.224479923 299.225931301 L208.224479923 299.177552008 L208.32123851 299.08079342 L208.514755685 299.08079342 L208.514755685 298.887276246 L208.611514272 298.790517658 L208.659893566 298.790517658 L208.659893566 298.742138365 L208.756652153 298.645379777 L208.805031447 298.645379777 L208.805031447 298.597000484 L208.901790034 298.500241896 L208.950169328 298.500241896 L208.950169328 298.161586841 L209.046927915 298.064828254 L209.095307209 298.064828254 L209.095307209 297.871311079 L209.192065796 297.774552492 L209.24044509 297.774552492 L209.24044509 297.581035317 L209.337203677 297.48427673 L209.38558297 297.48427673 L209.38558297 296.855345912 L209.482341558 296.758587325 L209.530720851 296.758587325 L209.530720851 295.549104983 L209.627479439 295.452346396 L209.820996613 295.452346396 L209.820996613 295.11369134 L209.917755201 295.016932753 L209.966134494 295.016932753 L209.966134494 294.388001935 L210.062893082 294.291243348 L210.111272375 294.291243348 L210.111272375 293.372036768 L210.208030963 293.275278181 L210.256410256 293.275278181 L210.256410256 290.953072085 L210.208030963 290.953072085 L210.111272375 290.856313498 L210.111272375 290.372520561 L210.062893082 290.372520561 L209.966134494 290.275761974 L209.966134494 289.937106918 L209.917755201 289.937106918 L209.820996613 289.840348331 L209.820996613 289.501693275 L209.627479439 289.501693275 L209.530720851 289.404934688 L209.530720851 289.211417513 L209.482341558 289.211417513 L209.38558297 289.114658926 L209.38558297 288.921141751 L209.337203677 288.921141751 L209.24044509 288.824383164 L209.24044509 288.77600387 L209.192065796 288.77600387 L209.095307209 288.679245283 L209.095307209 288.485728108 L209.046927915 288.485728108 L208.950169328 288.388969521 L208.950169328 288.195452346 L208.901790034 288.195452346 L208.805031447 288.098693759 L208.805031447 288.050314465 L208.756652153 288.050314465 L208.659893566 287.953555878 L208.659893566 287.905176584 L208.611514272 287.905176584 L208.514755685 287.808417997 L208.514755685 287.760038703 L208.32123851 287.760038703 L208.224479923 287.663280116 L208.224479923 287.614900822 L208.176100629 287.614900822 L208.079342042 287.518142235 L208.079342042 287.469762941 L208.030962748 287.469762941 L207.934204161 287.373004354 L207.934204161 287.179487179 L207.885824867 287.179487179 L207.78906628 287.082728592 L207.78906628 287.034349299 L207.740686986 287.034349299 L207.643928399 286.937590711 L207.643928399 286.889211418 L207.595549105 286.889211418 L207.498790518 286.79245283 L207.498790518 286.744073537 L207.160135462 286.744073537 L207.063376875 286.647314949 L207.063376875 286.598935656 L207.014997581 286.598935656 L206.918238994 286.502177068 L206.918238994 286.453797775 L206.8698597 286.453797775 L206.773101113 286.357039187 L206.773101113 286.308659894 L206.724721819 286.308659894 L206.627963232 286.211901306 L206.627963232 286.163522013 L206.434446057 286.163522013 L206.33768747 286.066763425 L206.33768747 285.873246251 L206.289308176 285.873246251 L206.192549589 285.776487663 L206.192549589 285.72810837 L206.144170295 285.72810837 L206.047411708 285.631349782 L206.047411708 285.582970489 L205.708756652 285.582970489 L205.611998065 285.486211901 L205.611998065 285.437832608 L205.563618771 285.437832608 L205.466860184 285.34107402 L205.466860184 285.292694727 L205.41848089 285.292694727 L205.321722303 285.195936139 L205.321722303 285.147556846 L205.128205128 285.147556846 L205.031446541 285.050798258 L205.031446541 285.002418965 L204.983067247 285.002418965 L204.88630866 284.905660377 L204.88630866 284.712143203 L204.837929366 284.712143203 L204.741170779 284.615384615 L204.741170779 284.567005322 L204.402515723 284.567005322 L204.305757136 284.470246734 L204.305757136 284.421867441 L204.257377842 284.421867441 L204.160619255 284.325108853 L204.160619255 284.27672956 L204.112239961 284.27672956 L204.015481374 284.179970972 L204.015481374 284.131591679 L203.821964199 284.131591679 L203.725205612 284.034833091 L203.725205612 283.986453798 L203.676826318 283.986453798 L203.580067731 283.88969521 L203.580067731 283.841315917 L203.386550556 283.841315917 L203.289791969 283.744557329 L203.289791969 283.696178036 L203.096274794 283.696178036 L202.999516207 283.599419448 L202.999516207 283.405902274 L202.951136913 283.405902274 L202.854378326 283.309143687 L202.854378326 283.260764393 L202.805999032 283.260764393 L202.709240445 283.164005806 L202.709240445 283.115626512 L202.51572327 283.115626512 L202.418964683 283.018867925 L202.418964683 282.970488631 L202.370585389 282.970488631 L202.273826802 282.873730044 L202.273826802 282.82535075 L202.080309627 282.82535075 L201.98355104 282.728592163 L201.98355104 282.680212869 L201.790033866 282.680212869 L201.693275278 282.583454282 L201.693275278 282.535074988 L201.644895985 282.535074988 L201.548137397 282.438316401 L201.548137397 282.244799226 L201.499758104 282.244799226 L201.402999516 282.148040639 L201.402999516 282.099661345 L201.354620223 282.099661345 L201.257861635 282.002902758 L201.257861635 281.954523464 L200.91920658 281.954523464 L200.822447992 281.857764877 L200.822447992 281.809385583 L200.774068699 281.809385583 L200.677310111 281.712626996 L200.677310111 281.664247702 L200.628930818 281.664247702 L200.53217223 281.567489115 L200.53217223 281.519109821 L200.338655056 281.519109821 L200.241896468 281.422351234 L200.241896468 281.37397194 L200.193517175 281.37397194 L200.096758587 281.277213353 L200.096758587 281.228834059 L200.048379294 281.228834059 L199.951620706 281.132075472 L199.951620706 280.938558297 L199.903241413 280.938558297 L199.806482825 280.84179971 L199.806482825 280.793420416 L199.612965651 280.793420416 L199.516207063 280.696661829 L199.516207063 280.648282535 L199.322689889 280.648282535 L199.225931301 280.551523948 L199.225931301 280.503144654 L199.177552008 280.503144654 L199.08079342 280.406386067 L199.08079342 280.358006773 L199.032414127 280.358006773 L198.935655539 280.261248186 L198.935655539 280.212868892 L198.887276246 280.212868892 L198.790517658 280.116110305 L198.790517658 280.067731011 L198.451862603 280.067731011 L198.355104015 279.970972424 L198.355104015 279.777455249 L198.306724722 279.777455249 L198.209966134 279.680696662 L198.209966134 279.632317368 L198.161586841 279.632317368 L198.064828254 279.535558781 L198.064828254 279.487179487 L198.01644896 279.487179487 L197.919690373 279.3904209 L197.919690373 279.342041606 L197.726173198 279.342041606 L197.629414611 279.245283019 L197.629414611 279.196903725 L197.581035317 279.196903725 L197.48427673 279.100145138 L197.48427673 279.051765844 L197.435897436 279.051765844 L197.339138849 278.955007257 L197.339138849 278.906627963 L197.145621674 278.906627963 L197.048863087 278.809869376 L197.048863087 278.761490082 L196.855345912 278.761490082 L196.758587325 278.664731495 L196.758587325 278.47121432 L196.710208031 278.47121432 L196.613449444 278.374455733 L196.613449444 278.326076439 L196.56507015 278.326076439 L196.468311563 278.229317852 L196.468311563 278.180938558 L196.274794388 278.180938558 L196.178035801 278.084179971 L196.178035801 278.035800677 L196.129656507 278.035800677 L196.03289792 277.93904209 L196.03289792 277.890662796 L195.694242864 277.890662796 L195.597484277 277.793904209 L195.597484277 277.745524915 L195.549104983 277.745524915 L195.452346396 277.648766328 L195.452346396 277.600387034 L195.403967102 277.600387034 L195.307208515 277.503628447 L195.307208515 277.310111272 L195.11369134 277.310111272 L195.016932753 277.213352685 L195.016932753 277.164973391 L194.968553459 277.164973391 L194.871794872 277.068214804 L194.871794872 277.01983551 L194.533139816 277.01983551 L194.436381229 276.923076923 L194.436381229 276.874697629 L194.388001935 276.874697629 L194.291243348 276.777939042 L194.291243348 276.729559748 L194.097726173 276.729559748 L194.000967586 276.632801161 L194.000967586 276.584421867 L193.952588292 276.584421867 L193.855829705 276.48766328 L193.855829705 276.439283986 L193.66231253 276.439283986 L193.565553943 276.342525399 L193.565553943 276.294146105 L193.226898887 276.294146105 L193.1301403 276.197387518 L193.1301403 276.003870343 L193.081761006 276.003870343 L192.985002419 275.907111756 L192.985002419 275.858732463 L192.791485244 275.858732463 L192.694726657 275.761973875 L192.694726657 275.713594582 L192.501209482 275.713594582 L192.404450895 275.616835994 L192.404450895 275.568456701 L192.21093372 275.568456701 L192.114175133 275.471698113 L192.114175133 275.42331882 L191.920657958 275.42331882 L191.823899371 275.326560232 L191.823899371 275.278180939 L191.630382196 275.278180939 L191.533623609 275.181422351 L191.533623609 275.133043058 L191.340106434 275.133043058 L191.243347847 275.03628447 L191.243347847 274.987905177 L190.904692791 274.987905177 L190.807934204 274.891146589 L190.807934204 274.697629415 L190.61441703 274.697629415 L190.517658442 274.600870827 L190.517658442 274.552491534 L190.324141268 274.552491534 L190.22738268 274.455732946 L190.22738268 274.407353653 L190.033865506 274.407353653 L189.937106918 274.310595065 L189.937106918 274.262215772 L189.598451863 274.262215772 L189.501693275 274.165457184 L189.501693275 274.117077891 L189.308176101 274.117077891 L189.211417513 274.020319303 L189.211417513 273.97194001 L188.872762458 273.97194001 L188.77600387 273.875181422 L188.77600387 273.826802129 L188.437348815 273.826802129 L188.340590227 273.730043541 L188.340590227 273.536526367 L188.001935172 273.536526367 L187.905176584 273.439767779 L187.905176584 273.391388486 L187.71165941 273.391388486 L187.614900822 273.294629898 L187.614900822 273.246250605 L187.131107886 273.246250605 L187.034349299 273.149492017 L187.034349299 273.101112724 L186.695694243 273.101112724 L186.598935656 273.004354136 L186.598935656 272.955974843 L186.2602806 272.955974843 L186.163522013 272.859216255 L186.163522013 272.810836962 L185.534591195 272.810836962 L185.437832608 272.714078374 L185.437832608 272.665699081 L185.099177552 272.665699081 L185.002418965 272.568940493 L185.002418965 272.5205612 L184.373488147 272.5205612 L184.27672956 272.423802612 L184.27672956 272.230285438 L183.938074504 272.230285438 L183.841315917 272.133526851 L183.841315917 272.085147557 L183.212385099 272.085147557 L183.115626512 271.98838897 L183.115626512 271.940009676 L182.776971456 271.940009676 L182.680212869 271.843251089 L182.680212869 271.794871795 L181.761006289 271.794871795 L181.664247702 271.698113208 L181.664247702 271.649733914 L179.438800194 271.649733914 L179.342041606 271.552975327 L179.342041606 271.504596033 L161.199806483 271.504596033 L161.199806483 271.552975327 L161.103047896 271.649733914 L154.088050314 271.649733914 L154.088050314 271.698113208 L153.991291727 271.794871795 L148.427672956 271.794871795 L148.427672956 271.843251089 L148.330914369 271.940009676 L147.073052733 271.940009676 L146.976294146 271.843251089 L146.976294146 271.794871795 L145.911949686 271.794871795 L145.815191098 271.698113208 L145.815191098 271.649733914 L145.331398162 271.649733914 L145.234639574 271.552975327 L145.234639574 271.504596033 L144.750846638 271.504596033 L144.65408805 271.407837446 L144.65408805 271.359458152 L144.460570876 271.359458152 L144.363812288 271.262699565 L144.363812288 271.06918239 L144.170295114 271.06918239 L144.073536526 270.972423803 L144.073536526 270.924044509 L143.734881471 270.924044509 L143.638122883 270.827285922 L143.638122883 270.778906628 L143.444605709 270.778906628 L143.347847121 270.682148041 L143.347847121 270.633768747 L143.154329947 270.633768747 L143.057571359 270.53701016 L143.057571359 270.488630866 L143.009192066 270.488630866 L142.912433478 270.391872279 L142.912433478 270.343492985 L142.718916304 270.343492985 L142.622157716 270.246734398 L142.622157716 270.198355104 L142.428640542 270.198355104 L142.331881955 270.101596517 L142.331881955 270.053217223 L142.13836478 270.053217223 L142.041606193 269.956458636 L142.041606193 269.762941461 L141.993226899 269.762941461 L141.896468312 269.666182874 L141.896468312 269.61780358 L141.848089018 269.61780358 L141.751330431 269.521044993 L141.751330431 269.472665699 L141.702951137 269.472665699 L141.60619255 269.375907112 L141.60619255 269.327527818 L141.557813256 269.327527818 L141.461054669 269.230769231 L141.461054669 269.182389937 L141.267537494 269.182389937 L141.170778907 269.08563135 L141.170778907 269.037252056 L141.122399613 269.037252056 L141.025641026 268.940493469 L141.025641026 268.892114175 L140.977261732 268.892114175 L140.880503145 268.795355588 L140.880503145 268.601838413 L140.832123851 268.601838413 L140.735365264 268.505079826 L140.735365264 268.456700532 L140.68698597 268.456700532 L140.590227383 268.359941945 L140.590227383 268.311562651 L140.541848089 268.311562651 L140.445089502 268.214804064 L140.445089502 268.16642477 L140.396710208 268.16642477 L140.299951621 268.069666183 L140.299951621 268.021286889 L140.251572327 268.021286889 L140.15481374 267.924528302 L140.15481374 267.876149008 L139.961296565 267.876149008 L139.864537978 267.779390421 L139.864537978 267.731011127 L139.816158684 267.731011127 L139.719400097 267.63425254 L139.719400097 267.585873246 L139.671020803 267.585873246 L139.574262216 267.489114659 L139.574262216 267.150459603 L139.525882922 267.150459603 L139.429124335 267.053701016 L139.429124335 267.005321722 L139.380745041 267.005321722 L139.283986454 266.908563135 L139.283986454 266.860183841 L139.23560716 266.860183841 L139.138848573 266.763425254 L139.138848573 266.569908079 L139.090469279 266.569908079 L138.993710692 266.473149492 L138.993710692 266.424770198 L138.800193517 266.424770198 L138.70343493 266.328011611 L138.70343493 266.279632317 L138.655055636 266.279632317 L138.558297049 266.18287373 L138.558297049 265.844218674 L138.509917755 265.844218674 L138.413159168 265.747460087 L138.413159168 265.699080793 L138.364779874 265.699080793 L138.268021287 265.602322206 L138.268021287 265.408805031 L138.219641993 265.408805031 L138.122883406 265.312046444 L138.122883406 265.118529269 L138.074504112 265.118529269 L137.977745525 265.021770682 L137.977745525 264.828253507 L137.929366231 264.828253507 L137.832607644 264.73149492 L137.832607644 264.537977746 L137.78422835 264.537977746 L137.687469763 264.441219158 L137.687469763 264.247701984 L137.493952588 264.247701984 L137.397194001 264.150943396 L137.397194001 264.102564103 L137.348814707 264.102564103 L137.25205612 264.005805515 L137.25205612 263.812288341 L137.203676826 263.812288341 L137.106918239 263.715529753 L137.106918239 263.376874698 L137.058538945 263.376874698 L136.961780358 263.28011611 L136.961780358 263.086598936 L136.913401064 263.086598936 L136.816642477 262.989840348 L136.816642477 262.796323174 L136.768263183 262.796323174 L136.671504596 262.699564586 L136.671504596 262.360909531 L136.623125302 262.360909531 L136.526366715 262.264150943 L136.526366715 262.070633769 L136.477987421 262.070633769 L136.381228834 261.973875181 L136.381228834 261.780358007 L136.187711659 261.780358007 L136.090953072 261.683599419 L136.090953072 261.344944364 L136.042573778 261.344944364 L135.945815191 261.248185776 L135.945815191 260.909530721 L135.897435897 260.909530721 L135.80067731 260.812772134 L135.80067731 260.619254959 L135.752298016 260.619254959 L135.655539429 260.522496372 L135.655539429 260.328979197 L135.607160135 260.328979197 L135.510401548 260.23222061 L135.510401548 259.748427673 L135.462022254 259.748427673 L135.365263667 259.651669086 L135.365263667 259.458151911 L135.316884373 259.458151911 L135.220125786 259.361393324 L135.220125786 259.022738268 L135.026608612 259.022738268 L134.929850024 258.925979681 L134.929850024 258.442186744 L134.881470731 258.442186744 L134.784712143 258.345428157 L134.784712143 258.151910982 L134.73633285 258.151910982 L134.639574262 258.055152395 L134.639574262 257.716497339 L134.591194969 257.716497339 L134.494436381 257.619738752 L134.494436381 257.135945815 L134.446057088 257.135945815 L134.3492985 257.039187228 L134.3492985 256.700532172 L134.300919207 256.700532172 L134.204160619 256.603773585 L134.204160619 256.119980648 L134.155781326 256.119980648 L134.059022738 256.023222061 L134.059022738 255.684567005 L134.010643445 255.684567005 L133.913884857 255.587808418 L133.913884857 255.104015481 L133.720367683 255.104015481 L133.623609095 255.007256894 L133.623609095 254.523463957 L133.575229802 254.523463957 L133.478471214 254.42670537 L133.478471214 254.088050314 L133.430091921 254.088050314 L133.333333333 253.991291727 L133.333333333 253.36236091 L133.28495404 253.36236091 L133.188195452 253.265602322 L133.188195452 252.781809386 L133.139816159 252.781809386 L133.043057571 252.685050798 L133.043057571 252.056119981 L132.994678278 252.056119981 L132.89791969 251.959361393 L132.89791969 251.475568457 L132.849540397 251.475568457 L132.752781809 251.378809869 L132.752781809 250.749879052 L132.559264635 250.749879052 L132.462506047 250.653120464 L132.462506047 249.879051766 L132.414126754 249.879051766 L132.317368166 249.782293179 L132.317368166 249.153362361 L132.268988873 249.153362361 L132.172230285 249.056603774 L132.172230285 248.427672956 L132.123850992 248.427672956 L132.027092404 248.330914369 L132.027092404 247.992259313 L131.978713111 247.992259313 L131.881954523 247.895500726 L131.881954523 247.266569908 L131.83357523 247.266569908 L131.736816642 247.169811321 L131.736816642 246.686018384 L131.688437349 246.686018384 L131.591678761 246.589259797 L131.591678761 245.960328979 L131.543299468 245.960328979 L131.446540881 245.863570392 L131.446540881 245.379777455 L131.253023706 245.379777455 L131.156265119 245.283018868 L131.156265119 244.508950169 L131.107885825 244.508950169 L131.011127238 244.412191582 L131.011127238 243.638122883 L130.962747944 243.638122883 L130.865989357 243.541364296 L130.865989357 242.912433478 L130.817610063 242.912433478 L130.720851476 242.815674891 L130.720851476 242.041606193 L130.672472182 242.041606193 L130.575713595 241.944847605 L130.575713595 241.025641026 L130.527334301 241.025641026 L130.430575714 240.928882438 L130.430575714 240.009675859 L130.38219642 240.009675859 L130.285437833 239.912917271 L130.285437833 239.138848573 L130.091920658 239.138848573 L129.995162071 239.042089985 L129.995162071 237.977745525 L129.946782777 237.977745525 L129.85002419 237.880986938 L129.85002419 236.816642477 L129.801644896 236.816642477 L129.704886309 236.71988389 L129.704886309 235.510401548 L129.656507015 235.510401548 L129.559748428 235.413642961 L129.559748428 234.204160619 L129.511369134 234.204160619 L129.414610547 234.107402032 L129.414610547 232.89791969 L129.366231253 232.89791969 L129.269472666 232.801161103 L129.269472666 231.156265119 L129.221093372 231.156265119 L129.124334785 231.059506531 L129.124334785 229.559748428 L129.075955491 229.559748428 L128.979196904 229.46298984 L128.979196904 227.963231737 L128.785679729 227.963231737 L128.688921142 227.866473149 L128.688921142 225.931301403 L128.640541848 225.931301403 L128.543783261 225.834542816 L128.543783261 223.754233188 L128.495403967 223.754233188 L128.39864538 223.657474601 L128.39864538 221.577164973 L128.350266086 221.577164973 L128.253507499 221.480406386 L128.253507499 218.819545235 L128.205128205 218.819545235 L128.108369618 218.722786647 L128.108369618 215.916787615 L128.059990324 215.916787615 L127.963231737 215.820029028 L127.963231737 212.433478471 L127.914852443 212.433478471 L127.818093856 212.336719884 L127.818093856 208.369617804 L127.769714562 208.369617804 L127.672955975 208.272859216 L127.672955975 202.999516207 L127.4794388 202.999516207 L127.382680213 202.90275762 L127.382680213 194.436381229 L127.334300919 194.436381229 L127.237542332 194.339622642 L127.237542332 174.794388002 L127.334300919 174.697629415 L127.382680213 174.697629415 L127.382680213 165.360425738 L127.4794388 165.26366715 L127.672955975 165.26366715 L127.672955975 161.635220126 L127.237542332 161.635220126 L127.237542332 161.8287373 L127.140783745 161.925495888 L126.366715046 161.925495888 L126.366715046 161.973875181 L126.269956459 162.070633769 L125.786163522 162.070633769 L125.786163522 162.119013062 L125.689404935 162.21577165 L124.770198355 162.21577165 L124.770198355 162.264150943 L124.673439768 162.360909531 L123.754233188 162.360909531 L123.754233188 162.409288824 L123.657474601 162.506047412 L122.59313014 162.506047412 L122.59313014 162.554426705 L122.496371553 162.651185293 L121.14175133 162.651185293 L121.14175133 162.699564586 L121.044992743 162.796323174 L114.852443154 162.796323174 L114.755684567 162.699564586 L114.755684567 162.651185293 L113.401064344 162.651185293 L113.304305757 162.554426705 L113.304305757 162.506047412 L112.385099178 162.506047412 L112.28834059 162.409288824 L112.28834059 162.360909531 L111.659409773 162.360909531 L111.562651185 162.264150943 L111.562651185 162.21577165 L110.788582487 162.21577165 L110.691823899 162.119013062 L110.691823899 162.070633769 L110.062893082 162.070633769 L109.966134494 161.973875181 L109.966134494 161.925495888 L109.482341558 161.925495888 L109.38558297 161.8287373 L109.38558297 161.635220126 L108.901790034 161.635220126 L108.805031447 161.538461538 L108.805031447 161.490082245 L108.466376391 161.490082245 L108.369617804 161.393323657 L108.369617804 161.344944364 L108.030962748 161.344944364 L107.934204161 161.248185776 L107.934204161 161.199806483 L107.450411224 161.199806483 L107.353652637 161.103047896 L107.353652637 161.054668602 L107.014997581 161.054668602 L106.918238994 160.957910015 L106.918238994 160.909530721 L106.724721819 160.909530721 L106.627963232 160.812772134 L106.627963232 160.76439284 L106.289308176 160.76439284 L106.192549589 160.667634253 L106.192549589 160.619254959 L105.853894533 160.619254959 L105.757135946 160.522496372 L105.757135946 160.328979197 L105.563618771 160.328979197 L105.466860184 160.23222061 L105.466860184 160.183841316 L105.128205128 160.183841316 L105.031446541 160.087082729 L105.031446541 160.038703435 L104.837929366 160.038703435 L104.741170779 159.941944848 L104.741170779 159.893565554 L104.547653604 159.893565554 L104.450895017 159.796806967 L104.450895017 159.748427673 L104.402515723 159.748427673 L104.305757136 159.651669086 L104.305757136 159.603289792 L103.96710208 159.603289792 L103.870343493 159.506531205 L103.870343493 159.458151911 L103.676826318 159.458151911 L103.580067731 159.361393324 L103.580067731 159.167876149 L103.531688437 159.167876149 L103.43492985 159.071117562 L103.43492985 159.022738268 L103.241412675 159.022738268 L103.144654088 158.925979681 L103.144654088 158.877600387 102.999516207 158.877600387 " stroke="black" fill="transparent"/>
<path d="M1088.48572811 158.587324625 L1088.48572811 158.635703919 L1088.38896952 158.732462506 L1088.19545235 158.732462506 L1088.19545235 158.7808418 L1088.09869376 158.877600387 L1088.05031447 158.877600387 L1088.05031447 159.071117562 L1087.95355588 159.167876149 L1087.7600387 159.167876149 L1087.7600387 159.216255443 L1087.66328012 159.31301403 L1087.32462506 159.31301403 L1087.32462506 159.361393324 L1087.22786647 159.458151911 L1087.17948718 159.458151911 L1087.17948718 159.506531205 L1087.08272859 159.603289792 L1086.88921142 159.603289792 L1086.88921142 159.651669086 L1086.79245283 159.748427673 L1086.59893566 159.748427673 L1086.59893566 159.796806967 L1086.50217707 159.893565554 L1086.16352201 159.893565554 L1086.16352201 159.941944848 L1086.06676343 160.038703435 L1085.87324625 160.038703435 L1085.87324625 160.23222061 L1085.77648766 160.328979197 L1085.43783261 160.328979197 L1085.43783261 160.377358491 L1085.34107402 160.474117078 L1085.00241896 160.474117078 L1085.00241896 160.522496372 L1084.90566038 160.619254959 L1084.7121432 160.619254959 L1084.7121432 160.667634253 L1084.61538462 160.76439284 L1084.27672956 160.76439284 L1084.27672956 160.812772134 L1084.17997097 160.909530721 L1083.69617804 160.909530721 L1083.69617804 160.957910015 L1083.59941945 161.054668602 L1083.26076439 161.054668602 L1083.26076439 161.103047896 L1083.16400581 161.199806483 L1082.82535075 161.199806483 L1082.82535075 161.248185776 L1082.72859216 161.344944364 L1082.24479923 161.344944364 L1082.24479923 161.538461538 L1082.14804064 161.635220126 L1081.6642477 161.635220126 L1081.6642477 161.683599419 L1081.56748911 161.780358007 L1080.9385583 161.780358007 L1080.9385583 161.8287373 L1080.84179971 161.925495888 L1080.06773101 161.925495888 L1080.06773101 161.973875181 L1079.97097242 162.070633769 L1079.34204161 162.070633769 L1079.34204161 162.119013062 L1079.24528302 162.21577165 L1078.32607644 162.21577165 L1078.32607644 162.264150943 L1078.22931785 162.360909531 L1076.87469763 162.360909531 L1076.87469763 162.409288824 L1076.77793904 162.506047412 L1070.58538945 162.506047412 L1070.48863087 162.409288824 L1070.48863087 162.360909531 L1069.13401064 162.360909531 L1069.03725206 162.264150943 L1069.03725206 162.21577165 L1067.9729076 162.21577165 L1067.87614901 162.119013062 L1067.87614901 162.070633769 L1066.95694243 162.070633769 L1066.86018384 161.973875181 L1066.86018384 161.925495888 L1065.94097726 161.925495888 L1065.84421867 161.8287373 L1065.84421867 161.780358007 L1065.36042574 161.780358007 L1065.26366715 161.683599419 L1065.26366715 161.635220126 L1064.48959845 161.635220126 L1064.39283986 161.538461538 L1064.39283986 161.344944364 L1063.95742622 161.344944364 L1063.95742622 164.973391388 L1064.1509434 164.973391388 L1064.24770198 165.070149976 L1064.24770198 174.407353653 L1064.29608128 174.407353653 L1064.39283986 174.50411224 L1064.39283986 194.04934688 L1064.29608128 194.146105467 L1064.24770198 194.146105467 L1064.24770198 202.612481858 L1064.1509434 202.709240445 L1063.95742622 202.709240445 L1063.95742622 207.982583454 L1063.86066763 208.079342042 L1063.81228834 208.079342042 L1063.81228834 212.046444122 L1063.71552975 212.143202709 L1063.66715046 212.143202709 L1063.66715046 215.529753266 L1063.57039187 215.626511853 L1063.52201258 215.626511853 L1063.52201258 218.432510885 L1063.42525399 218.529269473 L1063.3768747 218.529269473 L1063.3768747 221.190130624 L1063.28011611 221.286889211 L1063.23173682 221.286889211 L1063.23173682 223.367198839 L1063.13497823 223.463957426 L1063.08659894 223.463957426 L1063.08659894 225.544267054 L1062.98984035 225.641025641 L1062.94146105 225.641025641 L1062.94146105 227.576197388 L1062.84470247 227.672955975 L1062.65118529 227.672955975 L1062.65118529 229.172714078 L1062.55442671 229.269472666 L1062.50604741 229.269472666 L1062.50604741 230.769230769 L1062.40928882 230.865989357 L1062.36090953 230.865989357 L1062.36090953 232.510885341 L1062.26415094 232.607643928 L1062.21577165 232.607643928 L1062.21577165 233.81712627 L1062.11901306 233.913884857 L1062.07063377 233.913884857 L1062.07063377 235.123367199 L1061.97387518 235.220125786 L1061.92549589 235.220125786 L1061.92549589 236.429608128 L1061.8287373 236.526366715 L1061.78035801 236.526366715 L1061.78035801 237.590711176 L1061.68359942 237.687469763 L1061.63522013 237.687469763 L1061.63522013 238.751814224 L1061.53846154 238.848572811 L1061.34494436 238.848572811 L1061.34494436 239.622641509 L1061.24818578 239.719400097 L1061.19980648 239.719400097 L1061.19980648 240.638606676 L1061.1030479 240.735365264 L1061.0546686 240.735365264 L1061.0546686 241.654571843 L1060.95791001 241.751330431 L1060.90953072 241.751330431 L1060.90953072 242.525399129 L1060.81277213 242.622157716 L1060.76439284 242.622157716 L1060.76439284 243.251088534 L1060.66763425 243.347847121 L1060.61925496 243.347847121 L1060.61925496 244.12191582 L1060.52249637 244.218674407 L1060.47411708 244.218674407 L1060.47411708 244.992743106 L1060.37735849 245.089501693 L1060.18384132 245.089501693 L1060.18384132 245.57329463 L1060.08708273 245.670053217 L1060.03870343 245.670053217 L1060.03870343 246.298984035 L1059.94194485 246.395742622 L1059.89356555 246.395742622 L1059.89356555 246.879535559 L1059.79680697 246.976294146 L1059.74842767 246.976294146 L1059.74842767 247.605224964 L1059.65166909 247.701983551 L1059.60328979 247.701983551 L1059.60328979 248.040638607 L1059.5065312 248.137397194 L1059.45815191 248.137397194 L1059.45815191 248.766328012 L1059.36139332 248.863086599 L1059.31301403 248.863086599 L1059.31301403 249.492017417 L1059.21625544 249.588776004 L1059.16787615 249.588776004 L1059.16787615 250.362844702 L1059.07111756 250.45960329 L1058.87760039 250.45960329 L1058.87760039 251.088534107 L1058.7808418 251.185292695 L1058.73246251 251.185292695 L1058.73246251 251.669085631 L1058.63570392 251.765844219 L1058.58732463 251.765844219 L1058.58732463 252.394775036 L1058.49056604 252.491533624 L1058.44218674 252.491533624 L1058.44218674 252.97532656 L1058.34542816 253.072085148 L1058.29704886 253.072085148 L1058.29704886 253.701015965 L1058.20029028 253.797774552 L1058.15191098 253.797774552 L1058.15191098 254.136429608 L1058.05515239 254.233188195 L1058.0067731 254.233188195 L1058.0067731 254.716981132 L1057.91001451 254.813739719 L1057.71649734 254.813739719 L1057.71649734 255.297532656 L1057.61973875 255.394291243 L1057.57135946 255.394291243 L1057.57135946 255.732946299 L1057.47460087 255.829704886 L1057.42622158 255.829704886 L1057.42622158 256.313497823 L1057.32946299 256.41025641 L1057.2810837 256.41025641 L1057.2810837 256.748911466 L1057.18432511 256.845670053 L1057.13594582 256.845670053 L1057.13594582 257.32946299 L1057.03918723 257.426221577 L1056.99080793 257.426221577 L1056.99080793 257.764876633 L1056.89404935 257.86163522 L1056.84567005 257.86163522 L1056.84567005 258.055152395 L1056.74891147 258.151910982 L1056.70053217 258.151910982 L1056.70053217 258.635703919 L1056.60377358 258.732462506 L1056.41025641 258.732462506 L1056.41025641 259.071117562 L1056.31349782 259.167876149 L1056.26511853 259.167876149 L1056.26511853 259.361393324 L1056.16835994 259.458151911 L1056.11998065 259.458151911 L1056.11998065 259.941944848 L1056.02322206 260.038703435 L1055.97484277 260.038703435 L1055.97484277 260.23222061 L1055.87808418 260.328979197 L1055.82970489 260.328979197 L1055.82970489 260.522496372 L1055.7329463 260.619254959 L1055.68456701 260.619254959 L1055.68456701 260.957910015 L1055.58780842 261.054668602 L1055.53942912 261.054668602 L1055.53942912 261.393323657 L1055.44267054 261.490082245 L1055.24915336 261.490082245 L1055.24915336 261.683599419 L1055.15239478 261.780358007 L1055.10401548 261.780358007 L1055.10401548 261.973875181 L1055.00725689 262.070633769 L1054.9588776 262.070633769 L1054.9588776 262.409288824 L1054.86211901 262.506047412 L1054.81373972 262.506047412 L1054.81373972 262.699564586 L1054.71698113 262.796323174 L1054.66860184 262.796323174 L1054.66860184 262.989840348 L1054.57184325 263.086598936 L1054.52346396 263.086598936 L1054.52346396 263.425253991 L1054.42670537 263.522012579 L1054.37832608 263.522012579 L1054.37832608 263.715529753 L1054.28156749 263.812288341 L1054.2331882 263.812288341 L1054.2331882 263.860667634 L1054.13642961 263.957426222 L1053.94291243 263.957426222 L1053.94291243 264.150943396 L1053.84615385 264.247701984 L1053.79777455 264.247701984 L1053.79777455 264.441219158 L1053.70101597 264.537977746 L1053.65263667 264.537977746 L1053.65263667 264.73149492 L1053.55587808 264.828253507 L1053.50749879 264.828253507 L1053.50749879 265.021770682 L1053.4107402 265.118529269 L1053.36236091 265.118529269 L1053.36236091 265.312046444 L1053.26560232 265.408805031 L1053.21722303 265.408805031 L1053.21722303 265.457184325 L1053.12046444 265.553942912 L1053.07208515 265.553942912 L1053.07208515 265.892597968 L1052.97532656 265.989356555 L1052.92694727 265.989356555 L1052.92694727 266.037735849 L1052.83018868 266.134494436 L1052.6366715 266.134494436 L1052.6366715 266.18287373 L1052.53991292 266.279632317 L1052.49153362 266.279632317 L1052.49153362 266.473149492 L1052.39477504 266.569908079 L1052.34639574 266.569908079 L1052.34639574 266.618287373 L1052.24963716 266.71504596 L1052.20125786 266.71504596 L1052.20125786 266.763425254 L1052.10449927 266.860183841 L1052.05611998 266.860183841 L1052.05611998 267.198838897 L1051.95936139 267.295597484 L1051.9109821 267.295597484 L1051.9109821 267.343976778 L1051.81422351 267.440735365 L1051.76584422 267.440735365 L1051.76584422 267.489114659 L1051.66908563 267.585873246 L1051.47556846 267.585873246 L1051.47556846 267.63425254 L1051.37880987 267.731011127 L1051.33043058 267.731011127 L1051.33043058 267.779390421 L1051.23367199 267.876149008 L1051.18529269 267.876149008 L1051.18529269 267.924528302 L1051.08853411 268.021286889 L1051.04015481 268.021286889 L1051.04015481 268.069666183 L1050.94339623 268.16642477 L1050.89501693 268.16642477 L1050.89501693 268.214804064 L1050.79825835 268.311562651 L1050.74987905 268.311562651 L1050.74987905 268.505079826 L1050.65312046 268.601838413 L1050.60474117 268.601838413 L1050.60474117 268.650217707 L1050.50798258 268.746976294 L1050.45960329 268.746976294 L1050.45960329 268.795355588 L1050.3628447 268.892114175 L1050.16932753 268.892114175 L1050.16932753 268.940493469 L1050.07256894 269.037252056 L1050.02418965 269.037252056 L1050.02418965 269.08563135 L1049.92743106 269.182389937 L1049.87905177 269.182389937 L1049.87905177 269.230769231 L1049.78229318 269.327527818 L1049.73391388 269.327527818 L1049.73391388 269.375907112 L1049.6371553 269.472665699 L1049.588776 269.472665699 L1049.588776 269.666182874 L1049.49201742 269.762941461 L1049.29850024 269.762941461 L1049.29850024 269.811320755 L1049.20174165 269.908079342 L1049.00822448 269.908079342 L1049.00822448 269.956458636 L1048.91146589 270.053217223 L1048.71794872 270.053217223 L1048.71794872 270.101596517 L1048.62119013 270.198355104 L1048.57281084 270.198355104 L1048.57281084 270.246734398 L1048.47605225 270.343492985 L1048.28253507 270.343492985 L1048.28253507 270.391872279 L1048.18577649 270.488630866 L1047.99225931 270.488630866 L1047.99225931 270.53701016 L1047.89550073 270.633768747 L1047.55684567 270.633768747 L1047.55684567 270.682148041 L1047.46008708 270.778906628 L1047.26656991 270.778906628 L1047.26656991 270.972423803 L1047.16981132 271.06918239 L1046.97629415 271.06918239 L1046.97629415 271.117561684 L1046.87953556 271.214320271 L1046.39574262 271.214320271 L1046.39574262 271.262699565 L1046.29898403 271.359458152 L1045.8151911 271.359458152 L1045.8151911 271.407837446 L1045.71843251 271.504596033 L1044.65408805 271.504596033 L1044.65408805 271.552975327 L1044.55732946 271.649733914 L1043.29946783 271.649733914 L1043.20270924 271.552975327 L1043.20270924 271.504596033 L1037.63909047 271.504596033 L1037.54233188 271.407837446 L1037.54233188 271.359458152 L1030.5273343 271.359458152 L1030.43057571 271.262699565 L1030.43057571 271.214320271 L1012.28834059 271.214320271 L1012.28834059 271.262699565 L1012.191582 271.359458152 L1009.96613449 271.359458152 L1009.96613449 271.407837446 L1009.86937591 271.504596033 L1008.95016933 271.504596033 L1008.95016933 271.552975327 L1008.85341074 271.649733914 L1008.51475568 271.649733914 L1008.51475568 271.698113208 L1008.4179971 271.794871795 L1007.78906628 271.794871795 L1007.78906628 271.843251089 L1007.69230769 271.940009676 L1007.35365264 271.940009676 L1007.35365264 272.133526851 L1007.25689405 272.230285438 L1006.62796323 272.230285438 L1006.62796323 272.278664731 L1006.53120464 272.375423319 L1006.19254959 272.375423319 L1006.19254959 272.423802612 L1006.095791 272.5205612 L1005.46686018 272.5205612 L1005.46686018 272.568940493 L1005.3701016 272.665699081 L1005.03144654 272.665699081 L1005.03144654 272.714078374 L1004.93468795 272.810836962 L1004.5960329 272.810836962 L1004.5960329 272.859216255 L1004.49927431 272.955974843 L1004.01548137 272.955974843 L1004.01548137 273.004354136 L1003.91872279 273.101112724 L1003.72520561 273.101112724 L1003.72520561 273.149492017 L1003.62844702 273.246250605 L1003.28979197 273.246250605 L1003.28979197 273.439767779 L1003.19303338 273.536526367 L1002.85437833 273.536526367 L1002.85437833 273.58490566 L1002.75761974 273.681664248 L1002.41896468 273.681664248 L1002.41896468 273.730043541 L1002.3222061 273.826802129 L1002.12868892 273.826802129 L1002.12868892 273.875181422 L1002.03193033 273.97194001 L1001.69327528 273.97194001 L1001.69327528 274.020319303 L1001.59651669 274.117077891 L1001.40299952 274.117077891 L1001.40299952 274.165457184 L1001.30624093 274.262215772 L1001.11272375 274.262215772 L1001.11272375 274.310595065 L1001.01596517 274.407353653 L1000.82244799 274.407353653 L1000.82244799 274.600870827 L1000.7256894 274.697629415 L1000.38703435 274.697629415 L1000.38703435 274.746008708 L1000.29027576 274.842767296 L1000.09675859 274.842767296 L1000.09675859 274.891146589 L1000.0 274.987905177 L999.806482825 274.987905177 L999.806482825 275.03628447 L999.709724238 275.133043058 L999.516207063 275.133043058 L999.516207063 275.181422351 L999.419448476 275.278180939 L999.225931301 275.278180939 L999.225931301 275.326560232 L999.129172714 275.42331882 L998.935655539 275.42331882 L998.935655539 275.471698113 L998.838896952 275.568456701 L998.645379777 275.568456701 L998.645379777 275.616835994 L998.54862119 275.713594582 L998.500241896 275.713594582 L998.500241896 275.907111756 L998.403483309 276.003870343 L998.064828254 276.003870343 L998.064828254 276.052249637 L997.968069666 276.149008224 L997.774552492 276.149008224 L997.774552492 276.197387518 L997.677793904 276.294146105 L997.629414611 276.294146105 L997.629414611 276.342525399 L997.532656023 276.439283986 L997.339138849 276.439283986 L997.339138849 276.48766328 L997.242380261 276.584421867 L997.194000968 276.584421867 L997.194000968 276.632801161 L997.09724238 276.729559748 L996.758587325 276.729559748 L996.758587325 276.777939042 L996.661828737 276.874697629 L996.613449444 276.874697629 L996.613449444 276.923076923 L996.516690856 277.01983551 L996.323173682 277.01983551 L996.323173682 277.213352685 L996.226415094 277.310111272 L996.178035801 277.310111272 L996.178035801 277.358490566 L996.081277213 277.455249153 L996.03289792 277.455249153 L996.03289792 277.503628447 L995.936139332 277.600387034 L995.597484277 277.600387034 L995.597484277 277.648766328 L995.500725689 277.745524915 L995.452346396 277.745524915 L995.452346396 277.793904209 L995.355587808 277.890662796 L995.162070634 277.890662796 L995.162070634 277.93904209 L995.065312046 278.035800677 L995.016932753 278.035800677 L995.016932753 278.084179971 L994.920174165 278.180938558 L994.871794872 278.180938558 L994.871794872 278.374455733 L994.775036284 278.47121432 L994.58151911 278.47121432 L994.58151911 278.519593614 L994.484760522 278.616352201 L994.291243348 278.616352201 L994.291243348 278.664731495 L994.194484761 278.761490082 L994.146105467 278.761490082 L994.146105467 278.809869376 L994.04934688 278.906627963 L994.000967586 278.906627963 L994.000967586 278.955007257 L993.904208999 279.051765844 L993.710691824 279.051765844 L993.710691824 279.100145138 L993.613933237 279.196903725 L993.565553943 279.196903725 L993.565553943 279.245283019 L993.468795356 279.342041606 L993.420416062 279.342041606 L993.420416062 279.3904209 L993.323657475 279.487179487 L993.275278181 279.487179487 L993.275278181 279.680696662 L993.178519594 279.777455249 L992.839864538 279.777455249 L992.839864538 279.825834543 L992.743105951 279.92259313 L992.694726657 279.92259313 L992.694726657 279.970972424 L992.59796807 280.067731011 L992.549588776 280.067731011 L992.549588776 280.116110305 L992.452830189 280.212868892 L992.404450895 280.212868892 L992.404450895 280.261248186 L992.307692308 280.358006773 L992.114175133 280.358006773 L992.114175133 280.406386067 L992.017416546 280.503144654 L991.823899371 280.503144654 L991.823899371 280.551523948 L991.727140784 280.648282535 L991.67876149 280.648282535 L991.67876149 280.84179971 L991.582002903 280.938558297 L991.533623609 280.938558297 L991.533623609 280.986937591 L991.436865022 281.083696178 L991.388485728 281.083696178 L991.388485728 281.132075472 L991.291727141 281.228834059 L991.098209966 281.228834059 L991.098209966 281.277213353 L991.001451379 281.37397194 L990.953072085 281.37397194 L990.953072085 281.422351234 L990.856313498 281.519109821 L990.807934204 281.519109821 L990.807934204 281.567489115 L990.711175617 281.664247702 L990.372520561 281.664247702 L990.372520561 281.712626996 L990.275761974 281.809385583 L990.22738268 281.809385583 L990.22738268 281.857764877 L990.130624093 281.954523464 L990.082244799 281.954523464 L990.082244799 282.148040639 L989.985486212 282.244799226 L989.937106918 282.244799226 L989.937106918 282.29317852 L989.840348331 282.389937107 L989.646831156 282.389937107 L989.646831156 282.438316401 L989.550072569 282.535074988 L989.356555394 282.535074988 L989.356555394 282.583454282 L989.259796807 282.680212869 L989.211417513 282.680212869 L989.211417513 282.728592163 L989.114658926 282.82535075 L988.921141751 282.82535075 L988.921141751 282.873730044 L988.824383164 282.970488631 L988.77600387 282.970488631 L988.77600387 283.018867925 L988.679245283 283.115626512 L988.630865989 283.115626512 L988.630865989 283.309143687 L988.534107402 283.405902274 L988.340590227 283.405902274 L988.340590227 283.454281567 L988.24383164 283.551040155 L988.050314465 283.551040155 L988.050314465 283.599419448 L987.953555878 283.696178036 L987.905176584 283.696178036 L987.905176584 283.744557329 L987.808417997 283.841315917 L987.614900822 283.841315917 L987.614900822 283.88969521 L987.518142235 283.986453798 L987.469762941 283.986453798 L987.469762941 284.034833091 L987.373004354 284.131591679 L987.32462506 284.131591679 L987.32462506 284.179970972 L987.227866473 284.27672956 L986.889211418 284.27672956 L986.889211418 284.325108853 L986.79245283 284.421867441 L986.744073537 284.421867441 L986.744073537 284.615384615 L986.647314949 284.712143203 L986.598935656 284.712143203 L986.598935656 284.760522496 L986.502177068 284.857281084 L986.308659894 284.857281084 L986.308659894 284.905660377 L986.211901306 285.002418965 L986.163522013 285.002418965 L986.163522013 285.050798258 L986.066763425 285.147556846 L986.018384132 285.147556846 L986.018384132 285.195936139 L985.921625544 285.292694727 L985.582970489 285.292694727 L985.582970489 285.34107402 L985.486211901 285.437832608 L985.437832608 285.437832608 L985.437832608 285.486211901 L985.34107402 285.582970489 L985.292694727 285.582970489 L985.292694727 285.776487663 L985.195936139 285.873246251 L985.002418965 285.873246251 L985.002418965 285.921625544 L984.905660377 286.018384132 L984.857281084 286.018384132 L984.857281084 286.066763425 L984.760522496 286.163522013 L984.712143203 286.163522013 L984.712143203 286.211901306 L984.615384615 286.308659894 L984.567005322 286.308659894 L984.567005322 286.357039187 L984.470246734 286.453797775 L984.131591679 286.453797775 L984.131591679 286.502177068 L984.034833091 286.598935656 L983.986453798 286.598935656 L983.986453798 286.647314949 L983.88969521 286.744073537 L983.841315917 286.744073537 L983.841315917 286.79245283 L983.744557329 286.889211418 L983.696178036 286.889211418 L983.696178036 287.082728592 L983.599419448 287.179487179 L983.551040155 287.179487179 L983.551040155 287.227866473 L983.454281567 287.32462506 L983.405902274 287.32462506 L983.405902274 287.373004354 L983.309143687 287.469762941 L983.115626512 287.469762941 L983.115626512 287.518142235 L983.018867925 287.614900822 L982.970488631 287.614900822 L982.970488631 287.663280116 L982.873730044 287.760038703 L982.82535075 287.760038703 L982.82535075 287.808417997 L982.728592163 287.905176584 L982.680212869 287.905176584 L982.680212869 288.098693759 L982.583454282 288.195452346 L982.535074988 288.195452346 L982.535074988 288.388969521 L982.438316401 288.485728108 L982.389937107 288.485728108 L982.389937107 288.534107402 L982.29317852 288.630865989 L982.244799226 288.630865989 L982.244799226 288.824383164 L982.148040639 288.921141751 L982.099661345 288.921141751 L982.099661345 289.114658926 L982.002902758 289.211417513 L981.809385583 289.211417513 L981.809385583 289.550072569 L981.712626996 289.646831156 L981.664247702 289.646831156 L981.664247702 289.985486212 L981.567489115 290.082244799 L981.519109821 290.082244799 L981.519109821 290.566037736 L981.422351234 290.662796323 L981.37397194 290.662796323 L981.37397194 292.985002419 L981.422351234 292.985002419 L981.519109821 293.081761006 L981.519109821 294.000967586 L981.567489115 294.000967586 L981.664247702 294.097726173 L981.664247702 294.726656991 L981.712626996 294.726656991 L981.809385583 294.823415578 L981.809385583 295.162070634 L982.002902758 295.162070634 L982.099661345 295.258829221 L982.099661345 296.468311563 L982.148040639 296.468311563 L982.244799226 296.56507015 L982.244799226 297.194000968 L982.29317852 297.194000968 L982.389937107 297.290759555 L982.389937107 297.48427673 L982.438316401 297.48427673 L982.535074988 297.581035317 L982.535074988 297.774552492 L982.583454282 297.774552492 L982.680212869 297.871311079 L982.680212869 298.209966134 L982.728592163 298.209966134 L982.82535075 298.306724722 L982.82535075 298.355104015 L982.873730044 298.355104015 L982.970488631 298.451862603 L982.970488631 298.500241896 L983.018867925 298.500241896 L983.115626512 298.597000484 L983.115626512 298.790517658 L983.309143687 298.790517658 L983.405902274 298.887276246 L983.405902274 298.935655539 L983.454281567 298.935655539 L983.551040155 299.032414127 L983.551040155 299.08079342 L983.599419448 299.08079342 L983.696178036 299.177552008 L983.696178036 299.225931301 L983.88969521 299.225931301 L983.986453798 299.322689889 L983.986453798 299.516207063 L984.034833091 299.516207063 L984.131591679 299.612965651 L984.131591679 299.661344944 L984.179970972 299.661344944 L984.27672956 299.758103532 L984.27672956 299.806482825 L984.615384615 299.806482825 L984.712143203 299.903241413 L984.712143203 299.951620706 L984.760522496 299.951620706 L984.857281084 300.048379294 L984.857281084 300.096758587 L985.050798258 300.096758587 L985.147556846 300.193517175 L985.147556846 300.241896468 L985.195936139 300.241896468 L985.292694727 300.338655056 L985.292694727 300.387034349 L985.486211901 300.387034349 L985.582970489 300.483792937 L985.582970489 300.677310111 L986.066763425 300.677310111 L986.163522013 300.774068699 L986.163522013 300.822447992 L986.357039187 300.822447992 L986.453797775 300.91920658 L986.453797775 300.967585873 L986.647314949 300.967585873 L986.744073537 301.064344461 L986.744073537 301.112723754 L987.227866473 301.112723754 L987.32462506 301.209482342 L987.32462506 301.257861635 L987.663280116 301.257861635 L987.760038703 301.354620223 L987.760038703 301.402999516 L988.388969521 301.402999516 L988.485728108 301.499758104 L988.485728108 301.548137397 L988.969521045 301.548137397 L989.066279632 301.644895985 L989.066279632 301.693275278 L989.69521045 301.693275278 L989.791969037 301.790033866 L989.791969037 301.98355104 L990.711175617 301.98355104 L990.807934204 302.080309627 L990.807934204 302.128688921 L991.582002903 302.128688921 L991.67876149 302.225447508 L991.67876149 302.273826802 L992.452830189 302.273826802 L992.549588776 302.370585389 L992.549588776 302.418964683 L993.323657475 302.418964683 L993.420416062 302.51572327 L993.420416062 302.564102564 L994.04934688 302.564102564 L994.146105467 302.660861151 L994.146105467 302.709240445 L994.920174165 302.709240445 L995.016932753 302.805999032 L995.016932753 302.854378326 L995.791001451 302.854378326 L995.887760039 302.951136913 L995.887760039 303.144654088 L996.661828737 303.144654088 L996.758587325 303.241412675 L996.758587325 303.289791969 L997.532656023 303.289791969 L997.629414611 303.386550556 L997.629414611 303.43492985 L998.403483309 303.43492985 L998.500241896 303.531688437 L998.500241896 303.580067731 L999.129172714 303.580067731 L999.225931301 303.676826318 L999.225931301 303.725205612 L1000.0 303.725205612 L1000.09675859 303.821964199 L1000.09675859 303.870343493 L1000.87082729 303.870343493 L1000.96758587 303.96710208 L1000.96758587 304.015481374 L1001.59651669 304.015481374 L1001.69327528 304.112239961 L1001.69327528 304.160619255 L1002.61248186 304.160619255 L1002.70924045 304.257377842 L1002.70924045 304.450895017 L1003.48330914 304.450895017 L1003.58006773 304.547653604 L1003.58006773 304.596032898 L1004.35413643 304.596032898 L1004.45089502 304.692791485 L1004.45089502 304.741170779 L1005.07982583 304.741170779 L1005.17658442 304.837929366 L1005.17658442 304.88630866 L1005.95065312 304.88630866 L1006.04741171 304.983067247 L1006.04741171 305.031446541 L1006.67634253 305.031446541 L1006.77310111 305.128205128 L1006.77310111 305.176584422 L1007.54716981 305.176584422 L1007.6439284 305.273343009 L1007.6439284 305.321722303 L1008.4179971 305.321722303 L1008.51475568 305.41848089 L1008.51475568 305.611998065 L1009.43396226 305.611998065 L1009.53072085 305.708756652 L1009.53072085 305.757135946 L1010.15965167 305.757135946 L1010.25641026 305.853894533 L1010.25641026 305.902273827 L1011.03047896 305.902273827 L1011.12723754 305.999032414 L1011.12723754 306.047411708 L1011.90130624 306.047411708 L1011.99806483 306.144170295 L1011.99806483 306.192549589 L1012.62699565 306.192549589 L1012.72375423 306.289308176 L1012.72375423 306.33768747 L1013.49782293 306.33768747 L1013.59458152 306.434446057 L1013.59458152 306.482825351 L1014.36865022 306.482825351 L1014.46540881 306.579583938 L1014.46540881 306.627963232 L1015.09433962 306.627963232 L1015.19109821 306.724721819 L1015.19109821 306.918238994 L1015.96516691 306.918238994 L1016.0619255 307.014997581 L1016.0619255 307.063376875 L1016.83599419 307.063376875 L1016.93275278 307.160135462 L1016.93275278 307.208514756 L1017.5616836 307.208514756 L1017.65844219 307.305273343 L1017.65844219 307.353652637 L1018.57764877 307.353652637 L1018.67440735 307.450411224 L1018.67440735 307.498790518 L1019.44847605 307.498790518 L1019.54523464 307.595549105 L1019.54523464 307.643928399 L1020.17416546 307.643928399 L1020.27092404 307.740686986 L1020.27092404 307.78906628 L1021.04499274 307.78906628 L1021.14175133 307.885824867 L1021.14175133 307.934204161 L1021.91582003 307.934204161 L1022.01257862 308.030962748 L1022.01257862 308.224479923 L1022.64150943 308.224479923 L1022.73826802 308.32123851 L1022.73826802 308.369617804 L1023.51233672 308.369617804 L1023.60909531 308.466376391 L1023.60909531 308.514755685 L1024.38316401 308.514755685 L1024.47992259 308.611514272 L1024.47992259 308.659893566 L1025.10885341 308.659893566 L1025.205612 308.756652153 L1025.205612 308.805031447 L1025.9796807 308.805031447 L1026.07643928 308.901790034 L1026.07643928 308.950169328 L1026.85050798 308.950169328 L1026.94726657 309.046927915 L1026.94726657 309.095307209 L1027.57619739 309.095307209 L1027.67295597 309.192065796 L1027.67295597 309.38558297 L1028.44702467 309.38558297 L1028.54378326 309.482341558 L1028.54378326 309.530720851 L1029.31785196 309.530720851 L1029.41461055 309.627479439 L1029.41461055 309.675858732 L1030.04354136 309.675858732 L1030.14029995 309.77261732 L1030.14029995 309.820996613 L1030.91436865 309.820996613 L1031.01112724 309.917755201 L1031.01112724 309.966134494 L1031.78519594 309.966134494 L1031.88195452 310.062893082 L1031.88195452 310.111272375 L1032.51088534 310.111272375 L1032.60764393 310.208030963 L1032.60764393 310.256410256 L1033.38171263 310.256410256 L1033.47847121 310.353168844 L1033.47847121 310.401548137 L1034.25253991 310.401548137 L1034.3492985 310.498306725 L1034.3492985 310.691823899 L1034.97822932 310.691823899 L1035.07498791 310.788582487 L1035.07498791 310.83696178 L1035.8490566 310.83696178 L1035.94581519 310.933720368 L1035.94581519 310.982099661 L1036.71988389 310.982099661 L1036.81664248 311.078858249 L1036.81664248 311.127237542 L1037.44557329 311.127237542 L1037.54233188 311.22399613 L1037.54233188 311.272375423 L1038.31640058 311.272375423 L1038.41315917 311.369134011 L1038.41315917 311.417513304 L1039.18722787 311.417513304 L1039.28398645 311.514271892 L1039.28398645 311.562651185 L1039.91291727 311.562651185 L1040.00967586 311.659409773 L1040.00967586 311.852926947 L1040.63860668 311.852926947 L1040.73536526 311.949685535 L1040.73536526 311.998064828 L1041.36429608 311.998064828 L1041.46105467 312.094823416 L1041.46105467 312.143202709 L1042.23512337 312.143202709 L1042.33188195 312.239961297 L1042.33188195 312.28834059 L1043.10595065 312.28834059 L1043.20270924 312.385099178 L1043.20270924 312.433478471 L1043.83164006 312.433478471 L1043.92839865 312.530237059 L1043.92839865 312.578616352 L1044.70246734 312.578616352 L1044.79922593 312.67537494 L1044.79922593 312.723754233 L1045.57329463 312.723754233 L1045.67005322 312.820512821 L1045.67005322 312.868892114 L1046.15384615 312.868892114 L1046.25060474 312.965650701 L1046.25060474 313.159167876 L1047.02467344 313.159167876 L1047.12143203 313.255926463 L1047.12143203 313.304305757 L1047.89550073 313.304305757 L1047.99225931 313.401064344 L1047.99225931 313.449443638 L1048.62119013 313.449443638 L1048.71794872 313.546202225 L1048.71794872 313.594581519 L1049.49201742 313.594581519 L1049.588776 313.691340106 L1049.588776 313.7397194 L1050.07256894 313.7397194 L1050.16932753 313.836477987 L1050.16932753 313.884857281 L1050.94339623 313.884857281 L1051.04015481 313.981615868 L1051.04015481 314.029995162 L1051.81422351 314.029995162 L1051.9109821 314.126753749 L1051.9109821 314.320270924 L1052.39477504 314.320270924 L1052.49153362 314.417029511 L1052.49153362 314.465408805 L1053.26560232 314.465408805 L1053.36236091 314.562167392 L1053.36236091 314.610546686 L1053.84615385 314.610546686 L1053.94291243 314.707305273 L1053.94291243 314.755684567 L1054.71698113 314.755684567 L1054.81373972 314.852443154 L1054.81373972 314.900822448 L1055.44267054 314.900822448 L1055.53942912 314.997581035 L1055.53942912 315.045960329 L1056.16835994 315.045960329 L1056.26511853 315.142718916 L1056.26511853 315.19109821 L1056.89404935 315.19109821 L1056.99080793 315.287856797 L1056.99080793 315.336236091 L1057.47460087 315.336236091 L1057.57135946 315.432994678 L1057.57135946 315.626511853 L1058.20029028 315.626511853 L1058.29704886 315.72327044 L1058.29704886 315.771649734 L1059.21625544 315.771649734 L1059.31301403 315.868408321 L1059.31301403 315.916787615 L1060.37735849 315.916787615 L1060.47411708 316.013546202 L1060.47411708 316.061925496 L1061.8287373 316.061925496 L1061.92549589 316.158684083 L1061.92549589 316.207063377 L1063.71552975 316.207063377 L1063.81228834 316.303821964 L1063.81228834 316.352201258 L1072.08514756 316.352201258 L1072.08514756 316.303821964 L1072.18190614 316.207063377 L1074.11707789 316.207063377 L1074.11707789 316.158684083 L1074.21383648 316.061925496 L1075.42331882 316.061925496 L1075.42331882 316.013546202 L1075.52007741 315.916787615 L1076.72955975 315.916787615 L1076.72955975 315.868408321 L1076.82631834 315.771649734 L1077.74552492 315.771649734 L1077.74552492 315.72327044 L1077.8422835 315.626511853 L1078.90662796 315.626511853 L1078.90662796 315.432994678 L1079.00338655 315.336236091 L1079.92259313 315.336236091 L1079.92259313 315.287856797 L1080.01935172 315.19109821 L1081.08369618 315.19109821 L1081.08369618 315.142718916 L1081.18045477 315.045960329 L1082.24479923 315.045960329 L1082.24479923 314.997581035 L1082.34155781 314.900822448 L1083.40590227 314.900822448 L1083.40590227 314.852443154 L1083.50266086 314.755684567 L1084.56700532 314.755684567 L1084.56700532 314.707305273 L1084.66376391 314.610546686 L1085.58297049 314.610546686 L1085.58297049 314.562167392 L1085.67972908 314.465408805 L1086.74407354 314.465408805 L1086.74407354 314.417029511 L1086.84083212 314.320270924 L1087.90517658 314.320270924 L1087.90517658 314.126753749 L1088.00193517 314.029995162 L1089.06627963 314.029995162 L1089.06627963 313.981615868 L1089.16303822 313.884857281 L1090.22738268 313.884857281 L1090.22738268 313.836477987 L1090.32414127 313.7397194 L1091.38848573 313.7397194 L1091.38848573 313.691340106 L1091.48524432 313.594581519 L1092.4044509 313.594581519 L1092.4044509 313.546202225 L1092.50120948 313.449443638 L1093.56555394 313.449443638 L1093.56555394 313.401064344 L1093.66231253 313.304305757 L1094.72665699 313.304305757 L1094.72665699 313.255926463 L1094.82341558 313.159167876 L1095.74262216 313.159167876 L1095.74262216 312.965650701 L1095.83938075 312.868892114 L1096.90372521 312.868892114 L1096.90372521 312.820512821 L1097.00048379 312.723754233 L1098.06482825 312.723754233 L1098.06482825 312.67537494 L1098.16158684 312.578616352 L1099.2259313 312.578616352 L1099.2259313 312.530237059 L1099.32268989 312.433478471 L1100.38703435 312.433478471 L1100.38703435 312.385099178 L1100.48379294 312.28834059 L1101.5481374 312.28834059 L1101.5481374 312.239961297 L1101.64489598 312.143202709 L1102.56410256 312.143202709 L1102.56410256 312.094823416 L1102.66086115 311.998064828 L1103.58006773 311.998064828 L1103.58006773 311.949685535 L1103.67682632 311.852926947 L1104.74117078 311.852926947 L1104.74117078 311.659409773 L1104.83792937 311.562651185 L1105.90227383 311.562651185 L1105.90227383 311.514271892 L1105.99903241 311.417513304 L1106.91823899 311.417513304 L1106.91823899 311.369134011 L1107.01499758 311.272375423 L1108.07934204 311.272375423 L1108.07934204 311.22399613 L1108.17610063 311.127237542 L1109.24044509 311.127237542 L1109.24044509 311.078858249 L1109.33720368 310.982099661 L1110.25641026 310.982099661 L1110.25641026 310.933720368 L1110.35316884 310.83696178 L1111.4175133 310.83696178 L1111.4175133 310.788582487 L1111.51427189 310.691823899 L1112.28834059 310.691823899 L1112.28834059 310.498306725 L1112.38509918 310.401548137 L1113.44944364 310.401548137 L1113.44944364 310.353168844 L1113.54620223 310.256410256 L1114.46540881 310.256410256 L1114.46540881 310.208030963 L1114.56216739 310.111272375 L1115.62651185 310.111272375 L1115.62651185 310.062893082 L1115.72327044 309.966134494 L1116.64247702 309.966134494 L1116.64247702 309.917755201 L1116.73923561 309.820996613 L1117.65844219 309.820996613 L1117.65844219 309.77261732 L1117.75520077 309.675858732 L1118.38413159 309.675858732 L1118.38413159 309.627479439 L1118.48089018 309.530720851 L1119.109821 309.530720851 L1119.109821 309.482341558 L1119.20657958 309.38558297 L1119.69037252 309.38558297 L1119.69037252 309.192065796 L1119.78713111 309.095307209 L1120.41606193 309.095307209 L1120.41606193 309.046927915 L1120.51282051 308.950169328 L1120.85147557 308.950169328 L1120.85147557 308.901790034 L1120.94823416 308.805031447 L1121.28688921 308.805031447 L1121.28688921 308.756652153 L1121.3836478 308.659893566 L1121.72230285 308.659893566 L1121.72230285 308.611514272 L1121.81906144 308.514755685 L1122.01257862 308.514755685 L1122.01257862 308.466376391 L1122.1093372 308.369617804 L1122.1577165 308.369617804 L1122.1577165 308.32123851 L1122.25447508 308.224479923 L1122.59313014 308.224479923 L1122.59313014 308.030962748 L1122.68988873 307.934204161 L1122.73826802 307.934204161 L1122.73826802 307.885824867 L1122.83502661 307.78906628 L1123.02854378 307.78906628 L1123.02854378 307.740686986 L1123.12530237 307.643928399 L1123.17368166 307.643928399 L1123.17368166 307.595549105 L1123.27044025 307.498790518 L1123.31881955 307.498790518 L1123.31881955 307.450411224 L1123.41557813 307.353652637 L1123.46395743 307.353652637 L1123.46395743 307.305273343 L1123.56071601 307.208514756 L1123.75423319 307.208514756 L1123.75423319 307.014997581 L1123.85099178 306.918238994 L1123.89937107 306.918238994 L1123.89937107 306.724721819 L1123.99612966 306.627963232 L1124.04450895 306.627963232 L1124.04450895 306.579583938 L1124.14126754 306.482825351 L1124.18964683 306.482825351 L1124.18964683 306.289308176 L1124.28640542 306.192549589 L1124.33478471 306.192549589 L1124.33478471 305.999032414 L1124.4315433 305.902273827 L1124.47992259 305.902273827 L1124.47992259 305.708756652 L1124.57668118 305.611998065 L1124.62506047 305.611998065 L1124.62506047 305.273343009 L1124.72181906 305.176584422 L1124.91533624 305.176584422 L1124.91533624 304.837929366 L1125.01209482 304.741170779 L1125.06047412 304.741170779 L1125.06047412 304.257377842 L1125.1572327 304.160619255 L1125.205612 304.160619255 L1125.205612 303.676826318 L1125.30237059 303.580067731 L1125.35074988 303.580067731 L1125.35074988 302.805999032 L1125.44750847 302.709240445 L1125.49588776 302.709240445 L1125.49588776 301.644895985 L1125.59264635 301.548137397 L1125.64102564 301.548137397 L1125.64102564 300.338655056 L1125.73778423 300.241896468 L1125.78616352 300.241896468 L1125.78616352 299.177552008 L1125.88292211 299.08079342 L1125.9313014 299.08079342 L1125.9313014 298.306724722 L1126.02805999 298.209966134 L1126.22157716 298.209966134 L1126.22157716 297.145621674 L1126.31833575 297.048863087 L1126.36671505 297.048863087 L1126.36671505 295.984518626 L1126.46347363 295.887760039 L1126.51185293 295.887760039 L1126.51185293 294.678277697 L1126.60861151 294.58151911 L1126.65699081 294.58151911 L1126.65699081 292.356071601 L1126.7537494 292.259313014 L1126.80212869 292.259313014 L1126.80212869 291.243347847 L1126.7537494 291.243347847 L1126.65699081 291.14658926 L1126.65699081 289.356555394 L1126.60861151 289.356555394 L1126.51185293 289.259796807 L1126.51185293 288.630865989 L1126.46347363 288.630865989 L1126.36671505 288.534107402 L1126.36671505 288.050314465 L1126.31833575 288.050314465 L1126.22157716 287.953555878 L1126.22157716 287.760038703 L1126.02805999 287.760038703 L1125.9313014 287.663280116 L1125.9313014 287.32462506 L1125.88292211 287.32462506 L1125.78616352 287.227866473 L1125.78616352 287.179487179 L1125.73778423 287.179487179 L1125.64102564 287.082728592 L1125.64102564 286.744073537 L1125.59264635 286.744073537 L1125.49588776 286.647314949 L1125.49588776 286.598935656 L1125.44750847 286.598935656 L1125.35074988 286.502177068 L1125.35074988 286.308659894 L1125.30237059 286.308659894 L1125.205612 286.211901306 L1125.205612 286.163522013 L1125.1572327 286.163522013 L1125.06047412 286.066763425 L1125.06047412 286.018384132 L1125.01209482 286.018384132 L1124.91533624 285.921625544 L1124.91533624 285.873246251 L1124.72181906 285.873246251 L1124.62506047 285.776487663 L1124.62506047 285.582970489 L1124.4315433 285.582970489 L1124.33478471 285.486211901 L1124.33478471 285.437832608 L1124.28640542 285.437832608 L1124.18964683 285.34107402 L1124.18964683 285.292694727 L1123.99612966 285.292694727 L1123.89937107 285.195936139 L1123.89937107 285.147556846 L1123.56071601 285.147556846 L1123.46395743 285.050798258 L1123.46395743 285.002418965 L1123.27044025 285.002418965 L1123.17368166 284.905660377 L1123.17368166 284.857281084 L1122.83502661 284.857281084 L1122.73826802 284.760522496 L1122.73826802 284.712143203 L1122.25447508 284.712143203 L1122.1577165 284.615384615 L1122.1577165 284.421867441 L1121.81906144 284.421867441 L1121.72230285 284.325108853 L1121.72230285 284.27672956 L1121.3836478 284.27672956 L1121.28688921 284.179970972 L1121.28688921 284.131591679 L1120.80309627 284.131591679 L1120.70633769 284.034833091 L1120.70633769 283.986453798 L1120.36768263 283.986453798 L1120.27092404 283.88969521 L1120.27092404 283.841315917 L1119.78713111 283.841315917 L1119.69037252 283.744557329 L1119.69037252 283.696178036 L1119.35171746 283.696178036 L1119.25495888 283.599419448 L1119.25495888 283.551040155 L1118.77116594 283.551040155 L1118.67440735 283.454281567 L1118.67440735 283.405902274 L1118.19061442 283.405902274 L1118.09385583 283.309143687 L1118.09385583 283.115626512 L1117.75520077 283.115626512 L1117.65844219 283.018867925 L1117.65844219 282.970488631 L1117.02951137 282.970488631 L1116.93275278 282.873730044 L1116.93275278 282.82535075 L1116.59409773 282.82535075 L1116.49733914 282.728592163 L1116.49733914 282.680212869 L1116.0135462 282.680212869 L1115.91678761 282.583454282 L1115.91678761 282.535074988 L1115.43299468 282.535074988 L1115.33623609 282.438316401 L1115.33623609 282.389937107 L1114.85244315 282.389937107 L1114.75568457 282.29317852 L1114.75568457 282.244799226 L1114.41702951 282.244799226 L1114.32027092 282.148040639 L1114.32027092 281.954523464 L1113.83647799 281.954523464 L1113.7397194 281.857764877 L1113.7397194 281.809385583 L1113.25592646 281.809385583 L1113.15916788 281.712626996 L1113.15916788 281.664247702 L1112.67537494 281.664247702 L1112.57861635 281.567489115 L1112.57861635 281.519109821 L1112.09482342 281.519109821 L1111.99806483 281.422351234 L1111.99806483 281.37397194 L1111.65940977 281.37397194 L1111.56265119 281.277213353 L1111.56265119 281.228834059 L1110.93372037 281.228834059 L1110.83696178 281.132075472 L1110.83696178 281.083696178 L1110.49830672 281.083696178 L1110.40154814 280.986937591 L1110.40154814 280.938558297 L1110.06289308 280.938558297 L1109.96613449 280.84179971 L1109.96613449 280.648282535 L1109.33720368 280.648282535 L1109.24044509 280.551523948 L1109.24044509 280.503144654 L1108.90179003 280.503144654 L1108.80503145 280.406386067 L1108.80503145 280.358006773 L1108.17610063 280.358006773 L1108.07934204 280.261248186 L1108.07934204 280.212868892 L1107.74068699 280.212868892 L1107.6439284 280.116110305 L1107.6439284 280.067731011 L1107.16013546 280.067731011 L1107.06337687 279.970972424 L1107.06337687 279.92259313 L1106.57958394 279.92259313 L1106.48282535 279.825834543 L1106.48282535 279.777455249 L1105.99903241 279.777455249 L1105.90227383 279.680696662 L1105.90227383 279.487179487 L1105.56361877 279.487179487 L1105.46686018 279.3904209 L1105.46686018 279.342041606 L1105.12820513 279.342041606 L1105.03144654 279.245283019 L1105.03144654 279.196903725 L1104.40251572 279.196903725 L1104.30575714 279.100145138 L1104.30575714 279.051765844 L1103.96710208 279.051765844 L1103.87034349 278.955007257 L1103.87034349 278.906627963 L1103.38655056 278.906627963 L1103.28979197 278.809869376 L1103.28979197 278.761490082 L1102.95113691 278.761490082 L1102.85437833 278.664731495 L1102.85437833 278.616352201 L1102.22544751 278.616352201 L1102.12868892 278.519593614 L1102.12868892 278.47121432 L1101.79003387 278.47121432 L1101.69327528 278.374455733 L1101.69327528 278.180938558 L1101.35462022 278.180938558 L1101.25786164 278.084179971 L1101.25786164 278.035800677 L1100.7740687 278.035800677 L1100.67731011 277.93904209 L1100.67731011 277.890662796 L1100.33865506 277.890662796 L1100.24189647 277.793904209 L1100.24189647 277.745524915 L1099.75810353 277.745524915 L1099.66134494 277.648766328 L1099.66134494 277.600387034 L1099.17755201 277.600387034 L1099.08079342 277.503628447 L1099.08079342 277.455249153 L1098.59700048 277.455249153 L1098.5002419 277.358490566 L1098.5002419 277.310111272 L1098.16158684 277.310111272 L1098.06482825 277.213352685 L1098.06482825 277.01983551 L1097.7261732 277.01983551 L1097.62941461 276.923076923 L1097.62941461 276.874697629 L1097.14562167 276.874697629 L1097.04886309 276.777939042 L1097.04886309 276.729559748 L1096.71020803 276.729559748 L1096.61344944 276.632801161 L1096.61344944 276.584421867 L1096.41993227 276.584421867 L1096.32317368 276.48766328 L1096.32317368 276.439283986 L1095.83938075 276.439283986 L1095.74262216 276.342525399 L1095.74262216 276.294146105 L1095.4039671 276.294146105 L1095.30720851 276.197387518 L1095.30720851 276.149008224 L1094.82341558 276.149008224 L1094.72665699 276.052249637 L1094.72665699 276.003870343 L1094.38800194 276.003870343 L1094.29124335 275.907111756 L1094.29124335 275.713594582 L1094.09772617 275.713594582 L1094.00096759 275.616835994 L1094.00096759 275.568456701 L1093.51717465 275.568456701 L1093.42041606 275.471698113 L1093.42041606 275.42331882 L1093.22689889 275.42331882 L1093.1301403 275.326560232 L1093.1301403 275.278180939 L1092.79148524 275.278180939 L1092.69472666 275.181422351 L1092.69472666 275.133043058 L1092.3560716 275.133043058 L1092.25931301 275.03628447 L1092.25931301 274.987905177 L1092.06579584 274.987905177 L1091.96903725 274.891146589 L1091.96903725 274.842767296 L1091.6303822 274.842767296 L1091.53362361 274.746008708 L1091.53362361 274.697629415 L1091.19496855 274.697629415 L1091.09820997 274.600870827 L1091.09820997 274.407353653 L1090.90469279 274.407353653 L1090.8079342 274.310595065 L1090.8079342 274.262215772 L1090.75955491 274.262215772 L1090.66279632 274.165457184 L1090.66279632 274.117077891 L1090.46927915 274.117077891 L1090.37252056 274.020319303 L1090.37252056 273.97194001 L1090.32414127 273.97194001 L1090.22738268 273.875181422 L1090.22738268 273.826802129 L1090.17900339 273.826802129 L1090.0822448 273.730043541 L1090.0822448 273.681664248 L1089.88872762 273.681664248 L1089.79196904 273.58490566 L1089.79196904 268.988872762 L1089.88872762 268.892114175 L1090.0822448 268.892114175 L1090.0822448 264.925012095 L1090.17900339 264.828253507 L1090.22738268 264.828253507 L1090.22738268 261.151427189 L1090.32414127 261.054668602 L1090.37252056 261.054668602 L1090.37252056 257.813255926 L1090.46927915 257.716497339 L1090.51765844 257.716497339 L1090.51765844 254.765360426 L1090.61441703 254.668601838 L1090.66279632 254.668601838 L1090.66279632 251.862602806 L1090.75955491 251.765844219 L1090.8079342 251.765844219 L1090.8079342 249.395258829 L1090.90469279 249.298500242 L1090.95307209 249.298500242 L1090.95307209 247.363328495 L1091.04983067 247.266569908 L1091.09820997 247.266569908 L1091.09820997 244.460570876 L1091.19496855 244.363812288 L1091.38848573 244.363812288 L1091.38848573 199.516207063 L1091.19496855 199.516207063 L1091.09820997 199.419448476 L1091.09820997 190.517658442 L1091.04983067 190.517658442 L1090.95307209 190.420899855 L1090.95307209 184.421867441 L1090.90469279 184.421867441 L1090.8079342 184.325108853 L1090.8079342 179.777455249 L1090.75955491 179.777455249 L1090.66279632 179.680696662 L1090.66279632 176.003870343 L1090.61441703 176.003870343 L1090.51765844 175.907111756 L1090.51765844 172.955974843 L1090.46927915 172.955974843 L1090.37252056 172.859216255 L1090.37252056 170.343492985 L1090.32414127 170.343492985 L1090.22738268 170.246734398 L1090.22738268 168.16642477 L1090.17900339 168.16642477 L1090.0822448 168.069666183 L1090.0822448 166.134494436 L1089.88872762 166.134494436 L1089.79196904 166.037735849 L1089.79196904 164.537977746 L1089.74358974 164.537977746 L1089.64683116 164.441219158 L1089.64683116 163.231736817 L1089.59845186 163.231736817 L1089.50169328 163.134978229 L1089.50169328 161.925495888 L1089.45331398 161.925495888 L1089.35655539 161.8287373 L1089.35655539 160.909530721 L1089.3081761 160.909530721 L1089.21141751 160.812772134 L1089.21141751 160.038703435 L1089.16303822 160.038703435 L1089.06627963 159.941944848 L1089.06627963 159.31301403 L1089.01790034 159.31301403 L1088.92114175 159.216255443 L1088.92114175 158.732462506 L1088.72762458 158.732462506 L1088.63086599 158.635703919 L1088.63086599 158.587324625 1088.48572811 158.587324625 " stroke="black" fill="transparent"/>
<path d="M1186.30865989 0.0483792936623 L1186.30865989 0.241896468312 L1200.0 0.241896468312 L1200.0 0.0483792936623 1186.30865989 0.0483792936623 " stroke="black" fill="transparent"/>
<path d="M0.0483792936623 0.0483792936623 L0.0483792936623 0.241896468312 L13.5945815191 0.241896468312 L13.5945815191 0.0483792936623 0.0483792936623 0.0483792936623 " stroke="black" fill="transparent"/>
</svg>