<svg width="1000.0mm" height="385.0194882223352mm" xmlns="http://www.w3.org/2000/svg" fill="transparent" ><path d="M208.213297181 373.778455629 L208.213297181 385.019488222 L210.246850816 385.019488222 L210.246850816 373.778455629 208.213297181 373.778455629 " stroke="black" fill="transparent"/>
<path d="M287.352426142 372.931141614 L287.18296334 373.100604417 L286.674574931 373.100604417 L286.505112128 373.27006722 L286.335649325 373.27006722 L286.166186522 373.439530023 L285.996723719 373.439530023 L285.827260916 373.608992826 L285.657798113 373.608992826 L285.318872507 373.947918432 L285.149409705 373.947918432 L284.30209569 374.795232446 L284.30209569 374.964695249 L283.963170084 375.303620855 L283.963170084 375.473083658 L283.793707281 375.642546461 L283.793707281 375.812009264 L283.624244478 375.981472067 L283.624244478 376.320397673 L283.454781675 376.489860476 L283.454781675 376.828786081 L283.285318873 376.998248884 L283.285318873 380.048579337 L283.454781675 380.21804214 L283.454781675 380.556967746 L283.624244478 380.726430548 L283.624244478 381.065356154 L283.793707281 381.234818957 L283.793707281 381.40428176 L283.963170084 381.573744563 L283.963170084 381.743207366 L284.30209569 382.082132972 L284.30209569 382.251595775 L285.149409705 383.098909789 L285.318872507 383.098909789 L285.657798113 383.437835395 L285.827260916 383.437835395 L285.996723719 383.607298198 L286.166186522 383.607298198 L286.335649325 383.776761001 L286.674574931 383.776761001 L286.844037734 383.946223804 L287.18296334 383.946223804 L287.352426142 384.115686607 L290.402756595 384.115686607 L290.572219398 383.946223804 L291.080607807 383.946223804 L291.25007061 383.776761001 L291.419533412 383.776761001 L291.588996215 383.607298198 L291.758459018 383.607298198 L291.927921821 383.437835395 L292.097384624 383.437835395 L292.43631023 383.098909789 L292.605773033 383.098909789 L293.62254985 382.082132972 L293.62254985 381.912670169 L293.792012653 381.743207366 L293.792012653 381.573744563 L293.961475456 381.40428176 L293.961475456 381.234818957 L294.130938259 381.065356154 L294.130938259 380.895893351 L294.300401062 380.726430548 L294.300401062 380.387504943 L294.469863865 380.21804214 L294.469863865 376.828786081 L294.300401062 376.659323279 L294.300401062 376.320397673 L294.130938259 376.15093487 L294.130938259 375.981472067 L293.961475456 375.812009264 L293.961475456 375.642546461 L293.792012653 375.473083658 L293.792012653 375.303620855 L293.62254985 375.134158052 L293.62254985 374.964695249 L292.43631023 373.778455629 L292.266847427 373.778455629 L292.097384624 373.608992826 L291.927921821 373.608992826 L291.758459018 373.439530023 L291.588996215 373.439530023 L291.419533412 373.27006722 L291.25007061 373.27006722 L291.080607807 373.100604417 L290.572219398 373.100604417 L290.402756595 372.931141614 287.352426142 372.931141614 " stroke="black" fill="transparent"/>
<path d="M208.213297181 311.585606959 L208.213297181 322.770151952 L210.246850816 322.770151952 L210.246850816 311.585606959 208.213297181 311.585606959 " stroke="black" fill="transparent"/>
<path d="M287.18296334 310.738292945 L287.013500537 310.907755748 L286.674574931 310.907755748 L286.505112128 311.077218551 L286.166186522 311.077218551 L285.827260916 311.416144156 L285.657798113 311.416144156 L285.48833531 311.585606959 L285.318872507 311.585606959 L284.30209569 312.602383777 L284.30209569 312.77184658 L283.963170084 313.110772186 L283.963170084 313.280234988 L283.793707281 313.449697791 L283.793707281 313.619160594 L283.624244478 313.788623397 L283.624244478 313.9580862 L283.454781675 314.127549003 L283.454781675 314.635937412 L283.285318873 314.805400215 L283.285318873 317.686267864 L283.454781675 317.855730667 L283.454781675 318.364119076 L283.624244478 318.533581879 L283.624244478 318.872507485 L283.793707281 319.041970288 L283.793707281 319.21143309 L283.963170084 319.380895893 L283.963170084 319.550358696 L284.471558493 320.058747105 L284.471558493 320.228209908 L284.979946902 320.736598317 L285.149409705 320.736598317 L285.48833531 321.075523922 L285.657798113 321.075523922 L285.996723719 321.414449528 L286.166186522 321.414449528 L286.335649325 321.583912331 L286.674574931 321.583912331 L286.844037734 321.753375134 L287.352426142 321.753375134 L287.521888945 321.922837937 L290.233293792 321.922837937 L290.402756595 321.753375134 L290.911145004 321.753375134 L291.080607807 321.583912331 L291.419533412 321.583912331 L291.588996215 321.414449528 L291.758459018 321.414449528 L291.927921821 321.244986725 L292.097384624 321.244986725 L292.43631023 320.90606112 L292.605773033 320.90606112 L293.453087047 320.058747105 L293.453087047 319.889284302 L293.792012653 319.550358696 L293.792012653 319.380895893 L293.961475456 319.21143309 L293.961475456 319.041970288 L294.130938259 318.872507485 L294.130938259 318.703044682 L294.300401062 318.533581879 L294.300401062 318.02519347 L294.469863865 317.855730667 L294.469863865 314.635937412 L294.300401062 314.466474609 L294.300401062 314.127549003 L294.130938259 313.9580862 L294.130938259 313.619160594 L293.961475456 313.449697791 L293.961475456 313.280234988 L293.62254985 312.941309383 L293.62254985 312.77184658 L292.43631023 311.585606959 L292.266847427 311.585606959 L291.927921821 311.246681353 L291.758459018 311.246681353 L291.588996215 311.077218551 L291.25007061 311.077218551 L291.080607807 310.907755748 L290.741682201 310.907755748 L290.572219398 310.738292945 287.18296334 310.738292945 " stroke="black" fill="transparent"/>
<path d="M208.213297181 249.223295487 L208.213297181 260.577303282 L210.246850816 260.577303282 L210.246850816 249.223295487 208.213297181 249.223295487 " stroke="black" fill="transparent"/>
<path d="M288.030277354 248.375981472 L287.860814551 248.545444275 L287.013500537 248.545444275 L286.844037734 248.714907078 L286.505112128 248.714907078 L286.335649325 248.884369881 L286.166186522 248.884369881 L285.996723719 249.053832684 L285.827260916 249.053832684 L285.48833531 249.39275829 L285.318872507 249.39275829 L284.132632887 250.57899791 L284.132632887 250.748460713 L283.963170084 250.917923516 L283.963170084 251.087386319 L283.793707281 251.256849122 L283.793707281 251.426311925 L283.624244478 251.595774727 L283.624244478 251.76523753 L283.454781675 251.934700333 L283.454781675 252.443088742 L283.285318873 252.612551545 L283.285318873 255.493419194 L283.454781675 255.662881997 L283.454781675 256.171270406 L283.624244478 256.340733209 L283.624244478 256.679658815 L283.793707281 256.849121618 L283.793707281 257.018584421 L284.132632887 257.357510027 L284.132632887 257.526972829 L284.641021296 258.035361238 L284.641021296 258.204824041 L284.810484099 258.204824041 L285.48833531 258.882675253 L285.657798113 258.882675253 L285.827260916 259.052138056 L285.996723719 259.052138056 L286.166186522 259.221600859 L286.335649325 259.221600859 L286.505112128 259.391063662 L286.844037734 259.391063662 L287.013500537 259.560526464 L287.521888945 259.560526464 L287.691351748 259.729989267 L290.063830989 259.729989267 L290.233293792 259.560526464 L290.911145004 259.560526464 L291.080607807 259.391063662 L291.25007061 259.391063662 L291.419533412 259.221600859 L291.758459018 259.221600859 L292.097384624 258.882675253 L292.266847427 258.882675253 L292.605773033 258.543749647 L292.775235836 258.543749647 L293.283624244 258.035361238 L293.283624244 257.865898435 L293.792012653 257.357510027 L293.792012653 257.188047224 L293.961475456 257.018584421 L293.961475456 256.849121618 L294.130938259 256.679658815 L294.130938259 256.510196012 L294.300401062 256.340733209 L294.300401062 255.8323448 L294.469863865 255.662881997 L294.469863865 252.443088742 L294.300401062 252.273625939 L294.300401062 251.934700333 L294.130938259 251.76523753 L294.130938259 251.426311925 L293.961475456 251.256849122 L293.961475456 251.087386319 L293.62254985 250.748460713 L293.62254985 250.57899791 L292.266847427 249.223295487 L292.097384624 249.223295487 L291.927921821 249.053832684 L291.758459018 249.053832684 L291.588996215 248.884369881 L291.419533412 248.884369881 L291.25007061 248.714907078 L290.911145004 248.714907078 L290.741682201 248.545444275 L289.894368186 248.545444275 L289.724905383 248.375981472 288.030277354 248.375981472 " stroke="black" fill="transparent"/>
<path d="M208.213297181 187.19990962 L208.213297181 198.384454612 L210.246850816 198.384454612 L210.246850816 187.19990962 208.213297181 187.19990962 " stroke="black" fill="transparent"/>
<path d="M287.860814551 186.183132802 L287.691351748 186.352595605 L287.013500537 186.352595605 L286.844037734 186.522058408 L286.505112128 186.522058408 L286.335649325 186.691521211 L286.166186522 186.691521211 L285.996723719 186.860984014 L285.827260916 186.860984014 L285.657798113 187.030446817 L285.48833531 187.030446817 L284.132632887 188.38614924 L284.132632887 188.555612043 L283.793707281 188.894537649 L283.793707281 189.064000452 L283.624244478 189.233463255 L283.624244478 189.572388861 L283.454781675 189.741851664 L283.454781675 190.250240072 L283.285318873 190.419702875 L283.285318873 193.300570525 L283.454781675 193.470033328 L283.454781675 193.978421736 L283.624244478 194.147884539 L283.624244478 194.317347342 L283.793707281 194.486810145 L283.793707281 194.656272948 L283.963170084 194.825735751 L283.963170084 194.995198554 L284.132632887 195.164661357 L284.132632887 195.33412416 L285.48833531 196.689826583 L285.657798113 196.689826583 L285.827260916 196.859289386 L285.996723719 196.859289386 L286.166186522 197.028752189 L286.335649325 197.028752189 L286.505112128 197.198214992 L286.844037734 197.198214992 L287.013500537 197.367677795 L287.691351748 197.367677795 L287.860814551 197.537140598 L289.894368186 197.537140598 L290.063830989 197.367677795 L290.741682201 197.367677795 L290.911145004 197.198214992 L291.25007061 197.198214992 L291.419533412 197.028752189 L291.588996215 197.028752189 L291.758459018 196.859289386 L291.927921821 196.859289386 L292.097384624 196.689826583 L292.266847427 196.689826583 L292.775235836 196.181438174 L292.944698639 196.181438174 L293.114161442 196.011975371 L293.114161442 195.842512568 L293.792012653 195.164661357 L293.792012653 194.995198554 L293.961475456 194.825735751 L293.961475456 194.656272948 L294.130938259 194.486810145 L294.130938259 194.147884539 L294.300401062 193.978421736 L294.300401062 193.639496131 L294.469863865 193.470033328 L294.469863865 190.250240072 L294.300401062 190.080777269 L294.300401062 189.572388861 L294.130938259 189.402926058 L294.130938259 189.233463255 L293.961475456 189.064000452 L293.961475456 188.894537649 L293.792012653 188.725074846 L293.792012653 188.555612043 L293.283624244 188.047223634 L293.283624244 187.877760831 L292.944698639 187.538835226 L292.775235836 187.538835226 L292.266847427 187.030446817 L292.097384624 187.030446817 L291.927921821 186.860984014 L291.758459018 186.860984014 L291.588996215 186.691521211 L291.419533412 186.691521211 L291.25007061 186.522058408 L290.911145004 186.522058408 L290.741682201 186.352595605 L290.233293792 186.352595605 L290.063830989 186.183132802 287.860814551 186.183132802 " stroke="black" fill="transparent"/>
<path d="M208.72168559 124.837598147 L208.72168559 136.191605942 L210.585776422 136.191605942 L210.585776422 124.837598147 208.72168559 124.837598147 " stroke="black" fill="transparent"/>
<path d="M287.521888945 123.990284133 L287.352426142 124.159746936 L286.844037734 124.159746936 L286.674574931 124.329209738 L286.505112128 124.329209738 L286.335649325 124.498672541 L285.996723719 124.498672541 L285.657798113 124.837598147 L285.48833531 124.837598147 L284.979946902 125.345986556 L284.810484099 125.345986556 L284.471558493 125.684912162 L284.471558493 125.854374965 L284.132632887 126.193300571 L284.132632887 126.362763373 L283.793707281 126.701688979 L283.793707281 126.871151782 L283.624244478 127.040614585 L283.624244478 127.379540191 L283.454781675 127.549002994 L283.454781675 128.057391403 L283.285318873 128.226854206 L283.285318873 131.107721855 L283.454781675 131.277184658 L283.454781675 131.785573067 L283.624244478 131.95503587 L283.624244478 132.124498673 L283.793707281 132.293961475 L283.793707281 132.463424278 L283.963170084 132.632887081 L283.963170084 132.802349884 L284.132632887 132.971812687 L284.132632887 133.14127549 L285.318872507 134.32751511 L285.48833531 134.32751511 L285.827260916 134.666440716 L285.996723719 134.666440716 L286.166186522 134.835903519 L286.505112128 134.835903519 L286.674574931 135.005366322 L287.013500537 135.005366322 L287.18296334 135.174829125 L290.572219398 135.174829125 L290.741682201 135.005366322 L291.25007061 135.005366322 L291.419533412 134.835903519 L291.588996215 134.835903519 L291.758459018 134.666440716 L291.927921821 134.666440716 L292.266847427 134.32751511 L292.43631023 134.32751511 L293.62254985 133.14127549 L293.62254985 132.971812687 L293.961475456 132.632887081 L293.961475456 132.463424278 L294.130938259 132.293961475 L294.130938259 131.95503587 L294.300401062 131.785573067 L294.300401062 131.446647461 L294.469863865 131.277184658 L294.469863865 128.057391403 L294.300401062 127.8879286 L294.300401062 127.379540191 L294.130938259 127.210077388 L294.130938259 127.040614585 L293.961475456 126.871151782 L293.961475456 126.701688979 L293.792012653 126.532226176 L293.792012653 126.362763373 L293.453087047 126.023837768 L293.453087047 125.854374965 L292.775235836 125.176523753 L292.605773033 125.176523753 L292.097384624 124.668135344 L291.927921821 124.668135344 L291.758459018 124.498672541 L291.588996215 124.498672541 L291.419533412 124.329209738 L291.080607807 124.329209738 L290.911145004 124.159746936 L290.402756595 124.159746936 L290.233293792 123.990284133 287.521888945 123.990284133 " stroke="black" fill="transparent"/>
<path d="M992.148223465 0.0564876009716 L992.148223465 0.282438004858 L1000.0 0.282438004858 L1000.0 0.0564876009716 992.148223465 0.0564876009716 " stroke="black" fill="transparent"/>
<path d="M0.0564876009716 0.0564876009716 L0.0564876009716 0.282438004858 L7.90826413602 0.282438004858 L7.90826413602 0.0564876009716 0.0564876009716 0.0564876009716 " stroke="black" fill="transparent"/>
</svg>