<svg width="100.0mm" height="100.0mm" xmlns="http://www.w3.org/2000/svg" fill="transparent" ><path d="M0.0807102502018 0.0807102502018 L0.0807102502018 100.0 L100.0 100.0 L100.0 0.0807102502018 0.0807102502018 0.0807102502018 " stroke="black" fill="transparent"/>
<path d="M5.08474576271 5.08474576271 L5.08474576271 95.0766747377 L95.0766747377 95.0766747377 L95.0766747377 5.08474576271 5.08474576271 5.08474576271 " stroke="black" fill="transparent"/>
<path d="M10.0887812752 10.0887812752 L10.0887812752 90.1533494754 L90.1533494754 90.1533494754 L90.1533494754 10.0887812752 10.0887812752 10.0887812752 " stroke="black" fill="transparent"/>
<path d="M15.0928167877 15.0928167877 L15.0928167877 85.2300242131 L85.2300242131 85.2300242131 L85.2300242131 15.0928167877 15.0928167877 15.0928167877 " stroke="black" fill="transparent"/>
<path d="M20.0968523002 20.0968523002 L20.0968523002 80.3066989508 L80.3066989508 80.3066989508 L80.3066989508 20.0968523002 20.0968523002 20.0968523002 " stroke="black" fill="transparent"/>
<path d="M25.1008878128 25.1008878128 L25.1008878128 75.3833736885 L75.3833736885 75.3833736885 L75.3833736885 25.1008878128 25.1008878128 25.1008878128 " stroke="black" fill="transparent"/>
<path d="M30.1049233253 30.1049233253 L30.1049233253 70.4600484262 L70.4600484262 70.4600484262 L70.4600484262 30.1049233253 30.1049233253 30.1049233253 " stroke="black" fill="transparent"/>
<path d="M35.1089588378 35.1089588378 L35.1089588378 65.5367231638 L65.5367231638 65.5367231638 L65.5367231638 35.1089588378 35.1089588378 35.1089588378 " stroke="black" fill="transparent"/>
<path d="M40.1129943503 40.1129943503 L40.1129943503 60.6133979015 L60.6133979015 60.6133979015 L60.6133979015 40.1129943503 40.1129943503 40.1129943503 " stroke="black" fill="transparent"/>
<path d="M45.1170298628 45.1170298628 L45.1170298628 55.6900726392 L55.6900726392 55.6900726392 L55.6900726392 45.1170298628 45.1170298628 45.1170298628 " stroke="black" fill="transparent"/>
<path d="M50.1210653753 50.1210653753 L50.1210653753 50.7667473769 L50.7667473769 50.7667473769 L50.7667473769 50.1210653753 50.1210653753 50.1210653753 " stroke="black" fill="transparent"/>
</svg>