<svg width="100.0mm" height="100.0mm" xmlns="http://www.w3.org/2000/svg" fill="transparent" ><path d="M0.0807102502018 0.0807102502018 L0.0807102502018 100.0 L100.0 100.0 L100.0 0.0807102502018 0.0807102502018 0.0807102502018 " stroke="black" fill="transparent"/>
<path d="M2.09846650525 2.09846650525 L2.09846650525 98.0629539952 L98.0629539952 98.0629539952 L98.0629539952 2.09846650525 2.09846650525 2.09846650525 " stroke="black" fill="transparent"/>
<path d="M4.11622276029 4.11622276029 L4.11622276029 96.1259079903 L96.1259079903 96.1259079903 L96.1259079903 4.11622276029 4.11622276029 4.11622276029 " stroke="black" fill="transparent"/>
<path d="M6.13397901533 6.13397901533 L6.13397901533 94.1888619855 L94.1888619855 94.1888619855 L94.1888619855 6.13397901533 6.13397901533 6.13397901533 " stroke="black" fill="transparent"/>
<path d="M8.15173527038 8.15173527038 L8.15173527038 92.2518159806 L92.2518159806 92.2518159806 L92.2518159806 8.15173527038 8.15173527038 8.15173527038 " stroke="black" fill="transparent"/>
<path d="M10.1694915254 10.1694915254 L10.1694915254 90.3147699758 L90.3147699758 90.3147699758 L90.3147699758 10.1694915254 10.1694915254 10.1694915254 " stroke="black" fill="transparent"/>
<path d="M12.1872477805 12.1872477805 L12.1872477805 88.3777239709 L88.3777239709 88.3777239709 L88.3777239709 12.1872477805 12.1872477805 12.1872477805 " stroke="black" fill="transparent"/>
<path d="M14.2050040355 14.2050040355 L14.2050040355 86.4406779661 L86.4406779661 86.4406779661 L86.4406779661 14.2050040355 14.2050040355 14.2050040355 " stroke="black" fill="transparent"/>
<path d="M16.2227602906 16.2227602906 L16.2227602906 84.5036319613 L84.5036319613 84.5036319613 L84.5036319613 16.2227602906 16.2227602906 16.2227602906 " stroke="black" fill="transparent"/>
<path d="M18.2405165456 18.2405165456 L18.2405165456 82.5665859564 L82.5665859564 82.5665859564 L82.5665859564 18.2405165456 18.2405165456 18.2405165456 " stroke="black" fill="transparent"/>
<path d="M20.2582728006 20.2582728006 L20.2582728006 80.6295399516 L80.6295399516 80.6295399516 L80.6295399516 20.2582728006 20.2582728006 20.2582728006 " stroke="black" fill="transparent"/>
<path d="M22.2760290557 22.2760290557 L22.2760290557 78.6924939467 L78.6924939467 78.6924939467 L78.6924939467 22.2760290557 22.2760290557 22.2760290557 " stroke="black" fill="transparent"/>
<path d="M24.2937853107 24.2937853107 L24.2937853107 76.7554479419 L76.7554479419 76.7554479419 L76.7554479419 24.2937853107 24.2937853107 24.2937853107 " stroke="black" fill="transparent"/>
<path d="M26.3115415658 26.3115415658 L26.3115415658 74.818401937 L74.818401937 74.818401937 L74.818401937 26.3115415658 26.3115415658 26.3115415658 " stroke="black" fill="transparent"/>
<path d="M28.3292978208 28.3292978208 L28.3292978208 72.8813559322 L72.8813559322 72.8813559322 L72.8813559322 28.3292978208 28.3292978208 28.3292978208 " stroke="black" fill="transparent"/>
<path d="M30.3470540759 30.3470540759 L30.3470540759 70.9443099274 L70.9443099274 70.9443099274 L70.9443099274 30.3470540759 30.3470540759 30.3470540759 " stroke="black" fill="transparent"/>
<path d="M32.3648103309 32.3648103309 L32.3648103309 69.0072639225 L69.0072639225 69.0072639225 L69.0072639225 32.3648103309 32.3648103309 32.3648103309 " stroke="black" fill="transparent"/>
<path d="M34.382566586 34.382566586 L34.382566586 67.0702179177 L67.0702179177 67.0702179177 L67.0702179177 34.382566586 34.382566586 34.382566586 " stroke="black" fill="transparent"/>
<path d="M36.400322841 36.400322841 L36.400322841 65.1331719128 L65.1331719128 65.1331719128 L65.1331719128 36.400322841 36.400322841 36.400322841 " stroke="black" fill="transparent"/>
<path d="M38.418079096 38.418079096 L38.418079096 63.196125908 L63.196125908 63.196125908 L63.196125908 38.418079096 38.418079096 38.418079096 " stroke="black" fill="transparent"/>
<path d="M40.4358353511 40.4358353511 L40.4358353511 61.2590799031 L61.2590799031 61.2590799031 L61.2590799031 40.4358353511 40.4358353511 40.4358353511 " stroke="black" fill="transparent"/>
<path d="M42.4535916061 42.4535916061 L42.4535916061 59.3220338983 L59.3220338983 59.3220338983 L59.3220338983 42.4535916061 42.4535916061 42.4535916061 " stroke="black" fill="transparent"/>
<path d="M44.4713478612 44.4713478612 L44.4713478612 57.3849878935 L57.3849878935 57.3849878935 L57.3849878935 44.4713478612 44.4713478612 44.4713478612 " stroke="black" fill="transparent"/>
<path d="M46.4891041162 46.4891041162 L46.4891041162 55.4479418886 L55.4479418886 55.4479418886 L55.4479418886 46.4891041162 46.4891041162 46.4891041162 " stroke="black" fill="transparent"/>
<path d="M48.5068603713 48.5068603713 L48.5068603713 53.5108958838 L53.5108958838 53.5108958838 L53.5108958838 48.5068603713 48.5068603713 48.5068603713 " stroke="black" fill="transparent"/>
<path d="M50.5246166263 50.5246166263 L50.5246166263 51.5738498789 L51.5738498789 51.5738498789 L51.5738498789 50.5246166263 50.5246166263 50.5246166263 " stroke="black" fill="transparent"/>
</svg>