<svg width="100.0mm" height="100.0mm" xmlns="http://www.w3.org/2000/svg" fill="transparent" ><path d="M0.0807102502018 0.0807102502018 L0.0807102502018 100.0 L100.0 100.0 L100.0 0.0807102502018 0.0807102502018 0.0807102502018 " stroke="black" fill="transparent"/>
<path d="M2.58272800646 2.58272800646 L2.58272800646 97.5786924939 L97.5786924939 97.5786924939 L97.5786924939 2.58272800646 2.58272800646 2.58272800646 " stroke="black" fill="transparent"/>
<path d="M5.08474576271 5.08474576271 L5.08474576271 95.1573849879 L95.1573849879 95.1573849879 L95.1573849879 5.08474576271 5.08474576271 5.08474576271 " stroke="black" fill="transparent"/>
<path d="M7.58676351897 7.58676351897 L7.58676351897 92.7360774818 L92.7360774818 92.7360774818 L92.7360774818 7.58676351897 7.58676351897 7.58676351897 " stroke="black" fill="transparent"/>
<path d="M10.0887812752 10.0887812752 L10.0887812752 90.3147699758 L90.3147699758 90.3147699758 L90.3147699758 10.0887812752 10.0887812752 10.0887812752 " stroke="black" fill="transparent"/>
<path d="M12.5907990315 12.5907990315 L12.5907990315 87.8934624697 L87.8934624697 87.8934624697 L87.8934624697 12.5907990315 12.5907990315 12.5907990315 " stroke="black" fill="transparent"/>
<path d="M15.0928167877 15.0928167877 L15.0928167877 85.4721549637 L85.4721549637 85.4721549637 L85.4721549637 15.0928167877 15.0928167877 15.0928167877 " stroke="black" fill="transparent"/>
<path d="M17.594834544 17.594834544 L17.594834544 83.0508474576 L83.0508474576 83.0508474576 L83.0508474576 17.594834544 17.594834544 17.594834544 " stroke="black" fill="transparent"/>
<path d="M20.0968523002 20.0968523002 L20.0968523002 80.6295399516 L80.6295399516 80.6295399516 L80.6295399516 20.0968523002 20.0968523002 20.0968523002 " stroke="black" fill="transparent"/>
<path d="M22.5988700565 22.5988700565 L22.5988700565 78.2082324455 L78.2082324455 78.2082324455 L78.2082324455 22.5988700565 22.5988700565 22.5988700565 " stroke="black" fill="transparent"/>
<path d="M25.1008878128 25.1008878128 L25.1008878128 75.7869249395 L75.7869249395 75.7869249395 L75.7869249395 25.1008878128 25.1008878128 25.1008878128 " stroke="black" fill="transparent"/>
<path d="M27.602905569 27.602905569 L27.602905569 73.3656174334 L73.3656174334 73.3656174334 L73.3656174334 27.602905569 27.602905569 27.602905569 " stroke="black" fill="transparent"/>
<path d="M30.1049233253 30.1049233253 L30.1049233253 70.9443099274 L70.9443099274 70.9443099274 L70.9443099274 30.1049233253 30.1049233253 30.1049233253 " stroke="black" fill="transparent"/>
<path d="M32.6069410815 32.6069410815 L32.6069410815 68.5230024213 L68.5230024213 68.5230024213 L68.5230024213 32.6069410815 32.6069410815 32.6069410815 " stroke="black" fill="transparent"/>
<path d="M35.1089588378 35.1089588378 L35.1089588378 66.1016949153 L66.1016949153 66.1016949153 L66.1016949153 35.1089588378 35.1089588378 35.1089588378 " stroke="black" fill="transparent"/>
<path d="M37.610976594 37.610976594 L37.610976594 63.6803874092 L63.6803874092 63.6803874092 L63.6803874092 37.610976594 37.610976594 37.610976594 " stroke="black" fill="transparent"/>
<path d="M40.1129943503 40.1129943503 L40.1129943503 61.2590799031 L61.2590799031 61.2590799031 L61.2590799031 40.1129943503 40.1129943503 40.1129943503 " stroke="black" fill="transparent"/>
<path d="M42.6150121065 42.6150121065 L42.6150121065 58.8377723971 L58.8377723971 58.8377723971 L58.8377723971 42.6150121065 42.6150121065 42.6150121065 " stroke="black" fill="transparent"/>
<path d="M45.1170298628 45.1170298628 L45.1170298628 56.416464891 L56.416464891 56.416464891 L56.416464891 45.1170298628 45.1170298628 45.1170298628 " stroke="black" fill="transparent"/>
<path d="M47.619047619 47.619047619 L47.619047619 53.995157385 L53.995157385 53.995157385 L53.995157385 47.619047619 47.619047619 47.619047619 " stroke="black" fill="transparent"/>
<path d="M50.1210653753 50.1210653753 L50.1210653753 51.5738498789 L51.5738498789 51.5738498789 L51.5738498789 50.1210653753 50.1210653753 50.1210653753 " stroke="black" fill="transparent"/>
</svg>