<svg width="100.0mm" height="100.0mm" xmlns="http://www.w3.org/2000/svg" fill="transparent" ><path d="M0.0807102502018 0.0807102502018 L0.0807102502018 100.0 L100.0 100.0 L100.0 0.0807102502018 0.0807102502018 0.0807102502018 " stroke="black" fill="transparent"/>
<path d="M7.58676351897 7.58676351897 L7.58676351897 92.5746569814 L92.5746569814 92.5746569814 L92.5746569814 7.58676351897 7.58676351897 7.58676351897 " stroke="black" fill="transparent"/>
<path d="M15.0928167877 15.0928167877 L15.0928167877 85.1493139629 L85.1493139629 85.1493139629 L85.1493139629 15.0928167877 15.0928167877 15.0928167877 " stroke="black" fill="transparent"/>
<path d="M22.5988700565 22.5988700565 L22.5988700565 77.7239709443 L77.7239709443 77.7239709443 L77.7239709443 22.5988700565 22.5988700565 22.5988700565 " stroke="black" fill="transparent"/>
<path d="M30.1049233253 30.1049233253 L30.1049233253 70.2986279257 L70.2986279257 70.2986279257 L70.2986279257 30.1049233253 30.1049233253 30.1049233253 " stroke="black" fill="transparent"/>
<path d="M37.610976594 37.610976594 L37.610976594 62.8732849072 L62.8732849072 62.8732849072 L62.8732849072 37.610976594 37.610976594 37.610976594 " stroke="black" fill="transparent"/>
<path d="M45.1170298628 45.1170298628 L45.1170298628 55.4479418886 L55.4479418886 55.4479418886 L55.4479418886 45.1170298628 45.1170298628 45.1170298628 " stroke="black" fill="transparent"/>
</svg>