<svg width="136.144mm" height="136.144mm" xmlns="http://www.w3.org/2000/svg" fill="transparent" ><path d="M63.3306666667 0.169333333333 L63.1613333333 0.338666666667 L61.2986666667 0.338666666667 L61.1293333333 0.508 L59.7746666667 0.508 L59.6053333333 0.677333333333 L58.5893333333 0.677333333333 L58.42 0.846666666667 L57.404 0.846666666667 L57.2346666667 1.016 L56.388 1.016 L56.2186666667 1.18533333333 L55.372 1.18533333333 L55.2026666667 1.35466666667 L54.5253333333 1.35466666667 L54.356 1.524 L53.6786666667 1.524 L53.5093333333 1.69333333333 L53.0013333333 1.69333333333 L52.832 1.86266666667 L52.324 1.86266666667 L52.1546666667 2.032 L51.6466666667 2.032 L51.4773333333 2.20133333333 L50.9693333333 2.20133333333 L50.8 2.37066666667 L50.292 2.37066666667 L50.1226666667 2.54 L49.6146666667 2.54 L49.4453333333 2.70933333333 L49.1066666667 2.70933333333 L48.9373333333 2.87866666667 L48.4293333333 2.87866666667 L48.26 3.048 L47.9213333333 3.048 L47.752 3.21733333333 L47.4133333333 3.21733333333 L47.244 3.38666666667 L46.9053333333 3.38666666667 L46.736 3.556 L46.3973333333 3.556 L46.228 3.72533333333 L45.8893333333 3.72533333333 L45.72 3.89466666667 L45.3813333333 3.89466666667 L45.212 4.064 L44.8733333333 4.064 L44.704 4.23333333333 L44.5346666667 4.23333333333 L44.3653333333 4.40266666667 L44.0266666667 4.40266666667 L43.8573333333 4.572 L43.5186666667 4.572 L43.3493333333 4.74133333333 L43.18 4.74133333333 L43.0106666667 4.91066666667 L42.672 4.91066666667 L42.5026666667 5.08 L42.3333333333 5.08 L42.164 5.24933333333 L41.8253333333 5.24933333333 L41.656 5.41866666667 L41.4866666667 5.41866666667 L41.3173333333 5.588 L41.148 5.588 L40.9786666667 5.75733333333 L40.64 5.75733333333 L40.4706666667 5.92666666667 L40.3013333333 5.92666666667 L40.132 6.096 L39.9626666667 6.096 L39.7933333333 6.26533333333 L39.624 6.26533333333 L39.4546666667 6.43466666667 L39.2853333333 6.43466666667 L39.116 6.604 L38.9466666667 6.604 L38.7773333333 6.77333333333 L38.4386666667 6.77333333333 L38.2693333333 6.94266666667 L38.1 6.94266666667 L37.9306666667 7.112 L37.7613333333 7.112 L37.592 7.28133333333 L37.4226666667 7.28133333333 L37.2533333333 7.45066666667 L37.084 7.45066666667 L36.9146666667 7.62 L36.7453333333 7.62 L36.4066666667 7.95866666667 L36.2373333333 7.95866666667 L36.068 8.128 L35.8986666667 8.128 L35.7293333333 8.29733333333 L35.56 8.29733333333 L35.3906666667 8.46666666667 L35.2213333333 8.46666666667 L35.052 8.636 L34.8826666667 8.636 L34.544 8.97466666667 L34.3746666667 8.97466666667 L34.2053333333 9.144 L34.036 9.144 L33.8666666667 9.31333333333 L33.6973333333 9.31333333333 L33.3586666667 9.652 L33.1893333333 9.652 L33.02 9.82133333333 L32.8506666667 9.82133333333 L32.512 10.16 L32.3426666667 10.16 L32.1733333333 10.3293333333 L32.004 10.3293333333 L31.6653333333 10.668 L31.496 10.668 L31.1573333333 11.0066666667 L30.988 11.0066666667 L30.6493333333 11.3453333333 L30.48 11.3453333333 L30.1413333333 11.684 L29.972 11.684 L29.6333333333 12.0226666667 L29.464 12.0226666667 L29.1253333333 12.3613333333 L28.956 12.3613333333 L28.448 12.8693333333 L28.2786666667 12.8693333333 L27.94 13.208 L27.7706666667 13.208 L27.2626666667 13.716 L27.0933333333 13.716 L26.416 14.3933333333 L26.2466666667 14.3933333333 L25.7386666667 14.9013333333 L25.5693333333 14.9013333333 L24.7226666667 15.748 L24.5533333333 15.748 L23.7066666667 16.5946666667 L23.5373333333 16.5946666667 L22.1826666667 17.9493333333 L22.0133333333 17.9493333333 L17.9493333333 22.0133333333 L17.9493333333 22.1826666667 L16.5946666667 23.5373333333 L16.5946666667 23.7066666667 L15.748 24.5533333333 L15.748 24.7226666667 L14.9013333333 25.5693333333 L14.9013333333 25.7386666667 L14.3933333333 26.2466666667 L14.3933333333 26.416 L13.716 27.0933333333 L13.716 27.2626666667 L13.208 27.7706666667 L13.208 27.94 L12.8693333333 28.2786666667 L12.8693333333 28.448 L12.3613333333 28.956 L12.3613333333 29.1253333333 L12.0226666667 29.464 L12.0226666667 29.6333333333 L11.684 29.972 L11.684 30.1413333333 L11.3453333333 30.48 L11.3453333333 30.6493333333 L11.0066666667 30.988 L11.0066666667 31.1573333333 L10.668 31.496 L10.668 31.6653333333 L10.3293333333 32.004 L10.3293333333 32.1733333333 L10.16 32.3426666667 L10.16 32.512 L9.82133333333 32.8506666667 L9.82133333333 33.02 L9.652 33.1893333333 L9.652 33.3586666667 L9.31333333333 33.6973333333 L9.31333333333 33.8666666667 L9.144 34.036 L9.144 34.2053333333 L8.97466666667 34.3746666667 L8.97466666667 34.544 L8.636 34.8826666667 L8.636 35.052 L8.46666666667 35.2213333333 L8.46666666667 35.3906666667 L8.29733333333 35.56 L8.29733333333 35.7293333333 L8.128 35.8986666667 L8.128 36.068 L7.95866666667 36.2373333333 L7.95866666667 36.4066666667 L7.62 36.7453333333 L7.62 36.9146666667 L7.45066666667 37.084 L7.45066666667 37.2533333333 L7.28133333333 37.4226666667 L7.28133333333 37.592 L7.112 37.7613333333 L7.112 37.9306666667 L6.94266666667 38.1 L6.94266666667 38.2693333333 L6.77333333333 38.4386666667 L6.77333333333 38.7773333333 L6.604 38.9466666667 L6.604 39.116 L6.43466666667 39.2853333333 L6.43466666667 39.4546666667 L6.26533333333 39.624 L6.26533333333 39.7933333333 L6.096 39.9626666667 L6.096 40.132 L5.92666666667 40.3013333333 L5.92666666667 40.4706666667 L5.75733333333 40.64 L5.75733333333 40.9786666667 L5.588 41.148 L5.588 41.3173333333 L5.41866666667 41.4866666667 L5.41866666667 41.656 L5.24933333333 41.8253333333 L5.24933333333 42.164 L5.08 42.3333333333 L5.08 42.5026666667 L4.91066666667 42.672 L4.91066666667 43.0106666667 L4.74133333333 43.18 L4.74133333333 43.3493333333 L4.572 43.5186666667 L4.572 43.8573333333 L4.40266666667 44.0266666667 L4.40266666667 44.3653333333 L4.23333333333 44.5346666667 L4.23333333333 44.704 L4.064 44.8733333333 L4.064 45.212 L3.89466666667 45.3813333333 L3.89466666667 45.72 L3.72533333333 45.8893333333 L3.72533333333 46.228 L3.556 46.3973333333 L3.556 46.736 L3.38666666667 46.9053333333 L3.38666666667 47.244 L3.21733333333 47.4133333333 L3.21733333333 47.752 L3.048 47.9213333333 L3.048 48.26 L2.87866666667 48.4293333333 L2.87866666667 48.9373333333 L2.70933333333 49.1066666667 L2.70933333333 49.4453333333 L2.54 49.6146666667 L2.54 50.1226666667 L2.37066666667 50.292 L2.37066666667 50.8 L2.20133333333 50.9693333333 L2.20133333333 51.4773333333 L2.032 51.6466666667 L2.032 52.1546666667 L1.86266666667 52.324 L1.86266666667 52.832 L1.69333333333 53.0013333333 L1.69333333333 53.5093333333 L1.524 53.6786666667 L1.524 54.356 L1.35466666667 54.5253333333 L1.35466666667 55.2026666667 L1.18533333333 55.372 L1.18533333333 56.2186666667 L1.016 56.388 L1.016 57.2346666667 L0.846666666667 57.404 L0.846666666667 58.42 L0.677333333333 58.5893333333 L0.677333333333 59.6053333333 L0.508 59.7746666667 L0.508 61.1293333333 L0.338666666667 61.2986666667 L0.338666666667 63.1613333333 L0.169333333333 63.3306666667 L0.169333333333 72.9826666667 L0.338666666667 73.152 L0.338666666667 75.0146666667 L0.508 75.184 L0.508 76.5386666667 L0.677333333333 76.708 L0.677333333333 77.724 L0.846666666667 77.8933333333 L0.846666666667 78.9093333333 L1.016 79.0786666667 L1.016 79.9253333333 L1.18533333333 80.0946666667 L1.18533333333 80.9413333333 L1.35466666667 81.1106666667 L1.35466666667 81.788 L1.524 81.9573333333 L1.524 82.4653333333 L1.69333333333 82.6346666667 L1.69333333333 83.312 L1.86266666667 83.4813333333 L1.86266666667 83.9893333333 L2.032 84.1586666667 L2.032 84.6666666667 L2.20133333333 84.836 L2.20133333333 85.344 L2.37066666667 85.5133333333 L2.37066666667 86.0213333333 L2.54 86.1906666667 L2.54 86.6986666667 L2.70933333333 86.868 L2.70933333333 87.2066666667 L2.87866666667 87.376 L2.87866666667 87.884 L3.048 88.0533333333 L3.048 88.392 L3.21733333333 88.5613333333 L3.21733333333 88.9 L3.38666666667 89.0693333333 L3.38666666667 89.408 L3.556 89.5773333333 L3.556 89.916 L3.72533333333 90.0853333333 L3.72533333333 90.424 L3.89466666667 90.5933333333 L3.89466666667 90.932 L4.064 91.1013333333 L4.064 91.44 L4.23333333333 91.6093333333 L4.23333333333 91.7786666667 L4.40266666667 91.948 L4.40266666667 92.2866666667 L4.572 92.456 L4.572 92.7946666667 L4.74133333333 92.964 L4.74133333333 93.1333333333 L4.91066666667 93.3026666667 L4.91066666667 93.6413333333 L5.08 93.8106666667 L5.08 93.98 L5.24933333333 94.1493333333 L5.24933333333 94.488 L5.41866666667 94.6573333333 L5.41866666667 94.8266666667 L5.588 94.996 L5.588 95.1653333333 L5.75733333333 95.3346666667 L5.75733333333 95.6733333333 L5.92666666667 95.8426666667 L5.92666666667 96.012 L6.096 96.1813333333 L6.096 96.3506666667 L6.26533333333 96.52 L6.26533333333 96.6893333333 L6.43466666667 96.8586666667 L6.43466666667 97.028 L6.604 97.1973333333 L6.604 97.3666666667 L6.77333333333 97.536 L6.77333333333 97.7053333333 L6.94266666667 97.8746666667 L6.94266666667 98.2133333333 L7.112 98.3826666667 L7.112 98.552 L7.28133333333 98.7213333333 L7.28133333333 98.8906666667 L7.45066666667 99.06 L7.45066666667 99.2293333333 L7.78933333333 99.568 L7.78933333333 99.7373333333 L7.95866666667 99.9066666667 L7.95866666667 100.076 L8.128 100.245333333 L8.128 100.414666667 L8.29733333333 100.584 L8.29733333333 100.753333333 L8.46666666667 100.922666667 L8.46666666667 101.092 L8.636 101.261333333 L8.636 101.430666667 L8.97466666667 101.769333333 L8.97466666667 101.938666667 L9.144 102.108 L9.144 102.277333333 L9.31333333333 102.446666667 L9.31333333333 102.616 L9.652 102.954666667 L9.652 103.124 L9.82133333333 103.293333333 L9.82133333333 103.462666667 L10.16 103.801333333 L10.16 103.970666667 L10.4986666667 104.309333333 L10.4986666667 104.478666667 L10.668 104.648 L10.668 104.817333333 L11.0066666667 105.156 L11.0066666667 105.325333333 L11.3453333333 105.664 L11.3453333333 105.833333333 L11.684 106.172 L11.684 106.341333333 L12.0226666667 106.68 L12.0226666667 106.849333333 L12.3613333333 107.188 L12.3613333333 107.357333333 L12.8693333333 107.865333333 L12.8693333333 108.034666667 L13.3773333333 108.542666667 L13.3773333333 108.712 L13.716 109.050666667 L13.716 109.22 L14.3933333333 109.897333333 L14.3933333333 110.066666667 L14.9013333333 110.574666667 L14.9013333333 110.744 L15.748 111.590666667 L15.748 111.76 L16.5946666667 112.606666667 L16.5946666667 112.776 L18.1186666667 114.3 L18.1186666667 114.469333333 L21.844 118.194666667 L22.0133333333 118.194666667 L23.5373333333 119.718666667 L23.7066666667 119.718666667 L24.5533333333 120.565333333 L24.7226666667 120.565333333 L25.4 121.242666667 L25.5693333333 121.242666667 L26.2466666667 121.92 L26.416 121.92 L26.924 122.428 L27.0933333333 122.428 L27.6013333333 122.936 L27.7706666667 122.936 L28.2786666667 123.444 L28.448 123.444 L28.956 123.952 L29.1253333333 123.952 L29.464 124.290666667 L29.6333333333 124.290666667 L29.972 124.629333333 L30.1413333333 124.629333333 L30.48 124.968 L30.6493333333 124.968 L30.988 125.306666667 L31.1573333333 125.306666667 L31.496 125.645333333 L31.6653333333 125.645333333 L31.8346666667 125.814666667 L32.004 125.814666667 L32.3426666667 126.153333333 L32.512 126.153333333 L32.8506666667 126.492 L33.02 126.492 L33.1893333333 126.661333333 L33.3586666667 126.661333333 L33.6973333333 127.0 L33.8666666667 127.0 L34.036 127.169333333 L34.2053333333 127.169333333 L34.3746666667 127.338666667 L34.544 127.338666667 L34.8826666667 127.677333333 L35.052 127.677333333 L35.2213333333 127.846666667 L35.3906666667 127.846666667 L35.56 128.016 L35.7293333333 128.016 L35.8986666667 128.185333333 L36.068 128.185333333 L36.2373333333 128.354666667 L36.4066666667 128.354666667 L36.576 128.524 L36.7453333333 128.524 L36.9146666667 128.693333333 L37.084 128.693333333 L37.4226666667 129.032 L37.592 129.032 L37.7613333333 129.201333333 L38.1 129.201333333 L38.2693333333 129.370666667 L38.4386666667 129.370666667 L38.608 129.54 L38.7773333333 129.54 L38.9466666667 129.709333333 L39.116 129.709333333 L39.2853333333 129.878666667 L39.4546666667 129.878666667 L39.624 130.048 L39.7933333333 130.048 L39.9626666667 130.217333333 L40.132 130.217333333 L40.3013333333 130.386666667 L40.64 130.386666667 L40.8093333333 130.556 L40.9786666667 130.556 L41.148 130.725333333 L41.3173333333 130.725333333 L41.4866666667 130.894666667 L41.8253333333 130.894666667 L41.9946666667 131.064 L42.164 131.064 L42.3333333333 131.233333333 L42.5026666667 131.233333333 L42.672 131.402666667 L43.0106666667 131.402666667 L43.18 131.572 L43.3493333333 131.572 L43.5186666667 131.741333333 L43.8573333333 131.741333333 L44.0266666667 131.910666667 L44.3653333333 131.910666667 L44.5346666667 132.08 L44.704 132.08 L44.8733333333 132.249333333 L45.212 132.249333333 L45.3813333333 132.418666667 L45.72 132.418666667 L45.8893333333 132.588 L46.228 132.588 L46.3973333333 132.757333333 L46.736 132.757333333 L46.9053333333 132.926666667 L47.244 132.926666667 L47.4133333333 133.096 L47.752 133.096 L47.9213333333 133.265333333 L48.4293333333 133.265333333 L48.5986666667 133.434666667 L48.9373333333 133.434666667 L49.1066666667 133.604 L49.4453333333 133.604 L49.6146666667 133.773333333 L50.1226666667 133.773333333 L50.292 133.942666667 L50.8 133.942666667 L50.9693333333 134.112 L51.4773333333 134.112 L51.6466666667 134.281333333 L52.1546666667 134.281333333 L52.324 134.450666667 L52.832 134.450666667 L53.0013333333 134.62 L53.6786666667 134.62 L53.848 134.789333333 L54.5253333333 134.789333333 L54.6946666667 134.958666667 L55.372 134.958666667 L55.5413333333 135.128 L56.2186666667 135.128 L56.388 135.297333333 L57.2346666667 135.297333333 L57.404 135.466666667 L58.42 135.466666667 L58.5893333333 135.636 L59.7746666667 135.636 L59.944 135.805333333 L61.2986666667 135.805333333 L61.468 135.974666667 L63.3306666667 135.974666667 L63.5 136.144 L72.8133333333 136.144 L72.9826666667 135.974666667 L74.8453333333 135.974666667 L75.0146666667 135.805333333 L76.3693333333 135.805333333 L76.5386666667 135.636 L77.724 135.636 L77.8933333333 135.466666667 L78.9093333333 135.466666667 L79.0786666667 135.297333333 L79.9253333333 135.297333333 L80.0946666667 135.128 L80.772 135.128 L80.9413333333 134.958666667 L81.6186666667 134.958666667 L81.788 134.789333333 L82.4653333333 134.789333333 L82.6346666667 134.62 L83.312 134.62 L83.4813333333 134.450666667 L83.9893333333 134.450666667 L84.1586666667 134.281333333 L84.6666666667 134.281333333 L84.836 134.112 L85.344 134.112 L85.5133333333 133.942666667 L86.0213333333 133.942666667 L86.1906666667 133.773333333 L86.5293333333 133.773333333 L86.6986666667 133.604 L87.2066666667 133.604 L87.376 133.434666667 L87.7146666667 133.434666667 L87.884 133.265333333 L88.392 133.265333333 L88.5613333333 133.096 L88.9 133.096 L89.0693333333 132.926666667 L89.408 132.926666667 L89.5773333333 132.757333333 L89.916 132.757333333 L90.0853333333 132.588 L90.424 132.588 L90.5933333333 132.418666667 L90.932 132.418666667 L91.1013333333 132.249333333 L91.2706666667 132.249333333 L91.44 132.08 L91.7786666667 132.08 L91.948 131.910666667 L92.2866666667 131.910666667 L92.456 131.741333333 L92.6253333333 131.741333333 L92.7946666667 131.572 L93.1333333333 131.572 L93.3026666667 131.402666667 L93.6413333333 131.402666667 L93.8106666667 131.233333333 L93.98 131.233333333 L94.1493333333 131.064 L94.3186666667 131.064 L94.488 130.894666667 L94.8266666667 130.894666667 L94.996 130.725333333 L95.1653333333 130.725333333 L95.3346666667 130.556 L95.504 130.556 L95.6733333333 130.386666667 L96.012 130.386666667 L96.1813333333 130.217333333 L96.3506666667 130.217333333 L96.52 130.048 L96.6893333333 130.048 L96.8586666667 129.878666667 L97.028 129.878666667 L97.1973333333 129.709333333 L97.3666666667 129.709333333 L97.536 129.54 L97.7053333333 129.54 L97.8746666667 129.370666667 L98.044 129.370666667 L98.2133333333 129.201333333 L98.3826666667 129.201333333 L98.552 129.032 L98.7213333333 129.032 L98.8906666667 128.862666667 L99.06 128.862666667 L99.2293333333 128.693333333 L99.3986666667 128.693333333 L99.568 128.524 L99.7373333333 128.524 L99.9066666667 128.354666667 L100.076 128.354666667 L100.245333333 128.185333333 L100.414666667 128.185333333 L100.584 128.016 L100.753333333 128.016 L100.922666667 127.846666667 L101.092 127.846666667 L101.430666667 127.508 L101.6 127.508 L101.769333333 127.338666667 L101.938666667 127.338666667 L102.108 127.169333333 L102.277333333 127.169333333 L102.616 126.830666667 L102.785333333 126.830666667 L102.954666667 126.661333333 L103.124 126.661333333 L103.293333333 126.492 L103.462666667 126.492 L103.801333333 126.153333333 L103.970666667 126.153333333 L104.309333333 125.814666667 L104.478666667 125.814666667 L104.648 125.645333333 L104.817333333 125.645333333 L105.156 125.306666667 L105.325333333 125.306666667 L105.664 124.968 L105.833333333 124.968 L106.172 124.629333333 L106.341333333 124.629333333 L106.68 124.290666667 L106.849333333 124.290666667 L107.357333333 123.782666667 L107.526666667 123.782666667 L107.865333333 123.444 L108.034666667 123.444 L108.542666667 122.936 L108.712 122.936 L109.22 122.428 L109.389333333 122.428 L109.897333333 121.92 L110.066666667 121.92 L110.744 121.242666667 L110.913333333 121.242666667 L111.590666667 120.565333333 L111.76 120.565333333 L112.776 119.549333333 L112.945333333 119.549333333 L114.3 118.194666667 L114.469333333 118.194666667 L118.194666667 114.469333333 L118.194666667 114.3 L119.549333333 112.945333333 L119.549333333 112.776 L120.565333333 111.76 L120.565333333 111.590666667 L121.242666667 110.913333333 L121.242666667 110.744 L121.92 110.066666667 L121.92 109.897333333 L122.428 109.389333333 L122.428 109.22 L122.936 108.712 L122.936 108.542666667 L123.444 108.034666667 L123.444 107.865333333 L123.782666667 107.526666667 L123.782666667 107.357333333 L124.290666667 106.849333333 L124.290666667 106.68 L124.629333333 106.341333333 L124.629333333 106.172 L124.968 105.833333333 L124.968 105.664 L125.306666667 105.325333333 L125.306666667 105.156 L125.645333333 104.817333333 L125.645333333 104.648 L125.814666667 104.478666667 L125.814666667 104.309333333 L126.153333333 103.970666667 L126.153333333 103.801333333 L126.492 103.462666667 L126.492 103.293333333 L126.661333333 103.124 L126.661333333 102.954666667 L126.830666667 102.785333333 L126.830666667 102.616 L127.169333333 102.277333333 L127.169333333 102.108 L127.338666667 101.938666667 L127.338666667 101.769333333 L127.677333333 101.430666667 L127.677333333 101.261333333 L127.846666667 101.092 L127.846666667 100.922666667 L128.016 100.753333333 L128.016 100.584 L128.185333333 100.414666667 L128.185333333 100.245333333 L128.354666667 100.076 L128.354666667 99.9066666667 L128.524 99.7373333333 L128.524 99.568 L128.693333333 99.3986666667 L128.693333333 99.2293333333 L128.862666667 99.06 L128.862666667 98.8906666667 L129.032 98.7213333333 L129.032 98.552 L129.201333333 98.3826666667 L129.201333333 98.2133333333 L129.370666667 98.044 L129.370666667 97.8746666667 L129.54 97.7053333333 L129.54 97.536 L129.709333333 97.3666666667 L129.709333333 97.1973333333 L129.878666667 97.028 L129.878666667 96.8586666667 L130.048 96.6893333333 L130.048 96.52 L130.217333333 96.3506666667 L130.217333333 96.1813333333 L130.386666667 96.012 L130.386666667 95.6733333333 L130.556 95.504 L130.556 95.3346666667 L130.725333333 95.1653333333 L130.725333333 94.996 L130.894666667 94.8266666667 L130.894666667 94.488 L131.064 94.3186666667 L131.064 94.1493333333 L131.233333333 93.98 L131.233333333 93.8106666667 L131.402666667 93.6413333333 L131.402666667 93.3026666667 L131.572 93.1333333333 L131.572 92.7946666667 L131.741333333 92.6253333333 L131.741333333 92.456 L131.910666667 92.2866666667 L131.910666667 91.948 L132.08 91.7786666667 L132.08 91.44 L132.249333333 91.2706666667 L132.249333333 91.1013333333 L132.418666667 90.932 L132.418666667 90.5933333333 L132.588 90.424 L132.588 90.0853333333 L132.757333333 89.916 L132.757333333 89.5773333333 L132.926666667 89.408 L132.926666667 89.0693333333 L133.096 88.9 L133.096 88.5613333333 L133.265333333 88.392 L133.265333333 87.884 L133.434666667 87.7146666667 L133.434666667 87.376 L133.604 87.2066666667 L133.604 86.6986666667 L133.773333333 86.5293333333 L133.773333333 86.1906666667 L133.942666667 86.0213333333 L133.942666667 85.5133333333 L134.112 85.344 L134.112 84.836 L134.281333333 84.6666666667 L134.281333333 84.1586666667 L134.450666667 83.9893333333 L134.450666667 83.4813333333 L134.62 83.312 L134.62 82.6346666667 L134.789333333 82.4653333333 L134.789333333 81.788 L134.958666667 81.6186666667 L134.958666667 80.9413333333 L135.128 80.772 L135.128 80.0946666667 L135.297333333 79.9253333333 L135.297333333 79.0786666667 L135.466666667 78.9093333333 L135.466666667 77.8933333333 L135.636 77.724 L135.636 76.5386666667 L135.805333333 76.3693333333 L135.805333333 75.0146666667 L135.974666667 74.8453333333 L135.974666667 72.9826666667 L136.144 72.8133333333 L136.144 63.5 L135.974666667 63.3306666667 L135.974666667 61.468 L135.805333333 61.2986666667 L135.805333333 59.7746666667 L135.636 59.6053333333 L135.636 58.5893333333 L135.466666667 58.42 L135.466666667 57.404 L135.297333333 57.2346666667 L135.297333333 56.388 L135.128 56.2186666667 L135.128 55.5413333333 L134.958666667 55.372 L134.958666667 54.6946666667 L134.789333333 54.5253333333 L134.789333333 53.848 L134.62 53.6786666667 L134.62 53.0013333333 L134.450666667 52.832 L134.450666667 52.324 L134.281333333 52.1546666667 L134.281333333 51.6466666667 L134.112 51.4773333333 L134.112 50.9693333333 L133.942666667 50.8 L133.942666667 50.292 L133.773333333 50.1226666667 L133.773333333 49.6146666667 L133.604 49.4453333333 L133.604 49.1066666667 L133.434666667 48.9373333333 L133.434666667 48.5986666667 L133.265333333 48.4293333333 L133.265333333 47.9213333333 L133.096 47.752 L133.096 47.4133333333 L132.926666667 47.244 L132.926666667 46.9053333333 L132.757333333 46.736 L132.757333333 46.3973333333 L132.588 46.228 L132.588 45.8893333333 L132.418666667 45.72 L132.418666667 45.3813333333 L132.249333333 45.212 L132.249333333 44.8733333333 L132.08 44.704 L132.08 44.5346666667 L131.910666667 44.3653333333 L131.910666667 44.0266666667 L131.741333333 43.8573333333 L131.741333333 43.5186666667 L131.572 43.3493333333 L131.572 43.18 L131.402666667 43.0106666667 L131.402666667 42.672 L131.233333333 42.5026666667 L131.233333333 42.3333333333 L131.064 42.164 L131.064 41.9946666667 L130.894666667 41.8253333333 L130.894666667 41.4866666667 L130.725333333 41.3173333333 L130.725333333 41.148 L130.556 40.9786666667 L130.556 40.8093333333 L130.386666667 40.64 L130.386666667 40.3013333333 L130.217333333 40.132 L130.217333333 39.9626666667 L130.048 39.7933333333 L130.048 39.624 L129.878666667 39.4546666667 L129.878666667 39.2853333333 L129.709333333 39.116 L129.709333333 38.9466666667 L129.54 38.7773333333 L129.54 38.608 L129.370666667 38.4386666667 L129.370666667 38.2693333333 L129.201333333 38.1 L129.201333333 37.7613333333 L129.032 37.592 L129.032 37.4226666667 L128.693333333 37.084 L128.693333333 36.9146666667 L128.524 36.7453333333 L128.524 36.576 L128.354666667 36.4066666667 L128.354666667 36.2373333333 L128.185333333 36.068 L128.185333333 35.8986666667 L128.016 35.7293333333 L128.016 35.56 L127.846666667 35.3906666667 L127.846666667 35.2213333333 L127.677333333 35.052 L127.677333333 34.8826666667 L127.338666667 34.544 L127.338666667 34.3746666667 L127.169333333 34.2053333333 L127.169333333 34.036 L127.0 33.8666666667 L127.0 33.6973333333 L126.661333333 33.3586666667 L126.661333333 33.1893333333 L126.492 33.02 L126.492 32.8506666667 L126.153333333 32.512 L126.153333333 32.3426666667 L125.814666667 32.004 L125.814666667 31.8346666667 L125.645333333 31.6653333333 L125.645333333 31.496 L125.306666667 31.1573333333 L125.306666667 30.988 L124.968 30.6493333333 L124.968 30.48 L124.629333333 30.1413333333 L124.629333333 29.972 L124.290666667 29.6333333333 L124.290666667 29.464 L123.952 29.1253333333 L123.952 28.956 L123.444 28.448 L123.444 28.2786666667 L122.936 27.7706666667 L122.936 27.6013333333 L122.428 27.0933333333 L122.428 26.924 L121.92 26.416 L121.92 26.2466666667 L121.242666667 25.5693333333 L121.242666667 25.4 L120.565333333 24.7226666667 L120.565333333 24.5533333333 L119.718666667 23.7066666667 L119.718666667 23.5373333333 L118.194666667 22.0133333333 L118.194666667 21.844 L114.469333333 18.1186666667 L114.3 18.1186666667 L112.776 16.5946666667 L112.606666667 16.5946666667 L111.76 15.748 L111.590666667 15.748 L110.744 14.9013333333 L110.574666667 14.9013333333 L110.066666667 14.3933333333 L109.897333333 14.3933333333 L109.22 13.716 L109.050666667 13.716 L108.712 13.3773333333 L108.542666667 13.3773333333 L108.034666667 12.8693333333 L107.865333333 12.8693333333 L107.357333333 12.3613333333 L107.188 12.3613333333 L106.849333333 12.0226666667 L106.68 12.0226666667 L106.341333333 11.684 L106.172 11.684 L105.833333333 11.3453333333 L105.664 11.3453333333 L105.325333333 11.0066666667 L105.156 11.0066666667 L104.817333333 10.668 L104.648 10.668 L104.478666667 10.4986666667 L104.309333333 10.4986666667 L103.970666667 10.16 L103.801333333 10.16 L103.462666667 9.82133333333 L103.293333333 9.82133333333 L103.124 9.652 L102.954666667 9.652 L102.616 9.31333333333 L102.446666667 9.31333333333 L102.277333333 9.144 L102.108 9.144 L101.938666667 8.97466666667 L101.769333333 8.97466666667 L101.430666667 8.636 L101.261333333 8.636 L101.092 8.46666666667 L100.922666667 8.46666666667 L100.753333333 8.29733333333 L100.584 8.29733333333 L100.414666667 8.128 L100.245333333 8.128 L100.076 7.95866666667 L99.9066666667 7.95866666667 L99.7373333333 7.78933333333 L99.568 7.78933333333 L99.2293333333 7.45066666667 L99.06 7.45066666667 L98.8906666667 7.28133333333 L98.7213333333 7.28133333333 L98.552 7.112 L98.3826666667 7.112 L98.2133333333 6.94266666667 L97.8746666667 6.94266666667 L97.7053333333 6.77333333333 L97.536 6.77333333333 L97.3666666667 6.604 L97.1973333333 6.604 L97.028 6.43466666667 L96.8586666667 6.43466666667 L96.6893333333 6.26533333333 L96.52 6.26533333333 L96.3506666667 6.096 L96.1813333333 6.096 L96.012 5.92666666667 L95.8426666667 5.92666666667 L95.6733333333 5.75733333333 L95.3346666667 5.75733333333 L95.1653333333 5.588 L94.996 5.588 L94.8266666667 5.41866666667 L94.6573333333 5.41866666667 L94.488 5.24933333333 L94.1493333333 5.24933333333 L93.98 5.08 L93.8106666667 5.08 L93.6413333333 4.91066666667 L93.3026666667 4.91066666667 L93.1333333333 4.74133333333 L92.964 4.74133333333 L92.7946666667 4.572 L92.456 4.572 L92.2866666667 4.40266666667 L91.948 4.40266666667 L91.7786666667 4.23333333333 L91.6093333333 4.23333333333 L91.44 4.064 L91.1013333333 4.064 L90.932 3.89466666667 L90.5933333333 3.89466666667 L90.424 3.72533333333 L90.0853333333 3.72533333333 L89.916 3.556 L89.5773333333 3.556 L89.408 3.38666666667 L89.0693333333 3.38666666667 L88.9 3.21733333333 L88.5613333333 3.21733333333 L88.392 3.048 L88.0533333333 3.048 L87.884 2.87866666667 L87.376 2.87866666667 L87.2066666667 2.70933333333 L86.868 2.70933333333 L86.6986666667 2.54 L86.1906666667 2.54 L86.0213333333 2.37066666667 L85.5133333333 2.37066666667 L85.344 2.20133333333 L84.836 2.20133333333 L84.6666666667 2.032 L84.1586666667 2.032 L83.9893333333 1.86266666667 L83.4813333333 1.86266666667 L83.312 1.69333333333 L82.6346666667 1.69333333333 L82.4653333333 1.524 L81.9573333333 1.524 L81.788 1.35466666667 L81.1106666667 1.35466666667 L80.9413333333 1.18533333333 L80.0946666667 1.18533333333 L79.9253333333 1.016 L79.0786666667 1.016 L78.9093333333 0.846666666667 L77.8933333333 0.846666666667 L77.724 0.677333333333 L76.708 0.677333333333 L76.5386666667 0.508 L75.184 0.508 L75.0146666667 0.338666666667 L73.152 0.338666666667 L72.9826666667 0.169333333333 63.3306666667 0.169333333333 " stroke="black" fill="transparent"/>
<path d="M66.8866666667 33.528 L67.056 33.3586666667 L69.2573333333 33.3586666667 L69.4266666667 33.528 L71.7973333333 33.528 L71.9666666667 33.6973333333 L73.152 33.6973333333 L73.3213333333 33.8666666667 L74.168 33.8666666667 L74.3373333333 34.036 L75.0146666667 34.036 L75.184 34.2053333333 L75.8613333333 34.2053333333 L76.0306666667 34.3746666667 L76.5386666667 34.3746666667 L76.708 34.544 L77.216 34.544 L77.3853333333 34.7133333333 L77.8933333333 34.7133333333 L78.0626666667 34.8826666667 L78.4013333333 34.8826666667 L78.5706666667 35.052 L78.9093333333 35.052 L79.0786666667 35.2213333333 L79.4173333333 35.2213333333 L79.5866666667 35.3906666667 L79.9253333333 35.3906666667 L80.0946666667 35.56 L80.4333333333 35.56 L80.6026666667 35.7293333333 L80.772 35.7293333333 L80.9413333333 35.8986666667 L81.28 35.8986666667 L81.4493333333 36.068 L81.6186666667 36.068 L81.788 36.2373333333 L81.9573333333 36.2373333333 L82.1266666667 36.4066666667 L82.296 36.4066666667 L82.4653333333 36.576 L82.804 36.576 L82.9733333333 36.7453333333 L83.1426666667 36.7453333333 L83.312 36.9146666667 L83.4813333333 36.9146666667 L83.6506666667 37.084 L83.82 37.084 L83.9893333333 37.2533333333 L84.1586666667 37.2533333333 L84.328 37.4226666667 L84.4973333333 37.4226666667 L84.836 37.7613333333 L85.0053333333 37.7613333333 L85.1746666667 37.9306666667 L85.344 37.9306666667 L85.5133333333 38.1 L85.6826666667 38.1 L86.0213333333 38.4386666667 L86.1906666667 38.4386666667 L86.36 38.608 L86.5293333333 38.608 L86.868 38.9466666667 L87.0373333333 38.9466666667 L87.376 39.2853333333 L87.5453333333 39.2853333333 L87.884 39.624 L88.0533333333 39.624 L88.5613333333 40.132 L88.7306666667 40.132 L89.2386666667 40.64 L89.408 40.64 L89.916 41.148 L90.0853333333 41.148 L91.1013333333 42.164 L91.2706666667 42.164 L94.1493333333 45.0426666667 L94.1493333333 45.212 L95.1653333333 46.228 L95.1653333333 46.3973333333 L95.6733333333 46.9053333333 L95.6733333333 47.0746666667 L96.1813333333 47.5826666667 L96.1813333333 47.752 L96.6893333333 48.26 L96.6893333333 48.4293333333 L97.028 48.768 L97.028 48.9373333333 L97.3666666667 49.276 L97.3666666667 49.4453333333 L97.7053333333 49.784 L97.7053333333 49.9533333333 L97.8746666667 50.1226666667 L97.8746666667 50.292 L98.2133333333 50.6306666667 L98.2133333333 50.8 L98.3826666667 50.9693333333 L98.3826666667 51.1386666667 L98.552 51.308 L98.552 51.4773333333 L98.8906666667 51.816 L98.8906666667 51.9853333333 L99.06 52.1546666667 L99.06 52.324 L99.2293333333 52.4933333333 L99.2293333333 52.6626666667 L99.3986666667 52.832 L99.3986666667 53.0013333333 L99.568 53.1706666667 L99.568 53.34 L99.7373333333 53.5093333333 L99.7373333333 53.848 L99.9066666667 54.0173333333 L99.9066666667 54.1866666667 L100.076 54.356 L100.076 54.5253333333 L100.245333333 54.6946666667 L100.245333333 54.864 L100.414666667 55.0333333333 L100.414666667 55.372 L100.584 55.5413333333 L100.584 55.88 L100.753333333 56.0493333333 L100.753333333 56.2186666667 L100.922666667 56.388 L100.922666667 56.7266666667 L101.092 56.896 L101.092 57.2346666667 L101.261333333 57.404 L101.261333333 57.7426666667 L101.430666667 57.912 L101.430666667 58.2506666667 L101.6 58.42 L101.6 58.928 L101.769333333 59.0973333333 L101.769333333 59.6053333333 L101.938666667 59.7746666667 L101.938666667 60.2826666667 L102.108 60.452 L102.108 61.1293333333 L102.277333333 61.2986666667 L102.277333333 61.976 L102.446666667 62.1453333333 L102.446666667 62.992 L102.616 63.1613333333 L102.616 64.516 L102.785333333 64.6853333333 L102.785333333 67.2253333333 L102.954666667 67.3946666667 L102.954666667 68.9186666667 L102.785333333 69.088 L102.785333333 71.628 L102.616 71.7973333333 L102.616 73.152 L102.446666667 73.3213333333 L102.446666667 74.168 L102.277333333 74.3373333333 L102.277333333 75.0146666667 L102.108 75.184 L102.108 75.8613333333 L101.938666667 76.0306666667 L101.938666667 76.5386666667 L101.769333333 76.708 L101.769333333 77.216 L101.6 77.3853333333 L101.6 77.724 L101.430666667 77.8933333333 L101.430666667 78.4013333333 L101.261333333 78.5706666667 L101.261333333 78.9093333333 L101.092 79.0786666667 L101.092 79.4173333333 L100.922666667 79.5866666667 L100.922666667 79.9253333333 L100.753333333 80.0946666667 L100.753333333 80.264 L100.584 80.4333333333 L100.584 80.772 L100.414666667 80.9413333333 L100.414666667 81.1106666667 L100.245333333 81.28 L100.245333333 81.6186666667 L100.076 81.788 L100.076 81.9573333333 L99.9066666667 82.1266666667 L99.9066666667 82.296 L99.7373333333 82.4653333333 L99.7373333333 82.804 L99.568 82.9733333333 L99.568 83.1426666667 L99.3986666667 83.312 L99.3986666667 83.4813333333 L99.2293333333 83.6506666667 L99.2293333333 83.82 L99.06 83.9893333333 L99.06 84.1586666667 L98.7213333333 84.4973333333 L98.7213333333 84.6666666667 L98.552 84.836 L98.552 85.0053333333 L98.3826666667 85.1746666667 L98.3826666667 85.344 L98.2133333333 85.5133333333 L98.2133333333 85.6826666667 L97.8746666667 86.0213333333 L97.8746666667 86.1906666667 L97.7053333333 86.36 L97.7053333333 86.5293333333 L97.3666666667 86.868 L97.3666666667 87.0373333333 L97.028 87.376 L97.028 87.5453333333 L96.6893333333 87.884 L96.6893333333 88.0533333333 L96.1813333333 88.5613333333 L96.1813333333 88.7306666667 L95.6733333333 89.2386666667 L95.6733333333 89.408 L94.996 90.0853333333 L94.996 90.2546666667 L93.98 91.2706666667 L93.98 91.44 L91.44 93.98 L91.2706666667 93.98 L90.2546666667 94.996 L90.0853333333 94.996 L89.408 95.6733333333 L89.2386666667 95.6733333333 L88.7306666667 96.1813333333 L88.5613333333 96.1813333333 L88.0533333333 96.6893333333 L87.884 96.6893333333 L87.5453333333 97.028 L87.376 97.028 L87.0373333333 97.3666666667 L86.868 97.3666666667 L86.5293333333 97.7053333333 L86.36 97.7053333333 L86.1906666667 97.8746666667 L86.0213333333 97.8746666667 L85.6826666667 98.2133333333 L85.5133333333 98.2133333333 L85.344 98.3826666667 L85.1746666667 98.3826666667 L85.0053333333 98.552 L84.836 98.552 L84.6666666667 98.7213333333 L84.4973333333 98.7213333333 L84.1586666667 99.06 L83.9893333333 99.06 L83.82 99.2293333333 L83.6506666667 99.2293333333 L83.4813333333 99.3986666667 L83.312 99.3986666667 L83.1426666667 99.568 L82.9733333333 99.568 L82.804 99.7373333333 L82.4653333333 99.7373333333 L82.296 99.9066666667 L82.1266666667 99.9066666667 L81.9573333333 100.076 L81.788 100.076 L81.6186666667 100.245333333 L81.28 100.245333333 L81.1106666667 100.414666667 L80.9413333333 100.414666667 L80.772 100.584 L80.4333333333 100.584 L80.264 100.753333333 L80.0946666667 100.753333333 L79.9253333333 100.922666667 L79.5866666667 100.922666667 L79.4173333333 101.092 L79.0786666667 101.092 L78.9093333333 101.261333333 L78.5706666667 101.261333333 L78.4013333333 101.430666667 L77.8933333333 101.430666667 L77.724 101.6 L77.3853333333 101.6 L77.216 101.769333333 L76.708 101.769333333 L76.5386666667 101.938666667 L76.0306666667 101.938666667 L75.8613333333 102.108 L75.184 102.108 L75.0146666667 102.277333333 L74.3373333333 102.277333333 L74.168 102.446666667 L73.3213333333 102.446666667 L73.152 102.616 L71.7973333333 102.616 L71.628 102.785333333 L69.088 102.785333333 L68.9186666667 102.954666667 L67.3946666667 102.954666667 L67.2253333333 102.785333333 L64.6853333333 102.785333333 L64.516 102.616 L63.1613333333 102.616 L62.992 102.446666667 L62.1453333333 102.446666667 L61.976 102.277333333 L61.2986666667 102.277333333 L61.1293333333 102.108 L60.452 102.108 L60.2826666667 101.938666667 L59.7746666667 101.938666667 L59.6053333333 101.769333333 L59.0973333333 101.769333333 L58.928 101.6 L58.42 101.6 L58.2506666667 101.430666667 L57.912 101.430666667 L57.7426666667 101.261333333 L57.404 101.261333333 L57.2346666667 101.092 L56.896 101.092 L56.7266666667 100.922666667 L56.388 100.922666667 L56.2186666667 100.753333333 L56.0493333333 100.753333333 L55.88 100.584 L55.5413333333 100.584 L55.372 100.414666667 L55.0333333333 100.414666667 L54.864 100.245333333 L54.6946666667 100.245333333 L54.5253333333 100.076 L54.356 100.076 L54.1866666667 99.9066666667 L54.0173333333 99.9066666667 L53.848 99.7373333333 L53.5093333333 99.7373333333 L53.34 99.568 L53.1706666667 99.568 L53.0013333333 99.3986666667 L52.832 99.3986666667 L52.6626666667 99.2293333333 L52.4933333333 99.2293333333 L52.324 99.06 L52.1546666667 99.06 L51.9853333333 98.8906666667 L51.816 98.8906666667 L51.4773333333 98.552 L51.308 98.552 L51.1386666667 98.3826666667 L50.9693333333 98.3826666667 L50.8 98.2133333333 L50.6306666667 98.2133333333 L50.292 97.8746666667 L50.1226666667 97.8746666667 L49.9533333333 97.7053333333 L49.784 97.7053333333 L49.4453333333 97.3666666667 L49.276 97.3666666667 L48.9373333333 97.028 L48.768 97.028 L48.4293333333 96.6893333333 L48.26 96.6893333333 L47.752 96.1813333333 L47.5826666667 96.1813333333 L47.0746666667 95.6733333333 L46.9053333333 95.6733333333 L46.3973333333 95.1653333333 L46.228 95.1653333333 L45.212 94.1493333333 L45.0426666667 94.1493333333 L42.164 91.2706666667 L42.164 91.1013333333 L41.148 90.0853333333 L41.148 89.916 L40.64 89.408 L40.64 89.2386666667 L40.132 88.7306666667 L40.132 88.5613333333 L39.624 88.0533333333 L39.624 87.884 L39.2853333333 87.5453333333 L39.2853333333 87.376 L38.9466666667 87.0373333333 L38.9466666667 86.868 L38.608 86.5293333333 L38.608 86.36 L38.4386666667 86.1906666667 L38.4386666667 86.0213333333 L38.1 85.6826666667 L38.1 85.5133333333 L37.9306666667 85.344 L37.9306666667 85.1746666667 L37.7613333333 85.0053333333 L37.7613333333 84.836 L37.4226666667 84.4973333333 L37.4226666667 84.328 L37.2533333333 84.1586666667 L37.2533333333 83.9893333333 L37.084 83.82 L37.084 83.6506666667 L36.9146666667 83.4813333333 L36.9146666667 83.312 L36.7453333333 83.1426666667 L36.7453333333 82.9733333333 L36.576 82.804 L36.576 82.4653333333 L36.4066666667 82.296 L36.4066666667 82.1266666667 L36.2373333333 81.9573333333 L36.2373333333 81.788 L36.068 81.6186666667 L36.068 81.4493333333 L35.8986666667 81.28 L35.8986666667 80.9413333333 L35.7293333333 80.772 L35.7293333333 80.6026666667 L35.56 80.4333333333 L35.56 80.0946666667 L35.3906666667 79.9253333333 L35.3906666667 79.5866666667 L35.2213333333 79.4173333333 L35.2213333333 79.0786666667 L35.052 78.9093333333 L35.052 78.5706666667 L34.8826666667 78.4013333333 L34.8826666667 78.0626666667 L34.7133333333 77.8933333333 L34.7133333333 77.3853333333 L34.544 77.216 L34.544 76.708 L34.3746666667 76.5386666667 L34.3746666667 76.0306666667 L34.2053333333 75.8613333333 L34.2053333333 75.184 L34.036 75.0146666667 L34.036 74.3373333333 L33.8666666667 74.168 L33.8666666667 73.3213333333 L33.6973333333 73.152 L33.6973333333 71.9666666667 L33.528 71.7973333333 L33.528 69.4266666667 L33.3586666667 69.2573333333 L33.3586666667 67.056 L33.528 66.8866666667 L33.528 64.516 L33.6973333333 64.3466666667 L33.6973333333 63.1613333333 L33.8666666667 62.992 L33.8666666667 62.1453333333 L34.036 61.976 L34.036 61.2986666667 L34.2053333333 61.1293333333 L34.2053333333 60.452 L34.3746666667 60.2826666667 L34.3746666667 59.7746666667 L34.544 59.6053333333 L34.544 59.0973333333 L34.7133333333 58.928 L34.7133333333 58.42 L34.8826666667 58.2506666667 L34.8826666667 57.912 L35.052 57.7426666667 L35.052 57.404 L35.2213333333 57.2346666667 L35.2213333333 56.896 L35.3906666667 56.7266666667 L35.3906666667 56.388 L35.56 56.2186666667 L35.56 55.88 L35.7293333333 55.7106666667 L35.7293333333 55.5413333333 L35.8986666667 55.372 L35.8986666667 55.0333333333 L36.068 54.864 L36.068 54.6946666667 L36.2373333333 54.5253333333 L36.2373333333 54.356 L36.4066666667 54.1866666667 L36.4066666667 53.848 L36.576 53.6786666667 L36.576 53.5093333333 L36.7453333333 53.34 L36.7453333333 53.1706666667 L36.9146666667 53.0013333333 L36.9146666667 52.832 L37.084 52.6626666667 L37.084 52.4933333333 L37.2533333333 52.324 L37.2533333333 52.1546666667 L37.4226666667 51.9853333333 L37.4226666667 51.816 L37.7613333333 51.4773333333 L37.7613333333 51.308 L37.9306666667 51.1386666667 L37.9306666667 50.9693333333 L38.1 50.8 L38.1 50.6306666667 L38.4386666667 50.292 L38.4386666667 50.1226666667 L38.608 49.9533333333 L38.608 49.784 L38.9466666667 49.4453333333 L38.9466666667 49.276 L39.2853333333 48.9373333333 L39.2853333333 48.768 L39.624 48.4293333333 L39.624 48.26 L39.9626666667 47.9213333333 L39.9626666667 47.752 L40.4706666667 47.244 L40.4706666667 47.0746666667 L41.148 46.3973333333 L41.148 46.228 L42.164 45.212 L42.164 45.0426666667 L45.0426666667 42.164 L45.212 42.164 L46.228 41.148 L46.3973333333 41.148 L47.0746666667 40.4706666667 L47.244 40.4706666667 L47.752 39.9626666667 L47.9213333333 39.9626666667 L48.26 39.624 L48.4293333333 39.624 L48.768 39.2853333333 L48.9373333333 39.2853333333 L49.276 38.9466666667 L49.4453333333 38.9466666667 L49.784 38.608 L49.9533333333 38.608 L50.1226666667 38.4386666667 L50.292 38.4386666667 L50.6306666667 38.1 L50.8 38.1 L50.9693333333 37.9306666667 L51.1386666667 37.9306666667 L51.308 37.7613333333 L51.4773333333 37.7613333333 L51.816 37.4226666667 L51.9853333333 37.4226666667 L52.1546666667 37.2533333333 L52.324 37.2533333333 L52.4933333333 37.084 L52.6626666667 37.084 L52.832 36.9146666667 L53.0013333333 36.9146666667 L53.1706666667 36.7453333333 L53.34 36.7453333333 L53.5093333333 36.576 L53.6786666667 36.576 L53.848 36.4066666667 L54.1866666667 36.4066666667 L54.356 36.2373333333 L54.5253333333 36.2373333333 L54.6946666667 36.068 L54.864 36.068 L55.0333333333 35.8986666667 L55.372 35.8986666667 L55.5413333333 35.7293333333 L55.7106666667 35.7293333333 L55.88 35.56 L56.2186666667 35.56 L56.388 35.3906666667 L56.7266666667 35.3906666667 L56.896 35.2213333333 L57.2346666667 35.2213333333 L57.404 35.052 L57.7426666667 35.052 L57.912 34.8826666667 L58.2506666667 34.8826666667 L58.42 34.7133333333 L58.928 34.7133333333 L59.0973333333 34.544 L59.6053333333 34.544 L59.7746666667 34.3746666667 L60.2826666667 34.3746666667 L60.452 34.2053333333 L61.1293333333 34.2053333333 L61.2986666667 34.036 L61.976 34.036 L62.1453333333 33.8666666667 L62.992 33.8666666667 L63.1613333333 33.6973333333 L64.3466666667 33.6973333333 L64.516 33.528 66.8866666667 33.528 " stroke="black" fill="transparent"/>
<path d="M67.3946666667 118.702666667 L67.9026666667 118.702666667 L68.072 118.872 L68.4106666667 118.872 L68.58 118.702666667 L69.088 118.702666667 67.3946666667 118.702666667 " stroke="black" fill="transparent"/>
<path d="M118.702666667 67.3946666667 L118.702666667 69.088 L118.702666667 68.58 L118.872 68.4106666667 L118.872 68.072 L118.702666667 67.9026666667 118.702666667 67.3946666667 " stroke="black" fill="transparent"/>
<path d="M17.78 67.3946666667 L17.78 67.9026666667 L17.6106666667 68.072 L17.6106666667 68.4106666667 L17.78 68.58 L17.78 69.088 17.78 67.3946666667 " stroke="black" fill="transparent"/>
<path d="M68.072 17.6106666667 L67.9026666667 17.78 L67.3946666667 17.78 L69.088 17.78 L68.58 17.78 L68.4106666667 17.6106666667 68.072 17.6106666667 " stroke="black" fill="transparent"/>
</svg>