<svg width="281.432mm" height="96.85866666666666mm" xmlns="http://www.w3.org/2000/svg" fill="transparent" ><path d="M246.549333333 13.0386666667 L246.38 13.208 L245.194666667 13.208 L245.025333333 13.3773333333 L244.178666667 13.3773333333 L244.009333333 13.5466666667 L243.332 13.5466666667 L243.162666667 13.716 L242.654666667 13.716 L242.485333333 13.8853333333 L241.977333333 13.8853333333 L241.808 14.0546666667 L241.469333333 14.0546666667 L241.3 14.224 L240.961333333 14.224 L240.792 14.3933333333 L240.453333333 14.3933333333 L240.284 14.5626666667 L239.945333333 14.5626666667 L239.776 14.732 L239.606666667 14.732 L239.437333333 14.9013333333 L239.098666667 14.9013333333 L238.929333333 15.0706666667 L238.76 15.0706666667 L238.590666667 15.24 L238.421333333 15.24 L238.252 15.4093333333 L238.082666667 15.4093333333 L237.913333333 15.5786666667 L237.744 15.5786666667 L237.574666667 15.748 L237.405333333 15.748 L237.236 15.9173333333 L237.066666667 15.9173333333 L236.897333333 16.0866666667 L236.728 16.0866666667 L236.558666667 16.256 L236.389333333 16.256 L236.050666667 16.5946666667 L235.881333333 16.5946666667 L235.542666667 16.9333333333 L235.373333333 16.9333333333 L235.034666667 17.272 L234.865333333 17.272 L234.526666667 17.6106666667 L234.357333333 17.6106666667 L233.510666667 18.4573333333 L233.341333333 18.4573333333 L231.478666667 20.32 L231.478666667 20.4893333333 L230.632 21.336 L230.632 21.5053333333 L230.124 22.0133333333 L230.124 22.1826666667 L229.785333333 22.5213333333 L229.785333333 22.6906666667 L229.446666667 23.0293333333 L229.446666667 23.1986666667 L229.108 23.5373333333 L229.108 23.7066666667 L228.938666667 23.876 L228.938666667 24.0453333333 L228.769333333 24.2146666667 L228.769333333 24.384 L228.430666667 24.7226666667 L228.430666667 24.892 L228.261333333 25.0613333333 L228.261333333 25.2306666667 L228.092 25.4 L228.092 25.5693333333 L227.922666667 25.7386666667 L227.922666667 26.0773333333 L227.753333333 26.2466666667 L227.753333333 26.416 L227.584 26.5853333333 L227.584 26.7546666667 L227.414666667 26.924 L227.414666667 27.2626666667 L227.245333333 27.432 L227.245333333 27.7706666667 L227.076 27.94 L227.076 28.1093333333 L226.906666667 28.2786666667 L226.906666667 28.6173333333 L226.737333333 28.7866666667 L226.737333333 29.1253333333 L226.568 29.2946666667 L226.568 29.8026666667 L226.398666667 29.972 L226.398666667 30.3106666667 L226.229333333 30.48 L226.229333333 30.988 L226.06 31.1573333333 L226.06 31.8346666667 L225.890666667 32.004 L225.890666667 32.6813333333 L225.721333333 32.8506666667 L225.721333333 33.528 L225.552 33.6973333333 L225.552 34.7133333333 L225.382666667 34.8826666667 L225.382666667 36.068 L225.213333333 36.2373333333 L225.213333333 37.7613333333 L225.044 37.9306666667 L225.044 41.148 L224.874666667 41.3173333333 L224.874666667 47.0746666667 L225.044 47.244 L225.044 50.292 L225.213333333 50.4613333333 L225.213333333 52.1546666667 L225.382666667 52.324 L225.382666667 53.5093333333 L225.552 53.6786666667 L225.552 54.5253333333 L225.721333333 54.6946666667 L225.721333333 55.5413333333 L225.890666667 55.7106666667 L225.890666667 56.388 L226.06 56.5573333333 L226.06 57.0653333333 L226.229333333 57.2346666667 L226.229333333 57.7426666667 L226.398666667 57.912 L226.398666667 58.42 L226.568 58.5893333333 L226.568 58.928 L226.737333333 59.0973333333 L226.737333333 59.6053333333 L226.906666667 59.7746666667 L226.906666667 60.1133333333 L227.076 60.2826666667 L227.076 60.452 L227.245333333 60.6213333333 L227.245333333 60.96 L227.414666667 61.1293333333 L227.414666667 61.468 L227.584 61.6373333333 L227.584 61.8066666667 L227.753333333 61.976 L227.753333333 62.1453333333 L227.922666667 62.3146666667 L227.922666667 62.484 L228.092 62.6533333333 L228.092 62.992 L228.261333333 63.1613333333 L228.261333333 63.3306666667 L228.6 63.6693333333 L228.6 63.8386666667 L228.769333333 64.008 L228.769333333 64.1773333333 L228.938666667 64.3466666667 L228.938666667 64.516 L229.108 64.6853333333 L229.108 64.8546666667 L229.446666667 65.1933333333 L229.446666667 65.3626666667 L229.785333333 65.7013333333 L229.785333333 65.8706666667 L230.124 66.2093333333 L230.124 66.3786666667 L230.632 66.8866666667 L230.632 67.056 L231.478666667 67.9026666667 L231.478666667 68.072 L233.341333333 69.9346666667 L233.510666667 69.9346666667 L234.357333333 70.7813333333 L234.526666667 70.7813333333 L234.865333333 71.12 L235.034666667 71.12 L235.373333333 71.4586666667 L235.542666667 71.4586666667 L235.881333333 71.7973333333 L236.050666667 71.7973333333 L236.389333333 72.136 L236.558666667 72.136 L236.728 72.3053333333 L236.897333333 72.3053333333 L237.066666667 72.4746666667 L237.236 72.4746666667 L237.405333333 72.644 L237.574666667 72.644 L237.744 72.8133333333 L237.913333333 72.8133333333 L238.082666667 72.9826666667 L238.252 72.9826666667 L238.421333333 73.152 L238.590666667 73.152 L238.76 73.3213333333 L238.929333333 73.3213333333 L239.098666667 73.4906666667 L239.437333333 73.4906666667 L239.606666667 73.66 L239.776 73.66 L239.945333333 73.8293333333 L240.284 73.8293333333 L240.453333333 73.9986666667 L240.792 73.9986666667 L240.961333333 74.168 L241.3 74.168 L241.469333333 74.3373333333 L241.808 74.3373333333 L241.977333333 74.5066666667 L242.485333333 74.5066666667 L242.654666667 74.676 L243.162666667 74.676 L243.332 74.8453333333 L244.009333333 74.8453333333 L244.178666667 75.0146666667 L245.025333333 75.0146666667 L245.194666667 75.184 L246.38 75.184 L246.549333333 75.3533333333 L249.428 75.3533333333 L249.597333333 75.5226666667 L274.150666667 75.5226666667 L274.150666667 13.0386666667 246.549333333 13.0386666667 " stroke="black" fill="transparent"/>
<path d="M248.073333333 23.368 L248.242666667 23.1986666667 L262.636 23.1986666667 L262.805333333 23.368 L262.805333333 65.024 L262.636 65.1933333333 L248.242666667 65.1933333333 L248.073333333 65.024 L247.226666667 65.024 L247.057333333 64.8546666667 L246.549333333 64.8546666667 L246.38 64.6853333333 L246.041333333 64.6853333333 L245.872 64.516 L245.533333333 64.516 L245.364 64.3466666667 L245.025333333 64.3466666667 L244.856 64.1773333333 L244.686666667 64.1773333333 L244.517333333 64.008 L244.348 64.008 L244.178666667 63.8386666667 L244.009333333 63.8386666667 L243.84 63.6693333333 L243.670666667 63.6693333333 L243.501333333 63.5 L243.332 63.5 L242.993333333 63.1613333333 L242.824 63.1613333333 L242.485333333 62.8226666667 L242.316 62.8226666667 L241.808 62.3146666667 L241.638666667 62.3146666667 L240.453333333 61.1293333333 L240.453333333 60.96 L239.776 60.2826666667 L239.776 60.1133333333 L239.437333333 59.7746666667 L239.437333333 59.6053333333 L239.098666667 59.2666666667 L239.098666667 59.0973333333 L238.929333333 58.928 L238.929333333 58.7586666667 L238.76 58.5893333333 L238.76 58.42 L238.590666667 58.2506666667 L238.590666667 58.0813333333 L238.421333333 57.912 L238.421333333 57.7426666667 L238.252 57.5733333333 L238.252 57.404 L238.082666667 57.2346666667 L238.082666667 56.896 L237.913333333 56.7266666667 L237.913333333 56.388 L237.744 56.2186666667 L237.744 55.88 L237.574666667 55.7106666667 L237.574666667 55.372 L237.405333333 55.2026666667 L237.405333333 54.6946666667 L237.236 54.5253333333 L237.236 53.848 L237.066666667 53.6786666667 L237.066666667 53.0013333333 L236.897333333 52.832 L236.897333333 51.816 L236.728 51.6466666667 L236.728 50.1226666667 L236.558666667 49.9533333333 L236.558666667 45.212 L236.389333333 45.0426666667 L236.389333333 43.18 L236.558666667 43.0106666667 L236.558666667 38.4386666667 L236.728 38.2693333333 L236.728 36.7453333333 L236.897333333 36.576 L236.897333333 35.56 L237.066666667 35.3906666667 L237.066666667 34.7133333333 L237.236 34.544 L237.236 33.8666666667 L237.405333333 33.6973333333 L237.405333333 33.1893333333 L237.574666667 33.02 L237.574666667 32.6813333333 L237.744 32.512 L237.744 32.1733333333 L237.913333333 32.004 L237.913333333 31.6653333333 L238.082666667 31.496 L238.082666667 31.1573333333 L238.252 30.988 L238.252 30.8186666667 L238.421333333 30.6493333333 L238.421333333 30.48 L238.590666667 30.3106666667 L238.590666667 30.1413333333 L238.76 29.972 L238.76 29.8026666667 L238.929333333 29.6333333333 L238.929333333 29.464 L239.098666667 29.2946666667 L239.098666667 29.1253333333 L239.437333333 28.7866666667 L239.437333333 28.6173333333 L239.776 28.2786666667 L239.776 28.1093333333 L240.453333333 27.432 L240.453333333 27.2626666667 L241.638666667 26.0773333333 L241.808 26.0773333333 L242.316 25.5693333333 L242.485333333 25.5693333333 L242.824 25.2306666667 L242.993333333 25.2306666667 L243.332 24.892 L243.501333333 24.892 L243.670666667 24.7226666667 L243.84 24.7226666667 L244.009333333 24.5533333333 L244.178666667 24.5533333333 L244.348 24.384 L244.517333333 24.384 L244.686666667 24.2146666667 L244.856 24.2146666667 L245.025333333 24.0453333333 L245.364 24.0453333333 L245.533333333 23.876 L245.872 23.876 L246.041333333 23.7066666667 L246.38 23.7066666667 L246.549333333 23.5373333333 L247.057333333 23.5373333333 L247.226666667 23.368 248.073333333 23.368 " stroke="black" fill="transparent"/>
<path d="M184.234666667 13.0386666667 L184.065333333 13.208 L182.88 13.208 L182.710666667 13.3773333333 L181.864 13.3773333333 L181.694666667 13.5466666667 L181.017333333 13.5466666667 L180.848 13.716 L180.34 13.716 L180.170666667 13.8853333333 L179.662666667 13.8853333333 L179.493333333 14.0546666667 L179.154666667 14.0546666667 L178.985333333 14.224 L178.646666667 14.224 L178.477333333 14.3933333333 L178.138666667 14.3933333333 L177.969333333 14.5626666667 L177.630666667 14.5626666667 L177.461333333 14.732 L177.292 14.732 L177.122666667 14.9013333333 L176.784 14.9013333333 L176.614666667 15.0706666667 L176.445333333 15.0706666667 L176.276 15.24 L176.106666667 15.24 L175.937333333 15.4093333333 L175.768 15.4093333333 L175.598666667 15.5786666667 L175.429333333 15.5786666667 L175.26 15.748 L175.090666667 15.748 L174.921333333 15.9173333333 L174.752 15.9173333333 L174.413333333 16.256 L174.244 16.256 L173.905333333 16.5946666667 L173.736 16.5946666667 L173.397333333 16.9333333333 L173.228 16.9333333333 L172.72 17.4413333333 L172.550666667 17.4413333333 L171.704 18.288 L171.534666667 18.288 L170.688 19.1346666667 L170.688 19.304 L169.672 20.32 L169.672 20.4893333333 L169.164 20.9973333333 L169.164 21.1666666667 L168.825333333 21.5053333333 L168.825333333 21.6746666667 L168.486666667 22.0133333333 L168.486666667 22.1826666667 L168.317333333 22.352 L168.317333333 22.5213333333 L168.148 22.6906666667 L168.148 22.86 L167.978666667 23.0293333333 L167.978666667 23.1986666667 L167.809333333 23.368 L167.809333333 23.5373333333 L167.64 23.7066666667 L167.64 23.876 L167.470666667 24.0453333333 L167.470666667 24.2146666667 L167.301333333 24.384 L167.301333333 24.7226666667 L167.132 24.892 L167.132 25.0613333333 L166.962666667 25.2306666667 L166.962666667 25.5693333333 L166.793333333 25.7386666667 L166.793333333 26.0773333333 L166.624 26.2466666667 L166.624 26.7546666667 L166.454666667 26.924 L166.454666667 27.432 L166.285333333 27.6013333333 L166.285333333 28.1093333333 L166.116 28.2786666667 L166.116 29.1253333333 L165.946666667 29.2946666667 L165.946666667 30.8186666667 L165.777333333 30.988 L165.777333333 33.6973333333 L165.946666667 33.8666666667 L165.946666667 35.3906666667 L166.116 35.56 L166.116 36.4066666667 L166.285333333 36.576 L166.285333333 37.2533333333 L166.454666667 37.4226666667 L166.454666667 37.9306666667 L166.624 38.1 L166.624 38.4386666667 L166.793333333 38.608 L166.793333333 38.9466666667 L166.962666667 39.116 L166.962666667 39.4546666667 L167.132 39.624 L167.132 39.9626666667 L167.301333333 40.132 L167.301333333 40.3013333333 L167.470666667 40.4706666667 L167.470666667 40.64 L167.64 40.8093333333 L167.64 41.148 L167.809333333 41.3173333333 L167.809333333 41.4866666667 L168.148 41.8253333333 L168.148 41.9946666667 L168.317333333 42.164 L168.317333333 42.3333333333 L168.486666667 42.5026666667 L168.486666667 42.672 L168.825333333 43.0106666667 L168.825333333 43.18 L169.164 43.5186666667 L169.164 43.688 L169.502666667 44.0266666667 L169.502666667 44.196 L170.18 44.8733333333 L170.18 45.0426666667 L172.042666667 46.9053333333 L172.212 46.9053333333 L172.889333333 47.5826666667 L173.058666667 47.5826666667 L173.397333333 47.9213333333 L173.566666667 47.9213333333 L173.905333333 48.26 L174.074666667 48.26 L174.413333333 48.5986666667 L174.582666667 48.5986666667 L174.752 48.768 L174.921333333 48.768 L175.090666667 48.9373333333 L175.26 48.9373333333 L175.429333333 49.1066666667 L175.598666667 49.1066666667 L175.768 49.276 L175.937333333 49.276 L176.106666667 49.4453333333 L176.276 49.4453333333 L176.445333333 49.6146666667 L176.614666667 49.6146666667 L176.784 49.784 L177.122666667 49.784 L177.292 49.9533333333 L177.122666667 50.1226666667 L177.122666667 50.292 L176.953333333 50.4613333333 L176.953333333 50.6306666667 L176.784 50.8 L176.784 50.9693333333 L176.614666667 51.1386666667 L176.614666667 51.4773333333 L176.445333333 51.6466666667 L176.445333333 51.816 L176.276 51.9853333333 L176.276 52.1546666667 L176.106666667 52.324 L176.106666667 52.4933333333 L175.937333333 52.6626666667 L175.937333333 52.832 L175.768 53.0013333333 L175.768 53.34 L175.598666667 53.5093333333 L175.598666667 53.6786666667 L175.429333333 53.848 L175.429333333 54.0173333333 L175.26 54.1866666667 L175.26 54.356 L175.090666667 54.5253333333 L175.090666667 54.864 L174.921333333 55.0333333333 L174.921333333 55.2026666667 L174.752 55.372 L174.752 55.5413333333 L174.582666667 55.7106666667 L174.582666667 55.88 L174.413333333 56.0493333333 L174.413333333 56.388 L174.244 56.5573333333 L174.244 56.7266666667 L174.074666667 56.896 L174.074666667 57.0653333333 L173.905333333 57.2346666667 L173.905333333 57.404 L173.736 57.5733333333 L173.736 57.7426666667 L173.566666667 57.912 L173.566666667 58.2506666667 L173.397333333 58.42 L173.397333333 58.5893333333 L173.228 58.7586666667 L173.228 58.928 L173.058666667 59.0973333333 L173.058666667 59.2666666667 L172.889333333 59.436 L172.889333333 59.7746666667 L172.72 59.944 L172.72 60.1133333333 L172.550666667 60.2826666667 L172.550666667 60.452 L172.381333333 60.6213333333 L172.381333333 60.7906666667 L172.212 60.96 L172.212 61.2986666667 L172.042666667 61.468 L172.042666667 61.6373333333 L171.873333333 61.8066666667 L171.873333333 61.976 L171.704 62.1453333333 L171.704 62.3146666667 L171.534666667 62.484 L171.534666667 62.6533333333 L171.365333333 62.8226666667 L171.365333333 63.1613333333 L171.196 63.3306666667 L171.196 63.5 L171.026666667 63.6693333333 L171.026666667 63.8386666667 L170.857333333 64.008 L170.857333333 64.1773333333 L170.688 64.3466666667 L170.688 64.6853333333 L170.518666667 64.8546666667 L170.518666667 65.024 L170.349333333 65.1933333333 L170.349333333 65.3626666667 L170.18 65.532 L170.18 65.7013333333 L170.010666667 65.8706666667 L170.010666667 66.04 L169.841333333 66.2093333333 L169.841333333 66.548 L169.672 66.7173333333 L169.672 66.8866666667 L169.502666667 67.056 L169.502666667 67.2253333333 L169.333333333 67.3946666667 L169.333333333 67.564 L169.164 67.7333333333 L169.164 68.072 L168.994666667 68.2413333333 L168.994666667 68.4106666667 L168.825333333 68.58 L168.825333333 68.7493333333 L168.656 68.9186666667 L168.656 69.088 L168.486666667 69.2573333333 L168.486666667 69.596 L168.317333333 69.7653333333 L168.317333333 69.9346666667 L168.148 70.104 L168.148 70.2733333333 L167.978666667 70.4426666667 L167.978666667 70.612 L167.809333333 70.7813333333 L167.809333333 70.9506666667 L167.64 71.12 L167.64 71.4586666667 L167.470666667 71.628 L167.470666667 71.7973333333 L167.301333333 71.9666666667 L167.301333333 72.136 L167.132 72.3053333333 L167.132 72.4746666667 L166.962666667 72.644 L166.962666667 72.9826666667 L166.793333333 73.152 L166.793333333 73.3213333333 L166.624 73.4906666667 L166.624 73.66 L166.454666667 73.8293333333 L166.454666667 73.9986666667 L166.285333333 74.168 L166.285333333 74.5066666667 L166.116 74.676 L166.116 74.8453333333 L165.946666667 75.0146666667 L165.946666667 75.184 L165.777333333 75.3533333333 L178.308 75.3533333333 L178.308 75.184 L178.477333333 75.0146666667 L178.477333333 74.676 L178.646666667 74.5066666667 L178.646666667 74.3373333333 L178.816 74.168 L178.816 73.9986666667 L178.985333333 73.8293333333 L178.985333333 73.4906666667 L179.154666667 73.3213333333 L179.154666667 73.152 L179.324 72.9826666667 L179.324 72.8133333333 L179.493333333 72.644 L179.493333333 72.4746666667 L179.662666667 72.3053333333 L179.662666667 71.9666666667 L179.832 71.7973333333 L179.832 71.628 L180.001333333 71.4586666667 L180.001333333 71.2893333333 L180.170666667 71.12 L180.170666667 70.9506666667 L180.34 70.7813333333 L180.34 70.4426666667 L180.509333333 70.2733333333 L180.509333333 70.104 L180.678666667 69.9346666667 L180.678666667 69.7653333333 L180.848 69.596 L180.848 69.4266666667 L181.017333333 69.2573333333 L181.017333333 68.9186666667 L181.186666667 68.7493333333 L181.186666667 68.58 L181.356 68.4106666667 L181.356 68.2413333333 L181.525333333 68.072 L181.525333333 67.7333333333 L181.694666667 67.564 L181.694666667 67.3946666667 L181.864 67.2253333333 L181.864 67.056 L182.033333333 66.8866666667 L182.033333333 66.7173333333 L182.202666667 66.548 L182.202666667 66.2093333333 L182.372 66.04 L182.372 65.8706666667 L182.541333333 65.7013333333 L182.541333333 65.532 L182.710666667 65.3626666667 L182.710666667 65.1933333333 L182.88 65.024 L182.88 64.6853333333 L183.049333333 64.516 L183.049333333 64.3466666667 L183.218666667 64.1773333333 L183.218666667 64.008 L183.388 63.8386666667 L183.388 63.5 L183.557333333 63.3306666667 L183.557333333 63.1613333333 L183.726666667 62.992 L183.726666667 62.8226666667 L183.896 62.6533333333 L183.896 62.484 L184.065333333 62.3146666667 L184.065333333 61.976 L184.234666667 61.8066666667 L184.234666667 61.6373333333 L184.404 61.468 L184.404 61.2986666667 L184.573333333 61.1293333333 L184.573333333 60.96 L184.742666667 60.7906666667 L184.742666667 60.452 L184.912 60.2826666667 L184.912 60.1133333333 L185.081333333 59.944 L185.081333333 59.7746666667 L185.250666667 59.6053333333 L185.250666667 59.436 L185.42 59.2666666667 L185.42 58.928 L185.589333333 58.7586666667 L185.589333333 58.5893333333 L185.758666667 58.42 L185.758666667 58.2506666667 L185.928 58.0813333333 L185.928 57.7426666667 L186.097333333 57.5733333333 L186.097333333 57.404 L186.266666667 57.2346666667 L186.266666667 57.0653333333 L186.436 56.896 L186.436 56.7266666667 L186.605333333 56.5573333333 L186.605333333 56.2186666667 L186.774666667 56.0493333333 L186.774666667 55.88 L186.944 55.7106666667 L186.944 55.5413333333 L187.113333333 55.372 L187.113333333 55.2026666667 L187.282666667 55.0333333333 L187.282666667 54.6946666667 L187.452 54.5253333333 L187.452 54.356 L187.621333333 54.1866666667 L187.621333333 54.0173333333 L187.790666667 53.848 L187.790666667 53.5093333333 L187.96 53.34 L187.96 53.1706666667 L188.129333333 53.0013333333 L188.129333333 52.832 L188.298666667 52.6626666667 L188.298666667 52.4933333333 L188.468 52.324 L188.468 51.9853333333 L188.637333333 51.816 L202.353333333 51.816 L202.522666667 51.9853333333 L202.522666667 75.3533333333 L213.868 75.3533333333 L213.868 13.0386666667 184.234666667 13.0386666667 " stroke="black" fill="transparent"/>
<path d="M186.605333333 23.0293333333 L186.774666667 22.86 L202.353333333 22.86 L202.522666667 23.0293333333 L202.522666667 41.4866666667 L202.353333333 41.656 L186.944 41.656 L186.774666667 41.4866666667 L185.081333333 41.4866666667 L184.912 41.3173333333 L184.234666667 41.3173333333 L184.065333333 41.148 L183.557333333 41.148 L183.388 40.9786666667 L183.049333333 40.9786666667 L182.88 40.8093333333 L182.541333333 40.8093333333 L182.372 40.64 L182.202666667 40.64 L182.033333333 40.4706666667 L181.864 40.4706666667 L181.694666667 40.3013333333 L181.525333333 40.3013333333 L181.356 40.132 L181.186666667 40.132 L180.848 39.7933333333 L180.678666667 39.7933333333 L180.170666667 39.2853333333 L180.001333333 39.2853333333 L179.154666667 38.4386666667 L179.154666667 38.2693333333 L178.646666667 37.7613333333 L178.646666667 37.592 L178.477333333 37.4226666667 L178.477333333 37.2533333333 L178.138666667 36.9146666667 L178.138666667 36.7453333333 L177.969333333 36.576 L177.969333333 36.2373333333 L177.8 36.068 L177.8 35.7293333333 L177.630666667 35.56 L177.630666667 35.2213333333 L177.461333333 35.052 L177.461333333 34.3746666667 L177.292 34.2053333333 L177.292 32.6813333333 L177.122666667 32.512 L177.122666667 32.1733333333 L177.292 32.004 L177.292 30.6493333333 L177.461333333 30.48 L177.461333333 29.972 L177.630666667 29.8026666667 L177.630666667 29.464 L177.8 29.2946666667 L177.8 28.956 L177.969333333 28.7866666667 L177.969333333 28.6173333333 L178.138666667 28.448 L178.138666667 28.2786666667 L178.308 28.1093333333 L178.308 27.94 L178.477333333 27.7706666667 L178.477333333 27.6013333333 L178.816 27.2626666667 L178.816 27.0933333333 L179.324 26.5853333333 L179.324 26.416 L180.509333333 25.2306666667 L180.678666667 25.2306666667 L181.186666667 24.7226666667 L181.356 24.7226666667 L181.694666667 24.384 L181.864 24.384 L182.033333333 24.2146666667 L182.202666667 24.2146666667 L182.372 24.0453333333 L182.541333333 24.0453333333 L182.710666667 23.876 L182.88 23.876 L183.049333333 23.7066666667 L183.388 23.7066666667 L183.557333333 23.5373333333 L183.896 23.5373333333 L184.065333333 23.368 L184.404 23.368 L184.573333333 23.1986666667 L185.250666667 23.1986666667 L185.42 23.0293333333 186.605333333 23.0293333333 " stroke="black" fill="transparent"/>
<path d="M108.542666667 13.0386666667 L108.542666667 53.1706666667 L108.712 53.34 L108.712 55.372 L108.881333333 55.5413333333 L108.881333333 56.7266666667 L109.050666667 56.896 L109.050666667 57.7426666667 L109.22 57.912 L109.22 58.5893333333 L109.389333333 58.7586666667 L109.389333333 59.436 L109.558666667 59.6053333333 L109.558666667 59.944 L109.728 60.1133333333 L109.728 60.6213333333 L109.897333333 60.7906666667 L109.897333333 61.1293333333 L110.066666667 61.2986666667 L110.066666667 61.6373333333 L110.236 61.8066666667 L110.236 62.1453333333 L110.405333333 62.3146666667 L110.405333333 62.6533333333 L110.574666667 62.8226666667 L110.574666667 62.992 L110.744 63.1613333333 L110.744 63.5 L110.913333333 63.6693333333 L110.913333333 63.8386666667 L111.082666667 64.008 L111.082666667 64.1773333333 L111.252 64.3466666667 L111.252 64.516 L111.421333333 64.6853333333 L111.421333333 64.8546666667 L111.590666667 65.024 L111.590666667 65.1933333333 L111.76 65.3626666667 L111.76 65.532 L111.929333333 65.7013333333 L111.929333333 65.8706666667 L112.098666667 66.04 L112.098666667 66.2093333333 L112.437333333 66.548 L112.437333333 66.7173333333 L112.776 67.056 L112.776 67.2253333333 L113.114666667 67.564 L113.114666667 67.7333333333 L113.622666667 68.2413333333 L113.622666667 68.4106666667 L114.3 69.088 L114.3 69.2573333333 L116.162666667 71.12 L116.332 71.12 L117.178666667 71.9666666667 L117.348 71.9666666667 L117.686666667 72.3053333333 L117.856 72.3053333333 L118.364 72.8133333333 L118.533333333 72.8133333333 L118.702666667 72.9826666667 L118.872 72.9826666667 L119.210666667 73.3213333333 L119.38 73.3213333333 L119.549333333 73.4906666667 L119.718666667 73.4906666667 L119.888 73.66 L120.057333333 73.66 L120.226666667 73.8293333333 L120.396 73.8293333333 L120.565333333 73.9986666667 L120.734666667 73.9986666667 L120.904 74.168 L121.073333333 74.168 L121.242666667 74.3373333333 L121.412 74.3373333333 L121.581333333 74.5066666667 L121.750666667 74.5066666667 L121.92 74.676 L122.258666667 74.676 L122.428 74.8453333333 L122.597333333 74.8453333333 L122.766666667 75.0146666667 L123.105333333 75.0146666667 L123.274666667 75.184 L123.613333333 75.184 L123.782666667 75.3533333333 L124.121333333 75.3533333333 L124.290666667 75.5226666667 L124.798666667 75.5226666667 L124.968 75.692 L125.476 75.692 L125.645333333 75.8613333333 L126.153333333 75.8613333333 L126.322666667 76.0306666667 L127.0 76.0306666667 L127.169333333 76.2 L128.016 76.2 L128.185333333 76.3693333333 L129.370666667 76.3693333333 L129.54 76.5386666667 L132.926666667 76.5386666667 L133.096 76.708 L133.265333333 76.708 L133.434666667 76.5386666667 L136.652 76.5386666667 L136.821333333 76.3693333333 L138.006666667 76.3693333333 L138.176 76.2 L139.022666667 76.2 L139.192 76.0306666667 L139.869333333 76.0306666667 L140.038666667 75.8613333333 L140.546666667 75.8613333333 L140.716 75.692 L141.224 75.692 L141.393333333 75.5226666667 L141.901333333 75.5226666667 L142.070666667 75.3533333333 L142.409333333 75.3533333333 L142.578666667 75.184 L142.917333333 75.184 L143.086666667 75.0146666667 L143.425333333 75.0146666667 L143.594666667 74.8453333333 L143.764 74.8453333333 L143.933333333 74.676 L144.272 74.676 L144.441333333 74.5066666667 L144.610666667 74.5066666667 L144.78 74.3373333333 L144.949333333 74.3373333333 L145.118666667 74.168 L145.288 74.168 L145.457333333 73.9986666667 L145.626666667 73.9986666667 L145.796 73.8293333333 L145.965333333 73.8293333333 L146.134666667 73.66 L146.304 73.66 L146.473333333 73.4906666667 L146.642666667 73.4906666667 L146.812 73.3213333333 L146.981333333 73.3213333333 L147.32 72.9826666667 L147.489333333 72.9826666667 L147.658666667 72.8133333333 L147.828 72.8133333333 L148.336 72.3053333333 L148.505333333 72.3053333333 L148.844 71.9666666667 L149.013333333 71.9666666667 L149.86 71.12 L150.029333333 71.12 L151.892 69.2573333333 L151.892 69.088 L152.569333333 68.4106666667 L152.569333333 68.2413333333 L153.077333333 67.7333333333 L153.077333333 67.564 L153.416 67.2253333333 L153.416 67.056 L153.754666667 66.7173333333 L153.754666667 66.548 L154.093333333 66.2093333333 L154.093333333 66.04 L154.262666667 65.8706666667 L154.262666667 65.7013333333 L154.432 65.532 L154.432 65.3626666667 L154.601333333 65.1933333333 L154.601333333 65.024 L154.770666667 64.8546666667 L154.770666667 64.6853333333 L154.94 64.516 L154.94 64.3466666667 L155.109333333 64.1773333333 L155.109333333 64.008 L155.278666667 63.8386666667 L155.278666667 63.6693333333 L155.448 63.5 L155.448 63.1613333333 L155.617333333 62.992 L155.617333333 62.8226666667 L155.786666667 62.6533333333 L155.786666667 62.3146666667 L155.956 62.1453333333 L155.956 61.8066666667 L156.125333333 61.6373333333 L156.125333333 61.2986666667 L156.294666667 61.1293333333 L156.294666667 60.7906666667 L156.464 60.6213333333 L156.464 60.1133333333 L156.633333333 59.944 L156.633333333 59.6053333333 L156.802666667 59.436 L156.802666667 58.7586666667 L156.972 58.5893333333 L156.972 57.912 L157.141333333 57.7426666667 L157.141333333 56.896 L157.310666667 56.7266666667 L157.310666667 55.5413333333 L157.48 55.372 L157.48 53.34 L157.649333333 53.1706666667 L157.649333333 13.0386666667 L146.304 13.0386666667 L146.304 51.6466666667 L146.134666667 51.816 L146.134666667 54.1866666667 L145.965333333 54.356 L145.965333333 55.372 L145.796 55.5413333333 L145.796 56.2186666667 L145.626666667 56.388 L145.626666667 56.896 L145.457333333 57.0653333333 L145.457333333 57.5733333333 L145.288 57.7426666667 L145.288 58.0813333333 L145.118666667 58.2506666667 L145.118666667 58.42 L144.949333333 58.5893333333 L144.949333333 58.928 L144.78 59.0973333333 L144.78 59.2666666667 L144.610666667 59.436 L144.610666667 59.6053333333 L144.441333333 59.7746666667 L144.441333333 59.944 L144.272 60.1133333333 L144.272 60.2826666667 L144.102666667 60.452 L144.102666667 60.6213333333 L143.933333333 60.7906666667 L143.933333333 60.96 L143.594666667 61.2986666667 L143.594666667 61.468 L142.917333333 62.1453333333 L142.917333333 62.3146666667 L141.562666667 63.6693333333 L141.393333333 63.6693333333 L140.885333333 64.1773333333 L140.716 64.1773333333 L140.377333333 64.516 L140.208 64.516 L140.038666667 64.6853333333 L139.869333333 64.6853333333 L139.7 64.8546666667 L139.530666667 64.8546666667 L139.361333333 65.024 L139.192 65.024 L139.022666667 65.1933333333 L138.853333333 65.1933333333 L138.684 65.3626666667 L138.345333333 65.3626666667 L138.176 65.532 L137.837333333 65.532 L137.668 65.7013333333 L137.329333333 65.7013333333 L137.16 65.8706666667 L136.652 65.8706666667 L136.482666667 66.04 L135.636 66.04 L135.466666667 66.2093333333 L133.773333333 66.2093333333 L133.604 66.3786666667 L132.588 66.3786666667 L132.418666667 66.2093333333 L130.725333333 66.2093333333 L130.556 66.04 L129.709333333 66.04 L129.54 65.8706666667 L129.032 65.8706666667 L128.862666667 65.7013333333 L128.524 65.7013333333 L128.354666667 65.532 L128.016 65.532 L127.846666667 65.3626666667 L127.508 65.3626666667 L127.338666667 65.1933333333 L127.169333333 65.1933333333 L127.0 65.024 L126.830666667 65.024 L126.661333333 64.8546666667 L126.492 64.8546666667 L126.322666667 64.6853333333 L126.153333333 64.6853333333 L125.984 64.516 L125.814666667 64.516 L125.476 64.1773333333 L125.306666667 64.1773333333 L124.798666667 63.6693333333 L124.629333333 63.6693333333 L123.274666667 62.3146666667 L123.274666667 62.1453333333 L122.597333333 61.468 L122.597333333 61.2986666667 L122.258666667 60.96 L122.258666667 60.7906666667 L122.089333333 60.6213333333 L122.089333333 60.452 L121.92 60.2826666667 L121.92 60.1133333333 L121.750666667 59.944 L121.750666667 59.7746666667 L121.581333333 59.6053333333 L121.581333333 59.436 L121.412 59.2666666667 L121.412 59.0973333333 L121.242666667 58.928 L121.242666667 58.5893333333 L121.073333333 58.42 L121.073333333 58.2506666667 L120.904 58.0813333333 L120.904 57.7426666667 L120.734666667 57.5733333333 L120.734666667 57.0653333333 L120.565333333 56.896 L120.565333333 56.388 L120.396 56.2186666667 L120.396 55.5413333333 L120.226666667 55.372 L120.226666667 54.356 L120.057333333 54.1866666667 L120.057333333 51.816 L119.888 51.6466666667 L119.888 13.0386666667 108.542666667 13.0386666667 " stroke="black" fill="transparent"/>
<path d="M0.169333333333 13.0386666667 L0.169333333333 23.5373333333 L18.4573333333 23.5373333333 L18.6266666667 23.7066666667 L18.6266666667 75.3533333333 L29.972 75.3533333333 L29.972 23.7066666667 L30.1413333333 23.5373333333 L48.4293333333 23.5373333333 L48.4293333333 13.0386666667 0.169333333333 13.0386666667 " stroke="black" fill="transparent"/>
<path d="M71.4586666667 11.8533333333 L71.2893333333 12.0226666667 L70.104 12.0226666667 L69.9346666667 12.192 L69.088 12.192 L68.9186666667 12.3613333333 L68.2413333333 12.3613333333 L68.072 12.5306666667 L67.564 12.5306666667 L67.3946666667 12.7 L66.8866666667 12.7 L66.7173333333 12.8693333333 L66.2093333333 12.8693333333 L66.04 13.0386666667 L65.7013333333 13.0386666667 L65.532 13.208 L65.1933333333 13.208 L65.024 13.3773333333 L64.6853333333 13.3773333333 L64.516 13.5466666667 L64.1773333333 13.5466666667 L64.008 13.716 L63.8386666667 13.716 L63.6693333333 13.8853333333 L63.3306666667 13.8853333333 L63.1613333333 14.0546666667 L62.992 14.0546666667 L62.8226666667 14.224 L62.6533333333 14.224 L62.484 14.3933333333 L62.3146666667 14.3933333333 L62.1453333333 14.5626666667 L61.976 14.5626666667 L61.8066666667 14.732 L61.6373333333 14.732 L61.468 14.9013333333 L61.2986666667 14.9013333333 L61.1293333333 15.0706666667 L60.96 15.0706666667 L60.7906666667 15.24 L60.6213333333 15.24 L60.2826666667 15.5786666667 L60.1133333333 15.5786666667 L59.944 15.748 L59.7746666667 15.748 L59.436 16.0866666667 L59.2666666667 16.0866666667 L58.7586666667 16.5946666667 L58.5893333333 16.5946666667 L58.0813333333 17.1026666667 L57.912 17.1026666667 L55.5413333333 19.4733333333 L55.5413333333 19.6426666667 L54.864 20.32 L54.864 20.4893333333 L54.356 20.9973333333 L54.356 21.1666666667 L54.0173333333 21.5053333333 L54.0173333333 21.6746666667 L53.6786666667 22.0133333333 L53.6786666667 22.1826666667 L53.34 22.5213333333 L53.34 22.6906666667 L53.1706666667 22.86 L53.1706666667 23.0293333333 L53.0013333333 23.1986666667 L53.0013333333 23.368 L52.832 23.5373333333 L52.832 23.7066666667 L52.6626666667 23.876 L52.6626666667 24.0453333333 L52.4933333333 24.2146666667 L52.4933333333 24.384 L52.324 24.5533333333 L52.324 24.7226666667 L52.1546666667 24.892 L52.1546666667 25.0613333333 L51.9853333333 25.2306666667 L51.9853333333 25.5693333333 L51.816 25.7386666667 L51.816 26.0773333333 L51.6466666667 26.2466666667 L51.6466666667 26.5853333333 L51.4773333333 26.7546666667 L51.4773333333 27.2626666667 L51.308 27.432 L51.308 27.94 L51.1386666667 28.1093333333 L51.1386666667 28.956 L50.9693333333 29.1253333333 L50.9693333333 31.1573333333 L62.484 31.1573333333 L62.484 30.8186666667 L62.6533333333 30.6493333333 L62.6533333333 29.8026666667 L62.8226666667 29.6333333333 L62.8226666667 29.1253333333 L62.992 28.956 L62.992 28.7866666667 L63.1613333333 28.6173333333 L63.1613333333 28.2786666667 L63.3306666667 28.1093333333 L63.3306666667 27.94 L63.5 27.7706666667 L63.5 27.6013333333 L63.6693333333 27.432 L63.6693333333 27.2626666667 L63.8386666667 27.0933333333 L63.8386666667 26.924 L64.008 26.7546666667 L64.008 26.5853333333 L64.516 26.0773333333 L64.516 25.908 L65.1933333333 25.2306666667 L65.1933333333 25.0613333333 L65.532 24.7226666667 L65.7013333333 24.7226666667 L66.3786666667 24.0453333333 L66.548 24.0453333333 L66.8866666667 23.7066666667 L67.056 23.7066666667 L67.2253333333 23.5373333333 L67.3946666667 23.5373333333 L67.564 23.368 L67.7333333333 23.368 L67.9026666667 23.1986666667 L68.072 23.1986666667 L68.2413333333 23.0293333333 L68.4106666667 23.0293333333 L68.58 22.86 L68.7493333333 22.86 L68.9186666667 22.6906666667 L69.2573333333 22.6906666667 L69.4266666667 22.5213333333 L69.7653333333 22.5213333333 L69.9346666667 22.352 L70.2733333333 22.352 L70.4426666667 22.1826666667 L70.9506666667 22.1826666667 L71.12 22.0133333333 L71.7973333333 22.0133333333 L71.9666666667 21.844 L72.8133333333 21.844 L72.9826666667 21.6746666667 L76.8773333333 21.6746666667 L77.0466666667 21.844 L78.0626666667 21.844 L78.232 22.0133333333 L78.9093333333 22.0133333333 L79.0786666667 22.1826666667 L79.756 22.1826666667 L79.9253333333 22.352 L80.264 22.352 L80.4333333333 22.5213333333 L80.772 22.5213333333 L80.9413333333 22.6906666667 L81.1106666667 22.6906666667 L81.28 22.86 L81.6186666667 22.86 L81.788 23.0293333333 L81.9573333333 23.0293333333 L82.1266666667 23.1986666667 L82.296 23.1986666667 L82.4653333333 23.368 L82.6346666667 23.368 L82.9733333333 23.7066666667 L83.1426666667 23.7066666667 L83.312 23.876 L83.4813333333 23.876 L84.1586666667 24.5533333333 L84.328 24.5533333333 L85.1746666667 25.4 L85.1746666667 25.5693333333 L85.6826666667 26.0773333333 L85.6826666667 26.2466666667 L86.0213333333 26.5853333333 L86.0213333333 26.7546666667 L86.1906666667 26.924 L86.1906666667 27.0933333333 L86.36 27.2626666667 L86.36 27.432 L86.5293333333 27.6013333333 L86.5293333333 27.94 L86.6986666667 28.1093333333 L86.6986666667 28.448 L86.868 28.6173333333 L86.868 29.464 L87.0373333333 29.6333333333 L87.0373333333 31.1573333333 L86.868 31.3266666667 L86.868 32.1733333333 L86.6986666667 32.3426666667 L86.6986666667 32.6813333333 L86.5293333333 32.8506666667 L86.5293333333 33.02 L86.36 33.1893333333 L86.36 33.528 L86.0213333333 33.8666666667 L86.0213333333 34.036 L85.6826666667 34.3746666667 L85.6826666667 34.544 L84.6666666667 35.56 L84.4973333333 35.56 L84.1586666667 35.8986666667 L83.9893333333 35.8986666667 L83.6506666667 36.2373333333 L83.4813333333 36.2373333333 L83.312 36.4066666667 L83.1426666667 36.4066666667 L82.9733333333 36.576 L82.6346666667 36.576 L82.4653333333 36.7453333333 L82.1266666667 36.7453333333 L81.9573333333 36.9146666667 L81.4493333333 36.9146666667 L81.28 37.084 L80.772 37.084 L80.6026666667 37.2533333333 L79.5866666667 37.2533333333 L79.4173333333 37.4226666667 L78.232 37.4226666667 L78.0626666667 37.592 L76.8773333333 37.592 L76.708 37.7613333333 L75.3533333333 37.7613333333 L75.184 37.9306666667 L73.8293333333 37.9306666667 L73.66 38.1 L72.136 38.1 L71.9666666667 38.2693333333 L70.612 38.2693333333 L70.4426666667 38.4386666667 L69.088 38.4386666667 L68.9186666667 38.608 L67.7333333333 38.608 L67.564 38.7773333333 L66.548 38.7773333333 L66.3786666667 38.9466666667 L65.532 38.9466666667 L65.3626666667 39.116 L64.8546666667 39.116 L64.6853333333 39.2853333333 L64.1773333333 39.2853333333 L64.008 39.4546666667 L63.5 39.4546666667 L63.3306666667 39.624 L62.992 39.624 L62.8226666667 39.7933333333 L62.484 39.7933333333 L62.3146666667 39.9626666667 L61.976 39.9626666667 L61.8066666667 40.132 L61.468 40.132 L61.2986666667 40.3013333333 L61.1293333333 40.3013333333 L60.96 40.4706666667 L60.6213333333 40.4706666667 L60.452 40.64 L60.2826666667 40.64 L60.1133333333 40.8093333333 L59.944 40.8093333333 L59.7746666667 40.9786666667 L59.6053333333 40.9786666667 L59.436 41.148 L59.2666666667 41.148 L59.0973333333 41.3173333333 L58.928 41.3173333333 L58.7586666667 41.4866666667 L58.5893333333 41.4866666667 L58.2506666667 41.8253333333 L58.0813333333 41.8253333333 L57.7426666667 42.164 L57.5733333333 42.164 L57.2346666667 42.5026666667 L57.0653333333 42.5026666667 L56.7266666667 42.8413333333 L56.5573333333 42.8413333333 L55.88 43.5186666667 L55.7106666667 43.5186666667 L53.848 45.3813333333 L53.848 45.5506666667 L53.1706666667 46.228 L53.1706666667 46.3973333333 L52.832 46.736 L52.832 46.9053333333 L52.4933333333 47.244 L52.4933333333 47.4133333333 L52.1546666667 47.752 L52.1546666667 47.9213333333 L51.9853333333 48.0906666667 L51.9853333333 48.26 L51.816 48.4293333333 L51.816 48.5986666667 L51.6466666667 48.768 L51.6466666667 48.9373333333 L51.4773333333 49.1066666667 L51.4773333333 49.276 L51.308 49.4453333333 L51.308 49.784 L51.1386666667 49.9533333333 L51.1386666667 50.1226666667 L50.9693333333 50.292 L50.9693333333 50.6306666667 L50.8 50.8 L50.8 51.1386666667 L50.6306666667 51.308 L50.6306666667 51.6466666667 L50.4613333333 51.816 L50.4613333333 52.324 L50.292 52.4933333333 L50.292 53.1706666667 L50.1226666667 53.34 L50.1226666667 54.356 L49.9533333333 54.5253333333 L49.9533333333 59.2666666667 L50.1226666667 59.436 L50.1226666667 60.452 L50.292 60.6213333333 L50.292 61.2986666667 L50.4613333333 61.468 L50.4613333333 61.976 L50.6306666667 62.1453333333 L50.6306666667 62.6533333333 L50.8 62.8226666667 L50.8 63.1613333333 L50.9693333333 63.3306666667 L50.9693333333 63.6693333333 L51.1386666667 63.8386666667 L51.1386666667 64.008 L51.308 64.1773333333 L51.308 64.516 L51.4773333333 64.6853333333 L51.4773333333 64.8546666667 L51.6466666667 65.024 L51.6466666667 65.1933333333 L51.816 65.3626666667 L51.816 65.532 L51.9853333333 65.7013333333 L51.9853333333 65.8706666667 L52.1546666667 66.04 L52.1546666667 66.2093333333 L52.324 66.3786666667 L52.324 66.548 L52.6626666667 66.8866666667 L52.6626666667 67.056 L53.0013333333 67.3946666667 L53.0013333333 67.564 L53.5093333333 68.072 L53.5093333333 68.2413333333 L54.1866666667 68.9186666667 L54.1866666667 69.088 L55.88 70.7813333333 L56.0493333333 70.7813333333 L56.896 71.628 L57.0653333333 71.628 L57.404 71.9666666667 L57.5733333333 71.9666666667 L57.912 72.3053333333 L58.0813333333 72.3053333333 L58.42 72.644 L58.5893333333 72.644 L58.928 72.9826666667 L59.0973333333 72.9826666667 L59.2666666667 73.152 L59.436 73.152 L59.6053333333 73.3213333333 L59.7746666667 73.3213333333 L59.944 73.4906666667 L60.1133333333 73.4906666667 L60.2826666667 73.66 L60.452 73.66 L60.6213333333 73.8293333333 L60.7906666667 73.8293333333 L60.96 73.9986666667 L61.1293333333 73.9986666667 L61.2986666667 74.168 L61.468 74.168 L61.6373333333 74.3373333333 L61.976 74.3373333333 L62.1453333333 74.5066666667 L62.3146666667 74.5066666667 L62.484 74.676 L62.8226666667 74.676 L62.992 74.8453333333 L63.3306666667 74.8453333333 L63.5 75.0146666667 L63.8386666667 75.0146666667 L64.008 75.184 L64.3466666667 75.184 L64.516 75.3533333333 L65.024 75.3533333333 L65.1933333333 75.5226666667 L65.7013333333 75.5226666667 L65.8706666667 75.692 L66.3786666667 75.692 L66.548 75.8613333333 L67.2253333333 75.8613333333 L67.3946666667 76.0306666667 L68.2413333333 76.0306666667 L68.4106666667 76.2 L69.2573333333 76.2 L69.4266666667 76.3693333333 L70.7813333333 76.3693333333 L70.9506666667 76.5386666667 L74.5066666667 76.5386666667 L74.676 76.708 L75.0146666667 76.708 L75.184 76.5386666667 L78.4013333333 76.5386666667 L78.5706666667 76.3693333333 L79.756 76.3693333333 L79.9253333333 76.2 L80.772 76.2 L80.9413333333 76.0306666667 L81.788 76.0306666667 L81.9573333333 75.8613333333 L82.4653333333 75.8613333333 L82.6346666667 75.692 L83.1426666667 75.692 L83.312 75.5226666667 L83.82 75.5226666667 L83.9893333333 75.3533333333 L84.328 75.3533333333 L84.4973333333 75.184 L85.0053333333 75.184 L85.1746666667 75.0146666667 L85.344 75.0146666667 L85.5133333333 74.8453333333 L85.852 74.8453333333 L86.0213333333 74.676 L86.36 74.676 L86.5293333333 74.5066666667 L86.6986666667 74.5066666667 L86.868 74.3373333333 L87.2066666667 74.3373333333 L87.376 74.168 L87.5453333333 74.168 L87.7146666667 73.9986666667 L87.884 73.9986666667 L88.0533333333 73.8293333333 L88.2226666667 73.8293333333 L88.392 73.66 L88.5613333333 73.66 L88.7306666667 73.4906666667 L88.9 73.4906666667 L89.0693333333 73.3213333333 L89.2386666667 73.3213333333 L89.408 73.152 L89.5773333333 73.152 L89.7466666667 72.9826666667 L89.916 72.9826666667 L90.2546666667 72.644 L90.424 72.644 L90.7626666667 72.3053333333 L90.932 72.3053333333 L91.2706666667 71.9666666667 L91.44 71.9666666667 L91.7786666667 71.628 L91.948 71.628 L92.6253333333 70.9506666667 L92.7946666667 70.9506666667 L95.6733333333 68.072 L95.6733333333 67.9026666667 L96.1813333333 67.3946666667 L96.1813333333 67.2253333333 L96.52 66.8866666667 L96.52 66.7173333333 L96.8586666667 66.3786666667 L96.8586666667 66.2093333333 L97.1973333333 65.8706666667 L97.1973333333 65.7013333333 L97.3666666667 65.532 L97.3666666667 65.3626666667 L97.7053333333 65.024 L97.7053333333 64.8546666667 L97.8746666667 64.6853333333 L97.8746666667 64.516 L98.044 64.3466666667 L98.044 64.1773333333 L98.2133333333 64.008 L98.2133333333 63.8386666667 L98.3826666667 63.6693333333 L98.3826666667 63.3306666667 L98.552 63.1613333333 L98.552 62.992 L98.7213333333 62.8226666667 L98.7213333333 62.484 L98.8906666667 62.3146666667 L98.8906666667 62.1453333333 L99.06 61.976 L99.06 61.6373333333 L99.2293333333 61.468 L99.2293333333 60.96 L99.3986666667 60.7906666667 L99.3986666667 60.452 L99.568 60.2826666667 L99.568 59.6053333333 L99.7373333333 59.436 L99.7373333333 58.7586666667 L99.9066666667 58.5893333333 L99.9066666667 57.2346666667 L100.076 57.0653333333 L100.076 55.7106666667 L88.392 55.7106666667 L88.392 56.896 L88.2226666667 57.0653333333 L88.2226666667 57.7426666667 L88.0533333333 57.912 L88.0533333333 58.42 L87.884 58.5893333333 L87.884 58.928 L87.7146666667 59.0973333333 L87.7146666667 59.436 L87.5453333333 59.6053333333 L87.5453333333 59.7746666667 L87.376 59.944 L87.376 60.1133333333 L87.2066666667 60.2826666667 L87.2066666667 60.452 L87.0373333333 60.6213333333 L87.0373333333 60.7906666667 L86.868 60.96 L86.868 61.1293333333 L86.5293333333 61.468 L86.5293333333 61.6373333333 L86.0213333333 62.1453333333 L86.0213333333 62.3146666667 L84.1586666667 64.1773333333 L83.9893333333 64.1773333333 L83.6506666667 64.516 L83.4813333333 64.516 L83.1426666667 64.8546666667 L82.9733333333 64.8546666667 L82.804 65.024 L82.6346666667 65.024 L82.4653333333 65.1933333333 L82.296 65.1933333333 L82.1266666667 65.3626666667 L81.788 65.3626666667 L81.6186666667 65.532 L81.4493333333 65.532 L81.28 65.7013333333 L80.9413333333 65.7013333333 L80.772 65.8706666667 L80.4333333333 65.8706666667 L80.264 66.04 L79.756 66.04 L79.5866666667 66.2093333333 L78.9093333333 66.2093333333 L78.74 66.3786666667 L77.8933333333 66.3786666667 L77.724 66.548 L76.0306666667 66.548 L75.8613333333 66.7173333333 L73.3213333333 66.7173333333 L73.152 66.548 L71.4586666667 66.548 L71.2893333333 66.3786666667 L70.2733333333 66.3786666667 L70.104 66.2093333333 L69.4266666667 66.2093333333 L69.2573333333 66.04 L68.9186666667 66.04 L68.7493333333 65.8706666667 L68.2413333333 65.8706666667 L68.072 65.7013333333 L67.7333333333 65.7013333333 L67.564 65.532 L67.3946666667 65.532 L67.2253333333 65.3626666667 L66.8866666667 65.3626666667 L66.7173333333 65.1933333333 L66.548 65.1933333333 L66.3786666667 65.024 L66.2093333333 65.024 L66.04 64.8546666667 L65.8706666667 64.8546666667 L65.532 64.516 L65.3626666667 64.516 L65.024 64.1773333333 L64.8546666667 64.1773333333 L62.992 62.3146666667 L62.992 62.1453333333 L62.484 61.6373333333 L62.484 61.468 L62.3146666667 61.2986666667 L62.3146666667 61.1293333333 L62.1453333333 60.96 L62.1453333333 60.7906666667 L61.976 60.6213333333 L61.976 60.452 L61.8066666667 60.2826666667 L61.8066666667 59.944 L61.6373333333 59.7746666667 L61.6373333333 59.2666666667 L61.468 59.0973333333 L61.468 57.5733333333 L61.2986666667 57.404 L61.2986666667 57.2346666667 L61.468 57.0653333333 L61.468 55.88 L61.6373333333 55.7106666667 L61.6373333333 55.2026666667 L61.8066666667 55.0333333333 L61.8066666667 54.6946666667 L61.976 54.5253333333 L61.976 54.356 L62.1453333333 54.1866666667 L62.1453333333 54.0173333333 L62.3146666667 53.848 L62.3146666667 53.6786666667 L62.6533333333 53.34 L62.6533333333 53.1706666667 L64.008 51.816 L64.1773333333 51.816 L64.516 51.4773333333 L64.6853333333 51.4773333333 L65.024 51.1386666667 L65.1933333333 51.1386666667 L65.3626666667 50.9693333333 L65.532 50.9693333333 L65.7013333333 50.8 L65.8706666667 50.8 L66.04 50.6306666667 L66.3786666667 50.6306666667 L66.548 50.4613333333 L66.8866666667 50.4613333333 L67.056 50.292 L67.3946666667 50.292 L67.564 50.1226666667 L68.072 50.1226666667 L68.2413333333 49.9533333333 L68.9186666667 49.9533333333 L69.088 49.784 L69.9346666667 49.784 L70.104 49.6146666667 L70.9506666667 49.6146666667 L71.12 49.4453333333 L72.3053333333 49.4453333333 L72.4746666667 49.276 L73.9986666667 49.276 L74.168 49.1066666667 L75.692 49.1066666667 L75.8613333333 48.9373333333 L77.3853333333 48.9373333333 L77.5546666667 48.768 L79.0786666667 48.768 L79.248 48.5986666667 L80.4333333333 48.5986666667 L80.6026666667 48.4293333333 L81.788 48.4293333333 L81.9573333333 48.26 L82.804 48.26 L82.9733333333 48.0906666667 L83.6506666667 48.0906666667 L83.82 47.9213333333 L84.4973333333 47.9213333333 L84.6666666667 47.752 L85.1746666667 47.752 L85.344 47.5826666667 L85.6826666667 47.5826666667 L85.852 47.4133333333 L86.1906666667 47.4133333333 L86.36 47.244 L86.6986666667 47.244 L86.868 47.0746666667 L87.2066666667 47.0746666667 L87.376 46.9053333333 L87.7146666667 46.9053333333 L87.884 46.736 L88.0533333333 46.736 L88.2226666667 46.5666666667 L88.392 46.5666666667 L88.5613333333 46.3973333333 L88.7306666667 46.3973333333 L88.9 46.228 L89.0693333333 46.228 L89.2386666667 46.0586666667 L89.408 46.0586666667 L89.5773333333 45.8893333333 L89.7466666667 45.8893333333 L89.916 45.72 L90.0853333333 45.72 L90.2546666667 45.5506666667 L90.424 45.5506666667 L90.7626666667 45.212 L90.932 45.212 L91.2706666667 44.8733333333 L91.44 44.8733333333 L91.7786666667 44.5346666667 L91.948 44.5346666667 L92.456 44.0266666667 L92.6253333333 44.0266666667 L94.8266666667 41.8253333333 L94.8266666667 41.656 L95.504 40.9786666667 L95.504 40.8093333333 L95.8426666667 40.4706666667 L95.8426666667 40.3013333333 L96.012 40.132 L96.012 39.9626666667 L96.3506666667 39.624 L96.3506666667 39.4546666667 L96.52 39.2853333333 L96.52 39.116 L96.6893333333 38.9466666667 L96.6893333333 38.7773333333 L96.8586666667 38.608 L96.8586666667 38.4386666667 L97.028 38.2693333333 L97.028 38.1 L97.1973333333 37.9306666667 L97.1973333333 37.592 L97.3666666667 37.4226666667 L97.3666666667 37.084 L97.536 36.9146666667 L97.536 36.576 L97.7053333333 36.4066666667 L97.7053333333 36.068 L97.8746666667 35.8986666667 L97.8746666667 35.3906666667 L98.044 35.2213333333 L98.044 34.544 L98.2133333333 34.3746666667 L98.2133333333 33.528 L98.3826666667 33.3586666667 L98.3826666667 28.448 L98.2133333333 28.2786666667 L98.2133333333 27.432 L98.044 27.2626666667 L98.044 26.7546666667 L97.8746666667 26.5853333333 L97.8746666667 26.0773333333 L97.7053333333 25.908 L97.7053333333 25.5693333333 L97.536 25.4 L97.536 25.0613333333 L97.3666666667 24.892 L97.3666666667 24.7226666667 L97.1973333333 24.5533333333 L97.1973333333 24.2146666667 L97.028 24.0453333333 L97.028 23.876 L96.8586666667 23.7066666667 L96.8586666667 23.5373333333 L96.6893333333 23.368 L96.6893333333 23.1986666667 L96.52 23.0293333333 L96.52 22.86 L96.3506666667 22.6906666667 L96.3506666667 22.5213333333 L96.012 22.1826666667 L96.012 22.0133333333 L95.6733333333 21.6746666667 L95.6733333333 21.5053333333 L95.3346666667 21.1666666667 L95.3346666667 20.9973333333 L94.996 20.6586666667 L94.996 20.4893333333 L94.1493333333 19.6426666667 L94.1493333333 19.4733333333 L92.1173333333 17.4413333333 L91.948 17.4413333333 L91.2706666667 16.764 L91.1013333333 16.764 L90.7626666667 16.4253333333 L90.5933333333 16.4253333333 L90.2546666667 16.0866666667 L90.0853333333 16.0866666667 L89.7466666667 15.748 L89.5773333333 15.748 L89.2386666667 15.4093333333 L89.0693333333 15.4093333333 L88.9 15.24 L88.7306666667 15.24 L88.5613333333 15.0706666667 L88.392 15.0706666667 L88.2226666667 14.9013333333 L88.0533333333 14.9013333333 L87.884 14.732 L87.7146666667 14.732 L87.5453333333 14.5626666667 L87.376 14.5626666667 L87.2066666667 14.3933333333 L87.0373333333 14.3933333333 L86.868 14.224 L86.6986666667 14.224 L86.5293333333 14.0546666667 L86.1906666667 14.0546666667 L86.0213333333 13.8853333333 L85.852 13.8853333333 L85.6826666667 13.716 L85.344 13.716 L85.1746666667 13.5466666667 L84.836 13.5466666667 L84.6666666667 13.3773333333 L84.328 13.3773333333 L84.1586666667 13.208 L83.82 13.208 L83.6506666667 13.0386666667 L83.312 13.0386666667 L83.1426666667 12.8693333333 L82.6346666667 12.8693333333 L82.4653333333 12.7 L81.9573333333 12.7 L81.788 12.5306666667 L81.28 12.5306666667 L81.1106666667 12.3613333333 L80.4333333333 12.3613333333 L80.264 12.192 L79.4173333333 12.192 L79.248 12.0226666667 L78.0626666667 12.0226666667 L77.8933333333 11.8533333333 71.4586666667 11.8533333333 " stroke="black" fill="transparent"/>
</svg>