<svg width="134.45066666666668mm" height="134.45066666666668mm" xmlns="http://www.w3.org/2000/svg" fill="transparent" ><path d="M42.5026666667 42.5026666667 L42.5026666667 92.1173333333 L91.948 92.1173333333 L92.1173333333 91.948 L92.1173333333 42.5026666667 42.5026666667 42.5026666667 " stroke="black" fill="transparent"/>
<path d="M53.1706666667 52.832 L81.4493333333 52.832 L81.6186666667 53.0013333333 L81.6186666667 81.4493333333 L81.4493333333 81.6186666667 L53.0013333333 81.6186666667 L52.832 81.4493333333 L52.832 53.1706666667 53.1706666667 52.832 " stroke="black" fill="transparent"/>
<path d="M22.86 22.6906666667 L22.6906666667 22.86 L22.6906666667 111.76 L111.76 111.76 L111.76 22.6906666667 22.86 22.6906666667 " stroke="black" fill="transparent"/>
<path d="M34.2053333333 34.3746666667 L34.3746666667 34.2053333333 L100.245333333 34.2053333333 L100.414666667 34.3746666667 L100.414666667 100.245333333 L100.245333333 100.414666667 L34.3746666667 100.414666667 L34.2053333333 100.245333333 34.2053333333 34.3746666667 " stroke="black" fill="transparent"/>
<path d="M0.169333333333 0.169333333333 L0.169333333333 134.450666667 L134.450666667 134.450666667 L134.450666667 0.169333333333 0.169333333333 0.169333333333 " stroke="black" fill="transparent"/>
<path d="M11.684 11.8533333333 L11.8533333333 11.684 L122.766666667 11.684 L122.936 11.8533333333 L122.936 122.766666667 L122.766666667 122.936 L11.8533333333 122.936 L11.684 122.766666667 11.684 11.8533333333 " stroke="black" fill="transparent"/>
</svg>