<svg width="150.876mm" height="114.3mm" xmlns="http://www.w3.org/2000/svg" fill="transparent" ><path d="M128.016 72.9826666667 L127.846666667 73.152 L126.830666667 73.152 L126.661333333 73.3213333333 L125.984 73.3213333333 L125.814666667 73.4906666667 L125.306666667 73.4906666667 L125.137333333 73.66 L124.798666667 73.66 L124.629333333 73.8293333333 L124.121333333 73.8293333333 L123.952 73.9986666667 L123.782666667 73.9986666667 L123.613333333 74.168 L123.274666667 74.168 L123.105333333 74.3373333333 L122.766666667 74.3373333333 L122.597333333 74.5066666667 L122.428 74.5066666667 L122.258666667 74.676 L122.089333333 74.676 L121.92 74.8453333333 L121.750666667 74.8453333333 L121.581333333 75.0146666667 L121.412 75.0146666667 L121.242666667 75.184 L121.073333333 75.184 L120.904 75.3533333333 L120.734666667 75.3533333333 L120.565333333 75.5226666667 L120.396 75.5226666667 L120.226666667 75.692 L120.057333333 75.692 L119.718666667 76.0306666667 L119.549333333 76.0306666667 L119.210666667 76.3693333333 L119.041333333 76.3693333333 L118.702666667 76.708 L118.533333333 76.708 L118.025333333 77.216 L117.856 77.216 L117.178666667 77.8933333333 L117.009333333 77.8933333333 L115.146666667 79.756 L115.146666667 79.9253333333 L114.469333333 80.6026666667 L114.469333333 80.772 L113.961333333 81.28 L113.961333333 81.4493333333 L113.453333333 81.9573333333 L113.453333333 82.1266666667 L113.284 82.296 L113.284 82.4653333333 L112.945333333 82.804 L112.945333333 82.9733333333 L112.776 83.1426666667 L112.776 83.312 L112.606666667 83.4813333333 L112.606666667 83.6506666667 L112.268 83.9893333333 L112.268 84.328 L112.098666667 84.4973333333 L112.098666667 84.6666666667 L111.929333333 84.836 L111.929333333 85.0053333333 L111.76 85.1746666667 L111.76 85.344 L111.590666667 85.5133333333 L111.590666667 85.852 L111.421333333 86.0213333333 L111.421333333 86.1906666667 L111.252 86.36 L111.252 86.6986666667 L111.082666667 86.868 L111.082666667 87.376 L110.913333333 87.5453333333 L110.913333333 87.884 L110.744 88.0533333333 L110.744 88.5613333333 L110.574666667 88.7306666667 L110.574666667 89.408 L110.405333333 89.5773333333 L110.405333333 90.424 L110.236 90.5933333333 L110.236 93.1333333333 L110.066666667 93.3026666667 L110.236 93.472 L110.236 96.012 L110.405333333 96.1813333333 L110.405333333 97.028 L110.574666667 97.1973333333 L110.574666667 97.8746666667 L110.744 98.044 L110.744 98.552 L110.913333333 98.7213333333 L110.913333333 99.06 L111.082666667 99.2293333333 L111.082666667 99.7373333333 L111.252 99.9066666667 L111.252 100.245333333 L111.421333333 100.414666667 L111.421333333 100.584 L111.590666667 100.753333333 L111.590666667 101.092 L111.76 101.261333333 L111.76 101.430666667 L111.929333333 101.6 L111.929333333 101.769333333 L112.098666667 101.938666667 L112.098666667 102.108 L112.268 102.277333333 L112.268 102.446666667 L112.437333333 102.616 L112.437333333 102.785333333 L112.606666667 102.954666667 L112.606666667 103.124 L112.776 103.293333333 L112.776 103.462666667 L112.945333333 103.632 L112.945333333 103.801333333 L113.284 104.14 L113.284 104.309333333 L113.622666667 104.648 L113.622666667 104.817333333 L113.961333333 105.156 L113.961333333 105.325333333 L114.469333333 105.833333333 L114.469333333 106.002666667 L115.316 106.849333333 L115.316 107.018666667 L116.84 108.542666667 L117.009333333 108.542666667 L117.856 109.389333333 L118.025333333 109.389333333 L118.533333333 109.897333333 L118.702666667 109.897333333 L119.041333333 110.236 L119.210666667 110.236 L119.549333333 110.574666667 L119.718666667 110.574666667 L120.057333333 110.913333333 L120.226666667 110.913333333 L120.396 111.082666667 L120.565333333 111.082666667 L120.734666667 111.252 L120.904 111.252 L121.073333333 111.421333333 L121.242666667 111.421333333 L121.412 111.590666667 L121.581333333 111.590666667 L121.750666667 111.76 L121.92 111.76 L122.089333333 111.929333333 L122.258666667 111.929333333 L122.428 112.098666667 L122.766666667 112.098666667 L122.936 112.268 L123.105333333 112.268 L123.274666667 112.437333333 L123.613333333 112.437333333 L123.782666667 112.606666667 L124.121333333 112.606666667 L124.290666667 112.776 L124.629333333 112.776 L124.798666667 112.945333333 L125.306666667 112.945333333 L125.476 113.114666667 L125.984 113.114666667 L126.153333333 113.284 L126.830666667 113.284 L127.0 113.453333333 L128.016 113.453333333 L128.185333333 113.622666667 L132.926666667 113.622666667 L133.096 113.453333333 L134.112 113.453333333 L134.281333333 113.284 L134.958666667 113.284 L135.128 113.114666667 L135.636 113.114666667 L135.805333333 112.945333333 L136.313333333 112.945333333 L136.482666667 112.776 L136.821333333 112.776 L136.990666667 112.606666667 L137.329333333 112.606666667 L137.498666667 112.437333333 L137.837333333 112.437333333 L138.006666667 112.268 L138.176 112.268 L138.345333333 112.098666667 L138.684 112.098666667 L138.853333333 111.929333333 L139.022666667 111.929333333 L139.192 111.76 L139.361333333 111.76 L139.530666667 111.590666667 L139.7 111.590666667 L139.869333333 111.421333333 L140.038666667 111.421333333 L140.208 111.252 L140.377333333 111.252 L140.546666667 111.082666667 L140.716 111.082666667 L141.054666667 110.744 L141.224 110.744 L141.393333333 110.574666667 L141.562666667 110.574666667 L141.901333333 110.236 L142.070666667 110.236 L142.578666667 109.728 L142.748 109.728 L143.256 109.22 L143.425333333 109.22 L144.441333333 108.204 L144.610666667 108.204 L145.288 107.526666667 L145.288 107.357333333 L146.473333333 106.172 L146.473333333 106.002666667 L146.981333333 105.494666667 L146.981333333 105.325333333 L147.489333333 104.817333333 L147.489333333 104.648 L147.828 104.309333333 L147.828 104.14 L147.997333333 103.970666667 L147.997333333 103.801333333 L148.336 103.462666667 L148.336 103.293333333 L148.505333333 103.124 L148.505333333 102.954666667 L148.674666667 102.785333333 L148.674666667 102.616 L148.844 102.446666667 L148.844 102.277333333 L149.013333333 102.108 L149.013333333 101.938666667 L149.182666667 101.769333333 L149.182666667 101.6 L149.352 101.430666667 L149.352 101.092 L149.521333333 100.922666667 L149.521333333 100.753333333 L149.690666667 100.584 L149.690666667 100.245333333 L149.86 100.076 L149.86 99.7373333333 L150.029333333 99.568 L150.029333333 99.2293333333 L150.198666667 99.06 L150.198666667 98.552 L150.368 98.3826666667 L150.368 97.8746666667 L150.537333333 97.7053333333 L150.537333333 97.028 L150.706666667 96.8586666667 L150.706666667 95.8426666667 L150.876 95.6733333333 L150.876 90.932 L150.706666667 90.7626666667 L150.706666667 89.7466666667 L150.537333333 89.5773333333 L150.537333333 88.9 L150.368 88.7306666667 L150.368 88.2226666667 L150.198666667 88.0533333333 L150.198666667 87.5453333333 L150.029333333 87.376 L150.029333333 87.0373333333 L149.86 86.868 L149.86 86.5293333333 L149.690666667 86.36 L149.690666667 86.0213333333 L149.521333333 85.852 L149.521333333 85.6826666667 L149.352 85.5133333333 L149.352 85.1746666667 L149.182666667 85.0053333333 L149.182666667 84.836 L149.013333333 84.6666666667 L149.013333333 84.4973333333 L148.844 84.328 L148.844 84.1586666667 L148.674666667 83.9893333333 L148.674666667 83.82 L148.505333333 83.6506666667 L148.505333333 83.4813333333 L148.336 83.312 L148.336 83.1426666667 L147.997333333 82.804 L147.997333333 82.6346666667 L147.828 82.4653333333 L147.828 82.296 L147.489333333 81.9573333333 L147.489333333 81.788 L146.981333333 81.28 L146.981333333 81.1106666667 L146.473333333 80.6026666667 L146.473333333 80.4333333333 L145.626666667 79.5866666667 L145.626666667 79.4173333333 L144.441333333 78.232 L144.272 78.232 L143.256 77.216 L143.086666667 77.216 L142.578666667 76.708 L142.409333333 76.708 L142.070666667 76.3693333333 L141.901333333 76.3693333333 L141.562666667 76.0306666667 L141.393333333 76.0306666667 L141.224 75.8613333333 L141.054666667 75.8613333333 L140.716 75.5226666667 L140.546666667 75.5226666667 L140.377333333 75.3533333333 L140.208 75.3533333333 L140.038666667 75.184 L139.869333333 75.184 L139.7 75.0146666667 L139.530666667 75.0146666667 L139.361333333 74.8453333333 L139.192 74.8453333333 L139.022666667 74.676 L138.853333333 74.676 L138.684 74.5066666667 L138.345333333 74.5066666667 L138.176 74.3373333333 L138.006666667 74.3373333333 L137.837333333 74.168 L137.498666667 74.168 L137.329333333 73.9986666667 L136.990666667 73.9986666667 L136.821333333 73.8293333333 L136.482666667 73.8293333333 L136.313333333 73.66 L135.805333333 73.66 L135.636 73.4906666667 L135.128 73.4906666667 L134.958666667 73.3213333333 L134.281333333 73.3213333333 L134.112 73.152 L133.265333333 73.152 L133.096 72.9826666667 128.016 72.9826666667 " stroke="black" fill="transparent"/>
<path d="M45.8893333333 72.9826666667 L45.72 73.152 L44.704 73.152 L44.5346666667 73.3213333333 L43.8573333333 73.3213333333 L43.688 73.4906666667 L43.18 73.4906666667 L43.0106666667 73.66 L42.5026666667 73.66 L42.3333333333 73.8293333333 L41.9946666667 73.8293333333 L41.8253333333 73.9986666667 L41.4866666667 73.9986666667 L41.3173333333 74.168 L40.9786666667 74.168 L40.8093333333 74.3373333333 L40.64 74.3373333333 L40.4706666667 74.5066666667 L40.3013333333 74.5066666667 L40.132 74.676 L39.7933333333 74.676 L39.624 74.8453333333 L39.4546666667 74.8453333333 L39.2853333333 75.0146666667 L39.116 75.0146666667 L38.9466666667 75.184 L38.7773333333 75.184 L38.608 75.3533333333 L38.4386666667 75.3533333333 L38.1 75.692 L37.9306666667 75.692 L37.7613333333 75.8613333333 L37.592 75.8613333333 L37.2533333333 76.2 L37.084 76.2 L36.7453333333 76.5386666667 L36.576 76.5386666667 L36.2373333333 76.8773333333 L36.068 76.8773333333 L35.3906666667 77.5546666667 L35.2213333333 77.5546666667 L32.512 80.264 L32.512 80.4333333333 L32.004 80.9413333333 L32.004 81.1106666667 L31.496 81.6186666667 L31.496 81.788 L31.1573333333 82.1266666667 L31.1573333333 82.296 L30.988 82.4653333333 L30.988 82.6346666667 L30.6493333333 82.9733333333 L30.6493333333 83.1426666667 L30.48 83.312 L30.48 83.4813333333 L30.3106666667 83.6506666667 L30.3106666667 83.82 L30.1413333333 83.9893333333 L30.1413333333 84.1586666667 L29.972 84.328 L29.972 84.4973333333 L29.8026666667 84.6666666667 L29.8026666667 84.836 L29.6333333333 85.0053333333 L29.6333333333 85.1746666667 L29.464 85.344 L29.464 85.6826666667 L29.2946666667 85.852 L29.2946666667 86.0213333333 L29.1253333333 86.1906666667 L29.1253333333 86.5293333333 L28.956 86.6986666667 L28.956 87.0373333333 L28.7866666667 87.2066666667 L28.7866666667 87.7146666667 L28.6173333333 87.884 L28.6173333333 88.2226666667 L28.448 88.392 L28.448 89.0693333333 L28.2786666667 89.2386666667 L28.2786666667 89.916 L28.1093333333 90.0853333333 L28.1093333333 91.44 L27.94 91.6093333333 L27.94 94.996 L28.1093333333 95.1653333333 L28.1093333333 96.3506666667 L28.2786666667 96.52 L28.2786666667 97.3666666667 L28.448 97.536 L28.448 98.2133333333 L28.6173333333 98.3826666667 L28.6173333333 98.7213333333 L28.7866666667 98.8906666667 L28.7866666667 99.3986666667 L28.956 99.568 L28.956 99.9066666667 L29.1253333333 100.076 L29.1253333333 100.414666667 L29.2946666667 100.584 L29.2946666667 100.753333333 L29.464 100.922666667 L29.464 101.261333333 L29.6333333333 101.430666667 L29.6333333333 101.6 L29.8026666667 101.769333333 L29.8026666667 101.938666667 L29.972 102.108 L29.972 102.277333333 L30.1413333333 102.446666667 L30.1413333333 102.616 L30.3106666667 102.785333333 L30.3106666667 102.954666667 L30.48 103.124 L30.48 103.293333333 L30.6493333333 103.462666667 L30.6493333333 103.632 L30.988 103.970666667 L30.988 104.14 L31.1573333333 104.309333333 L31.1573333333 104.478666667 L31.496 104.817333333 L31.496 104.986666667 L32.004 105.494666667 L32.004 105.664 L32.6813333333 106.341333333 L32.6813333333 106.510666667 L35.2213333333 109.050666667 L35.3906666667 109.050666667 L35.8986666667 109.558666667 L36.068 109.558666667 L36.576 110.066666667 L36.7453333333 110.066666667 L37.084 110.405333333 L37.2533333333 110.405333333 L37.592 110.744 L37.7613333333 110.744 L37.9306666667 110.913333333 L38.1 110.913333333 L38.2693333333 111.082666667 L38.4386666667 111.082666667 L38.7773333333 111.421333333 L38.9466666667 111.421333333 L39.116 111.590666667 L39.2853333333 111.590666667 L39.4546666667 111.76 L39.624 111.76 L39.7933333333 111.929333333 L40.132 111.929333333 L40.3013333333 112.098666667 L40.4706666667 112.098666667 L40.64 112.268 L40.9786666667 112.268 L41.148 112.437333333 L41.3173333333 112.437333333 L41.4866666667 112.606666667 L41.8253333333 112.606666667 L41.9946666667 112.776 L42.5026666667 112.776 L42.672 112.945333333 L43.0106666667 112.945333333 L43.18 113.114666667 L43.688 113.114666667 L43.8573333333 113.284 L44.5346666667 113.284 L44.704 113.453333333 L45.72 113.453333333 L45.8893333333 113.622666667 L50.8 113.622666667 L50.9693333333 113.453333333 L51.9853333333 113.453333333 L52.1546666667 113.284 L52.832 113.284 L53.0013333333 113.114666667 L53.5093333333 113.114666667 L53.6786666667 112.945333333 L54.0173333333 112.945333333 L54.1866666667 112.776 L54.6946666667 112.776 L54.864 112.606666667 L55.2026666667 112.606666667 L55.372 112.437333333 L55.5413333333 112.437333333 L55.7106666667 112.268 L56.0493333333 112.268 L56.2186666667 112.098666667 L56.388 112.098666667 L56.5573333333 111.929333333 L56.7266666667 111.929333333 L56.896 111.76 L57.2346666667 111.76 L57.404 111.590666667 L57.5733333333 111.590666667 L57.7426666667 111.421333333 L57.912 111.421333333 L58.2506666667 111.082666667 L58.42 111.082666667 L58.5893333333 110.913333333 L58.7586666667 110.913333333 L58.928 110.744 L59.0973333333 110.744 L59.436 110.405333333 L59.6053333333 110.405333333 L59.944 110.066666667 L60.1133333333 110.066666667 L60.6213333333 109.558666667 L60.7906666667 109.558666667 L61.468 108.881333333 L61.6373333333 108.881333333 L64.008 106.510666667 L64.008 106.341333333 L64.6853333333 105.664 L64.6853333333 105.494666667 L65.024 105.156 L65.024 104.986666667 L65.3626666667 104.648 L65.3626666667 104.478666667 L65.7013333333 104.14 L65.7013333333 103.970666667 L66.04 103.632 L66.04 103.462666667 L66.2093333333 103.293333333 L66.2093333333 103.124 L66.3786666667 102.954666667 L66.3786666667 102.785333333 L66.548 102.616 L66.548 102.446666667 L66.7173333333 102.277333333 L66.7173333333 102.108 L66.8866666667 101.938666667 L66.8866666667 101.769333333 L67.056 101.6 L67.056 101.430666667 L67.2253333333 101.261333333 L67.2253333333 100.922666667 L67.3946666667 100.753333333 L67.3946666667 100.414666667 L67.564 100.245333333 L67.564 100.076 L67.7333333333 99.9066666667 L67.7333333333 99.568 L67.9026666667 99.3986666667 L67.9026666667 98.8906666667 L68.072 98.7213333333 L68.072 98.2133333333 L68.2413333333 98.044 L68.2413333333 97.536 L68.4106666667 97.3666666667 L68.4106666667 96.52 L68.58 96.3506666667 L68.58 94.996 L68.7493333333 94.8266666667 L68.7493333333 91.7786666667 L68.58 91.6093333333 L68.58 90.2546666667 L68.4106666667 90.0853333333 L68.4106666667 89.2386666667 L68.2413333333 89.0693333333 L68.2413333333 88.5613333333 L68.072 88.392 L68.072 87.884 L67.9026666667 87.7146666667 L67.9026666667 87.2066666667 L67.7333333333 87.0373333333 L67.7333333333 86.6986666667 L67.564 86.5293333333 L67.564 86.1906666667 L67.3946666667 86.0213333333 L67.3946666667 85.852 L67.2253333333 85.6826666667 L67.2253333333 85.344 L67.056 85.1746666667 L67.056 85.0053333333 L66.8866666667 84.836 L66.8866666667 84.6666666667 L66.7173333333 84.4973333333 L66.7173333333 84.328 L66.548 84.1586666667 L66.548 83.9893333333 L66.3786666667 83.82 L66.3786666667 83.6506666667 L66.2093333333 83.4813333333 L66.2093333333 83.312 L66.04 83.1426666667 L66.04 82.9733333333 L65.7013333333 82.6346666667 L65.7013333333 82.4653333333 L65.532 82.296 L65.532 82.1266666667 L65.024 81.6186666667 L65.024 81.4493333333 L64.6853333333 81.1106666667 L64.6853333333 80.9413333333 L64.008 80.264 L64.008 80.0946666667 L61.468 77.5546666667 L61.2986666667 77.5546666667 L60.7906666667 77.0466666667 L60.6213333333 77.0466666667 L60.1133333333 76.5386666667 L59.944 76.5386666667 L59.6053333333 76.2 L59.436 76.2 L59.0973333333 75.8613333333 L58.928 75.8613333333 L58.7586666667 75.692 L58.5893333333 75.692 L58.2506666667 75.3533333333 L58.0813333333 75.3533333333 L57.912 75.184 L57.7426666667 75.184 L57.5733333333 75.0146666667 L57.404 75.0146666667 L57.2346666667 74.8453333333 L57.0653333333 74.8453333333 L56.896 74.676 L56.5573333333 74.676 L56.388 74.5066666667 L56.2186666667 74.5066666667 L56.0493333333 74.3373333333 L55.7106666667 74.3373333333 L55.5413333333 74.168 L55.372 74.168 L55.2026666667 73.9986666667 L54.864 73.9986666667 L54.6946666667 73.8293333333 L54.356 73.8293333333 L54.1866666667 73.66 L53.6786666667 73.66 L53.5093333333 73.4906666667 L53.0013333333 73.4906666667 L52.832 73.3213333333 L52.1546666667 73.3213333333 L51.9853333333 73.152 L50.9693333333 73.152 L50.8 72.9826666667 45.8893333333 72.9826666667 " stroke="black" fill="transparent"/>
<path d="M123.105333333 37.4226666667 L122.936 37.592 L121.92 37.592 L121.750666667 37.7613333333 L121.073333333 37.7613333333 L120.904 37.9306666667 L120.565333333 37.9306666667 L120.396 38.1 L120.057333333 38.1 L119.888 38.2693333333 L119.549333333 38.2693333333 L119.38 38.4386666667 L119.041333333 38.4386666667 L118.872 38.608 L118.702666667 38.608 L118.533333333 38.7773333333 L118.364 38.7773333333 L118.194666667 38.9466666667 L118.025333333 38.9466666667 L117.856 39.116 L117.686666667 39.116 L117.517333333 39.2853333333 L117.348 39.2853333333 L117.009333333 39.624 L116.84 39.624 L116.670666667 39.7933333333 L116.501333333 39.7933333333 L115.993333333 40.3013333333 L115.824 40.3013333333 L115.146666667 40.9786666667 L114.977333333 40.9786666667 L113.622666667 42.3333333333 L113.622666667 42.5026666667 L112.945333333 43.18 L112.945333333 43.3493333333 L112.606666667 43.688 L112.606666667 43.8573333333 L112.268 44.196 L112.268 44.3653333333 L112.098666667 44.5346666667 L112.098666667 44.704 L111.76 45.0426666667 L111.76 45.212 L111.590666667 45.3813333333 L111.590666667 45.5506666667 L111.421333333 45.72 L111.421333333 46.0586666667 L111.252 46.228 L111.252 46.3973333333 L111.082666667 46.5666666667 L111.082666667 46.9053333333 L110.913333333 47.0746666667 L110.913333333 47.4133333333 L110.744 47.5826666667 L110.744 47.9213333333 L110.574666667 48.0906666667 L110.574666667 48.5986666667 L110.405333333 48.768 L110.405333333 49.4453333333 L110.236 49.6146666667 L110.236 54.1866666667 L110.405333333 54.356 L110.405333333 55.0333333333 L110.574666667 55.2026666667 L110.574666667 55.7106666667 L110.744 55.88 L110.744 56.388 L110.913333333 56.5573333333 L110.913333333 56.7266666667 L111.082666667 56.896 L111.082666667 57.2346666667 L111.252 57.404 L111.252 57.7426666667 L111.421333333 57.912 L111.421333333 58.0813333333 L111.590666667 58.2506666667 L111.590666667 58.42 L111.76 58.5893333333 L111.76 58.7586666667 L111.929333333 58.928 L111.929333333 59.0973333333 L112.268 59.436 L112.268 59.6053333333 L112.437333333 59.7746666667 L112.437333333 59.944 L112.945333333 60.452 L112.945333333 60.6213333333 L113.453333333 61.1293333333 L113.453333333 61.2986666667 L115.316 63.1613333333 L115.485333333 63.1613333333 L115.993333333 63.6693333333 L116.162666667 63.6693333333 L116.501333333 64.008 L116.670666667 64.008 L117.009333333 64.3466666667 L117.178666667 64.3466666667 L117.348 64.516 L117.517333333 64.516 L117.856 64.8546666667 L118.025333333 64.8546666667 L118.194666667 65.024 L118.533333333 65.024 L118.702666667 65.1933333333 L118.872 65.1933333333 L119.041333333 65.3626666667 L119.210666667 65.3626666667 L119.38 65.532 L119.718666667 65.532 L119.888 65.7013333333 L120.226666667 65.7013333333 L120.396 65.8706666667 L120.904 65.8706666667 L121.073333333 66.04 L121.581333333 66.04 L121.750666667 66.2093333333 L122.597333333 66.2093333333 L122.766666667 66.3786666667 L126.492 66.3786666667 L126.661333333 66.2093333333 L127.508 66.2093333333 L127.677333333 66.04 L128.354666667 66.04 L128.524 65.8706666667 L128.862666667 65.8706666667 L129.032 65.7013333333 L129.370666667 65.7013333333 L129.54 65.532 L129.878666667 65.532 L130.048 65.3626666667 L130.217333333 65.3626666667 L130.386666667 65.1933333333 L130.725333333 65.1933333333 L130.894666667 65.024 L131.064 65.024 L131.233333333 64.8546666667 L131.402666667 64.8546666667 L131.572 64.6853333333 L131.741333333 64.6853333333 L132.08 64.3466666667 L132.249333333 64.3466666667 L132.418666667 64.1773333333 L132.588 64.1773333333 L132.926666667 63.8386666667 L133.096 63.8386666667 L133.604 63.3306666667 L133.773333333 63.3306666667 L135.974666667 61.1293333333 L135.974666667 60.96 L136.482666667 60.452 L136.482666667 60.2826666667 L136.821333333 59.944 L136.821333333 59.7746666667 L137.16 59.436 L137.16 59.2666666667 L137.329333333 59.0973333333 L137.329333333 58.928 L137.498666667 58.7586666667 L137.498666667 58.5893333333 L137.668 58.42 L137.668 58.2506666667 L137.837333333 58.0813333333 L137.837333333 57.912 L138.006666667 57.7426666667 L138.006666667 57.5733333333 L138.176 57.404 L138.176 57.0653333333 L138.345333333 56.896 L138.345333333 56.5573333333 L138.514666667 56.388 L138.514666667 56.0493333333 L138.684 55.88 L138.684 55.372 L138.853333333 55.2026666667 L138.853333333 54.5253333333 L139.022666667 54.356 L139.022666667 53.1706666667 L139.192 53.0013333333 L139.192 50.8 L139.022666667 50.6306666667 L139.022666667 49.4453333333 L138.853333333 49.276 L138.853333333 48.5986666667 L138.684 48.4293333333 L138.684 47.9213333333 L138.514666667 47.752 L138.514666667 47.4133333333 L138.345333333 47.244 L138.345333333 46.9053333333 L138.176 46.736 L138.176 46.3973333333 L138.006666667 46.228 L138.006666667 46.0586666667 L137.837333333 45.8893333333 L137.837333333 45.72 L137.668 45.5506666667 L137.668 45.3813333333 L137.498666667 45.212 L137.498666667 45.0426666667 L137.329333333 44.8733333333 L137.329333333 44.704 L137.16 44.5346666667 L137.16 44.3653333333 L136.821333333 44.0266666667 L136.821333333 43.8573333333 L136.482666667 43.5186666667 L136.482666667 43.3493333333 L135.805333333 42.672 L135.805333333 42.5026666667 L133.942666667 40.64 L133.773333333 40.64 L133.265333333 40.132 L133.096 40.132 L132.757333333 39.7933333333 L132.588 39.7933333333 L132.249333333 39.4546666667 L132.08 39.4546666667 L131.910666667 39.2853333333 L131.741333333 39.2853333333 L131.572 39.116 L131.402666667 39.116 L131.233333333 38.9466666667 L131.064 38.9466666667 L130.894666667 38.7773333333 L130.725333333 38.7773333333 L130.556 38.608 L130.386666667 38.608 L130.217333333 38.4386666667 L129.878666667 38.4386666667 L129.709333333 38.2693333333 L129.54 38.2693333333 L129.370666667 38.1 L128.862666667 38.1 L128.693333333 37.9306666667 L128.354666667 37.9306666667 L128.185333333 37.7613333333 L127.508 37.7613333333 L127.338666667 37.592 L126.492 37.592 L126.322666667 37.4226666667 123.105333333 37.4226666667 " stroke="black" fill="transparent"/>
<path d="M40.8093333333 37.4226666667 L40.64 37.592 L39.7933333333 37.592 L39.624 37.7613333333 L38.9466666667 37.7613333333 L38.7773333333 37.9306666667 L38.2693333333 37.9306666667 L38.1 38.1 L37.7613333333 38.1 L37.592 38.2693333333 L37.2533333333 38.2693333333 L37.084 38.4386666667 L36.9146666667 38.4386666667 L36.7453333333 38.608 L36.576 38.608 L36.4066666667 38.7773333333 L36.068 38.7773333333 L35.8986666667 38.9466666667 L35.7293333333 38.9466666667 L35.3906666667 39.2853333333 L35.2213333333 39.2853333333 L35.052 39.4546666667 L34.8826666667 39.4546666667 L34.544 39.7933333333 L34.3746666667 39.7933333333 L34.036 40.132 L33.8666666667 40.132 L33.3586666667 40.64 L33.1893333333 40.64 L31.1573333333 42.672 L31.1573333333 42.8413333333 L30.6493333333 43.3493333333 L30.6493333333 43.5186666667 L30.3106666667 43.8573333333 L30.3106666667 44.0266666667 L29.972 44.3653333333 L29.972 44.5346666667 L29.8026666667 44.704 L29.8026666667 44.8733333333 L29.6333333333 45.0426666667 L29.6333333333 45.212 L29.464 45.3813333333 L29.464 45.5506666667 L29.2946666667 45.72 L29.2946666667 45.8893333333 L29.1253333333 46.0586666667 L29.1253333333 46.228 L28.956 46.3973333333 L28.956 46.736 L28.7866666667 46.9053333333 L28.7866666667 47.0746666667 L28.6173333333 47.244 L28.6173333333 47.752 L28.448 47.9213333333 L28.448 48.26 L28.2786666667 48.4293333333 L28.2786666667 49.1066666667 L28.1093333333 49.276 L28.1093333333 50.292 L27.94 50.4613333333 L27.94 53.34 L28.1093333333 53.5093333333 L28.1093333333 54.5253333333 L28.2786666667 54.6946666667 L28.2786666667 55.372 L28.448 55.5413333333 L28.448 56.0493333333 L28.6173333333 56.2186666667 L28.6173333333 56.5573333333 L28.7866666667 56.7266666667 L28.7866666667 57.0653333333 L28.956 57.2346666667 L28.956 57.404 L29.1253333333 57.5733333333 L29.1253333333 57.912 L29.2946666667 58.0813333333 L29.2946666667 58.2506666667 L29.464 58.42 L29.464 58.5893333333 L29.6333333333 58.7586666667 L29.6333333333 58.928 L29.972 59.2666666667 L29.972 59.436 L30.1413333333 59.6053333333 L30.1413333333 59.7746666667 L30.48 60.1133333333 L30.48 60.2826666667 L30.988 60.7906666667 L30.988 60.96 L33.3586666667 63.3306666667 L33.528 63.3306666667 L34.036 63.8386666667 L34.2053333333 63.8386666667 L34.544 64.1773333333 L34.7133333333 64.1773333333 L35.052 64.516 L35.2213333333 64.516 L35.3906666667 64.6853333333 L35.56 64.6853333333 L35.7293333333 64.8546666667 L35.8986666667 64.8546666667 L36.068 65.024 L36.2373333333 65.024 L36.4066666667 65.1933333333 L36.576 65.1933333333 L36.7453333333 65.3626666667 L37.084 65.3626666667 L37.2533333333 65.532 L37.592 65.532 L37.7613333333 65.7013333333 L38.1 65.7013333333 L38.2693333333 65.8706666667 L38.608 65.8706666667 L38.7773333333 66.04 L39.4546666667 66.04 L39.624 66.2093333333 L40.4706666667 66.2093333333 L40.64 66.3786666667 L44.3653333333 66.3786666667 L44.5346666667 66.2093333333 L45.3813333333 66.2093333333 L45.5506666667 66.04 L46.0586666667 66.04 L46.228 65.8706666667 L46.736 65.8706666667 L46.9053333333 65.7013333333 L47.244 65.7013333333 L47.4133333333 65.532 L47.5826666667 65.532 L47.752 65.3626666667 L48.0906666667 65.3626666667 L48.26 65.1933333333 L48.4293333333 65.1933333333 L48.5986666667 65.024 L48.768 65.024 L48.9373333333 64.8546666667 L49.1066666667 64.8546666667 L49.276 64.6853333333 L49.4453333333 64.6853333333 L49.6146666667 64.516 L49.784 64.516 L49.9533333333 64.3466666667 L50.1226666667 64.3466666667 L50.4613333333 64.008 L50.6306666667 64.008 L50.9693333333 63.6693333333 L51.1386666667 63.6693333333 L51.816 62.992 L51.9853333333 62.992 L53.5093333333 61.468 L53.5093333333 61.2986666667 L54.1866666667 60.6213333333 L54.1866666667 60.452 L54.5253333333 60.1133333333 L54.5253333333 59.944 L54.864 59.6053333333 L54.864 59.436 L55.0333333333 59.2666666667 L55.0333333333 59.0973333333 L55.2026666667 58.928 L55.2026666667 58.7586666667 L55.372 58.5893333333 L55.372 58.42 L55.5413333333 58.2506666667 L55.5413333333 58.0813333333 L55.7106666667 57.912 L55.7106666667 57.7426666667 L55.88 57.5733333333 L55.88 57.404 L56.0493333333 57.2346666667 L56.0493333333 56.896 L56.2186666667 56.7266666667 L56.2186666667 56.388 L56.388 56.2186666667 L56.388 55.7106666667 L56.5573333333 55.5413333333 L56.5573333333 55.0333333333 L56.7266666667 54.864 L56.7266666667 54.0173333333 L56.896 53.848 L56.896 49.9533333333 L56.7266666667 49.784 L56.7266666667 48.9373333333 L56.5573333333 48.768 L56.5573333333 48.26 L56.388 48.0906666667 L56.388 47.5826666667 L56.2186666667 47.4133333333 L56.2186666667 47.0746666667 L56.0493333333 46.9053333333 L56.0493333333 46.736 L55.88 46.5666666667 L55.88 46.228 L55.7106666667 46.0586666667 L55.7106666667 45.8893333333 L55.5413333333 45.72 L55.5413333333 45.5506666667 L55.372 45.3813333333 L55.372 45.212 L55.2026666667 45.0426666667 L55.2026666667 44.8733333333 L55.0333333333 44.704 L55.0333333333 44.5346666667 L54.6946666667 44.196 L54.6946666667 44.0266666667 L54.5253333333 43.8573333333 L54.5253333333 43.688 L54.0173333333 43.18 L54.0173333333 43.0106666667 L53.1706666667 42.164 L53.1706666667 41.9946666667 L52.324 41.148 L52.1546666667 41.148 L51.308 40.3013333333 L51.1386666667 40.3013333333 L50.8 39.9626666667 L50.6306666667 39.9626666667 L50.292 39.624 L50.1226666667 39.624 L49.784 39.2853333333 L49.6146666667 39.2853333333 L49.4453333333 39.116 L49.276 39.116 L49.1066666667 38.9466666667 L48.9373333333 38.9466666667 L48.768 38.7773333333 L48.5986666667 38.7773333333 L48.4293333333 38.608 L48.26 38.608 L48.0906666667 38.4386666667 L47.752 38.4386666667 L47.5826666667 38.2693333333 L47.244 38.2693333333 L47.0746666667 38.1 L46.736 38.1 L46.5666666667 37.9306666667 L46.0586666667 37.9306666667 L45.8893333333 37.7613333333 L45.3813333333 37.7613333333 L45.212 37.592 L44.196 37.592 L44.0266666667 37.4226666667 40.8093333333 37.4226666667 " stroke="black" fill="transparent"/>
<path d="M118.533333333 14.732 L118.364 14.9013333333 L117.009333333 14.9013333333 L116.84 15.0706666667 L116.332 15.0706666667 L116.162666667 15.24 L115.824 15.24 L115.654666667 15.4093333333 L115.485333333 15.4093333333 L115.316 15.5786666667 L114.977333333 15.5786666667 L114.808 15.748 L114.638666667 15.748 L114.3 16.0866666667 L114.130666667 16.0866666667 L113.961333333 16.256 L113.792 16.256 L113.114666667 16.9333333333 L112.945333333 16.9333333333 L112.268 17.6106666667 L112.268 17.78 L111.590666667 18.4573333333 L111.590666667 18.6266666667 L111.421333333 18.796 L111.421333333 18.9653333333 L111.082666667 19.304 L111.082666667 19.4733333333 L110.913333333 19.6426666667 L110.913333333 19.9813333333 L110.744 20.1506666667 L110.744 20.32 L110.574666667 20.4893333333 L110.574666667 20.828 L110.405333333 20.9973333333 L110.405333333 21.5053333333 L110.236 21.6746666667 L110.236 25.0613333333 L110.405333333 25.2306666667 L110.405333333 25.7386666667 L110.574666667 25.908 L110.574666667 26.416 L110.744 26.5853333333 L110.744 26.7546666667 L110.913333333 26.924 L110.913333333 27.0933333333 L111.082666667 27.2626666667 L111.082666667 27.432 L111.252 27.6013333333 L111.252 27.7706666667 L111.421333333 27.94 L111.421333333 28.1093333333 L111.76 28.448 L111.76 28.6173333333 L113.453333333 30.3106666667 L113.622666667 30.3106666667 L114.130666667 30.8186666667 L114.3 30.8186666667 L114.469333333 30.988 L114.638666667 30.988 L114.808 31.1573333333 L114.977333333 31.1573333333 L115.146666667 31.3266666667 L115.316 31.3266666667 L115.485333333 31.496 L115.824 31.496 L115.993333333 31.6653333333 L116.332 31.6653333333 L116.501333333 31.8346666667 L117.178666667 31.8346666667 L117.348 32.004 L120.226666667 32.004 L120.396 31.8346666667 L120.904 31.8346666667 L121.073333333 31.6653333333 L121.581333333 31.6653333333 L121.750666667 31.496 L121.92 31.496 L122.089333333 31.3266666667 L122.428 31.3266666667 L122.597333333 31.1573333333 L122.766666667 31.1573333333 L122.936 30.988 L123.105333333 30.988 L123.444 30.6493333333 L123.613333333 30.6493333333 L123.952 30.3106666667 L124.121333333 30.3106666667 L125.645333333 28.7866666667 L125.645333333 28.6173333333 L125.984 28.2786666667 L125.984 28.1093333333 L126.322666667 27.7706666667 L126.322666667 27.6013333333 L126.492 27.432 L126.492 27.2626666667 L126.661333333 27.0933333333 L126.661333333 26.7546666667 L126.830666667 26.5853333333 L126.830666667 26.416 L127.0 26.2466666667 L127.0 25.7386666667 L127.169333333 25.5693333333 L127.169333333 25.0613333333 L127.338666667 24.892 L127.338666667 22.0133333333 L127.169333333 21.844 L127.169333333 21.1666666667 L127.0 20.9973333333 L127.0 20.6586666667 L126.830666667 20.4893333333 L126.830666667 20.1506666667 L126.661333333 19.9813333333 L126.661333333 19.812 L126.492 19.6426666667 L126.492 19.4733333333 L126.322666667 19.304 L126.322666667 19.1346666667 L126.153333333 18.9653333333 L126.153333333 18.796 L125.814666667 18.4573333333 L125.814666667 18.288 L123.952 16.4253333333 L123.782666667 16.4253333333 L123.444 16.0866666667 L123.274666667 16.0866666667 L123.105333333 15.9173333333 L122.936 15.9173333333 L122.766666667 15.748 L122.597333333 15.748 L122.428 15.5786666667 L122.258666667 15.5786666667 L122.089333333 15.4093333333 L121.92 15.4093333333 L121.750666667 15.24 L121.412 15.24 L121.242666667 15.0706666667 L120.734666667 15.0706666667 L120.565333333 14.9013333333 L119.210666667 14.9013333333 L119.041333333 14.732 118.533333333 14.732 " stroke="black" fill="transparent"/>
<path d="M36.4066666667 14.732 L36.2373333333 14.9013333333 L34.8826666667 14.9013333333 L34.7133333333 15.0706666667 L34.2053333333 15.0706666667 L34.036 15.24 L33.6973333333 15.24 L33.528 15.4093333333 L33.1893333333 15.4093333333 L33.02 15.5786666667 L32.8506666667 15.5786666667 L32.6813333333 15.748 L32.512 15.748 L32.3426666667 15.9173333333 L32.1733333333 15.9173333333 L31.8346666667 16.256 L31.6653333333 16.256 L31.3266666667 16.5946666667 L31.1573333333 16.5946666667 L29.6333333333 18.1186666667 L29.6333333333 18.288 L29.2946666667 18.6266666667 L29.2946666667 18.796 L29.1253333333 18.9653333333 L29.1253333333 19.1346666667 L28.7866666667 19.4733333333 L28.7866666667 19.812 L28.6173333333 19.9813333333 L28.6173333333 20.1506666667 L28.448 20.32 L28.448 20.6586666667 L28.2786666667 20.828 L28.2786666667 21.1666666667 L28.1093333333 21.336 L28.1093333333 22.1826666667 L27.94 22.352 L27.94 24.5533333333 L28.1093333333 24.7226666667 L28.1093333333 25.4 L28.2786666667 25.5693333333 L28.2786666667 26.0773333333 L28.448 26.2466666667 L28.448 26.5853333333 L28.6173333333 26.7546666667 L28.6173333333 26.924 L28.7866666667 27.0933333333 L28.7866666667 27.2626666667 L28.956 27.432 L28.956 27.6013333333 L29.1253333333 27.7706666667 L29.1253333333 27.94 L29.464 28.2786666667 L29.464 28.448 L29.972 28.956 L29.972 29.1253333333 L30.8186666667 29.972 L30.988 29.972 L31.496 30.48 L31.6653333333 30.48 L32.004 30.8186666667 L32.1733333333 30.8186666667 L32.3426666667 30.988 L32.512 30.988 L32.6813333333 31.1573333333 L32.8506666667 31.1573333333 L33.02 31.3266666667 L33.1893333333 31.3266666667 L33.3586666667 31.496 L33.6973333333 31.496 L33.8666666667 31.6653333333 L34.2053333333 31.6653333333 L34.3746666667 31.8346666667 L35.052 31.8346666667 L35.2213333333 32.004 L37.9306666667 32.004 L38.1 31.8346666667 L38.7773333333 31.8346666667 L38.9466666667 31.6653333333 L39.2853333333 31.6653333333 L39.4546666667 31.496 L39.7933333333 31.496 L39.9626666667 31.3266666667 L40.132 31.3266666667 L40.3013333333 31.1573333333 L40.4706666667 31.1573333333 L40.64 30.988 L40.8093333333 30.988 L40.9786666667 30.8186666667 L41.148 30.8186666667 L41.4866666667 30.48 L41.656 30.48 L42.164 29.972 L42.3333333333 29.972 L43.0106666667 29.2946666667 L43.0106666667 29.1253333333 L43.688 28.448 L43.688 28.2786666667 L44.0266666667 27.94 L44.0266666667 27.7706666667 L44.196 27.6013333333 L44.196 27.432 L44.3653333333 27.2626666667 L44.3653333333 27.0933333333 L44.5346666667 26.924 L44.5346666667 26.5853333333 L44.704 26.416 L44.704 26.0773333333 L44.8733333333 25.908 L44.8733333333 25.5693333333 L45.0426666667 25.4 L45.0426666667 24.5533333333 L45.212 24.384 L45.212 22.5213333333 L45.0426666667 22.352 L45.0426666667 21.5053333333 L44.8733333333 21.336 L44.8733333333 20.828 L44.704 20.6586666667 L44.704 20.32 L44.5346666667 20.1506666667 L44.5346666667 19.9813333333 L44.3653333333 19.812 L44.3653333333 19.6426666667 L44.196 19.4733333333 L44.196 19.304 L44.0266666667 19.1346666667 L44.0266666667 18.9653333333 L43.688 18.6266666667 L43.688 18.4573333333 L43.3493333333 18.1186666667 L43.3493333333 17.9493333333 L41.9946666667 16.5946666667 L41.8253333333 16.5946666667 L41.4866666667 16.256 L41.3173333333 16.256 L40.9786666667 15.9173333333 L40.8093333333 15.9173333333 L40.64 15.748 L40.4706666667 15.748 L40.3013333333 15.5786666667 L40.132 15.5786666667 L39.9626666667 15.4093333333 L39.624 15.4093333333 L39.4546666667 15.24 L39.116 15.24 L38.9466666667 15.0706666667 L38.4386666667 15.0706666667 L38.2693333333 14.9013333333 L36.9146666667 14.9013333333 L36.7453333333 14.732 36.4066666667 14.732 " stroke="black" fill="transparent"/>
<path d="M113.284 1.86266666667 L113.114666667 2.032 L112.776 2.032 L112.606666667 2.20133333333 L112.437333333 2.20133333333 L112.268 2.37066666667 L112.098666667 2.37066666667 L111.929333333 2.54 L111.76 2.54 L110.744 3.556 L110.744 3.72533333333 L110.574666667 3.89466666667 L110.574666667 4.064 L110.405333333 4.23333333333 L110.405333333 4.572 L110.236 4.74133333333 L110.236 6.94266666667 L110.405333333 7.112 L110.405333333 7.45066666667 L110.574666667 7.62 L110.574666667 7.78933333333 L110.744 7.95866666667 L110.744 8.128 L111.929333333 9.31333333333 L112.098666667 9.31333333333 L112.268 9.48266666667 L112.437333333 9.48266666667 L112.606666667 9.652 L112.945333333 9.652 L113.114666667 9.82133333333 L115.146666667 9.82133333333 L115.316 9.652 L115.654666667 9.652 L115.824 9.48266666667 L115.993333333 9.48266666667 L116.162666667 9.31333333333 L116.332 9.31333333333 L116.670666667 8.97466666667 L116.84 8.97466666667 L117.348 8.46666666667 L117.348 8.29733333333 L117.686666667 7.95866666667 L117.686666667 7.78933333333 L117.856 7.62 L117.856 7.28133333333 L118.025333333 7.112 L118.025333333 6.604 L118.194666667 6.43466666667 L118.194666667 5.24933333333 L118.025333333 5.08 L118.025333333 4.572 L117.856 4.40266666667 L117.856 4.064 L117.517333333 3.72533333333 L117.517333333 3.556 L116.332 2.37066666667 L116.162666667 2.37066666667 L115.993333333 2.20133333333 L115.654666667 2.20133333333 L115.485333333 2.032 L115.146666667 2.032 L114.977333333 1.86266666667 113.284 1.86266666667 " stroke="black" fill="transparent"/>
<path d="M31.1573333333 1.86266666667 L30.988 2.032 L30.48 2.032 L30.3106666667 2.20133333333 L30.1413333333 2.20133333333 L29.972 2.37066666667 L29.8026666667 2.37066666667 L29.2946666667 2.87866666667 L29.1253333333 2.87866666667 L28.956 3.048 L28.956 3.21733333333 L28.448 3.72533333333 L28.448 3.89466666667 L28.2786666667 4.064 L28.2786666667 4.40266666667 L28.1093333333 4.572 L28.1093333333 4.91066666667 L27.94 5.08 L27.94 6.604 L28.1093333333 6.77333333333 L28.1093333333 7.28133333333 L28.2786666667 7.45066666667 L28.2786666667 7.62 L28.448 7.78933333333 L28.448 7.95866666667 L28.7866666667 8.29733333333 L28.7866666667 8.46666666667 L29.464 9.144 L29.6333333333 9.144 L29.8026666667 9.31333333333 L29.972 9.31333333333 L30.1413333333 9.48266666667 L30.3106666667 9.48266666667 L30.48 9.652 L30.8186666667 9.652 L30.988 9.82133333333 L33.02 9.82133333333 L33.1893333333 9.652 L33.528 9.652 L33.6973333333 9.48266666667 L33.8666666667 9.48266666667 L34.036 9.31333333333 L34.2053333333 9.31333333333 L35.3906666667 8.128 L35.3906666667 7.95866666667 L35.56 7.78933333333 L35.56 7.62 L35.7293333333 7.45066666667 L35.7293333333 7.112 L35.8986666667 6.94266666667 L35.8986666667 4.74133333333 L35.7293333333 4.572 L35.7293333333 4.23333333333 L35.56 4.064 L35.56 3.89466666667 L35.2213333333 3.556 L35.2213333333 3.38666666667 L34.3746666667 2.54 L34.2053333333 2.54 L34.036 2.37066666667 L33.8666666667 2.37066666667 L33.6973333333 2.20133333333 L33.528 2.20133333333 L33.3586666667 2.032 L33.02 2.032 L32.8506666667 1.86266666667 31.1573333333 1.86266666667 " stroke="black" fill="transparent"/>
<path d="M96.012 0.169333333333 L96.012 114.3 L98.8906666667 114.3 L98.8906666667 0.169333333333 96.012 0.169333333333 " stroke="black" fill="transparent"/>
<path d="M91.44 0.169333333333 L91.44 114.3 L94.3186666667 114.3 L94.3186666667 0.169333333333 91.44 0.169333333333 " stroke="black" fill="transparent"/>
<path d="M86.868 0.169333333333 L86.868 114.3 L89.7466666667 114.3 L89.7466666667 0.169333333333 86.868 0.169333333333 " stroke="black" fill="transparent"/>
<path d="M82.296 0.169333333333 L82.296 114.3 L85.1746666667 114.3 L85.1746666667 0.169333333333 82.296 0.169333333333 " stroke="black" fill="transparent"/>
<path d="M13.8853333333 0.169333333333 L13.8853333333 114.3 L16.5946666667 114.3 L16.5946666667 0.169333333333 13.8853333333 0.169333333333 " stroke="black" fill="transparent"/>
<path d="M9.31333333333 0.169333333333 L9.31333333333 114.3 L12.0226666667 114.3 L12.0226666667 0.169333333333 9.31333333333 0.169333333333 " stroke="black" fill="transparent"/>
<path d="M4.74133333333 0.169333333333 L4.74133333333 114.3 L7.45066666667 114.3 L7.45066666667 0.169333333333 4.74133333333 0.169333333333 " stroke="black" fill="transparent"/>
<path d="M0.169333333333 0.169333333333 L0.169333333333 114.3 L2.87866666667 114.3 L2.87866666667 0.169333333333 0.169333333333 0.169333333333 " stroke="black" fill="transparent"/>
</svg>