<svg width="324.78133333333335mm" height="234.52666666666667mm" xmlns="http://www.w3.org/2000/svg" fill="transparent" ><path d="M291.930666667 233.849333333 L291.930666667 234.188 L302.768 234.188 L302.937333333 234.357333333 L315.468 234.357333333 L315.637333333 234.526666667 L324.781333333 234.526666667 L324.781333333 234.188 L312.589333333 234.188 L312.42 234.018666667 L300.058666667 234.018666667 L299.889333333 233.849333333 291.930666667 233.849333333 " stroke="black" fill="transparent"/>
<path d="M115.824 233.849333333 L115.824 234.188 L122.766666667 234.188 L122.936 234.357333333 L130.894666667 234.357333333 L131.064 234.526666667 L136.990666667 234.526666667 L136.990666667 234.188 L129.201333333 234.188 L129.032 234.018666667 L121.073333333 234.018666667 L120.904 233.849333333 115.824 233.849333333 " stroke="black" fill="transparent"/>
<path d="M10.16 213.529333333 L10.16 213.698666667 L9.82133333333 214.037333333 L9.82133333333 214.206666667 L9.31333333333 214.714666667 L9.31333333333 214.884 L8.97466666667 215.222666667 L8.97466666667 215.392 L8.46666666667 215.9 L8.46666666667 216.069333333 L8.128 216.408 L8.128 216.577333333 L7.62 217.085333333 L7.62 217.254666667 L7.28133333333 217.593333333 L7.28133333333 217.762666667 L6.77333333333 218.270666667 L6.77333333333 218.44 L6.26533333333 218.948 L6.26533333333 219.117333333 L5.92666666667 219.456 L5.92666666667 219.625333333 L5.41866666667 220.133333333 L5.41866666667 220.302666667 L5.08 220.641333333 L5.08 220.810666667 L4.572 221.318666667 L4.572 221.488 L4.23333333333 221.826666667 L4.23333333333 221.996 L3.72533333333 222.504 L3.72533333333 222.673333333 L3.38666666667 223.012 L3.38666666667 223.181333333 L2.87866666667 223.689333333 L2.87866666667 223.858666667 L2.37066666667 224.366666667 L2.37066666667 224.536 L2.032 224.874666667 L2.032 225.044 L1.524 225.552 L1.524 225.721333333 L1.18533333333 226.06 L1.18533333333 226.229333333 L0.677333333333 226.737333333 L0.677333333333 226.906666667 L0.338666666667 227.245333333 L0.338666666667 227.414666667 L0.169333333333 227.584 L0.169333333333 227.753333333 L0.338666666667 227.922666667 L0.677333333333 227.584 L0.677333333333 227.414666667 L1.18533333333 226.906666667 L1.18533333333 226.737333333 L1.524 226.398666667 L1.524 226.229333333 L2.032 225.721333333 L2.032 225.552 L2.37066666667 225.213333333 L2.37066666667 225.044 L2.87866666667 224.536 L2.87866666667 224.366666667 L3.38666666667 223.858666667 L3.38666666667 223.689333333 L3.72533333333 223.350666667 L3.72533333333 223.181333333 L4.23333333333 222.673333333 L4.23333333333 222.504 L4.572 222.165333333 L4.572 221.996 L5.08 221.488 L5.08 221.318666667 L5.41866666667 220.98 L5.41866666667 220.810666667 L5.92666666667 220.302666667 L5.92666666667 220.133333333 L6.26533333333 219.794666667 L6.26533333333 219.625333333 L6.77333333333 219.117333333 L6.77333333333 218.948 L7.28133333333 218.44 L7.28133333333 218.270666667 L7.62 217.932 L7.62 217.762666667 L8.128 217.254666667 L8.128 217.085333333 L8.46666666667 216.746666667 L8.46666666667 216.577333333 L8.97466666667 216.069333333 L8.97466666667 215.9 L9.31333333333 215.561333333 L9.31333333333 215.392 L9.82133333333 214.884 L9.82133333333 214.714666667 L10.16 214.376 L10.16 214.206666667 L10.4986666667 213.868 L10.4986666667 213.698666667 L10.3293333333 213.529333333 10.16 213.529333333 " stroke="black" fill="transparent"/>
<path d="M178.308 162.56 L178.308 162.898666667 L178.477333333 163.068 L178.477333333 163.406666667 L178.646666667 163.576 L178.646666667 163.745333333 L178.816 163.914666667 L178.816 164.253333333 L178.985333333 164.422666667 L178.985333333 164.592 L179.154666667 164.761333333 L179.154666667 165.1 L179.324 165.269333333 L179.324 165.438666667 L179.493333333 165.608 L179.493333333 165.946666667 L179.662666667 166.116 L179.662666667 166.285333333 L179.832 166.454666667 L179.832 166.793333333 L180.001333333 166.962666667 L180.001333333 167.132 L180.170666667 167.301333333 L180.170666667 167.64 L180.34 167.809333333 L180.34 167.978666667 L180.509333333 168.148 L180.509333333 168.486666667 L180.678666667 168.656 L180.678666667 168.825333333 L180.848 168.994666667 L180.848 169.333333333 L181.017333333 169.502666667 L181.017333333 169.672 L181.186666667 169.841333333 L181.186666667 170.010666667 L181.356 170.18 L181.356 170.518666667 L181.525333333 170.688 L181.525333333 170.857333333 L181.694666667 171.026666667 L181.694666667 171.365333333 L181.864 171.534666667 L181.864 171.704 L182.033333333 171.873333333 L182.033333333 172.212 L182.202666667 172.381333333 L182.202666667 172.550666667 L182.372 172.72 L182.372 173.058666667 L182.541333333 173.228 L182.541333333 173.397333333 L182.710666667 173.566666667 L182.710666667 173.905333333 L182.88 174.074666667 L182.88 174.244 L183.049333333 174.413333333 L183.049333333 174.752 L183.218666667 174.921333333 L183.218666667 175.090666667 L183.388 175.26 L183.388 175.598666667 L183.557333333 175.768 L183.557333333 175.937333333 L183.726666667 176.106666667 L183.726666667 176.445333333 L183.896 176.614666667 L183.896 176.784 L184.065333333 176.953333333 L184.065333333 177.292 L184.234666667 177.461333333 L184.234666667 177.630666667 L184.404 177.8 L184.404 178.138666667 L184.573333333 178.308 L184.573333333 178.477333333 L184.742666667 178.646666667 L184.742666667 178.816 L184.912 178.985333333 L184.912 179.324 L185.081333333 179.493333333 L185.081333333 179.662666667 L185.250666667 179.832 L185.250666667 180.170666667 L185.42 180.34 L185.42 180.509333333 L185.589333333 180.678666667 L185.589333333 181.017333333 L185.758666667 181.186666667 L185.758666667 181.356 L185.928 181.525333333 L185.928 181.864 L186.097333333 182.033333333 L186.097333333 182.202666667 L186.266666667 182.372 L186.266666667 182.710666667 L186.436 182.88 L186.436 183.049333333 L186.605333333 183.218666667 L186.605333333 183.557333333 L186.774666667 183.726666667 L186.774666667 183.896 L186.944 184.065333333 L186.944 184.404 L187.113333333 184.573333333 L187.113333333 184.742666667 L187.282666667 184.912 L187.282666667 185.250666667 L187.452 185.42 L187.452 185.589333333 L187.621333333 185.589333333 L187.790666667 185.42 L187.790666667 185.250666667 L187.621333333 185.081333333 L187.621333333 184.742666667 L187.452 184.573333333 L187.452 184.404 L187.282666667 184.234666667 L187.282666667 183.896 L187.113333333 183.726666667 L187.113333333 183.557333333 L186.944 183.388 L186.944 183.218666667 L186.774666667 183.049333333 L186.774666667 182.710666667 L186.605333333 182.541333333 L186.605333333 182.372 L186.436 182.202666667 L186.436 181.864 L186.266666667 181.694666667 L186.266666667 181.525333333 L186.097333333 181.356 L186.097333333 181.017333333 L185.928 180.848 L185.928 180.678666667 L185.758666667 180.509333333 L185.758666667 180.170666667 L185.589333333 180.001333333 L185.589333333 179.832 L185.42 179.662666667 L185.42 179.324 L185.250666667 179.154666667 L185.250666667 178.985333333 L185.081333333 178.816 L185.081333333 178.477333333 L184.912 178.308 L184.912 178.138666667 L184.742666667 177.969333333 L184.742666667 177.630666667 L184.573333333 177.461333333 L184.573333333 177.292 L184.404 177.122666667 L184.404 176.784 L184.234666667 176.614666667 L184.234666667 176.445333333 L184.065333333 176.276 L184.065333333 175.937333333 L183.896 175.768 L183.896 175.598666667 L183.726666667 175.429333333 L183.726666667 175.090666667 L183.557333333 174.921333333 L183.557333333 174.752 L183.388 174.582666667 L183.388 174.413333333 L183.218666667 174.244 L183.218666667 173.905333333 L183.049333333 173.736 L183.049333333 173.566666667 L182.88 173.397333333 L182.88 173.058666667 L182.710666667 172.889333333 L182.710666667 172.72 L182.541333333 172.550666667 L182.541333333 172.212 L182.372 172.042666667 L182.372 171.873333333 L182.202666667 171.704 L182.202666667 171.365333333 L182.033333333 171.196 L182.033333333 171.026666667 L181.864 170.857333333 L181.864 170.518666667 L181.694666667 170.349333333 L181.694666667 170.18 L181.525333333 170.010666667 L181.525333333 169.672 L181.356 169.502666667 L181.356 169.333333333 L181.186666667 169.164 L181.186666667 168.825333333 L181.017333333 168.656 L181.017333333 168.486666667 L180.848 168.317333333 L180.848 167.978666667 L180.678666667 167.809333333 L180.678666667 167.64 L180.509333333 167.470666667 L180.509333333 167.132 L180.34 166.962666667 L180.34 166.793333333 L180.170666667 166.624 L180.170666667 166.285333333 L180.001333333 166.116 L180.001333333 165.946666667 L179.832 165.777333333 L179.832 165.608 L179.662666667 165.438666667 L179.662666667 165.1 L179.493333333 164.930666667 L179.493333333 164.761333333 L179.324 164.592 L179.324 164.253333333 L179.154666667 164.084 L179.154666667 163.914666667 L178.985333333 163.745333333 L178.985333333 163.406666667 L178.816 163.237333333 L178.816 163.068 L178.646666667 162.898666667 L178.646666667 162.56 178.308 162.56 " stroke="black" fill="transparent"/>
<path d="M296.164 120.565333333 L295.994666667 120.734666667 L295.994666667 120.904 L296.333333333 121.242666667 L296.333333333 121.412 L296.672 121.750666667 L296.672 121.92 L297.010666667 122.258666667 L297.010666667 122.428 L297.349333333 122.766666667 L297.349333333 122.936 L297.518666667 123.105333333 L297.518666667 123.274666667 L297.857333333 123.613333333 L297.857333333 123.782666667 L298.196 124.121333333 L298.196 124.290666667 L298.534666667 124.629333333 L298.534666667 124.798666667 L298.873333333 125.137333333 L298.873333333 125.306666667 L299.212 125.645333333 L299.212 125.814666667 L299.550666667 126.153333333 L299.550666667 126.322666667 L299.889333333 126.661333333 L299.889333333 126.830666667 L300.058666667 127.0 L300.058666667 127.169333333 L300.397333333 127.508 L300.397333333 127.677333333 L300.736 128.016 L300.736 128.185333333 L301.074666667 128.524 L301.074666667 128.693333333 L301.413333333 129.032 L301.413333333 129.201333333 L301.752 129.54 L301.752 129.709333333 L302.090666667 130.048 L302.090666667 130.217333333 L302.429333333 130.556 L302.429333333 130.725333333 L302.598666667 130.894666667 L302.598666667 131.064 L302.937333333 131.402666667 L302.937333333 131.572 L303.276 131.910666667 L303.276 132.08 L303.614666667 132.418666667 L303.614666667 132.588 L303.953333333 132.926666667 L303.953333333 133.096 L304.292 133.434666667 L304.292 133.604 L304.630666667 133.942666667 L304.630666667 134.112 L304.969333333 134.450666667 L304.969333333 134.62 L305.138666667 134.789333333 L305.138666667 134.958666667 L305.477333333 135.297333333 L305.477333333 135.466666667 L305.816 135.805333333 L305.816 135.974666667 L306.154666667 136.313333333 L306.154666667 136.482666667 L306.493333333 136.821333333 L306.493333333 136.990666667 L306.832 137.329333333 L306.832 137.498666667 L307.170666667 137.837333333 L307.170666667 138.006666667 L307.509333333 138.345333333 L307.509333333 138.514666667 L307.678666667 138.684 L307.678666667 138.853333333 L308.017333333 139.192 L308.017333333 139.361333333 L308.356 139.7 L308.356 139.869333333 L308.694666667 140.208 L308.694666667 140.377333333 L309.033333333 140.716 L309.033333333 140.885333333 L309.202666667 141.054666667 L309.372 141.054666667 L309.541333333 140.885333333 L309.372 140.716 L309.372 140.546666667 L309.033333333 140.208 L309.033333333 140.038666667 L308.694666667 139.7 L308.694666667 139.530666667 L308.525333333 139.361333333 L308.525333333 139.192 L308.186666667 138.853333333 L308.186666667 138.684 L307.848 138.345333333 L307.848 138.176 L307.509333333 137.837333333 L307.509333333 137.668 L307.170666667 137.329333333 L307.170666667 137.16 L306.832 136.821333333 L306.832 136.652 L306.493333333 136.313333333 L306.493333333 136.144 L306.154666667 135.805333333 L306.154666667 135.636 L305.985333333 135.466666667 L305.985333333 135.297333333 L305.646666667 134.958666667 L305.646666667 134.789333333 L305.308 134.450666667 L305.308 134.281333333 L304.969333333 133.942666667 L304.969333333 133.773333333 L304.630666667 133.434666667 L304.630666667 133.265333333 L304.292 132.926666667 L304.292 132.757333333 L303.953333333 132.418666667 L303.953333333 132.249333333 L303.614666667 131.910666667 L303.614666667 131.741333333 L303.445333333 131.572 L303.445333333 131.402666667 L303.106666667 131.064 L303.106666667 130.894666667 L302.768 130.556 L302.768 130.386666667 L302.429333333 130.048 L302.429333333 129.878666667 L302.090666667 129.54 L302.090666667 129.370666667 L301.752 129.032 L301.752 128.862666667 L301.413333333 128.524 L301.413333333 128.354666667 L301.074666667 128.016 L301.074666667 127.846666667 L300.905333333 127.677333333 L300.905333333 127.508 L300.566666667 127.169333333 L300.566666667 127.0 L300.228 126.661333333 L300.228 126.492 L299.889333333 126.153333333 L299.889333333 125.984 L299.550666667 125.645333333 L299.550666667 125.476 L299.212 125.137333333 L299.212 124.968 L298.873333333 124.629333333 L298.873333333 124.46 L298.534666667 124.121333333 L298.534666667 123.952 L298.365333333 123.782666667 L298.365333333 123.613333333 L298.026666667 123.274666667 L298.026666667 123.105333333 L297.688 122.766666667 L297.688 122.597333333 L297.349333333 122.258666667 L297.349333333 122.089333333 L297.010666667 121.750666667 L297.010666667 121.581333333 L296.672 121.242666667 L296.672 121.073333333 L296.333333333 120.734666667 L296.333333333 120.565333333 296.164 120.565333333 " stroke="black" fill="transparent"/>
<path d="M68.9186666667 104.309333333 L68.7493333333 104.478666667 L68.7493333333 104.648 L68.58 104.817333333 L68.58 105.156 L68.4106666667 105.325333333 L68.4106666667 105.664 L68.2413333333 105.833333333 L68.2413333333 106.172 L68.072 106.341333333 L68.072 106.510666667 L67.9026666667 106.68 L67.9026666667 107.018666667 L67.7333333333 107.188 L67.7333333333 107.526666667 L67.564 107.696 L67.564 108.034666667 L67.3946666667 108.204 L67.3946666667 108.373333333 L67.2253333333 108.542666667 L67.2253333333 108.881333333 L67.056 109.050666667 L67.056 109.389333333 L66.8866666667 109.558666667 L66.8866666667 109.897333333 L66.7173333333 110.066666667 L66.7173333333 110.236 L66.548 110.405333333 L66.548 110.744 L66.3786666667 110.913333333 L66.3786666667 111.252 L66.2093333333 111.421333333 L66.2093333333 111.76 L66.04 111.929333333 L66.04 112.268 L65.8706666667 112.437333333 L65.8706666667 112.606666667 L65.7013333333 112.776 L65.7013333333 113.114666667 L65.532 113.284 L65.532 113.622666667 L65.3626666667 113.792 L65.3626666667 114.130666667 L65.1933333333 114.3 L65.1933333333 114.469333333 L65.024 114.638666667 L65.024 114.977333333 L64.8546666667 115.146666667 L64.8546666667 115.485333333 L64.6853333333 115.654666667 L64.6853333333 115.993333333 L64.516 116.162666667 L64.516 116.332 L64.3466666667 116.501333333 L64.3466666667 116.84 L64.1773333333 117.009333333 L64.1773333333 117.348 L64.008 117.517333333 L64.008 117.856 L63.8386666667 118.025333333 L63.8386666667 118.194666667 L63.6693333333 118.364 L63.6693333333 118.702666667 L63.5 118.872 L63.5 119.210666667 L63.3306666667 119.38 L63.3306666667 119.718666667 L63.1613333333 119.888 L63.1613333333 120.057333333 L62.992 120.226666667 L62.992 120.565333333 L62.8226666667 120.734666667 L62.8226666667 121.073333333 L62.6533333333 121.242666667 L62.6533333333 121.581333333 L62.484 121.750666667 L62.484 122.089333333 L62.3146666667 122.258666667 L62.3146666667 122.428 L62.1453333333 122.597333333 L62.1453333333 122.936 L61.976 123.105333333 L61.976 123.444 L61.8066666667 123.613333333 L61.8066666667 123.952 L61.6373333333 124.121333333 L61.6373333333 124.290666667 L61.468 124.46 L61.468 124.798666667 L61.2986666667 124.968 L61.2986666667 125.306666667 L61.1293333333 125.476 L61.1293333333 125.814666667 L60.96 125.984 L60.96 126.153333333 L60.7906666667 126.322666667 L60.7906666667 126.661333333 L60.6213333333 126.830666667 L60.6213333333 127.169333333 L60.452 127.338666667 L60.452 127.677333333 L60.2826666667 127.846666667 L60.2826666667 128.016 L60.1133333333 128.185333333 L60.1133333333 128.524 L59.944 128.693333333 L59.944 129.032 L59.7746666667 129.201333333 L59.7746666667 129.54 L59.6053333333 129.709333333 L59.6053333333 129.878666667 L59.944 129.878666667 L59.944 129.709333333 L60.1133333333 129.54 L60.1133333333 129.370666667 L60.2826666667 129.201333333 L60.2826666667 128.862666667 L60.452 128.693333333 L60.452 128.354666667 L60.6213333333 128.185333333 L60.6213333333 127.846666667 L60.7906666667 127.677333333 L60.7906666667 127.508 L60.96 127.338666667 L60.96 127.0 L61.1293333333 126.830666667 L61.1293333333 126.492 L61.2986666667 126.322666667 L61.2986666667 125.984 L61.468 125.814666667 L61.468 125.476 L61.6373333333 125.306666667 L61.6373333333 125.137333333 L61.8066666667 124.968 L61.8066666667 124.629333333 L61.976 124.46 L61.976 124.121333333 L62.1453333333 123.952 L62.1453333333 123.613333333 L62.3146666667 123.444 L62.3146666667 123.274666667 L62.484 123.105333333 L62.484 122.766666667 L62.6533333333 122.597333333 L62.6533333333 122.258666667 L62.8226666667 122.089333333 L62.8226666667 121.750666667 L62.992 121.581333333 L62.992 121.412 L63.1613333333 121.242666667 L63.1613333333 120.904 L63.3306666667 120.734666667 L63.3306666667 120.396 L63.5 120.226666667 L63.5 119.888 L63.6693333333 119.718666667 L63.6693333333 119.549333333 L63.8386666667 119.38 L63.8386666667 119.041333333 L64.008 118.872 L64.008 118.533333333 L64.1773333333 118.364 L64.1773333333 118.025333333 L64.3466666667 117.856 L64.3466666667 117.686666667 L64.516 117.517333333 L64.516 117.178666667 L64.6853333333 117.009333333 L64.6853333333 116.670666667 L64.8546666667 116.501333333 L64.8546666667 116.162666667 L65.024 115.993333333 L65.024 115.654666667 L65.1933333333 115.485333333 L65.1933333333 115.316 L65.3626666667 115.146666667 L65.3626666667 114.808 L65.532 114.638666667 L65.532 114.3 L65.7013333333 114.130666667 L65.7013333333 113.792 L65.8706666667 113.622666667 L65.8706666667 113.453333333 L66.04 113.284 L66.04 112.945333333 L66.2093333333 112.776 L66.2093333333 112.437333333 L66.3786666667 112.268 L66.3786666667 111.929333333 L66.548 111.76 L66.548 111.590666667 L66.7173333333 111.421333333 L66.7173333333 111.082666667 L66.8866666667 110.913333333 L66.8866666667 110.574666667 L67.056 110.405333333 L67.056 110.066666667 L67.2253333333 109.897333333 L67.2253333333 109.728 L67.3946666667 109.558666667 L67.3946666667 109.22 L67.564 109.050666667 L67.564 108.712 L67.7333333333 108.542666667 L67.7333333333 108.204 L67.9026666667 108.034666667 L67.9026666667 107.865333333 L68.072 107.696 L68.072 107.357333333 L68.2413333333 107.188 L68.2413333333 106.849333333 L68.4106666667 106.68 L68.4106666667 106.341333333 L68.58 106.172 L68.58 105.833333333 L68.7493333333 105.664 L68.7493333333 105.494666667 L68.9186666667 105.325333333 L68.9186666667 104.986666667 L69.088 104.817333333 L69.088 104.309333333 68.9186666667 104.309333333 " stroke="black" fill="transparent"/>
<path d="M162.729333333 66.7173333333 L162.729333333 67.056 L162.56 67.2253333333 L162.56 67.564 L162.390666667 67.7333333333 L162.390666667 68.072 L162.221333333 68.2413333333 L162.221333333 68.58 L162.052 68.7493333333 L162.052 69.088 L161.882666667 69.2573333333 L161.882666667 69.596 L161.713333333 69.7653333333 L161.713333333 70.104 L161.544 70.2733333333 L161.544 70.612 L161.374666667 70.7813333333 L161.374666667 71.12 L161.205333333 71.2893333333 L161.205333333 71.628 L161.036 71.7973333333 L161.036 72.136 L160.866666667 72.3053333333 L160.866666667 72.644 L160.697333333 72.8133333333 L160.697333333 73.152 L160.528 73.3213333333 L160.528 73.66 L160.358666667 73.8293333333 L160.358666667 74.168 L160.189333333 74.3373333333 L160.189333333 74.5066666667 L160.02 74.676 L160.02 75.0146666667 L159.850666667 75.184 L159.850666667 75.5226666667 L159.681333333 75.692 L159.681333333 76.0306666667 L159.512 76.2 L159.512 76.5386666667 L159.342666667 76.708 L159.342666667 77.0466666667 L159.173333333 77.216 L159.173333333 77.5546666667 L159.004 77.724 L159.004 78.0626666667 L158.834666667 78.232 L158.834666667 78.5706666667 L158.665333333 78.74 L158.665333333 79.0786666667 L158.496 79.248 L158.496 79.5866666667 L158.326666667 79.756 L158.326666667 80.0946666667 L158.157333333 80.264 L158.157333333 80.6026666667 L157.988 80.772 L157.988 81.1106666667 L157.818666667 81.28 L157.818666667 81.6186666667 L157.649333333 81.788 L157.649333333 82.1266666667 L157.48 82.296 L157.48 82.6346666667 L157.310666667 82.804 L157.310666667 83.1426666667 L157.141333333 83.312 L157.141333333 83.4813333333 L156.972 83.6506666667 L156.972 83.9893333333 L156.802666667 84.1586666667 L156.802666667 84.4973333333 L156.633333333 84.6666666667 L156.633333333 85.0053333333 L156.464 85.1746666667 L156.464 85.5133333333 L156.294666667 85.6826666667 L156.294666667 86.0213333333 L156.125333333 86.1906666667 L156.125333333 86.5293333333 L155.956 86.6986666667 L155.956 87.0373333333 L155.786666667 87.2066666667 L155.786666667 87.5453333333 L155.617333333 87.7146666667 L155.617333333 88.0533333333 L155.448 88.2226666667 L155.448 88.5613333333 L155.278666667 88.7306666667 L155.278666667 89.0693333333 L155.109333333 89.2386666667 L155.109333333 89.5773333333 L154.94 89.7466666667 L154.94 90.2546666667 L155.109333333 90.2546666667 L155.278666667 90.0853333333 L155.278666667 89.7466666667 L155.448 89.5773333333 L155.448 89.2386666667 L155.617333333 89.0693333333 L155.617333333 88.7306666667 L155.786666667 88.5613333333 L155.786666667 88.392 L155.956 88.2226666667 L155.956 87.884 L156.125333333 87.7146666667 L156.125333333 87.376 L156.294666667 87.2066666667 L156.294666667 86.868 L156.464 86.6986666667 L156.464 86.36 L156.633333333 86.1906666667 L156.633333333 85.852 L156.802666667 85.6826666667 L156.802666667 85.344 L156.972 85.1746666667 L156.972 84.836 L157.141333333 84.6666666667 L157.141333333 84.328 L157.310666667 84.1586666667 L157.310666667 83.82 L157.48 83.6506666667 L157.48 83.312 L157.649333333 83.1426666667 L157.649333333 82.804 L157.818666667 82.6346666667 L157.818666667 82.296 L157.988 82.1266666667 L157.988 81.788 L158.157333333 81.6186666667 L158.157333333 81.28 L158.326666667 81.1106666667 L158.326666667 80.772 L158.496 80.6026666667 L158.496 80.264 L158.665333333 80.0946666667 L158.665333333 79.756 L158.834666667 79.5866666667 L158.834666667 79.4173333333 L159.004 79.248 L159.004 78.9093333333 L159.173333333 78.74 L159.173333333 78.4013333333 L159.342666667 78.232 L159.342666667 77.8933333333 L159.512 77.724 L159.512 77.3853333333 L159.681333333 77.216 L159.681333333 76.8773333333 L159.850666667 76.708 L159.850666667 76.3693333333 L160.02 76.2 L160.02 75.8613333333 L160.189333333 75.692 L160.189333333 75.3533333333 L160.358666667 75.184 L160.358666667 74.8453333333 L160.528 74.676 L160.528 74.3373333333 L160.697333333 74.168 L160.697333333 73.8293333333 L160.866666667 73.66 L160.866666667 73.3213333333 L161.036 73.152 L161.036 72.8133333333 L161.205333333 72.644 L161.205333333 72.3053333333 L161.374666667 72.136 L161.374666667 71.7973333333 L161.544 71.628 L161.544 71.2893333333 L161.713333333 71.12 L161.713333333 70.7813333333 L161.882666667 70.612 L161.882666667 70.4426666667 L162.052 70.2733333333 L162.052 69.9346666667 L162.221333333 69.7653333333 L162.221333333 69.4266666667 L162.390666667 69.2573333333 L162.390666667 68.9186666667 L162.56 68.7493333333 L162.56 68.4106666667 L162.729333333 68.2413333333 L162.729333333 67.9026666667 L162.898666667 67.7333333333 L162.898666667 67.3946666667 L163.068 67.2253333333 L163.068 66.8866666667 L162.898666667 66.8866666667 162.729333333 66.7173333333 " stroke="black" fill="transparent"/>
<path d="M12.5306666667 19.6426666667 L12.5306666667 19.9813333333 L26.924 34.3746666667 L27.0933333333 34.3746666667 L27.2626666667 34.2053333333 L27.2626666667 34.036 L12.8693333333 19.6426666667 12.5306666667 19.6426666667 " stroke="black" fill="transparent"/>
<path d="M295.994666667 8.97466666667 L295.825333333 9.144 L295.825333333 9.48266666667 L295.656 9.652 L295.656 9.82133333333 L295.486666667 9.99066666667 L295.486666667 10.16 L295.317333333 10.3293333333 L295.317333333 10.668 L295.148 10.8373333333 L295.148 11.0066666667 L294.978666667 11.176 L294.978666667 11.5146666667 L294.809333333 11.684 L294.809333333 11.8533333333 L294.64 12.0226666667 L294.64 12.192 L294.470666667 12.3613333333 L294.470666667 12.7 L294.301333333 12.8693333333 L294.301333333 13.0386666667 L294.132 13.208 L294.132 13.3773333333 L293.962666667 13.5466666667 L293.962666667 13.8853333333 L293.793333333 14.0546666667 L293.793333333 14.224 L293.624 14.3933333333 L293.624 14.5626666667 L293.454666667 14.732 L293.454666667 15.0706666667 L293.285333333 15.24 L293.285333333 15.4093333333 L293.116 15.5786666667 L293.116 15.9173333333 L292.946666667 16.0866666667 L292.946666667 16.256 L292.777333333 16.4253333333 L292.777333333 16.5946666667 L292.608 16.764 L292.608 17.1026666667 L292.438666667 17.272 L292.438666667 17.4413333333 L292.269333333 17.6106666667 L292.269333333 17.78 L292.1 17.9493333333 L292.1 18.288 L291.930666667 18.4573333333 L291.930666667 18.6266666667 L291.761333333 18.796 L291.761333333 19.1346666667 L291.592 19.304 L291.592 19.4733333333 L291.422666667 19.6426666667 L291.422666667 19.812 L291.253333333 19.9813333333 L291.253333333 20.32 L291.084 20.4893333333 L291.084 20.6586666667 L290.914666667 20.828 L290.914666667 20.9973333333 L290.745333333 21.1666666667 L290.745333333 21.5053333333 L290.576 21.6746666667 L290.576 21.844 L290.406666667 22.0133333333 L290.406666667 22.1826666667 L290.237333333 22.352 L290.237333333 22.6906666667 L290.068 22.86 L290.068 23.0293333333 L289.898666667 23.1986666667 L289.898666667 23.5373333333 L289.729333333 23.7066666667 L289.729333333 23.876 L289.56 24.0453333333 L289.56 24.2146666667 L289.390666667 24.384 L289.390666667 24.7226666667 L289.221333333 24.892 L289.221333333 25.0613333333 L289.052 25.2306666667 L289.052 25.4 L288.882666667 25.5693333333 L288.882666667 25.908 L288.713333333 26.0773333333 L288.713333333 26.2466666667 L288.544 26.416 L288.544 26.7546666667 L288.374666667 26.924 L288.374666667 27.0933333333 L288.205333333 27.2626666667 L288.205333333 27.432 L288.036 27.6013333333 L288.036 27.94 L287.866666667 28.1093333333 L287.866666667 28.2786666667 L287.697333333 28.448 L287.697333333 28.6173333333 L287.528 28.7866666667 L287.697333333 28.956 L287.866666667 28.956 L288.036 28.7866666667 L288.036 28.6173333333 L288.205333333 28.448 L288.205333333 28.1093333333 L288.374666667 27.94 L288.374666667 27.7706666667 L288.544 27.6013333333 L288.544 27.432 L288.713333333 27.2626666667 L288.713333333 26.924 L288.882666667 26.7546666667 L288.882666667 26.5853333333 L289.052 26.416 L289.052 26.2466666667 L289.221333333 26.0773333333 L289.221333333 25.7386666667 L289.390666667 25.5693333333 L289.390666667 25.4 L289.56 25.2306666667 L289.56 24.892 L289.729333333 24.7226666667 L289.729333333 24.5533333333 L289.898666667 24.384 L289.898666667 24.2146666667 L290.068 24.0453333333 L290.068 23.7066666667 L290.237333333 23.5373333333 L290.237333333 23.368 L290.406666667 23.1986666667 L290.406666667 23.0293333333 L290.576 22.86 L290.576 22.5213333333 L290.745333333 22.352 L290.745333333 22.1826666667 L290.914666667 22.0133333333 L290.914666667 21.6746666667 L291.084 21.5053333333 L291.084 21.336 L291.253333333 21.1666666667 L291.253333333 20.9973333333 L291.422666667 20.828 L291.422666667 20.4893333333 L291.592 20.32 L291.592 20.1506666667 L291.761333333 19.9813333333 L291.761333333 19.812 L291.930666667 19.6426666667 L291.930666667 19.304 L292.1 19.1346666667 L292.1 18.9653333333 L292.269333333 18.796 L292.269333333 18.6266666667 L292.438666667 18.4573333333 L292.438666667 18.1186666667 L292.608 17.9493333333 L292.608 17.78 L292.777333333 17.6106666667 L292.777333333 17.272 L292.946666667 17.1026666667 L292.946666667 16.9333333333 L293.116 16.764 L293.116 16.5946666667 L293.285333333 16.4253333333 L293.285333333 16.0866666667 L293.454666667 15.9173333333 L293.454666667 15.748 L293.624 15.5786666667 L293.624 15.4093333333 L293.793333333 15.24 L293.793333333 14.9013333333 L293.962666667 14.732 L293.962666667 14.5626666667 L294.132 14.3933333333 L294.132 14.224 L294.301333333 14.0546666667 L294.301333333 13.716 L294.470666667 13.5466666667 L294.470666667 13.3773333333 L294.64 13.208 L294.64 12.8693333333 L294.809333333 12.7 L294.809333333 12.5306666667 L294.978666667 12.3613333333 L294.978666667 12.192 L295.148 12.0226666667 L295.148 11.684 L295.317333333 11.5146666667 L295.317333333 11.3453333333 L295.486666667 11.176 L295.486666667 11.0066666667 L295.656 10.8373333333 L295.656 10.4986666667 L295.825333333 10.3293333333 L295.825333333 10.16 L295.994666667 9.99066666667 L295.994666667 9.652 L296.164 9.48266666667 L296.164 9.31333333333 L296.333333333 9.144 L296.164 9.144 295.994666667 8.97466666667 " stroke="black" fill="transparent"/>
<path d="M106.510666667 0.169333333333 L106.510666667 0.338666666667 L129.032 0.338666666667 L129.032 0.169333333333 106.510666667 0.169333333333 " stroke="black" fill="transparent"/>
</svg>