<svg width="150.0mm" height="46.998799519807925mm" xmlns="http://www.w3.org/2000/svg" fill="transparent" ><path d="M140.576230492 40.9963985594 L140.396158463 41.1764705882 L140.216086435 41.1764705882 L139.855942377 41.5366146459 L139.675870348 41.5366146459 L138.955582233 42.2569027611 L138.955582233 42.4369747899 L138.775510204 42.6170468187 L138.775510204 42.7971188475 L138.595438175 42.9771908764 L138.595438175 43.337334934 L138.415366146 43.5174069628 L138.415366146 44.0576230492 L138.595438175 44.237695078 L138.595438175 44.7779111645 L138.775510204 44.9579831933 L138.775510204 45.1380552221 L139.675870348 46.0384153661 L139.855942377 46.0384153661 L140.036014406 46.218487395 L140.216086435 46.218487395 L140.396158463 46.3985594238 L142.196878752 46.3985594238 L142.37695078 46.218487395 L142.557022809 46.218487395 L143.097238896 45.6782713085 L143.277310924 45.6782713085 L143.277310924 45.4981992797 L143.637454982 45.1380552221 L143.637454982 44.9579831933 L143.817527011 44.7779111645 L143.817527011 44.5978391357 L143.99759904 44.4177671068 L143.99759904 43.1572629052 L143.817527011 42.9771908764 L143.817527011 42.7971188475 L143.457382953 42.4369747899 L143.457382953 42.2569027611 L142.557022809 41.356542617 L142.37695078 41.356542617 L142.196878752 41.1764705882 L142.016806723 41.1764705882 L141.836734694 40.9963985594 140.576230492 40.9963985594 " stroke="black" fill="transparent"/>
<path d="M140.756302521 33.793517407 L140.576230492 33.9735894358 L140.216086435 33.9735894358 L140.036014406 34.1536614646 L139.855942377 34.1536614646 L139.675870348 34.3337334934 L139.495798319 34.3337334934 L138.955582233 34.8739495798 L138.955582233 35.0540216086 L138.775510204 35.2340936375 L138.775510204 35.4141656663 L138.595438175 35.5942376951 L138.595438175 36.1344537815 L138.415366146 36.3145258103 L138.415366146 36.6746698679 L138.595438175 36.8547418968 L138.595438175 37.3949579832 L138.775510204 37.575030012 L138.775510204 37.7551020408 L139.855942377 38.8355342137 L140.036014406 38.8355342137 L140.216086435 39.0156062425 L140.396158463 39.0156062425 L140.576230492 39.1956782713 L142.016806723 39.1956782713 L142.196878752 39.0156062425 L142.37695078 39.0156062425 L142.737094838 38.6554621849 L142.917166867 38.6554621849 L143.277310924 38.2953181273 L143.277310924 38.1152460984 L143.637454982 37.7551020408 L143.637454982 37.575030012 L143.817527011 37.3949579832 L143.817527011 37.2148859544 L143.99759904 37.0348139256 L143.99759904 35.7743097239 L143.817527011 35.5942376951 L143.817527011 35.4141656663 L143.637454982 35.2340936375 L143.637454982 35.0540216086 L143.097238896 34.5138055222 L142.917166867 34.5138055222 L142.557022809 34.1536614646 L142.37695078 34.1536614646 L142.196878752 33.9735894358 L141.836734694 33.9735894358 L141.656662665 33.793517407 140.756302521 33.793517407 " stroke="black" fill="transparent"/>
<path d="M140.576230492 26.4105642257 L140.396158463 26.5906362545 L140.216086435 26.5906362545 L139.135654262 27.6710684274 L139.135654262 27.8511404562 L138.775510204 28.2112845138 L138.775510204 28.3913565426 L138.595438175 28.5714285714 L138.595438175 29.1116446579 L138.415366146 29.2917166867 L138.415366146 29.6518607443 L138.595438175 29.8319327731 L138.595438175 30.1920768307 L138.775510204 30.3721488595 L138.775510204 30.5522208884 L138.955582233 30.7322929172 L138.955582233 30.912364946 L139.135654262 31.0924369748 L139.315726291 31.0924369748 L139.855942377 31.6326530612 L140.216086435 31.6326530612 L140.396158463 31.81272509 L142.016806723 31.81272509 L142.196878752 31.6326530612 L142.37695078 31.6326530612 L142.557022809 31.4525810324 L142.737094838 31.4525810324 L142.917166867 31.2725090036 L143.097238896 31.2725090036 L143.457382953 30.912364946 L143.457382953 30.7322929172 L143.817527011 30.3721488595 L143.817527011 30.1920768307 L143.99759904 30.0120048019 L143.99759904 28.7515006002 L143.817527011 28.5714285714 L143.817527011 28.2112845138 L143.457382953 27.8511404562 L143.457382953 27.6710684274 L142.737094838 26.9507803121 L142.557022809 26.9507803121 L142.196878752 26.5906362545 L141.836734694 26.5906362545 L141.656662665 26.4105642257 140.576230492 26.4105642257 " stroke="black" fill="transparent"/>
<path d="M30.912364946 15.4261704682 L30.7322929172 15.606242497 L30.3721488595 15.606242497 L30.1920768307 15.7863145258 L30.0120048019 15.7863145258 L29.8319327731 15.9663865546 L29.6518607443 15.9663865546 L28.9315726291 16.6866746699 L28.9315726291 16.8667466987 L28.7515006002 17.0468187275 L28.7515006002 17.4069627851 L28.5714285714 17.5870348139 L28.5714285714 18.487394958 L28.7515006002 18.6674669868 L28.7515006002 19.0276110444 L28.9315726291 19.2076830732 L28.9315726291 19.387755102 L29.6518607443 20.1080432173 L29.8319327731 20.1080432173 L30.1920768307 20.4681872749 L30.5522208884 20.4681872749 L30.7322929172 20.6482593037 L31.81272509 20.6482593037 L31.9927971188 20.4681872749 L32.3529411765 20.4681872749 L32.5330132053 20.2881152461 L32.7130852341 20.2881152461 L32.8931572629 20.1080432173 L33.0732292917 20.1080432173 L33.6134453782 19.5678271309 L33.6134453782 19.387755102 L33.9735894358 19.0276110444 L33.9735894358 18.6674669868 L34.1536614646 18.487394958 L34.1536614646 17.5870348139 L33.9735894358 17.4069627851 L33.9735894358 17.0468187275 L33.6134453782 16.6866746699 L33.6134453782 16.5066026411 L33.0732292917 15.9663865546 L32.8931572629 15.9663865546 L32.5330132053 15.606242497 L32.1728691477 15.606242497 L31.9927971188 15.4261704682 30.912364946 15.4261704682 " stroke="black" fill="transparent"/>
<path d="M69.9879951981 13.2653061224 L69.8079231693 13.4453781513 L69.6278511405 13.4453781513 L69.087635054 13.9855942377 L69.087635054 14.1656662665 L68.9075630252 14.3457382953 L68.9075630252 14.7058823529 L68.7274909964 14.8859543818 L68.7274909964 35.7743097239 L68.9075630252 35.9543817527 L68.9075630252 36.4945978391 L69.087635054 36.6746698679 L69.087635054 37.2148859544 L69.2677070828 37.3949579832 L69.2677070828 37.7551020408 L69.4477791116 37.9351740696 L69.4477791116 38.1152460984 L69.6278511405 38.2953181273 L69.6278511405 38.6554621849 L69.8079231693 38.8355342137 L69.8079231693 39.0156062425 L69.9879951981 39.1956782713 L69.9879951981 39.3757503001 L70.1680672269 39.5558223289 L70.1680672269 39.7358943577 L70.5282112845 40.0960384154 L70.5282112845 40.2761104442 L70.7082833133 40.456182473 L70.7082833133 40.6362545018 L71.0684273709 40.9963985594 L71.0684273709 41.1764705882 L71.6086434574 41.7166866747 L71.6086434574 41.8967587035 L73.7695078031 44.0576230492 L73.9495798319 44.0576230492 L74.4897959184 44.5978391357 L74.6698679472 44.5978391357 L75.0300120048 44.9579831933 L75.2100840336 44.9579831933 L75.5702280912 45.3181272509 L75.75030012 45.3181272509 L75.9303721489 45.4981992797 L76.1104441777 45.4981992797 L76.2905162065 45.6782713085 L76.4705882353 45.6782713085 L76.6506602641 45.8583433373 L76.8307322929 45.8583433373 L77.0108043217 46.0384153661 L77.3709483794 46.0384153661 L77.5510204082 46.218487395 L77.9111644658 46.218487395 L78.0912364946 46.3985594238 L78.4513805522 46.3985594238 L78.631452581 46.5786314526 L78.9915966387 46.5786314526 L79.1716686675 46.7587034814 L79.8919567827 46.7587034814 L80.0720288115 46.9387755102 L80.0720288115 46.9987995198 L84.9339735894 46.9987995198 L84.9339735894 46.9387755102 L85.1140456182 46.7587034814 L85.8343337335 46.7587034814 L86.0144057623 46.5786314526 L86.5546218487 46.5786314526 L86.7346938776 46.3985594238 L87.0948379352 46.3985594238 L87.274909964 46.218487395 L87.6350540216 46.218487395 L87.8151260504 46.0384153661 L87.9951980792 46.0384153661 L88.175270108 45.8583433373 L88.5354141657 45.8583433373 L88.7154861945 45.6782713085 L88.8955582233 45.6782713085 L89.0756302521 45.4981992797 L89.2557022809 45.4981992797 L89.4357743097 45.3181272509 L89.6158463385 45.3181272509 L89.7959183673 45.1380552221 L89.9759903962 45.1380552221 L90.3361344538 44.7779111645 L90.5162064826 44.7779111645 L90.6962785114 44.5978391357 L90.8763505402 44.5978391357 L91.2364945978 44.237695078 L91.4165666267 44.237695078 L92.1368547419 43.5174069628 L92.3169267707 43.5174069628 L93.93757503 41.8967587035 L93.93757503 41.7166866747 L94.4777911164 41.1764705882 L94.4777911164 40.9963985594 L94.8379351741 40.6362545018 L94.8379351741 40.456182473 L95.1980792317 40.0960384154 L95.1980792317 39.9159663866 L95.3781512605 39.7358943577 L95.3781512605 39.5558223289 L95.5582232893 39.3757503001 L95.5582232893 39.1956782713 L95.7382953181 39.0156062425 L95.7382953181 38.6554621849 L95.9183673469 38.4753901561 L95.9183673469 38.2953181273 L96.0984393758 38.1152460984 L96.0984393758 37.575030012 L96.2785114046 37.3949579832 L96.2785114046 37.0348139256 L96.4585834334 36.8547418968 L96.4585834334 35.9543817527 L96.6386554622 35.7743097239 L96.6386554622 33.6134453782 L96.818727491 33.4333733493 L96.818727491 15.2460984394 L96.6386554622 15.0660264106 L96.6386554622 14.5258103241 L96.4585834334 14.3457382953 L96.4585834334 14.1656662665 L96.2785114046 13.9855942377 L95.9183673469 13.9855942377 L95.7382953181 13.8055222089 L95.5582232893 13.8055222089 L95.3781512605 13.6254501801 L95.0180072029 13.6254501801 L94.8379351741 13.4453781513 L94.2977190876 13.4453781513 L94.1176470588 13.2653061224 L93.2172869148 13.2653061224 L93.037214886 13.4453781513 L92.8571428571 13.4453781513 L92.6770708283 13.6254501801 L92.4969987995 13.6254501801 L92.4969987995 13.8055222089 L92.1368547419 14.1656662665 L92.1368547419 14.3457382953 L91.9567827131 14.5258103241 L91.9567827131 14.7058823529 L91.7767106843 14.8859543818 L91.7767106843 15.4261704682 L91.5966386555 15.606242497 L91.5966386555 34.1536614646 L91.4165666267 34.3337334934 L91.4165666267 34.8739495798 L91.2364945978 35.0540216086 L91.2364945978 35.4141656663 L91.056422569 35.5942376951 L91.056422569 35.9543817527 L90.8763505402 36.1344537815 L90.8763505402 36.3145258103 L90.6962785114 36.4945978391 L90.6962785114 36.6746698679 L90.5162064826 36.8547418968 L90.5162064826 37.0348139256 L90.3361344538 37.2148859544 L90.3361344538 37.3949579832 L89.9759903962 37.7551020408 L89.9759903962 37.9351740696 L89.6158463385 38.2953181273 L89.6158463385 38.4753901561 L88.175270108 39.9159663866 L87.9951980792 39.9159663866 L87.4549819928 40.456182473 L87.274909964 40.456182473 L86.9147659064 40.8163265306 L86.7346938776 40.8163265306 L86.5546218487 40.9963985594 L86.3745498199 40.9963985594 L86.1944777911 41.1764705882 L85.8343337335 41.1764705882 L85.6542617047 41.356542617 L85.4741896759 41.356542617 L85.2941176471 41.5366146459 L84.7539015606 41.5366146459 L84.5738295318 41.7166866747 L83.8535414166 41.7166866747 L83.6734693878 41.8967587035 L81.6926770708 41.8967587035 L81.512605042 41.7166866747 L80.612244898 41.7166866747 L80.4321728691 41.5366146459 L80.0720288115 41.5366146459 L79.8919567827 41.356542617 L79.5318127251 41.356542617 L79.3517406963 41.1764705882 L79.1716686675 41.1764705882 L78.9915966387 40.9963985594 L78.8115246098 40.9963985594 L78.631452581 40.8163265306 L78.4513805522 40.8163265306 L78.2713085234 40.6362545018 L78.0912364946 40.6362545018 L77.731092437 40.2761104442 L77.5510204082 40.2761104442 L77.0108043217 39.7358943577 L76.8307322929 39.7358943577 L75.75030012 38.6554621849 L75.75030012 38.4753901561 L75.2100840336 37.9351740696 L75.2100840336 37.7551020408 L74.849939976 37.3949579832 L74.849939976 37.2148859544 L74.6698679472 37.0348139256 L74.6698679472 36.8547418968 L74.4897959184 36.6746698679 L74.4897959184 36.4945978391 L74.3097238896 36.3145258103 L74.3097238896 35.9543817527 L74.1296518607 35.7743097239 L74.1296518607 35.4141656663 L73.9495798319 35.2340936375 L73.9495798319 15.606242497 L73.7695078031 15.4261704682 L73.7695078031 14.7058823529 L73.5894357743 14.5258103241 L73.5894357743 14.3457382953 L73.4093637455 14.1656662665 L73.4093637455 13.9855942377 L73.2292917167 13.8055222089 L73.0492196879 13.8055222089 L72.6890756303 13.4453781513 L72.3289315726 13.4453781513 L72.1488595438 13.2653061224 69.9879951981 13.2653061224 " stroke="black" fill="transparent"/>
<path d="M45.4981992797 13.2653061224 L45.3181272509 13.4453781513 L44.9579831933 13.4453781513 L44.237695078 14.1656662665 L44.237695078 14.5258103241 L44.0576230492 14.7058823529 L44.0576230492 15.606242497 L43.8775510204 15.7863145258 L43.8775510204 44.237695078 L44.0576230492 44.4177671068 L44.0576230492 45.4981992797 L44.237695078 45.6782713085 L44.237695078 46.0384153661 L44.7779111645 46.5786314526 L44.9579831933 46.5786314526 L45.1380552221 46.7587034814 L45.8583433373 46.7587034814 L46.0384153661 46.9387755102 L46.0384153661 46.9987995198 L46.9387755102 46.9987995198 L46.9387755102 46.9387755102 L47.118847539 46.7587034814 L47.8391356543 46.7587034814 L48.0192076831 46.5786314526 L48.1992797119 46.5786314526 L48.5594237695 46.218487395 L48.5594237695 46.0384153661 L48.9195678271 45.6782713085 L48.9195678271 45.1380552221 L49.0996398559 44.9579831933 L49.0996398559 31.6326530612 L49.2797118848 31.4525810324 L49.2797118848 30.5522208884 L49.4597839136 30.3721488595 L49.4597839136 29.6518607443 L49.6398559424 29.4717887155 L49.6398559424 28.9315726291 L49.8199279712 28.7515006002 L49.8199279712 28.3913565426 L50.0 28.2112845138 L50.0 27.8511404562 L50.1800720288 27.6710684274 L50.1800720288 27.4909963986 L50.3601440576 27.3109243697 L50.3601440576 26.9507803121 L50.5402160864 26.7707082833 L50.5402160864 26.5906362545 L50.7202881152 26.4105642257 L50.7202881152 26.2304921969 L51.0804321729 25.8703481393 L51.0804321729 25.6902761104 L51.2605042017 25.5102040816 L51.2605042017 25.3301320528 L51.6206482593 24.9699879952 L51.6206482593 24.7899159664 L51.9807923169 24.4297719088 L51.9807923169 24.24969988 L52.3409363745 23.8895558223 L52.3409363745 23.7094837935 L52.881152461 23.1692677071 L52.881152461 22.9891956783 L53.6014405762 22.268907563 L53.6014405762 22.0888355342 L54.8619447779 20.8283313325 L55.0420168067 20.8283313325 L55.762304922 20.1080432173 L55.9423769508 20.1080432173 L56.3025210084 19.7478991597 L56.4825930372 19.7478991597 L56.662665066 19.5678271309 L56.8427370948 19.5678271309 L57.0228091236 19.387755102 L57.2028811525 19.387755102 L57.3829531813 19.2076830732 L57.5630252101 19.2076830732 L57.7430972389 19.0276110444 L57.9231692677 19.0276110444 L58.1032412965 18.8475390156 L58.4633853541 18.8475390156 L58.643457383 18.6674669868 L59.1836734694 18.6674669868 L59.3637454982 18.487394958 L60.4441776711 18.487394958 L60.6242496999 18.3073229292 L61.7046818727 18.3073229292 L61.8847539016 18.1272509004 L62.2448979592 18.1272509004 L62.424969988 17.9471788715 L62.6050420168 17.9471788715 L63.5054021609 17.0468187275 L63.5054021609 16.8667466987 L63.6854741897 16.6866746699 L63.6854741897 14.5258103241 L63.5054021609 14.3457382953 L63.5054021609 14.1656662665 L63.3253301321 13.9855942377 L63.3253301321 13.8055222089 L63.1452581032 13.6254501801 L62.9651860744 13.6254501801 L62.7851140456 13.4453781513 L62.424969988 13.4453781513 L62.2448979592 13.2653061224 L59.0036014406 13.2653061224 L58.8235294118 13.4453781513 L57.9231692677 13.4453781513 L57.7430972389 13.6254501801 L57.3829531813 13.6254501801 L57.2028811525 13.8055222089 L56.8427370948 13.8055222089 L56.662665066 13.9855942377 L56.3025210084 13.9855942377 L56.1224489796 14.1656662665 L55.762304922 14.1656662665 L55.5822328932 14.3457382953 L55.4021608643 14.3457382953 L55.2220888355 14.5258103241 L55.0420168067 14.5258103241 L54.8619447779 14.7058823529 L54.6818727491 14.7058823529 L54.5018007203 14.8859543818 L54.3217286915 14.8859543818 L53.9615846339 15.2460984394 L53.781512605 15.2460984394 L53.4213685474 15.606242497 L53.2412965186 15.606242497 L52.881152461 15.9663865546 L52.7010804322 15.9663865546 L52.1608643457 16.5066026411 L51.9807923169 16.5066026411 L51.2605042017 17.2268907563 L51.0804321729 17.2268907563 L49.2797118848 19.0276110444 L49.0996398559 18.8475390156 L49.0996398559 15.2460984394 L48.9195678271 15.0660264106 L48.9195678271 14.8859543818 L48.7394957983 14.7058823529 L48.7394957983 14.5258103241 L48.5594237695 14.3457382953 L48.5594237695 14.1656662665 L48.0192076831 13.6254501801 L47.8391356543 13.6254501801 L47.6590636255 13.4453781513 L47.4789915966 13.4453781513 L47.2989195678 13.2653061224 45.4981992797 13.2653061224 " stroke="black" fill="transparent"/>
<path d="M14.3457382953 13.2653061224 L14.1656662665 13.4453781513 L13.0852340936 13.4453781513 L12.9051620648 13.6254501801 L12.1848739496 13.6254501801 L12.0048019208 13.8055222089 L11.4645858343 13.8055222089 L11.2845138055 13.9855942377 L10.9243697479 13.9855942377 L10.7442977191 14.1656662665 L10.3841536615 14.1656662665 L10.2040816327 14.3457382953 L10.0240096038 14.3457382953 L9.84393757503 14.5258103241 L9.48379351741 14.5258103241 L9.3037214886 14.7058823529 L9.12364945978 14.7058823529 L8.94357743097 14.8859543818 L8.76350540216 14.8859543818 L8.58343337335 15.0660264106 L8.40336134454 15.0660264106 L8.04321728691 15.4261704682 L7.8631452581 15.4261704682 L7.68307322929 15.606242497 L7.50300120048 15.606242497 L7.14285714286 15.9663865546 L6.96278511405 15.9663865546 L6.42256902761 16.5066026411 L6.2424969988 16.5066026411 L3.90156062425 18.8475390156 L3.90156062425 19.0276110444 L3.36134453782 19.5678271309 L3.36134453782 19.7478991597 L2.82112845138 20.2881152461 L2.82112845138 20.4681872749 L2.46098439376 20.8283313325 L2.46098439376 21.0084033613 L2.28091236495 21.1884753902 L2.28091236495 21.368547419 L1.92076830732 21.7286914766 L1.92076830732 21.9087635054 L1.74069627851 22.0888355342 L1.74069627851 22.268907563 L1.5606242497 22.4489795918 L1.5606242497 22.6290516206 L1.38055222089 22.8091236495 L1.38055222089 22.9891956783 L1.20048019208 23.1692677071 L1.20048019208 23.3493397359 L1.02040816327 23.5294117647 L1.02040816327 23.7094837935 L0.840336134454 23.8895558223 L0.840336134454 24.0696278511 L0.660264105642 24.24969988 L0.660264105642 24.4297719088 L0.480192076831 24.6098439376 L0.480192076831 24.9699879952 L0.300120048019 25.150060024 L0.300120048019 25.3301320528 L0.120048019208 25.5102040816 L0.0600240096038 25.5102040816 L0.0600240096038 34.5138055222 L0.120048019208 34.5138055222 L0.300120048019 34.693877551 L0.300120048019 35.0540216086 L0.480192076831 35.2340936375 L0.480192076831 35.4141656663 L0.660264105642 35.5942376951 L0.660264105642 35.7743097239 L0.840336134454 35.9543817527 L0.840336134454 36.1344537815 L1.02040816327 36.3145258103 L1.02040816327 36.6746698679 L1.20048019208 36.8547418968 L1.20048019208 37.0348139256 L1.38055222089 37.2148859544 L1.38055222089 37.3949579832 L1.5606242497 37.575030012 L1.5606242497 37.7551020408 L1.74069627851 37.9351740696 L1.74069627851 38.1152460984 L2.10084033613 38.4753901561 L2.10084033613 38.6554621849 L2.28091236495 38.8355342137 L2.28091236495 39.0156062425 L2.64105642257 39.3757503001 L2.64105642257 39.5558223289 L3.00120048019 39.9159663866 L3.00120048019 40.0960384154 L3.54141656663 40.6362545018 L3.54141656663 40.8163265306 L4.44177671068 41.7166866747 L4.44177671068 41.8967587035 L5.16206482593 42.6170468187 L5.34213685474 42.6170468187 L6.2424969988 43.5174069628 L6.42256902761 43.5174069628 L6.96278511405 44.0576230492 L7.14285714286 44.0576230492 L7.50300120048 44.4177671068 L7.68307322929 44.4177671068 L7.8631452581 44.5978391357 L8.04321728691 44.5978391357 L8.22328931573 44.7779111645 L8.40336134454 44.7779111645 L8.58343337335 44.9579831933 L8.76350540216 44.9579831933 L8.94357743097 45.1380552221 L9.12364945978 45.1380552221 L9.3037214886 45.3181272509 L9.48379351741 45.3181272509 L9.66386554622 45.4981992797 L9.84393757503 45.4981992797 L10.0240096038 45.6782713085 L10.3841536615 45.6782713085 L10.5642256903 45.8583433373 L10.7442977191 45.8583433373 L10.9243697479 46.0384153661 L11.2845138055 46.0384153661 L11.4645858343 46.218487395 L12.0048019208 46.218487395 L12.1848739496 46.3985594238 L12.5450180072 46.3985594238 L12.725090036 46.5786314526 L13.4453781513 46.5786314526 L13.6254501801 46.7587034814 L14.3457382953 46.7587034814 L14.5258103241 46.9387755102 L14.5258103241 46.9987995198 L19.2076830732 46.9987995198 L19.2076830732 46.9387755102 L19.387755102 46.7587034814 L20.2881152461 46.7587034814 L20.4681872749 46.5786314526 L21.0084033613 46.5786314526 L21.1884753902 46.3985594238 L21.7286914766 46.3985594238 L21.9087635054 46.218487395 L22.268907563 46.218487395 L22.4489795918 46.0384153661 L22.8091236495 46.0384153661 L22.9891956783 45.8583433373 L23.1692677071 45.8583433373 L23.3493397359 45.6782713085 L23.5294117647 45.6782713085 L23.7094837935 45.4981992797 L24.0696278511 45.4981992797 L24.24969988 45.3181272509 L24.4297719088 45.3181272509 L24.6098439376 45.1380552221 L24.7899159664 45.1380552221 L25.150060024 44.7779111645 L25.3301320528 44.7779111645 L25.5102040816 44.5978391357 L25.6902761104 44.5978391357 L25.8703481393 44.4177671068 L26.0504201681 44.4177671068 L26.4105642257 44.0576230492 L26.5906362545 44.0576230492 L26.9507803121 43.6974789916 L27.1308523409 43.6974789916 L27.3109243697 43.5174069628 L27.4909963986 43.5174069628 L27.8511404562 43.1572629052 L28.031212485 43.1572629052 L28.3913565426 42.7971188475 L28.5714285714 42.7971188475 L28.7515006002 42.6170468187 L28.9315726291 42.7971188475 L28.9315726291 44.9579831933 L29.1116446579 45.1380552221 L29.1116446579 45.6782713085 L29.4717887155 46.0384153661 L29.4717887155 46.218487395 L29.6518607443 46.3985594238 L29.8319327731 46.3985594238 L30.0120048019 46.5786314526 L30.1920768307 46.5786314526 L30.3721488595 46.7587034814 L30.912364946 46.7587034814 L31.0924369748 46.9387755102 L31.0924369748 46.9987995198 L32.3529411765 46.9987995198 L32.3529411765 46.9387755102 L32.5330132053 46.7587034814 L32.8931572629 46.7587034814 L33.0732292917 46.5786314526 L33.2533013205 46.5786314526 L33.2533013205 46.3985594238 L33.6134453782 46.0384153661 L33.6134453782 45.4981992797 L33.793517407 45.3181272509 L33.793517407 26.5906362545 L33.6134453782 26.4105642257 L33.6134453782 25.8703481393 L33.4333733493 25.6902761104 L33.4333733493 25.5102040816 L33.2533013205 25.3301320528 L33.2533013205 25.150060024 L32.8931572629 24.7899159664 L32.7130852341 24.7899159664 L32.5330132053 24.6098439376 L32.1728691477 24.6098439376 L31.9927971188 24.4297719088 L30.7322929172 24.4297719088 L30.5522208884 24.6098439376 L30.1920768307 24.6098439376 L29.2917166867 25.5102040816 L29.2917166867 25.6902761104 L29.1116446579 25.8703481393 L29.1116446579 26.4105642257 L28.9315726291 26.5906362545 L28.9315726291 27.8511404562 L28.7515006002 28.031212485 L28.7515006002 29.8319327731 L28.5714285714 30.0120048019 L28.5714285714 31.4525810324 L28.3913565426 31.6326530612 L28.3913565426 32.5330132053 L28.2112845138 32.7130852341 L28.2112845138 33.4333733493 L28.031212485 33.6134453782 L28.031212485 33.9735894358 L27.8511404562 34.1536614646 L27.8511404562 34.5138055222 L27.6710684274 34.693877551 L27.6710684274 35.0540216086 L27.4909963986 35.2340936375 L27.4909963986 35.4141656663 L27.3109243697 35.5942376951 L27.3109243697 35.7743097239 L27.1308523409 35.9543817527 L27.1308523409 36.1344537815 L26.9507803121 36.3145258103 L26.9507803121 36.4945978391 L26.5906362545 36.8547418968 L26.5906362545 37.0348139256 L26.2304921969 37.3949579832 L26.2304921969 37.575030012 L24.24969988 39.5558223289 L24.0696278511 39.5558223289 L23.7094837935 39.9159663866 L23.5294117647 39.9159663866 L23.1692677071 40.2761104442 L22.9891956783 40.2761104442 L22.8091236495 40.456182473 L22.6290516206 40.456182473 L22.268907563 40.8163265306 L21.9087635054 40.8163265306 L21.7286914766 40.9963985594 L21.5486194478 40.9963985594 L21.368547419 41.1764705882 L21.0084033613 41.1764705882 L20.8283313325 41.356542617 L20.4681872749 41.356542617 L20.2881152461 41.5366146459 L19.9279711885 41.5366146459 L19.7478991597 41.7166866747 L19.0276110444 41.7166866747 L18.8475390156 41.8967587035 L17.5870348139 41.8967587035 L17.4069627851 42.0768307323 L16.3265306122 42.0768307323 L16.1464585834 41.8967587035 L14.8859543818 41.8967587035 L14.7058823529 41.7166866747 L13.9855942377 41.7166866747 L13.8055222089 41.5366146459 L13.4453781513 41.5366146459 L13.2653061224 41.356542617 L12.9051620648 41.356542617 L12.725090036 41.1764705882 L12.3649459784 41.1764705882 L12.1848739496 40.9963985594 L12.0048019208 40.9963985594 L11.824729892 40.8163265306 L11.6446578631 40.8163265306 L11.4645858343 40.6362545018 L11.1044417767 40.6362545018 L10.7442977191 40.2761104442 L10.5642256903 40.2761104442 L10.3841536615 40.0960384154 L10.2040816327 40.0960384154 L9.84393757503 39.7358943577 L9.66386554622 39.7358943577 L9.12364945978 39.1956782713 L8.94357743097 39.1956782713 L7.68307322929 37.9351740696 L7.68307322929 37.7551020408 L6.96278511405 37.0348139256 L6.96278511405 36.8547418968 L6.78271308523 36.6746698679 L6.78271308523 36.4945978391 L6.42256902761 36.1344537815 L6.42256902761 35.9543817527 L6.2424969988 35.7743097239 L6.2424969988 35.5942376951 L6.06242496999 35.4141656663 L6.06242496999 35.0540216086 L5.88235294118 34.8739495798 L5.88235294118 34.693877551 L5.70228091236 34.5138055222 L5.70228091236 34.1536614646 L5.52220888355 33.9735894358 L5.52220888355 33.4333733493 L5.34213685474 33.2533013205 L5.34213685474 32.7130852341 L5.16206482593 32.5330132053 L5.16206482593 31.4525810324 L4.98199279712 31.2725090036 L4.98199279712 28.2112845138 L5.16206482593 28.031212485 L5.16206482593 27.1308523409 L5.34213685474 26.9507803121 L5.34213685474 26.4105642257 L5.52220888355 26.2304921969 L5.52220888355 25.8703481393 L5.70228091236 25.6902761104 L5.70228091236 25.5102040816 L5.88235294118 25.3301320528 L5.88235294118 24.9699879952 L6.06242496999 24.7899159664 L6.06242496999 24.6098439376 L6.42256902761 24.24969988 L6.42256902761 24.0696278511 L6.60264105642 23.8895558223 L6.60264105642 23.7094837935 L6.96278511405 23.3493397359 L6.96278511405 23.1692677071 L7.8631452581 22.268907563 L7.8631452581 22.0888355342 L8.40336134454 21.5486194478 L8.58343337335 21.5486194478 L9.66386554622 20.4681872749 L9.84393757503 20.4681872749 L10.2040816327 20.1080432173 L10.3841536615 20.1080432173 L10.7442977191 19.7478991597 L10.9243697479 19.7478991597 L11.2845138055 19.387755102 L11.4645858343 19.387755102 L11.6446578631 19.2076830732 L11.824729892 19.2076830732 L12.0048019208 19.0276110444 L12.1848739496 19.0276110444 L12.3649459784 18.8475390156 L12.725090036 18.8475390156 L12.9051620648 18.6674669868 L13.2653061224 18.6674669868 L13.4453781513 18.487394958 L13.8055222089 18.487394958 L13.9855942377 18.3073229292 L14.7058823529 18.3073229292 L14.8859543818 18.1272509004 L18.3073229292 18.1272509004 L18.487394958 18.3073229292 L19.2076830732 18.3073229292 L19.387755102 18.487394958 L19.9279711885 18.487394958 L20.1080432173 18.6674669868 L20.4681872749 18.6674669868 L20.6482593037 18.8475390156 L21.0084033613 18.8475390156 L21.1884753902 19.0276110444 L21.5486194478 19.0276110444 L21.7286914766 19.2076830732 L23.3493397359 19.2076830732 L23.5294117647 19.0276110444 L23.7094837935 19.0276110444 L23.8895558223 18.8475390156 L24.0696278511 18.8475390156 L24.24969988 18.6674669868 L24.24969988 18.487394958 L24.6098439376 18.1272509004 L24.6098439376 17.7671068427 L24.7899159664 17.5870348139 L24.7899159664 17.0468187275 L24.9699879952 16.8667466987 L24.9699879952 16.5066026411 L24.7899159664 16.3265306122 L24.7899159664 15.606242497 L24.4297719088 15.2460984394 L24.4297719088 15.0660264106 L24.0696278511 14.7058823529 L23.8895558223 14.7058823529 L23.5294117647 14.3457382953 L23.1692677071 14.3457382953 L22.9891956783 14.1656662665 L22.4489795918 14.1656662665 L22.268907563 13.9855942377 L21.7286914766 13.9855942377 L21.5486194478 13.8055222089 L20.8283313325 13.8055222089 L20.6482593037 13.6254501801 L19.9279711885 13.6254501801 L19.7478991597 13.4453781513 L18.487394958 13.4453781513 L18.3073229292 13.2653061224 14.3457382953 13.2653061224 " stroke="black" fill="transparent"/>
<path d="M114.645858343 13.0852340936 L114.465786315 13.2653061224 L113.385354142 13.2653061224 L113.205282113 13.4453781513 L112.665066026 13.4453781513 L112.484993998 13.6254501801 L111.944777911 13.6254501801 L111.764705882 13.8055222089 L111.404561825 13.8055222089 L111.224489796 13.9855942377 L111.044417767 13.9855942377 L110.864345738 14.1656662665 L110.504201681 14.1656662665 L110.324129652 14.3457382953 L110.144057623 14.3457382953 L109.963985594 14.5258103241 L109.783913565 14.5258103241 L109.603841537 14.7058823529 L109.423769508 14.7058823529 L109.06362545 15.0660264106 L108.883553421 15.0660264106 L108.703481393 15.2460984394 L108.523409364 15.2460984394 L107.983193277 15.7863145258 L107.803121248 15.7863145258 L106.362545018 17.2268907563 L106.362545018 17.4069627851 L106.00240096 17.7671068427 L106.00240096 17.9471788715 L105.642256903 18.3073229292 L105.642256903 18.487394958 L105.462184874 18.6674669868 L105.462184874 18.8475390156 L105.282112845 19.0276110444 L105.282112845 19.387755102 L105.102040816 19.5678271309 L105.102040816 19.7478991597 L104.921968788 19.9279711885 L104.921968788 20.4681872749 L104.741896759 20.6482593037 L104.741896759 21.5486194478 L104.56182473 21.7286914766 L104.56182473 23.5294117647 L104.741896759 23.7094837935 L104.741896759 24.4297719088 L104.921968788 24.6098439376 L104.921968788 24.9699879952 L105.102040816 25.150060024 L105.102040816 25.5102040816 L105.282112845 25.6902761104 L105.282112845 25.8703481393 L105.462184874 26.0504201681 L105.462184874 26.2304921969 L105.642256903 26.4105642257 L105.642256903 26.5906362545 L106.00240096 26.9507803121 L106.00240096 27.1308523409 L107.442977191 28.5714285714 L107.62304922 28.5714285714 L107.983193277 28.9315726291 L108.163265306 28.9315726291 L108.523409364 29.2917166867 L108.703481393 29.2917166867 L108.883553421 29.4717887155 L109.06362545 29.4717887155 L109.243697479 29.6518607443 L109.423769508 29.6518607443 L109.603841537 29.8319327731 L109.783913565 29.8319327731 L109.963985594 30.0120048019 L110.144057623 30.0120048019 L110.324129652 30.1920768307 L110.504201681 30.1920768307 L110.684273709 30.3721488595 L111.044417767 30.3721488595 L111.224489796 30.5522208884 L111.584633854 30.5522208884 L111.764705882 30.7322929172 L112.12484994 30.7322929172 L112.304921969 30.912364946 L112.665066026 30.912364946 L112.845138055 31.0924369748 L113.205282113 31.0924369748 L113.385354142 31.2725090036 L113.925570228 31.2725090036 L114.105642257 31.4525810324 L114.645858343 31.4525810324 L114.825930372 31.6326530612 L115.366146459 31.6326530612 L115.546218487 31.81272509 L116.086434574 31.81272509 L116.266506603 31.9927971188 L116.806722689 31.9927971188 L116.986794718 32.1728691477 L117.346938776 32.1728691477 L117.527010804 32.3529411765 L118.067226891 32.3529411765 L118.24729892 32.5330132053 L118.607442977 32.5330132053 L118.787515006 32.7130852341 L119.147659064 32.7130852341 L119.327731092 32.8931572629 L119.68787515 32.8931572629 L119.867947179 33.0732292917 L120.048019208 33.0732292917 L120.228091236 33.2533013205 L120.588235294 33.2533013205 L120.768307323 33.4333733493 L120.948379352 33.4333733493 L121.128451381 33.6134453782 L121.488595438 33.6134453782 L121.668667467 33.793517407 L121.848739496 33.793517407 L122.028811525 33.9735894358 L122.208883553 33.9735894358 L122.388955582 34.1536614646 L122.569027611 34.1536614646 L122.74909964 34.3337334934 L122.929171669 34.3337334934 L123.109243697 34.5138055222 L123.289315726 34.5138055222 L124.18967587 35.4141656663 L124.18967587 35.5942376951 L124.369747899 35.7743097239 L124.369747899 36.1344537815 L124.549819928 36.3145258103 L124.549819928 37.2148859544 L124.369747899 37.3949579832 L124.369747899 37.7551020408 L124.18967587 37.9351740696 L124.18967587 38.1152460984 L124.009603842 38.2953181273 L124.009603842 38.4753901561 L123.829531813 38.6554621849 L123.829531813 38.8355342137 L122.388955582 40.2761104442 L122.208883553 40.2761104442 L121.848739496 40.6362545018 L121.668667467 40.6362545018 L121.308523409 40.9963985594 L121.128451381 40.9963985594 L120.948379352 41.1764705882 L120.588235294 41.1764705882 L120.408163265 41.356542617 L120.048019208 41.356542617 L119.867947179 41.5366146459 L119.507803121 41.5366146459 L119.327731092 41.7166866747 L118.607442977 41.7166866747 L118.427370948 41.8967587035 L115.546218487 41.8967587035 L115.366146459 41.7166866747 L114.645858343 41.7166866747 L114.465786315 41.5366146459 L113.925570228 41.5366146459 L113.745498199 41.356542617 L113.56542617 41.356542617 L113.385354142 41.1764705882 L113.025210084 41.1764705882 L112.845138055 40.9963985594 L112.665066026 40.9963985594 L112.484993998 40.8163265306 L112.12484994 40.8163265306 L111.944777911 40.6362545018 L111.764705882 40.6362545018 L111.584633854 40.456182473 L111.404561825 40.456182473 L111.224489796 40.2761104442 L111.044417767 40.2761104442 L110.864345738 40.0960384154 L110.684273709 40.0960384154 L110.504201681 39.9159663866 L110.324129652 39.9159663866 L110.144057623 39.7358943577 L109.963985594 39.7358943577 L109.783913565 39.5558223289 L109.603841537 39.5558223289 L109.243697479 39.1956782713 L109.06362545 39.1956782713 L108.883553421 39.0156062425 L108.703481393 39.0156062425 L108.523409364 38.8355342137 L108.343337335 38.8355342137 L108.163265306 38.6554621849 L107.983193277 38.6554621849 L107.803121248 38.4753901561 L107.62304922 38.4753901561 L107.442977191 38.2953181273 L107.262905162 38.2953181273 L107.082833133 38.1152460984 L106.722689076 38.1152460984 L106.542617047 37.9351740696 L105.282112845 37.9351740696 L105.102040816 38.1152460984 L104.921968788 38.1152460984 L104.741896759 38.2953181273 L104.56182473 38.2953181273 L104.021608643 38.8355342137 L104.021608643 39.0156062425 L103.841536615 39.1956782713 L103.841536615 39.3757503001 L103.661464586 39.5558223289 L103.661464586 39.9159663866 L103.481392557 40.0960384154 L103.481392557 40.8163265306 L103.661464586 40.9963985594 L103.661464586 41.356542617 L103.841536615 41.5366146459 L103.841536615 41.7166866747 L104.921968788 42.7971188475 L105.102040816 42.7971188475 L105.462184874 43.1572629052 L105.642256903 43.1572629052 L106.182472989 43.6974789916 L106.362545018 43.6974789916 L106.542617047 43.8775510204 L106.722689076 43.8775510204 L107.082833133 44.237695078 L107.262905162 44.237695078 L107.62304922 44.5978391357 L107.803121248 44.5978391357 L107.983193277 44.7779111645 L108.163265306 44.7779111645 L108.343337335 44.9579831933 L108.523409364 44.9579831933 L108.703481393 45.1380552221 L108.883553421 45.1380552221 L109.06362545 45.3181272509 L109.243697479 45.3181272509 L109.423769508 45.4981992797 L109.603841537 45.4981992797 L109.783913565 45.6782713085 L109.963985594 45.6782713085 L110.144057623 45.8583433373 L110.504201681 45.8583433373 L110.684273709 46.0384153661 L110.864345738 46.0384153661 L111.044417767 46.218487395 L111.404561825 46.218487395 L111.584633854 46.3985594238 L112.12484994 46.3985594238 L112.304921969 46.5786314526 L112.845138055 46.5786314526 L113.025210084 46.7587034814 L114.105642257 46.7587034814 L114.285714286 46.9387755102 L114.285714286 46.9987995198 L119.507803121 46.9987995198 L119.507803121 46.9387755102 L119.68787515 46.7587034814 L120.768307323 46.7587034814 L120.948379352 46.5786314526 L121.488595438 46.5786314526 L121.668667467 46.3985594238 L122.028811525 46.3985594238 L122.208883553 46.218487395 L122.388955582 46.218487395 L122.569027611 46.0384153661 L122.929171669 46.0384153661 L123.109243697 45.8583433373 L123.289315726 45.8583433373 L123.469387755 45.6782713085 L123.649459784 45.6782713085 L124.009603842 45.3181272509 L124.18967587 45.3181272509 L124.369747899 45.1380552221 L124.549819928 45.1380552221 L124.909963986 44.7779111645 L125.090036014 44.7779111645 L125.630252101 44.237695078 L125.81032413 44.237695078 L126.350540216 43.6974789916 L126.530612245 43.6974789916 L127.611044418 42.6170468187 L127.611044418 42.4369747899 L128.151260504 41.8967587035 L128.151260504 41.7166866747 L128.511404562 41.356542617 L128.511404562 41.1764705882 L128.691476591 40.9963985594 L128.691476591 40.8163265306 L128.871548619 40.6362545018 L128.871548619 40.2761104442 L129.051620648 40.0960384154 L129.051620648 39.7358943577 L129.231692677 39.5558223289 L129.231692677 39.1956782713 L129.411764706 39.0156062425 L129.411764706 37.9351740696 L129.591836735 37.7551020408 L129.591836735 36.3145258103 L129.411764706 36.1344537815 L129.411764706 35.0540216086 L129.231692677 34.8739495798 L129.231692677 34.5138055222 L129.051620648 34.3337334934 L129.051620648 33.9735894358 L128.871548619 33.793517407 L128.871548619 33.4333733493 L128.691476591 33.2533013205 L128.691476591 33.0732292917 L128.511404562 32.8931572629 L128.511404562 32.7130852341 L128.151260504 32.3529411765 L128.151260504 32.1728691477 L127.791116447 31.81272509 L127.791116447 31.6326530612 L126.710684274 30.5522208884 L126.530612245 30.5522208884 L125.990396158 30.0120048019 L125.81032413 30.0120048019 L125.450180072 29.6518607443 L125.270108043 29.6518607443 L125.090036014 29.4717887155 L124.909963986 29.4717887155 L124.729891957 29.2917166867 L124.369747899 29.2917166867 L124.18967587 29.1116446579 L124.009603842 29.1116446579 L123.829531813 28.9315726291 L123.469387755 28.9315726291 L123.289315726 28.7515006002 L123.109243697 28.7515006002 L122.929171669 28.5714285714 L122.569027611 28.5714285714 L122.388955582 28.3913565426 L121.848739496 28.3913565426 L121.668667467 28.2112845138 L121.308523409 28.2112845138 L121.128451381 28.031212485 L120.588235294 28.031212485 L120.408163265 27.8511404562 L120.048019208 27.8511404562 L119.867947179 27.6710684274 L119.327731092 27.6710684274 L119.147659064 27.4909963986 L118.787515006 27.4909963986 L118.607442977 27.3109243697 L118.067226891 27.3109243697 L117.887154862 27.1308523409 L117.527010804 27.1308523409 L117.346938776 26.9507803121 L116.986794718 26.9507803121 L116.806722689 26.7707082833 L116.446578631 26.7707082833 L116.266506603 26.5906362545 L115.906362545 26.5906362545 L115.726290516 26.4105642257 L115.366146459 26.4105642257 L115.18607443 26.2304921969 L114.825930372 26.2304921969 L114.645858343 26.0504201681 L114.285714286 26.0504201681 L114.105642257 25.8703481393 L113.745498199 25.8703481393 L113.56542617 25.6902761104 L113.205282113 25.6902761104 L113.025210084 25.5102040816 L112.845138055 25.5102040816 L112.665066026 25.3301320528 L112.304921969 25.3301320528 L112.12484994 25.150060024 L111.944777911 25.150060024 L111.764705882 24.9699879952 L111.404561825 24.9699879952 L111.224489796 24.7899159664 L111.044417767 24.7899159664 L110.144057623 23.8895558223 L110.144057623 23.7094837935 L109.963985594 23.5294117647 L109.963985594 23.1692677071 L109.783913565 22.9891956783 L109.783913565 21.9087635054 L109.963985594 21.7286914766 L109.963985594 21.368547419 L110.144057623 21.1884753902 L110.144057623 21.0084033613 L111.764705882 19.387755102 L111.944777911 19.387755102 L112.304921969 19.0276110444 L112.484993998 19.0276110444 L112.665066026 18.8475390156 L112.845138055 18.8475390156 L113.025210084 18.6674669868 L113.205282113 18.6674669868 L113.385354142 18.487394958 L113.745498199 18.487394958 L113.925570228 18.3073229292 L114.465786315 18.3073229292 L114.645858343 18.1272509004 L117.346938776 18.1272509004 L117.527010804 18.3073229292 L118.24729892 18.3073229292 L118.427370948 18.487394958 L118.787515006 18.487394958 L118.967587035 18.6674669868 L119.147659064 18.6674669868 L119.327731092 18.8475390156 L119.68787515 18.8475390156 L119.867947179 19.0276110444 L120.048019208 19.0276110444 L120.228091236 19.2076830732 L120.408163265 19.2076830732 L120.588235294 19.387755102 L120.768307323 19.387755102 L120.948379352 19.5678271309 L121.128451381 19.5678271309 L121.308523409 19.7478991597 L121.488595438 19.7478991597 L121.668667467 19.9279711885 L121.848739496 19.9279711885 L122.028811525 20.1080432173 L122.208883553 20.1080432173 L122.388955582 20.2881152461 L122.569027611 20.2881152461 L122.74909964 20.4681872749 L122.929171669 20.4681872749 L123.109243697 20.6482593037 L123.469387755 20.6482593037 L123.649459784 20.8283313325 L123.829531813 20.8283313325 L124.009603842 21.0084033613 L124.369747899 21.0084033613 L124.549819928 21.1884753902 L126.710684274 21.1884753902 L127.430972389 20.4681872749 L127.430972389 20.2881152461 L127.611044418 20.1080432173 L127.611044418 19.7478991597 L127.791116447 19.5678271309 L127.791116447 18.1272509004 L127.611044418 17.9471788715 L127.611044418 17.7671068427 L127.430972389 17.5870348139 L127.430972389 17.4069627851 L126.350540216 16.3265306122 L126.170468187 16.3265306122 L125.990396158 16.1464585834 L125.81032413 16.1464585834 L125.450180072 15.7863145258 L125.270108043 15.7863145258 L125.090036014 15.606242497 L124.909963986 15.606242497 L124.729891957 15.4261704682 L124.549819928 15.4261704682 L124.369747899 15.2460984394 L124.18967587 15.2460984394 L124.009603842 15.0660264106 L123.829531813 15.0660264106 L123.649459784 14.8859543818 L123.469387755 14.8859543818 L123.289315726 14.7058823529 L123.109243697 14.7058823529 L122.929171669 14.5258103241 L122.74909964 14.5258103241 L122.569027611 14.3457382953 L122.388955582 14.3457382953 L122.208883553 14.1656662665 L121.848739496 14.1656662665 L121.668667467 13.9855942377 L121.308523409 13.9855942377 L121.128451381 13.8055222089 L120.768307323 13.8055222089 L120.588235294 13.6254501801 L120.048019208 13.6254501801 L119.867947179 13.4453781513 L119.147659064 13.4453781513 L118.967587035 13.2653061224 L117.887154862 13.2653061224 L117.707082833 13.0852340936 114.645858343 13.0852340936 " stroke="black" fill="transparent"/>
<path d="M31.0924369748 8.04321728691 L30.912364946 8.22328931573 L30.7322929172 8.22328931573 L30.1920768307 8.76350540216 L30.0120048019 8.76350540216 L29.4717887155 9.3037214886 L29.4717887155 9.48379351741 L29.1116446579 9.84393757503 L29.1116446579 10.0240096038 L28.7515006002 10.3841536615 L28.7515006002 10.7442977191 L28.5714285714 10.9243697479 L28.5714285714 11.4645858343 L28.7515006002 11.6446578631 L28.7515006002 12.0048019208 L28.9315726291 12.1848739496 L28.9315726291 12.3649459784 L29.4717887155 12.9051620648 L29.6518607443 12.9051620648 L30.0120048019 13.2653061224 L30.3721488595 13.2653061224 L30.5522208884 13.4453781513 L32.1728691477 13.4453781513 L32.3529411765 13.2653061224 L32.5330132053 13.2653061224 L32.7130852341 13.0852340936 L32.8931572629 13.0852340936 L33.793517407 12.1848739496 L33.793517407 12.0048019208 L33.9735894358 11.824729892 L33.9735894358 11.4645858343 L34.1536614646 11.2845138055 L34.1536614646 10.5642256903 L33.9735894358 10.3841536615 L33.9735894358 10.0240096038 L33.793517407 9.84393757503 L33.793517407 9.66386554622 L33.6134453782 9.48379351741 L33.6134453782 9.3037214886 L32.5330132053 8.22328931573 L32.3529411765 8.22328931573 L32.1728691477 8.04321728691 31.0924369748 8.04321728691 " stroke="black" fill="transparent"/>
<path d="M30.7322929172 0.840336134454 L30.5522208884 1.02040816327 L30.3721488595 1.02040816327 L30.1920768307 1.20048019208 L30.0120048019 1.20048019208 L28.9315726291 2.28091236495 L28.9315726291 2.46098439376 L28.7515006002 2.64105642257 L28.7515006002 3.00120048019 L28.5714285714 3.181272509 L28.5714285714 4.08163265306 L28.7515006002 4.26170468187 L28.7515006002 4.44177671068 L28.9315726291 4.6218487395 L28.9315726291 4.80192076831 L30.0120048019 5.88235294118 L30.1920768307 5.88235294118 L30.5522208884 6.2424969988 L31.0924369748 6.2424969988 L31.2725090036 6.42256902761 L31.6326530612 6.42256902761 L31.81272509 6.2424969988 L32.3529411765 6.2424969988 L32.5330132053 6.06242496999 L32.7130852341 6.06242496999 L33.0732292917 5.70228091236 L33.2533013205 5.70228091236 L33.4333733493 5.52220888355 L33.4333733493 5.34213685474 L33.793517407 4.98199279712 L33.793517407 4.80192076831 L33.9735894358 4.6218487395 L33.9735894358 4.26170468187 L34.1536614646 4.08163265306 L34.1536614646 3.181272509 L33.9735894358 3.00120048019 L33.9735894358 2.64105642257 L33.793517407 2.46098439376 L33.793517407 2.28091236495 L33.4333733493 1.92076830732 L33.4333733493 1.74069627851 L33.0732292917 1.38055222089 L32.8931572629 1.38055222089 L32.5330132053 1.02040816327 L32.1728691477 1.02040816327 L31.9927971188 0.840336134454 30.7322929172 0.840336134454 " stroke="black" fill="transparent"/>
<path d="M139.495798319 0.0600240096038 L139.495798319 0.300120048019 L139.315726291 0.480192076831 L139.315726291 0.660264105642 L139.135654262 0.840336134454 L139.135654262 1.02040816327 L138.955582233 1.20048019208 L138.955582233 1.38055222089 L138.775510204 1.5606242497 L138.775510204 1.74069627851 L138.595438175 1.92076830732 L138.595438175 3.90156062425 L138.415366146 4.08163265306 L138.415366146 12.9051620648 L138.235294118 13.0852340936 L137.695078031 13.0852340936 L137.515006002 13.2653061224 L136.43457383 13.2653061224 L136.254501801 13.4453781513 L135.714285714 13.4453781513 L135.534213685 13.6254501801 L135.354141657 13.6254501801 L135.174069628 13.8055222089 L134.993997599 13.8055222089 L134.633853541 14.1656662665 L134.633853541 14.3457382953 L134.453781513 14.5258103241 L134.453781513 15.2460984394 L134.273709484 15.4261704682 L134.273709484 15.9663865546 L134.453781513 16.1464585834 L134.453781513 16.5066026411 L134.633853541 16.6866746699 L134.633853541 16.8667466987 L135.354141657 17.5870348139 L135.534213685 17.5870348139 L135.714285714 17.7671068427 L135.894357743 17.7671068427 L136.074429772 17.9471788715 L136.254501801 17.9471788715 L136.43457383 18.1272509004 L136.794717887 18.1272509004 L136.974789916 18.3073229292 L137.334933974 18.3073229292 L137.515006002 18.487394958 L138.055222089 18.487394958 L138.415366146 18.8475390156 L138.415366146 19.5678271309 L138.595438175 19.7478991597 L138.595438175 20.4681872749 L138.775510204 20.6482593037 L138.775510204 21.0084033613 L138.955582233 21.1884753902 L138.955582233 21.5486194478 L139.135654262 21.7286914766 L139.135654262 21.9087635054 L139.855942377 22.6290516206 L140.036014406 22.6290516206 L140.216086435 22.8091236495 L142.37695078 22.8091236495 L142.557022809 22.6290516206 L142.737094838 22.6290516206 L143.277310924 22.0888355342 L143.277310924 21.9087635054 L143.457382953 21.7286914766 L143.457382953 21.1884753902 L143.637454982 21.0084033613 L143.637454982 18.6674669868 L143.817527011 18.487394958 L145.078031212 18.487394958 L145.258103241 18.3073229292 L146.518607443 18.3073229292 L146.698679472 18.1272509004 L147.779111645 18.1272509004 L147.959183673 17.9471788715 L148.679471789 17.9471788715 L148.859543818 17.7671068427 L149.219687875 17.7671068427 L149.399759904 17.5870348139 L149.579831933 17.5870348139 L149.93997599 17.2268907563 L150.0 17.2268907563 L150.0 14.1656662665 L149.93997599 14.1656662665 L149.759903962 13.9855942377 L149.759903962 13.8055222089 L149.399759904 13.4453781513 L149.219687875 13.4453781513 L149.039615846 13.2653061224 L143.817527011 13.2653061224 L143.637454982 13.0852340936 L143.637454982 1.92076830732 L143.457382953 1.74069627851 L143.457382953 1.38055222089 L143.277310924 1.20048019208 L143.277310924 0.840336134454 L142.917166867 0.480192076831 L142.917166867 0.300120048019 L142.737094838 0.120048019208 L142.737094838 0.0600240096038 139.495798319 0.0600240096038 " stroke="black" fill="transparent"/>
</svg>